<?xml version="1.0" encoding="UTF-8" standalone="no"?><svg xmlns="http://www.w3.org/2000/svg" xmlns:xlink="http://www.w3.org/1999/xlink" contentScriptType="application/ecmascript" contentStyleType="text/css" height="431px" preserveAspectRatio="none" style="width:154px;height:431px;" version="1.1" viewBox="0 0 154 431" width="154px" zoomAndPan="magnify"><defs><filter height="300%" id="fz8g4r33ahryz" width="300%" x="-1" y="-1"><feGaussianBlur result="blurOut" stdDeviation="2.0"/><feColorMatrix in="blurOut" result="blurOut2" type="matrix" values="0 0 0 0 0 0 0 0 0 0 0 0 0 0 0 0 0 0 .4 0"/><feOffset dx="4.0" dy="4.0" in="blurOut2" result="blurOut3"/><feBlend in="SourceGraphic" in2="blurOut3" mode="normal"/></filter></defs><g><!--MD5=[29f97d496cbdc4ec81664c6d94dc9bf6]
class UserController--><rect codeLine="1" fill="#FEFECE" filter="url(#fz8g4r33ahryz)" height="60.8047" id="UserController" style="stroke:#A80036;stroke-width:1.5;" width="120" x="13.5" y="115"/><ellipse cx="28.5" cy="131" fill="#ADD1B2" rx="11" ry="11" style="stroke:#A80036;stroke-width:1.0;"/><path d="M30.8438,126.6719 C29.9063,126.2344 29.3125,126.0938 28.4375,126.0938 C25.8125,126.0938 23.8125,128.1719 23.8125,130.8906 L23.8125,132.0156 C23.8125,134.5938 25.9219,136.4844 28.8125,136.4844 C30.0313,136.4844 31.1875,136.1875 31.9375,135.6406 C32.5156,135.2344 32.8438,134.7813 32.8438,134.3906 C32.8438,133.9375 32.4531,133.5469 31.9844,133.5469 C31.7656,133.5469 31.5625,133.625 31.375,133.8125 C30.9219,134.2969 30.9219,134.2969 30.7344,134.3906 C30.3125,134.6563 29.625,134.7813 28.8594,134.7813 C26.8125,134.7813 25.5156,133.6875 25.5156,131.9844 L25.5156,130.8906 C25.5156,129.1094 26.7656,127.7969 28.5,127.7969 C29.0781,127.7969 29.6875,127.9531 30.1563,128.2031 C30.6406,128.4844 30.8125,128.7031 30.9063,129.1094 C30.9688,129.5156 31,129.6406 31.1406,129.7656 C31.2813,129.9063 31.5156,130.0156 31.7344,130.0156 C32,130.0156 32.2656,129.875 32.4375,129.6563 C32.5469,129.5 32.5781,129.3125 32.5781,128.8906 L32.5781,127.4688 C32.5781,127.0313 32.5625,126.9063 32.4688,126.75 C32.3125,126.4844 32.0313,126.3438 31.7344,126.3438 C31.4375,126.3438 31.2344,126.4375 31.0156,126.75 L30.8438,126.6719 Z " fill="#000000"/><text fill="#000000" font-family="sans-serif" font-size="12" lengthAdjust="spacing" textLength="88" x="42.5" y="135.1543">UserController</text><line style="stroke:#A80036;stroke-width:1.5;" x1="14.5" x2="132.5" y1="147" y2="147"/><line style="stroke:#A80036;stroke-width:1.5;" x1="14.5" x2="132.5" y1="155" y2="155"/><text fill="#000000" font-family="sans-serif" font-size="11" lengthAdjust="spacing" textLength="100" x="19.5" y="169.2104">getMedicineslist()</text><!--MD5=[041750a8614cfb0d995fdcda83e8b87a]
class ClientUI--><rect codeLine="6" fill="#FEFECE" filter="url(#fz8g4r33ahryz)" height="48" id="UserUI" style="stroke:#A80036;stroke-width:1.5;" width="73" x="37" y="7"/><ellipse cx="52" cy="23" fill="#ADD1B2" rx="11" ry="11" style="stroke:#A80036;stroke-width:1.0;"/><path d="M54.3438,18.6719 C53.4063,18.2344 52.8125,18.0938 51.9375,18.0938 C49.3125,18.0938 47.3125,20.1719 47.3125,22.8906 L47.3125,24.0156 C47.3125,26.5938 49.4219,28.4844 52.3125,28.4844 C53.5313,28.4844 54.6875,28.1875 55.4375,27.6406 C56.0156,27.2344 56.3438,26.7813 56.3438,26.3906 C56.3438,25.9375 55.9531,25.5469 55.4844,25.5469 C55.2656,25.5469 55.0625,25.625 54.875,25.8125 C54.4219,26.2969 54.4219,26.2969 54.2344,26.3906 C53.8125,26.6563 53.125,26.7813 52.3594,26.7813 C50.3125,26.7813 49.0156,25.6875 49.0156,23.9844 L49.0156,22.8906 C49.0156,21.1094 50.2656,19.7969 52,19.7969 C52.5781,19.7969 53.1875,19.9531 53.6563,20.2031 C54.1406,20.4844 54.3125,20.7031 54.4063,21.1094 C54.4688,21.5156 54.5,21.6406 54.6406,21.7656 C54.7813,21.9063 55.0156,22.0156 55.2344,22.0156 C55.5,22.0156 55.7656,21.875 55.9375,21.6563 C56.0469,21.5 56.0781,21.3125 56.0781,20.8906 L56.0781,19.4688 C56.0781,19.0313 56.0625,18.9063 55.9688,18.75 C55.8125,18.4844 55.5313,18.3438 55.2344,18.3438 C54.9375,18.3438 54.7344,18.4375 54.5156,18.75 L54.3438,18.6719 Z " fill="#000000"/><text fill="#000000" font-family="sans-serif" font-size="12" lengthAdjust="spacing" textLength="41" x="66" y="27.1543">UserUI</text><line style="stroke:#A80036;stroke-width:1.5;" x1="38" x2="109" y1="39" y2="39"/><line style="stroke:#A80036;stroke-width:1.5;" x1="38" x2="109" y1="47" y2="47"/><!--MD5=[837d3612090b426002fd1342fcbe6b88]
class DataBase--><rect codeLine="9" fill="#FEFECE" filter="url(#fz8g4r33ahryz)" height="60.8047" id="DataBase" style="stroke:#A80036;stroke-width:1.5;" width="112" x="17.5" y="357"/><ellipse cx="42.85" cy="373" fill="#ADD1B2" rx="11" ry="11" style="stroke:#A80036;stroke-width:1.0;"/><path d="M45.1938,368.6719 C44.2563,368.2344 43.6625,368.0938 42.7875,368.0938 C40.1625,368.0938 38.1625,370.1719 38.1625,372.8906 L38.1625,374.0156 C38.1625,376.5938 40.2719,378.4844 43.1625,378.4844 C44.3813,378.4844 45.5375,378.1875 46.2875,377.6406 C46.8656,377.2344 47.1938,376.7813 47.1938,376.3906 C47.1938,375.9375 46.8031,375.5469 46.3344,375.5469 C46.1156,375.5469 45.9125,375.625 45.725,375.8125 C45.2719,376.2969 45.2719,376.2969 45.0844,376.3906 C44.6625,376.6563 43.975,376.7813 43.2094,376.7813 C41.1625,376.7813 39.8656,375.6875 39.8656,373.9844 L39.8656,372.8906 C39.8656,371.1094 41.1156,369.7969 42.85,369.7969 C43.4281,369.7969 44.0375,369.9531 44.5063,370.2031 C44.9906,370.4844 45.1625,370.7031 45.2563,371.1094 C45.3188,371.5156 45.35,371.6406 45.4906,371.7656 C45.6313,371.9063 45.8656,372.0156 46.0844,372.0156 C46.35,372.0156 46.6156,371.875 46.7875,371.6563 C46.8969,371.5 46.9281,371.3125 46.9281,370.8906 L46.9281,369.4688 C46.9281,369.0313 46.9125,368.9063 46.8188,368.75 C46.6625,368.4844 46.3813,368.3438 46.0844,368.3438 C45.7875,368.3438 45.5844,368.4375 45.3656,368.75 L45.1938,368.6719 Z " fill="#000000"/><text fill="#000000" font-family="sans-serif" font-size="12" lengthAdjust="spacing" textLength="57" x="59.15" y="377.1543">DataBase</text><line style="stroke:#A80036;stroke-width:1.5;" x1="18.5" x2="128.5" y1="389" y2="389"/><line style="stroke:#A80036;stroke-width:1.5;" x1="18.5" x2="128.5" y1="397" y2="397"/><text fill="#000000" font-family="sans-serif" font-size="11" lengthAdjust="spacing" textLength="100" x="23.5" y="411.2104">getMedicineslist()</text><!--MD5=[6abf378e3cb5ccaa74d2ccddc974f58a]
class MedicineHandler--><rect codeLine="14" fill="#FEFECE" filter="url(#fz8g4r33ahryz)" height="60.8047" id="MedicineHandler" style="stroke:#A80036;stroke-width:1.5;" width="133" x="7" y="236"/><ellipse cx="22" cy="252" fill="#ADD1B2" rx="11" ry="11" style="stroke:#A80036;stroke-width:1.0;"/><path d="M24.3438,247.6719 C23.4063,247.2344 22.8125,247.0938 21.9375,247.0938 C19.3125,247.0938 17.3125,249.1719 17.3125,251.8906 L17.3125,253.0156 C17.3125,255.5938 19.4219,257.4844 22.3125,257.4844 C23.5313,257.4844 24.6875,257.1875 25.4375,256.6406 C26.0156,256.2344 26.3438,255.7813 26.3438,255.3906 C26.3438,254.9375 25.9531,254.5469 25.4844,254.5469 C25.2656,254.5469 25.0625,254.625 24.875,254.8125 C24.4219,255.2969 24.4219,255.2969 24.2344,255.3906 C23.8125,255.6563 23.125,255.7813 22.3594,255.7813 C20.3125,255.7813 19.0156,254.6875 19.0156,252.9844 L19.0156,251.8906 C19.0156,250.1094 20.2656,248.7969 22,248.7969 C22.5781,248.7969 23.1875,248.9531 23.6563,249.2031 C24.1406,249.4844 24.3125,249.7031 24.4063,250.1094 C24.4688,250.5156 24.5,250.6406 24.6406,250.7656 C24.7813,250.9063 25.0156,251.0156 25.2344,251.0156 C25.5,251.0156 25.7656,250.875 25.9375,250.6563 C26.0469,250.5 26.0781,250.3125 26.0781,249.8906 L26.0781,248.4688 C26.0781,248.0313 26.0625,247.9063 25.9688,247.75 C25.8125,247.4844 25.5313,247.3438 25.2344,247.3438 C24.9375,247.3438 24.7344,247.4375 24.5156,247.75 L24.3438,247.6719 Z " fill="#000000"/><text fill="#000000" font-family="sans-serif" font-size="12" lengthAdjust="spacing" textLength="101" x="36" y="256.1543">MedicineHandler</text><line style="stroke:#A80036;stroke-width:1.5;" x1="8" x2="139" y1="268" y2="268"/><line style="stroke:#A80036;stroke-width:1.5;" x1="8" x2="139" y1="276" y2="276"/><text fill="#000000" font-family="sans-serif" font-size="11" lengthAdjust="spacing" textLength="100" x="13" y="290.2104">getMedicineslist()</text><!--MD5=[3c808c921326cf836cd28bef7719796a]
link ClientUI to UserController--><path codeLine="18" d="M73.5,55.038 C73.5,70.65 73.5,91.582 73.5,109.273 " fill="none" id="UserUI-to-UserController" style="stroke:#A80036;stroke-width:1.0;stroke-dasharray:7.0,7.0;"/><polygon fill="#A80036" points="73.5,114.65,77.5,105.65,73.5,109.65,69.5,105.65,73.5,114.65" style="stroke:#A80036;stroke-width:1.0;"/><!--MD5=[03a7ca3581a0a74246ce62f146b142a1]
link UserController to MedicineHandler--><path codeLine="19" d="M73.5,176.222 C73.5,192.692 73.5,213.264 73.5,230.508 " fill="none" id="UserController-to-MedicineHandler" style="stroke:#A80036;stroke-width:1.0;stroke-dasharray:7.0,7.0;"/><polygon fill="#A80036" points="73.5,235.745,77.5,226.745,73.5,230.745,69.5,226.745,73.5,235.745" style="stroke:#A80036;stroke-width:1.0;"/><!--MD5=[81304a25ac0cbb6579b8adfcec556f55]
link MedicineHandler to DataBase--><path codeLine="20" d="M73.5,297.222 C73.5,313.692 73.5,334.2642 73.5,351.5082 " fill="none" id="MedicineHandler-to-DataBase" style="stroke:#A80036;stroke-width:1.0;stroke-dasharray:7.0,7.0;"/><polygon fill="#A80036" points="73.5,356.7447,77.5,347.7447,73.5,351.7447,69.5,347.7447,73.5,356.7447" style="stroke:#A80036;stroke-width:1.0;"/><!--MD5=[622bebac5ed2ac61b5bf0ca04d8062b9]
@startuml
class UserController {
  getMedicineslist()
}


class ClientUI {
}

class DataBase {
getMedicineslist()
}


class MedicineHandler {
 getMedicineslist()
}

ClientUI ..> UserController
UserController ..> MedicineHandler
MedicineHandler ..> DataBase
@enduml

PlantUML version 1.2020.27beta7(Unknown compile time)
(GPL source distribution)
Java Runtime: Java(TM) SE Runtime Environment
JVM: Java HotSpot(TM) 64-Bit Server VM
Default Encoding: UTF-8
Language: en
Country: US
--></g></svg>