<?xml version="1.0" encoding="UTF-8" standalone="no"?><svg xmlns="http://www.w3.org/2000/svg" xmlns:xlink="http://www.w3.org/1999/xlink" contentScriptType="application/ecmascript" contentStyleType="text/css" height="299px" preserveAspectRatio="none" style="width:1045px;height:299px;" version="1.1" viewBox="0 0 1045 299" width="1045px" zoomAndPan="magnify"><defs><filter height="300%" id="f19fop0ifwbfht" width="300%" x="-1" y="-1"><feGaussianBlur result="blurOut" stdDeviation="2.0"/><feColorMatrix in="blurOut" result="blurOut2" type="matrix" values="0 0 0 0 0 0 0 0 0 0 0 0 0 0 0 0 0 0 .4 0"/><feOffset dx="4.0" dy="4.0" in="blurOut2" result="blurOut3"/><feBlend in="SourceGraphic" in2="blurOut3" mode="normal"/></filter></defs><g><!--MD5=[ed6624c6556d5e7b1bd23032162d20b7]
class Client--><rect codeLine="5" fill="#FEFECE" filter="url(#f19fop0ifwbfht)" height="104.0234" id="Client" style="stroke:#A80036;stroke-width:1.5;" width="110" x="7" y="56"/><ellipse cx="41.35" cy="72" fill="#ADD1B2" rx="11" ry="11" style="stroke:#A80036;stroke-width:1.0;"/><path d="M44.3188,77.6406 Q43.7406,77.9375 43.1,78.0781 Q42.4594,78.2344 41.7563,78.2344 Q39.2563,78.2344 37.9281,76.5938 Q36.6156,74.9375 36.6156,71.8125 Q36.6156,68.6875 37.9281,67.0313 Q39.2563,65.375 41.7563,65.375 Q42.4594,65.375 43.1,65.5313 Q43.7563,65.6875 44.3188,65.9844 L44.3188,68.7031 Q43.6938,68.125 43.1,67.8594 Q42.5063,67.5781 41.8813,67.5781 Q40.5375,67.5781 39.85,68.6563 Q39.1625,69.7188 39.1625,71.8125 Q39.1625,73.9063 39.85,74.9844 Q40.5375,76.0469 41.8813,76.0469 Q42.5063,76.0469 43.1,75.7813 Q43.6938,75.5 44.3188,74.9219 L44.3188,77.6406 Z " fill="#000000"/><text fill="#000000" font-family="sans-serif" font-size="12" lengthAdjust="spacingAndGlyphs" textLength="35" x="59.65" y="76.1543">Client</text><line style="stroke:#A80036;stroke-width:1.5;" x1="8" x2="116" y1="88" y2="88"/><text fill="#000000" font-family="sans-serif" font-size="11" lengthAdjust="spacingAndGlyphs" textLength="74" x="13" y="102.2104">-String name</text><text fill="#000000" font-family="sans-serif" font-size="11" lengthAdjust="spacingAndGlyphs" textLength="73" x="13" y="115.0151">-String email</text><text fill="#000000" font-family="sans-serif" font-size="11" lengthAdjust="spacingAndGlyphs" textLength="56" x="13" y="127.8198">-String nif</text><text fill="#000000" font-family="sans-serif" font-size="11" lengthAdjust="spacingAndGlyphs" textLength="98" x="13" y="140.6245">-String password</text><text fill="#000000" font-family="sans-serif" font-size="11" lengthAdjust="spacingAndGlyphs" textLength="61" x="13" y="153.4292">-int credits</text><!--MD5=[7f2a9fafcebe4f099f71398fd3e2ed00]
class Pharmacy--><rect codeLine="13" fill="#FEFECE" filter="url(#f19fop0ifwbfht)" height="78.4141" id="Pharmacy" style="stroke:#A80036;stroke-width:1.5;" width="130" x="476" y="207"/><ellipse cx="507.65" cy="223" fill="#ADD1B2" rx="11" ry="11" style="stroke:#A80036;stroke-width:1.0;"/><path d="M510.6188,228.6406 Q510.0406,228.9375 509.4,229.0781 Q508.7594,229.2344 508.0563,229.2344 Q505.5563,229.2344 504.2281,227.5938 Q502.9156,225.9375 502.9156,222.8125 Q502.9156,219.6875 504.2281,218.0313 Q505.5563,216.375 508.0563,216.375 Q508.7594,216.375 509.4,216.5313 Q510.0563,216.6875 510.6188,216.9844 L510.6188,219.7031 Q509.9938,219.125 509.4,218.8594 Q508.8063,218.5781 508.1813,218.5781 Q506.8375,218.5781 506.15,219.6563 Q505.4625,220.7188 505.4625,222.8125 Q505.4625,224.9063 506.15,225.9844 Q506.8375,227.0469 508.1813,227.0469 Q508.8063,227.0469 509.4,226.7813 Q509.9938,226.5 510.6188,225.9219 L510.6188,228.6406 Z " fill="#000000"/><text fill="#000000" font-family="sans-serif" font-size="12" lengthAdjust="spacingAndGlyphs" textLength="61" x="525.35" y="227.1543">Pharmacy</text><line style="stroke:#A80036;stroke-width:1.5;" x1="477" x2="605" y1="239" y2="239"/><text fill="#000000" font-family="sans-serif" font-size="11" lengthAdjust="spacingAndGlyphs" textLength="52" x="482" y="253.2104">-String id</text><text fill="#000000" font-family="sans-serif" font-size="11" lengthAdjust="spacingAndGlyphs" textLength="74" x="482" y="266.0151">-String name</text><text fill="#000000" font-family="sans-serif" font-size="11" lengthAdjust="spacingAndGlyphs" textLength="118" x="482" y="278.8198">-int quantityScooters</text><!--MD5=[cf4d6237fcae255cd2e1656cf84a30e2]
class Order--><rect codeLine="19" fill="#FEFECE" filter="url(#f19fop0ifwbfht)" height="78.4141" id="Order" style="stroke:#A80036;stroke-width:1.5;" width="101" x="490.5" y="7"/><ellipse cx="520.8" cy="23" fill="#ADD1B2" rx="11" ry="11" style="stroke:#A80036;stroke-width:1.0;"/><path d="M523.7688,28.6406 Q523.1906,28.9375 522.55,29.0781 Q521.9094,29.2344 521.2063,29.2344 Q518.7063,29.2344 517.3781,27.5938 Q516.0656,25.9375 516.0656,22.8125 Q516.0656,19.6875 517.3781,18.0313 Q518.7063,16.375 521.2063,16.375 Q521.9094,16.375 522.55,16.5313 Q523.2063,16.6875 523.7688,16.9844 L523.7688,19.7031 Q523.1438,19.125 522.55,18.8594 Q521.9563,18.5781 521.3313,18.5781 Q519.9875,18.5781 519.3,19.6563 Q518.6125,20.7188 518.6125,22.8125 Q518.6125,24.9063 519.3,25.9844 Q519.9875,27.0469 521.3313,27.0469 Q521.9563,27.0469 522.55,26.7813 Q523.1438,26.5 523.7688,25.9219 L523.7688,28.6406 Z " fill="#000000"/><text fill="#000000" font-family="sans-serif" font-size="12" lengthAdjust="spacingAndGlyphs" textLength="35" x="538.2" y="27.1543">Order</text><line style="stroke:#A80036;stroke-width:1.5;" x1="491.5" x2="590.5" y1="39" y2="39"/><text fill="#000000" font-family="sans-serif" font-size="11" lengthAdjust="spacingAndGlyphs" textLength="86" x="496.5" y="53.2104">-String number</text><text fill="#000000" font-family="sans-serif" font-size="11" lengthAdjust="spacingAndGlyphs" textLength="67" x="496.5" y="66.0151">-String date</text><text fill="#000000" font-family="sans-serif" font-size="11" lengthAdjust="spacingAndGlyphs" textLength="89" x="496.5" y="78.8198">-boolean status</text><!--MD5=[a4cb0f987c11031dc931233a0e7767af]
class Stock--><rect codeLine="25" fill="#FEFECE" filter="url(#f19fop0ifwbfht)" height="65.6094" id="Stock" style="stroke:#A80036;stroke-width:1.5;" width="108" x="923" y="104"/><ellipse cx="956.45" cy="120" fill="#ADD1B2" rx="11" ry="11" style="stroke:#A80036;stroke-width:1.0;"/><path d="M959.4188,125.6406 Q958.8406,125.9375 958.2,126.0781 Q957.5594,126.2344 956.8563,126.2344 Q954.3563,126.2344 953.0281,124.5938 Q951.7156,122.9375 951.7156,119.8125 Q951.7156,116.6875 953.0281,115.0313 Q954.3563,113.375 956.8563,113.375 Q957.5594,113.375 958.2,113.5313 Q958.8563,113.6875 959.4188,113.9844 L959.4188,116.7031 Q958.7938,116.125 958.2,115.8594 Q957.6063,115.5781 956.9813,115.5781 Q955.6375,115.5781 954.95,116.6563 Q954.2625,117.7188 954.2625,119.8125 Q954.2625,121.9063 954.95,122.9844 Q955.6375,124.0469 956.9813,124.0469 Q957.6063,124.0469 958.2,123.7813 Q958.7938,123.5 959.4188,122.9219 L959.4188,125.6406 Z " fill="#000000"/><text fill="#000000" font-family="sans-serif" font-size="12" lengthAdjust="spacingAndGlyphs" textLength="35" x="974.55" y="124.1543">Stock</text><line style="stroke:#A80036;stroke-width:1.5;" x1="924" x2="1030" y1="136" y2="136"/><text fill="#000000" font-family="sans-serif" font-size="11" lengthAdjust="spacingAndGlyphs" textLength="96" x="929" y="150.2104">-String productID</text><text fill="#000000" font-family="sans-serif" font-size="11" lengthAdjust="spacingAndGlyphs" textLength="67" x="929" y="163.0151">-int quantity</text><!--MD5=[72136138052d025cffdce3c22fbd185f]
class Product--><rect codeLine="30" fill="#FEFECE" filter="url(#f19fop0ifwbfht)" height="104.0234" id="Product" style="stroke:#A80036;stroke-width:1.5;" width="117" x="706" y="85"/><ellipse cx="737.2" cy="101" fill="#ADD1B2" rx="11" ry="11" style="stroke:#A80036;stroke-width:1.0;"/><path d="M740.1688,106.6406 Q739.5906,106.9375 738.95,107.0781 Q738.3094,107.2344 737.6063,107.2344 Q735.1063,107.2344 733.7781,105.5938 Q732.4656,103.9375 732.4656,100.8125 Q732.4656,97.6875 733.7781,96.0313 Q735.1063,94.375 737.6063,94.375 Q738.3094,94.375 738.95,94.5313 Q739.6063,94.6875 740.1688,94.9844 L740.1688,97.7031 Q739.5438,97.125 738.95,96.8594 Q738.3563,96.5781 737.7313,96.5781 Q736.3875,96.5781 735.7,97.6563 Q735.0125,98.7188 735.0125,100.8125 Q735.0125,102.9063 735.7,103.9844 Q736.3875,105.0469 737.7313,105.0469 Q738.3563,105.0469 738.95,104.7813 Q739.5438,104.5 740.1688,103.9219 L740.1688,106.6406 Z " fill="#000000"/><text fill="#000000" font-family="sans-serif" font-size="12" lengthAdjust="spacingAndGlyphs" textLength="49" x="754.8" y="105.1543">Product</text><line style="stroke:#A80036;stroke-width:1.5;" x1="707" x2="822" y1="117" y2="117"/><text fill="#000000" font-family="sans-serif" font-size="11" lengthAdjust="spacingAndGlyphs" textLength="52" x="712" y="131.2104">-String id</text><text fill="#000000" font-family="sans-serif" font-size="11" lengthAdjust="spacingAndGlyphs" textLength="74" x="712" y="144.0151">-String name</text><text fill="#000000" font-family="sans-serif" font-size="11" lengthAdjust="spacingAndGlyphs" textLength="105" x="712" y="156.8198">-String description</text><text fill="#000000" font-family="sans-serif" font-size="11" lengthAdjust="spacingAndGlyphs" textLength="74" x="712" y="169.6245">-double price</text><text fill="#000000" font-family="sans-serif" font-size="11" lengthAdjust="spacingAndGlyphs" textLength="83" x="712" y="182.4292">-double weight</text><!--MD5=[a608780e30028417ceff2d6f0d878efa]
class Cart--><rect codeLine="38" fill="#FEFECE" filter="url(#f19fop0ifwbfht)" height="91.2188" id="Cart" style="stroke:#A80036;stroke-width:1.5;" width="124" x="217" y="62.5"/><ellipse cx="261.75" cy="78.5" fill="#ADD1B2" rx="11" ry="11" style="stroke:#A80036;stroke-width:1.0;"/><path d="M264.7188,84.1406 Q264.1406,84.4375 263.5,84.5781 Q262.8594,84.7344 262.1563,84.7344 Q259.6563,84.7344 258.3281,83.0938 Q257.0156,81.4375 257.0156,78.3125 Q257.0156,75.1875 258.3281,73.5313 Q259.6563,71.875 262.1563,71.875 Q262.8594,71.875 263.5,72.0313 Q264.1563,72.1875 264.7188,72.4844 L264.7188,75.2031 Q264.0938,74.625 263.5,74.3594 Q262.9063,74.0781 262.2813,74.0781 Q260.9375,74.0781 260.25,75.1563 Q259.5625,76.2188 259.5625,78.3125 Q259.5625,80.4063 260.25,81.4844 Q260.9375,82.5469 262.2813,82.5469 Q262.9063,82.5469 263.5,82.2813 Q264.0938,82 264.7188,81.4219 L264.7188,84.1406 Z " fill="#000000"/><text fill="#000000" font-family="sans-serif" font-size="12" lengthAdjust="spacingAndGlyphs" textLength="26" x="282.25" y="82.6543">Cart</text><line style="stroke:#A80036;stroke-width:1.5;" x1="218" x2="340" y1="94.5" y2="94.5"/><text fill="#000000" font-family="sans-serif" font-size="11" lengthAdjust="spacingAndGlyphs" textLength="52" x="223" y="108.7104">-String id</text><text fill="#000000" font-family="sans-serif" font-size="11" lengthAdjust="spacingAndGlyphs" textLength="112" x="223" y="121.5151">-int productQuantity</text><text fill="#000000" font-family="sans-serif" font-size="11" lengthAdjust="spacingAndGlyphs" textLength="98" x="223" y="134.3198">-double finalPrice</text><text fill="#000000" font-family="sans-serif" font-size="11" lengthAdjust="spacingAndGlyphs" textLength="107" x="223" y="147.1245">-double finalWeight</text><!--MD5=[21ac1e674ffa00cb5fcd6cc073dbc52c]
link Client to Cart--><path codeLine="45" d="M117.0388,108 C147.4251,108 185.2697,108 216.7336,108 " fill="none" id="Client-Cart" style="stroke:#A80036;stroke-width:1.0;"/><polygon fill="#000000" points="157,99.5664,147.9549,96.6275,147.9549,102.5053,157,99.5664" style="stroke:#000000;stroke-width:1.0;"/><text fill="#000000" font-family="sans-serif" font-size="13" lengthAdjust="spacingAndGlyphs" textLength="25" x="161" y="104.0669">Has</text><text fill="#000000" font-family="sans-serif" font-size="13" lengthAdjust="spacingAndGlyphs" textLength="8" x="124.9721" y="121.0821">1</text><text fill="#000000" font-family="sans-serif" font-size="13" lengthAdjust="spacingAndGlyphs" textLength="16" x="193.0482" y="120.8825">1..</text><!--MD5=[3451170ed356d35d92157e8060a0a232]
link Cart to Product--><path codeLine="47" d="M341.4767,111.7319 C435.8515,117.3691 613.5069,127.9808 705.6777,133.4864 " fill="none" id="Cart-Product" style="stroke:#A80036;stroke-width:1.0;"/><polygon fill="#000000" points="530.9911,112.8645,522.1373,109.3915,521.7869,115.2589,530.9911,112.8645" style="stroke:#000000;stroke-width:1.0;"/><text fill="#000000" font-family="sans-serif" font-size="13" lengthAdjust="spacingAndGlyphs" textLength="25" x="535" y="117.0669">Has</text><text fill="#000000" font-family="sans-serif" font-size="13" lengthAdjust="spacingAndGlyphs" textLength="8" x="349.1631" y="125.0925">1</text><text fill="#000000" font-family="sans-serif" font-size="13" lengthAdjust="spacingAndGlyphs" textLength="16" x="681.9514" y="146.0205">0..</text><!--MD5=[2a2204b5b23acaa6734af4f5692ff166]
link Cart to Order--><path codeLine="49" d="M341.0903,93.3069 C386.6383,82.5283 447.7237,68.073 490.3358,57.9892 " fill="none" id="Cart-Order" style="stroke:#A80036;stroke-width:1.0;"/><polygon fill="#000000" points="380.8656,60.415,371.3868,59.638,372.7404,65.3579,380.8656,60.415" style="stroke:#000000;stroke-width:1.0;"/><text fill="#000000" font-family="sans-serif" font-size="13" lengthAdjust="spacingAndGlyphs" textLength="60" x="385" y="66.0669">Generate</text><text fill="#000000" font-family="sans-serif" font-size="13" lengthAdjust="spacingAndGlyphs" textLength="8" x="349.1451" y="104.4919">1</text><text fill="#000000" font-family="sans-serif" font-size="13" lengthAdjust="spacingAndGlyphs" textLength="8" x="474.6486" y="72.777">1</text><!--MD5=[5df16df72a49edaa4f00919f1e597f76]
link Order to Product--><path codeLine="51" d="M591.7156,66.6493 C625.5881,80.4408 670.2526,98.6263 705.6844,113.0527 " fill="none" id="Order-Product" style="stroke:#A80036;stroke-width:1.0;"/><polygon fill="#000000" points="645.6309,80.4519,638.3618,74.3191,636.1453,79.763,645.6309,80.4519" style="stroke:#000000;stroke-width:1.0;"/><text fill="#000000" font-family="sans-serif" font-size="13" lengthAdjust="spacingAndGlyphs" textLength="25" x="650" y="83.0669">Has</text><text fill="#000000" font-family="sans-serif" font-size="13" lengthAdjust="spacingAndGlyphs" textLength="8" x="599.41" y="82.6549">1</text><text fill="#000000" font-family="sans-serif" font-size="13" lengthAdjust="spacingAndGlyphs" textLength="16" x="681.9588" y="123.2242">1..</text><!--MD5=[737ca6dd1a667cd849e932d7cf955580]
link Pharmacy to Product--><path codeLine="53" d="M606.2463,214.1797 C637.6847,198.8473 675.0996,180.6002 705.6547,165.6986 " fill="none" id="Pharmacy-Product" style="stroke:#A80036;stroke-width:1.0;"/><polygon fill="#000000" points="645.494,171.3747,636.076,172.698,638.6525,177.9811,645.494,171.3747" style="stroke:#000000;stroke-width:1.0;"/><text fill="#000000" font-family="sans-serif" font-size="13" lengthAdjust="spacingAndGlyphs" textLength="25" x="650" y="178.0669">Has</text><text fill="#000000" font-family="sans-serif" font-size="13" lengthAdjust="spacingAndGlyphs" textLength="8" x="613.8201" y="223.5712">1</text><text fill="#000000" font-family="sans-serif" font-size="13" lengthAdjust="spacingAndGlyphs" textLength="16" x="681.9257" y="181.9573">1..</text><!--MD5=[f03ebb71f36b9f67845ea5d0d1209a09]
link Product to Stock--><path codeLine="55" d="M823.1291,137 C854.3327,137 892.4455,137 922.9328,137 " fill="none" id="Product-Stock" style="stroke:#A80036;stroke-width:1.0;"/><polygon fill="#000000" points="863,128.5664,853.9549,125.6275,853.9549,131.5053,863,128.5664" style="stroke:#000000;stroke-width:1.0;"/><text fill="#000000" font-family="sans-serif" font-size="13" lengthAdjust="spacingAndGlyphs" textLength="25" x="867" y="133.0669">Has</text><text fill="#000000" font-family="sans-serif" font-size="13" lengthAdjust="spacingAndGlyphs" textLength="8" x="831.1535" y="150.0348">1</text><text fill="#000000" font-family="sans-serif" font-size="13" lengthAdjust="spacingAndGlyphs" textLength="8" x="907.13" y="150.1099">1</text><!--MD5=[403f4e4ca3bc329bd66f745ae5885f59]
@startuml
skinparam classAttributeIconSize 0
hide methods
left to right direction

class Client {
  -String name
  -String email
  -String nif
  -String password
  -int credits
}

class Pharmacy {
  -String id
  -String name
  -int quantityScooters
  }

class Order {
  -String number
  -String date
  -boolean status
  }

class Stock {
  -String productID
  -int quantity
}

class Product {
  -String id
  -String name
  -String description
  -double price
  -double weight
}

class Cart {
  -String id
  -int productQuantity
  -double finalPrice
  -double finalWeight
}

Client "1" - - "1.." Cart: Has >

Cart "1" - - "0.." Product: Has >

Cart "1" - - "1" Order: Generate >

Order "1" - - "1.." Product: Has >

Pharmacy "1" - - "1.." Product: Has >

Product "1" - - "1" Stock: Has >
@enduml

PlantUML version 1.2020.22(Sun Dec 06 09:36:27 UTC 2020)
(GPL source distribution)
Java Runtime: OpenJDK Runtime Environment
JVM: OpenJDK 64-Bit Server VM
Default Encoding: UTF-8
Language: en
Country: US
--></g></svg>