<?xml version="1.0" encoding="UTF-8" standalone="no"?><svg xmlns="http://www.w3.org/2000/svg" xmlns:xlink="http://www.w3.org/1999/xlink" contentScriptType="application/ecmascript" contentStyleType="text/css" height="499px" preserveAspectRatio="none" style="width:1219px;height:499px;" version="1.1" viewBox="0 0 1219 499" width="1219px" zoomAndPan="magnify"><defs><filter height="300%" id="fkb1a22dva9m3" width="300%" x="-1" y="-1"><feGaussianBlur result="blurOut" stdDeviation="2.0"/><feColorMatrix in="blurOut" result="blurOut2" type="matrix" values="0 0 0 0 0 0 0 0 0 0 0 0 0 0 0 0 0 0 .4 0"/><feOffset dx="4.0" dy="4.0" in="blurOut2" result="blurOut3"/><feBlend in="SourceGraphic" in2="blurOut3" mode="normal"/></filter></defs><g><rect fill="#FFFFFF" filter="url(#fkb1a22dva9m3)" height="297.9727" style="stroke: #A80036; stroke-width: 1.0;" width="10" x="26" y="96.4883"/><rect fill="#FFFFFF" filter="url(#fkb1a22dva9m3)" height="133.4199" style="stroke: #A80036; stroke-width: 1.0;" width="10" x="557" y="117.7988"/><rect fill="#FFFFFF" filter="url(#fkb1a22dva9m3)" height="113.9316" style="stroke: #A80036; stroke-width: 1.0;" width="10" x="557" y="280.5293"/><rect fill="#FFFFFF" filter="url(#fkb1a22dva9m3)" height="58.6211" style="stroke: #A80036; stroke-width: 1.0;" width="10" x="814" y="147.1094"/><rect fill="#FFFFFF" filter="url(#fkb1a22dva9m3)" height="29.3105" style="stroke: #A80036; stroke-width: 1.0;" width="10" x="970" y="176.4199"/><line style="stroke: #A80036; stroke-width: 1.0; stroke-dasharray: 5.0,5.0;" x1="31" x2="31" y1="86.4883" y2="412.4609"/><line style="stroke: #A80036; stroke-width: 1.0; stroke-dasharray: 5.0,5.0;" x1="561.5" x2="561.5" y1="86.4883" y2="412.4609"/><line style="stroke: #A80036; stroke-width: 1.0; stroke-dasharray: 5.0,5.0;" x1="818.5" x2="818.5" y1="86.4883" y2="412.4609"/><line style="stroke: #A80036; stroke-width: 1.0; stroke-dasharray: 5.0,5.0;" x1="974.5" x2="974.5" y1="86.4883" y2="412.4609"/><line style="stroke: #A80036; stroke-width: 1.0; stroke-dasharray: 5.0,5.0;" x1="1171" x2="1171" y1="217.1641" y2="412.4609"/><text fill="#000000" font-family="sans-serif" font-size="14" lengthAdjust="spacingAndGlyphs" textLength="40" x="8" y="83.5352">Client</text><ellipse cx="31" cy="13" fill="#FEFECE" filter="url(#fkb1a22dva9m3)" rx="8" ry="8" style="stroke: #A80036; stroke-width: 2.0;"/><path d="M31,21 L31,48 M18,29 L44,29 M31,48 L18,63 M31,48 L44,63 " fill="none" filter="url(#fkb1a22dva9m3)" style="stroke: #A80036; stroke-width: 2.0;"/><text fill="#000000" font-family="sans-serif" font-size="14" lengthAdjust="spacingAndGlyphs" textLength="40" x="8" y="424.9961">Client</text><ellipse cx="31" cy="437.9492" fill="#FEFECE" filter="url(#fkb1a22dva9m3)" rx="8" ry="8" style="stroke: #A80036; stroke-width: 2.0;"/><path d="M31,445.9492 L31,472.9492 M18,453.9492 L44,453.9492 M31,472.9492 L18,487.9492 M31,472.9492 L44,487.9492 " fill="none" filter="url(#fkb1a22dva9m3)" style="stroke: #A80036; stroke-width: 2.0;"/><rect fill="#FEFECE" filter="url(#fkb1a22dva9m3)" height="30.4883" style="stroke: #A80036; stroke-width: 1.5;" width="63" x="528.5" y="51"/><text fill="#000000" font-family="sans-serif" font-size="14" lengthAdjust="spacingAndGlyphs" textLength="49" x="535.5" y="71.5352">:UserUI</text><rect fill="#FEFECE" filter="url(#fkb1a22dva9m3)" height="30.4883" style="stroke: #A80036; stroke-width: 1.5;" width="63" x="528.5" y="411.4609"/><text fill="#000000" font-family="sans-serif" font-size="14" lengthAdjust="spacingAndGlyphs" textLength="49" x="535.5" y="431.9961">:UserUI</text><rect fill="#FEFECE" filter="url(#fkb1a22dva9m3)" height="30.4883" style="stroke: #A80036; stroke-width: 1.5;" width="119" x="757.5" y="51"/><text fill="#000000" font-family="sans-serif" font-size="14" lengthAdjust="spacingAndGlyphs" textLength="105" x="764.5" y="71.5352">:UserController</text><rect fill="#FEFECE" filter="url(#fkb1a22dva9m3)" height="30.4883" style="stroke: #A80036; stroke-width: 1.5;" width="119" x="757.5" y="411.4609"/><text fill="#000000" font-family="sans-serif" font-size="14" lengthAdjust="spacingAndGlyphs" textLength="105" x="764.5" y="431.9961">:UserController</text><rect fill="#FEFECE" filter="url(#fkb1a22dva9m3)" height="30.4883" style="stroke: #A80036; stroke-width: 1.5;" width="133" x="906.5" y="51"/><text fill="#000000" font-family="sans-serif" font-size="14" lengthAdjust="spacingAndGlyphs" textLength="119" x="913.5" y="71.5352">:MedicineHandler</text><rect fill="#FEFECE" filter="url(#fkb1a22dva9m3)" height="30.4883" style="stroke: #A80036; stroke-width: 1.5;" width="133" x="906.5" y="411.4609"/><text fill="#000000" font-family="sans-serif" font-size="14" lengthAdjust="spacingAndGlyphs" textLength="119" x="913.5" y="431.9961">:MedicineHandler</text><rect fill="#FEFECE" filter="url(#fkb1a22dva9m3)" height="30.4883" style="stroke: #A80036; stroke-width: 1.5;" width="77" x="1131" y="411.4609"/><text fill="#000000" font-family="sans-serif" font-size="14" lengthAdjust="spacingAndGlyphs" textLength="63" x="1138" y="431.9961">Database</text><rect fill="#FFFFFF" filter="url(#fkb1a22dva9m3)" height="297.9727" style="stroke: #A80036; stroke-width: 1.0;" width="10" x="26" y="96.4883"/><rect fill="#FFFFFF" filter="url(#fkb1a22dva9m3)" height="133.4199" style="stroke: #A80036; stroke-width: 1.0;" width="10" x="557" y="117.7988"/><rect fill="#FFFFFF" filter="url(#fkb1a22dva9m3)" height="113.9316" style="stroke: #A80036; stroke-width: 1.0;" width="10" x="557" y="280.5293"/><rect fill="#FFFFFF" filter="url(#fkb1a22dva9m3)" height="58.6211" style="stroke: #A80036; stroke-width: 1.0;" width="10" x="814" y="147.1094"/><rect fill="#FFFFFF" filter="url(#fkb1a22dva9m3)" height="29.3105" style="stroke: #A80036; stroke-width: 1.0;" width="10" x="970" y="176.4199"/><polygon fill="#A80036" points="545,113.7988,555,117.7988,545,121.7988,549,117.7988" style="stroke: #A80036; stroke-width: 1.0;"/><line style="stroke: #A80036; stroke-width: 1.0;" x1="36" x2="551" y1="117.7988" y2="117.7988"/><text fill="#000000" font-family="sans-serif" font-size="13" font-weight="bold" lengthAdjust="spacingAndGlyphs" textLength="9" x="43" y="113.0566">1</text><text fill="#000000" font-family="sans-serif" font-size="13" lengthAdjust="spacingAndGlyphs" textLength="294" x="56" y="113.0566">The Client wants to add a medicine to the cart.</text><polygon fill="#A80036" points="802,143.1094,812,147.1094,802,151.1094,806,147.1094" style="stroke: #A80036; stroke-width: 1.0;"/><line style="stroke: #A80036; stroke-width: 1.0;" x1="567" x2="808" y1="147.1094" y2="147.1094"/><text fill="#000000" font-family="sans-serif" font-size="13" font-weight="bold" lengthAdjust="spacingAndGlyphs" textLength="9" x="574" y="142.3672">2</text><text fill="#000000" font-family="sans-serif" font-size="13" lengthAdjust="spacingAndGlyphs" textLength="215" x="587" y="142.3672">listMedicines = getMedicinesList()</text><polygon fill="#A80036" points="958,172.4199,968,176.4199,958,180.4199,962,176.4199" style="stroke: #A80036; stroke-width: 1.0;"/><line style="stroke: #A80036; stroke-width: 1.0;" x1="824" x2="964" y1="176.4199" y2="176.4199"/><text fill="#000000" font-family="sans-serif" font-size="13" font-weight="bold" lengthAdjust="spacingAndGlyphs" textLength="9" x="831" y="171.6777">3</text><text fill="#000000" font-family="sans-serif" font-size="13" lengthAdjust="spacingAndGlyphs" textLength="114" x="844" y="171.6777">getMedicinesList()</text><polygon fill="#A80036" points="1119,201.7305,1129,205.7305,1119,209.7305,1123,205.7305" style="stroke: #A80036; stroke-width: 1.0;"/><line style="stroke: #A80036; stroke-width: 1.0;" x1="975" x2="1125" y1="205.7305" y2="205.7305"/><text fill="#000000" font-family="sans-serif" font-size="13" font-weight="bold" lengthAdjust="spacingAndGlyphs" textLength="9" x="982" y="200.9883">4</text><text fill="#000000" font-family="sans-serif" font-size="13" lengthAdjust="spacingAndGlyphs" textLength="114" x="995" y="200.9883">getMedicinesList()</text><rect fill="#FEFECE" filter="url(#fkb1a22dva9m3)" height="30.4883" style="stroke: #A80036; stroke-width: 1.5;" width="77" x="1131" y="184.4199"/><text fill="#000000" font-family="sans-serif" font-size="14" lengthAdjust="spacingAndGlyphs" textLength="63" x="1138" y="204.9551">Database</text><polygon fill="#A80036" points="47,247.2188,37,251.2188,47,255.2188,43,251.2188" style="stroke: #A80036; stroke-width: 1.0;"/><line style="stroke: #A80036; stroke-width: 1.0; stroke-dasharray: 2.0,2.0;" x1="41" x2="561" y1="251.2188" y2="251.2188"/><text fill="#000000" font-family="sans-serif" font-size="13" font-weight="bold" lengthAdjust="spacingAndGlyphs" textLength="9" x="53" y="246.4766">5</text><text fill="#000000" font-family="sans-serif" font-size="13" lengthAdjust="spacingAndGlyphs" textLength="469" x="66" y="246.4766">The system shows the list of medicines and asks the client to choose one.</text><polygon fill="#A80036" points="545,276.5293,555,280.5293,545,284.5293,549,280.5293" style="stroke: #A80036; stroke-width: 1.0;"/><line style="stroke: #A80036; stroke-width: 1.0;" x1="36" x2="551" y1="280.5293" y2="280.5293"/><text fill="#000000" font-family="sans-serif" font-size="13" font-weight="bold" lengthAdjust="spacingAndGlyphs" textLength="9" x="43" y="275.7871">6</text><text fill="#000000" font-family="sans-serif" font-size="13" lengthAdjust="spacingAndGlyphs" textLength="238" x="56" y="275.7871">The client enters the medicine to buy.</text><line style="stroke: #A80036; stroke-width: 1.0;" x1="567" x2="609" y1="309.8398" y2="309.8398"/><line style="stroke: #A80036; stroke-width: 1.0;" x1="609" x2="609" y1="309.8398" y2="322.8398"/><line style="stroke: #A80036; stroke-width: 1.0;" x1="568" x2="609" y1="322.8398" y2="322.8398"/><polygon fill="#A80036" points="578,318.8398,568,322.8398,578,326.8398,574,322.8398" style="stroke: #A80036; stroke-width: 1.0;"/><text fill="#000000" font-family="sans-serif" font-size="13" font-weight="bold" lengthAdjust="spacingAndGlyphs" textLength="9" x="574" y="305.0977">7</text><text fill="#000000" font-family="sans-serif" font-size="13" lengthAdjust="spacingAndGlyphs" textLength="183" x="587" y="305.0977">product = getProductByID(id)</text><line style="stroke: #A80036; stroke-width: 1.0;" x1="567" x2="609" y1="357.1504" y2="357.1504"/><line style="stroke: #A80036; stroke-width: 1.0;" x1="609" x2="609" y1="357.1504" y2="370.1504"/><line style="stroke: #A80036; stroke-width: 1.0;" x1="562" x2="609" y1="370.1504" y2="370.1504"/><polygon fill="#A80036" points="572,366.1504,562,370.1504,572,374.1504,568,370.1504" style="stroke: #A80036; stroke-width: 1.0;"/><text fill="#000000" font-family="sans-serif" font-size="13" font-weight="bold" lengthAdjust="spacingAndGlyphs" textLength="9" x="574" y="352.4082">8</text><text fill="#000000" font-family="sans-serif" font-size="13" lengthAdjust="spacingAndGlyphs" textLength="170" x="587" y="352.4082">addProductToCart(product)</text><polygon fill="#A80036" points="42,390.4609,32,394.4609,42,398.4609,38,394.4609" style="stroke: #A80036; stroke-width: 1.0;"/><line style="stroke: #A80036; stroke-width: 1.0;" x1="36" x2="561" y1="394.4609" y2="394.4609"/><text fill="#000000" font-family="sans-serif" font-size="13" font-weight="bold" lengthAdjust="spacingAndGlyphs" textLength="9" x="48" y="389.7188">9</text><text fill="#000000" font-family="sans-serif" font-size="13" lengthAdjust="spacingAndGlyphs" textLength="484" x="61" y="389.7188">add the medicine to the cart and informs about the success of the operation.</text><!--MD5=[7ed67d2b9ec73d8b9a31af0160255762]
@startuml
autonumber
actor "Client" as C

participant ":UserUI" as UI
participant ":UserController" as CTRL
participant ":MedicineHandler" as HANDLER
participant "Database" as DAT


activate C
C -> UI : The Client wants to add a medicine to the cart.
activate UI

UI -> CTRL : listMedicines = getMedicinesList()
activate CTRL

CTRL -> HANDLER : getMedicinesList()

activate HANDLER

HANDLER -> DAT ** : getMedicinesList()
deactivate CTRL
deactivate HANDLER

UI - -> C : The system shows the list of medicines and asks the client to choose one.
deactivate UI

C -> UI : The client enters the medicine to buy.
activate UI
UI -> UI : product = getProductByID(id)
UI -> UI : addProductToCart(product)

deactivate CTRL
deactivate HANDLER
deactivate DAT


UI -> C : add the medicine to the cart and informs about the success of the operation.

deactivate UI
deactivate C
@enduml

PlantUML version 1.2020.09(Sun May 10 11:51:06 WEST 2020)
(GPL source distribution)
Java Runtime: OpenJDK Runtime Environment
JVM: OpenJDK 64-Bit Server VM
Java Version: 11.0.6+8-b765.40
Operating System: Mac OS X
Default Encoding: UTF-8
Language: pt
Country: PT
--></g></svg>