<?xml version="1.0" encoding="UTF-8" standalone="no"?><svg xmlns="http://www.w3.org/2000/svg" xmlns:xlink="http://www.w3.org/1999/xlink" contentScriptType="application/ecmascript" contentStyleType="text/css" height="1032px" preserveAspectRatio="none" style="width:1683px;height:1032px;" version="1.1" viewBox="0 0 1683 1032" width="1683px" zoomAndPan="magnify"><defs><filter height="300%" id="f1pxuqtnzza1dr" width="300%" x="-1" y="-1"><feGaussianBlur result="blurOut" stdDeviation="2.0"/><feColorMatrix in="blurOut" result="blurOut2" type="matrix" values="0 0 0 0 0 0 0 0 0 0 0 0 0 0 0 0 0 0 .4 0"/><feOffset dx="4.0" dy="4.0" in="blurOut2" result="blurOut3"/><feBlend in="SourceGraphic" in2="blurOut3" mode="normal"/></filter></defs><g><!--MD5=[0f39e4cb6f03951afbf6d14bd2505654]
class Address--><rect codeLine="5" fill="#FEFECE" filter="url(#f1pxuqtnzza1dr)" height="116.8281" id="Address" style="stroke:#A80036;stroke-width:1.5;" width="112" x="784" y="439.82"/><ellipse cx="812.05" cy="455.82" fill="#ADD1B2" rx="11" ry="11" style="stroke:#A80036;stroke-width:1.0;"/><path d="M814.3938,451.4919 C813.4563,451.0544 812.8625,450.9138 811.9875,450.9138 C809.3625,450.9138 807.3625,452.9919 807.3625,455.7106 L807.3625,456.8356 C807.3625,459.4138 809.4719,461.3044 812.3625,461.3044 C813.5813,461.3044 814.7375,461.0075 815.4875,460.4606 C816.0656,460.0544 816.3938,459.6013 816.3938,459.2106 C816.3938,458.7575 816.0031,458.3669 815.5344,458.3669 C815.3156,458.3669 815.1125,458.445 814.925,458.6325 C814.4719,459.1169 814.4719,459.1169 814.2844,459.2106 C813.8625,459.4763 813.175,459.6013 812.4094,459.6013 C810.3625,459.6013 809.0656,458.5075 809.0656,456.8044 L809.0656,455.7106 C809.0656,453.9294 810.3156,452.6169 812.05,452.6169 C812.6281,452.6169 813.2375,452.7731 813.7063,453.0231 C814.1906,453.3044 814.3625,453.5231 814.4563,453.9294 C814.5188,454.3356 814.55,454.4606 814.6906,454.5856 C814.8313,454.7263 815.0656,454.8356 815.2844,454.8356 C815.55,454.8356 815.8156,454.695 815.9875,454.4763 C816.0969,454.32 816.1281,454.1325 816.1281,453.7106 L816.1281,452.2888 C816.1281,451.8513 816.1125,451.7263 816.0188,451.57 C815.8625,451.3044 815.5813,451.1638 815.2844,451.1638 C814.9875,451.1638 814.7844,451.2575 814.5656,451.57 L814.3938,451.4919 Z " fill="#000000"/><text fill="#000000" font-family="sans-serif" font-size="12" lengthAdjust="spacing" textLength="51" x="828.95" y="459.9743">Address</text><line style="stroke:#A80036;stroke-width:1.5;" x1="785" x2="895" y1="471.82" y2="471.82"/><text fill="#000000" font-family="sans-serif" font-size="11" lengthAdjust="spacing" textLength="90" x="790" y="486.0304">-double latitude</text><text fill="#000000" font-family="sans-serif" font-size="11" lengthAdjust="spacing" textLength="100" x="790" y="498.8351">-double longitude</text><text fill="#000000" font-family="sans-serif" font-size="11" lengthAdjust="spacing" textLength="75" x="790" y="511.6398">-String street</text><text fill="#000000" font-family="sans-serif" font-size="11" lengthAdjust="spacing" textLength="92" x="790" y="524.4445">-int doorNumber</text><text fill="#000000" font-family="sans-serif" font-size="11" lengthAdjust="spacing" textLength="88" x="790" y="537.2492">-String zipCode</text><text fill="#000000" font-family="sans-serif" font-size="11" lengthAdjust="spacing" textLength="81" x="790" y="550.0539">-String locality</text><!--MD5=[da547346deef918ea16944ba046651ef]
class Administrator--><rect codeLine="14" fill="#FEFECE" filter="url(#f1pxuqtnzza1dr)" height="52.8047" id="Administrator" style="stroke:#A80036;stroke-width:1.5;" width="112" x="7" y="533.82"/><ellipse cx="22" cy="549.82" fill="#ADD1B2" rx="11" ry="11" style="stroke:#A80036;stroke-width:1.0;"/><path d="M24.3438,545.4919 C23.4063,545.0544 22.8125,544.9138 21.9375,544.9138 C19.3125,544.9138 17.3125,546.9919 17.3125,549.7106 L17.3125,550.8356 C17.3125,553.4138 19.4219,555.3044 22.3125,555.3044 C23.5313,555.3044 24.6875,555.0075 25.4375,554.4606 C26.0156,554.0544 26.3438,553.6013 26.3438,553.2106 C26.3438,552.7575 25.9531,552.3669 25.4844,552.3669 C25.2656,552.3669 25.0625,552.445 24.875,552.6325 C24.4219,553.1169 24.4219,553.1169 24.2344,553.2106 C23.8125,553.4763 23.125,553.6013 22.3594,553.6013 C20.3125,553.6013 19.0156,552.5075 19.0156,550.8044 L19.0156,549.7106 C19.0156,547.9294 20.2656,546.6169 22,546.6169 C22.5781,546.6169 23.1875,546.7731 23.6563,547.0231 C24.1406,547.3044 24.3125,547.5231 24.4063,547.9294 C24.4688,548.3356 24.5,548.4606 24.6406,548.5856 C24.7813,548.7263 25.0156,548.8356 25.2344,548.8356 C25.5,548.8356 25.7656,548.695 25.9375,548.4763 C26.0469,548.32 26.0781,548.1325 26.0781,547.7106 L26.0781,546.2888 C26.0781,545.8513 26.0625,545.7263 25.9688,545.57 C25.8125,545.3044 25.5313,545.1638 25.2344,545.1638 C24.9375,545.1638 24.7344,545.2575 24.5156,545.57 L24.3438,545.4919 Z " fill="#000000"/><text fill="#000000" font-family="sans-serif" font-size="12" lengthAdjust="spacing" textLength="80" x="36" y="553.9743">Administrator</text><line style="stroke:#A80036;stroke-width:1.5;" x1="8" x2="118" y1="565.82" y2="565.82"/><text fill="#000000" font-family="sans-serif" font-size="11" lengthAdjust="spacing" textLength="74" x="13" y="580.0304">-String name</text><!--MD5=[3fd616f346a44cd59a91eb10b19e157c]
class User--><rect codeLine="18" fill="#FEFECE" filter="url(#f1pxuqtnzza1dr)" height="78.4141" id="User" style="stroke:#A80036;stroke-width:1.5;" width="106" x="787" y="592.32"/><ellipse cx="822.25" cy="608.32" fill="#ADD1B2" rx="11" ry="11" style="stroke:#A80036;stroke-width:1.0;"/><path d="M824.5938,603.9919 C823.6563,603.5544 823.0625,603.4138 822.1875,603.4138 C819.5625,603.4138 817.5625,605.4919 817.5625,608.2106 L817.5625,609.3356 C817.5625,611.9138 819.6719,613.8044 822.5625,613.8044 C823.7813,613.8044 824.9375,613.5075 825.6875,612.9606 C826.2656,612.5544 826.5938,612.1013 826.5938,611.7106 C826.5938,611.2575 826.2031,610.8669 825.7344,610.8669 C825.5156,610.8669 825.3125,610.945 825.125,611.1325 C824.6719,611.6169 824.6719,611.6169 824.4844,611.7106 C824.0625,611.9763 823.375,612.1013 822.6094,612.1013 C820.5625,612.1013 819.2656,611.0075 819.2656,609.3044 L819.2656,608.2106 C819.2656,606.4294 820.5156,605.1169 822.25,605.1169 C822.8281,605.1169 823.4375,605.2731 823.9063,605.5231 C824.3906,605.8044 824.5625,606.0231 824.6563,606.4294 C824.7188,606.8356 824.75,606.9606 824.8906,607.0856 C825.0313,607.2263 825.2656,607.3356 825.4844,607.3356 C825.75,607.3356 826.0156,607.195 826.1875,606.9763 C826.2969,606.82 826.3281,606.6325 826.3281,606.2106 L826.3281,604.7888 C826.3281,604.3513 826.3125,604.2263 826.2188,604.07 C826.0625,603.8044 825.7813,603.6638 825.4844,603.6638 C825.1875,603.6638 824.9844,603.7575 824.7656,604.07 L824.5938,603.9919 Z " fill="#000000"/><text fill="#000000" font-family="sans-serif" font-size="12" lengthAdjust="spacing" textLength="29" x="840.75" y="612.4743">User</text><line style="stroke:#A80036;stroke-width:1.5;" x1="788" x2="892" y1="624.32" y2="624.32"/><text fill="#000000" font-family="sans-serif" font-size="11" lengthAdjust="spacing" textLength="73" x="793" y="638.5304">-String email</text><text fill="#000000" font-family="sans-serif" font-size="11" lengthAdjust="spacing" textLength="94" x="793" y="651.3351">-String password</text><text fill="#000000" font-family="sans-serif" font-size="11" lengthAdjust="spacing" textLength="63" x="793" y="664.1398">-String role</text><!--MD5=[ed6624c6556d5e7b1bd23032162d20b7]
class Client--><rect codeLine="24" fill="#FEFECE" filter="url(#f1pxuqtnzza1dr)" height="129.6328" id="Client" style="stroke:#A80036;stroke-width:1.5;" width="112" x="510.5" y="250.32"/><ellipse cx="546.65" cy="266.32" fill="#ADD1B2" rx="11" ry="11" style="stroke:#A80036;stroke-width:1.0;"/><path d="M548.9938,261.9919 C548.0563,261.5544 547.4625,261.4138 546.5875,261.4138 C543.9625,261.4138 541.9625,263.4919 541.9625,266.2106 L541.9625,267.3356 C541.9625,269.9138 544.0719,271.8044 546.9625,271.8044 C548.1813,271.8044 549.3375,271.5075 550.0875,270.9606 C550.6656,270.5544 550.9938,270.1013 550.9938,269.7106 C550.9938,269.2575 550.6031,268.8669 550.1344,268.8669 C549.9156,268.8669 549.7125,268.945 549.525,269.1325 C549.0719,269.6169 549.0719,269.6169 548.8844,269.7106 C548.4625,269.9763 547.775,270.1013 547.0094,270.1013 C544.9625,270.1013 543.6656,269.0075 543.6656,267.3044 L543.6656,266.2106 C543.6656,264.4294 544.9156,263.1169 546.65,263.1169 C547.2281,263.1169 547.8375,263.2731 548.3063,263.5231 C548.7906,263.8044 548.9625,264.0231 549.0563,264.4294 C549.1188,264.8356 549.15,264.9606 549.2906,265.0856 C549.4313,265.2263 549.6656,265.3356 549.8844,265.3356 C550.15,265.3356 550.4156,265.195 550.5875,264.9763 C550.6969,264.82 550.7281,264.6325 550.7281,264.2106 L550.7281,262.7888 C550.7281,262.3513 550.7125,262.2263 550.6188,262.07 C550.4625,261.8044 550.1813,261.6638 549.8844,261.6638 C549.5875,261.6638 549.3844,261.7575 549.1656,262.07 L548.9938,261.9919 Z " fill="#000000"/><text fill="#000000" font-family="sans-serif" font-size="12" lengthAdjust="spacing" textLength="33" x="565.35" y="270.4743">Client</text><line style="stroke:#A80036;stroke-width:1.5;" x1="511.5" x2="621.5" y1="282.32" y2="282.32"/><text fill="#000000" font-family="sans-serif" font-size="11" lengthAdjust="spacing" textLength="65" x="516.5" y="296.5304">-int idClient</text><text fill="#000000" font-family="sans-serif" font-size="11" lengthAdjust="spacing" textLength="74" x="516.5" y="309.3351">-String name</text><text fill="#000000" font-family="sans-serif" font-size="11" lengthAdjust="spacing" textLength="73" x="516.5" y="322.1398">-String email</text><text fill="#000000" font-family="sans-serif" font-size="11" lengthAdjust="spacing" textLength="36" x="516.5" y="334.9445">-int nif</text><text fill="#000000" font-family="sans-serif" font-size="11" lengthAdjust="spacing" textLength="87" x="516.5" y="347.7492">-int numCredits</text><text fill="#000000" font-family="sans-serif" font-size="11" lengthAdjust="spacing" textLength="90" x="516.5" y="360.5539">-double latitude</text><text fill="#000000" font-family="sans-serif" font-size="11" lengthAdjust="spacing" textLength="100" x="516.5" y="373.3586">-double longitude</text><!--MD5=[c6a2171c11447acbe08a3dfeee0e1710]
class Courier--><rect codeLine="34" fill="#FEFECE" filter="url(#f1pxuqtnzza1dr)" height="142.4375" id="Courier" style="stroke:#A80036;stroke-width:1.5;" width="173" x="480" y="594.32"/><ellipse cx="540.25" cy="610.32" fill="#ADD1B2" rx="11" ry="11" style="stroke:#A80036;stroke-width:1.0;"/><path d="M542.5938,605.9919 C541.6563,605.5544 541.0625,605.4138 540.1875,605.4138 C537.5625,605.4138 535.5625,607.4919 535.5625,610.2106 L535.5625,611.3356 C535.5625,613.9138 537.6719,615.8044 540.5625,615.8044 C541.7813,615.8044 542.9375,615.5075 543.6875,614.9606 C544.2656,614.5544 544.5938,614.1013 544.5938,613.7106 C544.5938,613.2575 544.2031,612.8669 543.7344,612.8669 C543.5156,612.8669 543.3125,612.945 543.125,613.1325 C542.6719,613.6169 542.6719,613.6169 542.4844,613.7106 C542.0625,613.9763 541.375,614.1013 540.6094,614.1013 C538.5625,614.1013 537.2656,613.0075 537.2656,611.3044 L537.2656,610.2106 C537.2656,608.4294 538.5156,607.1169 540.25,607.1169 C540.8281,607.1169 541.4375,607.2731 541.9063,607.5231 C542.3906,607.8044 542.5625,608.0231 542.6563,608.4294 C542.7188,608.8356 542.75,608.9606 542.8906,609.0856 C543.0313,609.2263 543.2656,609.3356 543.4844,609.3356 C543.75,609.3356 544.0156,609.195 544.1875,608.9763 C544.2969,608.82 544.3281,608.6325 544.3281,608.2106 L544.3281,606.7888 C544.3281,606.3513 544.3125,606.2263 544.2188,606.07 C544.0625,605.8044 543.7813,605.6638 543.4844,605.6638 C543.1875,605.6638 542.9844,605.7575 542.7656,606.07 L542.5938,605.9919 Z " fill="#000000"/><text fill="#000000" font-family="sans-serif" font-size="12" lengthAdjust="spacing" textLength="44" x="560.75" y="614.4743">Courier</text><line style="stroke:#A80036;stroke-width:1.5;" x1="481" x2="652" y1="626.32" y2="626.32"/><text fill="#000000" font-family="sans-serif" font-size="11" lengthAdjust="spacing" textLength="73" x="486" y="640.5304">-int idCourier</text><text fill="#000000" font-family="sans-serif" font-size="11" lengthAdjust="spacing" textLength="74" x="486" y="653.3351">-String name</text><text fill="#000000" font-family="sans-serif" font-size="11" lengthAdjust="spacing" textLength="39" x="486" y="666.1398">-int NIF</text><text fill="#000000" font-family="sans-serif" font-size="11" lengthAdjust="spacing" textLength="56" x="486" y="678.9445">-long NSS</text><text fill="#000000" font-family="sans-serif" font-size="11" lengthAdjust="spacing" textLength="161" x="486" y="691.7492">-double maxWeightCapacity</text><text fill="#000000" font-family="sans-serif" font-size="11" lengthAdjust="spacing" textLength="85" x="486" y="704.5539">-double weight</text><text fill="#000000" font-family="sans-serif" font-size="11" lengthAdjust="spacing" textLength="90" x="486" y="717.3586">-int pharmacyID</text><text fill="#000000" font-family="sans-serif" font-size="11" lengthAdjust="spacing" textLength="73" x="486" y="730.1633">-String email</text><!--MD5=[a608780e30028417ceff2d6f0d878efa]
class Cart--><rect codeLine="45" fill="#FEFECE" filter="url(#f1pxuqtnzza1dr)" height="78.4141" id="Cart" style="stroke:#A80036;stroke-width:1.5;" width="123" x="778.5" y="239.32"/><ellipse cx="823.75" cy="255.32" fill="#ADD1B2" rx="11" ry="11" style="stroke:#A80036;stroke-width:1.0;"/><path d="M826.0938,250.9919 C825.1563,250.5544 824.5625,250.4138 823.6875,250.4138 C821.0625,250.4138 819.0625,252.4919 819.0625,255.2106 L819.0625,256.3356 C819.0625,258.9138 821.1719,260.8044 824.0625,260.8044 C825.2813,260.8044 826.4375,260.5075 827.1875,259.9606 C827.7656,259.5544 828.0938,259.1013 828.0938,258.7106 C828.0938,258.2575 827.7031,257.8669 827.2344,257.8669 C827.0156,257.8669 826.8125,257.945 826.625,258.1325 C826.1719,258.6169 826.1719,258.6169 825.9844,258.7106 C825.5625,258.9763 824.875,259.1013 824.1094,259.1013 C822.0625,259.1013 820.7656,258.0075 820.7656,256.3044 L820.7656,255.2106 C820.7656,253.4294 822.0156,252.1169 823.75,252.1169 C824.3281,252.1169 824.9375,252.2731 825.4063,252.5231 C825.8906,252.8044 826.0625,253.0231 826.1563,253.4294 C826.2188,253.8356 826.25,253.9606 826.3906,254.0856 C826.5313,254.2263 826.7656,254.3356 826.9844,254.3356 C827.25,254.3356 827.5156,254.195 827.6875,253.9763 C827.7969,253.82 827.8281,253.6325 827.8281,253.2106 L827.8281,251.7888 C827.8281,251.3513 827.8125,251.2263 827.7188,251.07 C827.5625,250.8044 827.2813,250.6638 826.9844,250.6638 C826.6875,250.6638 826.4844,250.7575 826.2656,251.07 L826.0938,250.9919 Z " fill="#000000"/><text fill="#000000" font-family="sans-serif" font-size="12" lengthAdjust="spacing" textLength="24" x="844.25" y="259.4743">Cart</text><line style="stroke:#A80036;stroke-width:1.5;" x1="779.5" x2="900.5" y1="271.32" y2="271.32"/><text fill="#000000" font-family="sans-serif" font-size="11" lengthAdjust="spacing" textLength="98" x="784.5" y="285.5304">-double finalPrice</text><text fill="#000000" font-family="sans-serif" font-size="11" lengthAdjust="spacing" textLength="111" x="784.5" y="298.3351">-double finalWeight</text><text fill="#000000" font-family="sans-serif" font-size="11" lengthAdjust="spacing" textLength="111" x="784.5" y="311.1398">-List productsToBuy</text><!--MD5=[91d4151b6d4c9a3d01b6d84b2458eece]
class CreditCard--><rect codeLine="51" fill="#FEFECE" filter="url(#f1pxuqtnzza1dr)" height="91.2188" id="CreditCard" style="stroke:#A80036;stroke-width:1.5;" width="126" x="777" y="112.82"/><ellipse cx="805.5" cy="128.82" fill="#ADD1B2" rx="11" ry="11" style="stroke:#A80036;stroke-width:1.0;"/><path d="M807.8438,124.4919 C806.9063,124.0544 806.3125,123.9138 805.4375,123.9138 C802.8125,123.9138 800.8125,125.9919 800.8125,128.7106 L800.8125,129.8356 C800.8125,132.4138 802.9219,134.3044 805.8125,134.3044 C807.0313,134.3044 808.1875,134.0075 808.9375,133.4606 C809.5156,133.0544 809.8438,132.6013 809.8438,132.2106 C809.8438,131.7575 809.4531,131.3669 808.9844,131.3669 C808.7656,131.3669 808.5625,131.445 808.375,131.6325 C807.9219,132.1169 807.9219,132.1169 807.7344,132.2106 C807.3125,132.4763 806.625,132.6013 805.8594,132.6013 C803.8125,132.6013 802.5156,131.5075 802.5156,129.8044 L802.5156,128.7106 C802.5156,126.9294 803.7656,125.6169 805.5,125.6169 C806.0781,125.6169 806.6875,125.7731 807.1563,126.0231 C807.6406,126.3044 807.8125,126.5231 807.9063,126.9294 C807.9688,127.3356 808,127.4606 808.1406,127.5856 C808.2813,127.7263 808.5156,127.8356 808.7344,127.8356 C809,127.8356 809.2656,127.695 809.4375,127.4763 C809.5469,127.32 809.5781,127.1325 809.5781,126.7106 L809.5781,125.2888 C809.5781,124.8513 809.5625,124.7263 809.4688,124.57 C809.3125,124.3044 809.0313,124.1638 808.7344,124.1638 C808.4375,124.1638 808.2344,124.2575 808.0156,124.57 L807.8438,124.4919 Z " fill="#000000"/><text fill="#000000" font-family="sans-serif" font-size="12" lengthAdjust="spacing" textLength="64" x="822.5" y="132.9743">CreditCard</text><line style="stroke:#A80036;stroke-width:1.5;" x1="778" x2="902" y1="144.82" y2="144.82"/><text fill="#000000" font-family="sans-serif" font-size="11" lengthAdjust="spacing" textLength="101" x="783" y="159.0304">-long cardNumber</text><text fill="#000000" font-family="sans-serif" font-size="11" lengthAdjust="spacing" textLength="114" x="783" y="171.8351">-int monthExpiration</text><text fill="#000000" font-family="sans-serif" font-size="11" lengthAdjust="spacing" textLength="104" x="783" y="184.6398">-int yearExpiration</text><text fill="#000000" font-family="sans-serif" font-size="11" lengthAdjust="spacing" textLength="41" x="783" y="197.4445">-int ccv</text><!--MD5=[a92ce6ac3ddaafef72224c683c68c0d4]
class ClientOrder--><rect codeLine="58" fill="#FEFECE" filter="url(#f1pxuqtnzza1dr)" height="129.6328" id="ClientOrder" style="stroke:#A80036;stroke-width:1.5;" width="123" x="1065" y="314.32"/><ellipse cx="1089.9" cy="330.32" fill="#ADD1B2" rx="11" ry="11" style="stroke:#A80036;stroke-width:1.0;"/><path d="M1092.2438,325.9919 C1091.3063,325.5544 1090.7125,325.4138 1089.8375,325.4138 C1087.2125,325.4138 1085.2125,327.4919 1085.2125,330.2106 L1085.2125,331.3356 C1085.2125,333.9138 1087.3219,335.8044 1090.2125,335.8044 C1091.4313,335.8044 1092.5875,335.5075 1093.3375,334.9606 C1093.9156,334.5544 1094.2438,334.1013 1094.2438,333.7106 C1094.2438,333.2575 1093.8531,332.8669 1093.3844,332.8669 C1093.1656,332.8669 1092.9625,332.945 1092.775,333.1325 C1092.3219,333.6169 1092.3219,333.6169 1092.1344,333.7106 C1091.7125,333.9763 1091.025,334.1013 1090.2594,334.1013 C1088.2125,334.1013 1086.9156,333.0075 1086.9156,331.3044 L1086.9156,330.2106 C1086.9156,328.4294 1088.1656,327.1169 1089.9,327.1169 C1090.4781,327.1169 1091.0875,327.2731 1091.5563,327.5231 C1092.0406,327.8044 1092.2125,328.0231 1092.3063,328.4294 C1092.3688,328.8356 1092.4,328.9606 1092.5406,329.0856 C1092.6813,329.2263 1092.9156,329.3356 1093.1344,329.3356 C1093.4,329.3356 1093.6656,329.195 1093.8375,328.9763 C1093.9469,328.82 1093.9781,328.6325 1093.9781,328.2106 L1093.9781,326.7888 C1093.9781,326.3513 1093.9625,326.2263 1093.8688,326.07 C1093.7125,325.8044 1093.4313,325.6638 1093.1344,325.6638 C1092.8375,325.6638 1092.6344,325.7575 1092.4156,326.07 L1092.2438,325.9919 Z " fill="#000000"/><text fill="#000000" font-family="sans-serif" font-size="12" lengthAdjust="spacing" textLength="69" x="1106.1" y="334.4743">ClientOrder</text><line style="stroke:#A80036;stroke-width:1.5;" x1="1066" x2="1187" y1="346.32" y2="346.32"/><text fill="#000000" font-family="sans-serif" font-size="11" lengthAdjust="spacing" textLength="64" x="1071" y="360.5304">-int orderID</text><text fill="#000000" font-family="sans-serif" font-size="11" lengthAdjust="spacing" textLength="94" x="1071" y="373.3351">-Date dateOrder</text><text fill="#000000" font-family="sans-serif" font-size="11" lengthAdjust="spacing" textLength="98" x="1071" y="386.1398">-double finalPrice</text><text fill="#000000" font-family="sans-serif" font-size="11" lengthAdjust="spacing" textLength="111" x="1071" y="398.9445">-double finalWeight</text><text fill="#000000" font-family="sans-serif" font-size="11" lengthAdjust="spacing" textLength="56" x="1071" y="411.7492">-int status</text><text fill="#000000" font-family="sans-serif" font-size="11" lengthAdjust="spacing" textLength="63" x="1071" y="424.5539">-int clientId</text><text fill="#000000" font-family="sans-serif" font-size="11" lengthAdjust="spacing" textLength="79" x="1071" y="437.3586">-int deliveryId</text><!--MD5=[7f2a9fafcebe4f099f71398fd3e2ed00]
class Pharmacy--><rect codeLine="70" fill="#FEFECE" filter="url(#f1pxuqtnzza1dr)" height="78.4141" id="Pharmacy" style="stroke:#A80036;stroke-width:1.5;" width="130" x="251" y="740.32"/><ellipse cx="284.45" cy="756.32" fill="#ADD1B2" rx="11" ry="11" style="stroke:#A80036;stroke-width:1.0;"/><path d="M286.7938,751.9919 C285.8563,751.5544 285.2625,751.4138 284.3875,751.4138 C281.7625,751.4138 279.7625,753.4919 279.7625,756.2106 L279.7625,757.3356 C279.7625,759.9138 281.8719,761.8044 284.7625,761.8044 C285.9813,761.8044 287.1375,761.5075 287.8875,760.9606 C288.4656,760.5544 288.7938,760.1013 288.7938,759.7106 C288.7938,759.2575 288.4031,758.8669 287.9344,758.8669 C287.7156,758.8669 287.5125,758.945 287.325,759.1325 C286.8719,759.6169 286.8719,759.6169 286.6844,759.7106 C286.2625,759.9763 285.575,760.1013 284.8094,760.1013 C282.7625,760.1013 281.4656,759.0075 281.4656,757.3044 L281.4656,756.2106 C281.4656,754.4294 282.7156,753.1169 284.45,753.1169 C285.0281,753.1169 285.6375,753.2731 286.1063,753.5231 C286.5906,753.8044 286.7625,754.0231 286.8563,754.4294 C286.9188,754.8356 286.95,754.9606 287.0906,755.0856 C287.2313,755.2263 287.4656,755.3356 287.6844,755.3356 C287.95,755.3356 288.2156,755.195 288.3875,754.9763 C288.4969,754.82 288.5281,754.6325 288.5281,754.2106 L288.5281,752.7888 C288.5281,752.3513 288.5125,752.2263 288.4188,752.07 C288.2625,751.8044 287.9813,751.6638 287.6844,751.6638 C287.3875,751.6638 287.1844,751.7575 286.9656,752.07 L286.7938,751.9919 Z " fill="#000000"/><text fill="#000000" font-family="sans-serif" font-size="12" lengthAdjust="spacing" textLength="57" x="302.55" y="760.4743">Pharmacy</text><line style="stroke:#A80036;stroke-width:1.5;" x1="252" x2="380" y1="772.32" y2="772.32"/><text fill="#000000" font-family="sans-serif" font-size="11" lengthAdjust="spacing" textLength="51" x="257" y="786.5304">-String id</text><text fill="#000000" font-family="sans-serif" font-size="11" lengthAdjust="spacing" textLength="74" x="257" y="799.3351">-String name</text><text fill="#000000" font-family="sans-serif" font-size="11" lengthAdjust="spacing" textLength="118" x="257" y="812.1398">-int quantityScooters</text><!--MD5=[3aa0d89c6bfdcbf7f32042cedac57549]
class Vehicle--><rect codeLine="76" fill="#FEFECE" filter="url(#f1pxuqtnzza1dr)" height="193.6563" id="Vehicle" style="stroke:#A80036;stroke-width:1.5;" width="135" x="1059" y="730.32"/><ellipse cx="1100.55" cy="746.32" fill="#ADD1B2" rx="11" ry="11" style="stroke:#A80036;stroke-width:1.0;"/><path d="M1102.8938,741.9919 C1101.9563,741.5544 1101.3625,741.4138 1100.4875,741.4138 C1097.8625,741.4138 1095.8625,743.4919 1095.8625,746.2106 L1095.8625,747.3356 C1095.8625,749.9138 1097.9719,751.8044 1100.8625,751.8044 C1102.0813,751.8044 1103.2375,751.5075 1103.9875,750.9606 C1104.5656,750.5544 1104.8938,750.1013 1104.8938,749.7106 C1104.8938,749.2575 1104.5031,748.8669 1104.0344,748.8669 C1103.8156,748.8669 1103.6125,748.945 1103.425,749.1325 C1102.9719,749.6169 1102.9719,749.6169 1102.7844,749.7106 C1102.3625,749.9763 1101.675,750.1013 1100.9094,750.1013 C1098.8625,750.1013 1097.5656,749.0075 1097.5656,747.3044 L1097.5656,746.2106 C1097.5656,744.4294 1098.8156,743.1169 1100.55,743.1169 C1101.1281,743.1169 1101.7375,743.2731 1102.2063,743.5231 C1102.6906,743.8044 1102.8625,744.0231 1102.9563,744.4294 C1103.0188,744.8356 1103.05,744.9606 1103.1906,745.0856 C1103.3313,745.2263 1103.5656,745.3356 1103.7844,745.3356 C1104.05,745.3356 1104.3156,745.195 1104.4875,744.9763 C1104.5969,744.82 1104.6281,744.6325 1104.6281,744.2106 L1104.6281,742.7888 C1104.6281,742.3513 1104.6125,742.2263 1104.5188,742.07 C1104.3625,741.8044 1104.0813,741.6638 1103.7844,741.6638 C1103.4875,741.6638 1103.2844,741.7575 1103.0656,742.07 L1102.8938,741.9919 Z " fill="#000000"/><text fill="#000000" font-family="sans-serif" font-size="12" lengthAdjust="spacing" textLength="44" x="1120.45" y="750.4743">Vehicle</text><line style="stroke:#A80036;stroke-width:1.5;" x1="1060" x2="1193" y1="762.32" y2="762.32"/><text fill="#000000" font-family="sans-serif" font-size="11" lengthAdjust="spacing" textLength="51" x="1065" y="776.5304">-String id</text><text fill="#000000" font-family="sans-serif" font-size="11" lengthAdjust="spacing" textLength="110" x="1065" y="789.3351">-String licencePlate</text><text fill="#000000" font-family="sans-serif" font-size="11" lengthAdjust="spacing" textLength="114" x="1065" y="802.1398">-double maxBattery</text><text fill="#000000" font-family="sans-serif" font-size="11" lengthAdjust="spacing" textLength="123" x="1065" y="814.9445">-double actualBattery</text><text fill="#000000" font-family="sans-serif" font-size="11" lengthAdjust="spacing" textLength="56" x="1065" y="827.7492">-int status</text><text fill="#000000" font-family="sans-serif" font-size="11" lengthAdjust="spacing" textLength="81" x="1065" y="840.5539">-int isCharging</text><text fill="#000000" font-family="sans-serif" font-size="11" lengthAdjust="spacing" textLength="121" x="1065" y="853.3586">-double enginePower</text><text fill="#000000" font-family="sans-serif" font-size="11" lengthAdjust="spacing" textLength="108" x="1065" y="866.1633">-double ah_battery</text><text fill="#000000" font-family="sans-serif" font-size="11" lengthAdjust="spacing" textLength="101" x="1065" y="878.9679">-double v_battery</text><text fill="#000000" font-family="sans-serif" font-size="11" lengthAdjust="spacing" textLength="85" x="1065" y="891.7726">-double weight</text><text fill="#000000" font-family="sans-serif" font-size="11" lengthAdjust="spacing" textLength="87" x="1065" y="904.5773">-int idPharmacy</text><text fill="#000000" font-family="sans-serif" font-size="11" lengthAdjust="spacing" textLength="91" x="1065" y="917.382">-int typeVehicle</text><!--MD5=[894442645724153f40a9f7a43026dbfc]
class Invoice--><rect codeLine="129" fill="#FEFECE" filter="url(#f1pxuqtnzza1dr)" height="142.4375" id="Invoice" style="stroke:#A80036;stroke-width:1.5;" width="115" x="1342" y="63.32"/><ellipse cx="1375" cy="79.32" fill="#ADD1B2" rx="11" ry="11" style="stroke:#A80036;stroke-width:1.0;"/><path d="M1377.3438,74.9919 C1376.4063,74.5544 1375.8125,74.4138 1374.9375,74.4138 C1372.3125,74.4138 1370.3125,76.4919 1370.3125,79.2106 L1370.3125,80.3356 C1370.3125,82.9138 1372.4219,84.8044 1375.3125,84.8044 C1376.5313,84.8044 1377.6875,84.5075 1378.4375,83.9606 C1379.0156,83.5544 1379.3438,83.1013 1379.3438,82.7106 C1379.3438,82.2575 1378.9531,81.8669 1378.4844,81.8669 C1378.2656,81.8669 1378.0625,81.945 1377.875,82.1325 C1377.4219,82.6169 1377.4219,82.6169 1377.2344,82.7106 C1376.8125,82.9763 1376.125,83.1013 1375.3594,83.1013 C1373.3125,83.1013 1372.0156,82.0075 1372.0156,80.3044 L1372.0156,79.2106 C1372.0156,77.4294 1373.2656,76.1169 1375,76.1169 C1375.5781,76.1169 1376.1875,76.2731 1376.6563,76.5231 C1377.1406,76.8044 1377.3125,77.0231 1377.4063,77.4294 C1377.4688,77.8356 1377.5,77.9606 1377.6406,78.0856 C1377.7813,78.2263 1378.0156,78.3356 1378.2344,78.3356 C1378.5,78.3356 1378.7656,78.195 1378.9375,77.9763 C1379.0469,77.82 1379.0781,77.6325 1379.0781,77.2106 L1379.0781,75.7888 C1379.0781,75.3513 1379.0625,75.2263 1378.9688,75.07 C1378.8125,74.8044 1378.5313,74.6638 1378.2344,74.6638 C1377.9375,74.6638 1377.7344,74.7575 1377.5156,75.07 L1377.3438,74.9919 Z " fill="#000000"/><text fill="#000000" font-family="sans-serif" font-size="12" lengthAdjust="spacing" textLength="43" x="1393" y="83.4743">Invoice</text><line style="stroke:#A80036;stroke-width:1.5;" x1="1343" x2="1456" y1="95.32" y2="95.32"/><text fill="#000000" font-family="sans-serif" font-size="11" lengthAdjust="spacing" textLength="85" x="1348" y="109.5304">-String number</text><text fill="#000000" font-family="sans-serif" font-size="11" lengthAdjust="spacing" textLength="67" x="1348" y="122.3351">-String date</text><text fill="#000000" font-family="sans-serif" font-size="11" lengthAdjust="spacing" textLength="98" x="1348" y="135.1398">-double finalPrice</text><text fill="#000000" font-family="sans-serif" font-size="11" lengthAdjust="spacing" textLength="32" x="1348" y="147.9445">-int id</text><text fill="#000000" font-family="sans-serif" font-size="11" lengthAdjust="spacing" textLength="103" x="1348" y="160.7492">-Date dateInvoice</text><text fill="#000000" font-family="sans-serif" font-size="11" lengthAdjust="spacing" textLength="98" x="1348" y="173.5539">-double finalPrice</text><text fill="#000000" font-family="sans-serif" font-size="11" lengthAdjust="spacing" textLength="65" x="1348" y="186.3586">-int clientID</text><text fill="#000000" font-family="sans-serif" font-size="11" lengthAdjust="spacing" textLength="64" x="1348" y="199.1633">-int idOrder</text><!--MD5=[a4cb0f987c11031dc931233a0e7767af]
class Stock--><rect codeLine="97" fill="#FEFECE" filter="url(#f1pxuqtnzza1dr)" height="65.6094" id="Stock" style="stroke:#A80036;stroke-width:1.5;" width="107" x="1562" y="346.32"/><ellipse cx="1595.45" cy="362.32" fill="#ADD1B2" rx="11" ry="11" style="stroke:#A80036;stroke-width:1.0;"/><path d="M1597.7938,357.9919 C1596.8563,357.5544 1596.2625,357.4138 1595.3875,357.4138 C1592.7625,357.4138 1590.7625,359.4919 1590.7625,362.2106 L1590.7625,363.3356 C1590.7625,365.9138 1592.8719,367.8044 1595.7625,367.8044 C1596.9813,367.8044 1598.1375,367.5075 1598.8875,366.9606 C1599.4656,366.5544 1599.7938,366.1013 1599.7938,365.7106 C1599.7938,365.2575 1599.4031,364.8669 1598.9344,364.8669 C1598.7156,364.8669 1598.5125,364.945 1598.325,365.1325 C1597.8719,365.6169 1597.8719,365.6169 1597.6844,365.7106 C1597.2625,365.9763 1596.575,366.1013 1595.8094,366.1013 C1593.7625,366.1013 1592.4656,365.0075 1592.4656,363.3044 L1592.4656,362.2106 C1592.4656,360.4294 1593.7156,359.1169 1595.45,359.1169 C1596.0281,359.1169 1596.6375,359.2731 1597.1063,359.5231 C1597.5906,359.8044 1597.7625,360.0231 1597.8563,360.4294 C1597.9188,360.8356 1597.95,360.9606 1598.0906,361.0856 C1598.2313,361.2263 1598.4656,361.3356 1598.6844,361.3356 C1598.95,361.3356 1599.2156,361.195 1599.3875,360.9763 C1599.4969,360.82 1599.5281,360.6325 1599.5281,360.2106 L1599.5281,358.7888 C1599.5281,358.3513 1599.5125,358.2263 1599.4188,358.07 C1599.2625,357.8044 1598.9813,357.6638 1598.6844,357.6638 C1598.3875,357.6638 1598.1844,357.7575 1597.9656,358.07 L1597.7938,357.9919 Z " fill="#000000"/><text fill="#000000" font-family="sans-serif" font-size="12" lengthAdjust="spacing" textLength="34" x="1613.55" y="366.4743">Stock</text><line style="stroke:#A80036;stroke-width:1.5;" x1="1563" x2="1668" y1="378.32" y2="378.32"/><text fill="#000000" font-family="sans-serif" font-size="11" lengthAdjust="spacing" textLength="95" x="1568" y="392.5304">-String productID</text><text fill="#000000" font-family="sans-serif" font-size="11" lengthAdjust="spacing" textLength="68" x="1568" y="405.3351">-int quantity</text><!--MD5=[72136138052d025cffdce3c22fbd185f]
class Product--><rect codeLine="102" fill="#FEFECE" filter="url(#f1pxuqtnzza1dr)" height="129.6328" id="Product" style="stroke:#A80036;stroke-width:1.5;" width="127" x="1336" y="314.32"/><ellipse cx="1373.5" cy="330.32" fill="#ADD1B2" rx="11" ry="11" style="stroke:#A80036;stroke-width:1.0;"/><path d="M1375.8438,325.9919 C1374.9063,325.5544 1374.3125,325.4138 1373.4375,325.4138 C1370.8125,325.4138 1368.8125,327.4919 1368.8125,330.2106 L1368.8125,331.3356 C1368.8125,333.9138 1370.9219,335.8044 1373.8125,335.8044 C1375.0313,335.8044 1376.1875,335.5075 1376.9375,334.9606 C1377.5156,334.5544 1377.8438,334.1013 1377.8438,333.7106 C1377.8438,333.2575 1377.4531,332.8669 1376.9844,332.8669 C1376.7656,332.8669 1376.5625,332.945 1376.375,333.1325 C1375.9219,333.6169 1375.9219,333.6169 1375.7344,333.7106 C1375.3125,333.9763 1374.625,334.1013 1373.8594,334.1013 C1371.8125,334.1013 1370.5156,333.0075 1370.5156,331.3044 L1370.5156,330.2106 C1370.5156,328.4294 1371.7656,327.1169 1373.5,327.1169 C1374.0781,327.1169 1374.6875,327.2731 1375.1563,327.5231 C1375.6406,327.8044 1375.8125,328.0231 1375.9063,328.4294 C1375.9688,328.8356 1376,328.9606 1376.1406,329.0856 C1376.2813,329.2263 1376.5156,329.3356 1376.7344,329.3356 C1377,329.3356 1377.2656,329.195 1377.4375,328.9763 C1377.5469,328.82 1377.5781,328.6325 1377.5781,328.2106 L1377.5781,326.7888 C1377.5781,326.3513 1377.5625,326.2263 1377.4688,326.07 C1377.3125,325.8044 1377.0313,325.6638 1376.7344,325.6638 C1376.4375,325.6638 1376.2344,325.7575 1376.0156,326.07 L1375.8438,325.9919 Z " fill="#000000"/><text fill="#000000" font-family="sans-serif" font-size="12" lengthAdjust="spacing" textLength="45" x="1392.5" y="334.4743">Product</text><line style="stroke:#A80036;stroke-width:1.5;" x1="1337" x2="1462" y1="346.32" y2="346.32"/><text fill="#000000" font-family="sans-serif" font-size="11" lengthAdjust="spacing" textLength="74" x="1342" y="360.5304">-String name</text><text fill="#000000" font-family="sans-serif" font-size="11" lengthAdjust="spacing" textLength="103" x="1342" y="373.3351">-String description</text><text fill="#000000" font-family="sans-serif" font-size="11" lengthAdjust="spacing" textLength="69" x="1342" y="386.1398">-String price</text><text fill="#000000" font-family="sans-serif" font-size="11" lengthAdjust="spacing" textLength="85" x="1342" y="398.9445">-double weight</text><text fill="#000000" font-family="sans-serif" font-size="11" lengthAdjust="spacing" textLength="115" x="1342" y="411.7492">-double pharmacyID</text><text fill="#000000" font-family="sans-serif" font-size="11" lengthAdjust="spacing" textLength="32" x="1342" y="424.5539">-int id</text><text fill="#000000" font-family="sans-serif" font-size="11" lengthAdjust="spacing" textLength="99" x="1342" y="437.3586">-int quantityStock</text><!--MD5=[d1eeb527b96f439f56c6bd12ac0dd707]
class Park--><rect codeLine="112" fill="#FEFECE" filter="url(#f1pxuqtnzza1dr)" height="129.6328" id="Park" style="stroke:#A80036;stroke-width:1.5;" width="154" x="489.5" y="771.32"/><ellipse cx="549.75" cy="787.32" fill="#ADD1B2" rx="11" ry="11" style="stroke:#A80036;stroke-width:1.0;"/><path d="M552.0938,782.9919 C551.1563,782.5544 550.5625,782.4138 549.6875,782.4138 C547.0625,782.4138 545.0625,784.4919 545.0625,787.2106 L545.0625,788.3356 C545.0625,790.9138 547.1719,792.8044 550.0625,792.8044 C551.2813,792.8044 552.4375,792.5075 553.1875,791.9606 C553.7656,791.5544 554.0938,791.1013 554.0938,790.7106 C554.0938,790.2575 553.7031,789.8669 553.2344,789.8669 C553.0156,789.8669 552.8125,789.945 552.625,790.1325 C552.1719,790.6169 552.1719,790.6169 551.9844,790.7106 C551.5625,790.9763 550.875,791.1013 550.1094,791.1013 C548.0625,791.1013 546.7656,790.0075 546.7656,788.3044 L546.7656,787.2106 C546.7656,785.4294 548.0156,784.1169 549.75,784.1169 C550.3281,784.1169 550.9375,784.2731 551.4063,784.5231 C551.8906,784.8044 552.0625,785.0231 552.1563,785.4294 C552.2188,785.8356 552.25,785.9606 552.3906,786.0856 C552.5313,786.2263 552.7656,786.3356 552.9844,786.3356 C553.25,786.3356 553.5156,786.195 553.6875,785.9763 C553.7969,785.82 553.8281,785.6325 553.8281,785.2106 L553.8281,783.7888 C553.8281,783.3513 553.8125,783.2263 553.7188,783.07 C553.5625,782.8044 553.2813,782.6638 552.9844,782.6638 C552.6875,782.6638 552.4844,782.7575 552.2656,783.07 L552.0938,782.9919 Z " fill="#000000"/><text fill="#000000" font-family="sans-serif" font-size="12" lengthAdjust="spacing" textLength="25" x="570.25" y="791.4743">Park</text><line style="stroke:#A80036;stroke-width:1.5;" x1="490.5" x2="642.5" y1="803.32" y2="803.32"/><text fill="#000000" font-family="sans-serif" font-size="11" lengthAdjust="spacing" textLength="51" x="495.5" y="817.5304">-String id</text><text fill="#000000" font-family="sans-serif" font-size="11" lengthAdjust="spacing" textLength="96" x="495.5" y="830.3351">-int maxCapacity</text><text fill="#000000" font-family="sans-serif" font-size="11" lengthAdjust="spacing" textLength="105" x="495.5" y="843.1398">-int actualCapacity</text><text fill="#000000" font-family="sans-serif" font-size="11" lengthAdjust="spacing" textLength="133" x="495.5" y="855.9445">-int maxChargingPlaces</text><text fill="#000000" font-family="sans-serif" font-size="11" lengthAdjust="spacing" textLength="142" x="495.5" y="868.7492">-int actualChargingPlaces</text><text fill="#000000" font-family="sans-serif" font-size="11" lengthAdjust="spacing" textLength="57" x="495.5" y="881.5539">-int power</text><text fill="#000000" font-family="sans-serif" font-size="11" lengthAdjust="spacing" textLength="90" x="495.5" y="894.3586">-int pharmacyID</text><!--MD5=[fff5db4abcb6eec6574b9ea9c3ee0eae]
class Delivery--><rect codeLine="122" fill="#FEFECE" filter="url(#f1pxuqtnzza1dr)" height="91.2188" id="Delivery" style="stroke:#A80036;stroke-width:1.5;" width="158" x="761" y="705.82"/><ellipse cx="810.75" cy="721.82" fill="#ADD1B2" rx="11" ry="11" style="stroke:#A80036;stroke-width:1.0;"/><path d="M813.0938,717.4919 C812.1563,717.0544 811.5625,716.9138 810.6875,716.9138 C808.0625,716.9138 806.0625,718.9919 806.0625,721.7106 L806.0625,722.8356 C806.0625,725.4138 808.1719,727.3044 811.0625,727.3044 C812.2813,727.3044 813.4375,727.0075 814.1875,726.4606 C814.7656,726.0544 815.0938,725.6013 815.0938,725.2106 C815.0938,724.7575 814.7031,724.3669 814.2344,724.3669 C814.0156,724.3669 813.8125,724.445 813.625,724.6325 C813.1719,725.1169 813.1719,725.1169 812.9844,725.2106 C812.5625,725.4763 811.875,725.6013 811.1094,725.6013 C809.0625,725.6013 807.7656,724.5075 807.7656,722.8044 L807.7656,721.7106 C807.7656,719.9294 809.0156,718.6169 810.75,718.6169 C811.3281,718.6169 811.9375,718.7731 812.4063,719.0231 C812.8906,719.3044 813.0625,719.5231 813.1563,719.9294 C813.2188,720.3356 813.25,720.4606 813.3906,720.5856 C813.5313,720.7263 813.7656,720.8356 813.9844,720.8356 C814.25,720.8356 814.5156,720.695 814.6875,720.4763 C814.7969,720.32 814.8281,720.1325 814.8281,719.7106 L814.8281,718.2888 C814.8281,717.8513 814.8125,717.7263 814.7188,717.57 C814.5625,717.3044 814.2813,717.1638 813.9844,717.1638 C813.6875,717.1638 813.4844,717.2575 813.2656,717.57 L813.0938,717.4919 Z " fill="#000000"/><text fill="#000000" font-family="sans-serif" font-size="12" lengthAdjust="spacing" textLength="50" x="831.25" y="725.9743">Delivery</text><line style="stroke:#A80036;stroke-width:1.5;" x1="762" x2="918" y1="737.82" y2="737.82"/><text fill="#000000" font-family="sans-serif" font-size="11" lengthAdjust="spacing" textLength="51" x="767" y="752.0304">-String id</text><text fill="#000000" font-family="sans-serif" font-size="11" lengthAdjust="spacing" textLength="146" x="767" y="764.8351">-double necessaryEnergy</text><text fill="#000000" font-family="sans-serif" font-size="11" lengthAdjust="spacing" textLength="95" x="767" y="777.6398">-double distance</text><text fill="#000000" font-family="sans-serif" font-size="11" lengthAdjust="spacing" textLength="85" x="767" y="790.4445">-double weight</text><!--MD5=[bd708f2371c655af07b49ddbdb30848a]
link Client to Address--><path codeLine="138" d="M622.746,365.465 C641.291,381.264 662.486,398.249 683,412.32 C715.007,434.273 753.124,455.37 783.667,471.175 " fill="none" id="Client-Address" style="stroke:#A80036;stroke-width:1.0;"/><polygon fill="#000000" points="696.679,406.6316,690.7327,399.2092,687.5055,404.1218,696.679,406.6316" style="stroke:#000000;stroke-width:1.0;"/><text fill="#000000" font-family="sans-serif" font-size="13" lengthAdjust="spacing" textLength="24" x="701.5" y="408.3869">Has</text><text fill="#000000" font-family="sans-serif" font-size="13" lengthAdjust="spacing" textLength="8" x="630.465" y="384.9497">1</text><text fill="#000000" font-family="sans-serif" font-size="13" lengthAdjust="spacing" textLength="8" x="767.9368" y="480.7444">1</text><!--MD5=[0748050afd2139cbb3c9faec3f892ae9]
link Client to CreditCard--><path codeLine="139" d="M622.769,283.359 C667.422,257.538 730.257,221.203 776.691,194.351 " fill="none" id="Client-CreditCard" style="stroke:#A80036;stroke-width:1.0;"/><polygon fill="#000000" points="696.8284,211.3834,687.527,213.3672,690.4695,218.4555,696.8284,211.3834" style="stroke:#000000;stroke-width:1.0;"/><text fill="#000000" font-family="sans-serif" font-size="13" lengthAdjust="spacing" textLength="24" x="701.5" y="218.3869">Has</text><text fill="#000000" font-family="sans-serif" font-size="13" lengthAdjust="spacing" textLength="8" x="630.491" y="292.3239">1</text><text fill="#000000" font-family="sans-serif" font-size="13" lengthAdjust="spacing" textLength="8" x="760.9084" y="211.4462">1</text><!--MD5=[b25e04a5aed6ca08716b8f390ea19208]
link Client to Invoice--><path codeLine="140" d="M603.463,250.097 C636.632,197.354 691.247,126.864 761,95.32 C958.52,6 1226.15,75.846 1341.61,113.849 " fill="none" id="Client-Invoice" style="stroke:#A80036;stroke-width:1.0;"/><polygon fill="#000000" points="962.4169,42.9788,952.9887,41.7305,954.0556,47.5108,962.4169,42.9788" style="stroke:#000000;stroke-width:1.0;"/><text fill="#000000" font-family="sans-serif" font-size="13" lengthAdjust="spacing" textLength="58" x="966.5" y="48.3869">Receives</text><text fill="#000000" font-family="sans-serif" font-size="13" lengthAdjust="spacing" textLength="8" x="599.0683" y="239.2372">1</text><text fill="#000000" font-family="sans-serif" font-size="13" lengthAdjust="spacing" textLength="16" x="1317.9915" y="124.3985">1..</text><!--MD5=[21ac1e674ffa00cb5fcd6cc073dbc52c]
link Client to Cart--><path codeLine="141" d="M622.769,307.788 C667.887,301.639 731.568,292.961 778.137,286.614 " fill="none" id="Client-Cart" style="stroke:#A80036;stroke-width:1.0;"/><polygon fill="#000000" points="697.4542,284.2112,688.0951,282.5206,688.8888,288.3446,697.4542,284.2112" style="stroke:#000000;stroke-width:1.0;"/><text fill="#000000" font-family="sans-serif" font-size="13" lengthAdjust="spacing" textLength="24" x="701.5" y="289.3869">Has</text><text fill="#000000" font-family="sans-serif" font-size="13" lengthAdjust="spacing" textLength="8" x="630.491" y="319.8828">1</text><text fill="#000000" font-family="sans-serif" font-size="13" lengthAdjust="spacing" textLength="16" x="754.4957" y="300.393">1..</text><!--MD5=[3451170ed356d35d92157e8060a0a232]
link Cart to Product--><path codeLine="143" d="M901.804,260.118 C994.184,236.008 1173.17,203.396 1306,266.32 C1328,276.74 1346.5,295.235 1361.04,314.285 " fill="none" id="Cart-Product" style="stroke:#A80036;stroke-width:1.0;"/><polygon fill="#000000" points="1116.9656,221.4721,1108.327,217.4939,1107.6385,223.3313,1116.9656,221.4721" style="stroke:#000000;stroke-width:1.0;"/><text fill="#000000" font-family="sans-serif" font-size="13" lengthAdjust="spacing" textLength="24" x="1121" y="225.3869">Has</text><text fill="#000000" font-family="sans-serif" font-size="13" lengthAdjust="spacing" textLength="8" x="909.4126" y="270.9312">1</text><text fill="#000000" font-family="sans-serif" font-size="13" lengthAdjust="spacing" textLength="16" x="1339.9584" y="303.4457">0..</text><!--MD5=[30665112db635f0301e27e62817eda06]
link Cart to ClientOrder--><path codeLine="144" d="M901.667,298.88 C938.562,311.486 986.587,328.079 1029,343.32 C1040.61,347.492 1052.97,352.031 1064.84,356.435 " fill="none" id="Cart-ClientOrder" style="stroke:#A80036;stroke-width:1.0;"/><polygon fill="#000000" points="961.2153,308.5496,953.6629,302.7693,951.7077,308.3124,961.2153,308.5496" style="stroke:#000000;stroke-width:1.0;"/><text fill="#000000" font-family="sans-serif" font-size="13" lengthAdjust="spacing" textLength="60" x="965.5" y="311.3869">Generate</text><text fill="#000000" font-family="sans-serif" font-size="13" lengthAdjust="spacing" textLength="8" x="909.6702" y="314.3496">1</text><text fill="#000000" font-family="sans-serif" font-size="13" lengthAdjust="spacing" textLength="8" x="1048.8377" y="366.6573">1</text><!--MD5=[4382adeabf5e2e1a14ac4a22d507e16e]
link ClientOrder to Product--><path codeLine="146" d="M1188.32,379.32 C1232.17,379.32 1291.2,379.32 1335.53,379.32 " fill="none" id="ClientOrder-Product" style="stroke:#A80036;stroke-width:1.0;"/><polygon fill="#000000" points="1255.5,370.8864,1246.4549,367.9475,1246.4549,373.8253,1255.5,370.8864" style="stroke:#000000;stroke-width:1.0;"/><text fill="#000000" font-family="sans-serif" font-size="13" lengthAdjust="spacing" textLength="24" x="1259.5" y="375.3869">Has</text><text fill="#000000" font-family="sans-serif" font-size="13" lengthAdjust="spacing" textLength="8" x="1195.9304" y="392.283">1</text><text fill="#000000" font-family="sans-serif" font-size="13" lengthAdjust="spacing" textLength="16" x="1312.1081" y="392.1861">1..</text><!--MD5=[4843da366f67e4df9668d7c8b6610c18]
link ClientOrder to Invoice--><path codeLine="147" d="M1188.32,324.337 C1234.2,282.859 1296.69,226.362 1341.59,185.771 " fill="none" id="ClientOrder-Invoice" style="stroke:#A80036;stroke-width:1.0;"/><polygon fill="#000000" points="1232.709,208.5333,1224.0285,212.4191,1227.9703,216.7792,1232.709,208.5333" style="stroke:#000000;stroke-width:1.0;"/><text fill="#000000" font-family="sans-serif" font-size="13" lengthAdjust="spacing" textLength="67" x="1238" y="216.3869">Generates</text><text fill="#000000" font-family="sans-serif" font-size="13" lengthAdjust="spacing" textLength="8" x="1195.9304" y="330.9426">1</text><text fill="#000000" font-family="sans-serif" font-size="13" lengthAdjust="spacing" textLength="8" x="1326.0447" y="205.004">1</text><!--MD5=[0ae4e3be80761dbc176b3d01b8ab98e4]
link Pharmacy to Park--><path codeLine="149" d="M381.318,794.073 C414.25,801.627 454.568,810.875 489.078,818.791 " fill="none" id="Pharmacy-Park" style="stroke:#A80036;stroke-width:1.0;"/><polygon fill="#000000" points="420.8734,793.0043,412.7144,788.1175,411.4002,793.8466,420.8734,793.0043" style="stroke:#000000;stroke-width:1.0;"/><text fill="#000000" font-family="sans-serif" font-size="13" lengthAdjust="spacing" textLength="24" x="425" y="796.3869">Has</text><text fill="#000000" font-family="sans-serif" font-size="13" lengthAdjust="spacing" textLength="8" x="388.8997" y="808.5584">1</text><text fill="#000000" font-family="sans-serif" font-size="13" lengthAdjust="spacing" textLength="8" x="473.5719" y="829.9564">1</text><!--MD5=[737ca6dd1a667cd849e932d7cf955580]
link Pharmacy to Product--><path codeLine="150" d="M334.368,818.571 C368.078,888.024 449.399,1025.32 565.5,1025.32 C565.5,1025.32 565.5,1025.32 1127.5,1025.32 C1252.54,1025.32 1351.55,608.542 1385.67,444.518 " fill="none" id="Pharmacy-Product" style="stroke:#A80036;stroke-width:1.0;"/><polygon fill="#000000" points="830.2107,1015.2103,820.7038,1015.4735,822.6741,1021.0113,830.2107,1015.2103" style="stroke:#000000;stroke-width:1.0;"/><text fill="#000000" font-family="sans-serif" font-size="13" lengthAdjust="spacing" textLength="24" x="834.5" y="1021.3869">Has</text><text fill="#000000" font-family="sans-serif" font-size="13" lengthAdjust="spacing" textLength="8" x="328.9273" y="838.9404">1</text><text fill="#000000" font-family="sans-serif" font-size="13" lengthAdjust="spacing" textLength="16" x="1367.4188" y="464.1077">1..</text><!--MD5=[0643aaab1f96e564b90d0ad5c3af18e6]
link Pharmacy to Courier--><path codeLine="151" d="M381.318,749.814 C411.374,736.026 447.582,719.415 479.912,704.584 " fill="none" id="Pharmacy-Courier" style="stroke:#A80036;stroke-width:1.0;"/><polygon fill="#000000" points="420.5446,707.8016,411.0979,708.9018,413.5488,714.2443,420.5446,707.8016" style="stroke:#000000;stroke-width:1.0;"/><text fill="#000000" font-family="sans-serif" font-size="13" lengthAdjust="spacing" textLength="24" x="425" y="714.3869">Has</text><text fill="#000000" font-family="sans-serif" font-size="13" lengthAdjust="spacing" textLength="8" x="388.8997" y="759.4586">1</text><text fill="#000000" font-family="sans-serif" font-size="13" lengthAdjust="spacing" textLength="16" x="456.0789" y="720.5109">1..</text><!--MD5=[89baec1bfb4a213750f7c61516e0a0f1]
link Pharmacy to Address--><path codeLine="152" d="M337.539,740.305 C364.058,693.932 414.669,617.756 480,577.32 C575.506,518.208 709.375,503.035 783.716,499.325 " fill="none" id="Pharmacy-Address" style="stroke:#A80036;stroke-width:1.0;"/><polygon fill="#000000" points="556.3993,503.5103,547.0442,505.2228,549.8375,510.3946,556.3993,503.5103" style="stroke:#000000;stroke-width:1.0;"/><text fill="#000000" font-family="sans-serif" font-size="13" lengthAdjust="spacing" textLength="24" x="561" y="510.3869">Has</text><text fill="#000000" font-family="sans-serif" font-size="13" lengthAdjust="spacing" textLength="8" x="332.5535" y="729.353">1</text><text fill="#000000" font-family="sans-serif" font-size="13" lengthAdjust="spacing" textLength="8" x="767.9921" y="512.5011">1</text><!--MD5=[54d578fb0508ace1f5af24263b5e5dc0]
link Pharmacy to Vehicle--><path codeLine="153" d="M348.065,818.449 C377.775,852.45 425.956,899.297 480,919.32 C681.415,993.9437 938.881,907.399 1058.65,857.608 " fill="none" id="Pharmacy-Vehicle" style="stroke:#A80036;stroke-width:1.0;"/><polygon fill="#000000" points="697.4924,936.1615,688.6228,932.7294,688.2993,938.5983,697.4924,936.1615" style="stroke:#000000;stroke-width:1.0;"/><text fill="#000000" font-family="sans-serif" font-size="13" lengthAdjust="spacing" textLength="24" x="701.5" y="940.3869">Has</text><text fill="#000000" font-family="sans-serif" font-size="13" lengthAdjust="spacing" textLength="8" x="345.0641" y="838.7966">1</text><text fill="#000000" font-family="sans-serif" font-size="13" lengthAdjust="spacing" textLength="16" x="1034.828" y="873.5964">1..</text><!--MD5=[f03ebb71f36b9f67845ea5d0d1209a09]
link Product to Stock--><path codeLine="155" d="M1463.26,379.32 C1494.59,379.32 1532.05,379.32 1561.86,379.32 " fill="none" id="Product-Stock" style="stroke:#A80036;stroke-width:1.0;"/><polygon fill="#000000" points="1503,370.8864,1493.9549,367.9475,1493.9549,373.8253,1503,370.8864" style="stroke:#000000;stroke-width:1.0;"/><text fill="#000000" font-family="sans-serif" font-size="13" lengthAdjust="spacing" textLength="24" x="1507" y="375.3869">Has</text><text fill="#000000" font-family="sans-serif" font-size="13" lengthAdjust="spacing" textLength="8" x="1471.0948" y="392.283">1</text><text fill="#000000" font-family="sans-serif" font-size="13" lengthAdjust="spacing" textLength="8" x="1546.1146" y="392.4299">1</text><!--MD5=[8aaadde0a51a6974a75b41b6a40c57cb]
link Administrator to Pharmacy--><path codeLine="157" d="M94.7775,587.174 C138.631,625.437 219.376,695.888 269.963,740.025 " fill="none" id="Administrator-Pharmacy" style="stroke:#A80036;stroke-width:1.0;"/><polygon fill="#000000" points="157.7675,632.1736,152.8842,624.0125,149.0198,628.4415,157.7675,632.1736" style="stroke:#000000;stroke-width:1.0;"/><text fill="#000000" font-family="sans-serif" font-size="13" lengthAdjust="spacing" textLength="57" x="163" y="633.3869">Manages</text><text fill="#000000" font-family="sans-serif" font-size="13" lengthAdjust="spacing" textLength="8" x="92.8538" y="606.7917">1</text><text fill="#000000" font-family="sans-serif" font-size="13" lengthAdjust="spacing" textLength="16" x="245.0131" y="729.3182">1..</text><!--MD5=[a7d58535b33acf27ee1731a939cfd56a]
link Delivery to ClientOrder--><path codeLine="159" d="M901.447,705.626 C907.621,700.053 913.599,694.232 919,688.32 C988.848,611.863 1052.28,509.817 1089.89,444.321 " fill="none" id="Delivery-ClientOrder" style="stroke:#A80036;stroke-width:1.0;"/><polygon fill="#000000" points="977.4246,537.831,969.7502,543.4483,974.5177,546.8864,977.4246,537.831" style="stroke:#000000;stroke-width:1.0;"/><text fill="#000000" font-family="sans-serif" font-size="13" lengthAdjust="spacing" textLength="24" x="983.5" y="546.3869">Has</text><text fill="#000000" font-family="sans-serif" font-size="13" lengthAdjust="spacing" textLength="8" x="901.8845" y="694.8737">1</text><text fill="#000000" font-family="sans-serif" font-size="13" lengthAdjust="spacing" textLength="16" x="1069.2896" y="463.8903">1..</text><!--MD5=[6417524033e8d7701ce344d7f1d9e5eb]
link Delivery to Vehicle--><path codeLine="160" d="M919.117,772.188 C962.874,783.877 1016.87,798.301 1058.66,809.463 " fill="none" id="Delivery-Vehicle" style="stroke:#A80036;stroke-width:1.0;"/><polygon fill="#000000" points="958.8306,772.1768,950.8504,767.0031,949.3335,772.6818,958.8306,772.1768" style="stroke:#000000;stroke-width:1.0;"/><text fill="#000000" font-family="sans-serif" font-size="13" lengthAdjust="spacing" textLength="65" x="963" y="775.3869">Made with</text><text fill="#000000" font-family="sans-serif" font-size="13" lengthAdjust="spacing" textLength="8" x="927.0391" y="786.9546">1</text><text fill="#000000" font-family="sans-serif" font-size="13" lengthAdjust="spacing" textLength="8" x="1042.8025" y="820.4232">1</text><!--MD5=[7471b15d97b16c1e8744ea00ac81bc31]
link Courier to Delivery--><path codeLine="162" d="M653.032,692.413 C687.538,703.343 727.083,715.869 760.811,726.553 " fill="none" id="Courier-Delivery" style="stroke:#A80036;stroke-width:1.0;"/><polygon fill="#000000" points="692.7666,695.3963,685.0312,689.8632,683.2563,695.4666,692.7666,695.3963" style="stroke:#000000;stroke-width:1.0;"/><text fill="#000000" font-family="sans-serif" font-size="13" lengthAdjust="spacing" textLength="33" x="697" y="698.3869">Does</text><text fill="#000000" font-family="sans-serif" font-size="13" lengthAdjust="spacing" textLength="8" x="661.095" y="707.5473">1</text><text fill="#000000" font-family="sans-serif" font-size="13" lengthAdjust="spacing" textLength="8" x="744.882" y="736.97">1</text><!--MD5=[edc107c0a572352bcd12c9afaba4390b]
link Administrator to User--><path codeLine="164" d="M116.809,533.77 C225.536,483.195 478.788,386.813 653,489.32 C676.663,503.243 663.65,523.843 683,543.32 C712.477,572.99 754.042,595.774 786.856,610.718 " fill="none" id="Administrator-User" style="stroke:#A80036;stroke-width:1.0;"/><polygon fill="#000000" points="421.9674,435.4569,413.3166,431.5052,412.646,437.3446,421.9674,435.4569" style="stroke:#000000;stroke-width:1.0;"/><text fill="#000000" font-family="sans-serif" font-size="13" lengthAdjust="spacing" textLength="22" x="426" y="439.3869">Is a</text><text fill="#000000" font-family="sans-serif" font-size="13" lengthAdjust="spacing" textLength="8" x="120.9499" y="522.5772">1</text><text fill="#000000" font-family="sans-serif" font-size="13" lengthAdjust="spacing" textLength="8" x="771.1773" y="621.0054">1</text><!--MD5=[9a8dc34b38f85b9f3fcdb440f4bffc6a]
link Client to User--><path codeLine="165" d="M616.902,380.361 C628.759,396.04 641.358,412.758 653,428.32 C677.176,460.634 732.381,545.867 761,574.32 C768.85,582.125 777.837,589.694 786.853,596.63 " fill="none" id="Client-User" style="stroke:#A80036;stroke-width:1.0;"/><polygon fill="#000000" points="696.5894,466.8178,693.3114,457.89,688.6898,461.5218,696.5894,466.8178" style="stroke:#000000;stroke-width:1.0;"/><text fill="#000000" font-family="sans-serif" font-size="13" lengthAdjust="spacing" textLength="22" x="702.5" y="467.3869">Is a</text><text fill="#000000" font-family="sans-serif" font-size="13" lengthAdjust="spacing" textLength="8" x="613.6872" y="399.9345">1</text><text fill="#000000" font-family="sans-serif" font-size="13" lengthAdjust="spacing" textLength="8" x="771.1739" y="588.0087">1</text><!--MD5=[771c3993b003aea4e1f6128d90cd4122]
link Courier to User--><path codeLine="166" d="M653.032,654.609 C696.864,649.12 748.828,642.612 786.668,637.873 " fill="none" id="Courier-User" style="stroke:#A80036;stroke-width:1.0;"/><polygon fill="#000000" points="698.4612,635.2651,689.1211,633.4729,689.8515,639.3052,698.4612,635.2651" style="stroke:#000000;stroke-width:1.0;"/><text fill="#000000" font-family="sans-serif" font-size="13" lengthAdjust="spacing" textLength="22" x="702.5" y="640.3869">Is a</text><text fill="#000000" font-family="sans-serif" font-size="13" lengthAdjust="spacing" textLength="8" x="661.095" y="666.3763">1</text><text fill="#000000" font-family="sans-serif" font-size="13" lengthAdjust="spacing" textLength="8" x="770.964" y="651.8094">1</text><!--MD5=[4bc09d3f92b1a5b926b2724372eae24a]
link Client to ClientOrder--><path codeLine="168" d="M622.692,327.625 C661.254,335.791 714.038,346.112 761,352.32 C867.471,366.395 992.481,373.661 1064.98,376.969 " fill="none" id="Client-ClientOrder" style="stroke:#A80036;stroke-width:1.0;"/><text fill="#000000" font-family="sans-serif" font-size="13" lengthAdjust="spacing" textLength="34" x="823" y="348.3869">Has&gt;</text><text fill="#000000" font-family="sans-serif" font-size="13" lengthAdjust="spacing" textLength="8" x="630.4041" y="342.2614">1</text><text fill="#000000" font-family="sans-serif" font-size="13" lengthAdjust="spacing" textLength="16" x="1040.9418" y="389.6602">1..</text><!--MD5=[a3f99ac5d2e59c47565c788ea928156b]
@startuml
skinparam classAttributeIconSize 0
hide methods
left to right direction

class Address {
  -double latitude
  -double longitude
  -String street
  -int doorNumber
  -String zipCode
  -String locality
}

class Administrator {
  -String name
}

class User {
  -String email
  -String password
  -String role
}

class Client {
  -int idClient
  -String name
  -String email
  -int nif
  -int numCredits
  -double latitude
  -double longitude
}
  
class Courier {
  -int idCourier
  -String name
  -int NIF
  -long NSS
  -double maxWeightCapacity
  -double weight
  -int pharmacyID
  -String email
}
  
class Cart {
  -double finalPrice
  -double finalWeight
  -List productsToBuy
}
  
class CreditCard {
  -long cardNumber
  -int monthExpiration
  -int yearExpiration
  -int ccv
}
  
class ClientOrder {
  -int orderID
  -Date dateOrder
  -double finalPrice
  -double finalWeight
  -int status
  -int clientId
  -int deliveryId
}
  


class Pharmacy {
  -String id
  -String name
  -int quantityScooters
  }

class Vehicle {
  -String id
  -String licencePlate
  -double maxBattery
  -double actualBattery
  -int status
  -int isCharging
  -double enginePower
  -double ah_battery
  -double v_battery
  -double weight
  -int idPharmacy
  -int typeVehicle
  }

class Invoice {
  -String number
  -String date
  -double finalPrice
  }

class Stock {
  -String productID
  -int quantity
}

class Product {
  -String name
  -String description
  -String price 
  -double weight
  -double pharmacyID
  -int id
  -int quantityStock
}

class Park {
  -String id
  -int maxCapacity
  -int actualCapacity
  -int maxChargingPlaces
  -int actualChargingPlaces
  -int power
  -int pharmacyID
}

class Delivery {
  -String id
  -double necessaryEnergy
  -double distance
  -double weight
}
  
class Invoice {
  -int id
  -Date dateInvoice
  -double finalPrice
  -int clientID
  -int idOrder
}
  
  
Client "1" - - "1" Address: Has >
Client "1" - - "1" CreditCard: Has >
Client "1" - - "1.." Invoice: Receives >
Client "1" - - "1.." Cart: Has >

Cart "1" - - "0.." Product: Has >
Cart "1" - - "1" ClientOrder: Generate >

ClientOrder "1" - - "1.." Product: Has >
ClientOrder "1" - - "1" Invoice: Generates >
  
Pharmacy "1" - - "1" Park: Has >
Pharmacy "1" - - "1.." Product: Has >
Pharmacy "1" - - "1.." Courier: Has >
Pharmacy "1" - - "1" Address: Has >
Pharmacy "1" - - "1.." Vehicle: Has >

Product "1" - - "1" Stock: Has > 

Administrator "1" - - "1.." Pharmacy: Manages >

Delivery "1" - - "1.." ClientOrder: Has >
Delivery "1" - - "1" Vehicle: Made with >

Courier "1" - - "1" Delivery: Does >
  
Administrator "1" - - "1" User: Is a >
Client "1" - - "1" User: Is a >
Courier "1" - - "1" User: Is a >

Client "1" - - "1.." ClientOrder: Has>
@enduml

PlantUML version 1.2021.01beta3(Unknown compile time)
(GPL source distribution)
Java Runtime: Java(TM) SE Runtime Environment
JVM: Java HotSpot(TM) 64-Bit Server VM
Default Encoding: UTF-8
Language: en
Country: US
--></g></svg>