<?xml version="1.0" encoding="utf-8"?>
<!-- Generator: Adobe Illustrator 19.1.1, SVG Export Plug-In . SVG Version: 6.00 Build 0)  -->
<svg version="1.1" id="Layer_1" xmlns="http://www.w3.org/2000/svg" xmlns:xlink="http://www.w3.org/1999/xlink" x="0px" y="0px"
	 viewBox="0 0 960 560" style="enable-background:new 0 0 960 560;" xml:space="preserve">
<style type="text/css">
	.st0{opacity:0.31;fill:#FCF5E8;}
	.st1{fill:url(#SVGID_1_);}
	.st2{fill:#23A9E0;}
	.st3{fill:#FF3300;}
	.st4{fill:#12CF9C;}
	.st5{fill:#FDFDFD;}
	.st6{fill:#E6E7E8;}
	.st7{fill:#0CA68A;}
	.st8{fill:#81C2BD;}
	.st9{fill:#80C2BD;}
	.st10{fill:#E6E7E9;}
	.st11{fill:#666666;}
	.st12{fill:#FF6600;}
</style>
<rect class="st0" width="960" height="560"/>
<g>
	<linearGradient id="SVGID_1_" gradientUnits="userSpaceOnUse" x1="123.8424" y1="220.547" x2="621.0061" y2="220.547">
		<stop  offset="5.555556e-002" style="stop-color:#FFCC00"/>
		<stop  offset="0.371" style="stop-color:#FF9F00"/>
		<stop  offset="0.4391" style="stop-color:#FF9900"/>
		<stop  offset="0.5717" style="stop-color:#FF6600"/>
		<stop  offset="0.7509" style="stop-color:#FF3300"/>
		<stop  offset="0.9516" style="stop-color:#FF3300"/>
	</linearGradient>
	<path class="st1" d="M569.3,169.4c-12.6-0.1-25.2-0.2-37.7,0.1c-3.9,0.1-4.9-1.1-4.8-4.9c0.2-13,0.2-26.1,0.1-39.1
		c-0.3-25.4-20.6-47.7-45.1-49.8c-28-2.4-51.7,15.2-56.1,42c-2.4,14.7-0.8,29.6-0.8,44.4c0,2.3-0.1,4-0.7,5.2
		c-74.9-0.6-71.2-0.4-149.9-0.5c-3.3,0-7.3-0.2-9.9,0.6c-5,1.6-7,5.4-6.9,8.6c0.1,3.3,2.3,6.8,6.4,7.5c3.5,0.6,7.4,0.8,11.2,0.8
		c23.6,0,47.1,0,70.7,0c-4.6,4.6-8.4,10.1-11,16.1c-3.1,0-6.3-0.1-9.4-0.1c-44-0.1-88-0.1-132-0.2c-2.1,0-4.4,0.2-6.2,0.2
		c-6.9,0-12,4.7-11.8,9.6c0.1,4.6,7.8,8.5,12,8.6c39,0.7,78,0.4,116.9,0.4c4.6,0,9.3-0.1,13.7,0.3c5.8,0.5,9.7,2,9.6,7.3
		c0.1,7-5.4,7.6-9.2,7.9c-3,0.3-6.6,0.4-9.9,0.4c-55.3-0.1-110.7-0.1-166-0.2c-4.2,0-8.8-0.6-12.4,0.9c-2.8,1.2-6.1,5.1-6.2,8
		c-0.1,2.8,1.9,5.9,5.8,8.3c3,1.6,7.3,1.3,11,1.3c67.2-0.2,134.3-0.5,201.5-0.6c6.8,8.2,16.1,14.3,26.9,17.1
		c-50,0.1-99.9-0.1-149.9-0.2c-2.5,0-5,0-7.5,0c-6.6-0.1-12.6,1.8-11.5,9.4c0.8,5.4,7.5,7.7,11.6,7.7c40.2,0.5,80.5,0.3,120.7,0.2
		c2.5,0,5-0.1,7.5,0c3.5,0.2,17.4-1.1,17.7,8.4c0.2,9.9-13.7,8-17.5,8.1c-8.1,0-25,0.2-37.7,0.5c-9.9,0.1-12,4.7-12.6,8.1
		c0.1,6.3,6.2,9.4,12.8,9.4c31,0,62-0.1,93.1-0.1c6.7,0,13.4,0.1,20.1,0.1c3.4,0,6.9,0.1,9.6,1.3c4.1,24.4,25,42.8,50.3,42.8
		c28.3,0,51-22.8,51.1-51.5c0.1-12.6,0.2-25.2-0.1-37.7c-0.1-3.8,0.9-5.1,4.8-4.9c7.2,0.3,14.4,0.1,21.6,0.1c5.4,0,10.8,0,16.2,0
		c28.8-0.1,51.7-22.8,51.7-51C620.9,192.1,598.2,169.6,569.3,169.4z"/>
	<path class="st2" d="M421.5,183.1"/>
	<path class="st3" d="M376,180.4c6.6-1.1,12.8-0.4,19.2-0.5c11.2-0.2,22.5-0.3,33.7,0.1c4.9,0.2,6.5-1.1,6.4-6.3
		c-0.4-15.7-0.3-31.4-0.1-47.2c0.3-20.9,15.8-38.4,35.3-40.2c22.2-2,41.1,11.1,44.9,32.6c2.3,13,0.5,26.4,0.7,39.7
		c0.2,10.7,0,10.6-10.5,10.7c-12.1,0.2-24.2-0.7-36.3,0.6c-26.3,2.7-46,26-44.9,53.2c1.1,25.8,23.3,47.7,49,48.1
		c12.3,0.2,24.7,0.2,37,0c4.2-0.1,5.9,0.8,5.8,5.4c-0.3,12.8,0,25.6-0.1,38.4c-0.3,22.1-18,39.6-40,39.8c-22,0.2-40.3-17-40.8-39
		c-0.4-16.4-0.3-32.8,0-49.2c0.1-4.7-1.3-6.1-6-6c-16.2,0.3-32.3,0.3-48.5,0c-21-0.4-37-15.5-39.5-36.8
		c-2.2-18.6,11.1-37.5,29.9-42.6"/>
	<path class="st2" d="M420.7,183"/>
	<path class="st4" d="M527,251c-0.1-22.2-0.2-44.3-0.2-66.5c0-2.3-0.3-4.8,3.2-4.6c16.5,0.5,33.3-2.1,49.6,1.4
		c14.6,3.1,24.5,12.9,28.9,27.2c4.5,14.3,1.7,27.4-8.6,38.6c-5.3,4.7-11.6,6.1-18.5,6.1c-15.1,0-30.3,0-45.4,0
		C532.8,253.1,529.6,253.4,527,251z"/>
	<path class="st5" d="M440.5,200.9c7-13.7,18.9-20.1,33.6-20.8c12.5-0.7,25.1,0,37.7-0.2c3.7-0.1,4.5,1.3,4.4,4.7
		c-0.2,21.7-0.2,43.5-0.3,65.2c-1.5,3.3-4.6,3.2-7.5,3.2c-8.7,0.1-17.5,0.3-26.2,0c-22-1-42.3-21.9-43.1-44.1
		C439,206,439.8,203.4,440.5,200.9z"/>
	<path class="st6" d="M440.5,200.9c0.3,12.5,2.7,24,11.2,34.1c7.5,8.8,16.7,14.5,27.7,15.8c11,1.3,22.3,0.3,33.5,0.2
		c1,0,2.1-0.8,3.1-1.2c0.6,11.1,0.6,11.1-10.2,11.1c-11.4,0-22.9,0.5-34.2-0.3C442.8,258.7,425.5,225.1,440.5,200.9z"/>
	<path class="st7" d="M527,251c16.3,0,32.6-0.1,48.9,0.1c8.3,0.1,16.3-0.4,23.9-4c-6.8,8.6-15.9,13.1-26.6,13.5
		c-13.9,0.5-27.8,0.2-41.6,0.2C526,260.8,527.3,254.9,527,251z"/>
	<path class="st8" d="M554.8,184.1c9.2-0.3,18.4-0.7,27.2,2.4c3.5,1.2,7.4,3.1,6.1,7.4c-1.4,4.6-5.5,4.4-9.5,2.8
		c-10.2-4-20.9-1.4-31.3-2.1c-3.1-0.2-6.3-0.1-9.4,0c-3.5,0.1-6.4-1.1-6.8-4.9c-0.5-4.4,3.2-5.2,6.2-5.5
		C543.2,183.8,549,184.1,554.8,184.1z"/>
	<path class="st9" d="M605.2,214.1c0.2,3.3-0.7,5.8-4.6,6c-3.8,0.2-8.9-7.7-8.5-13.6c0.2-3.3,2-5.5,5.6-5.4
		C601.2,201.3,605.2,208.2,605.2,214.1z"/>
	<path class="st10" d="M493.9,194.4c-4.5,0-8.9,0-13.4,0c-2.5,0-4.4-0.9-4.7-3.7c-0.3-2.6,0.1-5,3.2-5.8c9.9-2.5,19.9-1.5,29.9-0.7
		c2.5,0.2,4.5,2.6,4,5.4c-0.5,2.7-2.1,4.9-5.5,4.8C502.9,194.4,498.4,194.4,493.9,194.4z"/>
</g>
<g>
	<path class="st11" d="M362.7,407.6c2.4,1.1,4.2,2.6,5.5,4.6c1.3,2,1.9,4.3,1.9,7c0,2.7-0.6,5-1.9,7c-1.3,2-3.1,3.5-5.5,4.6
		c-2.4,1.1-5.2,1.6-8.4,1.6h-8.4v10.7H339V406h15.3C357.5,406,360.3,406.5,362.7,407.6z M360.8,424.7c1.6-1.3,2.3-3.1,2.3-5.5
		c0-2.4-0.8-4.2-2.3-5.5c-1.6-1.3-3.8-1.9-6.8-1.9h-8.1v14.7h8.1C356.9,426.6,359.2,425.9,360.8,424.7z"/>
	<path class="st11" d="M402.7,417.6c2.2,2.1,3.2,5.2,3.2,9.3v16.2h-6.6v-15.4c0-2.5-0.6-4.3-1.7-5.6c-1.2-1.3-2.8-1.9-5-1.9
		c-2.4,0-4.4,0.7-5.8,2.2c-1.4,1.5-2.1,3.6-2.1,6.3v14.3h-6.6v-39.3h6.6v14.3c1.1-1.2,2.4-2.1,4.1-2.7s3.4-0.9,5.4-0.9
		C397.7,414.5,400.5,415.5,402.7,417.6z"/>
	<path class="st11" d="M436,417.5c2.2,2,3.3,5,3.3,9v16.6H433v-3.4c-0.8,1.2-2,2.2-3.5,2.8c-1.5,0.7-3.3,1-5.4,1s-4-0.4-5.6-1.1
		c-1.6-0.7-2.8-1.7-3.7-3c-0.9-1.3-1.3-2.7-1.3-4.4c0-2.5,0.9-4.6,2.8-6.1c1.9-1.5,4.9-2.3,8.9-2.3h7.3v-0.4c0-2-0.6-3.5-1.8-4.6
		c-1.2-1.1-2.9-1.6-5.3-1.6c-1.6,0-3.2,0.2-4.7,0.7c-1.5,0.5-2.8,1.2-3.9,2.1l-2.6-4.8c1.5-1.1,3.3-2,5.4-2.6
		c2.1-0.6,4.3-0.9,6.6-0.9C430.6,414.5,433.7,415.5,436,417.5z M429.9,437.5c1.3-0.8,2.2-1.8,2.7-3.3V431h-6.8
		c-3.8,0-5.7,1.3-5.7,3.8c0,1.2,0.5,2.2,1.4,2.9c1,0.7,2.3,1.1,4,1.1C427.1,438.7,428.6,438.3,429.9,437.5z"/>
	<path class="st11" d="M465.3,414.5v6.3c-0.6-0.1-1.1-0.2-1.5-0.2c-2.6,0-4.6,0.8-6,2.3c-1.4,1.5-2.2,3.7-2.2,6.5v13.7H449v-28.3
		h6.3v4.1C457.2,416,460.5,414.5,465.3,414.5z"/>
	<path class="st11" d="M516.4,417.6c2.1,2.1,3.1,5.2,3.1,9.3v16.2h-6.6v-15.4c0-2.5-0.5-4.3-1.6-5.6c-1.1-1.3-2.7-1.9-4.7-1.9
		c-2.2,0-4,0.7-5.4,2.2c-1.3,1.5-2,3.6-2,6.3v14.4h-6.6v-15.4c0-2.5-0.5-4.3-1.6-5.6c-1.1-1.3-2.7-1.9-4.7-1.9
		c-2.3,0-4.1,0.7-5.4,2.2c-1.3,1.4-2,3.6-2,6.3v14.4h-6.6v-28.3h6.3v3.6c1.1-1.3,2.4-2.2,4-2.9c1.6-0.7,3.4-1,5.3-1
		c2.1,0,4,0.4,5.6,1.2c1.6,0.8,2.9,2,3.9,3.5c1.2-1.5,2.7-2.6,4.5-3.5c1.8-0.8,3.9-1.2,6.1-1.2C511.5,414.5,514.3,415.5,516.4,417.6
		z"/>
	<path class="st11" d="M549.6,417.5c2.2,2,3.3,5,3.3,9v16.6h-6.3v-3.4c-0.8,1.2-2,2.2-3.5,2.8c-1.5,0.7-3.3,1-5.4,1s-4-0.4-5.6-1.1
		c-1.6-0.7-2.8-1.7-3.7-3c-0.9-1.3-1.3-2.7-1.3-4.4c0-2.5,0.9-4.6,2.8-6.1c1.9-1.5,4.9-2.3,8.9-2.3h7.3v-0.4c0-2-0.6-3.5-1.8-4.6
		c-1.2-1.1-2.9-1.6-5.3-1.6c-1.6,0-3.2,0.2-4.7,0.7c-1.5,0.5-2.8,1.2-3.9,2.1L528,418c1.5-1.1,3.3-2,5.4-2.6
		c2.1-0.6,4.3-0.9,6.6-0.9C544.2,414.5,547.4,415.5,549.6,417.5z M543.5,437.5c1.3-0.8,2.2-1.8,2.7-3.3V431h-6.8
		c-3.8,0-5.7,1.3-5.7,3.8c0,1.2,0.5,2.2,1.4,2.9c1,0.7,2.3,1.1,4,1.1C540.8,438.7,542.3,438.3,543.5,437.5z"/>
	<path class="st11" d="M568,441.6c-2.3-1.2-4.2-3-5.5-5.2s-2-4.7-2-7.5c0-2.8,0.7-5.3,2-7.5c1.3-2.2,3.1-3.9,5.4-5.1
		c2.3-1.2,5-1.9,7.9-1.9c2.8,0,5.2,0.6,7.3,1.7c2.1,1.1,3.7,2.8,4.7,4.9l-5.1,3c-0.8-1.3-1.8-2.3-3-2.9c-1.2-0.7-2.6-1-4-1
		c-2.5,0-4.5,0.8-6.1,2.4c-1.6,1.6-2.4,3.8-2.4,6.4c0,2.7,0.8,4.8,2.4,6.4c1.6,1.6,3.7,2.4,6.2,2.4c1.4,0,2.8-0.3,4-1
		c1.2-0.7,2.2-1.6,3-2.9l5.1,3c-1.1,2.1-2.7,3.8-4.8,4.9s-4.5,1.7-7.3,1.7C572.9,443.5,570.3,442.9,568,441.6z"/>
	<path class="st11" d="M621,414.8l-13.3,30.6c-1.2,3.1-2.7,5.2-4.5,6.5c-1.8,1.3-3.9,1.9-6.4,1.9c-1.4,0-2.8-0.2-4.2-0.7
		c-1.4-0.5-2.5-1.1-3.4-1.9l2.7-4.9c0.6,0.6,1.4,1.1,2.3,1.4c0.9,0.4,1.7,0.5,2.6,0.5c1.2,0,2.1-0.3,2.9-0.9c0.8-0.6,1.5-1.6,2.1-3
		l0.5-1.1l-12.3-28.4h6.9l8.9,20.9l9-20.9H621z"/>
</g>
<g>
	<path class="st12" d="M431.7,470.7h6.1c1.5,0,2.8,0.3,4,0.9c1.2,0.6,2.1,1.4,2.7,2.5c0.6,1.1,1,2.3,1,3.7s-0.3,2.6-1,3.7
		c-0.6,1.1-1.5,1.9-2.7,2.5c-1.2,0.6-2.5,0.9-4,0.9h-6.1V470.7z M437.7,482.5c1,0,1.9-0.2,2.7-0.6s1.4-1,1.8-1.7
		c0.4-0.7,0.6-1.6,0.6-2.5s-0.2-1.8-0.6-2.5s-1-1.3-1.8-1.7s-1.7-0.6-2.7-0.6h-3.4v9.6H437.7z"/>
	<path class="st12" d="M459.9,480.2h-8.4c0.1,0.8,0.5,1.4,1.2,1.9s1.4,0.7,2.3,0.7c1.2,0,2.1-0.4,2.9-1.2l1.3,1.5
		c-0.5,0.6-1.1,1-1.8,1.3c-0.7,0.3-1.6,0.4-2.5,0.4c-1.2,0-2.2-0.2-3.1-0.7c-0.9-0.5-1.6-1.1-2.1-1.9c-0.5-0.8-0.7-1.8-0.7-2.8
		c0-1,0.2-2,0.7-2.8c0.5-0.8,1.1-1.5,2-2c0.8-0.5,1.8-0.7,2.8-0.7c1,0,2,0.2,2.8,0.7c0.8,0.5,1.5,1.1,1.9,1.9s0.7,1.8,0.7,2.9
		C460,479.6,460,479.8,459.9,480.2z M452.6,476.6c-0.6,0.5-0.9,1.1-1,1.9h6.1c-0.1-0.8-0.4-1.4-1-1.9c-0.5-0.5-1.2-0.7-2-0.7
		C453.8,475.9,453.1,476.1,452.6,476.6z"/>
	<path class="st12" d="M464.4,469.9h2.5v14.8h-2.5V469.9z"/>
	<path class="st12" d="M472.3,471.8c-0.3-0.3-0.5-0.6-0.5-1.1s0.2-0.8,0.5-1.1c0.3-0.3,0.7-0.4,1.1-0.4c0.5,0,0.8,0.1,1.1,0.4
		s0.5,0.6,0.5,1c0,0.4-0.2,0.8-0.5,1.1c-0.3,0.3-0.7,0.5-1.1,0.5C473,472.3,472.6,472.1,472.3,471.8z M472.2,474h2.5v10.7h-2.5V474z
		"/>
	<path class="st12" d="M489.9,474l-4.6,10.7h-2.6l-4.6-10.7h2.6l3.3,7.9l3.4-7.9H489.9z"/>
	<path class="st12" d="M503.2,480.2h-8.4c0.1,0.8,0.5,1.4,1.2,1.9s1.4,0.7,2.3,0.7c1.2,0,2.1-0.4,2.9-1.2l1.3,1.5
		c-0.5,0.6-1.1,1-1.8,1.3c-0.7,0.3-1.6,0.4-2.5,0.4c-1.2,0-2.2-0.2-3.1-0.7c-0.9-0.5-1.6-1.1-2.1-1.9c-0.5-0.8-0.7-1.8-0.7-2.8
		c0-1,0.2-2,0.7-2.8c0.5-0.8,1.1-1.5,2-2c0.8-0.5,1.8-0.7,2.8-0.7c1,0,2,0.2,2.8,0.7c0.8,0.5,1.5,1.1,1.9,1.9s0.7,1.8,0.7,2.9
		C503.2,479.6,503.2,479.8,503.2,480.2z M495.8,476.6c-0.6,0.5-0.9,1.1-1,1.9h6.1c-0.1-0.8-0.4-1.4-1-1.9c-0.5-0.5-1.2-0.7-2-0.7
		C497,475.9,496.4,476.1,495.8,476.6z"/>
	<path class="st12" d="M513.8,473.9v2.4c-0.2,0-0.4-0.1-0.6-0.1c-1,0-1.7,0.3-2.3,0.9c-0.5,0.6-0.8,1.4-0.8,2.4v5.2h-2.5V474h2.4
		v1.6C510.7,474.5,512,473.9,513.8,473.9z"/>
	<path class="st12" d="M528.3,474l-5,11.5c-0.5,1.2-1,2-1.7,2.5c-0.7,0.5-1.5,0.7-2.4,0.7c-0.5,0-1.1-0.1-1.6-0.3
		c-0.5-0.2-0.9-0.4-1.3-0.7l1-1.8c0.2,0.2,0.5,0.4,0.8,0.5c0.3,0.1,0.7,0.2,1,0.2c0.4,0,0.8-0.1,1.1-0.3s0.5-0.6,0.8-1.1l0.2-0.4
		l-4.7-10.7h2.6l3.4,7.9l3.4-7.9H528.3z"/>
</g>
</svg>
