<?xml version="1.0" encoding="UTF-8" standalone="no"?><svg xmlns="http://www.w3.org/2000/svg" xmlns:xlink="http://www.w3.org/1999/xlink" contentScriptType="application/ecmascript" contentStyleType="text/css" height="565px" preserveAspectRatio="none" style="width:819px;height:565px;" version="1.1" viewBox="0 0 819 565" width="819px" zoomAndPan="magnify"><defs><filter height="300%" id="f1eo3p26tl0rdj" width="300%" x="-1" y="-1"><feGaussianBlur result="blurOut" stdDeviation="2.0"/><feColorMatrix in="blurOut" result="blurOut2" type="matrix" values="0 0 0 0 0 0 0 0 0 0 0 0 0 0 0 0 0 0 .4 0"/><feOffset dx="4.0" dy="4.0" in="blurOut2" result="blurOut3"/><feBlend in="SourceGraphic" in2="blurOut3" mode="normal"/></filter></defs><g><!--MD5=[8d07574b699a89d7536e5df2a99f42e3]
class CreatePharmacyController--><rect codeLine="1" fill="#FEFECE" filter="url(#f1eo3p26tl0rdj)" height="60.8047" id="CreatePharmacyController" style="stroke:#A80036;stroke-width:1.5;" width="798" x="7" y="116"/><ellipse cx="323.75" cy="132" fill="#ADD1B2" rx="11" ry="11" style="stroke:#A80036;stroke-width:1.0;"/><path d="M326.0938,127.6719 C325.1563,127.2344 324.5625,127.0938 323.6875,127.0938 C321.0625,127.0938 319.0625,129.1719 319.0625,131.8906 L319.0625,133.0156 C319.0625,135.5938 321.1719,137.4844 324.0625,137.4844 C325.2813,137.4844 326.4375,137.1875 327.1875,136.6406 C327.7656,136.2344 328.0938,135.7813 328.0938,135.3906 C328.0938,134.9375 327.7031,134.5469 327.2344,134.5469 C327.0156,134.5469 326.8125,134.625 326.625,134.8125 C326.1719,135.2969 326.1719,135.2969 325.9844,135.3906 C325.5625,135.6563 324.875,135.7813 324.1094,135.7813 C322.0625,135.7813 320.7656,134.6875 320.7656,132.9844 L320.7656,131.8906 C320.7656,130.1094 322.0156,128.7969 323.75,128.7969 C324.3281,128.7969 324.9375,128.9531 325.4063,129.2031 C325.8906,129.4844 326.0625,129.7031 326.1563,130.1094 C326.2188,130.5156 326.25,130.6406 326.3906,130.7656 C326.5313,130.9063 326.7656,131.0156 326.9844,131.0156 C327.25,131.0156 327.5156,130.875 327.6875,130.6563 C327.7969,130.5 327.8281,130.3125 327.8281,129.8906 L327.8281,128.4688 C327.8281,128.0313 327.8125,127.9063 327.7188,127.75 C327.5625,127.4844 327.2813,127.3438 326.9844,127.3438 C326.6875,127.3438 326.4844,127.4375 326.2656,127.75 L326.0938,127.6719 Z " fill="#000000"/><text fill="#000000" font-family="sans-serif" font-size="12" lengthAdjust="spacing" textLength="156" x="344.25" y="136.1543">CreatePharmacyController</text><line style="stroke:#A80036;stroke-width:1.5;" x1="8" x2="804" y1="148" y2="148"/><line style="stroke:#A80036;stroke-width:1.5;" x1="8" x2="804" y1="156" y2="156"/><text fill="#000000" font-family="sans-serif" font-size="11" lengthAdjust="spacing" textLength="786" x="13" y="170.2104">newPharmacy(name, quantityScooters, maxCapacity, actualCapacity, maxChargingPlaces, actualChargingPlaces, latitude,longitude, street)</text><!--MD5=[89951f15b3035ba7fa0b4465c808a54f]
class CreatePharmacyUI--><rect codeLine="7" fill="#FEFECE" filter="url(#f1eo3p26tl0rdj)" height="48" id="CreatePharmacyUI" style="stroke:#A80036;stroke-width:1.5;" width="141" x="335.5" y="7"/><ellipse cx="350.5" cy="23" fill="#ADD1B2" rx="11" ry="11" style="stroke:#A80036;stroke-width:1.0;"/><path d="M352.8437,18.6719 C351.9062,18.2344 351.3125,18.0938 350.4375,18.0938 C347.8125,18.0938 345.8125,20.1719 345.8125,22.8906 L345.8125,24.0156 C345.8125,26.5938 347.9219,28.4844 350.8125,28.4844 C352.0312,28.4844 353.1875,28.1875 353.9375,27.6406 C354.5156,27.2344 354.8437,26.7813 354.8437,26.3906 C354.8437,25.9375 354.4531,25.5469 353.9844,25.5469 C353.7656,25.5469 353.5625,25.625 353.375,25.8125 C352.9219,26.2969 352.9219,26.2969 352.7344,26.3906 C352.3125,26.6563 351.625,26.7813 350.8594,26.7813 C348.8125,26.7813 347.5156,25.6875 347.5156,23.9844 L347.5156,22.8906 C347.5156,21.1094 348.7656,19.7969 350.5,19.7969 C351.0781,19.7969 351.6875,19.9531 352.1562,20.2031 C352.6406,20.4844 352.8125,20.7031 352.9062,21.1094 C352.9687,21.5156 353,21.6406 353.1406,21.7656 C353.2812,21.9063 353.5156,22.0156 353.7344,22.0156 C354,22.0156 354.2656,21.875 354.4375,21.6563 C354.5469,21.5 354.5781,21.3125 354.5781,20.8906 L354.5781,19.4688 C354.5781,19.0313 354.5625,18.9063 354.4687,18.75 C354.3125,18.4844 354.0312,18.3438 353.7344,18.3438 C353.4375,18.3438 353.2344,18.4375 353.0156,18.75 L352.8437,18.6719 Z " fill="#000000"/><text fill="#000000" font-family="sans-serif" font-size="12" lengthAdjust="spacing" textLength="109" x="364.5" y="27.1543">CreatePharmacyUI</text><line style="stroke:#A80036;stroke-width:1.5;" x1="336.5" x2="475.5" y1="39" y2="39"/><line style="stroke:#A80036;stroke-width:1.5;" x1="336.5" x2="475.5" y1="47" y2="47"/><!--MD5=[57d9d5a4364337b3aab07181d717e4f0]
class PharmacyHandler--><rect codeLine="10" fill="#FEFECE" filter="url(#f1eo3p26tl0rdj)" height="73.6094" id="PharmacyHandler" style="stroke:#A80036;stroke-width:1.5;" width="152" x="74" y="257"/><ellipse cx="96.2" cy="273" fill="#ADD1B2" rx="11" ry="11" style="stroke:#A80036;stroke-width:1.0;"/><path d="M98.5437,268.6719 C97.6062,268.2344 97.0125,268.0938 96.1375,268.0938 C93.5125,268.0938 91.5125,270.1719 91.5125,272.8906 L91.5125,274.0156 C91.5125,276.5938 93.6219,278.4844 96.5125,278.4844 C97.7312,278.4844 98.8875,278.1875 99.6375,277.6406 C100.2156,277.2344 100.5437,276.7813 100.5437,276.3906 C100.5437,275.9375 100.1531,275.5469 99.6844,275.5469 C99.4656,275.5469 99.2625,275.625 99.075,275.8125 C98.6219,276.2969 98.6219,276.2969 98.4344,276.3906 C98.0125,276.6563 97.325,276.7813 96.5594,276.7813 C94.5125,276.7813 93.2156,275.6875 93.2156,273.9844 L93.2156,272.8906 C93.2156,271.1094 94.4656,269.7969 96.2,269.7969 C96.7781,269.7969 97.3875,269.9531 97.8562,270.2031 C98.3406,270.4844 98.5125,270.7031 98.6062,271.1094 C98.6687,271.5156 98.7,271.6406 98.8406,271.7656 C98.9812,271.9063 99.2156,272.0156 99.4344,272.0156 C99.7,272.0156 99.9656,271.875 100.1375,271.6563 C100.2469,271.5 100.2781,271.3125 100.2781,270.8906 L100.2781,269.4688 C100.2781,269.0313 100.2625,268.9063 100.1687,268.75 C100.0125,268.4844 99.7312,268.3438 99.4344,268.3438 C99.1375,268.3438 98.9344,268.4375 98.7156,268.75 L98.5437,268.6719 Z " fill="#000000"/><text fill="#000000" font-family="sans-serif" font-size="12" lengthAdjust="spacing" textLength="104" x="111.8" y="277.1543">PharmacyHandler</text><line style="stroke:#A80036;stroke-width:1.5;" x1="75" x2="225" y1="289" y2="289"/><line style="stroke:#A80036;stroke-width:1.5;" x1="75" x2="225" y1="297" y2="297"/><text fill="#000000" font-family="sans-serif" font-size="11" lengthAdjust="spacing" textLength="140" x="80" y="311.2104">addPharmacy(pharmacy)</text><text fill="#000000" font-family="sans-serif" font-size="11" lengthAdjust="spacing" textLength="127" x="80" y="324.0151">getPharmacyID(name)</text><!--MD5=[0f39e4cb6f03951afbf6d14bd2505654]
class Address--><rect codeLine="15" fill="#FEFECE" filter="url(#f1eo3p26tl0rdj)" height="86.4141" id="Address" style="stroke:#A80036;stroke-width:1.5;" width="83" x="491.5" y="446.5"/><ellipse cx="506.5" cy="462.5" fill="#ADD1B2" rx="11" ry="11" style="stroke:#A80036;stroke-width:1.0;"/><path d="M508.8437,458.1719 C507.9062,457.7344 507.3125,457.5938 506.4375,457.5938 C503.8125,457.5938 501.8125,459.6719 501.8125,462.3906 L501.8125,463.5156 C501.8125,466.0938 503.9219,467.9844 506.8125,467.9844 C508.0312,467.9844 509.1875,467.6875 509.9375,467.1406 C510.5156,466.7344 510.8437,466.2813 510.8437,465.8906 C510.8437,465.4375 510.4531,465.0469 509.9844,465.0469 C509.7656,465.0469 509.5625,465.125 509.375,465.3125 C508.9219,465.7969 508.9219,465.7969 508.7344,465.8906 C508.3125,466.1563 507.625,466.2813 506.8594,466.2813 C504.8125,466.2813 503.5156,465.1875 503.5156,463.4844 L503.5156,462.3906 C503.5156,460.6094 504.7656,459.2969 506.5,459.2969 C507.0781,459.2969 507.6875,459.4531 508.1562,459.7031 C508.6406,459.9844 508.8125,460.2031 508.9062,460.6094 C508.9687,461.0156 509,461.1406 509.1406,461.2656 C509.2812,461.4063 509.5156,461.5156 509.7344,461.5156 C510,461.5156 510.2656,461.375 510.4375,461.1563 C510.5469,461 510.5781,460.8125 510.5781,460.3906 L510.5781,458.9688 C510.5781,458.5313 510.5625,458.4063 510.4687,458.25 C510.3125,457.9844 510.0312,457.8438 509.7344,457.8438 C509.4375,457.8438 509.2344,457.9375 509.0156,458.25 L508.8437,458.1719 Z " fill="#000000"/><text fill="#000000" font-family="sans-serif" font-size="12" lengthAdjust="spacing" textLength="51" x="520.5" y="466.6543">Address</text><line style="stroke:#A80036;stroke-width:1.5;" x1="492.5" x2="573.5" y1="478.5" y2="478.5"/><rect fill="none" height="6" style="stroke:#C82930;stroke-width:1.0;" width="6" x="499.5" y="486.5"/><text fill="#000000" font-family="sans-serif" font-size="11" lengthAdjust="spacing" textLength="43" x="511.5" y="492.7104">latitude</text><rect fill="none" height="6" style="stroke:#C82930;stroke-width:1.0;" width="6" x="499.5" y="499.3047"/><text fill="#000000" font-family="sans-serif" font-size="11" lengthAdjust="spacing" textLength="53" x="511.5" y="505.5151">longitude</text><rect fill="none" height="6" style="stroke:#C82930;stroke-width:1.0;" width="6" x="499.5" y="512.1094"/><text fill="#000000" font-family="sans-serif" font-size="11" lengthAdjust="spacing" textLength="34" x="511.5" y="518.3198">street</text><line style="stroke:#A80036;stroke-width:1.5;" x1="492.5" x2="573.5" y1="524.9141" y2="524.9141"/><!--MD5=[7f2a9fafcebe4f099f71398fd3e2ed00]
class Pharmacy--><rect codeLine="21" fill="#FEFECE" filter="url(#f1eo3p26tl0rdj)" height="112.0234" id="Pharmacy" style="stroke:#A80036;stroke-width:1.5;" width="234" x="416" y="238"/><ellipse cx="500.25" cy="254" fill="#ADD1B2" rx="11" ry="11" style="stroke:#A80036;stroke-width:1.0;"/><path d="M502.5937,249.6719 C501.6562,249.2344 501.0625,249.0938 500.1875,249.0938 C497.5625,249.0938 495.5625,251.1719 495.5625,253.8906 L495.5625,255.0156 C495.5625,257.5938 497.6719,259.4844 500.5625,259.4844 C501.7812,259.4844 502.9375,259.1875 503.6875,258.6406 C504.2656,258.2344 504.5937,257.7813 504.5937,257.3906 C504.5937,256.9375 504.2031,256.5469 503.7344,256.5469 C503.5156,256.5469 503.3125,256.625 503.125,256.8125 C502.6719,257.2969 502.6719,257.2969 502.4844,257.3906 C502.0625,257.6563 501.375,257.7813 500.6094,257.7813 C498.5625,257.7813 497.2656,256.6875 497.2656,254.9844 L497.2656,253.8906 C497.2656,252.1094 498.5156,250.7969 500.25,250.7969 C500.8281,250.7969 501.4375,250.9531 501.9062,251.2031 C502.3906,251.4844 502.5625,251.7031 502.6562,252.1094 C502.7187,252.5156 502.75,252.6406 502.8906,252.7656 C503.0312,252.9063 503.2656,253.0156 503.4844,253.0156 C503.75,253.0156 504.0156,252.875 504.1875,252.6563 C504.2969,252.5 504.3281,252.3125 504.3281,251.8906 L504.3281,250.4688 C504.3281,250.0313 504.3125,249.9063 504.2187,249.75 C504.0625,249.4844 503.7812,249.3438 503.4844,249.3438 C503.1875,249.3438 502.9844,249.4375 502.7656,249.75 L502.5937,249.6719 Z " fill="#000000"/><text fill="#000000" font-family="sans-serif" font-size="12" lengthAdjust="spacing" textLength="57" x="520.75" y="258.1543">Pharmacy</text><line style="stroke:#A80036;stroke-width:1.5;" x1="417" x2="649" y1="270" y2="270"/><rect fill="none" height="6" style="stroke:#C82930;stroke-width:1.0;" width="6" x="424" y="278"/><text fill="#000000" font-family="sans-serif" font-size="11" lengthAdjust="spacing" textLength="33" x="436" y="284.2104">name</text><rect fill="none" height="6" style="stroke:#C82930;stroke-width:1.0;" width="6" x="424" y="290.8047"/><text fill="#000000" font-family="sans-serif" font-size="11" lengthAdjust="spacing" textLength="96" x="436" y="297.0151">quantityScooters</text><line style="stroke:#A80036;stroke-width:1.5;" x1="417" x2="649" y1="303.6094" y2="303.6094"/><text fill="#000000" font-family="sans-serif" font-size="11" lengthAdjust="spacing" textLength="222" x="422" y="317.8198">newAddress(latitude, longitude, street)</text><text fill="#000000" font-family="sans-serif" font-size="11" lengthAdjust="spacing" textLength="91" x="422" y="330.6245">savePharmacy()</text><text fill="#000000" font-family="sans-serif" font-size="11" lengthAdjust="spacing" textLength="94" x="422" y="343.4292">getPharmacyID()</text><!--MD5=[d1eeb527b96f439f56c6bd12ac0dd707]
class Park--><rect codeLine="29" fill="#FEFECE" filter="url(#f1eo3p26tl0rdj)" height="124.8281" id="Park" style="stroke:#A80036;stroke-width:1.5;" width="146" x="620" y="427"/><ellipse cx="676.25" cy="443" fill="#ADD1B2" rx="11" ry="11" style="stroke:#A80036;stroke-width:1.0;"/><path d="M678.5938,438.6719 C677.6563,438.2344 677.0625,438.0938 676.1875,438.0938 C673.5625,438.0938 671.5625,440.1719 671.5625,442.8906 L671.5625,444.0156 C671.5625,446.5938 673.6719,448.4844 676.5625,448.4844 C677.7813,448.4844 678.9375,448.1875 679.6875,447.6406 C680.2656,447.2344 680.5938,446.7813 680.5938,446.3906 C680.5938,445.9375 680.2031,445.5469 679.7344,445.5469 C679.5156,445.5469 679.3125,445.625 679.125,445.8125 C678.6719,446.2969 678.6719,446.2969 678.4844,446.3906 C678.0625,446.6563 677.375,446.7813 676.6094,446.7813 C674.5625,446.7813 673.2656,445.6875 673.2656,443.9844 L673.2656,442.8906 C673.2656,441.1094 674.5156,439.7969 676.25,439.7969 C676.8281,439.7969 677.4375,439.9531 677.9063,440.2031 C678.3906,440.4844 678.5625,440.7031 678.6563,441.1094 C678.7188,441.5156 678.75,441.6406 678.8906,441.7656 C679.0313,441.9063 679.2656,442.0156 679.4844,442.0156 C679.75,442.0156 680.0156,441.875 680.1875,441.6563 C680.2969,441.5 680.3281,441.3125 680.3281,440.8906 L680.3281,439.4688 C680.3281,439.0313 680.3125,438.9063 680.2188,438.75 C680.0625,438.4844 679.7813,438.3438 679.4844,438.3438 C679.1875,438.3438 678.9844,438.4375 678.7656,438.75 L678.5938,438.6719 Z " fill="#000000"/><text fill="#000000" font-family="sans-serif" font-size="12" lengthAdjust="spacing" textLength="25" x="696.75" y="447.1543">Park</text><line style="stroke:#A80036;stroke-width:1.5;" x1="621" x2="765" y1="459" y2="459"/><rect fill="none" height="6" style="stroke:#C82930;stroke-width:1.0;" width="6" x="628" y="467"/><text fill="#000000" font-family="sans-serif" font-size="11" lengthAdjust="spacing" textLength="74" x="640" y="473.2104">maxCapacity</text><rect fill="none" height="6" style="stroke:#C82930;stroke-width:1.0;" width="6" x="628" y="479.8047"/><text fill="#000000" font-family="sans-serif" font-size="11" lengthAdjust="spacing" textLength="83" x="640" y="486.0151">actualCapacity</text><rect fill="none" height="6" style="stroke:#C82930;stroke-width:1.0;" width="6" x="628" y="492.6094"/><text fill="#000000" font-family="sans-serif" font-size="11" lengthAdjust="spacing" textLength="111" x="640" y="498.8198">maxChargingPlaces</text><rect fill="none" height="6" style="stroke:#C82930;stroke-width:1.0;" width="6" x="628" y="505.4141"/><text fill="#000000" font-family="sans-serif" font-size="11" lengthAdjust="spacing" textLength="120" x="640" y="511.6245">actualChargingPlaces</text><rect fill="none" height="6" style="stroke:#C82930;stroke-width:1.0;" width="6" x="628" y="518.2188"/><text fill="#000000" font-family="sans-serif" font-size="11" lengthAdjust="spacing" textLength="68" x="640" y="524.4292">pharmacyID</text><line style="stroke:#A80036;stroke-width:1.5;" x1="621" x2="765" y1="531.0234" y2="531.0234"/><text fill="#000000" font-family="sans-serif" font-size="11" lengthAdjust="spacing" textLength="91" x="626" y="545.2339">savePharmacy()</text><!--MD5=[e06e50080b9e3cf9962b5bc9d3078862]
class ParkHandler--><rect codeLine="38" fill="#FEFECE" filter="url(#f1eo3p26tl0rdj)" height="60.8047" id="ParkHandler" style="stroke:#A80036;stroke-width:1.5;" width="120" x="261" y="263.5"/><ellipse cx="283.2" cy="279.5" fill="#ADD1B2" rx="11" ry="11" style="stroke:#A80036;stroke-width:1.0;"/><path d="M285.5437,275.1719 C284.6062,274.7344 284.0125,274.5938 283.1375,274.5938 C280.5125,274.5938 278.5125,276.6719 278.5125,279.3906 L278.5125,280.5156 C278.5125,283.0938 280.6219,284.9844 283.5125,284.9844 C284.7312,284.9844 285.8875,284.6875 286.6375,284.1406 C287.2156,283.7344 287.5437,283.2813 287.5437,282.8906 C287.5437,282.4375 287.1531,282.0469 286.6844,282.0469 C286.4656,282.0469 286.2625,282.125 286.075,282.3125 C285.6219,282.7969 285.6219,282.7969 285.4344,282.8906 C285.0125,283.1563 284.325,283.2813 283.5594,283.2813 C281.5125,283.2813 280.2156,282.1875 280.2156,280.4844 L280.2156,279.3906 C280.2156,277.6094 281.4656,276.2969 283.2,276.2969 C283.7781,276.2969 284.3875,276.4531 284.8562,276.7031 C285.3406,276.9844 285.5125,277.2031 285.6062,277.6094 C285.6687,278.0156 285.7,278.1406 285.8406,278.2656 C285.9812,278.4063 286.2156,278.5156 286.4344,278.5156 C286.7,278.5156 286.9656,278.375 287.1375,278.1563 C287.2469,278 287.2781,277.8125 287.2781,277.3906 L287.2781,275.9688 C287.2781,275.5313 287.2625,275.4063 287.1687,275.25 C287.0125,274.9844 286.7312,274.8438 286.4344,274.8438 C286.1375,274.8438 285.9344,274.9375 285.7156,275.25 L285.5437,275.1719 Z " fill="#000000"/><text fill="#000000" font-family="sans-serif" font-size="12" lengthAdjust="spacing" textLength="72" x="298.8" y="283.6543">ParkHandler</text><line style="stroke:#A80036;stroke-width:1.5;" x1="262" x2="380" y1="295.5" y2="295.5"/><line style="stroke:#A80036;stroke-width:1.5;" x1="262" x2="380" y1="303.5" y2="303.5"/><text fill="#000000" font-family="sans-serif" font-size="11" lengthAdjust="spacing" textLength="108" x="267" y="317.7104">addPharmacy(park)</text><!--MD5=[837d3612090b426002fd1342fcbe6b88]
class DataBase--><rect codeLine="42" fill="#FEFECE" filter="url(#f1eo3p26tl0rdj)" height="99.2188" id="DataBase" style="stroke:#A80036;stroke-width:1.5;" width="329" x="85.5" y="440"/><ellipse cx="217.25" cy="456" fill="#ADD1B2" rx="11" ry="11" style="stroke:#A80036;stroke-width:1.0;"/><path d="M219.5937,451.6719 C218.6562,451.2344 218.0625,451.0938 217.1875,451.0938 C214.5625,451.0938 212.5625,453.1719 212.5625,455.8906 L212.5625,457.0156 C212.5625,459.5938 214.6719,461.4844 217.5625,461.4844 C218.7812,461.4844 219.9375,461.1875 220.6875,460.6406 C221.2656,460.2344 221.5937,459.7813 221.5937,459.3906 C221.5937,458.9375 221.2031,458.5469 220.7344,458.5469 C220.5156,458.5469 220.3125,458.625 220.125,458.8125 C219.6719,459.2969 219.6719,459.2969 219.4844,459.3906 C219.0625,459.6563 218.375,459.7813 217.6094,459.7813 C215.5625,459.7813 214.2656,458.6875 214.2656,456.9844 L214.2656,455.8906 C214.2656,454.1094 215.5156,452.7969 217.25,452.7969 C217.8281,452.7969 218.4375,452.9531 218.9062,453.2031 C219.3906,453.4844 219.5625,453.7031 219.6562,454.1094 C219.7187,454.5156 219.75,454.6406 219.8906,454.7656 C220.0312,454.9063 220.2656,455.0156 220.4844,455.0156 C220.75,455.0156 221.0156,454.875 221.1875,454.6563 C221.2969,454.5 221.3281,454.3125 221.3281,453.8906 L221.3281,452.4688 C221.3281,452.0313 221.3125,451.9063 221.2187,451.75 C221.0625,451.4844 220.7812,451.3438 220.4844,451.3438 C220.1875,451.3438 219.9844,451.4375 219.7656,451.75 L219.5937,451.6719 Z " fill="#000000"/><text fill="#000000" font-family="sans-serif" font-size="12" lengthAdjust="spacing" textLength="57" x="237.75" y="460.1543">DataBase</text><line style="stroke:#A80036;stroke-width:1.5;" x1="86.5" x2="413.5" y1="472" y2="472"/><line style="stroke:#A80036;stroke-width:1.5;" x1="86.5" x2="413.5" y1="480" y2="480"/><text fill="#000000" font-family="sans-serif" font-size="11" lengthAdjust="spacing" textLength="172" x="91.5" y="494.2104">save(name, quantityScooters)</text><text fill="#000000" font-family="sans-serif" font-size="11" lengthAdjust="spacing" textLength="127" x="91.5" y="507.0151">getPharmacyID(name)</text><text fill="#000000" font-family="sans-serif" font-size="11" lengthAdjust="spacing" textLength="199" x="91.5" y="519.8198">save(maxCapacity, actualCapacity,</text><text fill="#000000" font-family="sans-serif" font-size="11" lengthAdjust="spacing" textLength="317" x="91.5" y="532.6245">maxChargingPlaces, actualChargingPlaces, pharmacyID)</text><!--MD5=[bb5e7578a186379a1c09b24e745be3ca]
link CreatePharmacyUI to CreatePharmacyController--><path codeLine="48" d="M406,55.242 C406,71.112 406,92.427 406,110.359 " fill="none" id="CreatePharmacyUI-to-CreatePharmacyController" style="stroke:#A80036;stroke-width:1.0;stroke-dasharray:7.0,7.0;"/><polygon fill="#A80036" points="406,115.805,410,106.805,406,110.805,402,106.805,406,115.805" style="stroke:#A80036;stroke-width:1.0;"/><!--MD5=[b0f9d18eb511fd7de154de201791b014]
link CreatePharmacyController to PharmacyHandler--><path codeLine="49" d="M351.831,177.094 C320.013,194.596 279.085,217.317 243,238 C233.827,243.258 224.184,248.867 214.724,254.417 " fill="none" id="CreatePharmacyController-to-PharmacyHandler" style="stroke:#A80036;stroke-width:1.0;stroke-dasharray:7.0,7.0;"/><polygon fill="#A80036" points="210.392,256.962,220.1781,255.8521,214.7031,254.4293,216.1259,248.9543,210.392,256.962" style="stroke:#A80036;stroke-width:1.0;"/><!--MD5=[e76b869f5c4a314f53e736ea39e08690]
link CreatePharmacyController to ParkHandler--><path codeLine="50" d="M388.594,177.295 C374.739,201.011 355.342,234.214 340.878,258.973 " fill="none" id="CreatePharmacyController-to-ParkHandler" style="stroke:#A80036;stroke-width:1.0;stroke-dasharray:7.0,7.0;"/><polygon fill="#A80036" points="338.237,263.494,346.23,257.7397,340.7587,259.1765,339.322,253.7051,338.237,263.494" style="stroke:#A80036;stroke-width:1.0;"/><!--MD5=[38e3e3198c6597197fa7d290457b7bee]
link CreatePharmacyController to Park--><path codeLine="51" d="M580.825,177.052 C614.289,190.452 645.769,209.873 668,238 C708.628,289.404 710.246,366.507 704.609,421.583 " fill="none" id="CreatePharmacyController-to-Park" style="stroke:#A80036;stroke-width:1.0;stroke-dasharray:7.0,7.0;"/><polygon fill="#A80036" points="704.042,426.842,708.9856,418.3238,704.5791,421.8709,701.0319,417.4644,704.042,426.842" style="stroke:#A80036;stroke-width:1.0;"/><!--MD5=[26989acd224a454f16b8ce8f4d3fb259]
link CreatePharmacyController to Pharmacy--><path codeLine="52" d="M432.007,177.295 C446.294,193.663 464.526,214.552 481.557,234.063 " fill="none" id="CreatePharmacyController-to-Pharmacy" style="stroke:#A80036;stroke-width:1.0;stroke-dasharray:7.0,7.0;"/><polygon fill="#A80036" points="484.946,237.946,482.0406,228.5354,481.6578,234.1793,476.0139,233.7965,484.946,237.946" style="stroke:#A80036;stroke-width:1.0;"/><!--MD5=[3748cbc377ae4404840fc295c5eed826]
link ParkHandler to DataBase--><path codeLine="53" d="M310.062,324.81 C299.303,354.131 282.641,399.541 269.593,435.101 " fill="none" id="ParkHandler-to-DataBase" style="stroke:#A80036;stroke-width:1.0;stroke-dasharray:7.0,7.0;"/><polygon fill="#A80036" points="267.859,439.829,274.7149,432.7582,269.5817,435.1351,267.2048,430.0019,267.859,439.829" style="stroke:#A80036;stroke-width:1.0;"/><!--MD5=[534673596365f9d99a061f9708cb08c3]
link PharmacyHandler to DataBase--><path codeLine="54" d="M168.809,331.396 C183.908,360.613 205.326,402.055 222.372,435.041 " fill="none" id="PharmacyHandler-to-DataBase" style="stroke:#A80036;stroke-width:1.0;stroke-dasharray:7.0,7.0;"/><polygon fill="#A80036" points="224.855,439.844,224.2771,430.0121,222.5597,435.402,217.1699,433.6846,224.855,439.844" style="stroke:#A80036;stroke-width:1.0;"/><!--MD5=[89baec1bfb4a213750f7c61516e0a0f1]
link Pharmacy to Address--><path codeLine="55" d="M533,350.19 C533,380.798 533,418.256 533,446.468 " fill="none" id="Pharmacy-Address" style="stroke:#A80036;stroke-width:1.0;"/><text fill="#000000" font-family="sans-serif" font-size="13" lengthAdjust="spacing" textLength="23" x="534" y="393.0669">has</text><text fill="#000000" font-family="sans-serif" font-size="13" lengthAdjust="spacing" textLength="8" x="524.5125" y="370.0258">1</text><text fill="#000000" font-family="sans-serif" font-size="13" lengthAdjust="spacing" textLength="8" x="524.3625" y="435.4589">1</text><!--MD5=[0ae4e3be80761dbc176b3d01b8ab98e4]
link Pharmacy to Park--><path codeLine="56" d="M578.635,350.19 C598.402,374.095 621.624,402.18 641.96,426.774 " fill="none" id="Pharmacy-Park" style="stroke:#A80036;stroke-width:1.0;"/><text fill="#000000" font-family="sans-serif" font-size="13" lengthAdjust="spacing" textLength="23" x="614" y="393.0669">has</text><text fill="#000000" font-family="sans-serif" font-size="13" lengthAdjust="spacing" textLength="8" x="575.7093" y="370.0258">1</text><text fill="#000000" font-family="sans-serif" font-size="13" lengthAdjust="spacing" textLength="8" x="627.596" y="415.7386">1</text><!--MD5=[559799e37b1365affa9ccc89f3ae1795]
@startuml
class CreatePharmacyController {
newPharmacy(name, quantityScooters, maxCapacity, actualCapacity, maxChargingPlaces, actualChargingPlaces, latitude,longitude, street)

}


class CreatePharmacyUI {
}

class PharmacyHandler {
addPharmacy(pharmacy)
getPharmacyID(name)
}

class Address{
-latitude
-longitude
-street
}

class Pharmacy{
-name
-quantityScooters
newAddress(latitude, longitude, street)
savePharmacy()
getPharmacyID()
}

class Park{
-maxCapacity
-actualCapacity
-maxChargingPlaces
-actualChargingPlaces
-pharmacyID
savePharmacy()
}

class ParkHandler {
 addPharmacy(park)
}

class DataBase {
 save(name, quantityScooters)
 getPharmacyID(name)
 save(maxCapacity, actualCapacity, \nmaxChargingPlaces, actualChargingPlaces, pharmacyID)
}

CreatePharmacyUI ..> CreatePharmacyController
CreatePharmacyController ..> PharmacyHandler
CreatePharmacyController ..> ParkHandler
CreatePharmacyController ..> Park
CreatePharmacyController ..> Pharmacy
ParkHandler ..> DataBase
PharmacyHandler ..> DataBase
Pharmacy "1" - - "1" Address: has
Pharmacy "1" - - "1" Park: has
@enduml

PlantUML version 1.2020.27beta7(Unknown compile time)
(GPL source distribution)
Java Runtime: Java(TM) SE Runtime Environment
JVM: Java HotSpot(TM) 64-Bit Server VM
Default Encoding: UTF-8
Language: en
Country: US
--></g></svg>