<?xml version="1.0" encoding="UTF-8" standalone="no"?><svg xmlns="http://www.w3.org/2000/svg" xmlns:xlink="http://www.w3.org/1999/xlink" contentScriptType="application/ecmascript" contentStyleType="text/css" height="603px" preserveAspectRatio="none" style="width:423px;height:603px;" version="1.1" viewBox="0 0 423 603" width="423px" zoomAndPan="magnify"><defs><filter height="300%" id="fon83x9i2honx" width="300%" x="-1" y="-1"><feGaussianBlur result="blurOut" stdDeviation="2.0"/><feColorMatrix in="blurOut" result="blurOut2" type="matrix" values="0 0 0 0 0 0 0 0 0 0 0 0 0 0 0 0 0 0 .4 0"/><feOffset dx="4.0" dy="4.0" in="blurOut2" result="blurOut3"/><feBlend in="SourceGraphic" in2="blurOut3" mode="normal"/></filter></defs><g><!--MD5=[c6a2171c11447acbe08a3dfeee0e1710]
class Courier--><rect codeLine="6" fill="#FEFECE" filter="url(#fon83x9i2honx)" height="78.4141" id="Courier" style="stroke:#A80036;stroke-width:1.5;" width="173" x="236" y="7"/><ellipse cx="296.25" cy="23" fill="#ADD1B2" rx="11" ry="11" style="stroke:#A80036;stroke-width:1.0;"/><path d="M298.5938,18.6719 C297.6563,18.2344 297.0625,18.0938 296.1875,18.0938 C293.5625,18.0938 291.5625,20.1719 291.5625,22.8906 L291.5625,24.0156 C291.5625,26.5938 293.6719,28.4844 296.5625,28.4844 C297.7813,28.4844 298.9375,28.1875 299.6875,27.6406 C300.2656,27.2344 300.5938,26.7813 300.5938,26.3906 C300.5938,25.9375 300.2031,25.5469 299.7344,25.5469 C299.5156,25.5469 299.3125,25.625 299.125,25.8125 C298.6719,26.2969 298.6719,26.2969 298.4844,26.3906 C298.0625,26.6563 297.375,26.7813 296.6094,26.7813 C294.5625,26.7813 293.2656,25.6875 293.2656,23.9844 L293.2656,22.8906 C293.2656,21.1094 294.5156,19.7969 296.25,19.7969 C296.8281,19.7969 297.4375,19.9531 297.9063,20.2031 C298.3906,20.4844 298.5625,20.7031 298.6563,21.1094 C298.7188,21.5156 298.75,21.6406 298.8906,21.7656 C299.0313,21.9063 299.2656,22.0156 299.4844,22.0156 C299.75,22.0156 300.0156,21.875 300.1875,21.6563 C300.2969,21.5 300.3281,21.3125 300.3281,20.8906 L300.3281,19.4688 C300.3281,19.0313 300.3125,18.9063 300.2188,18.75 C300.0625,18.4844 299.7813,18.3438 299.4844,18.3438 C299.1875,18.3438 298.9844,18.4375 298.7656,18.75 L298.5938,18.6719 Z " fill="#000000"/><text fill="#000000" font-family="sans-serif" font-size="12" lengthAdjust="spacing" textLength="44" x="316.75" y="27.1543">Courier</text><line style="stroke:#A80036;stroke-width:1.5;" x1="237" x2="408" y1="39" y2="39"/><text fill="#000000" font-family="sans-serif" font-size="11" lengthAdjust="spacing" textLength="74" x="242" y="53.2104">-String name</text><text fill="#000000" font-family="sans-serif" font-size="11" lengthAdjust="spacing" textLength="73" x="242" y="66.0151">-String email</text><text fill="#000000" font-family="sans-serif" font-size="11" lengthAdjust="spacing" textLength="161" x="242" y="78.8198">-double maxWeightCapacity</text><!--MD5=[7f2a9fafcebe4f099f71398fd3e2ed00]
class Pharmacy--><rect codeLine="12" fill="#FEFECE" filter="url(#fon83x9i2honx)" height="78.4141" id="Pharmacy" style="stroke:#A80036;stroke-width:1.5;" width="130" x="7" y="246"/><ellipse cx="40.45" cy="262" fill="#ADD1B2" rx="11" ry="11" style="stroke:#A80036;stroke-width:1.0;"/><path d="M42.7938,257.6719 C41.8563,257.2344 41.2625,257.0938 40.3875,257.0938 C37.7625,257.0938 35.7625,259.1719 35.7625,261.8906 L35.7625,263.0156 C35.7625,265.5938 37.8719,267.4844 40.7625,267.4844 C41.9813,267.4844 43.1375,267.1875 43.8875,266.6406 C44.4656,266.2344 44.7938,265.7813 44.7938,265.3906 C44.7938,264.9375 44.4031,264.5469 43.9344,264.5469 C43.7156,264.5469 43.5125,264.625 43.325,264.8125 C42.8719,265.2969 42.8719,265.2969 42.6844,265.3906 C42.2625,265.6563 41.575,265.7813 40.8094,265.7813 C38.7625,265.7813 37.4656,264.6875 37.4656,262.9844 L37.4656,261.8906 C37.4656,260.1094 38.7156,258.7969 40.45,258.7969 C41.0281,258.7969 41.6375,258.9531 42.1063,259.2031 C42.5906,259.4844 42.7625,259.7031 42.8563,260.1094 C42.9188,260.5156 42.95,260.6406 43.0906,260.7656 C43.2313,260.9063 43.4656,261.0156 43.6844,261.0156 C43.95,261.0156 44.2156,260.875 44.3875,260.6563 C44.4969,260.5 44.5281,260.3125 44.5281,259.8906 L44.5281,258.4688 C44.5281,258.0313 44.5125,257.9063 44.4188,257.75 C44.2625,257.4844 43.9813,257.3438 43.6844,257.3438 C43.3875,257.3438 43.1844,257.4375 42.9656,257.75 L42.7938,257.6719 Z " fill="#000000"/><text fill="#000000" font-family="sans-serif" font-size="12" lengthAdjust="spacing" textLength="57" x="58.55" y="266.1543">Pharmacy</text><line style="stroke:#A80036;stroke-width:1.5;" x1="8" x2="136" y1="278" y2="278"/><text fill="#000000" font-family="sans-serif" font-size="11" lengthAdjust="spacing" textLength="51" x="13" y="292.2104">-String id</text><text fill="#000000" font-family="sans-serif" font-size="11" lengthAdjust="spacing" textLength="74" x="13" y="305.0151">-String name</text><text fill="#000000" font-family="sans-serif" font-size="11" lengthAdjust="spacing" textLength="118" x="13" y="317.8198">-int quantityScooters</text><!--MD5=[29a4e6f18f75b5a8d2a8d0982fb2d008]
class ElectricScooter--><rect codeLine="18" fill="#FEFECE" filter="url(#fon83x9i2honx)" height="78.4141" id="ElectricScooter" style="stroke:#A80036;stroke-width:1.5;" width="135" x="255" y="120"/><ellipse cx="274.95" cy="136" fill="#ADD1B2" rx="11" ry="11" style="stroke:#A80036;stroke-width:1.0;"/><path d="M277.2938,131.6719 C276.3563,131.2344 275.7625,131.0938 274.8875,131.0938 C272.2625,131.0938 270.2625,133.1719 270.2625,135.8906 L270.2625,137.0156 C270.2625,139.5938 272.3719,141.4844 275.2625,141.4844 C276.4813,141.4844 277.6375,141.1875 278.3875,140.6406 C278.9656,140.2344 279.2938,139.7813 279.2938,139.3906 C279.2938,138.9375 278.9031,138.5469 278.4344,138.5469 C278.2156,138.5469 278.0125,138.625 277.825,138.8125 C277.3719,139.2969 277.3719,139.2969 277.1844,139.3906 C276.7625,139.6563 276.075,139.7813 275.3094,139.7813 C273.2625,139.7813 271.9656,138.6875 271.9656,136.9844 L271.9656,135.8906 C271.9656,134.1094 273.2156,132.7969 274.95,132.7969 C275.5281,132.7969 276.1375,132.9531 276.6063,133.2031 C277.0906,133.4844 277.2625,133.7031 277.3563,134.1094 C277.4188,134.5156 277.45,134.6406 277.5906,134.7656 C277.7313,134.9063 277.9656,135.0156 278.1844,135.0156 C278.45,135.0156 278.7156,134.875 278.8875,134.6563 C278.9969,134.5 279.0281,134.3125 279.0281,133.8906 L279.0281,132.4688 C279.0281,132.0313 279.0125,131.9063 278.9188,131.75 C278.7625,131.4844 278.4813,131.3438 278.1844,131.3438 C277.8875,131.3438 277.6844,131.4375 277.4656,131.75 L277.2938,131.6719 Z " fill="#000000"/><text fill="#000000" font-family="sans-serif" font-size="12" lengthAdjust="spacing" textLength="92" x="290.05" y="140.1543">ElectricScooter</text><line style="stroke:#A80036;stroke-width:1.5;" x1="256" x2="389" y1="152" y2="152"/><text fill="#000000" font-family="sans-serif" font-size="11" lengthAdjust="spacing" textLength="51" x="261" y="166.2104">-String id</text><text fill="#000000" font-family="sans-serif" font-size="11" lengthAdjust="spacing" textLength="114" x="261" y="179.0151">-double maxBattery</text><text fill="#000000" font-family="sans-serif" font-size="11" lengthAdjust="spacing" textLength="123" x="261" y="191.8198">-double actualBattery</text><!--MD5=[72136138052d025cffdce3c22fbd185f]
class Product--><rect codeLine="24" fill="#FEFECE" filter="url(#fon83x9i2honx)" height="104.0234" id="Product" style="stroke:#A80036;stroke-width:1.5;" width="115" x="265" y="233"/><ellipse cx="297.1" cy="249" fill="#ADD1B2" rx="11" ry="11" style="stroke:#A80036;stroke-width:1.0;"/><path d="M299.4438,244.6719 C298.5063,244.2344 297.9125,244.0938 297.0375,244.0938 C294.4125,244.0938 292.4125,246.1719 292.4125,248.8906 L292.4125,250.0156 C292.4125,252.5938 294.5219,254.4844 297.4125,254.4844 C298.6313,254.4844 299.7875,254.1875 300.5375,253.6406 C301.1156,253.2344 301.4438,252.7813 301.4438,252.3906 C301.4438,251.9375 301.0531,251.5469 300.5844,251.5469 C300.3656,251.5469 300.1625,251.625 299.975,251.8125 C299.5219,252.2969 299.5219,252.2969 299.3344,252.3906 C298.9125,252.6563 298.225,252.7813 297.4594,252.7813 C295.4125,252.7813 294.1156,251.6875 294.1156,249.9844 L294.1156,248.8906 C294.1156,247.1094 295.3656,245.7969 297.1,245.7969 C297.6781,245.7969 298.2875,245.9531 298.7563,246.2031 C299.2406,246.4844 299.4125,246.7031 299.5063,247.1094 C299.5688,247.5156 299.6,247.6406 299.7406,247.7656 C299.8813,247.9063 300.1156,248.0156 300.3344,248.0156 C300.6,248.0156 300.8656,247.875 301.0375,247.6563 C301.1469,247.5 301.1781,247.3125 301.1781,246.8906 L301.1781,245.4688 C301.1781,245.0313 301.1625,244.9063 301.0688,244.75 C300.9125,244.4844 300.6313,244.3438 300.3344,244.3438 C300.0375,244.3438 299.8344,244.4375 299.6156,244.75 L299.4438,244.6719 Z " fill="#000000"/><text fill="#000000" font-family="sans-serif" font-size="12" lengthAdjust="spacing" textLength="45" x="314.9" y="253.1543">Product</text><line style="stroke:#A80036;stroke-width:1.5;" x1="266" x2="379" y1="265" y2="265"/><text fill="#000000" font-family="sans-serif" font-size="11" lengthAdjust="spacing" textLength="51" x="271" y="279.2104">-String id</text><text fill="#000000" font-family="sans-serif" font-size="11" lengthAdjust="spacing" textLength="74" x="271" y="292.0151">-String name</text><text fill="#000000" font-family="sans-serif" font-size="11" lengthAdjust="spacing" textLength="103" x="271" y="304.8198">-String description</text><text fill="#000000" font-family="sans-serif" font-size="11" lengthAdjust="spacing" textLength="75" x="271" y="317.6245">-double price</text><text fill="#000000" font-family="sans-serif" font-size="11" lengthAdjust="spacing" textLength="85" x="271" y="330.4292">-double weight</text><!--MD5=[0f39e4cb6f03951afbf6d14bd2505654]
class Address--><rect codeLine="32" fill="#FEFECE" filter="url(#fon83x9i2honx)" height="78.4141" id="Address" style="stroke:#A80036;stroke-width:1.5;" width="112" x="266.5" y="372"/><ellipse cx="294.55" cy="388" fill="#ADD1B2" rx="11" ry="11" style="stroke:#A80036;stroke-width:1.0;"/><path d="M296.8938,383.6719 C295.9563,383.2344 295.3625,383.0938 294.4875,383.0938 C291.8625,383.0938 289.8625,385.1719 289.8625,387.8906 L289.8625,389.0156 C289.8625,391.5938 291.9719,393.4844 294.8625,393.4844 C296.0813,393.4844 297.2375,393.1875 297.9875,392.6406 C298.5656,392.2344 298.8938,391.7813 298.8938,391.3906 C298.8938,390.9375 298.5031,390.5469 298.0344,390.5469 C297.8156,390.5469 297.6125,390.625 297.425,390.8125 C296.9719,391.2969 296.9719,391.2969 296.7844,391.3906 C296.3625,391.6563 295.675,391.7813 294.9094,391.7813 C292.8625,391.7813 291.5656,390.6875 291.5656,388.9844 L291.5656,387.8906 C291.5656,386.1094 292.8156,384.7969 294.55,384.7969 C295.1281,384.7969 295.7375,384.9531 296.2063,385.2031 C296.6906,385.4844 296.8625,385.7031 296.9563,386.1094 C297.0188,386.5156 297.05,386.6406 297.1906,386.7656 C297.3313,386.9063 297.5656,387.0156 297.7844,387.0156 C298.05,387.0156 298.3156,386.875 298.4875,386.6563 C298.5969,386.5 298.6281,386.3125 298.6281,385.8906 L298.6281,384.4688 C298.6281,384.0313 298.6125,383.9063 298.5188,383.75 C298.3625,383.4844 298.0813,383.3438 297.7844,383.3438 C297.4875,383.3438 297.2844,383.4375 297.0656,383.75 L296.8938,383.6719 Z " fill="#000000"/><text fill="#000000" font-family="sans-serif" font-size="12" lengthAdjust="spacing" textLength="51" x="311.45" y="392.1543">Address</text><line style="stroke:#A80036;stroke-width:1.5;" x1="267.5" x2="377.5" y1="404" y2="404"/><text fill="#000000" font-family="sans-serif" font-size="11" lengthAdjust="spacing" textLength="90" x="272.5" y="418.2104">-double latitude</text><text fill="#000000" font-family="sans-serif" font-size="11" lengthAdjust="spacing" textLength="100" x="272.5" y="431.0151">-double longitude</text><text fill="#000000" font-family="sans-serif" font-size="11" lengthAdjust="spacing" textLength="75" x="272.5" y="443.8198">-String street</text><!--MD5=[d1eeb527b96f439f56c6bd12ac0dd707]
class Park--><rect codeLine="39" fill="#FEFECE" filter="url(#fon83x9i2honx)" height="104.0234" id="Park" style="stroke:#A80036;stroke-width:1.5;" width="154" x="245.5" y="485"/><ellipse cx="305.75" cy="501" fill="#ADD1B2" rx="11" ry="11" style="stroke:#A80036;stroke-width:1.0;"/><path d="M308.0938,496.6719 C307.1563,496.2344 306.5625,496.0938 305.6875,496.0938 C303.0625,496.0938 301.0625,498.1719 301.0625,500.8906 L301.0625,502.0156 C301.0625,504.5938 303.1719,506.4844 306.0625,506.4844 C307.2813,506.4844 308.4375,506.1875 309.1875,505.6406 C309.7656,505.2344 310.0938,504.7813 310.0938,504.3906 C310.0938,503.9375 309.7031,503.5469 309.2344,503.5469 C309.0156,503.5469 308.8125,503.625 308.625,503.8125 C308.1719,504.2969 308.1719,504.2969 307.9844,504.3906 C307.5625,504.6563 306.875,504.7813 306.1094,504.7813 C304.0625,504.7813 302.7656,503.6875 302.7656,501.9844 L302.7656,500.8906 C302.7656,499.1094 304.0156,497.7969 305.75,497.7969 C306.3281,497.7969 306.9375,497.9531 307.4063,498.2031 C307.8906,498.4844 308.0625,498.7031 308.1563,499.1094 C308.2188,499.5156 308.25,499.6406 308.3906,499.7656 C308.5313,499.9063 308.7656,500.0156 308.9844,500.0156 C309.25,500.0156 309.5156,499.875 309.6875,499.6563 C309.7969,499.5 309.8281,499.3125 309.8281,498.8906 L309.8281,497.4688 C309.8281,497.0313 309.8125,496.9063 309.7188,496.75 C309.5625,496.4844 309.2813,496.3438 308.9844,496.3438 C308.6875,496.3438 308.4844,496.4375 308.2656,496.75 L308.0938,496.6719 Z " fill="#000000"/><text fill="#000000" font-family="sans-serif" font-size="12" lengthAdjust="spacing" textLength="25" x="326.25" y="505.1543">Park</text><line style="stroke:#A80036;stroke-width:1.5;" x1="246.5" x2="398.5" y1="517" y2="517"/><text fill="#000000" font-family="sans-serif" font-size="11" lengthAdjust="spacing" textLength="51" x="251.5" y="531.2104">-String id</text><text fill="#000000" font-family="sans-serif" font-size="11" lengthAdjust="spacing" textLength="96" x="251.5" y="544.0151">-int maxCapacity</text><text fill="#000000" font-family="sans-serif" font-size="11" lengthAdjust="spacing" textLength="105" x="251.5" y="556.8198">-int actualCapacity</text><text fill="#000000" font-family="sans-serif" font-size="11" lengthAdjust="spacing" textLength="133" x="251.5" y="569.6245">-int maxChargingPlaces</text><text fill="#000000" font-family="sans-serif" font-size="11" lengthAdjust="spacing" textLength="142" x="251.5" y="582.4292">-int actualChargingPlaces</text><!--MD5=[0ae4e3be80761dbc176b3d01b8ab98e4]
link Pharmacy to Park--><path codeLine="47" d="M105.0815,324.226 C136.832,362.203 187.572,420.673 236,467 C242.238,472.968 248.925,479 255.71,484.89 " fill="none" id="Pharmacy-Park" style="stroke:#A80036;stroke-width:1.0;"/><polygon fill="#000000" points="175.4198,395.214,171.3774,386.6053,167.0893,390.6255,175.4198,395.214" style="stroke:#000000;stroke-width:1.0;"/><text fill="#000000" font-family="sans-serif" font-size="13" lengthAdjust="spacing" textLength="24" x="181" y="396.0669">Has</text><text fill="#000000" font-family="sans-serif" font-size="13" lengthAdjust="spacing" textLength="8" x="102.2616" y="344.5909">1</text><text fill="#000000" font-family="sans-serif" font-size="13" lengthAdjust="spacing" textLength="8" x="238.1976" y="473.9541">1</text><!--MD5=[737ca6dd1a667cd849e932d7cf955580]
link Pharmacy to Product--><path codeLine="48" d="M137.318,285 C176.721,285 226.699,285 264.649,285 " fill="none" id="Pharmacy-Product" style="stroke:#A80036;stroke-width:1.0;"/><polygon fill="#000000" points="177,276.5664,167.9549,273.6275,167.9549,279.5053,177,276.5664" style="stroke:#000000;stroke-width:1.0;"/><text fill="#000000" font-family="sans-serif" font-size="13" lengthAdjust="spacing" textLength="24" x="181" y="281.0669">Has</text><text fill="#000000" font-family="sans-serif" font-size="13" lengthAdjust="spacing" textLength="8" x="144.8997" y="297.8718">1</text><text fill="#000000" font-family="sans-serif" font-size="13" lengthAdjust="spacing" textLength="16" x="241.035" y="297.9404">1..</text><!--MD5=[0643aaab1f96e564b90d0ad5c3af18e6]
link Pharmacy to Courier--><path codeLine="49" d="M102.823,245.85 C133.659,206.822 184.442,146.45 236,102 C242.72,96.207 250.076,90.54 257.564,85.172 " fill="none" id="Pharmacy-Courier" style="stroke:#A80036;stroke-width:1.0;"/><polygon fill="#000000" points="175.4684,121.965,167.0772,126.4414,171.3109,130.5187,175.4684,121.965" style="stroke:#000000;stroke-width:1.0;"/><text fill="#000000" font-family="sans-serif" font-size="13" lengthAdjust="spacing" textLength="24" x="181" y="130.0669">Has</text><text fill="#000000" font-family="sans-serif" font-size="13" lengthAdjust="spacing" textLength="8" x="99.4332" y="234.8748">1</text><text fill="#000000" font-family="sans-serif" font-size="13" lengthAdjust="spacing" textLength="16" x="228.5723" y="105.5273">1..</text><!--MD5=[89baec1bfb4a213750f7c61516e0a0f1]
link Pharmacy to Address--><path codeLine="50" d="M137.318,317.612 C177.297,337.883 228.161,363.673 266.303,383.013 " fill="none" id="Pharmacy-Address" style="stroke:#A80036;stroke-width:1.0;"/><polygon fill="#000000" points="176.4595,327.8276,169.7213,321.1159,167.0631,326.3583,176.4595,327.8276" style="stroke:#000000;stroke-width:1.0;"/><text fill="#000000" font-family="sans-serif" font-size="13" lengthAdjust="spacing" textLength="24" x="181" y="330.0669">Has</text><text fill="#000000" font-family="sans-serif" font-size="13" lengthAdjust="spacing" textLength="8" x="144.8997" y="334.0508">1</text><text fill="#000000" font-family="sans-serif" font-size="13" lengthAdjust="spacing" textLength="8" x="250.5903" y="392.437">1</text><!--MD5=[977da9dd56f40a245d04e6016286c5c9]
link Pharmacy to ElectricScooter--><path codeLine="51" d="M137.318,252.388 C173.414,234.086 218.383,211.285 254.851,192.794 " fill="none" id="Pharmacy-ElectricScooter" style="stroke:#A80036;stroke-width:1.0;"/><polygon fill="#000000" points="176.4595,208.3053,167.0631,209.7745,169.7213,215.0169,176.4595,208.3053" style="stroke:#000000;stroke-width:1.0;"/><text fill="#000000" font-family="sans-serif" font-size="13" lengthAdjust="spacing" textLength="24" x="181" y="215.0669">Has</text><text fill="#000000" font-family="sans-serif" font-size="13" lengthAdjust="spacing" textLength="8" x="144.8997" y="261.6929">1</text><text fill="#000000" font-family="sans-serif" font-size="13" lengthAdjust="spacing" textLength="16" x="231.0497" y="209.1048">1..</text><!--MD5=[61315362b004aa30f381a3fc086810c8]
@startuml
skinparam classAttributeIconSize 0
hide methods
left to right direction


class Courier {
  -String name
  -String email
  -double maxWeightCapacity
}

class Pharmacy {
  -String id
  -String name
  -int quantityScooters
  }

class ElectricScooter {
  -String id
  -double maxBattery
  -double actualBattery
  }

class Product {
  -String id
  -String name
  -String description
  -double price
  -double weight
}

class Address {
  -double latitude
  -double longitude
  -String street
}


class Park {
  -String id
  -int maxCapacity
  -int actualCapacity
  -int maxChargingPlaces
  -int actualChargingPlaces
}
  
Pharmacy "1" - - "1" Park: Has >
Pharmacy "1" - - "1.." Product: Has >
Pharmacy "1" - - "1.." Courier: Has >
Pharmacy "1" - - "1" Address: Has >
Pharmacy "1" - - "1.." ElectricScooter: Has >
@enduml

PlantUML version 1.2020.27beta7(Unknown compile time)
(GPL source distribution)
Java Runtime: Java(TM) SE Runtime Environment
JVM: Java HotSpot(TM) 64-Bit Server VM
Default Encoding: UTF-8
Language: en
Country: US
--></g></svg>