<?xml version="1.0" encoding="UTF-8" standalone="no"?><svg xmlns="http://www.w3.org/2000/svg" xmlns:xlink="http://www.w3.org/1999/xlink" contentScriptType="application/ecmascript" contentStyleType="text/css" height="507px" preserveAspectRatio="none" style="width:235px;height:507px;" version="1.1" viewBox="0 0 235 507" width="235px" zoomAndPan="magnify"><defs><filter height="300%" id="f1igqws8qfv904" width="300%" x="-1" y="-1"><feGaussianBlur result="blurOut" stdDeviation="2.0"/><feColorMatrix in="blurOut" result="blurOut2" type="matrix" values="0 0 0 0 0 0 0 0 0 0 0 0 0 0 0 0 0 0 .4 0"/><feOffset dx="4.0" dy="4.0" in="blurOut2" result="blurOut3"/><feBlend in="SourceGraphic" in2="blurOut3" mode="normal"/></filter></defs><g><!--MD5=[5103e3471bf31fadd75905833dcba617]
class LoginController--><rect codeLine="1" fill="#FEFECE" filter="url(#f1igqws8qfv904)" height="99.2188" id="LoginController" style="stroke:#A80036;stroke-width:1.5;" width="210" x="9" y="115"/><ellipse cx="64.25" cy="131" fill="#ADD1B2" rx="11" ry="11" style="stroke:#A80036;stroke-width:1.0;"/><path d="M66.5938,126.6719 C65.6563,126.2344 65.0625,126.0938 64.1875,126.0938 C61.5625,126.0938 59.5625,128.1719 59.5625,130.8906 L59.5625,132.0156 C59.5625,134.5938 61.6719,136.4844 64.5625,136.4844 C65.7813,136.4844 66.9375,136.1875 67.6875,135.6406 C68.2656,135.2344 68.5938,134.7813 68.5938,134.3906 C68.5938,133.9375 68.2031,133.5469 67.7344,133.5469 C67.5156,133.5469 67.3125,133.625 67.125,133.8125 C66.6719,134.2969 66.6719,134.2969 66.4844,134.3906 C66.0625,134.6563 65.375,134.7813 64.6094,134.7813 C62.5625,134.7813 61.2656,133.6875 61.2656,131.9844 L61.2656,130.8906 C61.2656,129.1094 62.5156,127.7969 64.25,127.7969 C64.8281,127.7969 65.4375,127.9531 65.9063,128.2031 C66.3906,128.4844 66.5625,128.7031 66.6563,129.1094 C66.7188,129.5156 66.75,129.6406 66.8906,129.7656 C67.0313,129.9063 67.2656,130.0156 67.4844,130.0156 C67.75,130.0156 68.0156,129.875 68.1875,129.6563 C68.2969,129.5 68.3281,129.3125 68.3281,128.8906 L68.3281,127.4688 C68.3281,127.0313 68.3125,126.9063 68.2188,126.75 C68.0625,126.4844 67.7813,126.3438 67.4844,126.3438 C67.1875,126.3438 66.9844,126.4375 66.7656,126.75 L66.5938,126.6719 Z " fill="#000000"/><text fill="#000000" font-family="sans-serif" font-size="12" lengthAdjust="spacing" textLength="91" x="84.75" y="135.1543">LoginController</text><line style="stroke:#A80036;stroke-width:1.5;" x1="10" x2="218" y1="147" y2="147"/><line style="stroke:#A80036;stroke-width:1.5;" x1="10" x2="218" y1="155" y2="155"/><text fill="#000000" font-family="sans-serif" font-size="11" lengthAdjust="spacing" textLength="142" x="15" y="169.2104">authenticateLogin(email)</text><text fill="#000000" font-family="sans-serif" font-size="11" lengthAdjust="spacing" textLength="198" x="15" y="182.0151">checkCredentials(email, password)</text><text fill="#000000" font-family="sans-serif" font-size="11" lengthAdjust="spacing" textLength="131" x="15" y="194.8198">getUserByEmail(email)</text><text fill="#000000" font-family="sans-serif" font-size="11" lengthAdjust="spacing" textLength="77" x="15" y="207.6245">setUser(user)</text><!--MD5=[963343b82525635de3374bcb96d0dfc1]
class LoginUI--><rect codeLine="9" fill="#FEFECE" filter="url(#f1igqws8qfv904)" height="48" id="LoginUI" style="stroke:#A80036;stroke-width:1.5;" width="76" x="76" y="7"/><ellipse cx="91" cy="23" fill="#ADD1B2" rx="11" ry="11" style="stroke:#A80036;stroke-width:1.0;"/><path d="M93.3438,18.6719 C92.4063,18.2344 91.8125,18.0938 90.9375,18.0938 C88.3125,18.0938 86.3125,20.1719 86.3125,22.8906 L86.3125,24.0156 C86.3125,26.5938 88.4219,28.4844 91.3125,28.4844 C92.5313,28.4844 93.6875,28.1875 94.4375,27.6406 C95.0156,27.2344 95.3438,26.7813 95.3438,26.3906 C95.3438,25.9375 94.9531,25.5469 94.4844,25.5469 C94.2656,25.5469 94.0625,25.625 93.875,25.8125 C93.4219,26.2969 93.4219,26.2969 93.2344,26.3906 C92.8125,26.6563 92.125,26.7813 91.3594,26.7813 C89.3125,26.7813 88.0156,25.6875 88.0156,23.9844 L88.0156,22.8906 C88.0156,21.1094 89.2656,19.7969 91,19.7969 C91.5781,19.7969 92.1875,19.9531 92.6563,20.2031 C93.1406,20.4844 93.3125,20.7031 93.4063,21.1094 C93.4688,21.5156 93.5,21.6406 93.6406,21.7656 C93.7813,21.9063 94.0156,22.0156 94.2344,22.0156 C94.5,22.0156 94.7656,21.875 94.9375,21.6563 C95.0469,21.5 95.0781,21.3125 95.0781,20.8906 L95.0781,19.4688 C95.0781,19.0313 95.0625,18.9063 94.9688,18.75 C94.8125,18.4844 94.5313,18.3438 94.2344,18.3438 C93.9375,18.3438 93.7344,18.4375 93.5156,18.75 L93.3438,18.6719 Z " fill="#000000"/><text fill="#000000" font-family="sans-serif" font-size="12" lengthAdjust="spacing" textLength="44" x="105" y="27.1543">LoginUI</text><line style="stroke:#A80036;stroke-width:1.5;" x1="77" x2="151" y1="39" y2="39"/><line style="stroke:#A80036;stroke-width:1.5;" x1="77" x2="151" y1="47" y2="47"/><!--MD5=[c5b08e60048ef1bcd788d24cf324082e]
class UserSession--><rect codeLine="12" fill="#FEFECE" filter="url(#f1igqws8qfv904)" height="60.8047" id="UserSession" style="stroke:#A80036;stroke-width:1.5;" width="167" x="30.5" y="433"/><ellipse cx="71.6" cy="449" fill="#ADD1B2" rx="11" ry="11" style="stroke:#A80036;stroke-width:1.0;"/><path d="M73.9438,444.6719 C73.0063,444.2344 72.4125,444.0938 71.5375,444.0938 C68.9125,444.0938 66.9125,446.1719 66.9125,448.8906 L66.9125,450.0156 C66.9125,452.5938 69.0219,454.4844 71.9125,454.4844 C73.1313,454.4844 74.2875,454.1875 75.0375,453.6406 C75.6156,453.2344 75.9438,452.7813 75.9438,452.3906 C75.9438,451.9375 75.5531,451.5469 75.0844,451.5469 C74.8656,451.5469 74.6625,451.625 74.475,451.8125 C74.0219,452.2969 74.0219,452.2969 73.8344,452.3906 C73.4125,452.6563 72.725,452.7813 71.9594,452.7813 C69.9125,452.7813 68.6156,451.6875 68.6156,449.9844 L68.6156,448.8906 C68.6156,447.1094 69.8656,445.7969 71.6,445.7969 C72.1781,445.7969 72.7875,445.9531 73.2563,446.2031 C73.7406,446.4844 73.9125,446.7031 74.0063,447.1094 C74.0688,447.5156 74.1,447.6406 74.2406,447.7656 C74.3813,447.9063 74.6156,448.0156 74.8344,448.0156 C75.1,448.0156 75.3656,447.875 75.5375,447.6563 C75.6469,447.5 75.6781,447.3125 75.6781,446.8906 L75.6781,445.4688 C75.6781,445.0313 75.6625,444.9063 75.5688,444.75 C75.4125,444.4844 75.1313,444.3438 74.8344,444.3438 C74.5375,444.3438 74.3344,444.4375 74.1156,444.75 L73.9438,444.6719 Z " fill="#000000"/><text fill="#000000" font-family="sans-serif" font-size="12" lengthAdjust="spacing" textLength="77" x="91.4" y="453.1543">UserSession</text><line style="stroke:#A80036;stroke-width:1.5;" x1="31.5" x2="196.5" y1="465" y2="465"/><line style="stroke:#A80036;stroke-width:1.5;" x1="31.5" x2="196.5" y1="473" y2="473"/><text fill="#000000" font-family="sans-serif" font-size="11" lengthAdjust="spacing" textLength="155" x="36.5" y="487.2104">getInstance().setUser(user)</text><!--MD5=[d72f52500dae12b8be7f8b7cd0e110ac]
class LoginHandler--><rect codeLine="17" fill="#FEFECE" filter="url(#f1igqws8qfv904)" height="99.2188" id="LoginHandler" style="stroke:#A80036;stroke-width:1.5;" width="214" x="7" y="274"/><ellipse cx="70.25" cy="290" fill="#ADD1B2" rx="11" ry="11" style="stroke:#A80036;stroke-width:1.0;"/><path d="M72.5938,285.6719 C71.6563,285.2344 71.0625,285.0938 70.1875,285.0938 C67.5625,285.0938 65.5625,287.1719 65.5625,289.8906 L65.5625,291.0156 C65.5625,293.5938 67.6719,295.4844 70.5625,295.4844 C71.7813,295.4844 72.9375,295.1875 73.6875,294.6406 C74.2656,294.2344 74.5938,293.7813 74.5938,293.3906 C74.5938,292.9375 74.2031,292.5469 73.7344,292.5469 C73.5156,292.5469 73.3125,292.625 73.125,292.8125 C72.6719,293.2969 72.6719,293.2969 72.4844,293.3906 C72.0625,293.6563 71.375,293.7813 70.6094,293.7813 C68.5625,293.7813 67.2656,292.6875 67.2656,290.9844 L67.2656,289.8906 C67.2656,288.1094 68.5156,286.7969 70.25,286.7969 C70.8281,286.7969 71.4375,286.9531 71.9063,287.2031 C72.3906,287.4844 72.5625,287.7031 72.6563,288.1094 C72.7188,288.5156 72.75,288.6406 72.8906,288.7656 C73.0313,288.9063 73.2656,289.0156 73.4844,289.0156 C73.75,289.0156 74.0156,288.875 74.1875,288.6563 C74.2969,288.5 74.3281,288.3125 74.3281,287.8906 L74.3281,286.4688 C74.3281,286.0313 74.3125,285.9063 74.2188,285.75 C74.0625,285.4844 73.7813,285.3438 73.4844,285.3438 C73.1875,285.3438 72.9844,285.4375 72.7656,285.75 L72.5938,285.6719 Z " fill="#000000"/><text fill="#000000" font-family="sans-serif" font-size="12" lengthAdjust="spacing" textLength="79" x="90.75" y="294.1543">LoginHandler</text><line style="stroke:#A80036;stroke-width:1.5;" x1="8" x2="220" y1="306" y2="306"/><line style="stroke:#A80036;stroke-width:1.5;" x1="8" x2="220" y1="314" y2="314"/><text fill="#000000" font-family="sans-serif" font-size="11" lengthAdjust="spacing" textLength="202" x="13" y="328.2104">authenticateLogin(email, password)</text><text fill="#000000" font-family="sans-serif" font-size="11" lengthAdjust="spacing" textLength="104" x="13" y="341.0151">checkEmail(email)</text><text fill="#000000" font-family="sans-serif" font-size="11" lengthAdjust="spacing" textLength="198" x="13" y="353.8198">checkCredentials(email, password)</text><text fill="#000000" font-family="sans-serif" font-size="11" lengthAdjust="spacing" textLength="131" x="13" y="366.6245">getUserByEmail(email)</text><!--MD5=[6eb40b7e2b28e3e84cf68ec0bdf96d8e]
link LoginUI to LoginController--><path codeLine="24" d="M114,55.207 C114,70.304 114,90.644 114,109.621 " fill="none" id="LoginUI-to-LoginController" style="stroke:#A80036;stroke-width:1.0;stroke-dasharray:7.0,7.0;"/><polygon fill="#A80036" points="114,114.931,118,105.931,114,109.931,110,105.931,114,114.931" style="stroke:#A80036;stroke-width:1.0;"/><!--MD5=[5bb00d553e59aaa6ad755af2bdaee034]
link LoginController to LoginHandler--><path codeLine="25" d="M114,214.315 C114,231.528 114,250.973 114,268.583 " fill="none" id="LoginController-to-LoginHandler" style="stroke:#A80036;stroke-width:1.0;stroke-dasharray:7.0,7.0;"/><polygon fill="#A80036" points="114,273.985,118,264.985,114,268.985,110,264.985,114,273.985" style="stroke:#A80036;stroke-width:1.0;"/><!--MD5=[041725c5d2e2d5681f75a2043755a768]
link LoginHandler to UserSession--><path codeLine="26" d="M114,373.154 C114,391.157 114,411.1894 114,427.7158 " fill="none" id="LoginHandler-to-UserSession" style="stroke:#A80036;stroke-width:1.0;stroke-dasharray:7.0,7.0;"/><polygon fill="#A80036" points="114,432.726,118,423.726,114,427.726,110,423.726,114,432.726" style="stroke:#A80036;stroke-width:1.0;"/><!--MD5=[f49510c8e30c5594e4123824b6891b65]
@startuml
class LoginController {
  authenticateLogin(email)
  checkCredentials(email, password)
  getUserByEmail(email)
  setUser(user)
}


class LoginUI {
}

class UserSession {
getInstance().setUser(user)
}


class LoginHandler {
  authenticateLogin(email, password)
  checkEmail(email)
  checkCredentials(email, password)
  getUserByEmail(email)
}

LoginUI ..> LoginController
LoginController ..> LoginHandler
LoginHandler ..> UserSession
@enduml

PlantUML version 1.2020.27beta7(Unknown compile time)
(GPL source distribution)
Java Runtime: Java(TM) SE Runtime Environment
JVM: Java HotSpot(TM) 64-Bit Server VM
Default Encoding: UTF-8
Language: en
Country: US
--></g></svg>