<?xml version="1.0" encoding="UTF-8" standalone="no"?><svg xmlns="http://www.w3.org/2000/svg" xmlns:xlink="http://www.w3.org/1999/xlink" contentScriptType="application/ecmascript" contentStyleType="text/css" height="533px" preserveAspectRatio="none" style="width:433px;height:533px;" version="1.1" viewBox="0 0 433 533" width="433px" zoomAndPan="magnify"><defs><filter height="300%" id="f6v4a3heb6qn0" width="300%" x="-1" y="-1"><feGaussianBlur result="blurOut" stdDeviation="2.0"/><feColorMatrix in="blurOut" result="blurOut2" type="matrix" values="0 0 0 0 0 0 0 0 0 0 0 0 0 0 0 0 0 0 .4 0"/><feOffset dx="4.0" dy="4.0" in="blurOut2" result="blurOut3"/><feBlend in="SourceGraphic" in2="blurOut3" mode="normal"/></filter></defs><g><!--MD5=[5103e3471bf31fadd75905833dcba617]
class LoginController--><rect codeLine="1" fill="#FEFECE" filter="url(#f6v4a3heb6qn0)" height="99.2188" id="LoginController" style="stroke:#A80036;stroke-width:1.5;" width="210" x="119" y="115"/><ellipse cx="174.25" cy="131" fill="#ADD1B2" rx="11" ry="11" style="stroke:#A80036;stroke-width:1.0;"/><path d="M176.5938,126.6719 C175.6563,126.2344 175.0625,126.0938 174.1875,126.0938 C171.5625,126.0938 169.5625,128.1719 169.5625,130.8906 L169.5625,132.0156 C169.5625,134.5938 171.6719,136.4844 174.5625,136.4844 C175.7813,136.4844 176.9375,136.1875 177.6875,135.6406 C178.2656,135.2344 178.5938,134.7813 178.5938,134.3906 C178.5938,133.9375 178.2031,133.5469 177.7344,133.5469 C177.5156,133.5469 177.3125,133.625 177.125,133.8125 C176.6719,134.2969 176.6719,134.2969 176.4844,134.3906 C176.0625,134.6563 175.375,134.7813 174.6094,134.7813 C172.5625,134.7813 171.2656,133.6875 171.2656,131.9844 L171.2656,130.8906 C171.2656,129.1094 172.5156,127.7969 174.25,127.7969 C174.8281,127.7969 175.4375,127.9531 175.9063,128.2031 C176.3906,128.4844 176.5625,128.7031 176.6563,129.1094 C176.7188,129.5156 176.75,129.6406 176.8906,129.7656 C177.0313,129.9063 177.2656,130.0156 177.4844,130.0156 C177.75,130.0156 178.0156,129.875 178.1875,129.6563 C178.2969,129.5 178.3281,129.3125 178.3281,128.8906 L178.3281,127.4688 C178.3281,127.0313 178.3125,126.9063 178.2188,126.75 C178.0625,126.4844 177.7813,126.3438 177.4844,126.3438 C177.1875,126.3438 176.9844,126.4375 176.7656,126.75 L176.5938,126.6719 Z " fill="#000000"/><text fill="#000000" font-family="sans-serif" font-size="12" lengthAdjust="spacing" textLength="91" x="194.75" y="135.1543">LoginController</text><line style="stroke:#A80036;stroke-width:1.5;" x1="120" x2="328" y1="147" y2="147"/><line style="stroke:#A80036;stroke-width:1.5;" x1="120" x2="328" y1="155" y2="155"/><text fill="#000000" font-family="sans-serif" font-size="11" lengthAdjust="spacing" textLength="142" x="125" y="169.2104">authenticateLogin(email)</text><text fill="#000000" font-family="sans-serif" font-size="11" lengthAdjust="spacing" textLength="198" x="125" y="182.0151">checkCredentials(email, password)</text><text fill="#000000" font-family="sans-serif" font-size="11" lengthAdjust="spacing" textLength="131" x="125" y="194.8198">getUserByEmail(email)</text><text fill="#000000" font-family="sans-serif" font-size="11" lengthAdjust="spacing" textLength="77" x="125" y="207.6245">setUser(user)</text><!--MD5=[963343b82525635de3374bcb96d0dfc1]
class LoginUI--><rect codeLine="9" fill="#FEFECE" filter="url(#f6v4a3heb6qn0)" height="48" id="LoginUI" style="stroke:#A80036;stroke-width:1.5;" width="76" x="186" y="7"/><ellipse cx="201" cy="23" fill="#ADD1B2" rx="11" ry="11" style="stroke:#A80036;stroke-width:1.0;"/><path d="M203.3438,18.6719 C202.4063,18.2344 201.8125,18.0938 200.9375,18.0938 C198.3125,18.0938 196.3125,20.1719 196.3125,22.8906 L196.3125,24.0156 C196.3125,26.5938 198.4219,28.4844 201.3125,28.4844 C202.5313,28.4844 203.6875,28.1875 204.4375,27.6406 C205.0156,27.2344 205.3438,26.7813 205.3438,26.3906 C205.3438,25.9375 204.9531,25.5469 204.4844,25.5469 C204.2656,25.5469 204.0625,25.625 203.875,25.8125 C203.4219,26.2969 203.4219,26.2969 203.2344,26.3906 C202.8125,26.6563 202.125,26.7813 201.3594,26.7813 C199.3125,26.7813 198.0156,25.6875 198.0156,23.9844 L198.0156,22.8906 C198.0156,21.1094 199.2656,19.7969 201,19.7969 C201.5781,19.7969 202.1875,19.9531 202.6563,20.2031 C203.1406,20.4844 203.3125,20.7031 203.4063,21.1094 C203.4688,21.5156 203.5,21.6406 203.6406,21.7656 C203.7813,21.9063 204.0156,22.0156 204.2344,22.0156 C204.5,22.0156 204.7656,21.875 204.9375,21.6563 C205.0469,21.5 205.0781,21.3125 205.0781,20.8906 L205.0781,19.4688 C205.0781,19.0313 205.0625,18.9063 204.9688,18.75 C204.8125,18.4844 204.5313,18.3438 204.2344,18.3438 C203.9375,18.3438 203.7344,18.4375 203.5156,18.75 L203.3438,18.6719 Z " fill="#000000"/><text fill="#000000" font-family="sans-serif" font-size="12" lengthAdjust="spacing" textLength="44" x="215" y="27.1543">LoginUI</text><line style="stroke:#A80036;stroke-width:1.5;" x1="187" x2="261" y1="39" y2="39"/><line style="stroke:#A80036;stroke-width:1.5;" x1="187" x2="261" y1="47" y2="47"/><!--MD5=[837d3612090b426002fd1342fcbe6b88]
class DataBase--><rect codeLine="12" fill="#FEFECE" filter="url(#f6v4a3heb6qn0)" height="86.4141" id="DataBase" style="stroke:#A80036;stroke-width:1.5;" width="210" x="7" y="433"/><ellipse cx="79.25" cy="449" fill="#ADD1B2" rx="11" ry="11" style="stroke:#A80036;stroke-width:1.0;"/><path d="M81.5938,444.6719 C80.6563,444.2344 80.0625,444.0938 79.1875,444.0938 C76.5625,444.0938 74.5625,446.1719 74.5625,448.8906 L74.5625,450.0156 C74.5625,452.5938 76.6719,454.4844 79.5625,454.4844 C80.7813,454.4844 81.9375,454.1875 82.6875,453.6406 C83.2656,453.2344 83.5938,452.7813 83.5938,452.3906 C83.5938,451.9375 83.2031,451.5469 82.7344,451.5469 C82.5156,451.5469 82.3125,451.625 82.125,451.8125 C81.6719,452.2969 81.6719,452.2969 81.4844,452.3906 C81.0625,452.6563 80.375,452.7813 79.6094,452.7813 C77.5625,452.7813 76.2656,451.6875 76.2656,449.9844 L76.2656,448.8906 C76.2656,447.1094 77.5156,445.7969 79.25,445.7969 C79.8281,445.7969 80.4375,445.9531 80.9063,446.2031 C81.3906,446.4844 81.5625,446.7031 81.6563,447.1094 C81.7188,447.5156 81.75,447.6406 81.8906,447.7656 C82.0313,447.9063 82.2656,448.0156 82.4844,448.0156 C82.75,448.0156 83.0156,447.875 83.1875,447.6563 C83.2969,447.5 83.3281,447.3125 83.3281,446.8906 L83.3281,445.4688 C83.3281,445.0313 83.3125,444.9063 83.2188,444.75 C83.0625,444.4844 82.7813,444.3438 82.4844,444.3438 C82.1875,444.3438 81.9844,444.4375 81.7656,444.75 L81.5938,444.6719 Z " fill="#000000"/><text fill="#000000" font-family="sans-serif" font-size="12" lengthAdjust="spacing" textLength="57" x="99.75" y="453.1543">DataBase</text><line style="stroke:#A80036;stroke-width:1.5;" x1="8" x2="216" y1="465" y2="465"/><line style="stroke:#A80036;stroke-width:1.5;" x1="8" x2="216" y1="473" y2="473"/><text fill="#000000" font-family="sans-serif" font-size="11" lengthAdjust="spacing" textLength="104" x="13" y="487.2104">checkEmail(email)</text><text fill="#000000" font-family="sans-serif" font-size="11" lengthAdjust="spacing" textLength="198" x="13" y="500.0151">checkCredentials(email, password)</text><text fill="#000000" font-family="sans-serif" font-size="11" lengthAdjust="spacing" textLength="131" x="13" y="512.8198">getUserByEmail(email)</text><!--MD5=[c5b08e60048ef1bcd788d24cf324082e]
class UserSession--><rect codeLine="18" fill="#FEFECE" filter="url(#f6v4a3heb6qn0)" height="60.8047" id="UserSession" style="stroke:#A80036;stroke-width:1.5;" width="167" x="252.5" y="445.5"/><ellipse cx="293.6" cy="461.5" fill="#ADD1B2" rx="11" ry="11" style="stroke:#A80036;stroke-width:1.0;"/><path d="M295.9438,457.1719 C295.0063,456.7344 294.4125,456.5938 293.5375,456.5938 C290.9125,456.5938 288.9125,458.6719 288.9125,461.3906 L288.9125,462.5156 C288.9125,465.0938 291.0219,466.9844 293.9125,466.9844 C295.1313,466.9844 296.2875,466.6875 297.0375,466.1406 C297.6156,465.7344 297.9438,465.2813 297.9438,464.8906 C297.9438,464.4375 297.5531,464.0469 297.0844,464.0469 C296.8656,464.0469 296.6625,464.125 296.475,464.3125 C296.0219,464.7969 296.0219,464.7969 295.8344,464.8906 C295.4125,465.1563 294.725,465.2813 293.9594,465.2813 C291.9125,465.2813 290.6156,464.1875 290.6156,462.4844 L290.6156,461.3906 C290.6156,459.6094 291.8656,458.2969 293.6,458.2969 C294.1781,458.2969 294.7875,458.4531 295.2563,458.7031 C295.7406,458.9844 295.9125,459.2031 296.0063,459.6094 C296.0688,460.0156 296.1,460.1406 296.2406,460.2656 C296.3813,460.4063 296.6156,460.5156 296.8344,460.5156 C297.1,460.5156 297.3656,460.375 297.5375,460.1563 C297.6469,460 297.6781,459.8125 297.6781,459.3906 L297.6781,457.9688 C297.6781,457.5313 297.6625,457.4063 297.5688,457.25 C297.4125,456.9844 297.1313,456.8438 296.8344,456.8438 C296.5375,456.8438 296.3344,456.9375 296.1156,457.25 L295.9438,457.1719 Z " fill="#000000"/><text fill="#000000" font-family="sans-serif" font-size="12" lengthAdjust="spacing" textLength="77" x="313.4" y="465.6543">UserSession</text><line style="stroke:#A80036;stroke-width:1.5;" x1="253.5" x2="418.5" y1="477.5" y2="477.5"/><line style="stroke:#A80036;stroke-width:1.5;" x1="253.5" x2="418.5" y1="485.5" y2="485.5"/><text fill="#000000" font-family="sans-serif" font-size="11" lengthAdjust="spacing" textLength="155" x="258.5" y="499.7104">getInstance().setUser(user)</text><!--MD5=[d72f52500dae12b8be7f8b7cd0e110ac]
class LoginHandler--><rect codeLine="23" fill="#FEFECE" filter="url(#f6v4a3heb6qn0)" height="99.2188" id="LoginHandler" style="stroke:#A80036;stroke-width:1.5;" width="214" x="117" y="274"/><ellipse cx="180.25" cy="290" fill="#ADD1B2" rx="11" ry="11" style="stroke:#A80036;stroke-width:1.0;"/><path d="M182.5938,285.6719 C181.6563,285.2344 181.0625,285.0938 180.1875,285.0938 C177.5625,285.0938 175.5625,287.1719 175.5625,289.8906 L175.5625,291.0156 C175.5625,293.5938 177.6719,295.4844 180.5625,295.4844 C181.7813,295.4844 182.9375,295.1875 183.6875,294.6406 C184.2656,294.2344 184.5938,293.7813 184.5938,293.3906 C184.5938,292.9375 184.2031,292.5469 183.7344,292.5469 C183.5156,292.5469 183.3125,292.625 183.125,292.8125 C182.6719,293.2969 182.6719,293.2969 182.4844,293.3906 C182.0625,293.6563 181.375,293.7813 180.6094,293.7813 C178.5625,293.7813 177.2656,292.6875 177.2656,290.9844 L177.2656,289.8906 C177.2656,288.1094 178.5156,286.7969 180.25,286.7969 C180.8281,286.7969 181.4375,286.9531 181.9063,287.2031 C182.3906,287.4844 182.5625,287.7031 182.6563,288.1094 C182.7188,288.5156 182.75,288.6406 182.8906,288.7656 C183.0313,288.9063 183.2656,289.0156 183.4844,289.0156 C183.75,289.0156 184.0156,288.875 184.1875,288.6563 C184.2969,288.5 184.3281,288.3125 184.3281,287.8906 L184.3281,286.4688 C184.3281,286.0313 184.3125,285.9063 184.2188,285.75 C184.0625,285.4844 183.7813,285.3438 183.4844,285.3438 C183.1875,285.3438 182.9844,285.4375 182.7656,285.75 L182.5938,285.6719 Z " fill="#000000"/><text fill="#000000" font-family="sans-serif" font-size="12" lengthAdjust="spacing" textLength="79" x="200.75" y="294.1543">LoginHandler</text><line style="stroke:#A80036;stroke-width:1.5;" x1="118" x2="330" y1="306" y2="306"/><line style="stroke:#A80036;stroke-width:1.5;" x1="118" x2="330" y1="314" y2="314"/><text fill="#000000" font-family="sans-serif" font-size="11" lengthAdjust="spacing" textLength="202" x="123" y="328.2104">authenticateLogin(email, password)</text><text fill="#000000" font-family="sans-serif" font-size="11" lengthAdjust="spacing" textLength="76" x="123" y="341.0151">setuser(user)</text><text fill="#000000" font-family="sans-serif" font-size="11" lengthAdjust="spacing" textLength="198" x="123" y="353.8198">checkCredentials(email, password)</text><text fill="#000000" font-family="sans-serif" font-size="11" lengthAdjust="spacing" textLength="131" x="123" y="366.6245">getUserByEmail(email)</text><!--MD5=[6eb40b7e2b28e3e84cf68ec0bdf96d8e]
link LoginUI to LoginController--><path codeLine="30" d="M224,55.207 C224,70.304 224,90.644 224,109.621 " fill="none" id="LoginUI-to-LoginController" style="stroke:#A80036;stroke-width:1.0;stroke-dasharray:7.0,7.0;"/><polygon fill="#A80036" points="224,114.931,228,105.931,224,109.931,220,105.931,224,114.931" style="stroke:#A80036;stroke-width:1.0;"/><!--MD5=[5bb00d553e59aaa6ad755af2bdaee034]
link LoginController to LoginHandler--><path codeLine="31" d="M224,214.315 C224,231.528 224,250.973 224,268.583 " fill="none" id="LoginController-to-LoginHandler" style="stroke:#A80036;stroke-width:1.0;stroke-dasharray:7.0,7.0;"/><polygon fill="#A80036" points="224,273.985,228,264.985,224,268.985,220,264.985,224,273.985" style="stroke:#A80036;stroke-width:1.0;"/><!--MD5=[041725c5d2e2d5681f75a2043755a768]
link LoginHandler to UserSession--><path codeLine="32" d="M260.363,373.363 C276.822,395.479 295.871,421.0768 310.735,441.0504 " fill="none" id="LoginHandler-to-UserSession" style="stroke:#A80036;stroke-width:1.0;stroke-dasharray:7.0,7.0;"/><polygon fill="#A80036" points="313.841,445.2239,311.677,435.6157,310.856,441.2127,305.2591,440.3917,313.841,445.2239" style="stroke:#A80036;stroke-width:1.0;"/><!--MD5=[3802ff8710574a8f038cb3847d885e12]
link LoginHandler to DataBase--><path codeLine="33" d="M187.637,373.363 C174.447,391.087 159.593,411.047 146.563,428.5564 " fill="none" id="LoginHandler-to-DataBase" style="stroke:#A80036;stroke-width:1.0;stroke-dasharray:7.0,7.0;"/><polygon fill="#A80036" points="143.291,432.9523,151.8729,428.1201,146.276,428.9411,145.455,423.3441,143.291,432.9523" style="stroke:#A80036;stroke-width:1.0;"/><!--MD5=[7a823dbbeece39b949bed6c11e0e736f]
@startuml
class LoginController {
  authenticateLogin(email)
  checkCredentials(email, password)
  getUserByEmail(email)
  setUser(user)
}


class LoginUI {
}

class DataBase {
 checkEmail(email)
  checkCredentials(email, password)
  getUserByEmail(email)
}

class UserSession {
getInstance().setUser(user)
}


class LoginHandler {
  authenticateLogin(email, password)
  setuser(user)
  checkCredentials(email, password)
  getUserByEmail(email)
}

LoginUI ..> LoginController
LoginController ..> LoginHandler
LoginHandler ..> UserSession
LoginHandler ..> DataBase
@enduml

PlantUML version 1.2020.27beta7(Unknown compile time)
(GPL source distribution)
Java Runtime: Java(TM) SE Runtime Environment
JVM: Java HotSpot(TM) 64-Bit Server VM
Default Encoding: UTF-8
Language: en
Country: US
--></g></svg>