<?xml version="1.0" encoding="UTF-8" standalone="no"?><svg xmlns="http://www.w3.org/2000/svg" xmlns:xlink="http://www.w3.org/1999/xlink" contentScriptType="application/ecmascript" contentStyleType="text/css" height="721px" preserveAspectRatio="none" style="width:1316px;height:721px;" version="1.1" viewBox="0 0 1316 721" width="1316px" zoomAndPan="magnify"><defs><filter height="300%" id="f1m7aoo5k52i4s" width="300%" x="-1" y="-1"><feGaussianBlur result="blurOut" stdDeviation="2.0"/><feColorMatrix in="blurOut" result="blurOut2" type="matrix" values="0 0 0 0 0 0 0 0 0 0 0 0 0 0 0 0 0 0 .4 0"/><feOffset dx="4.0" dy="4.0" in="blurOut2" result="blurOut3"/><feBlend in="SourceGraphic" in2="blurOut3" mode="normal"/></filter></defs><g><rect fill="#FFFFFF" filter="url(#f1m7aoo5k52i4s)" height="519.2793" style="stroke: #A80036; stroke-width: 1.0;" width="10" x="26" y="96.4883"/><rect fill="#FFFFFF" filter="url(#f1m7aoo5k52i4s)" height="44.6211" style="stroke: #A80036; stroke-width: 1.0;" width="10" x="317" y="117.7988"/><rect fill="#FFFFFF" filter="url(#f1m7aoo5k52i4s)" height="424.0371" style="stroke: #A80036; stroke-width: 1.0;" width="10" x="317" y="191.7305"/><rect fill="#FFFFFF" filter="url(#f1m7aoo5k52i4s)" height="373.416" style="stroke: #A80036; stroke-width: 1.0;" width="10" x="586" y="221.041"/><rect fill="#FFFFFF" filter="url(#f1m7aoo5k52i4s)" height="344.1055" style="stroke: #A80036; stroke-width: 1.0;" width="10" x="847" y="250.3516"/><rect fill="#FFFFFF" filter="url(#f1m7aoo5k52i4s)" height="22" style="stroke: #A80036; stroke-width: 1.0;" width="10" x="1228" y="572.457"/><rect fill="#FFFFFF" filter="url(#f1m7aoo5k52i4s)" height="250.4844" style="stroke: #000000; stroke-width: 2.0;" width="799.5" x="506" y="336.9727"/><rect fill="#FFFFFF" filter="url(#f1m7aoo5k52i4s)" height="147.5527" style="stroke: #000000; stroke-width: 2.0;" width="779.5" x="516" y="432.9043"/><line style="stroke: #A80036; stroke-width: 1.0; stroke-dasharray: 5.0,5.0;" x1="31" x2="31" y1="86.4883" y2="633.7676"/><line style="stroke: #A80036; stroke-width: 1.0; stroke-dasharray: 5.0,5.0;" x1="322" x2="322" y1="86.4883" y2="633.7676"/><line style="stroke: #A80036; stroke-width: 1.0; stroke-dasharray: 5.0,5.0;" x1="591" x2="591" y1="86.4883" y2="633.7676"/><line style="stroke: #A80036; stroke-width: 1.0; stroke-dasharray: 5.0,5.0;" x1="852" x2="852" y1="86.4883" y2="633.7676"/><line style="stroke: #A80036; stroke-width: 1.0; stroke-dasharray: 5.0,5.0;" x1="1232.5" x2="1232.5" y1="86.4883" y2="633.7676"/><text fill="#000000" font-family="sans-serif" font-size="14" lengthAdjust="spacingAndGlyphs" textLength="40" x="8" y="83.5352">Client</text><ellipse cx="31" cy="13" fill="#FEFECE" filter="url(#f1m7aoo5k52i4s)" rx="8" ry="8" style="stroke: #A80036; stroke-width: 2.0;"/><path d="M31,21 L31,48 M18,29 L44,29 M31,48 L18,63 M31,48 L44,63 " fill="none" filter="url(#f1m7aoo5k52i4s)" style="stroke: #A80036; stroke-width: 2.0;"/><text fill="#000000" font-family="sans-serif" font-size="14" lengthAdjust="spacingAndGlyphs" textLength="40" x="8" y="646.3027">Client</text><ellipse cx="31" cy="659.2559" fill="#FEFECE" filter="url(#f1m7aoo5k52i4s)" rx="8" ry="8" style="stroke: #A80036; stroke-width: 2.0;"/><path d="M31,667.2559 L31,694.2559 M18,675.2559 L44,675.2559 M31,694.2559 L18,709.2559 M31,694.2559 L44,709.2559 " fill="none" filter="url(#f1m7aoo5k52i4s)" style="stroke: #A80036; stroke-width: 2.0;"/><rect fill="#FEFECE" filter="url(#f1m7aoo5k52i4s)" height="30.4883" style="stroke: #A80036; stroke-width: 1.5;" width="70" x="285" y="51"/><text fill="#000000" font-family="sans-serif" font-size="14" lengthAdjust="spacingAndGlyphs" textLength="56" x="292" y="71.5352">:LoginUI</text><rect fill="#FEFECE" filter="url(#f1m7aoo5k52i4s)" height="30.4883" style="stroke: #A80036; stroke-width: 1.5;" width="70" x="285" y="632.7676"/><text fill="#000000" font-family="sans-serif" font-size="14" lengthAdjust="spacingAndGlyphs" textLength="56" x="292" y="653.3027">:LoginUI</text><rect fill="#FEFECE" filter="url(#f1m7aoo5k52i4s)" height="30.4883" style="stroke: #A80036; stroke-width: 1.5;" width="126" x="526" y="51"/><text fill="#000000" font-family="sans-serif" font-size="14" lengthAdjust="spacingAndGlyphs" textLength="112" x="533" y="71.5352">:LoginController</text><rect fill="#FEFECE" filter="url(#f1m7aoo5k52i4s)" height="30.4883" style="stroke: #A80036; stroke-width: 1.5;" width="126" x="526" y="632.7676"/><text fill="#000000" font-family="sans-serif" font-size="14" lengthAdjust="spacingAndGlyphs" textLength="112" x="533" y="653.3027">:LoginController</text><rect fill="#FEFECE" filter="url(#f1m7aoo5k52i4s)" height="30.4883" style="stroke: #A80036; stroke-width: 1.5;" width="110" x="795" y="51"/><text fill="#000000" font-family="sans-serif" font-size="14" lengthAdjust="spacingAndGlyphs" textLength="96" x="802" y="71.5352">:LoginHandler</text><rect fill="#FEFECE" filter="url(#f1m7aoo5k52i4s)" height="30.4883" style="stroke: #A80036; stroke-width: 1.5;" width="110" x="795" y="632.7676"/><text fill="#000000" font-family="sans-serif" font-size="14" lengthAdjust="spacingAndGlyphs" textLength="96" x="802" y="653.3027">:LoginHandler</text><rect fill="#FEFECE" filter="url(#f1m7aoo5k52i4s)" height="30.4883" style="stroke: #A80036; stroke-width: 1.5;" width="101" x="1180.5" y="51"/><text fill="#000000" font-family="sans-serif" font-size="14" lengthAdjust="spacingAndGlyphs" textLength="87" x="1187.5" y="71.5352">:UserSession</text><rect fill="#FEFECE" filter="url(#f1m7aoo5k52i4s)" height="30.4883" style="stroke: #A80036; stroke-width: 1.5;" width="101" x="1180.5" y="632.7676"/><text fill="#000000" font-family="sans-serif" font-size="14" lengthAdjust="spacingAndGlyphs" textLength="87" x="1187.5" y="653.3027">:UserSession</text><rect fill="#FFFFFF" filter="url(#f1m7aoo5k52i4s)" height="519.2793" style="stroke: #A80036; stroke-width: 1.0;" width="10" x="26" y="96.4883"/><rect fill="#FFFFFF" filter="url(#f1m7aoo5k52i4s)" height="44.6211" style="stroke: #A80036; stroke-width: 1.0;" width="10" x="317" y="117.7988"/><rect fill="#FFFFFF" filter="url(#f1m7aoo5k52i4s)" height="424.0371" style="stroke: #A80036; stroke-width: 1.0;" width="10" x="317" y="191.7305"/><rect fill="#FFFFFF" filter="url(#f1m7aoo5k52i4s)" height="373.416" style="stroke: #A80036; stroke-width: 1.0;" width="10" x="586" y="221.041"/><rect fill="#FFFFFF" filter="url(#f1m7aoo5k52i4s)" height="344.1055" style="stroke: #A80036; stroke-width: 1.0;" width="10" x="847" y="250.3516"/><rect fill="#FFFFFF" filter="url(#f1m7aoo5k52i4s)" height="22" style="stroke: #A80036; stroke-width: 1.0;" width="10" x="1228" y="572.457"/><polygon fill="#A80036" points="305,113.7988,315,117.7988,305,121.7988,309,117.7988" style="stroke: #A80036; stroke-width: 1.0;"/><line style="stroke: #A80036; stroke-width: 1.0;" x1="36" x2="311" y1="117.7988" y2="117.7988"/><text fill="#000000" font-family="sans-serif" font-size="13" font-weight="bold" lengthAdjust="spacingAndGlyphs" textLength="9" x="43" y="113.0566">1</text><text fill="#000000" font-family="sans-serif" font-size="13" lengthAdjust="spacingAndGlyphs" textLength="155" x="56" y="113.0566">begins the login process</text><polygon fill="#A80036" points="47,158.4199,37,162.4199,47,166.4199,43,162.4199" style="stroke: #A80036; stroke-width: 1.0;"/><line style="stroke: #A80036; stroke-width: 1.0; stroke-dasharray: 2.0,2.0;" x1="41" x2="321" y1="162.4199" y2="162.4199"/><text fill="#000000" font-family="sans-serif" font-size="13" font-weight="bold" lengthAdjust="spacingAndGlyphs" textLength="9" x="53" y="150.0225">2</text><text fill="#000000" font-family="sans-serif" font-size="13" lengthAdjust="spacingAndGlyphs" textLength="227" x="66" y="142.3672">requests information about the user</text><text fill="#000000" font-family="sans-serif" font-size="13" lengthAdjust="spacingAndGlyphs" textLength="137" x="66" y="157.6777">(e.g. email, password)</text><polygon fill="#A80036" points="305,187.7305,315,191.7305,305,195.7305,309,191.7305" style="stroke: #A80036; stroke-width: 1.0;"/><line style="stroke: #A80036; stroke-width: 1.0; stroke-dasharray: 2.0,2.0;" x1="36" x2="311" y1="191.7305" y2="191.7305"/><text fill="#000000" font-family="sans-serif" font-size="13" font-weight="bold" lengthAdjust="spacingAndGlyphs" textLength="9" x="43" y="186.9883">3</text><text fill="#000000" font-family="sans-serif" font-size="13" lengthAdjust="spacingAndGlyphs" textLength="153" x="56" y="186.9883">enter the requested data</text><polygon fill="#A80036" points="574,217.041,584,221.041,574,225.041,578,221.041" style="stroke: #A80036; stroke-width: 1.0;"/><line style="stroke: #A80036; stroke-width: 1.0; stroke-dasharray: 2.0,2.0;" x1="327" x2="580" y1="221.041" y2="221.041"/><text fill="#000000" font-family="sans-serif" font-size="13" font-weight="bold" lengthAdjust="spacingAndGlyphs" textLength="9" x="334" y="216.2988">4</text><text fill="#000000" font-family="sans-serif" font-size="13" lengthAdjust="spacingAndGlyphs" textLength="227" x="347" y="216.2988">authenticateLogin (email, password)</text><polygon fill="#A80036" points="835,246.3516,845,250.3516,835,254.3516,839,250.3516" style="stroke: #A80036; stroke-width: 1.0;"/><line style="stroke: #A80036; stroke-width: 1.0; stroke-dasharray: 2.0,2.0;" x1="596" x2="841" y1="250.3516" y2="250.3516"/><text fill="#000000" font-family="sans-serif" font-size="13" font-weight="bold" lengthAdjust="spacingAndGlyphs" textLength="9" x="603" y="245.6094">5</text><text fill="#000000" font-family="sans-serif" font-size="13" lengthAdjust="spacingAndGlyphs" textLength="219" x="616" y="245.6094">authenticateLogin(email,password)</text><line style="stroke: #A80036; stroke-width: 1.0; stroke-dasharray: 2.0,2.0;" x1="857" x2="899" y1="279.6621" y2="279.6621"/><line style="stroke: #A80036; stroke-width: 1.0; stroke-dasharray: 2.0,2.0;" x1="899" x2="899" y1="279.6621" y2="292.6621"/><line style="stroke: #A80036; stroke-width: 1.0; stroke-dasharray: 2.0,2.0;" x1="858" x2="899" y1="292.6621" y2="292.6621"/><polygon fill="#A80036" points="868,288.6621,858,292.6621,868,296.6621,864,292.6621" style="stroke: #A80036; stroke-width: 1.0;"/><text fill="#000000" font-family="sans-serif" font-size="13" font-weight="bold" lengthAdjust="spacingAndGlyphs" textLength="9" x="864" y="274.9199">6</text><text fill="#000000" font-family="sans-serif" font-size="13" lengthAdjust="spacingAndGlyphs" textLength="202" x="877" y="274.9199">checkEmail = checkEmail(email)</text><polygon fill="#A80036" points="607,317.9727,597,321.9727,607,325.9727,603,321.9727" style="stroke: #A80036; stroke-width: 1.0;"/><line style="stroke: #A80036; stroke-width: 1.0; stroke-dasharray: 2.0,2.0;" x1="601" x2="846" y1="321.9727" y2="321.9727"/><text fill="#000000" font-family="sans-serif" font-size="13" font-weight="bold" lengthAdjust="spacingAndGlyphs" textLength="9" x="613" y="317.2305">7</text><text fill="#000000" font-family="sans-serif" font-size="13" lengthAdjust="spacingAndGlyphs" textLength="71" x="626" y="317.2305">checkEmail</text><path d="M506,336.9727 L573,336.9727 L573,343.9727 L563,353.9727 L506,353.9727 L506,336.9727 " fill="#EEEEEE" style="stroke: #000000; stroke-width: 1.0;"/><rect fill="none" height="250.4844" style="stroke: #000000; stroke-width: 2.0;" width="799.5" x="506" y="336.9727"/><text fill="#000000" font-family="sans-serif" font-size="13" font-weight="bold" lengthAdjust="spacingAndGlyphs" textLength="22" x="521" y="350.541">opt</text><a href="" target="_top" title="" xlink:actuate="onRequest" xlink:href="" xlink:show="new" xlink:title="" xlink:type="simple"><text fill="#0000FF" font-family="sans-serif" font-size="11" font-weight="bold" lengthAdjust="spacingAndGlyphs" text-decoration="underline" textLength="114" x="588" y="349.6074">CheckEmail == true</text></a><line style="stroke: #A80036; stroke-width: 1.0; stroke-dasharray: 2.0,2.0;" x1="857" x2="899" y1="375.5938" y2="375.5938"/><line style="stroke: #A80036; stroke-width: 1.0; stroke-dasharray: 2.0,2.0;" x1="899" x2="899" y1="375.5938" y2="388.5938"/><line style="stroke: #A80036; stroke-width: 1.0; stroke-dasharray: 2.0,2.0;" x1="858" x2="899" y1="388.5938" y2="388.5938"/><polygon fill="#A80036" points="868,384.5938,858,388.5938,868,392.5938,864,388.5938" style="stroke: #A80036; stroke-width: 1.0;"/><text fill="#000000" font-family="sans-serif" font-size="13" font-weight="bold" lengthAdjust="spacingAndGlyphs" textLength="9" x="864" y="370.8516">8</text><text fill="#000000" font-family="sans-serif" font-size="13" lengthAdjust="spacingAndGlyphs" textLength="344" x="877" y="370.8516">checkCredentials = checkCredentials(email, password)</text><polygon fill="#A80036" points="607,413.9043,597,417.9043,607,421.9043,603,417.9043" style="stroke: #A80036; stroke-width: 1.0;"/><line style="stroke: #A80036; stroke-width: 1.0; stroke-dasharray: 2.0,2.0;" x1="601" x2="846" y1="417.9043" y2="417.9043"/><text fill="#000000" font-family="sans-serif" font-size="13" font-weight="bold" lengthAdjust="spacingAndGlyphs" textLength="9" x="613" y="413.1621">9</text><text fill="#000000" font-family="sans-serif" font-size="13" lengthAdjust="spacingAndGlyphs" textLength="108" x="626" y="413.1621">checkCredentials</text><path d="M516,432.9043 L583,432.9043 L583,439.9043 L573,449.9043 L516,449.9043 L516,432.9043 " fill="#EEEEEE" style="stroke: #000000; stroke-width: 1.0;"/><rect fill="none" height="147.5527" style="stroke: #000000; stroke-width: 2.0;" width="779.5" x="516" y="432.9043"/><text fill="#000000" font-family="sans-serif" font-size="13" font-weight="bold" lengthAdjust="spacingAndGlyphs" textLength="22" x="531" y="446.4727">opt</text><a href="" target="_top" title="" xlink:actuate="onRequest" xlink:href="" xlink:show="new" xlink:title="" xlink:type="simple"><text fill="#0000FF" font-family="sans-serif" font-size="11" font-weight="bold" lengthAdjust="spacingAndGlyphs" text-decoration="underline" textLength="143" x="598" y="445.5391">checkCredentials == true</text></a><polygon fill="#A80036" points="835,467.5254,845,471.5254,835,475.5254,839,471.5254" style="stroke: #A80036; stroke-width: 1.0;"/><line style="stroke: #A80036; stroke-width: 1.0; stroke-dasharray: 2.0,2.0;" x1="596" x2="841" y1="471.5254" y2="471.5254"/><text fill="#000000" font-family="sans-serif" font-size="13" font-weight="bold" lengthAdjust="spacingAndGlyphs" textLength="18" x="603" y="466.7832">10</text><text fill="#000000" font-family="sans-serif" font-size="13" lengthAdjust="spacingAndGlyphs" textLength="183" x="625" y="466.7832">user = getUserByEmail(email)</text><line style="stroke: #A80036; stroke-width: 1.0; stroke-dasharray: 2.0,2.0;" x1="857" x2="899" y1="500.8359" y2="500.8359"/><line style="stroke: #A80036; stroke-width: 1.0; stroke-dasharray: 2.0,2.0;" x1="899" x2="899" y1="500.8359" y2="513.8359"/><line style="stroke: #A80036; stroke-width: 1.0; stroke-dasharray: 2.0,2.0;" x1="858" x2="899" y1="513.8359" y2="513.8359"/><polygon fill="#A80036" points="868,509.8359,858,513.8359,868,517.8359,864,513.8359" style="stroke: #A80036; stroke-width: 1.0;"/><text fill="#000000" font-family="sans-serif" font-size="13" font-weight="bold" lengthAdjust="spacingAndGlyphs" textLength="18" x="864" y="496.0938">11</text><text fill="#000000" font-family="sans-serif" font-size="13" lengthAdjust="spacingAndGlyphs" textLength="138" x="886" y="496.0938">getUserByEmail(email)</text><polygon fill="#A80036" points="835,539.1465,845,543.1465,835,547.1465,839,543.1465" style="stroke: #A80036; stroke-width: 1.0;"/><line style="stroke: #A80036; stroke-width: 1.0; stroke-dasharray: 2.0,2.0;" x1="596" x2="841" y1="543.1465" y2="543.1465"/><text fill="#000000" font-family="sans-serif" font-size="13" font-weight="bold" lengthAdjust="spacingAndGlyphs" textLength="18" x="603" y="538.4043">12</text><text fill="#000000" font-family="sans-serif" font-size="13" lengthAdjust="spacingAndGlyphs" textLength="82" x="625" y="538.4043">setUser(user)</text><polygon fill="#A80036" points="1216,568.457,1226,572.457,1216,576.457,1220,572.457" style="stroke: #A80036; stroke-width: 1.0;"/><line style="stroke: #A80036; stroke-width: 1.0; stroke-dasharray: 2.0,2.0;" x1="857" x2="1222" y1="572.457" y2="572.457"/><text fill="#000000" font-family="sans-serif" font-size="13" font-weight="bold" lengthAdjust="spacingAndGlyphs" textLength="18" x="864" y="567.7148">13</text><text fill="#000000" font-family="sans-serif" font-size="13" lengthAdjust="spacingAndGlyphs" textLength="167" x="886" y="567.7148">getInstance().setUser(user)</text><polygon fill="#A80036" points="42,611.7676,32,615.7676,42,619.7676,38,615.7676" style="stroke: #A80036; stroke-width: 1.0;"/><line style="stroke: #A80036; stroke-width: 1.0; stroke-dasharray: 2.0,2.0;" x1="36" x2="321" y1="615.7676" y2="615.7676"/><text fill="#000000" font-family="sans-serif" font-size="13" font-weight="bold" lengthAdjust="spacingAndGlyphs" textLength="18" x="48" y="611.0254">14</text><text fill="#000000" font-family="sans-serif" font-size="13" lengthAdjust="spacingAndGlyphs" textLength="235" x="70" y="611.0254">Sends a message about the operation</text><!--MD5=[6f12beb63faa82b41a71dbec9612f118]
@startuml
autonumber

actor "Client" as ADM
participant ":LoginUI" as UI
participant ":LoginController" as CTRL
participant ":LoginHandler" as USH
participant ":UserSession" as USS



activate ADM
ADM -> UI : begins the login process
activate UI

UI - -> ADM : requests information about the user \n(e.g. email, password)
deactivate UI

ADM- -> UI : enter the requested data
activate UI
UI - -> CTRL : authenticateLogin (email, password)
activate CTRL


CTRL - -> USH : authenticateLogin(email,password)
activate USH

USH - -> USH : checkEmail = checkEmail(email)
USH - -> CTRL: checkEmail
OPT [ CheckEmail == true ]
USH - -> USH : checkCredentials = checkCredentials(email, password)
USH - -> CTRL: checkCredentials
OPT [ checkCredentials == true ]
CTRL - -> USH : user = getUserByEmail(email)
USH - -> USH : getUserByEmail(email)
CTRL - -> USH : setUser(user)
USH - -> USS :  getInstance().setUser(user)
activate USS
end OPT
end OPT
deactivate USS
deactivate CTRL
deactivate USH




UI - -> ADM : Sends a message about the operation
deactivate UI

deactivate ADM
@enduml

PlantUML version 1.2020.09(Sun May 10 11:51:06 WEST 2020)
(GPL source distribution)
Java Runtime: OpenJDK Runtime Environment
JVM: OpenJDK 64-Bit Server VM
Java Version: 11.0.6+8-b765.40
Operating System: Mac OS X
Default Encoding: UTF-8
Language: pt
Country: PT
--></g></svg>