<?xml version="1.0" encoding="UTF-8" standalone="no"?><svg xmlns="http://www.w3.org/2000/svg" xmlns:xlink="http://www.w3.org/1999/xlink" contentScriptType="application/ecmascript" contentStyleType="text/css" height="367px" preserveAspectRatio="none" style="width:456px;height:367px;" version="1.1" viewBox="0 0 456 367" width="456px" zoomAndPan="magnify"><defs><filter height="300%" id="f1s9t1pq4zuw4o" width="300%" x="-1" y="-1"><feGaussianBlur result="blurOut" stdDeviation="2.0"/><feColorMatrix in="blurOut" result="blurOut2" type="matrix" values="0 0 0 0 0 0 0 0 0 0 0 0 0 0 0 0 0 0 .4 0"/><feOffset dx="4.0" dy="4.0" in="blurOut2" result="blurOut3"/><feBlend in="SourceGraphic" in2="blurOut3" mode="normal"/></filter></defs><g><rect fill="#FFFFFF" filter="url(#f1s9t1pq4zuw4o)" height="175.7969" style="stroke:#A80036;stroke-width:1.0;" width="10" x="48.5" y="98.2969"/><rect fill="#FFFFFF" filter="url(#f1s9t1pq4zuw4o)" height="29.1328" style="stroke:#A80036;stroke-width:1.0;" width="10" x="404.5" y="119.4297"/><rect fill="#FFFFFF" filter="url(#f1s9t1pq4zuw4o)" height="29.1328" style="stroke:#A80036;stroke-width:1.0;" width="10" x="404.5" y="177.6953"/><rect fill="#FFFFFF" filter="url(#f1s9t1pq4zuw4o)" height="29.1328" style="stroke:#A80036;stroke-width:1.0;" width="10" x="404.5" y="235.9609"/><line style="stroke:#A80036;stroke-width:1.0;stroke-dasharray:5.0,5.0;" x1="53" x2="53" y1="88.2969" y2="283.0938"/><line style="stroke:#A80036;stroke-width:1.0;stroke-dasharray:5.0,5.0;" x1="409.5" x2="409.5" y1="88.2969" y2="283.0938"/><text fill="#000000" font-family="sans-serif" font-size="14" lengthAdjust="spacingAndGlyphs" textLength="91" x="5" y="84.9951">Administrator</text><ellipse cx="53.5" cy="15" fill="#FEFECE" filter="url(#f1s9t1pq4zuw4o)" rx="8" ry="8" style="stroke:#A80036;stroke-width:2.0;"/><path d="M53.5,23 L53.5,50 M40.5,31 L66.5,31 M53.5,50 L40.5,65 M53.5,50 L66.5,65 " fill="none" filter="url(#f1s9t1pq4zuw4o)" style="stroke:#A80036;stroke-width:2.0;"/><text fill="#000000" font-family="sans-serif" font-size="14" lengthAdjust="spacingAndGlyphs" textLength="91" x="5" y="295.0889">Administrator</text><ellipse cx="53.5" cy="308.3906" fill="#FEFECE" filter="url(#f1s9t1pq4zuw4o)" rx="8" ry="8" style="stroke:#A80036;stroke-width:2.0;"/><path d="M53.5,316.3906 L53.5,343.3906 M40.5,324.3906 L66.5,324.3906 M53.5,343.3906 L40.5,358.3906 M53.5,343.3906 L66.5,358.3906 " fill="none" filter="url(#f1s9t1pq4zuw4o)" style="stroke:#A80036;stroke-width:2.0;"/><rect fill="#FEFECE" filter="url(#f1s9t1pq4zuw4o)" height="30.2969" style="stroke:#A80036;stroke-width:1.5;" width="70" x="372.5" y="53"/><text fill="#000000" font-family="sans-serif" font-size="14" lengthAdjust="spacingAndGlyphs" textLength="56" x="379.5" y="72.9951">:System</text><rect fill="#FEFECE" filter="url(#f1s9t1pq4zuw4o)" height="30.2969" style="stroke:#A80036;stroke-width:1.5;" width="70" x="372.5" y="282.0938"/><text fill="#000000" font-family="sans-serif" font-size="14" lengthAdjust="spacingAndGlyphs" textLength="56" x="379.5" y="302.0889">:System</text><rect fill="#FFFFFF" filter="url(#f1s9t1pq4zuw4o)" height="175.7969" style="stroke:#A80036;stroke-width:1.0;" width="10" x="48.5" y="98.2969"/><rect fill="#FFFFFF" filter="url(#f1s9t1pq4zuw4o)" height="29.1328" style="stroke:#A80036;stroke-width:1.0;" width="10" x="404.5" y="119.4297"/><rect fill="#FFFFFF" filter="url(#f1s9t1pq4zuw4o)" height="29.1328" style="stroke:#A80036;stroke-width:1.0;" width="10" x="404.5" y="177.6953"/><rect fill="#FFFFFF" filter="url(#f1s9t1pq4zuw4o)" height="29.1328" style="stroke:#A80036;stroke-width:1.0;" width="10" x="404.5" y="235.9609"/><polygon fill="#A80036" points="392.5,115.4297,402.5,119.4297,392.5,123.4297,396.5,119.4297" style="stroke:#A80036;stroke-width:1.0;"/><line style="stroke:#A80036;stroke-width:1.0;" x1="58.5" x2="398.5" y1="119.4297" y2="119.4297"/><text fill="#000000" font-family="sans-serif" font-size="13" font-weight="bold" lengthAdjust="spacingAndGlyphs" textLength="9" x="65.5" y="114.3638">1</text><text fill="#000000" font-family="sans-serif" font-size="13" lengthAdjust="spacingAndGlyphs" textLength="197" x="78.5" y="114.3638">chooses to remove a medicine</text><polygon fill="#A80036" points="69.5,144.5625,59.5,148.5625,69.5,152.5625,65.5,148.5625" style="stroke:#A80036;stroke-width:1.0;"/><line style="stroke:#A80036;stroke-width:1.0;stroke-dasharray:2.0,2.0;" x1="63.5" x2="408.5" y1="148.5625" y2="148.5625"/><text fill="#000000" font-family="sans-serif" font-size="13" font-weight="bold" lengthAdjust="spacingAndGlyphs" textLength="9" x="75.5" y="143.4966">2</text><text fill="#000000" font-family="sans-serif" font-size="13" lengthAdjust="spacingAndGlyphs" textLength="305" x="88.5" y="143.4966">requestes the id of the medicine to be removed</text><polygon fill="#A80036" points="392.5,173.6953,402.5,177.6953,392.5,181.6953,396.5,177.6953" style="stroke:#A80036;stroke-width:1.0;"/><line style="stroke:#A80036;stroke-width:1.0;" x1="58.5" x2="398.5" y1="177.6953" y2="177.6953"/><text fill="#000000" font-family="sans-serif" font-size="13" font-weight="bold" lengthAdjust="spacingAndGlyphs" textLength="9" x="65.5" y="172.6294">3</text><text fill="#000000" font-family="sans-serif" font-size="13" lengthAdjust="spacingAndGlyphs" textLength="81" x="78.5" y="172.6294">enters the id</text><polygon fill="#A80036" points="69.5,202.8281,59.5,206.8281,69.5,210.8281,65.5,206.8281" style="stroke:#A80036;stroke-width:1.0;"/><line style="stroke:#A80036;stroke-width:1.0;stroke-dasharray:2.0,2.0;" x1="63.5" x2="408.5" y1="206.8281" y2="206.8281"/><text fill="#000000" font-family="sans-serif" font-size="13" font-weight="bold" lengthAdjust="spacingAndGlyphs" textLength="9" x="75.5" y="201.7622">4</text><text fill="#000000" font-family="sans-serif" font-size="13" lengthAdjust="spacingAndGlyphs" textLength="309" x="88.5" y="201.7622">presents the medicine and asks for confirmation</text><polygon fill="#A80036" points="392.5,231.9609,402.5,235.9609,392.5,239.9609,396.5,235.9609" style="stroke:#A80036;stroke-width:1.0;"/><line style="stroke:#A80036;stroke-width:1.0;" x1="58.5" x2="398.5" y1="235.9609" y2="235.9609"/><text fill="#000000" font-family="sans-serif" font-size="13" font-weight="bold" lengthAdjust="spacingAndGlyphs" textLength="9" x="65.5" y="230.895">5</text><text fill="#000000" font-family="sans-serif" font-size="13" lengthAdjust="spacingAndGlyphs" textLength="55" x="78.5" y="230.895">confirms</text><polygon fill="#A80036" points="69.5,261.0938,59.5,265.0938,69.5,269.0938,65.5,265.0938" style="stroke:#A80036;stroke-width:1.0;"/><line style="stroke:#A80036;stroke-width:1.0;stroke-dasharray:2.0,2.0;" x1="63.5" x2="408.5" y1="265.0938" y2="265.0938"/><text fill="#000000" font-family="sans-serif" font-size="13" font-weight="bold" lengthAdjust="spacingAndGlyphs" textLength="9" x="75.5" y="260.0278">6</text><text fill="#000000" font-family="sans-serif" font-size="13" lengthAdjust="spacingAndGlyphs" textLength="202" x="88.5" y="260.0278">success removing the medicine</text><!--MD5=[315e8f0dc4539234f0bfad4091607349]
@startuml
autonumber
actor "Administrator" as Admin

activate Admin
Admin -> ":System" : chooses to remove a medicine
activate ":System"
":System" - -> Admin : requestes the id of the medicine to be removed
deactivate ":System"
Admin -> ":System" : enters the id
activate ":System"
":System" - -> Admin :  presents the medicine and asks for confirmation
deactivate ":System"

Admin -> ":System" : confirms
activate ":System"
":System" - -> Admin : success removing the medicine 
deactivate ":System"
@enduml

PlantUML version 1.2020.22(Sun Dec 06 09:36:27 UTC 2020)
(GPL source distribution)
Java Runtime: OpenJDK Runtime Environment
JVM: OpenJDK 64-Bit Server VM
Default Encoding: UTF-8
Language: en
Country: US
--></g></svg>