<?xml version="1.0" encoding="UTF-8" standalone="no"?><svg xmlns="http://www.w3.org/2000/svg" xmlns:xlink="http://www.w3.org/1999/xlink" contentScriptType="application/ecmascript" contentStyleType="text/css" height="425px" preserveAspectRatio="none" style="width:497px;height:425px;" version="1.1" viewBox="0 0 497 425" width="497px" zoomAndPan="magnify"><defs><filter height="300%" id="f1umpqnvasik76" width="300%" x="-1" y="-1"><feGaussianBlur result="blurOut" stdDeviation="2.0"/><feColorMatrix in="blurOut" result="blurOut2" type="matrix" values="0 0 0 0 0 0 0 0 0 0 0 0 0 0 0 0 0 0 .4 0"/><feOffset dx="4.0" dy="4.0" in="blurOut2" result="blurOut3"/><feBlend in="SourceGraphic" in2="blurOut3" mode="normal"/></filter></defs><g><rect fill="#FFFFFF" filter="url(#f1umpqnvasik76)" height="225.0625" style="stroke:#A80036;stroke-width:1.0;" width="10" x="26" y="98.2969"/><rect fill="#FFFFFF" filter="url(#f1umpqnvasik76)" height="29.1328" style="stroke:#A80036;stroke-width:1.0;" width="10" x="444" y="119.4297"/><rect fill="#FFFFFF" filter="url(#f1umpqnvasik76)" height="29.1328" style="stroke:#A80036;stroke-width:1.0;" width="10" x="444" y="177.6953"/><rect fill="#FFFFFF" filter="url(#f1umpqnvasik76)" height="29.1328" style="stroke:#A80036;stroke-width:1.0;" width="10" x="444" y="235.9609"/><rect fill="#FFFFFF" filter="url(#f1umpqnvasik76)" height="29.1328" style="stroke:#A80036;stroke-width:1.0;" width="10" x="444" y="294.2266"/><line style="stroke:#A80036;stroke-width:1.0;stroke-dasharray:5.0,5.0;" x1="31" x2="31" y1="88.2969" y2="341.3594"/><line style="stroke:#A80036;stroke-width:1.0;stroke-dasharray:5.0,5.0;" x1="448.5" x2="448.5" y1="88.2969" y2="341.3594"/><text fill="#000000" font-family="sans-serif" font-size="14" lengthAdjust="spacing" textLength="46" x="5" y="84.9951">Admin</text><ellipse cx="31" cy="15" fill="#FEFECE" filter="url(#f1umpqnvasik76)" rx="8" ry="8" style="stroke:#A80036;stroke-width:2.0;"/><path d="M31,23 L31,50 M18,31 L44,31 M31,50 L18,65 M31,50 L44,65 " fill="none" filter="url(#f1umpqnvasik76)" style="stroke:#A80036;stroke-width:2.0;"/><text fill="#000000" font-family="sans-serif" font-size="14" lengthAdjust="spacing" textLength="46" x="5" y="353.3545">Admin</text><ellipse cx="31" cy="366.6563" fill="#FEFECE" filter="url(#f1umpqnvasik76)" rx="8" ry="8" style="stroke:#A80036;stroke-width:2.0;"/><path d="M31,374.6563 L31,401.6563 M18,382.6563 L44,382.6563 M31,401.6563 L18,416.6563 M31,401.6563 L44,416.6563 " fill="none" filter="url(#f1umpqnvasik76)" style="stroke:#A80036;stroke-width:2.0;"/><rect fill="#FEFECE" filter="url(#f1umpqnvasik76)" height="30.2969" style="stroke:#A80036;stroke-width:1.5;" width="73" x="410.5" y="53"/><text fill="#000000" font-family="sans-serif" font-size="14" lengthAdjust="spacing" textLength="59" x="417.5" y="72.9951">:System</text><rect fill="#FEFECE" filter="url(#f1umpqnvasik76)" height="30.2969" style="stroke:#A80036;stroke-width:1.5;" width="73" x="410.5" y="340.3594"/><text fill="#000000" font-family="sans-serif" font-size="14" lengthAdjust="spacing" textLength="59" x="417.5" y="360.3545">:System</text><rect fill="#FFFFFF" filter="url(#f1umpqnvasik76)" height="225.0625" style="stroke:#A80036;stroke-width:1.0;" width="10" x="26" y="98.2969"/><rect fill="#FFFFFF" filter="url(#f1umpqnvasik76)" height="29.1328" style="stroke:#A80036;stroke-width:1.0;" width="10" x="444" y="119.4297"/><rect fill="#FFFFFF" filter="url(#f1umpqnvasik76)" height="29.1328" style="stroke:#A80036;stroke-width:1.0;" width="10" x="444" y="177.6953"/><rect fill="#FFFFFF" filter="url(#f1umpqnvasik76)" height="29.1328" style="stroke:#A80036;stroke-width:1.0;" width="10" x="444" y="235.9609"/><rect fill="#FFFFFF" filter="url(#f1umpqnvasik76)" height="29.1328" style="stroke:#A80036;stroke-width:1.0;" width="10" x="444" y="294.2266"/><polygon fill="#A80036" points="432,115.4297,442,119.4297,432,123.4297,436,119.4297" style="stroke:#A80036;stroke-width:1.0;"/><line style="stroke:#A80036;stroke-width:1.0;" x1="36" x2="438" y1="119.4297" y2="119.4297"/><text fill="#000000" font-family="sans-serif" font-size="13" font-weight="bold" lengthAdjust="spacing" textLength="9" x="43" y="114.3638">1</text><text fill="#000000" font-family="sans-serif" font-size="13" lengthAdjust="spacing" textLength="135" x="56" y="114.3638">Create a delivery run</text><polygon fill="#A80036" points="47,144.5625,37,148.5625,47,152.5625,43,148.5625" style="stroke:#A80036;stroke-width:1.0;"/><line style="stroke:#A80036;stroke-width:1.0;stroke-dasharray:2.0,2.0;" x1="41" x2="448" y1="148.5625" y2="148.5625"/><text fill="#000000" font-family="sans-serif" font-size="13" font-weight="bold" lengthAdjust="spacing" textLength="9" x="53" y="143.4966">2</text><text fill="#000000" font-family="sans-serif" font-size="13" lengthAdjust="spacing" textLength="254" x="66" y="143.4966">asks about the id of the order to deliver</text><polygon fill="#A80036" points="432,173.6953,442,177.6953,432,181.6953,436,177.6953" style="stroke:#A80036;stroke-width:1.0;"/><line style="stroke:#A80036;stroke-width:1.0;" x1="36" x2="438" y1="177.6953" y2="177.6953"/><text fill="#000000" font-family="sans-serif" font-size="13" font-weight="bold" lengthAdjust="spacing" textLength="8" x="43" y="172.6294">3</text><text fill="#000000" font-family="sans-serif" font-size="13" lengthAdjust="spacing" textLength="83" x="55" y="172.6294">inserts the id</text><polygon fill="#A80036" points="47,202.8281,37,206.8281,47,210.8281,43,206.8281" style="stroke:#A80036;stroke-width:1.0;"/><line style="stroke:#A80036;stroke-width:1.0;stroke-dasharray:2.0,2.0;" x1="41" x2="448" y1="206.8281" y2="206.8281"/><text fill="#000000" font-family="sans-serif" font-size="13" font-weight="bold" lengthAdjust="spacing" textLength="9" x="53" y="201.7622">4</text><text fill="#000000" font-family="sans-serif" font-size="13" lengthAdjust="spacing" textLength="224" x="66" y="201.7622">asks if he want to add another one</text><polygon fill="#A80036" points="432,231.9609,442,235.9609,432,239.9609,436,235.9609" style="stroke:#A80036;stroke-width:1.0;"/><line style="stroke:#A80036;stroke-width:1.0;" x1="36" x2="438" y1="235.9609" y2="235.9609"/><text fill="#000000" font-family="sans-serif" font-size="13" font-weight="bold" lengthAdjust="spacing" textLength="9" x="43" y="230.895">5</text><text fill="#000000" font-family="sans-serif" font-size="13" lengthAdjust="spacing" textLength="67" x="56" y="230.895">answer no</text><polygon fill="#A80036" points="47,261.0938,37,265.0938,47,269.0938,43,265.0938" style="stroke:#A80036;stroke-width:1.0;"/><line style="stroke:#A80036;stroke-width:1.0;stroke-dasharray:2.0,2.0;" x1="41" x2="448" y1="265.0938" y2="265.0938"/><text fill="#000000" font-family="sans-serif" font-size="13" font-weight="bold" lengthAdjust="spacing" textLength="9" x="53" y="260.0278">6</text><text fill="#000000" font-family="sans-serif" font-size="13" lengthAdjust="spacing" textLength="158" x="66" y="260.0278">asks wich path he wants</text><polygon fill="#A80036" points="432,290.2266,442,294.2266,432,298.2266,436,294.2266" style="stroke:#A80036;stroke-width:1.0;"/><line style="stroke:#A80036;stroke-width:1.0;" x1="36" x2="438" y1="294.2266" y2="294.2266"/><text fill="#000000" font-family="sans-serif" font-size="13" font-weight="bold" lengthAdjust="spacing" textLength="9" x="43" y="289.1606">7</text><text fill="#000000" font-family="sans-serif" font-size="13" lengthAdjust="spacing" textLength="105" x="56" y="289.1606">insert the option</text><polygon fill="#A80036" points="42,319.3594,32,323.3594,42,327.3594,38,323.3594" style="stroke:#A80036;stroke-width:1.0;"/><line style="stroke:#A80036;stroke-width:1.0;stroke-dasharray:2.0,2.0;" x1="36" x2="448" y1="323.3594" y2="323.3594"/><text fill="#000000" font-family="sans-serif" font-size="13" font-weight="bold" lengthAdjust="spacing" textLength="9" x="48" y="318.2935">8</text><text fill="#000000" font-family="sans-serif" font-size="13" lengthAdjust="spacing" textLength="371" x="61" y="318.2935">choose if the delivery is best when using scooter or drone</text><!--MD5=[5379bbbad72850b82871d115c4e19550]
@startuml
autonumber
actor "Admin" as ADM

activate ADM
ADM -> ":System" : Create a delivery run
activate ":System"
":System" - -> ADM : asks about the id of the order to deliver
deactivate ":System"

ADM -> ":System" : inserts the id
activate ":System"
":System" - -> ADM : asks if he want to add another one
deactivate ":System"

ADM -> ":System" : answer no
activate ":System"
":System" - -> ADM : asks wich path he wants
deactivate ":System"


ADM -> ":System" : insert the option
activate ":System"
":System" - -> ADM : choose if the delivery is best when using scooter or drone
deactivate ":System"

deactivate ADM
@enduml

PlantUML version 1.2021.01beta3(Unknown compile time)
(GPL source distribution)
Java Runtime: Java(TM) SE Runtime Environment
JVM: Java HotSpot(TM) 64-Bit Server VM
Default Encoding: UTF-8
Language: en
Country: US
--></g></svg>