<?xml version="1.0" encoding="UTF-8" standalone="no"?><svg xmlns="http://www.w3.org/2000/svg" xmlns:xlink="http://www.w3.org/1999/xlink" contentScriptType="application/ecmascript" contentStyleType="text/css" height="556px" preserveAspectRatio="none" style="width:422px;height:556px;" version="1.1" viewBox="0 0 422 556" width="422px" zoomAndPan="magnify"><defs><filter height="300%" id="focnest7o479y" width="300%" x="-1" y="-1"><feGaussianBlur result="blurOut" stdDeviation="2.0"/><feColorMatrix in="blurOut" result="blurOut2" type="matrix" values="0 0 0 0 0 0 0 0 0 0 0 0 0 0 0 0 0 0 .4 0"/><feOffset dx="4.0" dy="4.0" in="blurOut2" result="blurOut3"/><feBlend in="SourceGraphic" in2="blurOut3" mode="normal"/></filter></defs><g><!--MD5=[bf12d96c92a5a224f813fdbdeb3dedac]
class RemoveMedicineController--><rect codeLine="3" fill="#FEFECE" filter="url(#focnest7o479y)" height="60.8047" id="RemoveMedicineController" style="stroke:#A80036;stroke-width:1.5;" width="194" x="214" y="122.5"/><ellipse cx="229" cy="138.5" fill="#ADD1B2" rx="11" ry="11" style="stroke:#A80036;stroke-width:1.0;"/><path d="M231.3438,134.1719 C230.4063,133.7344 229.8125,133.5938 228.9375,133.5938 C226.3125,133.5938 224.3125,135.6719 224.3125,138.3906 L224.3125,139.5156 C224.3125,142.0938 226.4219,143.9844 229.3125,143.9844 C230.5313,143.9844 231.6875,143.6875 232.4375,143.1406 C233.0156,142.7344 233.3438,142.2813 233.3438,141.8906 C233.3438,141.4375 232.9531,141.0469 232.4844,141.0469 C232.2656,141.0469 232.0625,141.125 231.875,141.3125 C231.4219,141.7969 231.4219,141.7969 231.2344,141.8906 C230.8125,142.1563 230.125,142.2813 229.3594,142.2813 C227.3125,142.2813 226.0156,141.1875 226.0156,139.4844 L226.0156,138.3906 C226.0156,136.6094 227.2656,135.2969 229,135.2969 C229.5781,135.2969 230.1875,135.4531 230.6563,135.7031 C231.1406,135.9844 231.3125,136.2031 231.4063,136.6094 C231.4688,137.0156 231.5,137.1406 231.6406,137.2656 C231.7813,137.4063 232.0156,137.5156 232.2344,137.5156 C232.5,137.5156 232.7656,137.375 232.9375,137.1563 C233.0469,137 233.0781,136.8125 233.0781,136.3906 L233.0781,134.9688 C233.0781,134.5313 233.0625,134.4063 232.9688,134.25 C232.8125,133.9844 232.5313,133.8438 232.2344,133.8438 C231.9375,133.8438 231.7344,133.9375 231.5156,134.25 L231.3438,134.1719 Z " fill="#000000"/><text fill="#000000" font-family="sans-serif" font-size="12" lengthAdjust="spacing" textLength="162" x="243" y="142.6543">RemoveMedicineController</text><line style="stroke:#A80036;stroke-width:1.5;" x1="215" x2="407" y1="154.5" y2="154.5"/><line style="stroke:#A80036;stroke-width:1.5;" x1="215" x2="407" y1="162.5" y2="162.5"/><text fill="#000000" font-family="sans-serif" font-size="11" lengthAdjust="spacing" textLength="123" x="220" y="176.7104">+removeMedicine(id)</text><!--MD5=[36acc448ce9c38275c9fb662066a5b5f]
class RemoveMedicineUI--><rect codeLine="7" fill="#FEFECE" filter="url(#focnest7o479y)" height="48" id="RemoveMedicineUI" style="stroke:#A80036;stroke-width:1.5;" width="147" x="237.5" y="7"/><ellipse cx="252.5" cy="23" fill="#ADD1B2" rx="11" ry="11" style="stroke:#A80036;stroke-width:1.0;"/><path d="M254.8438,18.6719 C253.9063,18.2344 253.3125,18.0938 252.4375,18.0938 C249.8125,18.0938 247.8125,20.1719 247.8125,22.8906 L247.8125,24.0156 C247.8125,26.5938 249.9219,28.4844 252.8125,28.4844 C254.0313,28.4844 255.1875,28.1875 255.9375,27.6406 C256.5156,27.2344 256.8438,26.7813 256.8438,26.3906 C256.8438,25.9375 256.4531,25.5469 255.9844,25.5469 C255.7656,25.5469 255.5625,25.625 255.375,25.8125 C254.9219,26.2969 254.9219,26.2969 254.7344,26.3906 C254.3125,26.6563 253.625,26.7813 252.8594,26.7813 C250.8125,26.7813 249.5156,25.6875 249.5156,23.9844 L249.5156,22.8906 C249.5156,21.1094 250.7656,19.7969 252.5,19.7969 C253.0781,19.7969 253.6875,19.9531 254.1563,20.2031 C254.6406,20.4844 254.8125,20.7031 254.9063,21.1094 C254.9688,21.5156 255,21.6406 255.1406,21.7656 C255.2813,21.9063 255.5156,22.0156 255.7344,22.0156 C256,22.0156 256.2656,21.875 256.4375,21.6563 C256.5469,21.5 256.5781,21.3125 256.5781,20.8906 L256.5781,19.4688 C256.5781,19.0313 256.5625,18.9063 256.4688,18.75 C256.3125,18.4844 256.0313,18.3438 255.7344,18.3438 C255.4375,18.3438 255.2344,18.4375 255.0156,18.75 L254.8438,18.6719 Z " fill="#000000"/><text fill="#000000" font-family="sans-serif" font-size="12" lengthAdjust="spacing" textLength="115" x="266.5" y="27.1543">RemoveMedicineUI</text><line style="stroke:#A80036;stroke-width:1.5;" x1="238.5" x2="383.5" y1="39" y2="39"/><line style="stroke:#A80036;stroke-width:1.5;" x1="238.5" x2="383.5" y1="47" y2="47"/><!--MD5=[6abf378e3cb5ccaa74d2ccddc974f58a]
class MedicineHandler--><rect codeLine="10" fill="#FEFECE" filter="url(#focnest7o479y)" height="60.8047" id="MedicineHandler" style="stroke:#A80036;stroke-width:1.5;" width="135" x="172.5" y="279.5"/><ellipse cx="188.4" cy="295.5" fill="#ADD1B2" rx="11" ry="11" style="stroke:#A80036;stroke-width:1.0;"/><path d="M190.7438,291.1719 C189.8063,290.7344 189.2125,290.5938 188.3375,290.5938 C185.7125,290.5938 183.7125,292.6719 183.7125,295.3906 L183.7125,296.5156 C183.7125,299.0938 185.8219,300.9844 188.7125,300.9844 C189.9313,300.9844 191.0875,300.6875 191.8375,300.1406 C192.4156,299.7344 192.7438,299.2813 192.7438,298.8906 C192.7438,298.4375 192.3531,298.0469 191.8844,298.0469 C191.6656,298.0469 191.4625,298.125 191.275,298.3125 C190.8219,298.7969 190.8219,298.7969 190.6344,298.8906 C190.2125,299.1563 189.525,299.2813 188.7594,299.2813 C186.7125,299.2813 185.4156,298.1875 185.4156,296.4844 L185.4156,295.3906 C185.4156,293.6094 186.6656,292.2969 188.4,292.2969 C188.9781,292.2969 189.5875,292.4531 190.0563,292.7031 C190.5406,292.9844 190.7125,293.2031 190.8063,293.6094 C190.8688,294.0156 190.9,294.1406 191.0406,294.2656 C191.1813,294.4063 191.4156,294.5156 191.6344,294.5156 C191.9,294.5156 192.1656,294.375 192.3375,294.1563 C192.4469,294 192.4781,293.8125 192.4781,293.3906 L192.4781,291.9688 C192.4781,291.5313 192.4625,291.4063 192.3688,291.25 C192.2125,290.9844 191.9313,290.8438 191.6344,290.8438 C191.3375,290.8438 191.1344,290.9375 190.9156,291.25 L190.7438,291.1719 Z " fill="#000000"/><text fill="#000000" font-family="sans-serif" font-size="12" lengthAdjust="spacing" textLength="101" x="202.6" y="299.6543">MedicineHandler</text><line style="stroke:#A80036;stroke-width:1.5;" x1="173.5" x2="306.5" y1="311.5" y2="311.5"/><line style="stroke:#A80036;stroke-width:1.5;" x1="173.5" x2="306.5" y1="319.5" y2="319.5"/><text fill="#000000" font-family="sans-serif" font-size="11" lengthAdjust="spacing" textLength="123" x="178.5" y="333.7104">+removeMedicine(id)</text><!--MD5=[72136138052d025cffdce3c22fbd185f]
class Product--><rect codeLine="14" fill="#FEFECE" filter="url(#focnest7o479y)" height="112.0234" id="Product" style="stroke:#A80036;stroke-width:1.5;" width="115" x="182.5" y="430"/><ellipse cx="214.6" cy="446" fill="#ADD1B2" rx="11" ry="11" style="stroke:#A80036;stroke-width:1.0;"/><path d="M216.9438,441.6719 C216.0063,441.2344 215.4125,441.0938 214.5375,441.0938 C211.9125,441.0938 209.9125,443.1719 209.9125,445.8906 L209.9125,447.0156 C209.9125,449.5938 212.0219,451.4844 214.9125,451.4844 C216.1313,451.4844 217.2875,451.1875 218.0375,450.6406 C218.6156,450.2344 218.9438,449.7813 218.9438,449.3906 C218.9438,448.9375 218.5531,448.5469 218.0844,448.5469 C217.8656,448.5469 217.6625,448.625 217.475,448.8125 C217.0219,449.2969 217.0219,449.2969 216.8344,449.3906 C216.4125,449.6563 215.725,449.7813 214.9594,449.7813 C212.9125,449.7813 211.6156,448.6875 211.6156,446.9844 L211.6156,445.8906 C211.6156,444.1094 212.8656,442.7969 214.6,442.7969 C215.1781,442.7969 215.7875,442.9531 216.2563,443.2031 C216.7406,443.4844 216.9125,443.7031 217.0063,444.1094 C217.0688,444.5156 217.1,444.6406 217.2406,444.7656 C217.3813,444.9063 217.6156,445.0156 217.8344,445.0156 C218.1,445.0156 218.3656,444.875 218.5375,444.6563 C218.6469,444.5 218.6781,444.3125 218.6781,443.8906 L218.6781,442.4688 C218.6781,442.0313 218.6625,441.9063 218.5688,441.75 C218.4125,441.4844 218.1313,441.3438 217.8344,441.3438 C217.5375,441.3438 217.3344,441.4375 217.1156,441.75 L216.9438,441.6719 Z " fill="#000000"/><text fill="#000000" font-family="sans-serif" font-size="12" lengthAdjust="spacing" textLength="45" x="232.4" y="450.1543">Product</text><line style="stroke:#A80036;stroke-width:1.5;" x1="183.5" x2="296.5" y1="462" y2="462"/><text fill="#000000" font-family="sans-serif" font-size="11" lengthAdjust="spacing" textLength="51" x="188.5" y="476.2104">-String id</text><text fill="#000000" font-family="sans-serif" font-size="11" lengthAdjust="spacing" textLength="74" x="188.5" y="489.0151">-String name</text><text fill="#000000" font-family="sans-serif" font-size="11" lengthAdjust="spacing" textLength="103" x="188.5" y="501.8198">-String description</text><text fill="#000000" font-family="sans-serif" font-size="11" lengthAdjust="spacing" textLength="75" x="188.5" y="514.6245">-double price</text><text fill="#000000" font-family="sans-serif" font-size="11" lengthAdjust="spacing" textLength="85" x="188.5" y="527.4292">-double weight</text><line style="stroke:#A80036;stroke-width:1.5;" x1="183.5" x2="296.5" y1="534.0234" y2="534.0234"/><!--MD5=[da547346deef918ea16944ba046651ef]
class Administrator--><rect codeLine="23" fill="#FEFECE" filter="url(#focnest7o479y)" height="73.6094" id="Administrator" style="stroke:#A80036;stroke-width:1.5;" width="112" x="16" y="116"/><ellipse cx="31" cy="132" fill="#ADD1B2" rx="11" ry="11" style="stroke:#A80036;stroke-width:1.0;"/><path d="M33.3438,127.6719 C32.4063,127.2344 31.8125,127.0938 30.9375,127.0938 C28.3125,127.0938 26.3125,129.1719 26.3125,131.8906 L26.3125,133.0156 C26.3125,135.5938 28.4219,137.4844 31.3125,137.4844 C32.5313,137.4844 33.6875,137.1875 34.4375,136.6406 C35.0156,136.2344 35.3438,135.7813 35.3438,135.3906 C35.3438,134.9375 34.9531,134.5469 34.4844,134.5469 C34.2656,134.5469 34.0625,134.625 33.875,134.8125 C33.4219,135.2969 33.4219,135.2969 33.2344,135.3906 C32.8125,135.6563 32.125,135.7813 31.3594,135.7813 C29.3125,135.7813 28.0156,134.6875 28.0156,132.9844 L28.0156,131.8906 C28.0156,130.1094 29.2656,128.7969 31,128.7969 C31.5781,128.7969 32.1875,128.9531 32.6563,129.2031 C33.1406,129.4844 33.3125,129.7031 33.4063,130.1094 C33.4688,130.5156 33.5,130.6406 33.6406,130.7656 C33.7813,130.9063 34.0156,131.0156 34.2344,131.0156 C34.5,131.0156 34.7656,130.875 34.9375,130.6563 C35.0469,130.5 35.0781,130.3125 35.0781,129.8906 L35.0781,128.4688 C35.0781,128.0313 35.0625,127.9063 34.9688,127.75 C34.8125,127.4844 34.5313,127.3438 34.2344,127.3438 C33.9375,127.3438 33.7344,127.4375 33.5156,127.75 L33.3438,127.6719 Z " fill="#000000"/><text fill="#000000" font-family="sans-serif" font-size="12" lengthAdjust="spacing" textLength="80" x="45" y="136.1543">Administrator</text><line style="stroke:#A80036;stroke-width:1.5;" x1="17" x2="127" y1="148" y2="148"/><text fill="#000000" font-family="sans-serif" font-size="11" lengthAdjust="spacing" textLength="73" x="22" y="162.2104">-String email</text><text fill="#000000" font-family="sans-serif" font-size="11" lengthAdjust="spacing" textLength="94" x="22" y="175.0151">-String password</text><line style="stroke:#A80036;stroke-width:1.5;" x1="17" x2="127" y1="181.6094" y2="181.6094"/><!--MD5=[7f2a9fafcebe4f099f71398fd3e2ed00]
class Pharmacy--><rect codeLine="28" fill="#FEFECE" filter="url(#focnest7o479y)" height="86.4141" id="Pharmacy" style="stroke:#A80036;stroke-width:1.5;" width="130" x="7" y="267"/><ellipse cx="40.45" cy="283" fill="#ADD1B2" rx="11" ry="11" style="stroke:#A80036;stroke-width:1.0;"/><path d="M42.7938,278.6719 C41.8563,278.2344 41.2625,278.0938 40.3875,278.0938 C37.7625,278.0938 35.7625,280.1719 35.7625,282.8906 L35.7625,284.0156 C35.7625,286.5938 37.8719,288.4844 40.7625,288.4844 C41.9813,288.4844 43.1375,288.1875 43.8875,287.6406 C44.4656,287.2344 44.7938,286.7813 44.7938,286.3906 C44.7938,285.9375 44.4031,285.5469 43.9344,285.5469 C43.7156,285.5469 43.5125,285.625 43.325,285.8125 C42.8719,286.2969 42.8719,286.2969 42.6844,286.3906 C42.2625,286.6563 41.575,286.7813 40.8094,286.7813 C38.7625,286.7813 37.4656,285.6875 37.4656,283.9844 L37.4656,282.8906 C37.4656,281.1094 38.7156,279.7969 40.45,279.7969 C41.0281,279.7969 41.6375,279.9531 42.1063,280.2031 C42.5906,280.4844 42.7625,280.7031 42.8563,281.1094 C42.9188,281.5156 42.95,281.6406 43.0906,281.7656 C43.2313,281.9063 43.4656,282.0156 43.6844,282.0156 C43.95,282.0156 44.2156,281.875 44.3875,281.6563 C44.4969,281.5 44.5281,281.3125 44.5281,280.8906 L44.5281,279.4688 C44.5281,279.0313 44.5125,278.9063 44.4188,278.75 C44.2625,278.4844 43.9813,278.3438 43.6844,278.3438 C43.3875,278.3438 43.1844,278.4375 42.9656,278.75 L42.7938,278.6719 Z " fill="#000000"/><text fill="#000000" font-family="sans-serif" font-size="12" lengthAdjust="spacing" textLength="57" x="58.55" y="287.1543">Pharmacy</text><line style="stroke:#A80036;stroke-width:1.5;" x1="8" x2="136" y1="299" y2="299"/><text fill="#000000" font-family="sans-serif" font-size="11" lengthAdjust="spacing" textLength="51" x="13" y="313.2104">-String id</text><text fill="#000000" font-family="sans-serif" font-size="11" lengthAdjust="spacing" textLength="74" x="13" y="326.0151">-String name</text><text fill="#000000" font-family="sans-serif" font-size="11" lengthAdjust="spacing" textLength="118" x="13" y="338.8198">-int quantityScooters</text><line style="stroke:#A80036;stroke-width:1.5;" x1="8" x2="136" y1="345.4141" y2="345.4141"/><!--MD5=[e5f5f81e6bf2327bb563c5eb6f6ac4a7]
link RemoveMedicineUI to RemoveMedicineController--><path codeLine="36" d="M311,55.137 C311,72.643 311,96.983 311,116.885 " fill="none" id="RemoveMedicineUI-to-RemoveMedicineController" style="stroke:#A80036;stroke-width:1.0;stroke-dasharray:7.0,7.0;"/><polygon fill="#A80036" points="311,122.106,315,113.106,311,117.106,307,113.106,311,122.106" style="stroke:#A80036;stroke-width:1.0;"/><!--MD5=[fdaa021cd558c2d5e35776d824cba1dd]
link RemoveMedicineController to MedicineHandler--><path codeLine="37" d="M297.478,183.519 C285.574,209.508 268.233,247.365 255.714,274.694 " fill="none" id="RemoveMedicineController-to-MedicineHandler" style="stroke:#A80036;stroke-width:1.0;stroke-dasharray:7.0,7.0;"/><polygon fill="#A80036" points="253.592,279.327,260.9758,272.8093,255.6736,274.7809,253.702,269.4788,253.592,279.327" style="stroke:#A80036;stroke-width:1.0;"/><!--MD5=[af8942d7991f0a3d9d280ece363166f2]
link RemoveMedicineController to Product--><path codeLine="38" d="M319.454,183.697 C329.28,223.211 342.102,294.853 325,353 C317.465,378.618 303.249,403.96 288.569,425.486 " fill="none" id="RemoveMedicineController-to-Product" style="stroke:#A80036;stroke-width:1.0;stroke-dasharray:7.0,7.0;"/><polygon fill="#A80036" points="285.628,429.739,294.0371,424.6119,288.472,425.6266,287.4572,420.0615,285.628,429.739" style="stroke:#A80036;stroke-width:1.0;"/><!--MD5=[cb8245591e5b44d858815f6e43268002]
link MedicineHandler to Product--><path codeLine="39" d="M240,340.517 C240,363.519 240,396.224 240,424.703 " fill="none" id="MedicineHandler-to-Product" style="stroke:#A80036;stroke-width:1.0;stroke-dasharray:7.0,7.0;"/><polygon fill="#A80036" points="240,429.968,244,420.968,240,424.968,236,420.968,240,429.968" style="stroke:#A80036;stroke-width:1.0;"/><!--MD5=[737ca6dd1a667cd849e932d7cf955580]
link Pharmacy to Product--><path codeLine="41" d="M112.668,353.121 C134.906,376.153 162.724,404.964 186.681,429.777 " fill="none" id="Pharmacy-Product" style="stroke:#A80036;stroke-width:1.0;"/><polygon fill="#000000" points="164.473,395.1634,160.3046,386.615,156.076,390.6977,164.473,395.1634" style="stroke:#000000;stroke-width:1.0;"/><text fill="#000000" font-family="sans-serif" font-size="13" lengthAdjust="spacing" textLength="24" x="170" y="396.0669">Has</text><text fill="#000000" font-family="sans-serif" font-size="13" lengthAdjust="spacing" textLength="8" x="110.7413" y="373.5487">1</text><text fill="#000000" font-family="sans-serif" font-size="13" lengthAdjust="spacing" textLength="16" x="163.2077" y="419.0843">1..</text><!--MD5=[8aaadde0a51a6974a75b41b6a40c57cb]
link Administrator to Pharmacy--><path codeLine="42" d="M72,190.341 C72,213.247 72,242.912 72,266.85 " fill="none" id="Administrator-Pharmacy" style="stroke:#A80036;stroke-width:1.0;"/><polygon fill="#000000" points="77,233.5664,79.9389,224.5213,74.0611,224.5213,77,233.5664" style="stroke:#000000;stroke-width:1.0;"/><text fill="#000000" font-family="sans-serif" font-size="13" lengthAdjust="spacing" textLength="57" x="86" y="233.0669">Manages</text><text fill="#000000" font-family="sans-serif" font-size="13" lengthAdjust="spacing" textLength="8" x="63.3625" y="209.5961">1</text><text fill="#000000" font-family="sans-serif" font-size="13" lengthAdjust="spacing" textLength="16" x="54.725" y="255.8221">1..</text><!--MD5=[8522112bbcee872d9424029bb0c12b9f]
@startuml
skinparam classAttributeIconSize 0

class RemoveMedicineController {
  +removeMedicine(id)
}

class RemoveMedicineUI {
}

class MedicineHandler{
    +removeMedicine(id)
}

class Product {
  -String id
  -String name
  -String description
  -double price
  -double weight
  
}

class Administrator{
  -String email
  -String password 
}

class Pharmacy {
  -String id
  -String name
  -int quantityScooters
  }
  


RemoveMedicineUI ..> RemoveMedicineController
RemoveMedicineController ..> MedicineHandler
RemoveMedicineController ..> Product
MedicineHandler ..> Product

Pharmacy "1" - - "1.." Product: Has >
Administrator "1" - - "1.." Pharmacy: Manages >
@enduml

PlantUML version 1.2020.27beta6(Unknown compile time)
(GPL source distribution)
Java Runtime: Java(TM) SE Runtime Environment
JVM: Java HotSpot(TM) 64-Bit Server VM
Default Encoding: UTF-8
Language: en
Country: US
--></g></svg>