<?xml version="1.0" encoding="UTF-8" standalone="no"?><svg xmlns="http://www.w3.org/2000/svg" xmlns:xlink="http://www.w3.org/1999/xlink" contentScriptType="application/ecmascript" contentStyleType="text/css" height="367px" preserveAspectRatio="none" style="width:517px;height:367px;" version="1.1" viewBox="0 0 517 367" width="517px" zoomAndPan="magnify"><defs><filter height="300%" id="f6ufgh4p7bibq" width="300%" x="-1" y="-1"><feGaussianBlur result="blurOut" stdDeviation="2.0"/><feColorMatrix in="blurOut" result="blurOut2" type="matrix" values="0 0 0 0 0 0 0 0 0 0 0 0 0 0 0 0 0 0 .4 0"/><feOffset dx="4.0" dy="4.0" in="blurOut2" result="blurOut3"/><feBlend in="SourceGraphic" in2="blurOut3" mode="normal"/></filter></defs><g><rect fill="#FFFFFF" filter="url(#f6ufgh4p7bibq)" height="166.7969" style="stroke:#A80036;stroke-width:1.0;" width="10" x="53" y="98.2969"/><rect fill="#FFFFFF" filter="url(#f6ufgh4p7bibq)" height="29.1328" style="stroke:#A80036;stroke-width:1.0;" width="10" x="464" y="119.4297"/><rect fill="#FFFFFF" filter="url(#f6ufgh4p7bibq)" height="29.1328" style="stroke:#A80036;stroke-width:1.0;" width="10" x="464" y="177.6953"/><rect fill="#FFFFFF" filter="url(#f6ufgh4p7bibq)" height="29.1328" style="stroke:#A80036;stroke-width:1.0;" width="10" x="464" y="235.9609"/><line style="stroke:#A80036;stroke-width:1.0;stroke-dasharray:5.0,5.0;" x1="58" x2="58" y1="88.2969" y2="283.0938"/><line style="stroke:#A80036;stroke-width:1.0;stroke-dasharray:5.0,5.0;" x1="468.5" x2="468.5" y1="88.2969" y2="283.0938"/><text fill="#000000" font-family="sans-serif" font-size="14" lengthAdjust="spacingAndGlyphs" textLength="100" x="5" y="84.9951">Administrator</text><ellipse cx="58" cy="15" fill="#FEFECE" filter="url(#f6ufgh4p7bibq)" rx="8" ry="8" style="stroke:#A80036;stroke-width:2.0;"/><path d="M58,23 L58,50 M45,31 L71,31 M58,50 L45,65 M58,50 L71,65 " fill="none" filter="url(#f6ufgh4p7bibq)" style="stroke:#A80036;stroke-width:2.0;"/><text fill="#000000" font-family="sans-serif" font-size="14" lengthAdjust="spacingAndGlyphs" textLength="100" x="5" y="295.0889">Administrator</text><ellipse cx="58" cy="308.3906" fill="#FEFECE" filter="url(#f6ufgh4p7bibq)" rx="8" ry="8" style="stroke:#A80036;stroke-width:2.0;"/><path d="M58,316.3906 L58,343.3906 M45,324.3906 L71,324.3906 M58,343.3906 L45,358.3906 M58,343.3906 L71,358.3906 " fill="none" filter="url(#f6ufgh4p7bibq)" style="stroke:#A80036;stroke-width:2.0;"/><rect fill="#FEFECE" filter="url(#f6ufgh4p7bibq)" height="30.2969" style="stroke:#A80036;stroke-width:1.5;" width="73" x="430.5" y="53"/><text fill="#000000" font-family="sans-serif" font-size="14" lengthAdjust="spacingAndGlyphs" textLength="59" x="437.5" y="72.9951">:System</text><rect fill="#FEFECE" filter="url(#f6ufgh4p7bibq)" height="30.2969" style="stroke:#A80036;stroke-width:1.5;" width="73" x="430.5" y="282.0938"/><text fill="#000000" font-family="sans-serif" font-size="14" lengthAdjust="spacingAndGlyphs" textLength="59" x="437.5" y="302.0889">:System</text><rect fill="#FFFFFF" filter="url(#f6ufgh4p7bibq)" height="166.7969" style="stroke:#A80036;stroke-width:1.0;" width="10" x="53" y="98.2969"/><rect fill="#FFFFFF" filter="url(#f6ufgh4p7bibq)" height="29.1328" style="stroke:#A80036;stroke-width:1.0;" width="10" x="464" y="119.4297"/><rect fill="#FFFFFF" filter="url(#f6ufgh4p7bibq)" height="29.1328" style="stroke:#A80036;stroke-width:1.0;" width="10" x="464" y="177.6953"/><rect fill="#FFFFFF" filter="url(#f6ufgh4p7bibq)" height="29.1328" style="stroke:#A80036;stroke-width:1.0;" width="10" x="464" y="235.9609"/><polygon fill="#A80036" points="452,115.4297,462,119.4297,452,123.4297,456,119.4297" style="stroke:#A80036;stroke-width:1.0;"/><line style="stroke:#A80036;stroke-width:1.0;" x1="63" x2="458" y1="119.4297" y2="119.4297"/><text fill="#000000" font-family="sans-serif" font-size="13" font-weight="bold" lengthAdjust="spacingAndGlyphs" textLength="9" x="70" y="114.3638">1</text><text fill="#000000" font-family="sans-serif" font-size="13" lengthAdjust="spacingAndGlyphs" textLength="369" x="83" y="114.3638">initiates the update of a courier that exists in the system.</text><polygon fill="#A80036" points="74,144.5625,64,148.5625,74,152.5625,70,148.5625" style="stroke:#A80036;stroke-width:1.0;"/><line style="stroke:#A80036;stroke-width:1.0;stroke-dasharray:2.0,2.0;" x1="68" x2="468" y1="148.5625" y2="148.5625"/><text fill="#000000" font-family="sans-serif" font-size="13" font-weight="bold" lengthAdjust="spacingAndGlyphs" textLength="9" x="80" y="143.4966">2</text><text fill="#000000" font-family="sans-serif" font-size="13" lengthAdjust="spacingAndGlyphs" textLength="179" x="93" y="143.4966">asks for the data to update.</text><polygon fill="#A80036" points="452,173.6953,462,177.6953,452,181.6953,456,177.6953" style="stroke:#A80036;stroke-width:1.0;"/><line style="stroke:#A80036;stroke-width:1.0;" x1="63" x2="458" y1="177.6953" y2="177.6953"/><text fill="#000000" font-family="sans-serif" font-size="13" font-weight="bold" lengthAdjust="spacingAndGlyphs" textLength="8" x="70" y="172.6294">3</text><text fill="#000000" font-family="sans-serif" font-size="13" lengthAdjust="spacingAndGlyphs" textLength="167" x="82" y="172.6294">writes the necessary data</text><polygon fill="#A80036" points="74,202.8281,64,206.8281,74,210.8281,70,206.8281" style="stroke:#A80036;stroke-width:1.0;"/><line style="stroke:#A80036;stroke-width:1.0;stroke-dasharray:2.0,2.0;" x1="68" x2="468" y1="206.8281" y2="206.8281"/><text fill="#000000" font-family="sans-serif" font-size="13" font-weight="bold" lengthAdjust="spacingAndGlyphs" textLength="9" x="80" y="201.7622">4</text><text fill="#000000" font-family="sans-serif" font-size="13" lengthAdjust="spacingAndGlyphs" textLength="267" x="93" y="201.7622">shows the data and asks for confirmation</text><polygon fill="#A80036" points="452,231.9609,462,235.9609,452,239.9609,456,235.9609" style="stroke:#A80036;stroke-width:1.0;"/><line style="stroke:#A80036;stroke-width:1.0;" x1="63" x2="458" y1="235.9609" y2="235.9609"/><text fill="#000000" font-family="sans-serif" font-size="13" font-weight="bold" lengthAdjust="spacingAndGlyphs" textLength="9" x="70" y="230.895">5</text><text fill="#000000" font-family="sans-serif" font-size="13" lengthAdjust="spacingAndGlyphs" textLength="114" x="83" y="230.895">confirms the data</text><polygon fill="#A80036" points="69,261.0938,59,265.0938,69,269.0938,65,265.0938" style="stroke:#A80036;stroke-width:1.0;"/><line style="stroke:#A80036;stroke-width:1.0;stroke-dasharray:2.0,2.0;" x1="63" x2="468" y1="265.0938" y2="265.0938"/><text fill="#000000" font-family="sans-serif" font-size="13" font-weight="bold" lengthAdjust="spacingAndGlyphs" textLength="9" x="75" y="260.0278">6</text><text fill="#000000" font-family="sans-serif" font-size="13" lengthAdjust="spacingAndGlyphs" textLength="277" x="88" y="260.0278">informs about the success of the operation</text><!--MD5=[9b9b20fa3d5e37c2c5c69e49363e1ff3]
@startuml
autonumber
actor "Administrator" as ADMIN
activate ADMIN
ADMIN-> ":System" : initiates the update of a courier that exists in the system.
activate ":System"
":System" - -> ADMIN : asks for the data to update.
deactivate ":System"

ADMIN -> ":System" : writes the necessary data
activate ":System"
":System" - -> ADMIN : shows the data and asks for confirmation
deactivate ":System"

ADMIN -> ":System" : confirms the data
activate ":System"
":System" - -> ADMIN : informs about the success of the operation
deactivate ":System"

deactivate ADMIN
@enduml

PlantUML version 1.2020.27beta5(Unknown compile time)
(GPL source distribution)
Java Runtime: Java(TM) SE Runtime Environment
JVM: Java HotSpot(TM) 64-Bit Server VM
Default Encoding: UTF-8
Language: en
Country: US
--></g></svg>