<?xml version="1.0" encoding="UTF-8" standalone="no"?><svg xmlns="http://www.w3.org/2000/svg" xmlns:xlink="http://www.w3.org/1999/xlink" contentScriptType="application/ecmascript" contentStyleType="text/css" height="470px" preserveAspectRatio="none" style="width:205px;height:470px;" version="1.1" viewBox="0 0 205 470" width="205px" zoomAndPan="magnify"><defs><filter height="300%" id="f1397qagbglqfo" width="300%" x="-1" y="-1"><feGaussianBlur result="blurOut" stdDeviation="2.0"/><feColorMatrix in="blurOut" result="blurOut2" type="matrix" values="0 0 0 0 0 0 0 0 0 0 0 0 0 0 0 0 0 0 .4 0"/><feOffset dx="4.0" dy="4.0" in="blurOut2" result="blurOut3"/><feBlend in="SourceGraphic" in2="blurOut3" mode="normal"/></filter></defs><g><!--MD5=[88f0956f691d2f7faf4f022863c4fc06]
class RemoveCourierController--><rect codeLine="6" fill="#FEFECE" filter="url(#f1397qagbglqfo)" height="73.6094" id="RemoveCourierController" style="stroke:#A80036;stroke-width:1.5;" width="184" x="7" y="115"/><ellipse cx="22" cy="131" fill="#ADD1B2" rx="11" ry="11" style="stroke:#A80036;stroke-width:1.0;"/><path d="M24.3438,126.6719 C23.4063,126.2344 22.8125,126.0938 21.9375,126.0938 C19.3125,126.0938 17.3125,128.1719 17.3125,130.8906 L17.3125,132.0156 C17.3125,134.5938 19.4219,136.4844 22.3125,136.4844 C23.5313,136.4844 24.6875,136.1875 25.4375,135.6406 C26.0156,135.2344 26.3438,134.7813 26.3438,134.3906 C26.3438,133.9375 25.9531,133.5469 25.4844,133.5469 C25.2656,133.5469 25.0625,133.625 24.875,133.8125 C24.4219,134.2969 24.4219,134.2969 24.2344,134.3906 C23.8125,134.6563 23.125,134.7813 22.3594,134.7813 C20.3125,134.7813 19.0156,133.6875 19.0156,131.9844 L19.0156,130.8906 C19.0156,129.1094 20.2656,127.7969 22,127.7969 C22.5781,127.7969 23.1875,127.9531 23.6563,128.2031 C24.1406,128.4844 24.3125,128.7031 24.4063,129.1094 C24.4688,129.5156 24.5,129.6406 24.6406,129.7656 C24.7813,129.9063 25.0156,130.0156 25.2344,130.0156 C25.5,130.0156 25.7656,129.875 25.9375,129.6563 C26.0469,129.5 26.0781,129.3125 26.0781,128.8906 L26.0781,127.4688 C26.0781,127.0313 26.0625,126.9063 25.9688,126.75 C25.8125,126.4844 25.5313,126.3438 25.2344,126.3438 C24.9375,126.3438 24.7344,126.4375 24.5156,126.75 L24.3438,126.6719 Z " fill="#000000"/><text fill="#000000" font-family="sans-serif" font-size="12" lengthAdjust="spacing" textLength="152" x="36" y="135.1543">RemoveCourierController</text><line style="stroke:#A80036;stroke-width:1.5;" x1="8" x2="190" y1="147" y2="147"/><line style="stroke:#A80036;stroke-width:1.5;" x1="8" x2="190" y1="155" y2="155"/><text fill="#000000" font-family="sans-serif" font-size="11" lengthAdjust="spacing" textLength="96" x="13" y="169.2104">+getCourierList()</text><text fill="#000000" font-family="sans-serif" font-size="11" lengthAdjust="spacing" textLength="113" x="13" y="182.0151">+removeCourier(id)</text><!--MD5=[ae6f9ac2010b8947c3799c71bd42b5d8]
class RemoveCourierUI--><rect codeLine="11" fill="#FEFECE" filter="url(#f1397qagbglqfo)" height="48" id="RemoveCourierUI" style="stroke:#A80036;stroke-width:1.5;" width="137" x="30.5" y="7"/><ellipse cx="45.5" cy="23" fill="#ADD1B2" rx="11" ry="11" style="stroke:#A80036;stroke-width:1.0;"/><path d="M47.8438,18.6719 C46.9063,18.2344 46.3125,18.0938 45.4375,18.0938 C42.8125,18.0938 40.8125,20.1719 40.8125,22.8906 L40.8125,24.0156 C40.8125,26.5938 42.9219,28.4844 45.8125,28.4844 C47.0313,28.4844 48.1875,28.1875 48.9375,27.6406 C49.5156,27.2344 49.8438,26.7813 49.8438,26.3906 C49.8438,25.9375 49.4531,25.5469 48.9844,25.5469 C48.7656,25.5469 48.5625,25.625 48.375,25.8125 C47.9219,26.2969 47.9219,26.2969 47.7344,26.3906 C47.3125,26.6563 46.625,26.7813 45.8594,26.7813 C43.8125,26.7813 42.5156,25.6875 42.5156,23.9844 L42.5156,22.8906 C42.5156,21.1094 43.7656,19.7969 45.5,19.7969 C46.0781,19.7969 46.6875,19.9531 47.1563,20.2031 C47.6406,20.4844 47.8125,20.7031 47.9063,21.1094 C47.9688,21.5156 48,21.6406 48.1406,21.7656 C48.2813,21.9063 48.5156,22.0156 48.7344,22.0156 C49,22.0156 49.2656,21.875 49.4375,21.6563 C49.5469,21.5 49.5781,21.3125 49.5781,20.8906 L49.5781,19.4688 C49.5781,19.0313 49.5625,18.9063 49.4688,18.75 C49.3125,18.4844 49.0313,18.3438 48.7344,18.3438 C48.4375,18.3438 48.2344,18.4375 48.0156,18.75 L47.8438,18.6719 Z " fill="#000000"/><text fill="#000000" font-family="sans-serif" font-size="12" lengthAdjust="spacing" textLength="105" x="59.5" y="27.1543">RemoveCourierUI</text><line style="stroke:#A80036;stroke-width:1.5;" x1="31.5" x2="166.5" y1="39" y2="39"/><line style="stroke:#A80036;stroke-width:1.5;" x1="31.5" x2="166.5" y1="47" y2="47"/><!--MD5=[7f464dbca06b0b740a63dac6e7027635]
class CourierHandler--><rect codeLine="14" fill="#FEFECE" filter="url(#f1397qagbglqfo)" height="73.6094" id="CourierHandler" style="stroke:#A80036;stroke-width:1.5;" width="183" x="7.5" y="249"/><ellipse cx="49.5" cy="265" fill="#ADD1B2" rx="11" ry="11" style="stroke:#A80036;stroke-width:1.0;"/><path d="M51.8438,260.6719 C50.9063,260.2344 50.3125,260.0938 49.4375,260.0938 C46.8125,260.0938 44.8125,262.1719 44.8125,264.8906 L44.8125,266.0156 C44.8125,268.5938 46.9219,270.4844 49.8125,270.4844 C51.0313,270.4844 52.1875,270.1875 52.9375,269.6406 C53.5156,269.2344 53.8438,268.7813 53.8438,268.3906 C53.8438,267.9375 53.4531,267.5469 52.9844,267.5469 C52.7656,267.5469 52.5625,267.625 52.375,267.8125 C51.9219,268.2969 51.9219,268.2969 51.7344,268.3906 C51.3125,268.6563 50.625,268.7813 49.8594,268.7813 C47.8125,268.7813 46.5156,267.6875 46.5156,265.9844 L46.5156,264.8906 C46.5156,263.1094 47.7656,261.7969 49.5,261.7969 C50.0781,261.7969 50.6875,261.9531 51.1563,262.2031 C51.6406,262.4844 51.8125,262.7031 51.9063,263.1094 C51.9688,263.5156 52,263.6406 52.1406,263.7656 C52.2813,263.9063 52.5156,264.0156 52.7344,264.0156 C53,264.0156 53.2656,263.875 53.4375,263.6563 C53.5469,263.5 53.5781,263.3125 53.5781,262.8906 L53.5781,261.4688 C53.5781,261.0313 53.5625,260.9063 53.4688,260.75 C53.3125,260.4844 53.0313,260.3438 52.7344,260.3438 C52.4375,260.3438 52.2344,260.4375 52.0156,260.75 L51.8438,260.6719 Z " fill="#000000"/><text fill="#000000" font-family="sans-serif" font-size="12" lengthAdjust="spacing" textLength="91" x="69.5" y="269.1543">CourierHandler</text><line style="stroke:#A80036;stroke-width:1.5;" x1="8.5" x2="189.5" y1="281" y2="281"/><line style="stroke:#A80036;stroke-width:1.5;" x1="8.5" x2="189.5" y1="289" y2="289"/><text fill="#000000" font-family="sans-serif" font-size="11" lengthAdjust="spacing" textLength="171" x="13.5" y="303.2104">+courierList = getCourierList()</text><text fill="#000000" font-family="sans-serif" font-size="11" lengthAdjust="spacing" textLength="113" x="13.5" y="316.0151">+removeCourier(id)</text><!--MD5=[837d3612090b426002fd1342fcbe6b88]
class DataBase--><rect codeLine="19" fill="#FEFECE" filter="url(#f1397qagbglqfo)" height="73.6094" id="DataBase" style="stroke:#A80036;stroke-width:1.5;" width="124" x="37" y="383"/><ellipse cx="67.75" cy="399" fill="#ADD1B2" rx="11" ry="11" style="stroke:#A80036;stroke-width:1.0;"/><path d="M70.0938,394.6719 C69.1563,394.2344 68.5625,394.0938 67.6875,394.0938 C65.0625,394.0938 63.0625,396.1719 63.0625,398.8906 L63.0625,400.0156 C63.0625,402.5938 65.1719,404.4844 68.0625,404.4844 C69.2813,404.4844 70.4375,404.1875 71.1875,403.6406 C71.7656,403.2344 72.0938,402.7813 72.0938,402.3906 C72.0938,401.9375 71.7031,401.5469 71.2344,401.5469 C71.0156,401.5469 70.8125,401.625 70.625,401.8125 C70.1719,402.2969 70.1719,402.2969 69.9844,402.3906 C69.5625,402.6563 68.875,402.7813 68.1094,402.7813 C66.0625,402.7813 64.7656,401.6875 64.7656,399.9844 L64.7656,398.8906 C64.7656,397.1094 66.0156,395.7969 67.75,395.7969 C68.3281,395.7969 68.9375,395.9531 69.4063,396.2031 C69.8906,396.4844 70.0625,396.7031 70.1563,397.1094 C70.2188,397.5156 70.25,397.6406 70.3906,397.7656 C70.5313,397.9063 70.7656,398.0156 70.9844,398.0156 C71.25,398.0156 71.5156,397.875 71.6875,397.6563 C71.7969,397.5 71.8281,397.3125 71.8281,396.8906 L71.8281,395.4688 C71.8281,395.0313 71.8125,394.9063 71.7188,394.75 C71.5625,394.4844 71.2813,394.3438 70.9844,394.3438 C70.6875,394.3438 70.4844,394.4375 70.2656,394.75 L70.0938,394.6719 Z " fill="#000000"/><text fill="#000000" font-family="sans-serif" font-size="12" lengthAdjust="spacing" textLength="57" x="85.25" y="403.1543">DataBase</text><line style="stroke:#A80036;stroke-width:1.5;" x1="38" x2="160" y1="415" y2="415"/><line style="stroke:#A80036;stroke-width:1.5;" x1="38" x2="160" y1="423" y2="423"/><text fill="#000000" font-family="sans-serif" font-size="11" lengthAdjust="spacing" textLength="96" x="43" y="437.2104">+getCourierList()</text><text fill="#000000" font-family="sans-serif" font-size="11" lengthAdjust="spacing" textLength="112" x="43" y="450.0151">+removeIfExists(id)</text><!--MD5=[61cd806eb4322ea6b3f3872ae9a99bd5]
link RemoveCourierUI to RemoveCourierController--><path codeLine="27" d="M99,55.227 C99,70.683 99,91.421 99,109.647 " fill="none" id="RemoveCourierUI-to-RemoveCourierController" style="stroke:#A80036;stroke-width:1.0;stroke-dasharray:7.0,7.0;"/><polygon fill="#A80036" points="99,114.714,103,105.714,99,109.714,95,105.714,99,114.714" style="stroke:#A80036;stroke-width:1.0;"/><!--MD5=[ae5fa65af2ab1e83c8a2bee00345d7a0]
link RemoveCourierController to CourierHandler--><path codeLine="28" d="M99,189.07 C99,205.949 99,226.142 99,243.638 " fill="none" id="RemoveCourierController-to-CourierHandler" style="stroke:#A80036;stroke-width:1.0;stroke-dasharray:7.0,7.0;"/><polygon fill="#A80036" points="99,248.974,103,239.974,99,243.974,95,239.974,99,248.974" style="stroke:#A80036;stroke-width:1.0;"/><!--MD5=[d2d3f3951ea94320f07c4b39a5c6adec]
link CourierHandler to DataBase--><path codeLine="29" d="M99,323.07 C99,339.949 99,360.1417 99,377.6375 " fill="none" id="CourierHandler-to-DataBase" style="stroke:#A80036;stroke-width:1.0;stroke-dasharray:7.0,7.0;"/><polygon fill="#A80036" points="99,382.974,103,373.974,99,377.974,95,373.974,99,382.974" style="stroke:#A80036;stroke-width:1.0;"/><!--MD5=[444e0ddd24b06571f94eeb17ae365a22]
@startuml
skinparam classAttributeIconSize 0




class RemoveCourierController {
  +getCourierList()
  +removeCourier(id)
}

class RemoveCourierUI {
}

class CourierHandler{
    +courierList = getCourierList()
    +removeCourier(id)
}

class DataBase{
    +getCourierList()
    +removeIfExists(id)
}




RemoveCourierUI ..> RemoveCourierController
RemoveCourierController ..> CourierHandler
CourierHandler ..> DataBase
@enduml

PlantUML version 1.2020.27beta7(Unknown compile time)
(GPL source distribution)
Java Runtime: Java(TM) SE Runtime Environment
JVM: Java HotSpot(TM) 64-Bit Server VM
Default Encoding: UTF-8
Language: en
Country: US
--></g></svg>