<?xml version="1.0" encoding="UTF-8" standalone="no"?><svg xmlns="http://www.w3.org/2000/svg" xmlns:xlink="http://www.w3.org/1999/xlink" contentScriptType="application/ecmascript" contentStyleType="text/css" height="470px" preserveAspectRatio="none" style="width:487px;height:470px;" version="1.1" viewBox="0 0 487 470" width="487px" zoomAndPan="magnify"><defs><filter height="300%" id="fcwzh2zvd3w1h" width="300%" x="-1" y="-1"><feGaussianBlur result="blurOut" stdDeviation="2.0"/><feColorMatrix in="blurOut" result="blurOut2" type="matrix" values="0 0 0 0 0 0 0 0 0 0 0 0 0 0 0 0 0 0 .4 0"/><feOffset dx="4.0" dy="4.0" in="blurOut2" result="blurOut3"/><feBlend in="SourceGraphic" in2="blurOut3" mode="normal"/></filter></defs><g><!--MD5=[162791922a04a37ba548caadcbdc9a6b]
class UpdateCourierController--><rect codeLine="6" fill="#FEFECE" filter="url(#fcwzh2zvd3w1h)" height="73.6094" id="UpdateCourierController" style="stroke:#A80036;stroke-width:1.5;" width="440" x="20" y="115"/><ellipse cx="162.25" cy="131" fill="#ADD1B2" rx="11" ry="11" style="stroke:#A80036;stroke-width:1.0;"/><path d="M164.5938,126.6719 C163.6563,126.2344 163.0625,126.0938 162.1875,126.0938 C159.5625,126.0938 157.5625,128.1719 157.5625,130.8906 L157.5625,132.0156 C157.5625,134.5938 159.6719,136.4844 162.5625,136.4844 C163.7813,136.4844 164.9375,136.1875 165.6875,135.6406 C166.2656,135.2344 166.5938,134.7813 166.5938,134.3906 C166.5938,133.9375 166.2031,133.5469 165.7344,133.5469 C165.5156,133.5469 165.3125,133.625 165.125,133.8125 C164.6719,134.2969 164.6719,134.2969 164.4844,134.3906 C164.0625,134.6563 163.375,134.7813 162.6094,134.7813 C160.5625,134.7813 159.2656,133.6875 159.2656,131.9844 L159.2656,130.8906 C159.2656,129.1094 160.5156,127.7969 162.25,127.7969 C162.8281,127.7969 163.4375,127.9531 163.9063,128.2031 C164.3906,128.4844 164.5625,128.7031 164.6563,129.1094 C164.7188,129.5156 164.75,129.6406 164.8906,129.7656 C165.0313,129.9063 165.2656,130.0156 165.4844,130.0156 C165.75,130.0156 166.0156,129.875 166.1875,129.6563 C166.2969,129.5 166.3281,129.3125 166.3281,128.8906 L166.3281,127.4688 C166.3281,127.0313 166.3125,126.9063 166.2188,126.75 C166.0625,126.4844 165.7813,126.3438 165.4844,126.3438 C165.1875,126.3438 164.9844,126.4375 164.7656,126.75 L164.5938,126.6719 Z " fill="#000000"/><text fill="#000000" font-family="sans-serif" font-size="12" lengthAdjust="spacing" textLength="147" x="182.75" y="135.1543">UpdateCourierController</text><line style="stroke:#A80036;stroke-width:1.5;" x1="21" x2="459" y1="147" y2="147"/><line style="stroke:#A80036;stroke-width:1.5;" x1="21" x2="459" y1="155" y2="155"/><text fill="#000000" font-family="sans-serif" font-size="11" lengthAdjust="spacing" textLength="96" x="26" y="169.2104">+getCourierList()</text><text fill="#000000" font-family="sans-serif" font-size="11" lengthAdjust="spacing" textLength="428" x="26" y="182.0151">+setCourier(name , email, NIF, socialSecurityNumber, maxWeightCapacity)</text><!--MD5=[3926f557f6a7a1e345ea8c452795a2eb]
class UpdateCourierUI--><rect codeLine="11" fill="#FEFECE" filter="url(#fcwzh2zvd3w1h)" height="48" id="UpdateCourierUI" style="stroke:#A80036;stroke-width:1.5;" width="132" x="174" y="7"/><ellipse cx="189" cy="23" fill="#ADD1B2" rx="11" ry="11" style="stroke:#A80036;stroke-width:1.0;"/><path d="M191.3438,18.6719 C190.4063,18.2344 189.8125,18.0938 188.9375,18.0938 C186.3125,18.0938 184.3125,20.1719 184.3125,22.8906 L184.3125,24.0156 C184.3125,26.5938 186.4219,28.4844 189.3125,28.4844 C190.5313,28.4844 191.6875,28.1875 192.4375,27.6406 C193.0156,27.2344 193.3438,26.7813 193.3438,26.3906 C193.3438,25.9375 192.9531,25.5469 192.4844,25.5469 C192.2656,25.5469 192.0625,25.625 191.875,25.8125 C191.4219,26.2969 191.4219,26.2969 191.2344,26.3906 C190.8125,26.6563 190.125,26.7813 189.3594,26.7813 C187.3125,26.7813 186.0156,25.6875 186.0156,23.9844 L186.0156,22.8906 C186.0156,21.1094 187.2656,19.7969 189,19.7969 C189.5781,19.7969 190.1875,19.9531 190.6563,20.2031 C191.1406,20.4844 191.3125,20.7031 191.4063,21.1094 C191.4688,21.5156 191.5,21.6406 191.6406,21.7656 C191.7813,21.9063 192.0156,22.0156 192.2344,22.0156 C192.5,22.0156 192.7656,21.875 192.9375,21.6563 C193.0469,21.5 193.0781,21.3125 193.0781,20.8906 L193.0781,19.4688 C193.0781,19.0313 193.0625,18.9063 192.9688,18.75 C192.8125,18.4844 192.5313,18.3438 192.2344,18.3438 C191.9375,18.3438 191.7344,18.4375 191.5156,18.75 L191.3438,18.6719 Z " fill="#000000"/><text fill="#000000" font-family="sans-serif" font-size="12" lengthAdjust="spacing" textLength="100" x="203" y="27.1543">UpdateCourierUI</text><line style="stroke:#A80036;stroke-width:1.5;" x1="175" x2="305" y1="39" y2="39"/><line style="stroke:#A80036;stroke-width:1.5;" x1="175" x2="305" y1="47" y2="47"/><!--MD5=[7f464dbca06b0b740a63dac6e7027635]
class CourierHandler--><rect codeLine="14" fill="#FEFECE" filter="url(#fcwzh2zvd3w1h)" height="73.6094" id="CourierHandler" style="stroke:#A80036;stroke-width:1.5;" width="440" x="20" y="249"/><ellipse cx="190.25" cy="265" fill="#ADD1B2" rx="11" ry="11" style="stroke:#A80036;stroke-width:1.0;"/><path d="M192.5938,260.6719 C191.6563,260.2344 191.0625,260.0938 190.1875,260.0938 C187.5625,260.0938 185.5625,262.1719 185.5625,264.8906 L185.5625,266.0156 C185.5625,268.5938 187.6719,270.4844 190.5625,270.4844 C191.7813,270.4844 192.9375,270.1875 193.6875,269.6406 C194.2656,269.2344 194.5938,268.7813 194.5938,268.3906 C194.5938,267.9375 194.2031,267.5469 193.7344,267.5469 C193.5156,267.5469 193.3125,267.625 193.125,267.8125 C192.6719,268.2969 192.6719,268.2969 192.4844,268.3906 C192.0625,268.6563 191.375,268.7813 190.6094,268.7813 C188.5625,268.7813 187.2656,267.6875 187.2656,265.9844 L187.2656,264.8906 C187.2656,263.1094 188.5156,261.7969 190.25,261.7969 C190.8281,261.7969 191.4375,261.9531 191.9063,262.2031 C192.3906,262.4844 192.5625,262.7031 192.6563,263.1094 C192.7188,263.5156 192.75,263.6406 192.8906,263.7656 C193.0313,263.9063 193.2656,264.0156 193.4844,264.0156 C193.75,264.0156 194.0156,263.875 194.1875,263.6563 C194.2969,263.5 194.3281,263.3125 194.3281,262.8906 L194.3281,261.4688 C194.3281,261.0313 194.3125,260.9063 194.2188,260.75 C194.0625,260.4844 193.7813,260.3438 193.4844,260.3438 C193.1875,260.3438 192.9844,260.4375 192.7656,260.75 L192.5938,260.6719 Z " fill="#000000"/><text fill="#000000" font-family="sans-serif" font-size="12" lengthAdjust="spacing" textLength="91" x="210.75" y="269.1543">CourierHandler</text><line style="stroke:#A80036;stroke-width:1.5;" x1="21" x2="459" y1="281" y2="281"/><line style="stroke:#A80036;stroke-width:1.5;" x1="21" x2="459" y1="289" y2="289"/><text fill="#000000" font-family="sans-serif" font-size="11" lengthAdjust="spacing" textLength="171" x="26" y="303.2104">+courierList = getCourierList()</text><text fill="#000000" font-family="sans-serif" font-size="11" lengthAdjust="spacing" textLength="428" x="26" y="316.0151">+setCourier(name , email, NIF, socialSecurityNumber, maxWeightCapacity)</text><!--MD5=[837d3612090b426002fd1342fcbe6b88]
class DataBase--><rect codeLine="19" fill="#FEFECE" filter="url(#fcwzh2zvd3w1h)" height="73.6094" id="DataBase" style="stroke:#A80036;stroke-width:1.5;" width="466" x="7" y="383"/><ellipse cx="207.25" cy="399" fill="#ADD1B2" rx="11" ry="11" style="stroke:#A80036;stroke-width:1.0;"/><path d="M209.5938,394.6719 C208.6563,394.2344 208.0625,394.0938 207.1875,394.0938 C204.5625,394.0938 202.5625,396.1719 202.5625,398.8906 L202.5625,400.0156 C202.5625,402.5938 204.6719,404.4844 207.5625,404.4844 C208.7813,404.4844 209.9375,404.1875 210.6875,403.6406 C211.2656,403.2344 211.5938,402.7813 211.5938,402.3906 C211.5938,401.9375 211.2031,401.5469 210.7344,401.5469 C210.5156,401.5469 210.3125,401.625 210.125,401.8125 C209.6719,402.2969 209.6719,402.2969 209.4844,402.3906 C209.0625,402.6563 208.375,402.7813 207.6094,402.7813 C205.5625,402.7813 204.2656,401.6875 204.2656,399.9844 L204.2656,398.8906 C204.2656,397.1094 205.5156,395.7969 207.25,395.7969 C207.8281,395.7969 208.4375,395.9531 208.9063,396.2031 C209.3906,396.4844 209.5625,396.7031 209.6563,397.1094 C209.7188,397.5156 209.75,397.6406 209.8906,397.7656 C210.0313,397.9063 210.2656,398.0156 210.4844,398.0156 C210.75,398.0156 211.0156,397.875 211.1875,397.6563 C211.2969,397.5 211.3281,397.3125 211.3281,396.8906 L211.3281,395.4688 C211.3281,395.0313 211.3125,394.9063 211.2188,394.75 C211.0625,394.4844 210.7813,394.3438 210.4844,394.3438 C210.1875,394.3438 209.9844,394.4375 209.7656,394.75 L209.5938,394.6719 Z " fill="#000000"/><text fill="#000000" font-family="sans-serif" font-size="12" lengthAdjust="spacing" textLength="57" x="227.75" y="403.1543">DataBase</text><line style="stroke:#A80036;stroke-width:1.5;" x1="8" x2="472" y1="415" y2="415"/><line style="stroke:#A80036;stroke-width:1.5;" x1="8" x2="472" y1="423" y2="423"/><text fill="#000000" font-family="sans-serif" font-size="11" lengthAdjust="spacing" textLength="96" x="13" y="437.2104">+getCourierList()</text><text fill="#000000" font-family="sans-serif" font-size="11" lengthAdjust="spacing" textLength="454" x="13" y="450.0151">+updateCourier( name , email, NIF, socialSecurityNumber, maxWeightCapacity)</text><!--MD5=[b8b60c531ea9f46210fc947827180417]
link UpdateCourierUI to UpdateCourierController--><path codeLine="27" d="M240,55.227 C240,70.683 240,91.421 240,109.647 " fill="none" id="UpdateCourierUI-to-UpdateCourierController" style="stroke:#A80036;stroke-width:1.0;stroke-dasharray:7.0,7.0;"/><polygon fill="#A80036" points="240,114.714,244,105.714,240,109.714,236,105.714,240,114.714" style="stroke:#A80036;stroke-width:1.0;"/><!--MD5=[65d9dcbb7f584d50bdec19fc3c84a621]
link UpdateCourierController to CourierHandler--><path codeLine="28" d="M240,189.07 C240,205.949 240,226.142 240,243.638 " fill="none" id="UpdateCourierController-to-CourierHandler" style="stroke:#A80036;stroke-width:1.0;stroke-dasharray:7.0,7.0;"/><polygon fill="#A80036" points="240,248.974,244,239.974,240,243.974,236,239.974,240,248.974" style="stroke:#A80036;stroke-width:1.0;"/><!--MD5=[d2d3f3951ea94320f07c4b39a5c6adec]
link CourierHandler to DataBase--><path codeLine="29" d="M240,323.07 C240,339.949 240,360.1417 240,377.6375 " fill="none" id="CourierHandler-to-DataBase" style="stroke:#A80036;stroke-width:1.0;stroke-dasharray:7.0,7.0;"/><polygon fill="#A80036" points="240,382.974,244,373.974,240,377.974,236,373.974,240,382.974" style="stroke:#A80036;stroke-width:1.0;"/><!--MD5=[878360845fa26b16a1a04c711c6559f5]
@startuml
skinparam classAttributeIconSize 0




class UpdateCourierController {
  +getCourierList()
  +setCourier(name , email, NIF, socialSecurityNumber, maxWeightCapacity)
}

class UpdateCourierUI {
}

class CourierHandler{
    +courierList = getCourierList()
    +setCourier(name , email, NIF, socialSecurityNumber, maxWeightCapacity)
}

class DataBase{
    +getCourierList()
    +updateCourier( name , email, NIF, socialSecurityNumber, maxWeightCapacity)
}




UpdateCourierUI ..> UpdateCourierController
UpdateCourierController ..> CourierHandler
CourierHandler ..> DataBase
@enduml

PlantUML version 1.2020.27beta7(Unknown compile time)
(GPL source distribution)
Java Runtime: Java(TM) SE Runtime Environment
JVM: Java HotSpot(TM) 64-Bit Server VM
Default Encoding: UTF-8
Language: en
Country: US
--></g></svg>