<?xml version="1.0" encoding="UTF-8" standalone="no"?><svg xmlns="http://www.w3.org/2000/svg" xmlns:xlink="http://www.w3.org/1999/xlink" contentScriptType="application/ecmascript" contentStyleType="text/css" height="597px" preserveAspectRatio="none" style="width:417px;height:597px;" version="1.1" viewBox="0 0 417 597" width="417px" zoomAndPan="magnify"><defs><filter height="300%" id="fwkr6m30p3d39" width="300%" x="-1" y="-1"><feGaussianBlur result="blurOut" stdDeviation="2.0"/><feColorMatrix in="blurOut" result="blurOut2" type="matrix" values="0 0 0 0 0 0 0 0 0 0 0 0 0 0 0 0 0 0 .4 0"/><feOffset dx="4.0" dy="4.0" in="blurOut2" result="blurOut3"/><feBlend in="SourceGraphic" in2="blurOut3" mode="normal"/></filter></defs><g><!--MD5=[56520c7f4249ef95b54f428d6660ac4b]
class UpdateMedicineController--><rect codeLine="3" fill="#FEFECE" filter="url(#fwkr6m30p3d39)" height="60.8047" id="UpdateMedicineController" style="stroke:#A80036;stroke-width:1.5;" width="189" x="214.5" y="170.5"/><ellipse cx="229.5" cy="186.5" fill="#ADD1B2" rx="11" ry="11" style="stroke:#A80036;stroke-width:1.0;"/><path d="M231.8438,182.1719 C230.9063,181.7344 230.3125,181.5938 229.4375,181.5938 C226.8125,181.5938 224.8125,183.6719 224.8125,186.3906 L224.8125,187.5156 C224.8125,190.0938 226.9219,191.9844 229.8125,191.9844 C231.0313,191.9844 232.1875,191.6875 232.9375,191.1406 C233.5156,190.7344 233.8438,190.2813 233.8438,189.8906 C233.8438,189.4375 233.4531,189.0469 232.9844,189.0469 C232.7656,189.0469 232.5625,189.125 232.375,189.3125 C231.9219,189.7969 231.9219,189.7969 231.7344,189.8906 C231.3125,190.1563 230.625,190.2813 229.8594,190.2813 C227.8125,190.2813 226.5156,189.1875 226.5156,187.4844 L226.5156,186.3906 C226.5156,184.6094 227.7656,183.2969 229.5,183.2969 C230.0781,183.2969 230.6875,183.4531 231.1563,183.7031 C231.6406,183.9844 231.8125,184.2031 231.9063,184.6094 C231.9688,185.0156 232,185.1406 232.1406,185.2656 C232.2813,185.4063 232.5156,185.5156 232.7344,185.5156 C233,185.5156 233.2656,185.375 233.4375,185.1563 C233.5469,185 233.5781,184.8125 233.5781,184.3906 L233.5781,182.9688 C233.5781,182.5313 233.5625,182.4063 233.4688,182.25 C233.3125,181.9844 233.0313,181.8438 232.7344,181.8438 C232.4375,181.8438 232.2344,181.9375 232.0156,182.25 L231.8438,182.1719 Z " fill="#000000"/><text fill="#000000" font-family="sans-serif" font-size="12" lengthAdjust="spacing" textLength="157" x="243.5" y="190.6543">UpdateMedicineController</text><line style="stroke:#A80036;stroke-width:1.5;" x1="215.5" x2="402.5" y1="202.5" y2="202.5"/><line style="stroke:#A80036;stroke-width:1.5;" x1="215.5" x2="402.5" y1="210.5" y2="210.5"/><text fill="#000000" font-family="sans-serif" font-size="11" lengthAdjust="spacing" textLength="118" x="220.5" y="224.7104">+updateMedicine(id)</text><!--MD5=[0eb92082db19df76fbf857a268050f31]
class UpdateMedicineUI--><rect codeLine="7" fill="#FEFECE" filter="url(#fwkr6m30p3d39)" height="48" id="UpdateMedicineUI" style="stroke:#A80036;stroke-width:1.5;" width="142" x="238" y="20"/><ellipse cx="253" cy="36" fill="#ADD1B2" rx="11" ry="11" style="stroke:#A80036;stroke-width:1.0;"/><path d="M255.3438,31.6719 C254.4063,31.2344 253.8125,31.0938 252.9375,31.0938 C250.3125,31.0938 248.3125,33.1719 248.3125,35.8906 L248.3125,37.0156 C248.3125,39.5938 250.4219,41.4844 253.3125,41.4844 C254.5313,41.4844 255.6875,41.1875 256.4375,40.6406 C257.0156,40.2344 257.3438,39.7813 257.3438,39.3906 C257.3438,38.9375 256.9531,38.5469 256.4844,38.5469 C256.2656,38.5469 256.0625,38.625 255.875,38.8125 C255.4219,39.2969 255.4219,39.2969 255.2344,39.3906 C254.8125,39.6563 254.125,39.7813 253.3594,39.7813 C251.3125,39.7813 250.0156,38.6875 250.0156,36.9844 L250.0156,35.8906 C250.0156,34.1094 251.2656,32.7969 253,32.7969 C253.5781,32.7969 254.1875,32.9531 254.6563,33.2031 C255.1406,33.4844 255.3125,33.7031 255.4063,34.1094 C255.4688,34.5156 255.5,34.6406 255.6406,34.7656 C255.7813,34.9063 256.0156,35.0156 256.2344,35.0156 C256.5,35.0156 256.7656,34.875 256.9375,34.6563 C257.0469,34.5 257.0781,34.3125 257.0781,33.8906 L257.0781,32.4688 C257.0781,32.0313 257.0625,31.9063 256.9688,31.75 C256.8125,31.4844 256.5313,31.3438 256.2344,31.3438 C255.9375,31.3438 255.7344,31.4375 255.5156,31.75 L255.3438,31.6719 Z " fill="#000000"/><text fill="#000000" font-family="sans-serif" font-size="12" lengthAdjust="spacing" textLength="110" x="267" y="40.1543">UpdateMedicineUI</text><line style="stroke:#A80036;stroke-width:1.5;" x1="239" x2="379" y1="52" y2="52"/><line style="stroke:#A80036;stroke-width:1.5;" x1="239" x2="379" y1="60" y2="60"/><!--MD5=[6abf378e3cb5ccaa74d2ccddc974f58a]
class MedicineHandler--><rect codeLine="10" fill="#FEFECE" filter="url(#fwkr6m30p3d39)" height="60.8047" id="MedicineHandler" style="stroke:#A80036;stroke-width:1.5;" width="133" x="164.5" y="346.5"/><ellipse cx="179.5" cy="362.5" fill="#ADD1B2" rx="11" ry="11" style="stroke:#A80036;stroke-width:1.0;"/><path d="M181.8438,358.1719 C180.9063,357.7344 180.3125,357.5938 179.4375,357.5938 C176.8125,357.5938 174.8125,359.6719 174.8125,362.3906 L174.8125,363.5156 C174.8125,366.0938 176.9219,367.9844 179.8125,367.9844 C181.0313,367.9844 182.1875,367.6875 182.9375,367.1406 C183.5156,366.7344 183.8438,366.2813 183.8438,365.8906 C183.8438,365.4375 183.4531,365.0469 182.9844,365.0469 C182.7656,365.0469 182.5625,365.125 182.375,365.3125 C181.9219,365.7969 181.9219,365.7969 181.7344,365.8906 C181.3125,366.1563 180.625,366.2813 179.8594,366.2813 C177.8125,366.2813 176.5156,365.1875 176.5156,363.4844 L176.5156,362.3906 C176.5156,360.6094 177.7656,359.2969 179.5,359.2969 C180.0781,359.2969 180.6875,359.4531 181.1563,359.7031 C181.6406,359.9844 181.8125,360.2031 181.9063,360.6094 C181.9688,361.0156 182,361.1406 182.1406,361.2656 C182.2813,361.4063 182.5156,361.5156 182.7344,361.5156 C183,361.5156 183.2656,361.375 183.4375,361.1563 C183.5469,361 183.5781,360.8125 183.5781,360.3906 L183.5781,358.9688 C183.5781,358.5313 183.5625,358.4063 183.4688,358.25 C183.3125,357.9844 183.0313,357.8438 182.7344,357.8438 C182.4375,357.8438 182.2344,357.9375 182.0156,358.25 L181.8438,358.1719 Z " fill="#000000"/><text fill="#000000" font-family="sans-serif" font-size="12" lengthAdjust="spacing" textLength="101" x="193.5" y="366.6543">MedicineHandler</text><line style="stroke:#A80036;stroke-width:1.5;" x1="165.5" x2="296.5" y1="378.5" y2="378.5"/><line style="stroke:#A80036;stroke-width:1.5;" x1="165.5" x2="296.5" y1="386.5" y2="386.5"/><text fill="#000000" font-family="sans-serif" font-size="11" lengthAdjust="spacing" textLength="118" x="170.5" y="400.7104">+updateMedicine(id)</text><!--MD5=[72136138052d025cffdce3c22fbd185f]
class Product--><rect codeLine="14" fill="#FEFECE" filter="url(#fwkr6m30p3d39)" height="112.0234" id="Product" style="stroke:#A80036;stroke-width:1.5;" width="115" x="14.5" y="321"/><ellipse cx="46.6" cy="337" fill="#ADD1B2" rx="11" ry="11" style="stroke:#A80036;stroke-width:1.0;"/><path d="M48.9438,332.6719 C48.0063,332.2344 47.4125,332.0938 46.5375,332.0938 C43.9125,332.0938 41.9125,334.1719 41.9125,336.8906 L41.9125,338.0156 C41.9125,340.5938 44.0219,342.4844 46.9125,342.4844 C48.1313,342.4844 49.2875,342.1875 50.0375,341.6406 C50.6156,341.2344 50.9438,340.7813 50.9438,340.3906 C50.9438,339.9375 50.5531,339.5469 50.0844,339.5469 C49.8656,339.5469 49.6625,339.625 49.475,339.8125 C49.0219,340.2969 49.0219,340.2969 48.8344,340.3906 C48.4125,340.6563 47.725,340.7813 46.9594,340.7813 C44.9125,340.7813 43.6156,339.6875 43.6156,337.9844 L43.6156,336.8906 C43.6156,335.1094 44.8656,333.7969 46.6,333.7969 C47.1781,333.7969 47.7875,333.9531 48.2563,334.2031 C48.7406,334.4844 48.9125,334.7031 49.0063,335.1094 C49.0688,335.5156 49.1,335.6406 49.2406,335.7656 C49.3813,335.9063 49.6156,336.0156 49.8344,336.0156 C50.1,336.0156 50.3656,335.875 50.5375,335.6563 C50.6469,335.5 50.6781,335.3125 50.6781,334.8906 L50.6781,333.4688 C50.6781,333.0313 50.6625,332.9063 50.5688,332.75 C50.4125,332.4844 50.1313,332.3438 49.8344,332.3438 C49.5375,332.3438 49.3344,332.4375 49.1156,332.75 L48.9438,332.6719 Z " fill="#000000"/><text fill="#000000" font-family="sans-serif" font-size="12" lengthAdjust="spacing" textLength="45" x="64.4" y="341.1543">Product</text><line style="stroke:#A80036;stroke-width:1.5;" x1="15.5" x2="128.5" y1="353" y2="353"/><text fill="#000000" font-family="sans-serif" font-size="11" lengthAdjust="spacing" textLength="51" x="20.5" y="367.2104">-String id</text><text fill="#000000" font-family="sans-serif" font-size="11" lengthAdjust="spacing" textLength="74" x="20.5" y="380.0151">-String name</text><text fill="#000000" font-family="sans-serif" font-size="11" lengthAdjust="spacing" textLength="103" x="20.5" y="392.8198">-String description</text><text fill="#000000" font-family="sans-serif" font-size="11" lengthAdjust="spacing" textLength="75" x="20.5" y="405.6245">-double price</text><text fill="#000000" font-family="sans-serif" font-size="11" lengthAdjust="spacing" textLength="85" x="20.5" y="418.4292">-double weight</text><line style="stroke:#A80036;stroke-width:1.5;" x1="15.5" x2="128.5" y1="425.0234" y2="425.0234"/><!--MD5=[da547346deef918ea16944ba046651ef]
class Administrator--><rect codeLine="23" fill="#FEFECE" filter="url(#fwkr6m30p3d39)" height="73.6094" id="Administrator" style="stroke:#A80036;stroke-width:1.5;" width="112" x="16" y="7"/><ellipse cx="31" cy="23" fill="#ADD1B2" rx="11" ry="11" style="stroke:#A80036;stroke-width:1.0;"/><path d="M33.3438,18.6719 C32.4063,18.2344 31.8125,18.0938 30.9375,18.0938 C28.3125,18.0938 26.3125,20.1719 26.3125,22.8906 L26.3125,24.0156 C26.3125,26.5938 28.4219,28.4844 31.3125,28.4844 C32.5313,28.4844 33.6875,28.1875 34.4375,27.6406 C35.0156,27.2344 35.3438,26.7813 35.3438,26.3906 C35.3438,25.9375 34.9531,25.5469 34.4844,25.5469 C34.2656,25.5469 34.0625,25.625 33.875,25.8125 C33.4219,26.2969 33.4219,26.2969 33.2344,26.3906 C32.8125,26.6563 32.125,26.7813 31.3594,26.7813 C29.3125,26.7813 28.0156,25.6875 28.0156,23.9844 L28.0156,22.8906 C28.0156,21.1094 29.2656,19.7969 31,19.7969 C31.5781,19.7969 32.1875,19.9531 32.6563,20.2031 C33.1406,20.4844 33.3125,20.7031 33.4063,21.1094 C33.4688,21.5156 33.5,21.6406 33.6406,21.7656 C33.7813,21.9063 34.0156,22.0156 34.2344,22.0156 C34.5,22.0156 34.7656,21.875 34.9375,21.6563 C35.0469,21.5 35.0781,21.3125 35.0781,20.8906 L35.0781,19.4688 C35.0781,19.0313 35.0625,18.9063 34.9688,18.75 C34.8125,18.4844 34.5313,18.3438 34.2344,18.3438 C33.9375,18.3438 33.7344,18.4375 33.5156,18.75 L33.3438,18.6719 Z " fill="#000000"/><text fill="#000000" font-family="sans-serif" font-size="12" lengthAdjust="spacing" textLength="80" x="45" y="27.1543">Administrator</text><line style="stroke:#A80036;stroke-width:1.5;" x1="17" x2="127" y1="39" y2="39"/><text fill="#000000" font-family="sans-serif" font-size="11" lengthAdjust="spacing" textLength="73" x="22" y="53.2104">-String email</text><text fill="#000000" font-family="sans-serif" font-size="11" lengthAdjust="spacing" textLength="94" x="22" y="66.0151">-String password</text><line style="stroke:#A80036;stroke-width:1.5;" x1="17" x2="127" y1="72.6094" y2="72.6094"/><!--MD5=[7f2a9fafcebe4f099f71398fd3e2ed00]
class Pharmacy--><rect codeLine="28" fill="#FEFECE" filter="url(#fwkr6m30p3d39)" height="86.4141" id="Pharmacy" style="stroke:#A80036;stroke-width:1.5;" width="130" x="7" y="158"/><ellipse cx="40.45" cy="174" fill="#ADD1B2" rx="11" ry="11" style="stroke:#A80036;stroke-width:1.0;"/><path d="M42.7938,169.6719 C41.8563,169.2344 41.2625,169.0938 40.3875,169.0938 C37.7625,169.0938 35.7625,171.1719 35.7625,173.8906 L35.7625,175.0156 C35.7625,177.5938 37.8719,179.4844 40.7625,179.4844 C41.9813,179.4844 43.1375,179.1875 43.8875,178.6406 C44.4656,178.2344 44.7938,177.7813 44.7938,177.3906 C44.7938,176.9375 44.4031,176.5469 43.9344,176.5469 C43.7156,176.5469 43.5125,176.625 43.325,176.8125 C42.8719,177.2969 42.8719,177.2969 42.6844,177.3906 C42.2625,177.6563 41.575,177.7813 40.8094,177.7813 C38.7625,177.7813 37.4656,176.6875 37.4656,174.9844 L37.4656,173.8906 C37.4656,172.1094 38.7156,170.7969 40.45,170.7969 C41.0281,170.7969 41.6375,170.9531 42.1063,171.2031 C42.5906,171.4844 42.7625,171.7031 42.8563,172.1094 C42.9188,172.5156 42.95,172.6406 43.0906,172.7656 C43.2313,172.9063 43.4656,173.0156 43.6844,173.0156 C43.95,173.0156 44.2156,172.875 44.3875,172.6563 C44.4969,172.5 44.5281,172.3125 44.5281,171.8906 L44.5281,170.4688 C44.5281,170.0313 44.5125,169.9063 44.4188,169.75 C44.2625,169.4844 43.9813,169.3438 43.6844,169.3438 C43.3875,169.3438 43.1844,169.4375 42.9656,169.75 L42.7938,169.6719 Z " fill="#000000"/><text fill="#000000" font-family="sans-serif" font-size="12" lengthAdjust="spacing" textLength="57" x="58.55" y="178.1543">Pharmacy</text><line style="stroke:#A80036;stroke-width:1.5;" x1="8" x2="136" y1="190" y2="190"/><text fill="#000000" font-family="sans-serif" font-size="11" lengthAdjust="spacing" textLength="51" x="13" y="204.2104">-String id</text><text fill="#000000" font-family="sans-serif" font-size="11" lengthAdjust="spacing" textLength="74" x="13" y="217.0151">-String name</text><text fill="#000000" font-family="sans-serif" font-size="11" lengthAdjust="spacing" textLength="118" x="13" y="229.8198">-int quantityScooters</text><line style="stroke:#A80036;stroke-width:1.5;" x1="8" x2="136" y1="236.4141" y2="236.4141"/><!--MD5=[a4cb0f987c11031dc931233a0e7767af]
class Stock--><rect codeLine="34" fill="#FEFECE" filter="url(#fwkr6m30p3d39)" height="73.6094" id="Stock" style="stroke:#A80036;stroke-width:1.5;" width="107" x="177.5" y="510"/><ellipse cx="210.95" cy="526" fill="#ADD1B2" rx="11" ry="11" style="stroke:#A80036;stroke-width:1.0;"/><path d="M213.2938,521.6719 C212.3563,521.2344 211.7625,521.0938 210.8875,521.0938 C208.2625,521.0938 206.2625,523.1719 206.2625,525.8906 L206.2625,527.0156 C206.2625,529.5938 208.3719,531.4844 211.2625,531.4844 C212.4813,531.4844 213.6375,531.1875 214.3875,530.6406 C214.9656,530.2344 215.2938,529.7813 215.2938,529.3906 C215.2938,528.9375 214.9031,528.5469 214.4344,528.5469 C214.2156,528.5469 214.0125,528.625 213.825,528.8125 C213.3719,529.2969 213.3719,529.2969 213.1844,529.3906 C212.7625,529.6563 212.075,529.7813 211.3094,529.7813 C209.2625,529.7813 207.9656,528.6875 207.9656,526.9844 L207.9656,525.8906 C207.9656,524.1094 209.2156,522.7969 210.95,522.7969 C211.5281,522.7969 212.1375,522.9531 212.6063,523.2031 C213.0906,523.4844 213.2625,523.7031 213.3563,524.1094 C213.4188,524.5156 213.45,524.6406 213.5906,524.7656 C213.7313,524.9063 213.9656,525.0156 214.1844,525.0156 C214.45,525.0156 214.7156,524.875 214.8875,524.6563 C214.9969,524.5 215.0281,524.3125 215.0281,523.8906 L215.0281,522.4688 C215.0281,522.0313 215.0125,521.9063 214.9188,521.75 C214.7625,521.4844 214.4813,521.3438 214.1844,521.3438 C213.8875,521.3438 213.6844,521.4375 213.4656,521.75 L213.2938,521.6719 Z " fill="#000000"/><text fill="#000000" font-family="sans-serif" font-size="12" lengthAdjust="spacing" textLength="34" x="229.05" y="530.1543">Stock</text><line style="stroke:#A80036;stroke-width:1.5;" x1="178.5" x2="283.5" y1="542" y2="542"/><text fill="#000000" font-family="sans-serif" font-size="11" lengthAdjust="spacing" textLength="95" x="183.5" y="556.2104">-String productID</text><text fill="#000000" font-family="sans-serif" font-size="11" lengthAdjust="spacing" textLength="68" x="183.5" y="569.0151">-int quantity</text><line style="stroke:#A80036;stroke-width:1.5;" x1="178.5" x2="283.5" y1="575.6094" y2="575.6094"/><!--MD5=[8b7354c4d69fb32a37a2d1b7bcf910ba]
link UpdateMedicineUI to UpdateMedicineController--><path codeLine="40" d="M309,68.205 C309,93.912 309,135.635 309,165.245 " fill="none" id="UpdateMedicineUI-to-UpdateMedicineController" style="stroke:#A80036;stroke-width:1.0;stroke-dasharray:7.0,7.0;"/><polygon fill="#A80036" points="309,170.256,313,161.256,309,165.256,305,161.256,309,170.256" style="stroke:#A80036;stroke-width:1.0;"/><!--MD5=[1338ffed7cbaf6f1fbf3443677f63899]
link UpdateMedicineController to MedicineHandler--><path codeLine="41" d="M295.768,231.517 C282.097,262.013 260.78,309.567 246.371,341.711 " fill="none" id="UpdateMedicineController-to-MedicineHandler" style="stroke:#A80036;stroke-width:1.0;stroke-dasharray:7.0,7.0;"/><polygon fill="#A80036" points="244.297,346.338,251.6289,339.762,246.3425,341.7756,244.329,336.4892,244.297,346.338" style="stroke:#A80036;stroke-width:1.0;"/><!--MD5=[4f8231649f39f68864fa9780608ff45e]
link UpdateMedicineController to Stock--><path codeLine="42" d="M316.041,231.741 C325.3,276.652 337.878,363.874 315,433 C306.071,459.978 287.93,485.7558 270.785,505.8606 " fill="none" id="UpdateMedicineController-to-Stock" style="stroke:#A80036;stroke-width:1.0;stroke-dasharray:7.0,7.0;"/><polygon fill="#A80036" points="267.372,509.8046,276.2856,505.6157,270.6435,506.0234,270.2358,500.3813,267.372,509.8046" style="stroke:#A80036;stroke-width:1.0;"/><!--MD5=[862ff7f3c36813b058195d6d17c168a8]
link MedicineHandler to Stock--><path codeLine="43" d="M231,407.648 C231,434.629 231,474.722 231,504.8111 " fill="none" id="MedicineHandler-to-Stock" style="stroke:#A80036;stroke-width:1.0;stroke-dasharray:7.0,7.0;"/><polygon fill="#A80036" points="231,509.9284,235,500.9284,231,504.9284,227,500.9284,231,509.9284" style="stroke:#A80036;stroke-width:1.0;"/><!--MD5=[737ca6dd1a667cd849e932d7cf955580]
link Pharmacy to Product--><path codeLine="45" d="M72,244.121 C72,267.153 72,295.964 72,320.777 " fill="none" id="Pharmacy-Product" style="stroke:#A80036;stroke-width:1.0;"/><polygon fill="#000000" points="77,287.5664,79.9389,278.5213,74.0611,278.5213,77,287.5664" style="stroke:#000000;stroke-width:1.0;"/><text fill="#000000" font-family="sans-serif" font-size="13" lengthAdjust="spacing" textLength="24" x="86" y="287.0669">Has</text><text fill="#000000" font-family="sans-serif" font-size="13" lengthAdjust="spacing" textLength="8" x="63.3375" y="264.5487">1</text><text fill="#000000" font-family="sans-serif" font-size="13" lengthAdjust="spacing" textLength="16" x="55.025" y="310.0843">1..</text><!--MD5=[f03ebb71f36b9f67845ea5d0d1209a09]
link Product to Stock--><path codeLine="46" d="M124.063,433.009 C147.973,458.273 175.657,487.5242 196.866,509.934 " fill="none" id="Product-Stock" style="stroke:#A80036;stroke-width:1.0;"/><polygon fill="#000000" points="174.4369,475.1979,170.354,466.6083,166.085,470.6486,174.4369,475.1979" style="stroke:#000000;stroke-width:1.0;"/><text fill="#000000" font-family="sans-serif" font-size="13" lengthAdjust="spacing" textLength="24" x="180" y="476.0669">Has</text><text fill="#000000" font-family="sans-serif" font-size="13" lengthAdjust="spacing" textLength="8" x="122.2211" y="453.22">1</text><text fill="#000000" font-family="sans-serif" font-size="13" lengthAdjust="spacing" textLength="8" x="181.835" y="498.8323">1</text><!--MD5=[8aaadde0a51a6974a75b41b6a40c57cb]
link Administrator to Pharmacy--><path codeLine="47" d="M72,81.341 C72,104.247 72,133.912 72,157.85 " fill="none" id="Administrator-Pharmacy" style="stroke:#A80036;stroke-width:1.0;"/><polygon fill="#000000" points="77,124.5664,79.9389,115.5213,74.0611,115.5213,77,124.5664" style="stroke:#000000;stroke-width:1.0;"/><text fill="#000000" font-family="sans-serif" font-size="13" lengthAdjust="spacing" textLength="57" x="86" y="124.0669">Manages</text><text fill="#000000" font-family="sans-serif" font-size="13" lengthAdjust="spacing" textLength="8" x="63.3625" y="100.5961">1</text><text fill="#000000" font-family="sans-serif" font-size="13" lengthAdjust="spacing" textLength="16" x="54.725" y="146.8221">1..</text><!--MD5=[070e623dc104d2339f53f4708b621370]
@startuml
skinparam classAttributeIconSize 0

class UpdateMedicineController {
  +updateMedicine(id)
}

class UpdateMedicineUI {
}

class MedicineHandler{
    +updateMedicine(id)
}

class Product {
  -String id
  -String name
  -String description
  -double price
  -double weight
  
}

class Administrator{
  -String email
  -String password 
}

class Pharmacy {
  -String id
  -String name
  -int quantityScooters
  }
  
class Stock {
  -String productID
  -int quantity
}


UpdateMedicineUI ..> UpdateMedicineController
UpdateMedicineController ..> MedicineHandler
UpdateMedicineController ..> Stock
MedicineHandler ..> Stock

Pharmacy "1" - - "1.." Product: Has >
Product "1" - - "1" Stock: Has > 
Administrator "1" - - "1.." Pharmacy: Manages >
@enduml

PlantUML version 1.2020.27beta6(Unknown compile time)
(GPL source distribution)
Java Runtime: Java(TM) SE Runtime Environment
JVM: Java HotSpot(TM) 64-Bit Server VM
Default Encoding: UTF-8
Language: en
Country: US
--></g></svg>