<?xml version="1.0" encoding="UTF-8" standalone="no"?><svg xmlns="http://www.w3.org/2000/svg" xmlns:xlink="http://www.w3.org/1999/xlink" contentScriptType="application/ecmascript" contentStyleType="text/css" height="470px" preserveAspectRatio="none" style="width:235px;height:470px;" version="1.1" viewBox="0 0 235 470" width="235px" zoomAndPan="magnify"><defs><filter height="300%" id="f1eh1dn07pm53v" width="300%" x="-1" y="-1"><feGaussianBlur result="blurOut" stdDeviation="2.0"/><feColorMatrix in="blurOut" result="blurOut2" type="matrix" values="0 0 0 0 0 0 0 0 0 0 0 0 0 0 0 0 0 0 .4 0"/><feOffset dx="4.0" dy="4.0" in="blurOut2" result="blurOut3"/><feBlend in="SourceGraphic" in2="blurOut3" mode="normal"/></filter></defs><g><!--MD5=[56520c7f4249ef95b54f428d6660ac4b]
class UpdateMedicineController--><rect codeLine="6" fill="#FEFECE" filter="url(#f1eh1dn07pm53v)" height="73.6094" id="UpdateMedicineController" style="stroke:#A80036;stroke-width:1.5;" width="189" x="19.5" y="115"/><ellipse cx="34.5" cy="131" fill="#ADD1B2" rx="11" ry="11" style="stroke:#A80036;stroke-width:1.0;"/><path d="M36.8438,126.6719 C35.9063,126.2344 35.3125,126.0938 34.4375,126.0938 C31.8125,126.0938 29.8125,128.1719 29.8125,130.8906 L29.8125,132.0156 C29.8125,134.5938 31.9219,136.4844 34.8125,136.4844 C36.0313,136.4844 37.1875,136.1875 37.9375,135.6406 C38.5156,135.2344 38.8438,134.7813 38.8438,134.3906 C38.8438,133.9375 38.4531,133.5469 37.9844,133.5469 C37.7656,133.5469 37.5625,133.625 37.375,133.8125 C36.9219,134.2969 36.9219,134.2969 36.7344,134.3906 C36.3125,134.6563 35.625,134.7813 34.8594,134.7813 C32.8125,134.7813 31.5156,133.6875 31.5156,131.9844 L31.5156,130.8906 C31.5156,129.1094 32.7656,127.7969 34.5,127.7969 C35.0781,127.7969 35.6875,127.9531 36.1563,128.2031 C36.6406,128.4844 36.8125,128.7031 36.9063,129.1094 C36.9688,129.5156 37,129.6406 37.1406,129.7656 C37.2813,129.9063 37.5156,130.0156 37.7344,130.0156 C38,130.0156 38.2656,129.875 38.4375,129.6563 C38.5469,129.5 38.5781,129.3125 38.5781,128.8906 L38.5781,127.4688 C38.5781,127.0313 38.5625,126.9063 38.4688,126.75 C38.3125,126.4844 38.0313,126.3438 37.7344,126.3438 C37.4375,126.3438 37.2344,126.4375 37.0156,126.75 L36.8438,126.6719 Z " fill="#000000"/><text fill="#000000" font-family="sans-serif" font-size="12" lengthAdjust="spacing" textLength="157" x="48.5" y="135.1543">UpdateMedicineController</text><line style="stroke:#A80036;stroke-width:1.5;" x1="20.5" x2="207.5" y1="147" y2="147"/><line style="stroke:#A80036;stroke-width:1.5;" x1="20.5" x2="207.5" y1="155" y2="155"/><text fill="#000000" font-family="sans-serif" font-size="11" lengthAdjust="spacing" textLength="112" x="25.5" y="169.2104">+getMedicinesList()</text><text fill="#000000" font-family="sans-serif" font-size="11" lengthAdjust="spacing" textLength="112" x="25.5" y="182.0151">+setStock(quantity)</text><!--MD5=[0eb92082db19df76fbf857a268050f31]
class UpdateMedicineUI--><rect codeLine="11" fill="#FEFECE" filter="url(#f1eh1dn07pm53v)" height="48" id="UpdateMedicineUI" style="stroke:#A80036;stroke-width:1.5;" width="142" x="43" y="7"/><ellipse cx="58" cy="23" fill="#ADD1B2" rx="11" ry="11" style="stroke:#A80036;stroke-width:1.0;"/><path d="M60.3438,18.6719 C59.4063,18.2344 58.8125,18.0938 57.9375,18.0938 C55.3125,18.0938 53.3125,20.1719 53.3125,22.8906 L53.3125,24.0156 C53.3125,26.5938 55.4219,28.4844 58.3125,28.4844 C59.5313,28.4844 60.6875,28.1875 61.4375,27.6406 C62.0156,27.2344 62.3438,26.7813 62.3438,26.3906 C62.3438,25.9375 61.9531,25.5469 61.4844,25.5469 C61.2656,25.5469 61.0625,25.625 60.875,25.8125 C60.4219,26.2969 60.4219,26.2969 60.2344,26.3906 C59.8125,26.6563 59.125,26.7813 58.3594,26.7813 C56.3125,26.7813 55.0156,25.6875 55.0156,23.9844 L55.0156,22.8906 C55.0156,21.1094 56.2656,19.7969 58,19.7969 C58.5781,19.7969 59.1875,19.9531 59.6563,20.2031 C60.1406,20.4844 60.3125,20.7031 60.4063,21.1094 C60.4688,21.5156 60.5,21.6406 60.6406,21.7656 C60.7813,21.9063 61.0156,22.0156 61.2344,22.0156 C61.5,22.0156 61.7656,21.875 61.9375,21.6563 C62.0469,21.5 62.0781,21.3125 62.0781,20.8906 L62.0781,19.4688 C62.0781,19.0313 62.0625,18.9063 61.9688,18.75 C61.8125,18.4844 61.5313,18.3438 61.2344,18.3438 C60.9375,18.3438 60.7344,18.4375 60.5156,18.75 L60.3438,18.6719 Z " fill="#000000"/><text fill="#000000" font-family="sans-serif" font-size="12" lengthAdjust="spacing" textLength="110" x="72" y="27.1543">UpdateMedicineUI</text><line style="stroke:#A80036;stroke-width:1.5;" x1="44" x2="184" y1="39" y2="39"/><line style="stroke:#A80036;stroke-width:1.5;" x1="44" x2="184" y1="47" y2="47"/><!--MD5=[6abf378e3cb5ccaa74d2ccddc974f58a]
class MedicineHandler--><rect codeLine="14" fill="#FEFECE" filter="url(#f1eh1dn07pm53v)" height="73.6094" id="MedicineHandler" style="stroke:#A80036;stroke-width:1.5;" width="214" x="7" y="249"/><ellipse cx="59.25" cy="265" fill="#ADD1B2" rx="11" ry="11" style="stroke:#A80036;stroke-width:1.0;"/><path d="M61.5938,260.6719 C60.6563,260.2344 60.0625,260.0938 59.1875,260.0938 C56.5625,260.0938 54.5625,262.1719 54.5625,264.8906 L54.5625,266.0156 C54.5625,268.5938 56.6719,270.4844 59.5625,270.4844 C60.7813,270.4844 61.9375,270.1875 62.6875,269.6406 C63.2656,269.2344 63.5938,268.7813 63.5938,268.3906 C63.5938,267.9375 63.2031,267.5469 62.7344,267.5469 C62.5156,267.5469 62.3125,267.625 62.125,267.8125 C61.6719,268.2969 61.6719,268.2969 61.4844,268.3906 C61.0625,268.6563 60.375,268.7813 59.6094,268.7813 C57.5625,268.7813 56.2656,267.6875 56.2656,265.9844 L56.2656,264.8906 C56.2656,263.1094 57.5156,261.7969 59.25,261.7969 C59.8281,261.7969 60.4375,261.9531 60.9063,262.2031 C61.3906,262.4844 61.5625,262.7031 61.6563,263.1094 C61.7188,263.5156 61.75,263.6406 61.8906,263.7656 C62.0313,263.9063 62.2656,264.0156 62.4844,264.0156 C62.75,264.0156 63.0156,263.875 63.1875,263.6563 C63.2969,263.5 63.3281,263.3125 63.3281,262.8906 L63.3281,261.4688 C63.3281,261.0313 63.3125,260.9063 63.2188,260.75 C63.0625,260.4844 62.7813,260.3438 62.4844,260.3438 C62.1875,260.3438 61.9844,260.4375 61.7656,260.75 L61.5938,260.6719 Z " fill="#000000"/><text fill="#000000" font-family="sans-serif" font-size="12" lengthAdjust="spacing" textLength="101" x="79.75" y="269.1543">MedicineHandler</text><line style="stroke:#A80036;stroke-width:1.5;" x1="8" x2="220" y1="281" y2="281"/><line style="stroke:#A80036;stroke-width:1.5;" x1="8" x2="220" y1="289" y2="289"/><text fill="#000000" font-family="sans-serif" font-size="11" lengthAdjust="spacing" textLength="202" x="13" y="303.2104">+listMedicines = getMedicinesList()</text><text fill="#000000" font-family="sans-serif" font-size="11" lengthAdjust="spacing" textLength="112" x="13" y="316.0151">+setStock(quantity)</text><!--MD5=[837d3612090b426002fd1342fcbe6b88]
class DataBase--><rect codeLine="19" fill="#FEFECE" filter="url(#f1eh1dn07pm53v)" height="73.6094" id="DataBase" style="stroke:#A80036;stroke-width:1.5;" width="146" x="41" y="383"/><ellipse cx="81.65" cy="399" fill="#ADD1B2" rx="11" ry="11" style="stroke:#A80036;stroke-width:1.0;"/><path d="M83.9938,394.6719 C83.0563,394.2344 82.4625,394.0938 81.5875,394.0938 C78.9625,394.0938 76.9625,396.1719 76.9625,398.8906 L76.9625,400.0156 C76.9625,402.5938 79.0719,404.4844 81.9625,404.4844 C83.1813,404.4844 84.3375,404.1875 85.0875,403.6406 C85.6656,403.2344 85.9938,402.7813 85.9938,402.3906 C85.9938,401.9375 85.6031,401.5469 85.1344,401.5469 C84.9156,401.5469 84.7125,401.625 84.525,401.8125 C84.0719,402.2969 84.0719,402.2969 83.8844,402.3906 C83.4625,402.6563 82.775,402.7813 82.0094,402.7813 C79.9625,402.7813 78.6656,401.6875 78.6656,399.9844 L78.6656,398.8906 C78.6656,397.1094 79.9156,395.7969 81.65,395.7969 C82.2281,395.7969 82.8375,395.9531 83.3063,396.2031 C83.7906,396.4844 83.9625,396.7031 84.0563,397.1094 C84.1188,397.5156 84.15,397.6406 84.2906,397.7656 C84.4313,397.9063 84.6656,398.0156 84.8844,398.0156 C85.15,398.0156 85.4156,397.875 85.5875,397.6563 C85.6969,397.5 85.7281,397.3125 85.7281,396.8906 L85.7281,395.4688 C85.7281,395.0313 85.7125,394.9063 85.6188,394.75 C85.4625,394.4844 85.1813,394.3438 84.8844,394.3438 C84.5875,394.3438 84.3844,394.4375 84.1656,394.75 L83.9938,394.6719 Z " fill="#000000"/><text fill="#000000" font-family="sans-serif" font-size="12" lengthAdjust="spacing" textLength="57" x="101.35" y="403.1543">DataBase</text><line style="stroke:#A80036;stroke-width:1.5;" x1="42" x2="186" y1="415" y2="415"/><line style="stroke:#A80036;stroke-width:1.5;" x1="42" x2="186" y1="423" y2="423"/><text fill="#000000" font-family="sans-serif" font-size="11" lengthAdjust="spacing" textLength="112" x="47" y="437.2104">+getMedicinesList()</text><text fill="#000000" font-family="sans-serif" font-size="11" lengthAdjust="spacing" textLength="134" x="47" y="450.0151">+updateStock(quantity)</text><!--MD5=[8b7354c4d69fb32a37a2d1b7bcf910ba]
link UpdateMedicineUI to UpdateMedicineController--><path codeLine="27" d="M114,55.227 C114,70.683 114,91.421 114,109.647 " fill="none" id="UpdateMedicineUI-to-UpdateMedicineController" style="stroke:#A80036;stroke-width:1.0;stroke-dasharray:7.0,7.0;"/><polygon fill="#A80036" points="114,114.714,118,105.714,114,109.714,110,105.714,114,114.714" style="stroke:#A80036;stroke-width:1.0;"/><!--MD5=[1338ffed7cbaf6f1fbf3443677f63899]
link UpdateMedicineController to MedicineHandler--><path codeLine="28" d="M114,189.07 C114,205.949 114,226.142 114,243.638 " fill="none" id="UpdateMedicineController-to-MedicineHandler" style="stroke:#A80036;stroke-width:1.0;stroke-dasharray:7.0,7.0;"/><polygon fill="#A80036" points="114,248.974,118,239.974,114,243.974,110,239.974,114,248.974" style="stroke:#A80036;stroke-width:1.0;"/><!--MD5=[81304a25ac0cbb6579b8adfcec556f55]
link MedicineHandler to DataBase--><path codeLine="29" d="M114,323.07 C114,339.949 114,360.1417 114,377.6375 " fill="none" id="MedicineHandler-to-DataBase" style="stroke:#A80036;stroke-width:1.0;stroke-dasharray:7.0,7.0;"/><polygon fill="#A80036" points="114,382.974,118,373.974,114,377.974,110,373.974,114,382.974" style="stroke:#A80036;stroke-width:1.0;"/><!--MD5=[3e1b5f9ca88a9551a90c63612007189c]
@startuml
skinparam classAttributeIconSize 0




class UpdateMedicineController {
  +getMedicinesList()
  +setStock(quantity)
}

class UpdateMedicineUI  {
}

class MedicineHandler{
    +listMedicines = getMedicinesList()
    +setStock(quantity)
}

class DataBase{
    +getMedicinesList()
    +updateStock(quantity)
}




UpdateMedicineUI  ..> UpdateMedicineController
UpdateMedicineController ..> MedicineHandler
MedicineHandler ..> DataBase
@enduml

PlantUML version 1.2020.27beta7(Unknown compile time)
(GPL source distribution)
Java Runtime: Java(TM) SE Runtime Environment
JVM: Java HotSpot(TM) 64-Bit Server VM
Default Encoding: UTF-8
Language: en
Country: US
--></g></svg>