<?xml version="1.0" encoding="UTF-8" standalone="no"?><svg xmlns="http://www.w3.org/2000/svg" xmlns:xlink="http://www.w3.org/1999/xlink" contentScriptType="application/ecmascript" contentStyleType="text/css" height="167px" preserveAspectRatio="none" style="width:964px;height:167px;" version="1.1" viewBox="0 0 964 167" width="964px" zoomAndPan="magnify"><defs><filter height="300%" id="f1w4ru9vcwopd" width="300%" x="-1" y="-1"><feGaussianBlur result="blurOut" stdDeviation="2.0"/><feColorMatrix in="blurOut" result="blurOut2" type="matrix" values="0 0 0 0 0 0 0 0 0 0 0 0 0 0 0 0 0 0 .4 0"/><feOffset dx="4.0" dy="4.0" in="blurOut2" result="blurOut3"/><feBlend in="SourceGraphic" in2="blurOut3" mode="normal"/></filter></defs><g><!--MD5=[c6a2171c11447acbe08a3dfeee0e1710]
class Courier--><rect codeLine="8" fill="#FEFECE" filter="url(#f1w4ru9vcwopd)" height="78.4141" id="Courier" style="stroke:#A80036;stroke-width:1.5;" width="173" x="236" y="17.5"/><ellipse cx="296.25" cy="33.5" fill="#ADD1B2" rx="11" ry="11" style="stroke:#A80036;stroke-width:1.0;"/><path d="M298.5938,29.1719 C297.6563,28.7344 297.0625,28.5938 296.1875,28.5938 C293.5625,28.5938 291.5625,30.6719 291.5625,33.3906 L291.5625,34.5156 C291.5625,37.0938 293.6719,38.9844 296.5625,38.9844 C297.7813,38.9844 298.9375,38.6875 299.6875,38.1406 C300.2656,37.7344 300.5938,37.2813 300.5938,36.8906 C300.5938,36.4375 300.2031,36.0469 299.7344,36.0469 C299.5156,36.0469 299.3125,36.125 299.125,36.3125 C298.6719,36.7969 298.6719,36.7969 298.4844,36.8906 C298.0625,37.1563 297.375,37.2813 296.6094,37.2813 C294.5625,37.2813 293.2656,36.1875 293.2656,34.4844 L293.2656,33.3906 C293.2656,31.6094 294.5156,30.2969 296.25,30.2969 C296.8281,30.2969 297.4375,30.4531 297.9063,30.7031 C298.3906,30.9844 298.5625,31.2031 298.6563,31.6094 C298.7188,32.0156 298.75,32.1406 298.8906,32.2656 C299.0313,32.4063 299.2656,32.5156 299.4844,32.5156 C299.75,32.5156 300.0156,32.375 300.1875,32.1563 C300.2969,32 300.3281,31.8125 300.3281,31.3906 L300.3281,29.9688 C300.3281,29.5313 300.3125,29.4063 300.2188,29.25 C300.0625,28.9844 299.7813,28.8438 299.4844,28.8438 C299.1875,28.8438 298.9844,28.9375 298.7656,29.25 L298.5938,29.1719 Z " fill="#000000"/><text fill="#000000" font-family="sans-serif" font-size="12" lengthAdjust="spacingAndGlyphs" textLength="44" x="316.75" y="37.6543">Courier</text><line style="stroke:#A80036;stroke-width:1.5;" x1="237" x2="408" y1="49.5" y2="49.5"/><text fill="#000000" font-family="sans-serif" font-size="11" lengthAdjust="spacingAndGlyphs" textLength="74" x="242" y="63.7104">-String name</text><text fill="#000000" font-family="sans-serif" font-size="11" lengthAdjust="spacingAndGlyphs" textLength="73" x="242" y="76.5151">-String email</text><text fill="#000000" font-family="sans-serif" font-size="11" lengthAdjust="spacingAndGlyphs" textLength="161" x="242" y="89.3198">-double maxWeightCapacity</text><!--MD5=[7f2a9fafcebe4f099f71398fd3e2ed00]
class Pharmacy--><rect codeLine="14" fill="#FEFECE" filter="url(#f1w4ru9vcwopd)" height="78.4141" id="Pharmacy" style="stroke:#A80036;stroke-width:1.5;" width="130" x="7" y="75.5"/><ellipse cx="40.45" cy="91.5" fill="#ADD1B2" rx="11" ry="11" style="stroke:#A80036;stroke-width:1.0;"/><path d="M42.7938,87.1719 C41.8563,86.7344 41.2625,86.5938 40.3875,86.5938 C37.7625,86.5938 35.7625,88.6719 35.7625,91.3906 L35.7625,92.5156 C35.7625,95.0938 37.8719,96.9844 40.7625,96.9844 C41.9813,96.9844 43.1375,96.6875 43.8875,96.1406 C44.4656,95.7344 44.7938,95.2813 44.7938,94.8906 C44.7938,94.4375 44.4031,94.0469 43.9344,94.0469 C43.7156,94.0469 43.5125,94.125 43.325,94.3125 C42.8719,94.7969 42.8719,94.7969 42.6844,94.8906 C42.2625,95.1563 41.575,95.2813 40.8094,95.2813 C38.7625,95.2813 37.4656,94.1875 37.4656,92.4844 L37.4656,91.3906 C37.4656,89.6094 38.7156,88.2969 40.45,88.2969 C41.0281,88.2969 41.6375,88.4531 42.1063,88.7031 C42.5906,88.9844 42.7625,89.2031 42.8563,89.6094 C42.9188,90.0156 42.95,90.1406 43.0906,90.2656 C43.2313,90.4063 43.4656,90.5156 43.6844,90.5156 C43.95,90.5156 44.2156,90.375 44.3875,90.1563 C44.4969,90 44.5281,89.8125 44.5281,89.3906 L44.5281,87.9688 C44.5281,87.5313 44.5125,87.4063 44.4188,87.25 C44.2625,86.9844 43.9813,86.8438 43.6844,86.8438 C43.3875,86.8438 43.1844,86.9375 42.9656,87.25 L42.7938,87.1719 Z " fill="#000000"/><text fill="#000000" font-family="sans-serif" font-size="12" lengthAdjust="spacingAndGlyphs" textLength="57" x="58.55" y="95.6543">Pharmacy</text><line style="stroke:#A80036;stroke-width:1.5;" x1="8" x2="136" y1="107.5" y2="107.5"/><text fill="#000000" font-family="sans-serif" font-size="11" lengthAdjust="spacingAndGlyphs" textLength="51" x="13" y="121.7104">-String id</text><text fill="#000000" font-family="sans-serif" font-size="11" lengthAdjust="spacingAndGlyphs" textLength="74" x="13" y="134.5151">-String name</text><text fill="#000000" font-family="sans-serif" font-size="11" lengthAdjust="spacingAndGlyphs" textLength="118" x="13" y="147.3198">-int quantityScooters</text><!--MD5=[29a4e6f18f75b5a8d2a8d0982fb2d008]
class ElectricScooter--><rect codeLine="20" fill="#FEFECE" filter="url(#f1w4ru9vcwopd)" height="78.4141" id="ElectricScooter" style="stroke:#A80036;stroke-width:1.5;" width="135" x="815" y="73.5"/><ellipse cx="834.95" cy="89.5" fill="#ADD1B2" rx="11" ry="11" style="stroke:#A80036;stroke-width:1.0;"/><path d="M837.2938,85.1719 C836.3563,84.7344 835.7625,84.5938 834.8875,84.5938 C832.2625,84.5938 830.2625,86.6719 830.2625,89.3906 L830.2625,90.5156 C830.2625,93.0938 832.3719,94.9844 835.2625,94.9844 C836.4813,94.9844 837.6375,94.6875 838.3875,94.1406 C838.9656,93.7344 839.2938,93.2813 839.2938,92.8906 C839.2938,92.4375 838.9031,92.0469 838.4344,92.0469 C838.2156,92.0469 838.0125,92.125 837.825,92.3125 C837.3719,92.7969 837.3719,92.7969 837.1844,92.8906 C836.7625,93.1563 836.075,93.2813 835.3094,93.2813 C833.2625,93.2813 831.9656,92.1875 831.9656,90.4844 L831.9656,89.3906 C831.9656,87.6094 833.2156,86.2969 834.95,86.2969 C835.5281,86.2969 836.1375,86.4531 836.6063,86.7031 C837.0906,86.9844 837.2625,87.2031 837.3563,87.6094 C837.4188,88.0156 837.45,88.1406 837.5906,88.2656 C837.7313,88.4063 837.9656,88.5156 838.1844,88.5156 C838.45,88.5156 838.7156,88.375 838.8875,88.1563 C838.9969,88 839.0281,87.8125 839.0281,87.3906 L839.0281,85.9688 C839.0281,85.5313 839.0125,85.4063 838.9188,85.25 C838.7625,84.9844 838.4813,84.8438 838.1844,84.8438 C837.8875,84.8438 837.6844,84.9375 837.4656,85.25 L837.2938,85.1719 Z " fill="#000000"/><text fill="#000000" font-family="sans-serif" font-size="12" lengthAdjust="spacingAndGlyphs" textLength="92" x="850.05" y="93.6543">ElectricScooter</text><line style="stroke:#A80036;stroke-width:1.5;" x1="816" x2="949" y1="105.5" y2="105.5"/><text fill="#000000" font-family="sans-serif" font-size="11" lengthAdjust="spacingAndGlyphs" textLength="51" x="821" y="119.7104">-String id</text><text fill="#000000" font-family="sans-serif" font-size="11" lengthAdjust="spacingAndGlyphs" textLength="114" x="821" y="132.5151">-double maxBattery</text><text fill="#000000" font-family="sans-serif" font-size="11" lengthAdjust="spacingAndGlyphs" textLength="123" x="821" y="145.3198">-double actualBattery</text><!--MD5=[fff5db4abcb6eec6574b9ea9c3ee0eae]
class Delivery--><rect codeLine="26" fill="#FEFECE" filter="url(#f1w4ru9vcwopd)" height="91.2188" id="Delivery" style="stroke:#A80036;stroke-width:1.5;" width="158" x="517" y="7"/><ellipse cx="566.75" cy="23" fill="#ADD1B2" rx="11" ry="11" style="stroke:#A80036;stroke-width:1.0;"/><path d="M569.0938,18.6719 C568.1563,18.2344 567.5625,18.0938 566.6875,18.0938 C564.0625,18.0938 562.0625,20.1719 562.0625,22.8906 L562.0625,24.0156 C562.0625,26.5938 564.1719,28.4844 567.0625,28.4844 C568.2813,28.4844 569.4375,28.1875 570.1875,27.6406 C570.7656,27.2344 571.0938,26.7813 571.0938,26.3906 C571.0938,25.9375 570.7031,25.5469 570.2344,25.5469 C570.0156,25.5469 569.8125,25.625 569.625,25.8125 C569.1719,26.2969 569.1719,26.2969 568.9844,26.3906 C568.5625,26.6563 567.875,26.7813 567.1094,26.7813 C565.0625,26.7813 563.7656,25.6875 563.7656,23.9844 L563.7656,22.8906 C563.7656,21.1094 565.0156,19.7969 566.75,19.7969 C567.3281,19.7969 567.9375,19.9531 568.4063,20.2031 C568.8906,20.4844 569.0625,20.7031 569.1563,21.1094 C569.2188,21.5156 569.25,21.6406 569.3906,21.7656 C569.5313,21.9063 569.7656,22.0156 569.9844,22.0156 C570.25,22.0156 570.5156,21.875 570.6875,21.6563 C570.7969,21.5 570.8281,21.3125 570.8281,20.8906 L570.8281,19.4688 C570.8281,19.0313 570.8125,18.9063 570.7188,18.75 C570.5625,18.4844 570.2813,18.3438 569.9844,18.3438 C569.6875,18.3438 569.4844,18.4375 569.2656,18.75 L569.0938,18.6719 Z " fill="#000000"/><text fill="#000000" font-family="sans-serif" font-size="12" lengthAdjust="spacingAndGlyphs" textLength="50" x="587.25" y="27.1543">Delivery</text><line style="stroke:#A80036;stroke-width:1.5;" x1="518" x2="674" y1="39" y2="39"/><text fill="#000000" font-family="sans-serif" font-size="11" lengthAdjust="spacingAndGlyphs" textLength="51" x="523" y="53.2104">-String id</text><text fill="#000000" font-family="sans-serif" font-size="11" lengthAdjust="spacingAndGlyphs" textLength="146" x="523" y="66.0151">-double necessaryEnergy</text><text fill="#000000" font-family="sans-serif" font-size="11" lengthAdjust="spacingAndGlyphs" textLength="95" x="523" y="78.8198">-double distance</text><text fill="#000000" font-family="sans-serif" font-size="11" lengthAdjust="spacingAndGlyphs" textLength="85" x="523" y="91.6245">-double weight</text><!--MD5=[0643aaab1f96e564b90d0ad5c3af18e6]
link Pharmacy to Courier--><path codeLine="38" d="M137.318,99.4881 C167.374,92.4731 203.582,84.0221 235.912,76.4763 " fill="none" id="Pharmacy-Courier" style="stroke:#A80036;stroke-width:1.0;"/><polygon fill="#000000" points="176.8691,73.93,167.3928,73.1238,168.7288,78.8478,176.8691,73.93" style="stroke:#000000;stroke-width:1.0;"/><text fill="#000000" font-family="sans-serif" font-size="13" lengthAdjust="spacingAndGlyphs" textLength="24" x="181" y="79.5669">Has</text><text fill="#000000" font-family="sans-serif" font-size="13" lengthAdjust="spacingAndGlyphs" textLength="8" x="144.8997" y="110.718">1</text><text fill="#000000" font-family="sans-serif" font-size="13" lengthAdjust="spacingAndGlyphs" textLength="16" x="212.0789" y="90.8069">1..</text><!--MD5=[977da9dd56f40a245d04e6016286c5c9]
link Pharmacy to ElectricScooter--><path codeLine="39" d="M137.149,114.9822 C247.194,115.7253 479.041,116.9234 675,115.5 C721.61,115.1614 774.132,114.3931 814.543,113.7188 " fill="none" id="Pharmacy-ElectricScooter" style="stroke:#A80036;stroke-width:1.0;"/><polygon fill="#000000" points="453.5,107.0571,444.4494,104.135,444.4604,110.0129,453.5,107.0571" style="stroke:#000000;stroke-width:1.0;"/><text fill="#000000" font-family="sans-serif" font-size="13" lengthAdjust="spacingAndGlyphs" textLength="24" x="457.5" y="111.5669">Has</text><text fill="#000000" font-family="sans-serif" font-size="13" lengthAdjust="spacingAndGlyphs" textLength="8" x="145.1444" y="127.9558">1</text><text fill="#000000" font-family="sans-serif" font-size="13" lengthAdjust="spacingAndGlyphs" textLength="16" x="791.066" y="126.6301">1..</text><!--MD5=[8cb3ca92cec08d3cf0248fd29455b32d]
link Delivery to ElectricScooter--><path codeLine="42" d="M675.117,68.9746 C718.874,78.2027 772.87,89.5903 814.656,98.4028 " fill="none" id="Delivery-ElectricScooter" style="stroke:#A80036;stroke-width:1.0;"/><polygon fill="#000000" points="714.8924,68.0982,706.6484,63.356,705.4355,69.1073,714.8924,68.0982" style="stroke:#000000;stroke-width:1.0;"/><text fill="#000000" font-family="sans-serif" font-size="13" lengthAdjust="spacingAndGlyphs" textLength="65" x="719" y="71.5669">Made with</text><text fill="#000000" font-family="sans-serif" font-size="13" lengthAdjust="spacingAndGlyphs" textLength="8" x="683.0391" y="83.3225">1</text><text fill="#000000" font-family="sans-serif" font-size="13" lengthAdjust="spacingAndGlyphs" textLength="8" x="798.7981" y="109.7327">1</text><!--MD5=[7471b15d97b16c1e8744ea00ac81bc31]
link Courier to Delivery--><path codeLine="44" d="M409.032,55.2399 C443.538,54.7315 483.083,54.1489 516.811,53.652 " fill="none" id="Courier-Delivery" style="stroke:#A80036;stroke-width:1.0;"/><polygon fill="#000000" points="448.9995,45.9927,439.9121,43.1874,439.9986,49.0646,448.9995,45.9927" style="stroke:#000000;stroke-width:1.0;"/><text fill="#000000" font-family="sans-serif" font-size="13" lengthAdjust="spacingAndGlyphs" textLength="33" x="453" y="50.5669">Does</text><text fill="#000000" font-family="sans-serif" font-size="13" lengthAdjust="spacingAndGlyphs" textLength="8" x="417.095" y="67.85">1</text><text fill="#000000" font-family="sans-serif" font-size="13" lengthAdjust="spacingAndGlyphs" textLength="8" x="500.882" y="66.5394">1</text><!--MD5=[5294bda928ff0c7b042a65196fd48d7d]
@startuml
skinparam classAttributeIconSize 0
hide methods
left to right direction




class Courier {
  -String name
  -String email
  -double maxWeightCapacity
}

class Pharmacy {
  -String id
  -String name
  -int quantityScooters
  }

class ElectricScooter {
  -String id
  -double maxBattery
  -double actualBattery
  }

class Delivery {
  -String id
  -double necessaryEnergy
  -double distance
  -double weight
}




  

Pharmacy "1" - - "1.." Courier: Has >
Pharmacy "1" - - "1.." ElectricScooter: Has >


Delivery "1" - - "1" ElectricScooter: Made with >

Courier "1" - - "1" Delivery: Does >
@enduml

PlantUML version 1.2020.27beta5(Unknown compile time)
(GPL source distribution)
Java Runtime: Java(TM) SE Runtime Environment
JVM: Java HotSpot(TM) 64-Bit Server VM
Default Encoding: UTF-8
Language: en
Country: US
--></g></svg>