<?xml version="1.0" encoding="UTF-8" standalone="no"?><svg xmlns="http://www.w3.org/2000/svg" xmlns:xlink="http://www.w3.org/1999/xlink" contentScriptType="application/ecmascript" contentStyleType="text/css" height="707px" preserveAspectRatio="none" style="width:1012px;height:707px;" version="1.1" viewBox="0 0 1012 707" width="1012px" zoomAndPan="magnify"><defs><filter height="300%" id="f1ojdnu6bqobd0" width="300%" x="-1" y="-1"><feGaussianBlur result="blurOut" stdDeviation="2.0"/><feColorMatrix in="blurOut" result="blurOut2" type="matrix" values="0 0 0 0 0 0 0 0 0 0 0 0 0 0 0 0 0 0 .4 0"/><feOffset dx="4.0" dy="4.0" in="blurOut2" result="blurOut3"/><feBlend in="SourceGraphic" in2="blurOut3" mode="normal"/></filter></defs><g><!--MD5=[0f39e4cb6f03951afbf6d14bd2505654]
class Address--><rect codeLine="1" fill="#FEFECE" filter="url(#f1ojdnu6bqobd0)" height="99.2188" id="Address" style="stroke:#A80036;stroke-width:1.5;" width="201" x="7" y="587.5"/><ellipse cx="77.75" cy="603.5" fill="#ADD1B2" rx="11" ry="11" style="stroke:#A80036;stroke-width:1.0;"/><path d="M80.0938,599.1719 C79.1563,598.7344 78.5625,598.5938 77.6875,598.5938 C75.0625,598.5938 73.0625,600.6719 73.0625,603.3906 L73.0625,604.5156 C73.0625,607.0938 75.1719,608.9844 78.0625,608.9844 C79.2813,608.9844 80.4375,608.6875 81.1875,608.1406 C81.7656,607.7344 82.0938,607.2813 82.0938,606.8906 C82.0938,606.4375 81.7031,606.0469 81.2344,606.0469 C81.0156,606.0469 80.8125,606.125 80.625,606.3125 C80.1719,606.7969 80.1719,606.7969 79.9844,606.8906 C79.5625,607.1563 78.875,607.2813 78.1094,607.2813 C76.0625,607.2813 74.7656,606.1875 74.7656,604.4844 L74.7656,603.3906 C74.7656,601.6094 76.0156,600.2969 77.75,600.2969 C78.3281,600.2969 78.9375,600.4531 79.4063,600.7031 C79.8906,600.9844 80.0625,601.2031 80.1563,601.6094 C80.2188,602.0156 80.25,602.1406 80.3906,602.2656 C80.5313,602.4063 80.7656,602.5156 80.9844,602.5156 C81.25,602.5156 81.5156,602.375 81.6875,602.1563 C81.7969,602 81.8281,601.8125 81.8281,601.3906 L81.8281,599.9688 C81.8281,599.5313 81.8125,599.4063 81.7188,599.25 C81.5625,598.9844 81.2813,598.8438 80.9844,598.8438 C80.6875,598.8438 80.4844,598.9375 80.2656,599.25 L80.0938,599.1719 Z " fill="#000000"/><text fill="#000000" font-family="sans-serif" font-size="12" lengthAdjust="spacing" textLength="51" x="98.25" y="607.6543">Address</text><line style="stroke:#A80036;stroke-width:1.5;" x1="8" x2="207" y1="619.5" y2="619.5"/><rect fill="none" height="6" style="stroke:#C82930;stroke-width:1.0;" width="6" x="15" y="627.5"/><text fill="#000000" font-family="sans-serif" font-size="11" lengthAdjust="spacing" textLength="86" x="27" y="633.7104">double latitude</text><rect fill="none" height="6" style="stroke:#C82930;stroke-width:1.0;" width="6" x="15" y="640.3047"/><text fill="#000000" font-family="sans-serif" font-size="11" lengthAdjust="spacing" textLength="96" x="27" y="646.5151">double longitude</text><rect fill="none" height="6" style="stroke:#C82930;stroke-width:1.0;" width="6" x="15" y="653.1094"/><text fill="#000000" font-family="sans-serif" font-size="11" lengthAdjust="spacing" textLength="71" x="27" y="659.3198">String street</text><line style="stroke:#A80036;stroke-width:1.5;" x1="8" x2="207" y1="665.9141" y2="665.9141"/><text fill="#000000" font-family="sans-serif" font-size="11" lengthAdjust="spacing" textLength="189" x="13" y="680.1245">create(latitude, longitude, street)</text><!--MD5=[3fd616f346a44cd59a91eb10b19e157c]
class User--><rect codeLine="9" fill="#FEFECE" filter="url(#f1ojdnu6bqobd0)" height="252.875" id="User" style="stroke:#A80036;stroke-width:1.5;" width="379" x="185" y="251"/><ellipse cx="355.75" cy="267" fill="#ADD1B2" rx="11" ry="11" style="stroke:#A80036;stroke-width:1.0;"/><path d="M358.0938,262.6719 C357.1563,262.2344 356.5625,262.0938 355.6875,262.0938 C353.0625,262.0938 351.0625,264.1719 351.0625,266.8906 L351.0625,268.0156 C351.0625,270.5938 353.1719,272.4844 356.0625,272.4844 C357.2813,272.4844 358.4375,272.1875 359.1875,271.6406 C359.7656,271.2344 360.0938,270.7813 360.0938,270.3906 C360.0938,269.9375 359.7031,269.5469 359.2344,269.5469 C359.0156,269.5469 358.8125,269.625 358.625,269.8125 C358.1719,270.2969 358.1719,270.2969 357.9844,270.3906 C357.5625,270.6563 356.875,270.7813 356.1094,270.7813 C354.0625,270.7813 352.7656,269.6875 352.7656,267.9844 L352.7656,266.8906 C352.7656,265.1094 354.0156,263.7969 355.75,263.7969 C356.3281,263.7969 356.9375,263.9531 357.4063,264.2031 C357.8906,264.4844 358.0625,264.7031 358.1563,265.1094 C358.2188,265.5156 358.25,265.6406 358.3906,265.7656 C358.5313,265.9063 358.7656,266.0156 358.9844,266.0156 C359.25,266.0156 359.5156,265.875 359.6875,265.6563 C359.7969,265.5 359.8281,265.3125 359.8281,264.8906 L359.8281,263.4688 C359.8281,263.0313 359.8125,262.9063 359.7188,262.75 C359.5625,262.4844 359.2813,262.3438 358.9844,262.3438 C358.6875,262.3438 358.4844,262.4375 358.2656,262.75 L358.0938,262.6719 Z " fill="#000000"/><text fill="#000000" font-family="sans-serif" font-size="12" lengthAdjust="spacing" textLength="29" x="376.25" y="271.1543">User</text><line style="stroke:#A80036;stroke-width:1.5;" x1="186" x2="563" y1="283" y2="283"/><rect fill="none" height="6" style="stroke:#C82930;stroke-width:1.0;" width="6" x="193" y="291"/><text fill="#000000" font-family="sans-serif" font-size="11" lengthAdjust="spacing" textLength="70" x="205" y="297.2104">String nome</text><rect fill="none" height="6" style="stroke:#C82930;stroke-width:1.0;" width="6" x="193" y="303.8047"/><text fill="#000000" font-family="sans-serif" font-size="11" lengthAdjust="spacing" textLength="69" x="205" y="310.0151">String email</text><rect fill="none" height="6" style="stroke:#C82930;stroke-width:1.0;" width="6" x="193" y="316.6094"/><text fill="#000000" font-family="sans-serif" font-size="11" lengthAdjust="spacing" textLength="54" x="205" y="322.8198">String NIF</text><rect fill="none" height="6" style="stroke:#C82930;stroke-width:1.0;" width="6" x="193" y="329.4141"/><text fill="#000000" font-family="sans-serif" font-size="11" lengthAdjust="spacing" textLength="90" x="205" y="335.6245">String password</text><rect fill="none" height="6" style="stroke:#C82930;stroke-width:1.0;" width="6" x="193" y="342.2188"/><text fill="#000000" font-family="sans-serif" font-size="11" lengthAdjust="spacing" textLength="56" x="205" y="348.4292">int credits</text><rect fill="none" height="6" style="stroke:#C82930;stroke-width:1.0;" width="6" x="193" y="355.0234"/><text fill="#000000" font-family="sans-serif" font-size="11" lengthAdjust="spacing" textLength="71" x="205" y="361.2339">String street</text><rect fill="none" height="6" style="stroke:#C82930;stroke-width:1.0;" width="6" x="193" y="367.8281"/><text fill="#000000" font-family="sans-serif" font-size="11" lengthAdjust="spacing" textLength="86" x="205" y="374.0386">double latitude</text><rect fill="none" height="6" style="stroke:#C82930;stroke-width:1.0;" width="6" x="193" y="380.6328"/><text fill="#000000" font-family="sans-serif" font-size="11" lengthAdjust="spacing" textLength="96" x="205" y="386.8433">double longitude</text><rect fill="none" height="6" style="stroke:#C82930;stroke-width:1.0;" width="6" x="193" y="393.4375"/><text fill="#000000" font-family="sans-serif" font-size="11" lengthAdjust="spacing" textLength="81" x="205" y="399.6479">String number</text><rect fill="none" height="6" style="stroke:#C82930;stroke-width:1.0;" width="6" x="193" y="406.2422"/><text fill="#000000" font-family="sans-serif" font-size="11" lengthAdjust="spacing" textLength="129" x="205" y="412.4526">String monthExpiration</text><rect fill="none" height="6" style="stroke:#C82930;stroke-width:1.0;" width="6" x="193" y="419.0469"/><text fill="#000000" font-family="sans-serif" font-size="11" lengthAdjust="spacing" textLength="119" x="205" y="425.2573">String yearExpiration</text><rect fill="none" height="6" style="stroke:#C82930;stroke-width:1.0;" width="6" x="193" y="431.8516"/><text fill="#000000" font-family="sans-serif" font-size="11" lengthAdjust="spacing" textLength="56" x="205" y="438.062">String ccv</text><line style="stroke:#A80036;stroke-width:1.5;" x1="186" x2="563" y1="444.6563" y2="444.6563"/><text fill="#000000" font-family="sans-serif" font-size="11" lengthAdjust="spacing" textLength="222" x="191" y="458.8667">newAddress(latitude, longitude, street)</text><text fill="#000000" font-family="sans-serif" font-size="11" lengthAdjust="spacing" textLength="350" x="191" y="471.6714">newCreditCard(number, monthExpiration, yearExpiration, ccv)</text><text fill="#000000" font-family="sans-serif" font-size="11" lengthAdjust="spacing" textLength="367" x="191" y="484.4761">create(name, email, nif, , password, credits, address, creditCard)</text><text fill="#000000" font-family="sans-serif" font-size="11" lengthAdjust="spacing" textLength="62" x="191" y="497.2808">saveUser()</text><!--MD5=[91d4151b6d4c9a3d01b6d84b2458eece]
class CreditCard--><rect codeLine="29" fill="#FEFECE" filter="url(#f1ojdnu6bqobd0)" height="112.0234" id="CreditCard" style="stroke:#A80036;stroke-width:1.5;" width="315" x="243" y="581"/><ellipse cx="364.25" cy="597" fill="#ADD1B2" rx="11" ry="11" style="stroke:#A80036;stroke-width:1.0;"/><path d="M366.5938,592.6719 C365.6563,592.2344 365.0625,592.0938 364.1875,592.0938 C361.5625,592.0938 359.5625,594.1719 359.5625,596.8906 L359.5625,598.0156 C359.5625,600.5938 361.6719,602.4844 364.5625,602.4844 C365.7813,602.4844 366.9375,602.1875 367.6875,601.6406 C368.2656,601.2344 368.5938,600.7813 368.5938,600.3906 C368.5938,599.9375 368.2031,599.5469 367.7344,599.5469 C367.5156,599.5469 367.3125,599.625 367.125,599.8125 C366.6719,600.2969 366.6719,600.2969 366.4844,600.3906 C366.0625,600.6563 365.375,600.7813 364.6094,600.7813 C362.5625,600.7813 361.2656,599.6875 361.2656,597.9844 L361.2656,596.8906 C361.2656,595.1094 362.5156,593.7969 364.25,593.7969 C364.8281,593.7969 365.4375,593.9531 365.9063,594.2031 C366.3906,594.4844 366.5625,594.7031 366.6563,595.1094 C366.7188,595.5156 366.75,595.6406 366.8906,595.7656 C367.0313,595.9063 367.2656,596.0156 367.4844,596.0156 C367.75,596.0156 368.0156,595.875 368.1875,595.6563 C368.2969,595.5 368.3281,595.3125 368.3281,594.8906 L368.3281,593.4688 C368.3281,593.0313 368.3125,592.9063 368.2188,592.75 C368.0625,592.4844 367.7813,592.3438 367.4844,592.3438 C367.1875,592.3438 366.9844,592.4375 366.7656,592.75 L366.5938,592.6719 Z " fill="#000000"/><text fill="#000000" font-family="sans-serif" font-size="12" lengthAdjust="spacing" textLength="64" x="384.75" y="601.1543">CreditCard</text><line style="stroke:#A80036;stroke-width:1.5;" x1="244" x2="557" y1="613" y2="613"/><rect fill="none" height="6" style="stroke:#C82930;stroke-width:1.0;" width="6" x="251" y="621"/><text fill="#000000" font-family="sans-serif" font-size="11" lengthAdjust="spacing" textLength="81" x="263" y="627.2104">String number</text><rect fill="none" height="6" style="stroke:#C82930;stroke-width:1.0;" width="6" x="251" y="633.8047"/><text fill="#000000" font-family="sans-serif" font-size="11" lengthAdjust="spacing" textLength="129" x="263" y="640.0151">String monthExpiration</text><rect fill="none" height="6" style="stroke:#C82930;stroke-width:1.0;" width="6" x="251" y="646.6094"/><text fill="#000000" font-family="sans-serif" font-size="11" lengthAdjust="spacing" textLength="119" x="263" y="652.8198">String yearExpiration</text><rect fill="none" height="6" style="stroke:#C82930;stroke-width:1.0;" width="6" x="251" y="659.4141"/><text fill="#000000" font-family="sans-serif" font-size="11" lengthAdjust="spacing" textLength="56" x="263" y="665.6245">String ccv</text><line style="stroke:#A80036;stroke-width:1.5;" x1="244" x2="557" y1="672.2188" y2="672.2188"/><text fill="#000000" font-family="sans-serif" font-size="11" lengthAdjust="spacing" textLength="303" x="249" y="686.4292">create(number, monthExpiration, yearExpiration, ccv)</text><!--MD5=[a4e330676c9c66f98e13004ba386afd1]
class RegistUserController--><rect codeLine="38" fill="#FEFECE" filter="url(#f1ojdnu6bqobd0)" height="73.6094" id="RegistUserController" style="stroke:#A80036;stroke-width:1.5;" width="687" x="311" y="116"/><ellipse cx="587.75" cy="132" fill="#ADD1B2" rx="11" ry="11" style="stroke:#A80036;stroke-width:1.0;"/><path d="M590.0938,127.6719 C589.1563,127.2344 588.5625,127.0938 587.6875,127.0938 C585.0625,127.0938 583.0625,129.1719 583.0625,131.8906 L583.0625,133.0156 C583.0625,135.5938 585.1719,137.4844 588.0625,137.4844 C589.2813,137.4844 590.4375,137.1875 591.1875,136.6406 C591.7656,136.2344 592.0938,135.7813 592.0938,135.3906 C592.0938,134.9375 591.7031,134.5469 591.2344,134.5469 C591.0156,134.5469 590.8125,134.625 590.625,134.8125 C590.1719,135.2969 590.1719,135.2969 589.9844,135.3906 C589.5625,135.6563 588.875,135.7813 588.1094,135.7813 C586.0625,135.7813 584.7656,134.6875 584.7656,132.9844 L584.7656,131.8906 C584.7656,130.1094 586.0156,128.7969 587.75,128.7969 C588.3281,128.7969 588.9375,128.9531 589.4063,129.2031 C589.8906,129.4844 590.0625,129.7031 590.1563,130.1094 C590.2188,130.5156 590.25,130.6406 590.3906,130.7656 C590.5313,130.9063 590.7656,131.0156 590.9844,131.0156 C591.25,131.0156 591.5156,130.875 591.6875,130.6563 C591.7969,130.5 591.8281,130.3125 591.8281,129.8906 L591.8281,128.4688 C591.8281,128.0313 591.8125,127.9063 591.7188,127.75 C591.5625,127.4844 591.2813,127.3438 590.9844,127.3438 C590.6875,127.3438 590.4844,127.4375 590.2656,127.75 L590.0938,127.6719 Z " fill="#000000"/><text fill="#000000" font-family="sans-serif" font-size="12" lengthAdjust="spacing" textLength="125" x="608.25" y="136.1543">RegistUserController</text><line style="stroke:#A80036;stroke-width:1.5;" x1="312" x2="997" y1="148" y2="148"/><line style="stroke:#A80036;stroke-width:1.5;" x1="312" x2="997" y1="156" y2="156"/><text fill="#000000" font-family="sans-serif" font-size="11" lengthAdjust="spacing" textLength="675" x="317" y="170.2104">newUser(nome, email, NIF, password, credits, street, latitude, longitude, number, monthExpiration, yearExpiration, ccv)</text><text fill="#000000" font-family="sans-serif" font-size="11" lengthAdjust="spacing" textLength="99" x="317" y="183.0151">sendEmail(email)</text><!--MD5=[8806e557260fb3598decb516dc04693d]
class EmailAPI--><rect codeLine="43" fill="#FEFECE" filter="url(#f1ojdnu6bqobd0)" height="60.8047" id="EmailAPI" style="stroke:#A80036;stroke-width:1.5;" width="111" x="599" y="347"/><ellipse cx="627.95" cy="363" fill="#ADD1B2" rx="11" ry="11" style="stroke:#A80036;stroke-width:1.0;"/><path d="M630.2938,358.6719 C629.3563,358.2344 628.7625,358.0938 627.8875,358.0938 C625.2625,358.0938 623.2625,360.1719 623.2625,362.8906 L623.2625,364.0156 C623.2625,366.5938 625.3719,368.4844 628.2625,368.4844 C629.4813,368.4844 630.6375,368.1875 631.3875,367.6406 C631.9656,367.2344 632.2938,366.7813 632.2938,366.3906 C632.2938,365.9375 631.9031,365.5469 631.4344,365.5469 C631.2156,365.5469 631.0125,365.625 630.825,365.8125 C630.3719,366.2969 630.3719,366.2969 630.1844,366.3906 C629.7625,366.6563 629.075,366.7813 628.3094,366.7813 C626.2625,366.7813 624.9656,365.6875 624.9656,363.9844 L624.9656,362.8906 C624.9656,361.1094 626.2156,359.7969 627.95,359.7969 C628.5281,359.7969 629.1375,359.9531 629.6063,360.2031 C630.0906,360.4844 630.2625,360.7031 630.3563,361.1094 C630.4188,361.5156 630.45,361.6406 630.5906,361.7656 C630.7313,361.9063 630.9656,362.0156 631.1844,362.0156 C631.45,362.0156 631.7156,361.875 631.8875,361.6563 C631.9969,361.5 632.0281,361.3125 632.0281,360.8906 L632.0281,359.4688 C632.0281,359.0313 632.0125,358.9063 631.9188,358.75 C631.7625,358.4844 631.4813,358.3438 631.1844,358.3438 C630.8875,358.3438 630.6844,358.4375 630.4656,358.75 L630.2938,358.6719 Z " fill="#000000"/><text fill="#000000" font-family="sans-serif" font-size="12" lengthAdjust="spacing" textLength="48" x="645.05" y="367.1543">EmailAPI</text><line style="stroke:#A80036;stroke-width:1.5;" x1="600" x2="709" y1="379" y2="379"/><line style="stroke:#A80036;stroke-width:1.5;" x1="600" x2="709" y1="387" y2="387"/><text fill="#000000" font-family="sans-serif" font-size="11" lengthAdjust="spacing" textLength="99" x="605" y="401.2104">sendEmail(email)</text><!--MD5=[2a4e54f6a4182fe25cccaf89cd34d22c]
class UserHandler--><rect codeLine="47" fill="#FEFECE" filter="url(#f1ojdnu6bqobd0)" height="60.8047" id="UserHandler" style="stroke:#A80036;stroke-width:1.5;" width="108" x="745.5" y="347"/><ellipse cx="760.5" cy="363" fill="#ADD1B2" rx="11" ry="11" style="stroke:#A80036;stroke-width:1.0;"/><path d="M762.8438,358.6719 C761.9063,358.2344 761.3125,358.0938 760.4375,358.0938 C757.8125,358.0938 755.8125,360.1719 755.8125,362.8906 L755.8125,364.0156 C755.8125,366.5938 757.9219,368.4844 760.8125,368.4844 C762.0313,368.4844 763.1875,368.1875 763.9375,367.6406 C764.5156,367.2344 764.8438,366.7813 764.8438,366.3906 C764.8438,365.9375 764.4531,365.5469 763.9844,365.5469 C763.7656,365.5469 763.5625,365.625 763.375,365.8125 C762.9219,366.2969 762.9219,366.2969 762.7344,366.3906 C762.3125,366.6563 761.625,366.7813 760.8594,366.7813 C758.8125,366.7813 757.5156,365.6875 757.5156,363.9844 L757.5156,362.8906 C757.5156,361.1094 758.7656,359.7969 760.5,359.7969 C761.0781,359.7969 761.6875,359.9531 762.1563,360.2031 C762.6406,360.4844 762.8125,360.7031 762.9063,361.1094 C762.9688,361.5156 763,361.6406 763.1406,361.7656 C763.2813,361.9063 763.5156,362.0156 763.7344,362.0156 C764,362.0156 764.2656,361.875 764.4375,361.6563 C764.5469,361.5 764.5781,361.3125 764.5781,360.8906 L764.5781,359.4688 C764.5781,359.0313 764.5625,358.9063 764.4688,358.75 C764.3125,358.4844 764.0313,358.3438 763.7344,358.3438 C763.4375,358.3438 763.2344,358.4375 763.0156,358.75 L762.8438,358.6719 Z " fill="#000000"/><text fill="#000000" font-family="sans-serif" font-size="12" lengthAdjust="spacing" textLength="76" x="774.5" y="367.1543">UserHandler</text><line style="stroke:#A80036;stroke-width:1.5;" x1="746.5" x2="852.5" y1="379" y2="379"/><line style="stroke:#A80036;stroke-width:1.5;" x1="746.5" x2="852.5" y1="387" y2="387"/><text fill="#000000" font-family="sans-serif" font-size="11" lengthAdjust="spacing" textLength="80" x="751.5" y="401.2104">addUser(user)</text><!--MD5=[837d3612090b426002fd1342fcbe6b88]
class DataBase--><rect codeLine="52" fill="#FEFECE" filter="url(#f1ojdnu6bqobd0)" height="60.8047" id="DataBase" style="stroke:#A80036;stroke-width:1.5;" width="363" x="618" y="606.5"/><ellipse cx="766.75" cy="622.5" fill="#ADD1B2" rx="11" ry="11" style="stroke:#A80036;stroke-width:1.0;"/><path d="M769.0938,618.1719 C768.1563,617.7344 767.5625,617.5938 766.6875,617.5938 C764.0625,617.5938 762.0625,619.6719 762.0625,622.3906 L762.0625,623.5156 C762.0625,626.0938 764.1719,627.9844 767.0625,627.9844 C768.2813,627.9844 769.4375,627.6875 770.1875,627.1406 C770.7656,626.7344 771.0938,626.2813 771.0938,625.8906 C771.0938,625.4375 770.7031,625.0469 770.2344,625.0469 C770.0156,625.0469 769.8125,625.125 769.625,625.3125 C769.1719,625.7969 769.1719,625.7969 768.9844,625.8906 C768.5625,626.1563 767.875,626.2813 767.1094,626.2813 C765.0625,626.2813 763.7656,625.1875 763.7656,623.4844 L763.7656,622.3906 C763.7656,620.6094 765.0156,619.2969 766.75,619.2969 C767.3281,619.2969 767.9375,619.4531 768.4063,619.7031 C768.8906,619.9844 769.0625,620.2031 769.1563,620.6094 C769.2188,621.0156 769.25,621.1406 769.3906,621.2656 C769.5313,621.4063 769.7656,621.5156 769.9844,621.5156 C770.25,621.5156 770.5156,621.375 770.6875,621.1563 C770.7969,621 770.8281,620.8125 770.8281,620.3906 L770.8281,618.9688 C770.8281,618.5313 770.8125,618.4063 770.7188,618.25 C770.5625,617.9844 770.2813,617.8438 769.9844,617.8438 C769.6875,617.8438 769.4844,617.9375 769.2656,618.25 L769.0938,618.1719 Z " fill="#000000"/><text fill="#000000" font-family="sans-serif" font-size="12" lengthAdjust="spacing" textLength="57" x="787.25" y="626.6543">DataBase</text><line style="stroke:#A80036;stroke-width:1.5;" x1="619" x2="980" y1="638.5" y2="638.5"/><line style="stroke:#A80036;stroke-width:1.5;" x1="619" x2="980" y1="646.5" y2="646.5"/><text fill="#000000" font-family="sans-serif" font-size="11" lengthAdjust="spacing" textLength="351" x="624" y="660.7104">save(name, email, nif, password, credits, address, creditCard)</text><!--MD5=[c924e2693385d0b81c725d3da65f80e0]
class RegistUserUI--><rect fill="#FEFECE" filter="url(#f1ojdnu6bqobd0)" height="48" id="RegistUserUI" style="stroke:#A80036;stroke-width:1.5;" width="110" x="599.5" y="7"/><ellipse cx="614.5" cy="23" fill="#ADD1B2" rx="11" ry="11" style="stroke:#A80036;stroke-width:1.0;"/><path d="M616.8438,18.6719 C615.9063,18.2344 615.3125,18.0938 614.4375,18.0938 C611.8125,18.0938 609.8125,20.1719 609.8125,22.8906 L609.8125,24.0156 C609.8125,26.5938 611.9219,28.4844 614.8125,28.4844 C616.0313,28.4844 617.1875,28.1875 617.9375,27.6406 C618.5156,27.2344 618.8438,26.7813 618.8438,26.3906 C618.8438,25.9375 618.4531,25.5469 617.9844,25.5469 C617.7656,25.5469 617.5625,25.625 617.375,25.8125 C616.9219,26.2969 616.9219,26.2969 616.7344,26.3906 C616.3125,26.6563 615.625,26.7813 614.8594,26.7813 C612.8125,26.7813 611.5156,25.6875 611.5156,23.9844 L611.5156,22.8906 C611.5156,21.1094 612.7656,19.7969 614.5,19.7969 C615.0781,19.7969 615.6875,19.9531 616.1563,20.2031 C616.6406,20.4844 616.8125,20.7031 616.9063,21.1094 C616.9688,21.5156 617,21.6406 617.1406,21.7656 C617.2813,21.9063 617.5156,22.0156 617.7344,22.0156 C618,22.0156 618.2656,21.875 618.4375,21.6563 C618.5469,21.5 618.5781,21.3125 618.5781,20.8906 L618.5781,19.4688 C618.5781,19.0313 618.5625,18.9063 618.4688,18.75 C618.3125,18.4844 618.0313,18.3438 617.7344,18.3438 C617.4375,18.3438 617.2344,18.4375 617.0156,18.75 L616.8438,18.6719 Z " fill="#000000"/><text fill="#000000" font-family="sans-serif" font-size="12" lengthAdjust="spacing" textLength="78" x="628.5" y="27.1543">RegistUserUI</text><line style="stroke:#A80036;stroke-width:1.5;" x1="600.5" x2="708.5" y1="39" y2="39"/><line style="stroke:#A80036;stroke-width:1.5;" x1="600.5" x2="708.5" y1="47" y2="47"/><!--MD5=[efea173d0a884d8efdf650f1f0adeab6]
link RegistUserUI to RegistUserController--><path codeLine="56" d="M654.5,55.137 C654.5,70.825 654.5,92.003 654.5,110.555 " fill="none" id="RegistUserUI-to-RegistUserController" style="stroke:#A80036;stroke-width:1.0;stroke-dasharray:7.0,7.0;"/><polygon fill="#A80036" points="654.5,115.711,658.5,106.711,654.5,110.711,650.5,106.711,654.5,115.711" style="stroke:#A80036;stroke-width:1.0;"/><!--MD5=[aba9ae60047af5be676ae3b0e70cd0f9]
link RegistUserController to User--><path codeLine="57" d="M608.89,190.244 C588.434,206.499 562.945,226.754 536.378,247.865 " fill="none" id="RegistUserController-to-User" style="stroke:#A80036;stroke-width:1.0;stroke-dasharray:7.0,7.0;"/><polygon fill="#A80036" points="532.451,250.986,541.9859,248.5191,536.3658,247.8756,537.0093,242.2555,532.451,250.986" style="stroke:#A80036;stroke-width:1.0;"/><!--MD5=[381a5cf97a865d45f3d794a843d110d4]
link UserHandler to DataBase--><path codeLine="58" d="M799.5,408.039 C799.5,455.932 799.5,550.301 799.5,601.3118 " fill="none" id="UserHandler-to-DataBase" style="stroke:#A80036;stroke-width:1.0;stroke-dasharray:7.0,7.0;"/><polygon fill="#A80036" points="799.5,606.4104,803.5,597.4104,799.5,601.4104,795.5,597.4104,799.5,606.4104" style="stroke:#A80036;stroke-width:1.0;"/><!--MD5=[9481eaea0b95f6ef103beded6e45e0c1]
link RegistUserController to UserHandler--><path codeLine="59" d="M683.333,190.073 C697.229,208.007 713.808,230.238 727.5,251 C747.288,281.007 767.45,316.679 781.386,342.308 " fill="none" id="RegistUserController-to-UserHandler" style="stroke:#A80036;stroke-width:1.0;stroke-dasharray:7.0,7.0;"/><polygon fill="#A80036" points="783.914,346.973,783.1414,337.1545,781.5312,342.5773,776.1083,340.967,783.914,346.973" style="stroke:#A80036;stroke-width:1.0;"/><!--MD5=[e604fe8b9dea3be48106b059afcfb0d9]
link RegistUserController to EmailAPI--><path codeLine="60" d="M654.5,190.244 C654.5,232.048 654.5,300.3 654.5,341.549 " fill="none" id="RegistUserController-to-EmailAPI" style="stroke:#A80036;stroke-width:1.0;stroke-dasharray:7.0,7.0;"/><polygon fill="#A80036" points="654.5,346.689,658.5,337.689,654.5,341.689,650.5,337.689,654.5,346.689" style="stroke:#A80036;stroke-width:1.0;"/><!--MD5=[6cb56ad2db0e14266f83041296b08dce]
link User to Address--><path codeLine="61" d="M244.129,504.233 C213.417,533.851 182.485,563.683 157.838,587.453 " fill="none" id="User-Address" style="stroke:#A80036;stroke-width:1.0;"/><text fill="#000000" font-family="sans-serif" font-size="13" lengthAdjust="spacing" textLength="23" x="210.5" y="547.0669">has</text><text fill="#000000" font-family="sans-serif" font-size="13" lengthAdjust="spacing" textLength="8" x="228.3607" y="524.0677">1</text><text fill="#000000" font-family="sans-serif" font-size="13" lengthAdjust="spacing" textLength="8" x="156.3543" y="576.4916">1</text><!--MD5=[8fb789c9a917570672faa648aaa21e72]
link User to CreditCard--><path codeLine="62" d="M387.195,504.233 C389.915,531.17 392.653,558.284 394.932,580.854 " fill="none" id="User-CreditCard" style="stroke:#A80036;stroke-width:1.0;"/><text fill="#000000" font-family="sans-serif" font-size="13" lengthAdjust="spacing" textLength="23" x="392.5" y="547.0669">has</text><text fill="#000000" font-family="sans-serif" font-size="13" lengthAdjust="spacing" textLength="8" x="379.6977" y="524.0677">1</text><text fill="#000000" font-family="sans-serif" font-size="13" lengthAdjust="spacing" textLength="8" x="385.7061" y="569.7733">1</text><!--MD5=[148aab34e866702cd0067694d8b56539]
@startuml
class Address {
  -double latitude
  -double longitude
  -String street
  create(latitude, longitude, street)
}


class User {
  -String nome
  -String email
  -String NIF
  -String password
  -int credits
  -String street
  -double latitude
  -double longitude
  -String number
  -String monthExpiration
  -String yearExpiration
  -String ccv
  newAddress(latitude, longitude, street)
  newCreditCard(number, monthExpiration, yearExpiration, ccv)
  create(name, email, nif, , password, credits, address, creditCard)
  saveUser()

}

class CreditCard {
   -String number
  -String monthExpiration
  -String yearExpiration
  -String ccv
  create(number, monthExpiration, yearExpiration, ccv)
}


class RegistUserController {
  newUser(nome, email, NIF, password, credits, street, latitude, longitude, number, monthExpiration, yearExpiration, ccv)
  sendEmail(email)
}

class EmailAPI {
sendEmail(email)
}

class UserHandler {
addUser(user)
}


class DataBase {
save(name, email, nif, password, credits, address, creditCard)
}

RegistUserUI ..> RegistUserController
RegistUserController ..> User
UserHandler ..> DataBase
RegistUserController ..> UserHandler
RegistUserController ..> EmailAPI
User "1" - - "1" Address: has
User "1" - - "1" CreditCard: has
@enduml

PlantUML version 1.2020.27beta7(Unknown compile time)
(GPL source distribution)
Java Runtime: Java(TM) SE Runtime Environment
JVM: Java HotSpot(TM) 64-Bit Server VM
Default Encoding: UTF-8
Language: en
Country: US
--></g></svg>