<?xml version="1.0" encoding="UTF-8" standalone="no"?><svg xmlns="http://www.w3.org/2000/svg" xmlns:xlink="http://www.w3.org/1999/xlink" contentScriptType="application/ecmascript" contentStyleType="text/css" height="681px" preserveAspectRatio="none" style="width:817px;height:681px;" version="1.1" viewBox="0 0 817 681" width="817px" zoomAndPan="magnify"><defs><filter height="300%" id="fu19h22if10cy" width="300%" x="-1" y="-1"><feGaussianBlur result="blurOut" stdDeviation="2.0"/><feColorMatrix in="blurOut" result="blurOut2" type="matrix" values="0 0 0 0 0 0 0 0 0 0 0 0 0 0 0 0 0 0 .4 0"/><feOffset dx="4.0" dy="4.0" in="blurOut2" result="blurOut3"/><feBlend in="SourceGraphic" in2="blurOut3" mode="normal"/></filter></defs><g><!--MD5=[0f39e4cb6f03951afbf6d14bd2505654]
class Address--><rect codeLine="1" fill="#FEFECE" filter="url(#fu19h22if10cy)" height="86.4141" id="Address" style="stroke:#A80036;stroke-width:1.5;" width="122" x="15" y="574.5"/><ellipse cx="47.55" cy="590.5" fill="#ADD1B2" rx="11" ry="11" style="stroke:#A80036;stroke-width:1.0;"/><path d="M49.8938,586.1719 C48.9563,585.7344 48.3625,585.5938 47.4875,585.5938 C44.8625,585.5938 42.8625,587.6719 42.8625,590.3906 L42.8625,591.5156 C42.8625,594.0938 44.9719,595.9844 47.8625,595.9844 C49.0813,595.9844 50.2375,595.6875 50.9875,595.1406 C51.5656,594.7344 51.8938,594.2813 51.8938,593.8906 C51.8938,593.4375 51.5031,593.0469 51.0344,593.0469 C50.8156,593.0469 50.6125,593.125 50.425,593.3125 C49.9719,593.7969 49.9719,593.7969 49.7844,593.8906 C49.3625,594.1563 48.675,594.2813 47.9094,594.2813 C45.8625,594.2813 44.5656,593.1875 44.5656,591.4844 L44.5656,590.3906 C44.5656,588.6094 45.8156,587.2969 47.55,587.2969 C48.1281,587.2969 48.7375,587.4531 49.2063,587.7031 C49.6906,587.9844 49.8625,588.2031 49.9563,588.6094 C50.0188,589.0156 50.05,589.1406 50.1906,589.2656 C50.3313,589.4063 50.5656,589.5156 50.7844,589.5156 C51.05,589.5156 51.3156,589.375 51.4875,589.1563 C51.5969,589 51.6281,588.8125 51.6281,588.3906 L51.6281,586.9688 C51.6281,586.5313 51.6125,586.4063 51.5188,586.25 C51.3625,585.9844 51.0813,585.8438 50.7844,585.8438 C50.4875,585.8438 50.2844,585.9375 50.0656,586.25 L49.8938,586.1719 Z " fill="#000000"/><text fill="#000000" font-family="sans-serif" font-size="12" lengthAdjust="spacing" textLength="51" x="65.45" y="594.6543">Address</text><line style="stroke:#A80036;stroke-width:1.5;" x1="16" x2="136" y1="606.5" y2="606.5"/><rect fill="none" height="6" style="stroke:#C82930;stroke-width:1.0;" width="6" x="23" y="614.5"/><text fill="#000000" font-family="sans-serif" font-size="11" lengthAdjust="spacing" textLength="86" x="35" y="620.7104">double latitude</text><rect fill="none" height="6" style="stroke:#C82930;stroke-width:1.0;" width="6" x="23" y="627.3047"/><text fill="#000000" font-family="sans-serif" font-size="11" lengthAdjust="spacing" textLength="96" x="35" y="633.5151">double longitude</text><rect fill="none" height="6" style="stroke:#C82930;stroke-width:1.0;" width="6" x="23" y="640.1094"/><text fill="#000000" font-family="sans-serif" font-size="11" lengthAdjust="spacing" textLength="71" x="35" y="646.3198">String street</text><line style="stroke:#A80036;stroke-width:1.5;" x1="16" x2="136" y1="652.9141" y2="652.9141"/><!--MD5=[3fd616f346a44cd59a91eb10b19e157c]
class User--><rect codeLine="8" fill="#FEFECE" filter="url(#fu19h22if10cy)" height="240.0703" id="User" style="stroke:#A80036;stroke-width:1.5;" width="362" x="7" y="251"/><ellipse cx="169.25" cy="267" fill="#ADD1B2" rx="11" ry="11" style="stroke:#A80036;stroke-width:1.0;"/><path d="M171.5938,262.6719 C170.6563,262.2344 170.0625,262.0938 169.1875,262.0938 C166.5625,262.0938 164.5625,264.1719 164.5625,266.8906 L164.5625,268.0156 C164.5625,270.5938 166.6719,272.4844 169.5625,272.4844 C170.7813,272.4844 171.9375,272.1875 172.6875,271.6406 C173.2656,271.2344 173.5938,270.7813 173.5938,270.3906 C173.5938,269.9375 173.2031,269.5469 172.7344,269.5469 C172.5156,269.5469 172.3125,269.625 172.125,269.8125 C171.6719,270.2969 171.6719,270.2969 171.4844,270.3906 C171.0625,270.6563 170.375,270.7813 169.6094,270.7813 C167.5625,270.7813 166.2656,269.6875 166.2656,267.9844 L166.2656,266.8906 C166.2656,265.1094 167.5156,263.7969 169.25,263.7969 C169.8281,263.7969 170.4375,263.9531 170.9063,264.2031 C171.3906,264.4844 171.5625,264.7031 171.6563,265.1094 C171.7188,265.5156 171.75,265.6406 171.8906,265.7656 C172.0313,265.9063 172.2656,266.0156 172.4844,266.0156 C172.75,266.0156 173.0156,265.875 173.1875,265.6563 C173.2969,265.5 173.3281,265.3125 173.3281,264.8906 L173.3281,263.4688 C173.3281,263.0313 173.3125,262.9063 173.2188,262.75 C173.0625,262.4844 172.7813,262.3438 172.4844,262.3438 C172.1875,262.3438 171.9844,262.4375 171.7656,262.75 L171.5938,262.6719 Z " fill="#000000"/><text fill="#000000" font-family="sans-serif" font-size="12" lengthAdjust="spacing" textLength="29" x="189.75" y="271.1543">User</text><line style="stroke:#A80036;stroke-width:1.5;" x1="8" x2="368" y1="283" y2="283"/><rect fill="none" height="6" style="stroke:#C82930;stroke-width:1.0;" width="6" x="15" y="291"/><text fill="#000000" font-family="sans-serif" font-size="11" lengthAdjust="spacing" textLength="70" x="27" y="297.2104">String nome</text><rect fill="none" height="6" style="stroke:#C82930;stroke-width:1.0;" width="6" x="15" y="303.8047"/><text fill="#000000" font-family="sans-serif" font-size="11" lengthAdjust="spacing" textLength="69" x="27" y="310.0151">String email</text><rect fill="none" height="6" style="stroke:#C82930;stroke-width:1.0;" width="6" x="15" y="316.6094"/><text fill="#000000" font-family="sans-serif" font-size="11" lengthAdjust="spacing" textLength="54" x="27" y="322.8198">String NIF</text><rect fill="none" height="6" style="stroke:#C82930;stroke-width:1.0;" width="6" x="15" y="329.4141"/><text fill="#000000" font-family="sans-serif" font-size="11" lengthAdjust="spacing" textLength="90" x="27" y="335.6245">String password</text><rect fill="none" height="6" style="stroke:#C82930;stroke-width:1.0;" width="6" x="15" y="342.2188"/><text fill="#000000" font-family="sans-serif" font-size="11" lengthAdjust="spacing" textLength="56" x="27" y="348.4292">int credits</text><rect fill="none" height="6" style="stroke:#C82930;stroke-width:1.0;" width="6" x="15" y="355.0234"/><text fill="#000000" font-family="sans-serif" font-size="11" lengthAdjust="spacing" textLength="71" x="27" y="361.2339">String street</text><rect fill="none" height="6" style="stroke:#C82930;stroke-width:1.0;" width="6" x="15" y="367.8281"/><text fill="#000000" font-family="sans-serif" font-size="11" lengthAdjust="spacing" textLength="86" x="27" y="374.0386">double latitude</text><rect fill="none" height="6" style="stroke:#C82930;stroke-width:1.0;" width="6" x="15" y="380.6328"/><text fill="#000000" font-family="sans-serif" font-size="11" lengthAdjust="spacing" textLength="96" x="27" y="386.8433">double longitude</text><rect fill="none" height="6" style="stroke:#C82930;stroke-width:1.0;" width="6" x="15" y="393.4375"/><text fill="#000000" font-family="sans-serif" font-size="11" lengthAdjust="spacing" textLength="81" x="27" y="399.6479">String number</text><rect fill="none" height="6" style="stroke:#C82930;stroke-width:1.0;" width="6" x="15" y="406.2422"/><text fill="#000000" font-family="sans-serif" font-size="11" lengthAdjust="spacing" textLength="129" x="27" y="412.4526">String monthExpiration</text><rect fill="none" height="6" style="stroke:#C82930;stroke-width:1.0;" width="6" x="15" y="419.0469"/><text fill="#000000" font-family="sans-serif" font-size="11" lengthAdjust="spacing" textLength="119" x="27" y="425.2573">String yearExpiration</text><rect fill="none" height="6" style="stroke:#C82930;stroke-width:1.0;" width="6" x="15" y="431.8516"/><text fill="#000000" font-family="sans-serif" font-size="11" lengthAdjust="spacing" textLength="56" x="27" y="438.062">String ccv</text><line style="stroke:#A80036;stroke-width:1.5;" x1="8" x2="368" y1="444.6563" y2="444.6563"/><text fill="#000000" font-family="sans-serif" font-size="11" lengthAdjust="spacing" textLength="222" x="13" y="458.8667">newAddress(latitude, longitude, street)</text><text fill="#000000" font-family="sans-serif" font-size="11" lengthAdjust="spacing" textLength="350" x="13" y="471.6714">newCreditCard(number, monthExpiration, yearExpiration, ccv)</text><text fill="#000000" font-family="sans-serif" font-size="11" lengthAdjust="spacing" textLength="62" x="13" y="484.4761">saveUser()</text><!--MD5=[91d4151b6d4c9a3d01b6d84b2458eece]
class CreditCard--><rect codeLine="27" fill="#FEFECE" filter="url(#fu19h22if10cy)" height="99.2188" id="CreditCard" style="stroke:#A80036;stroke-width:1.5;" width="155" x="172.5" y="568"/><ellipse cx="214.05" cy="584" fill="#ADD1B2" rx="11" ry="11" style="stroke:#A80036;stroke-width:1.0;"/><path d="M216.3938,579.6719 C215.4563,579.2344 214.8625,579.0938 213.9875,579.0938 C211.3625,579.0938 209.3625,581.1719 209.3625,583.8906 L209.3625,585.0156 C209.3625,587.5938 211.4719,589.4844 214.3625,589.4844 C215.5813,589.4844 216.7375,589.1875 217.4875,588.6406 C218.0656,588.2344 218.3938,587.7813 218.3938,587.3906 C218.3938,586.9375 218.0031,586.5469 217.5344,586.5469 C217.3156,586.5469 217.1125,586.625 216.925,586.8125 C216.4719,587.2969 216.4719,587.2969 216.2844,587.3906 C215.8625,587.6563 215.175,587.7813 214.4094,587.7813 C212.3625,587.7813 211.0656,586.6875 211.0656,584.9844 L211.0656,583.8906 C211.0656,582.1094 212.3156,580.7969 214.05,580.7969 C214.6281,580.7969 215.2375,580.9531 215.7063,581.2031 C216.1906,581.4844 216.3625,581.7031 216.4563,582.1094 C216.5188,582.5156 216.55,582.6406 216.6906,582.7656 C216.8313,582.9063 217.0656,583.0156 217.2844,583.0156 C217.55,583.0156 217.8156,582.875 217.9875,582.6563 C218.0969,582.5 218.1281,582.3125 218.1281,581.8906 L218.1281,580.4688 C218.1281,580.0313 218.1125,579.9063 218.0188,579.75 C217.8625,579.4844 217.5813,579.3438 217.2844,579.3438 C216.9875,579.3438 216.7844,579.4375 216.5656,579.75 L216.3938,579.6719 Z " fill="#000000"/><text fill="#000000" font-family="sans-serif" font-size="12" lengthAdjust="spacing" textLength="64" x="233.95" y="588.1543">CreditCard</text><line style="stroke:#A80036;stroke-width:1.5;" x1="173.5" x2="326.5" y1="600" y2="600"/><rect fill="none" height="6" style="stroke:#C82930;stroke-width:1.0;" width="6" x="180.5" y="608"/><text fill="#000000" font-family="sans-serif" font-size="11" lengthAdjust="spacing" textLength="81" x="192.5" y="614.2104">String number</text><rect fill="none" height="6" style="stroke:#C82930;stroke-width:1.0;" width="6" x="180.5" y="620.8047"/><text fill="#000000" font-family="sans-serif" font-size="11" lengthAdjust="spacing" textLength="129" x="192.5" y="627.0151">String monthExpiration</text><rect fill="none" height="6" style="stroke:#C82930;stroke-width:1.0;" width="6" x="180.5" y="633.6094"/><text fill="#000000" font-family="sans-serif" font-size="11" lengthAdjust="spacing" textLength="119" x="192.5" y="639.8198">String yearExpiration</text><rect fill="none" height="6" style="stroke:#C82930;stroke-width:1.0;" width="6" x="180.5" y="646.4141"/><text fill="#000000" font-family="sans-serif" font-size="11" lengthAdjust="spacing" textLength="56" x="192.5" y="652.6245">String ccv</text><line style="stroke:#A80036;stroke-width:1.5;" x1="173.5" x2="326.5" y1="659.2188" y2="659.2188"/><!--MD5=[a4e330676c9c66f98e13004ba386afd1]
class RegistUserController--><rect codeLine="35" fill="#FEFECE" filter="url(#fu19h22if10cy)" height="73.6094" id="RegistUserController" style="stroke:#A80036;stroke-width:1.5;" width="687" x="116.5" y="116"/><ellipse cx="393.25" cy="132" fill="#ADD1B2" rx="11" ry="11" style="stroke:#A80036;stroke-width:1.0;"/><path d="M395.5938,127.6719 C394.6563,127.2344 394.0625,127.0938 393.1875,127.0938 C390.5625,127.0938 388.5625,129.1719 388.5625,131.8906 L388.5625,133.0156 C388.5625,135.5938 390.6719,137.4844 393.5625,137.4844 C394.7813,137.4844 395.9375,137.1875 396.6875,136.6406 C397.2656,136.2344 397.5938,135.7813 397.5938,135.3906 C397.5938,134.9375 397.2031,134.5469 396.7344,134.5469 C396.5156,134.5469 396.3125,134.625 396.125,134.8125 C395.6719,135.2969 395.6719,135.2969 395.4844,135.3906 C395.0625,135.6563 394.375,135.7813 393.6094,135.7813 C391.5625,135.7813 390.2656,134.6875 390.2656,132.9844 L390.2656,131.8906 C390.2656,130.1094 391.5156,128.7969 393.25,128.7969 C393.8281,128.7969 394.4375,128.9531 394.9063,129.2031 C395.3906,129.4844 395.5625,129.7031 395.6563,130.1094 C395.7188,130.5156 395.75,130.6406 395.8906,130.7656 C396.0313,130.9063 396.2656,131.0156 396.4844,131.0156 C396.75,131.0156 397.0156,130.875 397.1875,130.6563 C397.2969,130.5 397.3281,130.3125 397.3281,129.8906 L397.3281,128.4688 C397.3281,128.0313 397.3125,127.9063 397.2188,127.75 C397.0625,127.4844 396.7813,127.3438 396.4844,127.3438 C396.1875,127.3438 395.9844,127.4375 395.7656,127.75 L395.5938,127.6719 Z " fill="#000000"/><text fill="#000000" font-family="sans-serif" font-size="12" lengthAdjust="spacing" textLength="125" x="413.75" y="136.1543">RegistUserController</text><line style="stroke:#A80036;stroke-width:1.5;" x1="117.5" x2="802.5" y1="148" y2="148"/><line style="stroke:#A80036;stroke-width:1.5;" x1="117.5" x2="802.5" y1="156" y2="156"/><text fill="#000000" font-family="sans-serif" font-size="11" lengthAdjust="spacing" textLength="675" x="122.5" y="170.2104">newUser(nome, email, NIF, password, credits, street, latitude, longitude, number, monthExpiration, yearExpiration, ccv)</text><text fill="#000000" font-family="sans-serif" font-size="11" lengthAdjust="spacing" textLength="99" x="122.5" y="183.0151">sendEmail(email)</text><!--MD5=[8806e557260fb3598decb516dc04693d]
class EmailAPI--><rect codeLine="40" fill="#FEFECE" filter="url(#fu19h22if10cy)" height="60.8047" id="EmailAPI" style="stroke:#A80036;stroke-width:1.5;" width="111" x="404.5" y="340.5"/><ellipse cx="433.45" cy="356.5" fill="#ADD1B2" rx="11" ry="11" style="stroke:#A80036;stroke-width:1.0;"/><path d="M435.7938,352.1719 C434.8563,351.7344 434.2625,351.5938 433.3875,351.5938 C430.7625,351.5938 428.7625,353.6719 428.7625,356.3906 L428.7625,357.5156 C428.7625,360.0938 430.8719,361.9844 433.7625,361.9844 C434.9813,361.9844 436.1375,361.6875 436.8875,361.1406 C437.4656,360.7344 437.7938,360.2813 437.7938,359.8906 C437.7938,359.4375 437.4031,359.0469 436.9344,359.0469 C436.7156,359.0469 436.5125,359.125 436.325,359.3125 C435.8719,359.7969 435.8719,359.7969 435.6844,359.8906 C435.2625,360.1563 434.575,360.2813 433.8094,360.2813 C431.7625,360.2813 430.4656,359.1875 430.4656,357.4844 L430.4656,356.3906 C430.4656,354.6094 431.7156,353.2969 433.45,353.2969 C434.0281,353.2969 434.6375,353.4531 435.1063,353.7031 C435.5906,353.9844 435.7625,354.2031 435.8563,354.6094 C435.9188,355.0156 435.95,355.1406 436.0906,355.2656 C436.2313,355.4063 436.4656,355.5156 436.6844,355.5156 C436.95,355.5156 437.2156,355.375 437.3875,355.1563 C437.4969,355 437.5281,354.8125 437.5281,354.3906 L437.5281,352.9688 C437.5281,352.5313 437.5125,352.4063 437.4188,352.25 C437.2625,351.9844 436.9813,351.8438 436.6844,351.8438 C436.3875,351.8438 436.1844,351.9375 435.9656,352.25 L435.7938,352.1719 Z " fill="#000000"/><text fill="#000000" font-family="sans-serif" font-size="12" lengthAdjust="spacing" textLength="48" x="450.55" y="360.6543">EmailAPI</text><line style="stroke:#A80036;stroke-width:1.5;" x1="405.5" x2="514.5" y1="372.5" y2="372.5"/><line style="stroke:#A80036;stroke-width:1.5;" x1="405.5" x2="514.5" y1="380.5" y2="380.5"/><text fill="#000000" font-family="sans-serif" font-size="11" lengthAdjust="spacing" textLength="99" x="410.5" y="394.7104">sendEmail(email)</text><!--MD5=[2a4e54f6a4182fe25cccaf89cd34d22c]
class UserHandler--><rect codeLine="44" fill="#FEFECE" filter="url(#fu19h22if10cy)" height="60.8047" id="UserHandler" style="stroke:#A80036;stroke-width:1.5;" width="108" x="551" y="340.5"/><ellipse cx="566" cy="356.5" fill="#ADD1B2" rx="11" ry="11" style="stroke:#A80036;stroke-width:1.0;"/><path d="M568.3438,352.1719 C567.4063,351.7344 566.8125,351.5938 565.9375,351.5938 C563.3125,351.5938 561.3125,353.6719 561.3125,356.3906 L561.3125,357.5156 C561.3125,360.0938 563.4219,361.9844 566.3125,361.9844 C567.5313,361.9844 568.6875,361.6875 569.4375,361.1406 C570.0156,360.7344 570.3438,360.2813 570.3438,359.8906 C570.3438,359.4375 569.9531,359.0469 569.4844,359.0469 C569.2656,359.0469 569.0625,359.125 568.875,359.3125 C568.4219,359.7969 568.4219,359.7969 568.2344,359.8906 C567.8125,360.1563 567.125,360.2813 566.3594,360.2813 C564.3125,360.2813 563.0156,359.1875 563.0156,357.4844 L563.0156,356.3906 C563.0156,354.6094 564.2656,353.2969 566,353.2969 C566.5781,353.2969 567.1875,353.4531 567.6563,353.7031 C568.1406,353.9844 568.3125,354.2031 568.4063,354.6094 C568.4688,355.0156 568.5,355.1406 568.6406,355.2656 C568.7813,355.4063 569.0156,355.5156 569.2344,355.5156 C569.5,355.5156 569.7656,355.375 569.9375,355.1563 C570.0469,355 570.0781,354.8125 570.0781,354.3906 L570.0781,352.9688 C570.0781,352.5313 570.0625,352.4063 569.9688,352.25 C569.8125,351.9844 569.5313,351.8438 569.2344,351.8438 C568.9375,351.8438 568.7344,351.9375 568.5156,352.25 L568.3438,352.1719 Z " fill="#000000"/><text fill="#000000" font-family="sans-serif" font-size="12" lengthAdjust="spacing" textLength="76" x="580" y="360.6543">UserHandler</text><line style="stroke:#A80036;stroke-width:1.5;" x1="552" x2="658" y1="372.5" y2="372.5"/><line style="stroke:#A80036;stroke-width:1.5;" x1="552" x2="658" y1="380.5" y2="380.5"/><text fill="#000000" font-family="sans-serif" font-size="11" lengthAdjust="spacing" textLength="80" x="557" y="394.7104">addUser(user)</text><!--MD5=[837d3612090b426002fd1342fcbe6b88]
class DataBase--><rect codeLine="49" fill="#FEFECE" filter="url(#fu19h22if10cy)" height="60.8047" id="DataBase" style="stroke:#A80036;stroke-width:1.5;" width="363" x="423.5" y="587"/><ellipse cx="572.25" cy="603" fill="#ADD1B2" rx="11" ry="11" style="stroke:#A80036;stroke-width:1.0;"/><path d="M574.5938,598.6719 C573.6563,598.2344 573.0625,598.0938 572.1875,598.0938 C569.5625,598.0938 567.5625,600.1719 567.5625,602.8906 L567.5625,604.0156 C567.5625,606.5938 569.6719,608.4844 572.5625,608.4844 C573.7813,608.4844 574.9375,608.1875 575.6875,607.6406 C576.2656,607.2344 576.5938,606.7813 576.5938,606.3906 C576.5938,605.9375 576.2031,605.5469 575.7344,605.5469 C575.5156,605.5469 575.3125,605.625 575.125,605.8125 C574.6719,606.2969 574.6719,606.2969 574.4844,606.3906 C574.0625,606.6563 573.375,606.7813 572.6094,606.7813 C570.5625,606.7813 569.2656,605.6875 569.2656,603.9844 L569.2656,602.8906 C569.2656,601.1094 570.5156,599.7969 572.25,599.7969 C572.8281,599.7969 573.4375,599.9531 573.9063,600.2031 C574.3906,600.4844 574.5625,600.7031 574.6563,601.1094 C574.7188,601.5156 574.75,601.6406 574.8906,601.7656 C575.0313,601.9063 575.2656,602.0156 575.4844,602.0156 C575.75,602.0156 576.0156,601.875 576.1875,601.6563 C576.2969,601.5 576.3281,601.3125 576.3281,600.8906 L576.3281,599.4688 C576.3281,599.0313 576.3125,598.9063 576.2188,598.75 C576.0625,598.4844 575.7813,598.3438 575.4844,598.3438 C575.1875,598.3438 574.9844,598.4375 574.7656,598.75 L574.5938,598.6719 Z " fill="#000000"/><text fill="#000000" font-family="sans-serif" font-size="12" lengthAdjust="spacing" textLength="57" x="592.75" y="607.1543">DataBase</text><line style="stroke:#A80036;stroke-width:1.5;" x1="424.5" x2="785.5" y1="619" y2="619"/><line style="stroke:#A80036;stroke-width:1.5;" x1="424.5" x2="785.5" y1="627" y2="627"/><text fill="#000000" font-family="sans-serif" font-size="11" lengthAdjust="spacing" textLength="351" x="429.5" y="641.2104">save(name, email, nif, password, credits, address, creditCard)</text><!--MD5=[c924e2693385d0b81c725d3da65f80e0]
class RegistUserUI--><rect fill="#FEFECE" filter="url(#fu19h22if10cy)" height="48" id="RegistUserUI" style="stroke:#A80036;stroke-width:1.5;" width="110" x="405" y="7"/><ellipse cx="420" cy="23" fill="#ADD1B2" rx="11" ry="11" style="stroke:#A80036;stroke-width:1.0;"/><path d="M422.3438,18.6719 C421.4063,18.2344 420.8125,18.0938 419.9375,18.0938 C417.3125,18.0938 415.3125,20.1719 415.3125,22.8906 L415.3125,24.0156 C415.3125,26.5938 417.4219,28.4844 420.3125,28.4844 C421.5313,28.4844 422.6875,28.1875 423.4375,27.6406 C424.0156,27.2344 424.3438,26.7813 424.3438,26.3906 C424.3438,25.9375 423.9531,25.5469 423.4844,25.5469 C423.2656,25.5469 423.0625,25.625 422.875,25.8125 C422.4219,26.2969 422.4219,26.2969 422.2344,26.3906 C421.8125,26.6563 421.125,26.7813 420.3594,26.7813 C418.3125,26.7813 417.0156,25.6875 417.0156,23.9844 L417.0156,22.8906 C417.0156,21.1094 418.2656,19.7969 420,19.7969 C420.5781,19.7969 421.1875,19.9531 421.6563,20.2031 C422.1406,20.4844 422.3125,20.7031 422.4063,21.1094 C422.4688,21.5156 422.5,21.6406 422.6406,21.7656 C422.7813,21.9063 423.0156,22.0156 423.2344,22.0156 C423.5,22.0156 423.7656,21.875 423.9375,21.6563 C424.0469,21.5 424.0781,21.3125 424.0781,20.8906 L424.0781,19.4688 C424.0781,19.0313 424.0625,18.9063 423.9688,18.75 C423.8125,18.4844 423.5313,18.3438 423.2344,18.3438 C422.9375,18.3438 422.7344,18.4375 422.5156,18.75 L422.3438,18.6719 Z " fill="#000000"/><text fill="#000000" font-family="sans-serif" font-size="12" lengthAdjust="spacing" textLength="78" x="434" y="27.1543">RegistUserUI</text><line style="stroke:#A80036;stroke-width:1.5;" x1="406" x2="514" y1="39" y2="39"/><line style="stroke:#A80036;stroke-width:1.5;" x1="406" x2="514" y1="47" y2="47"/><!--MD5=[efea173d0a884d8efdf650f1f0adeab6]
link RegistUserUI to RegistUserController--><path codeLine="53" d="M460,55.137 C460,70.825 460,92.003 460,110.555 " fill="none" id="RegistUserUI-to-RegistUserController" style="stroke:#A80036;stroke-width:1.0;stroke-dasharray:7.0,7.0;"/><polygon fill="#A80036" points="460,115.711,464,106.711,460,110.711,456,106.711,460,115.711" style="stroke:#A80036;stroke-width:1.0;"/><!--MD5=[aba9ae60047af5be676ae3b0e70cd0f9]
link RegistUserController to User--><path codeLine="54" d="M414.473,190.154 C393.933,206.465 368.353,226.779 341.853,247.823 " fill="none" id="RegistUserController-to-User" style="stroke:#A80036;stroke-width:1.0;stroke-dasharray:7.0,7.0;"/><polygon fill="#A80036" points="337.937,250.933,347.4723,248.4678,341.8523,247.8233,342.4968,242.2033,337.937,250.933" style="stroke:#A80036;stroke-width:1.0;"/><!--MD5=[381a5cf97a865d45f3d794a843d110d4]
link UserHandler to DataBase--><path codeLine="55" d="M605,401.98 C605,447.38 605,533.368 605,581.5452 " fill="none" id="UserHandler-to-DataBase" style="stroke:#A80036;stroke-width:1.0;stroke-dasharray:7.0,7.0;"/><polygon fill="#A80036" points="605,586.6571,609,577.6571,605,581.6571,601,577.6571,605,586.6571" style="stroke:#A80036;stroke-width:1.0;"/><!--MD5=[9481eaea0b95f6ef103beded6e45e0c1]
link RegistUserController to UserHandler--><path codeLine="56" d="M488.623,190.213 C502.469,208.18 519.068,230.399 533,251 C551.847,278.869 571.506,311.651 585.511,335.744 " fill="none" id="RegistUserController-to-UserHandler" style="stroke:#A80036;stroke-width:1.0;stroke-dasharray:7.0,7.0;"/><polygon fill="#A80036" points="588.058,340.138,587.0043,330.3457,585.5501,335.8124,580.0834,334.3583,588.058,340.138" style="stroke:#A80036;stroke-width:1.0;"/><!--MD5=[e604fe8b9dea3be48106b059afcfb0d9]
link RegistUserController to EmailAPI--><path codeLine="57" d="M460,190.154 C460,230.496 460,295.318 460,335.132 " fill="none" id="RegistUserController-to-EmailAPI" style="stroke:#A80036;stroke-width:1.0;stroke-dasharray:7.0,7.0;"/><polygon fill="#A80036" points="460,340.339,464,331.339,460,335.339,456,331.339,460,340.339" style="stroke:#A80036;stroke-width:1.0;"/><!--MD5=[6cb56ad2db0e14266f83041296b08dce]
link User to Address--><path codeLine="58" d="M133.476,491.027 C119.791,520.903 105.988,551.035 95.3397,574.2808 " fill="none" id="User-Address" style="stroke:#A80036;stroke-width:1.0;"/><text fill="#000000" font-family="sans-serif" font-size="13" lengthAdjust="spacing" textLength="23" x="120" y="534.0669">has</text><text fill="#000000" font-family="sans-serif" font-size="13" lengthAdjust="spacing" textLength="8" x="121.7268" y="511.2656">1</text><text fill="#000000" font-family="sans-serif" font-size="13" lengthAdjust="spacing" textLength="8" x="89.6886" y="563.56">1</text><!--MD5=[8fb789c9a917570672faa648aaa21e72]
link User to CreditCard--><path codeLine="59" d="M218.183,491.027 C225.081,518.231 232.033,545.648 237.672,567.884 " fill="none" id="User-CreditCard" style="stroke:#A80036;stroke-width:1.0;"/><text fill="#000000" font-family="sans-serif" font-size="13" lengthAdjust="spacing" textLength="23" x="231" y="534.0669">has</text><text fill="#000000" font-family="sans-serif" font-size="13" lengthAdjust="spacing" textLength="8" x="211.8603" y="511.2656">1</text><text fill="#000000" font-family="sans-serif" font-size="13" lengthAdjust="spacing" textLength="8" x="227.3759" y="556.9129">1</text><!--MD5=[c62e37deebdd0c600be7898c1ecb3a1d]
@startuml
class Address {
  -double latitude
  -double longitude
  -String street
}


class User {
  -String nome
  -String email
  -String NIF
  -String password
  -int credits
  -String street
  -double latitude
  -double longitude
  -String number
  -String monthExpiration
  -String yearExpiration
  -String ccv
  newAddress(latitude, longitude, street)
  newCreditCard(number, monthExpiration, yearExpiration, ccv)
  saveUser()

}

class CreditCard {
   -String number
  -String monthExpiration
  -String yearExpiration
  -String ccv
}


class RegistUserController {
  newUser(nome, email, NIF, password, credits, street, latitude, longitude, number, monthExpiration, yearExpiration, ccv)
  sendEmail(email)
}

class EmailAPI {
sendEmail(email)
}

class UserHandler {
addUser(user)
}


class DataBase {
save(name, email, nif, password, credits, address, creditCard)
}

RegistUserUI ..> RegistUserController
RegistUserController ..> User
UserHandler ..> DataBase
RegistUserController ..> UserHandler
RegistUserController ..> EmailAPI
User "1" - - "1" Address: has
User "1" - - "1" CreditCard: has
@enduml

PlantUML version 1.2020.27beta7(Unknown compile time)
(GPL source distribution)
Java Runtime: Java(TM) SE Runtime Environment
JVM: Java HotSpot(TM) 64-Bit Server VM
Default Encoding: UTF-8
Language: en
Country: US
--></g></svg>