<?xml version="1.0" encoding="UTF-8" standalone="no"?><svg xmlns="http://www.w3.org/2000/svg" xmlns:xlink="http://www.w3.org/1999/xlink" contentScriptType="application/ecmascript" contentStyleType="text/css" height="819px" preserveAspectRatio="none" style="width:1141px;height:819px;" version="1.1" viewBox="0 0 1141 819" width="1141px" zoomAndPan="magnify"><defs><filter height="300%" id="fvbvvqy6qc0qe" width="300%" x="-1" y="-1"><feGaussianBlur result="blurOut" stdDeviation="2.0"/><feColorMatrix in="blurOut" result="blurOut2" type="matrix" values="0 0 0 0 0 0 0 0 0 0 0 0 0 0 0 0 0 0 .4 0"/><feOffset dx="4.0" dy="4.0" in="blurOut2" result="blurOut3"/><feBlend in="SourceGraphic" in2="blurOut3" mode="normal"/></filter></defs><g><!--MD5=[e666406c030339182a4283d2e65d4096]
class RegistUser--><rect codeLine="1" fill="#FEFECE" filter="url(#fvbvvqy6qc0qe)" height="60.8047" id="RegistUser" style="stroke:#A80036;stroke-width:1.5;" width="687" x="7" y="257.5"/><ellipse cx="313.25" cy="273.5" fill="#ADD1B2" rx="11" ry="11" style="stroke:#A80036;stroke-width:1.0;"/><path d="M315.5938,269.1719 C314.6563,268.7344 314.0625,268.5938 313.1875,268.5938 C310.5625,268.5938 308.5625,270.6719 308.5625,273.3906 L308.5625,274.5156 C308.5625,277.0938 310.6719,278.9844 313.5625,278.9844 C314.7813,278.9844 315.9375,278.6875 316.6875,278.1406 C317.2656,277.7344 317.5938,277.2813 317.5938,276.8906 C317.5938,276.4375 317.2031,276.0469 316.7344,276.0469 C316.5156,276.0469 316.3125,276.125 316.125,276.3125 C315.6719,276.7969 315.6719,276.7969 315.4844,276.8906 C315.0625,277.1563 314.375,277.2813 313.6094,277.2813 C311.5625,277.2813 310.2656,276.1875 310.2656,274.4844 L310.2656,273.3906 C310.2656,271.6094 311.5156,270.2969 313.25,270.2969 C313.8281,270.2969 314.4375,270.4531 314.9063,270.7031 C315.3906,270.9844 315.5625,271.2031 315.6563,271.6094 C315.7188,272.0156 315.75,272.1406 315.8906,272.2656 C316.0313,272.4063 316.2656,272.5156 316.4844,272.5156 C316.75,272.5156 317.0156,272.375 317.1875,272.1563 C317.2969,272 317.3281,271.8125 317.3281,271.3906 L317.3281,269.9688 C317.3281,269.5313 317.3125,269.4063 317.2188,269.25 C317.0625,268.9844 316.7813,268.8438 316.4844,268.8438 C316.1875,268.8438 315.9844,268.9375 315.7656,269.25 L315.5938,269.1719 Z " fill="#000000"/><text fill="#000000" font-family="sans-serif" font-size="12" lengthAdjust="spacingAndGlyphs" textLength="66" x="333.75" y="277.6543">RegistUser</text><line style="stroke:#A80036;stroke-width:1.5;" x1="8" x2="693" y1="289.5" y2="289.5"/><line style="stroke:#A80036;stroke-width:1.5;" x1="8" x2="693" y1="297.5" y2="297.5"/><text fill="#000000" font-family="sans-serif" font-size="11" lengthAdjust="spacingAndGlyphs" textLength="675" x="13" y="311.7104">newUser(nome, email, NIF, password, credits, street, latitude, longitude, number, monthExpiration, yearExpiration, ccv)</text><!--MD5=[0f39e4cb6f03951afbf6d14bd2505654]
class Address--><rect codeLine="6" fill="#FEFECE" filter="url(#fvbvvqy6qc0qe)" height="99.2188" id="Address" style="stroke:#A80036;stroke-width:1.5;" width="201" x="926" y="699.5"/><ellipse cx="996.75" cy="715.5" fill="#ADD1B2" rx="11" ry="11" style="stroke:#A80036;stroke-width:1.0;"/><path d="M999.0938,711.1719 C998.1563,710.7344 997.5625,710.5938 996.6875,710.5938 C994.0625,710.5938 992.0625,712.6719 992.0625,715.3906 L992.0625,716.5156 C992.0625,719.0938 994.1719,720.9844 997.0625,720.9844 C998.2813,720.9844 999.4375,720.6875 1000.1875,720.1406 C1000.7656,719.7344 1001.0938,719.2813 1001.0938,718.8906 C1001.0938,718.4375 1000.7031,718.0469 1000.2344,718.0469 C1000.0156,718.0469 999.8125,718.125 999.625,718.3125 C999.1719,718.7969 999.1719,718.7969 998.9844,718.8906 C998.5625,719.1563 997.875,719.2813 997.1094,719.2813 C995.0625,719.2813 993.7656,718.1875 993.7656,716.4844 L993.7656,715.3906 C993.7656,713.6094 995.0156,712.2969 996.75,712.2969 C997.3281,712.2969 997.9375,712.4531 998.4063,712.7031 C998.8906,712.9844 999.0625,713.2031 999.1563,713.6094 C999.2188,714.0156 999.25,714.1406 999.3906,714.2656 C999.5313,714.4063 999.7656,714.5156 999.9844,714.5156 C1000.25,714.5156 1000.5156,714.375 1000.6875,714.1563 C1000.7969,714 1000.8281,713.8125 1000.8281,713.3906 L1000.8281,711.9688 C1000.8281,711.5313 1000.8125,711.4063 1000.7188,711.25 C1000.5625,710.9844 1000.2813,710.8438 999.9844,710.8438 C999.6875,710.8438 999.4844,710.9375 999.2656,711.25 L999.0938,711.1719 Z " fill="#000000"/><text fill="#000000" font-family="sans-serif" font-size="12" lengthAdjust="spacingAndGlyphs" textLength="51" x="1017.25" y="719.6543">Address</text><line style="stroke:#A80036;stroke-width:1.5;" x1="927" x2="1126" y1="731.5" y2="731.5"/><rect fill="none" height="6" style="stroke:#C82930;stroke-width:1.0;" width="6" x="934" y="739.5"/><text fill="#000000" font-family="sans-serif" font-size="11" lengthAdjust="spacingAndGlyphs" textLength="86" x="946" y="745.7104">double latitude</text><rect fill="none" height="6" style="stroke:#C82930;stroke-width:1.0;" width="6" x="934" y="752.3047"/><text fill="#000000" font-family="sans-serif" font-size="11" lengthAdjust="spacingAndGlyphs" textLength="96" x="946" y="758.5151">double longitude</text><rect fill="none" height="6" style="stroke:#C82930;stroke-width:1.0;" width="6" x="934" y="765.1094"/><text fill="#000000" font-family="sans-serif" font-size="11" lengthAdjust="spacingAndGlyphs" textLength="71" x="946" y="771.3198">String street</text><line style="stroke:#A80036;stroke-width:1.5;" x1="927" x2="1126" y1="777.9141" y2="777.9141"/><text fill="#000000" font-family="sans-serif" font-size="11" lengthAdjust="spacingAndGlyphs" textLength="189" x="932" y="792.1245">create(latitude, longitude, street)</text><!--MD5=[3fd616f346a44cd59a91eb10b19e157c]
class User--><rect codeLine="14" fill="#FEFECE" filter="url(#fvbvvqy6qc0qe)" height="214.4609" id="User" style="stroke:#A80036;stroke-width:1.5;" width="379" x="555" y="402"/><ellipse cx="725.75" cy="418" fill="#ADD1B2" rx="11" ry="11" style="stroke:#A80036;stroke-width:1.0;"/><path d="M728.0938,413.6719 C727.1563,413.2344 726.5625,413.0938 725.6875,413.0938 C723.0625,413.0938 721.0625,415.1719 721.0625,417.8906 L721.0625,419.0156 C721.0625,421.5938 723.1719,423.4844 726.0625,423.4844 C727.2813,423.4844 728.4375,423.1875 729.1875,422.6406 C729.7656,422.2344 730.0938,421.7813 730.0938,421.3906 C730.0938,420.9375 729.7031,420.5469 729.2344,420.5469 C729.0156,420.5469 728.8125,420.625 728.625,420.8125 C728.1719,421.2969 728.1719,421.2969 727.9844,421.3906 C727.5625,421.6563 726.875,421.7813 726.1094,421.7813 C724.0625,421.7813 722.7656,420.6875 722.7656,418.9844 L722.7656,417.8906 C722.7656,416.1094 724.0156,414.7969 725.75,414.7969 C726.3281,414.7969 726.9375,414.9531 727.4063,415.2031 C727.8906,415.4844 728.0625,415.7031 728.1563,416.1094 C728.2188,416.5156 728.25,416.6406 728.3906,416.7656 C728.5313,416.9063 728.7656,417.0156 728.9844,417.0156 C729.25,417.0156 729.5156,416.875 729.6875,416.6563 C729.7969,416.5 729.8281,416.3125 729.8281,415.8906 L729.8281,414.4688 C729.8281,414.0313 729.8125,413.9063 729.7188,413.75 C729.5625,413.4844 729.2813,413.3438 728.9844,413.3438 C728.6875,413.3438 728.4844,413.4375 728.2656,413.75 L728.0938,413.6719 Z " fill="#000000"/><text fill="#000000" font-family="sans-serif" font-size="12" lengthAdjust="spacingAndGlyphs" textLength="29" x="746.25" y="422.1543">User</text><line style="stroke:#A80036;stroke-width:1.5;" x1="556" x2="933" y1="434" y2="434"/><rect fill="none" height="6" style="stroke:#C82930;stroke-width:1.0;" width="6" x="563" y="442"/><text fill="#000000" font-family="sans-serif" font-size="11" lengthAdjust="spacingAndGlyphs" textLength="70" x="575" y="448.2104">String nome</text><rect fill="none" height="6" style="stroke:#C82930;stroke-width:1.0;" width="6" x="563" y="454.8047"/><text fill="#000000" font-family="sans-serif" font-size="11" lengthAdjust="spacingAndGlyphs" textLength="69" x="575" y="461.0151">String email</text><rect fill="none" height="6" style="stroke:#C82930;stroke-width:1.0;" width="6" x="563" y="467.6094"/><text fill="#000000" font-family="sans-serif" font-size="11" lengthAdjust="spacingAndGlyphs" textLength="54" x="575" y="473.8198">String NIF</text><rect fill="none" height="6" style="stroke:#C82930;stroke-width:1.0;" width="6" x="563" y="480.4141"/><text fill="#000000" font-family="sans-serif" font-size="11" lengthAdjust="spacingAndGlyphs" textLength="90" x="575" y="486.6245">String password</text><rect fill="none" height="6" style="stroke:#C82930;stroke-width:1.0;" width="6" x="563" y="493.2188"/><text fill="#000000" font-family="sans-serif" font-size="11" lengthAdjust="spacingAndGlyphs" textLength="56" x="575" y="499.4292">int credits</text><rect fill="none" height="6" style="stroke:#C82930;stroke-width:1.0;" width="6" x="563" y="506.0234"/><text fill="#000000" font-family="sans-serif" font-size="11" lengthAdjust="spacingAndGlyphs" textLength="71" x="575" y="512.2339">String street</text><rect fill="none" height="6" style="stroke:#C82930;stroke-width:1.0;" width="6" x="563" y="518.8281"/><text fill="#000000" font-family="sans-serif" font-size="11" lengthAdjust="spacingAndGlyphs" textLength="86" x="575" y="525.0386">double latitude</text><rect fill="none" height="6" style="stroke:#C82930;stroke-width:1.0;" width="6" x="563" y="531.6328"/><text fill="#000000" font-family="sans-serif" font-size="11" lengthAdjust="spacingAndGlyphs" textLength="96" x="575" y="537.8433">double longitude</text><rect fill="none" height="6" style="stroke:#C82930;stroke-width:1.0;" width="6" x="563" y="544.4375"/><text fill="#000000" font-family="sans-serif" font-size="11" lengthAdjust="spacingAndGlyphs" textLength="81" x="575" y="550.6479">String number</text><rect fill="none" height="6" style="stroke:#C82930;stroke-width:1.0;" width="6" x="563" y="557.2422"/><text fill="#000000" font-family="sans-serif" font-size="11" lengthAdjust="spacingAndGlyphs" textLength="129" x="575" y="563.4526">String monthExpiration</text><rect fill="none" height="6" style="stroke:#C82930;stroke-width:1.0;" width="6" x="563" y="570.0469"/><text fill="#000000" font-family="sans-serif" font-size="11" lengthAdjust="spacingAndGlyphs" textLength="119" x="575" y="576.2573">String yearExpiration</text><rect fill="none" height="6" style="stroke:#C82930;stroke-width:1.0;" width="6" x="563" y="582.8516"/><text fill="#000000" font-family="sans-serif" font-size="11" lengthAdjust="spacingAndGlyphs" textLength="56" x="575" y="589.062">String ccv</text><line style="stroke:#A80036;stroke-width:1.5;" x1="556" x2="933" y1="595.6563" y2="595.6563"/><text fill="#000000" font-family="sans-serif" font-size="11" lengthAdjust="spacingAndGlyphs" textLength="367" x="561" y="609.8667">create(name, email, nif, , password, credits, address, creditCard)</text><!--MD5=[91d4151b6d4c9a3d01b6d84b2458eece]
class CreditCard--><rect codeLine="31" fill="#FEFECE" filter="url(#fvbvvqy6qc0qe)" height="112.0234" id="CreditCard" style="stroke:#A80036;stroke-width:1.5;" width="315" x="576" y="693"/><ellipse cx="697.25" cy="709" fill="#ADD1B2" rx="11" ry="11" style="stroke:#A80036;stroke-width:1.0;"/><path d="M699.5938,704.6719 C698.6563,704.2344 698.0625,704.0938 697.1875,704.0938 C694.5625,704.0938 692.5625,706.1719 692.5625,708.8906 L692.5625,710.0156 C692.5625,712.5938 694.6719,714.4844 697.5625,714.4844 C698.7813,714.4844 699.9375,714.1875 700.6875,713.6406 C701.2656,713.2344 701.5938,712.7813 701.5938,712.3906 C701.5938,711.9375 701.2031,711.5469 700.7344,711.5469 C700.5156,711.5469 700.3125,711.625 700.125,711.8125 C699.6719,712.2969 699.6719,712.2969 699.4844,712.3906 C699.0625,712.6563 698.375,712.7813 697.6094,712.7813 C695.5625,712.7813 694.2656,711.6875 694.2656,709.9844 L694.2656,708.8906 C694.2656,707.1094 695.5156,705.7969 697.25,705.7969 C697.8281,705.7969 698.4375,705.9531 698.9063,706.2031 C699.3906,706.4844 699.5625,706.7031 699.6563,707.1094 C699.7188,707.5156 699.75,707.6406 699.8906,707.7656 C700.0313,707.9063 700.2656,708.0156 700.4844,708.0156 C700.75,708.0156 701.0156,707.875 701.1875,707.6563 C701.2969,707.5 701.3281,707.3125 701.3281,706.8906 L701.3281,705.4688 C701.3281,705.0313 701.3125,704.9063 701.2188,704.75 C701.0625,704.4844 700.7813,704.3438 700.4844,704.3438 C700.1875,704.3438 699.9844,704.4375 699.7656,704.75 L699.5938,704.6719 Z " fill="#000000"/><text fill="#000000" font-family="sans-serif" font-size="12" lengthAdjust="spacingAndGlyphs" textLength="64" x="717.75" y="713.1543">CreditCard</text><line style="stroke:#A80036;stroke-width:1.5;" x1="577" x2="890" y1="725" y2="725"/><rect fill="none" height="6" style="stroke:#C82930;stroke-width:1.0;" width="6" x="584" y="733"/><text fill="#000000" font-family="sans-serif" font-size="11" lengthAdjust="spacingAndGlyphs" textLength="81" x="596" y="739.2104">String number</text><rect fill="none" height="6" style="stroke:#C82930;stroke-width:1.0;" width="6" x="584" y="745.8047"/><text fill="#000000" font-family="sans-serif" font-size="11" lengthAdjust="spacingAndGlyphs" textLength="129" x="596" y="752.0151">String monthExpiration</text><rect fill="none" height="6" style="stroke:#C82930;stroke-width:1.0;" width="6" x="584" y="758.6094"/><text fill="#000000" font-family="sans-serif" font-size="11" lengthAdjust="spacingAndGlyphs" textLength="119" x="596" y="764.8198">String yearExpiration</text><rect fill="none" height="6" style="stroke:#C82930;stroke-width:1.0;" width="6" x="584" y="771.4141"/><text fill="#000000" font-family="sans-serif" font-size="11" lengthAdjust="spacingAndGlyphs" textLength="56" x="596" y="777.6245">String ccv</text><line style="stroke:#A80036;stroke-width:1.5;" x1="577" x2="890" y1="784.2188" y2="784.2188"/><text fill="#000000" font-family="sans-serif" font-size="11" lengthAdjust="spacingAndGlyphs" textLength="303" x="582" y="798.4292">create(number, monthExpiration, yearExpiration, ccv)</text><!--MD5=[99b8db98afdc2c8404e39242ef4c1e65]
class Platform--><rect codeLine="38" fill="#FEFECE" filter="url(#fvbvvqy6qc0qe)" height="73.6094" id="Platform" style="stroke:#A80036;stroke-width:1.5;" width="82" x="800.5" y="251"/><ellipse cx="816.4" cy="267" fill="#ADD1B2" rx="11" ry="11" style="stroke:#A80036;stroke-width:1.0;"/><path d="M818.7438,262.6719 C817.8063,262.2344 817.2125,262.0938 816.3375,262.0938 C813.7125,262.0938 811.7125,264.1719 811.7125,266.8906 L811.7125,268.0156 C811.7125,270.5938 813.8219,272.4844 816.7125,272.4844 C817.9313,272.4844 819.0875,272.1875 819.8375,271.6406 C820.4156,271.2344 820.7438,270.7813 820.7438,270.3906 C820.7438,269.9375 820.3531,269.5469 819.8844,269.5469 C819.6656,269.5469 819.4625,269.625 819.275,269.8125 C818.8219,270.2969 818.8219,270.2969 818.6344,270.3906 C818.2125,270.6563 817.525,270.7813 816.7594,270.7813 C814.7125,270.7813 813.4156,269.6875 813.4156,267.9844 L813.4156,266.8906 C813.4156,265.1094 814.6656,263.7969 816.4,263.7969 C816.9781,263.7969 817.5875,263.9531 818.0563,264.2031 C818.5406,264.4844 818.7125,264.7031 818.8063,265.1094 C818.8688,265.5156 818.9,265.6406 819.0406,265.7656 C819.1813,265.9063 819.4156,266.0156 819.6344,266.0156 C819.9,266.0156 820.1656,265.875 820.3375,265.6563 C820.4469,265.5 820.4781,265.3125 820.4781,264.8906 L820.4781,263.4688 C820.4781,263.0313 820.4625,262.9063 820.3688,262.75 C820.2125,262.4844 819.9313,262.3438 819.6344,262.3438 C819.3375,262.3438 819.1344,262.4375 818.9156,262.75 L818.7438,262.6719 Z " fill="#000000"/><text fill="#000000" font-family="sans-serif" font-size="12" lengthAdjust="spacingAndGlyphs" textLength="48" x="830.6" y="271.1543">Platform</text><line style="stroke:#A80036;stroke-width:1.5;" x1="801.5" x2="881.5" y1="283" y2="283"/><line style="stroke:#A80036;stroke-width:1.5;" x1="801.5" x2="881.5" y1="291" y2="291"/><text fill="#000000" font-family="sans-serif" font-size="11" lengthAdjust="spacingAndGlyphs" textLength="70" x="806.5" y="305.2104">getUserAPI()</text><text fill="#000000" font-family="sans-serif" font-size="11" lengthAdjust="spacingAndGlyphs" textLength="66" x="806.5" y="318.0151">getRUsers()</text><!--MD5=[a4e330676c9c66f98e13004ba386afd1]
class RegistUserController--><rect codeLine="44" fill="#FEFECE" filter="url(#fvbvvqy6qc0qe)" height="73.6094" id="RegistUserController" style="stroke:#A80036;stroke-width:1.5;" width="687" x="404" y="116"/><ellipse cx="680.75" cy="132" fill="#ADD1B2" rx="11" ry="11" style="stroke:#A80036;stroke-width:1.0;"/><path d="M683.0938,127.6719 C682.1563,127.2344 681.5625,127.0938 680.6875,127.0938 C678.0625,127.0938 676.0625,129.1719 676.0625,131.8906 L676.0625,133.0156 C676.0625,135.5938 678.1719,137.4844 681.0625,137.4844 C682.2813,137.4844 683.4375,137.1875 684.1875,136.6406 C684.7656,136.2344 685.0938,135.7813 685.0938,135.3906 C685.0938,134.9375 684.7031,134.5469 684.2344,134.5469 C684.0156,134.5469 683.8125,134.625 683.625,134.8125 C683.1719,135.2969 683.1719,135.2969 682.9844,135.3906 C682.5625,135.6563 681.875,135.7813 681.1094,135.7813 C679.0625,135.7813 677.7656,134.6875 677.7656,132.9844 L677.7656,131.8906 C677.7656,130.1094 679.0156,128.7969 680.75,128.7969 C681.3281,128.7969 681.9375,128.9531 682.4063,129.2031 C682.8906,129.4844 683.0625,129.7031 683.1563,130.1094 C683.2188,130.5156 683.25,130.6406 683.3906,130.7656 C683.5313,130.9063 683.7656,131.0156 683.9844,131.0156 C684.25,131.0156 684.5156,130.875 684.6875,130.6563 C684.7969,130.5 684.8281,130.3125 684.8281,129.8906 L684.8281,128.4688 C684.8281,128.0313 684.8125,127.9063 684.7188,127.75 C684.5625,127.4844 684.2813,127.3438 683.9844,127.3438 C683.6875,127.3438 683.4844,127.4375 683.2656,127.75 L683.0938,127.6719 Z " fill="#000000"/><text fill="#000000" font-family="sans-serif" font-size="12" lengthAdjust="spacingAndGlyphs" textLength="125" x="701.25" y="136.1543">RegistUserController</text><line style="stroke:#A80036;stroke-width:1.5;" x1="405" x2="1090" y1="148" y2="148"/><line style="stroke:#A80036;stroke-width:1.5;" x1="405" x2="1090" y1="156" y2="156"/><text fill="#000000" font-family="sans-serif" font-size="11" lengthAdjust="spacingAndGlyphs" textLength="675" x="410" y="170.2104">newUser(nome, email, NIF, password, credits, street, latitude, longitude, number, monthExpiration, yearExpiration, ccv)</text><text fill="#000000" font-family="sans-serif" font-size="11" lengthAdjust="spacingAndGlyphs" textLength="99" x="410" y="183.0151">sendEmail(email)</text><!--MD5=[c924e2693385d0b81c725d3da65f80e0]
class RegistUserUI--><rect codeLine="50" fill="#FEFECE" filter="url(#fvbvvqy6qc0qe)" height="48" id="RegistUserUI" style="stroke:#A80036;stroke-width:1.5;" width="110" x="692.5" y="7"/><ellipse cx="707.5" cy="23" fill="#ADD1B2" rx="11" ry="11" style="stroke:#A80036;stroke-width:1.0;"/><path d="M709.8438,18.6719 C708.9063,18.2344 708.3125,18.0938 707.4375,18.0938 C704.8125,18.0938 702.8125,20.1719 702.8125,22.8906 L702.8125,24.0156 C702.8125,26.5938 704.9219,28.4844 707.8125,28.4844 C709.0313,28.4844 710.1875,28.1875 710.9375,27.6406 C711.5156,27.2344 711.8438,26.7813 711.8438,26.3906 C711.8438,25.9375 711.4531,25.5469 710.9844,25.5469 C710.7656,25.5469 710.5625,25.625 710.375,25.8125 C709.9219,26.2969 709.9219,26.2969 709.7344,26.3906 C709.3125,26.6563 708.625,26.7813 707.8594,26.7813 C705.8125,26.7813 704.5156,25.6875 704.5156,23.9844 L704.5156,22.8906 C704.5156,21.1094 705.7656,19.7969 707.5,19.7969 C708.0781,19.7969 708.6875,19.9531 709.1563,20.2031 C709.6406,20.4844 709.8125,20.7031 709.9063,21.1094 C709.9688,21.5156 710,21.6406 710.1406,21.7656 C710.2813,21.9063 710.5156,22.0156 710.7344,22.0156 C711,22.0156 711.2656,21.875 711.4375,21.6563 C711.5469,21.5 711.5781,21.3125 711.5781,20.8906 L711.5781,19.4688 C711.5781,19.0313 711.5625,18.9063 711.4688,18.75 C711.3125,18.4844 711.0313,18.3438 710.7344,18.3438 C710.4375,18.3438 710.2344,18.4375 710.0156,18.75 L709.8438,18.6719 Z " fill="#000000"/><text fill="#000000" font-family="sans-serif" font-size="12" lengthAdjust="spacingAndGlyphs" textLength="78" x="721.5" y="27.1543">RegistUserUI</text><line style="stroke:#A80036;stroke-width:1.5;" x1="693.5" x2="801.5" y1="39" y2="39"/><line style="stroke:#A80036;stroke-width:1.5;" x1="693.5" x2="801.5" y1="47" y2="47"/><!--MD5=[8806e557260fb3598decb516dc04693d]
class EmailAPI--><rect codeLine="53" fill="#FEFECE" filter="url(#fvbvvqy6qc0qe)" height="60.8047" id="EmailAPI" style="stroke:#A80036;stroke-width:1.5;" width="111" x="158" y="478.5"/><ellipse cx="186.95" cy="494.5" fill="#ADD1B2" rx="11" ry="11" style="stroke:#A80036;stroke-width:1.0;"/><path d="M189.2938,490.1719 C188.3563,489.7344 187.7625,489.5938 186.8875,489.5938 C184.2625,489.5938 182.2625,491.6719 182.2625,494.3906 L182.2625,495.5156 C182.2625,498.0938 184.3719,499.9844 187.2625,499.9844 C188.4813,499.9844 189.6375,499.6875 190.3875,499.1406 C190.9656,498.7344 191.2938,498.2813 191.2938,497.8906 C191.2938,497.4375 190.9031,497.0469 190.4344,497.0469 C190.2156,497.0469 190.0125,497.125 189.825,497.3125 C189.3719,497.7969 189.3719,497.7969 189.1844,497.8906 C188.7625,498.1563 188.075,498.2813 187.3094,498.2813 C185.2625,498.2813 183.9656,497.1875 183.9656,495.4844 L183.9656,494.3906 C183.9656,492.6094 185.2156,491.2969 186.95,491.2969 C187.5281,491.2969 188.1375,491.4531 188.6063,491.7031 C189.0906,491.9844 189.2625,492.2031 189.3563,492.6094 C189.4188,493.0156 189.45,493.1406 189.5906,493.2656 C189.7313,493.4063 189.9656,493.5156 190.1844,493.5156 C190.45,493.5156 190.7156,493.375 190.8875,493.1563 C190.9969,493 191.0281,492.8125 191.0281,492.3906 L191.0281,490.9688 C191.0281,490.5313 191.0125,490.4063 190.9188,490.25 C190.7625,489.9844 190.4813,489.8438 190.1844,489.8438 C189.8875,489.8438 189.6844,489.9375 189.4656,490.25 L189.2938,490.1719 Z " fill="#000000"/><text fill="#000000" font-family="sans-serif" font-size="12" lengthAdjust="spacingAndGlyphs" textLength="48" x="204.05" y="498.6543">EmailAPI</text><line style="stroke:#A80036;stroke-width:1.5;" x1="159" x2="268" y1="510.5" y2="510.5"/><line style="stroke:#A80036;stroke-width:1.5;" x1="159" x2="268" y1="518.5" y2="518.5"/><text fill="#000000" font-family="sans-serif" font-size="11" lengthAdjust="spacingAndGlyphs" textLength="99" x="164" y="532.7104">sendEmail(email)</text><!--MD5=[2a4e54f6a4182fe25cccaf89cd34d22c]
class UserHandler--><rect codeLine="57" fill="#FEFECE" filter="url(#fvbvvqy6qc0qe)" height="60.8047" id="UserHandler" style="stroke:#A80036;stroke-width:1.5;" width="108" x="304.5" y="478.5"/><ellipse cx="319.5" cy="494.5" fill="#ADD1B2" rx="11" ry="11" style="stroke:#A80036;stroke-width:1.0;"/><path d="M321.8438,490.1719 C320.9063,489.7344 320.3125,489.5938 319.4375,489.5938 C316.8125,489.5938 314.8125,491.6719 314.8125,494.3906 L314.8125,495.5156 C314.8125,498.0938 316.9219,499.9844 319.8125,499.9844 C321.0313,499.9844 322.1875,499.6875 322.9375,499.1406 C323.5156,498.7344 323.8438,498.2813 323.8438,497.8906 C323.8438,497.4375 323.4531,497.0469 322.9844,497.0469 C322.7656,497.0469 322.5625,497.125 322.375,497.3125 C321.9219,497.7969 321.9219,497.7969 321.7344,497.8906 C321.3125,498.1563 320.625,498.2813 319.8594,498.2813 C317.8125,498.2813 316.5156,497.1875 316.5156,495.4844 L316.5156,494.3906 C316.5156,492.6094 317.7656,491.2969 319.5,491.2969 C320.0781,491.2969 320.6875,491.4531 321.1563,491.7031 C321.6406,491.9844 321.8125,492.2031 321.9063,492.6094 C321.9688,493.0156 322,493.1406 322.1406,493.2656 C322.2813,493.4063 322.5156,493.5156 322.7344,493.5156 C323,493.5156 323.2656,493.375 323.4375,493.1563 C323.5469,493 323.5781,492.8125 323.5781,492.3906 L323.5781,490.9688 C323.5781,490.5313 323.5625,490.4063 323.4688,490.25 C323.3125,489.9844 323.0313,489.8438 322.7344,489.8438 C322.4375,489.8438 322.2344,489.9375 322.0156,490.25 L321.8438,490.1719 Z " fill="#000000"/><text fill="#000000" font-family="sans-serif" font-size="12" lengthAdjust="spacingAndGlyphs" textLength="76" x="333.5" y="498.6543">UserHandler</text><line style="stroke:#A80036;stroke-width:1.5;" x1="305.5" x2="411.5" y1="510.5" y2="510.5"/><line style="stroke:#A80036;stroke-width:1.5;" x1="305.5" x2="411.5" y1="518.5" y2="518.5"/><text fill="#000000" font-family="sans-serif" font-size="11" lengthAdjust="spacingAndGlyphs" textLength="87" x="310.5" y="532.7104">saveUser(user)</text><!--MD5=[837d3612090b426002fd1342fcbe6b88]
class DataBase--><rect codeLine="62" fill="#FEFECE" filter="url(#fvbvvqy6qc0qe)" height="60.8047" id="DataBase" style="stroke:#A80036;stroke-width:1.5;" width="363" x="177" y="718.5"/><ellipse cx="325.75" cy="734.5" fill="#ADD1B2" rx="11" ry="11" style="stroke:#A80036;stroke-width:1.0;"/><path d="M328.0938,730.1719 C327.1563,729.7344 326.5625,729.5938 325.6875,729.5938 C323.0625,729.5938 321.0625,731.6719 321.0625,734.3906 L321.0625,735.5156 C321.0625,738.0938 323.1719,739.9844 326.0625,739.9844 C327.2813,739.9844 328.4375,739.6875 329.1875,739.1406 C329.7656,738.7344 330.0938,738.2813 330.0938,737.8906 C330.0938,737.4375 329.7031,737.0469 329.2344,737.0469 C329.0156,737.0469 328.8125,737.125 328.625,737.3125 C328.1719,737.7969 328.1719,737.7969 327.9844,737.8906 C327.5625,738.1563 326.875,738.2813 326.1094,738.2813 C324.0625,738.2813 322.7656,737.1875 322.7656,735.4844 L322.7656,734.3906 C322.7656,732.6094 324.0156,731.2969 325.75,731.2969 C326.3281,731.2969 326.9375,731.4531 327.4063,731.7031 C327.8906,731.9844 328.0625,732.2031 328.1563,732.6094 C328.2188,733.0156 328.25,733.1406 328.3906,733.2656 C328.5313,733.4063 328.7656,733.5156 328.9844,733.5156 C329.25,733.5156 329.5156,733.375 329.6875,733.1563 C329.7969,733 329.8281,732.8125 329.8281,732.3906 L329.8281,730.9688 C329.8281,730.5313 329.8125,730.4063 329.7188,730.25 C329.5625,729.9844 329.2813,729.8438 328.9844,729.8438 C328.6875,729.8438 328.4844,729.9375 328.2656,730.25 L328.0938,730.1719 Z " fill="#000000"/><text fill="#000000" font-family="sans-serif" font-size="12" lengthAdjust="spacingAndGlyphs" textLength="57" x="346.25" y="738.6543">DataBase</text><line style="stroke:#A80036;stroke-width:1.5;" x1="178" x2="539" y1="750.5" y2="750.5"/><line style="stroke:#A80036;stroke-width:1.5;" x1="178" x2="539" y1="758.5" y2="758.5"/><text fill="#000000" font-family="sans-serif" font-size="11" lengthAdjust="spacingAndGlyphs" textLength="351" x="183" y="772.7104">save(name, email, nif, password, credits, address, creditCard)</text><!--MD5=[efea173d0a884d8efdf650f1f0adeab6]
link RegistUserUI to RegistUserController--><path codeLine="66" d="M747.5,55.137 C747.5,70.825 747.5,92.003 747.5,110.555 " fill="none" id="RegistUserUI-to-RegistUserController" style="stroke:#A80036;stroke-width:1.0;stroke-dasharray:7.0,7.0;"/><polygon fill="#A80036" points="747.5,115.711,751.5,106.711,747.5,110.711,743.5,106.711,747.5,115.711" style="stroke:#A80036;stroke-width:1.0;"/><!--MD5=[b0ee3c4c64b498f088c5a02e1a996ad3]
link RegistUserController to Platform--><path codeLine="67" d="M773.186,190.343 C785.413,207.643 800.082,228.398 812.688,246.234 " fill="none" id="RegistUserController-to-Platform" style="stroke:#A80036;stroke-width:1.0;stroke-dasharray:7.0,7.0;"/><polygon fill="#A80036" points="815.845,250.701,813.9169,241.0427,812.9591,246.6179,807.3839,245.6601,815.845,250.701" style="stroke:#A80036;stroke-width:1.0;"/><!--MD5=[ff73eb8f31463472c2f0aff4ce86af8c]
link RegistUserController to RegistUser--><path codeLine="68" d="M639.804,190.079 C578.497,210.618 502.458,236.092 443.723,255.769 " fill="none" id="RegistUserController-to-RegistUser" style="stroke:#A80036;stroke-width:1.0;stroke-dasharray:7.0,7.0;"/><polygon fill="#A80036" points="438.812,257.415,448.6163,258.3513,443.5534,255.8279,446.0768,250.765,438.812,257.415" style="stroke:#A80036;stroke-width:1.0;"/><!--MD5=[aba9ae60047af5be676ae3b0e70cd0f9]
link RegistUserController to User--><path codeLine="69" d="M747.193,190.221 C746.785,238.405 746.044,325.759 745.443,396.702 " fill="none" id="RegistUserController-to-User" style="stroke:#A80036;stroke-width:1.0;stroke-dasharray:7.0,7.0;"/><polygon fill="#A80036" points="745.4,401.781,749.477,392.8156,745.4429,396.7812,741.4773,392.747,745.4,401.781" style="stroke:#A80036;stroke-width:1.0;"/><!--MD5=[5d9e9bc796dc4e971f5db41aba62dd24]
link RegistUser to User--><path codeLine="70" d="M403.637,318.535 C441.944,339.828 496.209,369.99 550.203,400.002 " fill="none" id="RegistUser-to-User" style="stroke:#A80036;stroke-width:1.0;"/><polygon fill="#A80036" points="554.756,402.533,548.8342,394.6633,550.3862,400.1031,544.9464,401.655,554.756,402.533" style="stroke:#A80036;stroke-width:1.0;"/><text fill="#000000" font-family="sans-serif" font-size="13" lengthAdjust="spacingAndGlyphs" textLength="23" x="489.5" y="368.0669">has</text><text fill="#000000" font-family="sans-serif" font-size="13" lengthAdjust="spacingAndGlyphs" textLength="8" x="405.7715" y="338.4805">1</text><text fill="#000000" font-family="sans-serif" font-size="13" lengthAdjust="spacingAndGlyphs" textLength="23" x="523.8949" y="395.1416">1..*</text><!--MD5=[381a5cf97a865d45f3d794a843d110d4]
link UserHandler to DataBase--><path codeLine="71" d="M358.5,539.662 C358.5,583.696 358.5,666.192 358.5,713.081 " fill="none" id="UserHandler-to-DataBase" style="stroke:#A80036;stroke-width:1.0;stroke-dasharray:7.0,7.0;"/><polygon fill="#A80036" points="358.5,718.3393,362.5,709.3393,358.5,713.3393,354.5,709.3393,358.5,718.3393" style="stroke:#A80036;stroke-width:1.0;"/><!--MD5=[ef86f45cc846862e2b00793d6e911403]
link RegistUser to UserHandler--><path codeLine="72" d="M351.579,318.535 C353.046,358.7 355.666,430.426 357.228,473.168 " fill="none" id="RegistUser-to-UserHandler" style="stroke:#A80036;stroke-width:1.0;stroke-dasharray:7.0,7.0;"/><polygon fill="#A80036" points="357.413,478.233,361.0838,469.0938,357.2316,473.2363,353.0891,469.3841,357.413,478.233" style="stroke:#A80036;stroke-width:1.0;"/><!--MD5=[8bb2b78aa15dc85527678436632b364c]
link RegistUser to EmailAPI--><path codeLine="73" d="M332.024,318.535 C306.744,358.945 261.48,431.302 234.802,473.947 " fill="none" id="RegistUser-to-EmailAPI" style="stroke:#A80036;stroke-width:1.0;stroke-dasharray:7.0,7.0;"/><polygon fill="#A80036" points="232.121,478.233,240.2843,472.723,234.772,473.9937,233.5014,468.4814,232.121,478.233" style="stroke:#A80036;stroke-width:1.0;"/><!--MD5=[6cb56ad2db0e14266f83041296b08dce]
link User to Address--><path codeLine="74" d="M870.242,616.123 C904.611,645.129 940.203,675.168 968.722,699.237 " fill="none" id="User-Address" style="stroke:#A80036;stroke-width:1.0;"/><text fill="#000000" font-family="sans-serif" font-size="13" lengthAdjust="spacingAndGlyphs" textLength="23" x="919.5" y="659.0669">has</text><text fill="#000000" font-family="sans-serif" font-size="13" lengthAdjust="spacingAndGlyphs" textLength="8" x="871.1824" y="636.5955">1</text><text fill="#000000" font-family="sans-serif" font-size="13" lengthAdjust="spacingAndGlyphs" textLength="8" x="952.4206" y="688.6034">1</text><!--MD5=[8fb789c9a917570672faa648aaa21e72]
link User to CreditCard--><path codeLine="75" d="M739.595,616.123 C738.369,642.65 737.103,670.041 736.045,692.939 " fill="none" id="User-CreditCard" style="stroke:#A80036;stroke-width:1.0;"/><text fill="#000000" font-family="sans-serif" font-size="13" lengthAdjust="spacingAndGlyphs" textLength="23" x="738.5" y="659.0669">has</text><text fill="#000000" font-family="sans-serif" font-size="13" lengthAdjust="spacingAndGlyphs" textLength="8" x="730.941" y="636.5955">1</text><text fill="#000000" font-family="sans-serif" font-size="13" lengthAdjust="spacingAndGlyphs" textLength="8" x="727.8586" y="681.8691">1</text><!--MD5=[529d4c32976f4d424e3d83e11c5551f4]
@startuml
class RegistUser{
newUser(nome, email, NIF, password, credits, street, latitude, longitude, number, monthExpiration, yearExpiration, ccv)

}

class Address {
  -double latitude
  -double longitude
  -String street
  create(latitude, longitude, street)
}

  
class User {
  -String nome
  -String email
  -String NIF
  -String password
  -int credits
  -String street
  -double latitude
  -double longitude
  -String number
  -String monthExpiration
  -String yearExpiration
  -String ccv
  create(name, email, nif, , password, credits, address, creditCard)

}
  
class CreditCard {
   -String number
  -String monthExpiration
  -String yearExpiration
  -String ccv
  create(number, monthExpiration, yearExpiration, ccv)
}
class Platform {
  getUserAPI()    
  getRUsers()
}


class RegistUserController {
  newUser(nome, email, NIF, password, credits, street, latitude, longitude, number, monthExpiration, yearExpiration, ccv)
  sendEmail(email)
}
  

class RegistUserUI {
}

class EmailAPI {
sendEmail(email)
}

class UserHandler {
saveUser(user)
}


class DataBase {
save(name, email, nif, password, credits, address, creditCard)
}

RegistUserUI ..> RegistUserController
RegistUserController ..> Platform
RegistUserController ..> RegistUser
RegistUserController ..> User
RegistUser "1" - -> "1..*" User: has
UserHandler ..> DataBase
RegistUser ..> UserHandler
RegistUser ..> EmailAPI
User "1" - - "1" Address: has
User "1" - - "1" CreditCard: has
@enduml

PlantUML version 1.2020.27beta5(Unknown compile time)
(GPL source distribution)
Java Runtime: Java(TM) SE Runtime Environment
JVM: Java HotSpot(TM) 64-Bit Server VM
Default Encoding: UTF-8
Language: en
Country: US
--></g></svg>