<?xml version="1.0" encoding="UTF-8" standalone="no"?><svg xmlns="http://www.w3.org/2000/svg" xmlns:xlink="http://www.w3.org/1999/xlink" contentScriptType="application/ecmascript" contentStyleType="text/css" height="225px" preserveAspectRatio="none" style="width:636px;height:225px;" version="1.1" viewBox="0 0 636 225" width="636px" zoomAndPan="magnify"><defs><filter height="300%" id="f16ot32j82ul2c" width="300%" x="-1" y="-1"><feGaussianBlur result="blurOut" stdDeviation="2.0"/><feColorMatrix in="blurOut" result="blurOut2" type="matrix" values="0 0 0 0 0 0 0 0 0 0 0 0 0 0 0 0 0 0 .4 0"/><feOffset dx="4.0" dy="4.0" in="blurOut2" result="blurOut3"/><feBlend in="SourceGraphic" in2="blurOut3" mode="normal"/></filter></defs><g><!--MD5=[dd79c4efb9b69e19d52a8aac64eb4f51]
class NonRegisteredUser--><rect codeLine="5" fill="#FEFECE" filter="url(#f16ot32j82ul2c)" height="40" id="NonRegisteredUser" style="stroke:#A80036;stroke-width:1.5;" width="150" x="7" y="86"/><ellipse cx="22" cy="102" fill="#ADD1B2" rx="11" ry="11" style="stroke:#A80036;stroke-width:1.0;"/><path d="M24.3438,97.6719 C23.4063,97.2344 22.8125,97.0938 21.9375,97.0938 C19.3125,97.0938 17.3125,99.1719 17.3125,101.8906 L17.3125,103.0156 C17.3125,105.5938 19.4219,107.4844 22.3125,107.4844 C23.5313,107.4844 24.6875,107.1875 25.4375,106.6406 C26.0156,106.2344 26.3438,105.7813 26.3438,105.3906 C26.3438,104.9375 25.9531,104.5469 25.4844,104.5469 C25.2656,104.5469 25.0625,104.625 24.875,104.8125 C24.4219,105.2969 24.4219,105.2969 24.2344,105.3906 C23.8125,105.6563 23.125,105.7813 22.3594,105.7813 C20.3125,105.7813 19.0156,104.6875 19.0156,102.9844 L19.0156,101.8906 C19.0156,100.1094 20.2656,98.7969 22,98.7969 C22.5781,98.7969 23.1875,98.9531 23.6563,99.2031 C24.1406,99.4844 24.3125,99.7031 24.4063,100.1094 C24.4688,100.5156 24.5,100.6406 24.6406,100.7656 C24.7813,100.9063 25.0156,101.0156 25.2344,101.0156 C25.5,101.0156 25.7656,100.875 25.9375,100.6563 C26.0469,100.5 26.0781,100.3125 26.0781,99.8906 L26.0781,98.4688 C26.0781,98.0313 26.0625,97.9063 25.9688,97.75 C25.8125,97.4844 25.5313,97.3438 25.2344,97.3438 C24.9375,97.3438 24.7344,97.4375 24.5156,97.75 L24.3438,97.6719 Z " fill="#000000"/><text fill="#000000" font-family="sans-serif" font-size="12" lengthAdjust="spacingAndGlyphs" textLength="118" x="36" y="106.1543">NonRegisteredUser</text><line style="stroke:#A80036;stroke-width:1.5;" x1="8" x2="156" y1="118" y2="118"/><!--MD5=[ed6624c6556d5e7b1bd23032162d20b7]
class Client--><rect codeLine="8" fill="#FEFECE" filter="url(#f16ot32j82ul2c)" height="104.0234" id="Client" style="stroke:#A80036;stroke-width:1.5;" width="106" x="291" y="54"/><ellipse cx="324.45" cy="70" fill="#ADD1B2" rx="11" ry="11" style="stroke:#A80036;stroke-width:1.0;"/><path d="M326.7938,65.6719 C325.8563,65.2344 325.2625,65.0938 324.3875,65.0938 C321.7625,65.0938 319.7625,67.1719 319.7625,69.8906 L319.7625,71.0156 C319.7625,73.5938 321.8719,75.4844 324.7625,75.4844 C325.9813,75.4844 327.1375,75.1875 327.8875,74.6406 C328.4656,74.2344 328.7938,73.7813 328.7938,73.3906 C328.7938,72.9375 328.4031,72.5469 327.9344,72.5469 C327.7156,72.5469 327.5125,72.625 327.325,72.8125 C326.8719,73.2969 326.8719,73.2969 326.6844,73.3906 C326.2625,73.6563 325.575,73.7813 324.8094,73.7813 C322.7625,73.7813 321.4656,72.6875 321.4656,70.9844 L321.4656,69.8906 C321.4656,68.1094 322.7156,66.7969 324.45,66.7969 C325.0281,66.7969 325.6375,66.9531 326.1063,67.2031 C326.5906,67.4844 326.7625,67.7031 326.8563,68.1094 C326.9188,68.5156 326.95,68.6406 327.0906,68.7656 C327.2313,68.9063 327.4656,69.0156 327.6844,69.0156 C327.95,69.0156 328.2156,68.875 328.3875,68.6563 C328.4969,68.5 328.5281,68.3125 328.5281,67.8906 L328.5281,66.4688 C328.5281,66.0313 328.5125,65.9063 328.4188,65.75 C328.2625,65.4844 327.9813,65.3438 327.6844,65.3438 C327.3875,65.3438 327.1844,65.4375 326.9656,65.75 L326.7938,65.6719 Z " fill="#000000"/><text fill="#000000" font-family="sans-serif" font-size="12" lengthAdjust="spacingAndGlyphs" textLength="33" x="342.55" y="74.1543">Client</text><line style="stroke:#A80036;stroke-width:1.5;" x1="292" x2="396" y1="86" y2="86"/><text fill="#000000" font-family="sans-serif" font-size="11" lengthAdjust="spacingAndGlyphs" textLength="74" x="297" y="100.2104">-String name</text><text fill="#000000" font-family="sans-serif" font-size="11" lengthAdjust="spacingAndGlyphs" textLength="73" x="297" y="113.0151">-String email</text><text fill="#000000" font-family="sans-serif" font-size="11" lengthAdjust="spacingAndGlyphs" textLength="55" x="297" y="125.8198">-String nif</text><text fill="#000000" font-family="sans-serif" font-size="11" lengthAdjust="spacingAndGlyphs" textLength="94" x="297" y="138.6245">-String password</text><text fill="#000000" font-family="sans-serif" font-size="11" lengthAdjust="spacingAndGlyphs" textLength="60" x="297" y="151.4292">-int credits</text><!--MD5=[0f39e4cb6f03951afbf6d14bd2505654]
class Address--><rect codeLine="17" fill="#FEFECE" filter="url(#f16ot32j82ul2c)" height="78.4141" id="Address" style="stroke:#A80036;stroke-width:1.5;" width="112" x="503" y="7"/><ellipse cx="531.05" cy="23" fill="#ADD1B2" rx="11" ry="11" style="stroke:#A80036;stroke-width:1.0;"/><path d="M533.3938,18.6719 C532.4563,18.2344 531.8625,18.0938 530.9875,18.0938 C528.3625,18.0938 526.3625,20.1719 526.3625,22.8906 L526.3625,24.0156 C526.3625,26.5938 528.4719,28.4844 531.3625,28.4844 C532.5813,28.4844 533.7375,28.1875 534.4875,27.6406 C535.0656,27.2344 535.3938,26.7813 535.3938,26.3906 C535.3938,25.9375 535.0031,25.5469 534.5344,25.5469 C534.3156,25.5469 534.1125,25.625 533.925,25.8125 C533.4719,26.2969 533.4719,26.2969 533.2844,26.3906 C532.8625,26.6563 532.175,26.7813 531.4094,26.7813 C529.3625,26.7813 528.0656,25.6875 528.0656,23.9844 L528.0656,22.8906 C528.0656,21.1094 529.3156,19.7969 531.05,19.7969 C531.6281,19.7969 532.2375,19.9531 532.7063,20.2031 C533.1906,20.4844 533.3625,20.7031 533.4563,21.1094 C533.5188,21.5156 533.55,21.6406 533.6906,21.7656 C533.8313,21.9063 534.0656,22.0156 534.2844,22.0156 C534.55,22.0156 534.8156,21.875 534.9875,21.6563 C535.0969,21.5 535.1281,21.3125 535.1281,20.8906 L535.1281,19.4688 C535.1281,19.0313 535.1125,18.9063 535.0188,18.75 C534.8625,18.4844 534.5813,18.3438 534.2844,18.3438 C533.9875,18.3438 533.7844,18.4375 533.5656,18.75 L533.3938,18.6719 Z " fill="#000000"/><text fill="#000000" font-family="sans-serif" font-size="12" lengthAdjust="spacingAndGlyphs" textLength="51" x="547.95" y="27.1543">Address</text><line style="stroke:#A80036;stroke-width:1.5;" x1="504" x2="614" y1="39" y2="39"/><text fill="#000000" font-family="sans-serif" font-size="11" lengthAdjust="spacingAndGlyphs" textLength="90" x="509" y="53.2104">-double latitude</text><text fill="#000000" font-family="sans-serif" font-size="11" lengthAdjust="spacingAndGlyphs" textLength="100" x="509" y="66.0151">-double longitude</text><text fill="#000000" font-family="sans-serif" font-size="11" lengthAdjust="spacingAndGlyphs" textLength="75" x="509" y="78.8198">-String street</text><!--MD5=[91d4151b6d4c9a3d01b6d84b2458eece]
class CreditCard--><rect codeLine="23" fill="#FEFECE" filter="url(#f16ot32j82ul2c)" height="91.2188" id="CreditCard" style="stroke:#A80036;stroke-width:1.5;" width="126" x="496" y="120.5"/><ellipse cx="524.5" cy="136.5" fill="#ADD1B2" rx="11" ry="11" style="stroke:#A80036;stroke-width:1.0;"/><path d="M526.8438,132.1719 C525.9063,131.7344 525.3125,131.5938 524.4375,131.5938 C521.8125,131.5938 519.8125,133.6719 519.8125,136.3906 L519.8125,137.5156 C519.8125,140.0938 521.9219,141.9844 524.8125,141.9844 C526.0313,141.9844 527.1875,141.6875 527.9375,141.1406 C528.5156,140.7344 528.8438,140.2813 528.8438,139.8906 C528.8438,139.4375 528.4531,139.0469 527.9844,139.0469 C527.7656,139.0469 527.5625,139.125 527.375,139.3125 C526.9219,139.7969 526.9219,139.7969 526.7344,139.8906 C526.3125,140.1563 525.625,140.2813 524.8594,140.2813 C522.8125,140.2813 521.5156,139.1875 521.5156,137.4844 L521.5156,136.3906 C521.5156,134.6094 522.7656,133.2969 524.5,133.2969 C525.0781,133.2969 525.6875,133.4531 526.1563,133.7031 C526.6406,133.9844 526.8125,134.2031 526.9063,134.6094 C526.9688,135.0156 527,135.1406 527.1406,135.2656 C527.2813,135.4063 527.5156,135.5156 527.7344,135.5156 C528,135.5156 528.2656,135.375 528.4375,135.1563 C528.5469,135 528.5781,134.8125 528.5781,134.3906 L528.5781,132.9688 C528.5781,132.5313 528.5625,132.4063 528.4688,132.25 C528.3125,131.9844 528.0313,131.8438 527.7344,131.8438 C527.4375,131.8438 527.2344,131.9375 527.0156,132.25 L526.8438,132.1719 Z " fill="#000000"/><text fill="#000000" font-family="sans-serif" font-size="12" lengthAdjust="spacingAndGlyphs" textLength="64" x="541.5" y="140.6543">CreditCard</text><line style="stroke:#A80036;stroke-width:1.5;" x1="497" x2="621" y1="152.5" y2="152.5"/><text fill="#000000" font-family="sans-serif" font-size="11" lengthAdjust="spacingAndGlyphs" textLength="66" x="502" y="166.7104">-int number</text><text fill="#000000" font-family="sans-serif" font-size="11" lengthAdjust="spacingAndGlyphs" textLength="114" x="502" y="179.5151">-int monthExpiration</text><text fill="#000000" font-family="sans-serif" font-size="11" lengthAdjust="spacingAndGlyphs" textLength="104" x="502" y="192.3198">-int yearExpiration</text><text fill="#000000" font-family="sans-serif" font-size="11" lengthAdjust="spacingAndGlyphs" textLength="41" x="502" y="205.1245">-int ccv</text><!--MD5=[2fdb51727440d3b9968d00402374aeba]
link NonRegisteredUser to Client--><path codeLine="30" d="M157.158,106 C199.785,106 252.302,106 290.622,106 " fill="none" id="NonRegisteredUser-Client" style="stroke:#A80036;stroke-width:1.0;"/><polygon fill="#000000" points="197,97.5664,187.9549,94.6275,187.9549,100.5053,197,97.5664" style="stroke:#000000;stroke-width:1.0;"/><text fill="#000000" font-family="sans-serif" font-size="13" lengthAdjust="spacingAndGlyphs" textLength="59" x="201" y="102.0669">Becomes</text><text fill="#000000" font-family="sans-serif" font-size="13" lengthAdjust="spacingAndGlyphs" textLength="8" x="164.9501" y="118.8117">1</text><text fill="#000000" font-family="sans-serif" font-size="13" lengthAdjust="spacingAndGlyphs" textLength="8" x="274.9118" y="119.0821">1</text><!--MD5=[bd708f2371c655af07b49ddbdb30848a]
link Client to Address--><path codeLine="31" d="M397.106,91.322 C429.127,82.302 470.118,70.756 502.71,61.575 " fill="none" id="Client-Address" style="stroke:#A80036;stroke-width:1.0;"/><polygon fill="#000000" points="436.8127,63.2107,427.3096,62.8343,428.9033,68.492,436.8127,63.2107" style="stroke:#000000;stroke-width:1.0;"/><text fill="#000000" font-family="sans-serif" font-size="13" lengthAdjust="spacingAndGlyphs" textLength="24" x="441" y="69.0669">Has</text><text fill="#000000" font-family="sans-serif" font-size="13" lengthAdjust="spacingAndGlyphs" textLength="8" x="405.1365" y="102.3872">1</text><text fill="#000000" font-family="sans-serif" font-size="13" lengthAdjust="spacingAndGlyphs" textLength="8" x="486.9853" y="76.5804">1</text><!--MD5=[0748050afd2139cbb3c9faec3f892ae9]
link Client to CreditCard--><path codeLine="32" d="M397.106,120.6777 C426.911,129.0734 464.485,139.6577 495.826,148.4861 " fill="none" id="Client-CreditCard" style="stroke:#A80036;stroke-width:1.0;"/><polygon fill="#000000" points="436.8127,122.9221,428.9033,117.6408,427.3096,123.2985,436.8127,122.9221" style="stroke:#000000;stroke-width:1.0;"/><text fill="#000000" font-family="sans-serif" font-size="13" lengthAdjust="spacingAndGlyphs" textLength="24" x="441" y="126.0669">Has</text><text fill="#000000" font-family="sans-serif" font-size="13" lengthAdjust="spacingAndGlyphs" textLength="8" x="405.1365" y="135.871">1</text><text fill="#000000" font-family="sans-serif" font-size="13" lengthAdjust="spacingAndGlyphs" textLength="8" x="480.059" y="159.3902">1</text><!--MD5=[aa42ff4b1789fdf5dd0555c04c3a7a9c]
@startuml
skinparam classAttributeIconSize 0
hide methods
left to right direction

class NonRegisteredUser {
}

class Client {
  -String name
  -String email
  -String nif
  -String password
  -int credits
}


class Address {
  -double latitude
  -double longitude
  -String street
}

class CreditCard {
  -int number
  -int monthExpiration
  -int yearExpiration
  -int ccv
}

NonRegisteredUser "1" - - "1" Client: Becomes >
Client "1" - - "1" Address: Has >
Client "1" - - "1" CreditCard: Has >
@enduml

PlantUML version 1.2020.27beta4(Unknown compile time)
(GPL source distribution)
Java Runtime: Java(TM) SE Runtime Environment
JVM: Java HotSpot(TM) 64-Bit Server VM
Default Encoding: UTF-8
Language: en
Country: US
--></g></svg>