<?xml version="1.0" encoding="UTF-8" standalone="no"?><svg xmlns="http://www.w3.org/2000/svg" xmlns:xlink="http://www.w3.org/1999/xlink" contentScriptType="application/ecmascript" contentStyleType="text/css" height="82px" preserveAspectRatio="none" style="width:142px;height:82px;" version="1.1" viewBox="0 0 142 82" width="142px" zoomAndPan="magnify"><defs><filter height="300%" id="fs7guzdxqnrrw" width="300%" x="-1" y="-1"><feGaussianBlur result="blurOut" stdDeviation="2.0"/><feColorMatrix in="blurOut" result="blurOut2" type="matrix" values="0 0 0 0 0 0 0 0 0 0 0 0 0 0 0 0 0 0 .4 0"/><feOffset dx="4.0" dy="4.0" in="blurOut2" result="blurOut3"/><feBlend in="SourceGraphic" in2="blurOut3" mode="normal"/></filter></defs><g><!--MD5=[04f26a29428078a1ed80c034ba7fd820]
class ClientUI--><rect codeLine="4" fill="#FEFECE" filter="url(#fs7guzdxqnrrw)" height="61.8359" id="ClientUI" style="stroke: #A80036; stroke-width: 1.5;" width="121" x="7" y="7"/><ellipse cx="42.25" cy="23" fill="#ADD1B2" rx="11" ry="11" style="stroke: #A80036; stroke-width: 1.0;"/><path d="M44.25,19.5 Q44.4531,19 44.6875,18.75 Q44.9219,18.5 45.1875,18.5 Q45.6563,18.5 45.9531,18.7813 Q46.25,19.0625 46.25,19.7188 L46.25,21.2813 Q46.25,21.9375 45.9688,22.2188 Q45.6875,22.5 45.25,22.5 Q44.8594,22.5 44.6094,22.3281 Q44.3594,22.1563 44.25,21.7031 Q44.2031,21.3906 44.0313,21.2188 Q43.7188,20.8906 43.1563,20.7031 Q42.5938,20.5 42.0313,20.5 Q41.3281,20.5 40.7344,20.7813 Q40.1563,21.0625 39.7031,21.6875 Q39.25,22.3125 39.25,23.1719 L39.25,24.0938 Q39.25,25.125 40.0938,25.8125 Q40.9375,26.5 42.4375,26.5 Q43.3281,26.5 43.9531,26.2969 Q44.3125,26.1875 44.7188,25.8281 Q44.9844,25.625 45.125,25.5625 Q45.2656,25.5 45.4375,25.5 Q45.7656,25.5 46,25.7656 Q46.25,26.0156 46.25,26.375 Q46.25,26.7188 45.9063,27.125 Q45.4063,27.7188 44.6094,28.0469 Q43.5625,28.5 42.2813,28.5 Q40.7813,28.5 39.5781,27.9063 Q38.6094,27.4375 37.9219,26.4219 Q37.25,25.4063 37.25,24.2031 L37.25,23.1094 Q37.25,21.8594 37.8438,20.7656 Q38.4531,19.6719 39.5,19.0938 Q40.5625,18.5 41.75,18.5 Q42.4688,18.5 43.0938,18.75 Q43.7188,19 44.25,19.5 Z "/><text fill="#000000" font-family="sans-serif" font-size="12" lengthAdjust="spacingAndGlyphs" textLength="44" x="60.75" y="27.9102">ClientUI</text><line style="stroke: #A80036; stroke-width: 1.5;" x1="8" x2="127" y1="39" y2="39"/><line style="stroke: #A80036; stroke-width: 1.5;" x1="8" x2="127" y1="47" y2="47"/><text fill="#000000" font-family="sans-serif" font-size="11" lengthAdjust="spacingAndGlyphs" textLength="109" x="13" y="62.4189">removesProds(prodID)</text><!--MD5=[a00d93bbe5ee29c0a6ad89beac1b2774]
@startuml
skinparam classAttributeIconSize 0


class ClientUI {
removesProds(prodID)
}



@enduml

PlantUML version 1.2020.19(Mon Oct 12 16:10:01 BST 2020)
(GPL source distribution)
Java Runtime: OpenJDK Runtime Environment
JVM: OpenJDK 64-Bit Server VM
Default Encoding: Cp1252
Language: pt
Country: PT
--></g></svg>