<?xml version="1.0" encoding="UTF-8" standalone="no"?><svg xmlns="http://www.w3.org/2000/svg" xmlns:xlink="http://www.w3.org/1999/xlink" contentScriptType="application/ecmascript" contentStyleType="text/css" height="238px" preserveAspectRatio="none" style="width:613px;height:238px;" version="1.1" viewBox="0 0 613 238" width="613px" zoomAndPan="magnify"><defs><filter height="300%" id="f1ra6c2sjpev4u" width="300%" x="-1" y="-1"><feGaussianBlur result="blurOut" stdDeviation="2.0"/><feColorMatrix in="blurOut" result="blurOut2" type="matrix" values="0 0 0 0 0 0 0 0 0 0 0 0 0 0 0 0 0 0 .4 0"/><feOffset dx="4.0" dy="4.0" in="blurOut2" result="blurOut3"/><feBlend in="SourceGraphic" in2="blurOut3" mode="normal"/></filter></defs><g><!--MD5=[c6a2171c11447acbe08a3dfeee0e1710]
class Courier--><rect codeLine="5" fill="#FEFECE" filter="url(#f1ra6c2sjpev4u)" height="78.4141" id="Courier" style="stroke:#A80036;stroke-width:1.5;" width="173" x="236" y="7"/><ellipse cx="296.25" cy="23" fill="#ADD1B2" rx="11" ry="11" style="stroke:#A80036;stroke-width:1.0;"/><path d="M298.5938,18.6719 C297.6563,18.2344 297.0625,18.0938 296.1875,18.0938 C293.5625,18.0938 291.5625,20.1719 291.5625,22.8906 L291.5625,24.0156 C291.5625,26.5938 293.6719,28.4844 296.5625,28.4844 C297.7813,28.4844 298.9375,28.1875 299.6875,27.6406 C300.2656,27.2344 300.5938,26.7813 300.5938,26.3906 C300.5938,25.9375 300.2031,25.5469 299.7344,25.5469 C299.5156,25.5469 299.3125,25.625 299.125,25.8125 C298.6719,26.2969 298.6719,26.2969 298.4844,26.3906 C298.0625,26.6563 297.375,26.7813 296.6094,26.7813 C294.5625,26.7813 293.2656,25.6875 293.2656,23.9844 L293.2656,22.8906 C293.2656,21.1094 294.5156,19.7969 296.25,19.7969 C296.8281,19.7969 297.4375,19.9531 297.9063,20.2031 C298.3906,20.4844 298.5625,20.7031 298.6563,21.1094 C298.7188,21.5156 298.75,21.6406 298.8906,21.7656 C299.0313,21.9063 299.2656,22.0156 299.4844,22.0156 C299.75,22.0156 300.0156,21.875 300.1875,21.6563 C300.2969,21.5 300.3281,21.3125 300.3281,20.8906 L300.3281,19.4688 C300.3281,19.0313 300.3125,18.9063 300.2188,18.75 C300.0625,18.4844 299.7813,18.3438 299.4844,18.3438 C299.1875,18.3438 298.9844,18.4375 298.7656,18.75 L298.5938,18.6719 Z " fill="#000000"/><text fill="#000000" font-family="sans-serif" font-size="12" lengthAdjust="spacingAndGlyphs" textLength="44" x="316.75" y="27.1543">Courier</text><line style="stroke:#A80036;stroke-width:1.5;" x1="237" x2="408" y1="39" y2="39"/><text fill="#000000" font-family="sans-serif" font-size="11" lengthAdjust="spacingAndGlyphs" textLength="74" x="242" y="53.2104">-String name</text><text fill="#000000" font-family="sans-serif" font-size="11" lengthAdjust="spacingAndGlyphs" textLength="73" x="242" y="66.0151">-String email</text><text fill="#000000" font-family="sans-serif" font-size="11" lengthAdjust="spacingAndGlyphs" textLength="161" x="242" y="78.8198">-double maxWeightCapacity</text><!--MD5=[7f2a9fafcebe4f099f71398fd3e2ed00]
class Pharmacy--><rect codeLine="11" fill="#FEFECE" filter="url(#f1ra6c2sjpev4u)" height="78.4141" id="Pharmacy" style="stroke:#A80036;stroke-width:1.5;" width="130" x="7" y="88"/><ellipse cx="40.45" cy="104" fill="#ADD1B2" rx="11" ry="11" style="stroke:#A80036;stroke-width:1.0;"/><path d="M42.7938,99.6719 C41.8563,99.2344 41.2625,99.0938 40.3875,99.0938 C37.7625,99.0938 35.7625,101.1719 35.7625,103.8906 L35.7625,105.0156 C35.7625,107.5938 37.8719,109.4844 40.7625,109.4844 C41.9813,109.4844 43.1375,109.1875 43.8875,108.6406 C44.4656,108.2344 44.7938,107.7813 44.7938,107.3906 C44.7938,106.9375 44.4031,106.5469 43.9344,106.5469 C43.7156,106.5469 43.5125,106.625 43.325,106.8125 C42.8719,107.2969 42.8719,107.2969 42.6844,107.3906 C42.2625,107.6563 41.575,107.7813 40.8094,107.7813 C38.7625,107.7813 37.4656,106.6875 37.4656,104.9844 L37.4656,103.8906 C37.4656,102.1094 38.7156,100.7969 40.45,100.7969 C41.0281,100.7969 41.6375,100.9531 42.1063,101.2031 C42.5906,101.4844 42.7625,101.7031 42.8563,102.1094 C42.9188,102.5156 42.95,102.6406 43.0906,102.7656 C43.2313,102.9063 43.4656,103.0156 43.6844,103.0156 C43.95,103.0156 44.2156,102.875 44.3875,102.6563 C44.4969,102.5 44.5281,102.3125 44.5281,101.8906 L44.5281,100.4688 C44.5281,100.0313 44.5125,99.9063 44.4188,99.75 C44.2625,99.4844 43.9813,99.3438 43.6844,99.3438 C43.3875,99.3438 43.1844,99.4375 42.9656,99.75 L42.7938,99.6719 Z " fill="#000000"/><text fill="#000000" font-family="sans-serif" font-size="12" lengthAdjust="spacingAndGlyphs" textLength="57" x="58.55" y="108.1543">Pharmacy</text><line style="stroke:#A80036;stroke-width:1.5;" x1="8" x2="136" y1="120" y2="120"/><text fill="#000000" font-family="sans-serif" font-size="11" lengthAdjust="spacingAndGlyphs" textLength="51" x="13" y="134.2104">-String id</text><text fill="#000000" font-family="sans-serif" font-size="11" lengthAdjust="spacingAndGlyphs" textLength="74" x="13" y="147.0151">-String name</text><text fill="#000000" font-family="sans-serif" font-size="11" lengthAdjust="spacingAndGlyphs" textLength="118" x="13" y="159.8198">-int quantityScooters</text><!--MD5=[d1eeb527b96f439f56c6bd12ac0dd707]
class Park--><rect codeLine="18" fill="#FEFECE" filter="url(#f1ra6c2sjpev4u)" height="104.0234" id="Park" style="stroke:#A80036;stroke-width:1.5;" width="154" x="245.5" y="120"/><ellipse cx="305.75" cy="136" fill="#ADD1B2" rx="11" ry="11" style="stroke:#A80036;stroke-width:1.0;"/><path d="M308.0938,131.6719 C307.1563,131.2344 306.5625,131.0938 305.6875,131.0938 C303.0625,131.0938 301.0625,133.1719 301.0625,135.8906 L301.0625,137.0156 C301.0625,139.5938 303.1719,141.4844 306.0625,141.4844 C307.2813,141.4844 308.4375,141.1875 309.1875,140.6406 C309.7656,140.2344 310.0938,139.7813 310.0938,139.3906 C310.0938,138.9375 309.7031,138.5469 309.2344,138.5469 C309.0156,138.5469 308.8125,138.625 308.625,138.8125 C308.1719,139.2969 308.1719,139.2969 307.9844,139.3906 C307.5625,139.6563 306.875,139.7813 306.1094,139.7813 C304.0625,139.7813 302.7656,138.6875 302.7656,136.9844 L302.7656,135.8906 C302.7656,134.1094 304.0156,132.7969 305.75,132.7969 C306.3281,132.7969 306.9375,132.9531 307.4063,133.2031 C307.8906,133.4844 308.0625,133.7031 308.1563,134.1094 C308.2188,134.5156 308.25,134.6406 308.3906,134.7656 C308.5313,134.9063 308.7656,135.0156 308.9844,135.0156 C309.25,135.0156 309.5156,134.875 309.6875,134.6563 C309.7969,134.5 309.8281,134.3125 309.8281,133.8906 L309.8281,132.4688 C309.8281,132.0313 309.8125,131.9063 309.7188,131.75 C309.5625,131.4844 309.2813,131.3438 308.9844,131.3438 C308.6875,131.3438 308.4844,131.4375 308.2656,131.75 L308.0938,131.6719 Z " fill="#000000"/><text fill="#000000" font-family="sans-serif" font-size="12" lengthAdjust="spacingAndGlyphs" textLength="25" x="326.25" y="140.1543">Park</text><line style="stroke:#A80036;stroke-width:1.5;" x1="246.5" x2="398.5" y1="152" y2="152"/><text fill="#000000" font-family="sans-serif" font-size="11" lengthAdjust="spacingAndGlyphs" textLength="51" x="251.5" y="166.2104">-String id</text><text fill="#000000" font-family="sans-serif" font-size="11" lengthAdjust="spacingAndGlyphs" textLength="96" x="251.5" y="179.0151">-int maxCapacity</text><text fill="#000000" font-family="sans-serif" font-size="11" lengthAdjust="spacingAndGlyphs" textLength="105" x="251.5" y="191.8198">-int actualCapacity</text><text fill="#000000" font-family="sans-serif" font-size="11" lengthAdjust="spacingAndGlyphs" textLength="133" x="251.5" y="204.6245">-int maxChargingPlaces</text><text fill="#000000" font-family="sans-serif" font-size="11" lengthAdjust="spacingAndGlyphs" textLength="142" x="251.5" y="217.4292">-int actualChargingPlaces</text><!--MD5=[fff5db4abcb6eec6574b9ea9c3ee0eae]
class Delivery--><rect fill="#FEFECE" filter="url(#f1ra6c2sjpev4u)" height="40" id="Delivery" style="stroke:#A80036;stroke-width:1.5;" width="82" x="517" y="26"/><ellipse cx="532" cy="42" fill="#ADD1B2" rx="11" ry="11" style="stroke:#A80036;stroke-width:1.0;"/><path d="M534.3438,37.6719 C533.4063,37.2344 532.8125,37.0938 531.9375,37.0938 C529.3125,37.0938 527.3125,39.1719 527.3125,41.8906 L527.3125,43.0156 C527.3125,45.5938 529.4219,47.4844 532.3125,47.4844 C533.5313,47.4844 534.6875,47.1875 535.4375,46.6406 C536.0156,46.2344 536.3438,45.7813 536.3438,45.3906 C536.3438,44.9375 535.9531,44.5469 535.4844,44.5469 C535.2656,44.5469 535.0625,44.625 534.875,44.8125 C534.4219,45.2969 534.4219,45.2969 534.2344,45.3906 C533.8125,45.6563 533.125,45.7813 532.3594,45.7813 C530.3125,45.7813 529.0156,44.6875 529.0156,42.9844 L529.0156,41.8906 C529.0156,40.1094 530.2656,38.7969 532,38.7969 C532.5781,38.7969 533.1875,38.9531 533.6563,39.2031 C534.1406,39.4844 534.3125,39.7031 534.4063,40.1094 C534.4688,40.5156 534.5,40.6406 534.6406,40.7656 C534.7813,40.9063 535.0156,41.0156 535.2344,41.0156 C535.5,41.0156 535.7656,40.875 535.9375,40.6563 C536.0469,40.5 536.0781,40.3125 536.0781,39.8906 L536.0781,38.4688 C536.0781,38.0313 536.0625,37.9063 535.9688,37.75 C535.8125,37.4844 535.5313,37.3438 535.2344,37.3438 C534.9375,37.3438 534.7344,37.4375 534.5156,37.75 L534.3438,37.6719 Z " fill="#000000"/><text fill="#000000" font-family="sans-serif" font-size="12" lengthAdjust="spacingAndGlyphs" textLength="50" x="546" y="46.1543">Delivery</text><line style="stroke:#A80036;stroke-width:1.5;" x1="518" x2="598" y1="58" y2="58"/><!--MD5=[0ae4e3be80761dbc176b3d01b8ab98e4]
link Pharmacy to Park--><path codeLine="30" d="M137.318,138.6471 C170.25,144.6107 210.568,151.9118 245.078,158.1609 " fill="none" id="Pharmacy-Park" style="stroke:#A80036;stroke-width:1.0;"/><polygon fill="#000000" points="176.92,136.4573,168.5433,131.9537,167.496,137.7375,176.92,136.4573" style="stroke:#000000;stroke-width:1.0;"/><text fill="#000000" font-family="sans-serif" font-size="13" lengthAdjust="spacingAndGlyphs" textLength="24" x="181" y="140.0669">Has</text><text fill="#000000" font-family="sans-serif" font-size="13" lengthAdjust="spacingAndGlyphs" textLength="8" x="144.8997" y="152.7928">1</text><text fill="#000000" font-family="sans-serif" font-size="13" lengthAdjust="spacingAndGlyphs" textLength="8" x="229.5719" y="169.6485">1</text><!--MD5=[0643aaab1f96e564b90d0ad5c3af18e6]
link Pharmacy to Courier--><path codeLine="31" d="M137.318,106.035 C167.374,96.238 203.582,84.436 235.912,73.898 " fill="none" id="Pharmacy-Courier" style="stroke:#A80036;stroke-width:1.0;"/><polygon fill="#000000" points="176.7538,74.0169,167.2433,74.0258,169.0649,79.6142,176.7538,74.0169" style="stroke:#000000;stroke-width:1.0;"/><text fill="#000000" font-family="sans-serif" font-size="13" lengthAdjust="spacingAndGlyphs" textLength="24" x="181" y="80.0669">Has</text><text fill="#000000" font-family="sans-serif" font-size="13" lengthAdjust="spacingAndGlyphs" textLength="8" x="144.8997" y="116.6138">1</text><text fill="#000000" font-family="sans-serif" font-size="13" lengthAdjust="spacingAndGlyphs" textLength="16" x="212.0789" y="88.8846">1..</text><!--MD5=[7471b15d97b16c1e8744ea00ac81bc31]
link Courier to Delivery--><path codeLine="35" d="M409.121,46 C445.956,46 487.25,46 516.82,46 " fill="none" id="Courier-Delivery" style="stroke:#A80036;stroke-width:1.0;"/><polygon fill="#000000" points="449,37.5664,439.9549,34.6275,439.9549,40.5053,449,37.5664" style="stroke:#000000;stroke-width:1.0;"/><text fill="#000000" font-family="sans-serif" font-size="13" lengthAdjust="spacingAndGlyphs" textLength="33" x="453" y="42.0669">Does</text><text fill="#000000" font-family="sans-serif" font-size="13" lengthAdjust="spacingAndGlyphs" textLength="8" x="416.9087" y="58.6993">1</text><text fill="#000000" font-family="sans-serif" font-size="13" lengthAdjust="spacingAndGlyphs" textLength="8" x="501.0547" y="59.3674">1</text><!--MD5=[2f715e38dc8c7fcb924be5e215fcb0cc]
@startuml
skinparam classAttributeIconSize 0
hide methods
left to right direction

class Courier {
  -String name
  -String email
  -double maxWeightCapacity
}

class Pharmacy {
  -String id
  -String name
  -int quantityScooters
  }


class Park {
  -String id
  -int maxCapacity
  -int actualCapacity
  -int maxChargingPlaces
  -int actualChargingPlaces
}





Pharmacy "1" - - "1" Park: Has >
Pharmacy "1" - - "1.." Courier: Has >



Courier "1" - - "1" Delivery: Does >
@enduml

PlantUML version 1.2020.27beta5(Unknown compile time)
(GPL source distribution)
Java Runtime: Java(TM) SE Runtime Environment
JVM: Java HotSpot(TM) 64-Bit Server VM
Default Encoding: UTF-8
Language: en
Country: US
--></g></svg>