<?xml version="1.0" encoding="UTF-8" standalone="no"?><svg xmlns="http://www.w3.org/2000/svg" xmlns:xlink="http://www.w3.org/1999/xlink" contentScriptType="application/ecmascript" contentStyleType="text/css" height="425px" preserveAspectRatio="none" style="width:634px;height:425px;" version="1.1" viewBox="0 0 634 425" width="634px" zoomAndPan="magnify"><defs><filter height="300%" id="fuy4k26rqd4z3" width="300%" x="-1" y="-1"><feGaussianBlur result="blurOut" stdDeviation="2.0"/><feColorMatrix in="blurOut" result="blurOut2" type="matrix" values="0 0 0 0 0 0 0 0 0 0 0 0 0 0 0 0 0 0 .4 0"/><feOffset dx="4.0" dy="4.0" in="blurOut2" result="blurOut3"/><feBlend in="SourceGraphic" in2="blurOut3" mode="normal"/></filter></defs><g><rect fill="#FFFFFF" filter="url(#fuy4k26rqd4z3)" height="225.0625" style="stroke:#A80036;stroke-width:1.0;" width="10" x="53" y="98.2969"/><rect fill="#FFFFFF" filter="url(#fuy4k26rqd4z3)" height="29.1328" style="stroke:#A80036;stroke-width:1.0;" width="10" x="581" y="119.4297"/><rect fill="#FFFFFF" filter="url(#fuy4k26rqd4z3)" height="29.1328" style="stroke:#A80036;stroke-width:1.0;" width="10" x="581" y="177.6953"/><rect fill="#FFFFFF" filter="url(#fuy4k26rqd4z3)" height="29.1328" style="stroke:#A80036;stroke-width:1.0;" width="10" x="581" y="235.9609"/><rect fill="#FFFFFF" filter="url(#fuy4k26rqd4z3)" height="29.1328" style="stroke:#A80036;stroke-width:1.0;" width="10" x="581" y="294.2266"/><line style="stroke:#A80036;stroke-width:1.0;stroke-dasharray:5.0,5.0;" x1="58" x2="58" y1="88.2969" y2="341.3594"/><line style="stroke:#A80036;stroke-width:1.0;stroke-dasharray:5.0,5.0;" x1="585.5" x2="585.5" y1="88.2969" y2="341.3594"/><text fill="#000000" font-family="sans-serif" font-size="14" lengthAdjust="spacing" textLength="100" x="5" y="84.9951">Administrator</text><ellipse cx="58" cy="15" fill="#FEFECE" filter="url(#fuy4k26rqd4z3)" rx="8" ry="8" style="stroke:#A80036;stroke-width:2.0;"/><path d="M58,23 L58,50 M45,31 L71,31 M58,50 L45,65 M58,50 L71,65 " fill="none" filter="url(#fuy4k26rqd4z3)" style="stroke:#A80036;stroke-width:2.0;"/><text fill="#000000" font-family="sans-serif" font-size="14" lengthAdjust="spacing" textLength="100" x="5" y="353.3545">Administrator</text><ellipse cx="58" cy="366.6563" fill="#FEFECE" filter="url(#fuy4k26rqd4z3)" rx="8" ry="8" style="stroke:#A80036;stroke-width:2.0;"/><path d="M58,374.6563 L58,401.6563 M45,382.6563 L71,382.6563 M58,401.6563 L45,416.6563 M58,401.6563 L71,416.6563 " fill="none" filter="url(#fuy4k26rqd4z3)" style="stroke:#A80036;stroke-width:2.0;"/><rect fill="#FEFECE" filter="url(#fuy4k26rqd4z3)" height="30.2969" style="stroke:#A80036;stroke-width:1.5;" width="73" x="547.5" y="53"/><text fill="#000000" font-family="sans-serif" font-size="14" lengthAdjust="spacing" textLength="59" x="554.5" y="72.9951">:System</text><rect fill="#FEFECE" filter="url(#fuy4k26rqd4z3)" height="30.2969" style="stroke:#A80036;stroke-width:1.5;" width="73" x="547.5" y="340.3594"/><text fill="#000000" font-family="sans-serif" font-size="14" lengthAdjust="spacing" textLength="59" x="554.5" y="360.3545">:System</text><rect fill="#FFFFFF" filter="url(#fuy4k26rqd4z3)" height="225.0625" style="stroke:#A80036;stroke-width:1.0;" width="10" x="53" y="98.2969"/><rect fill="#FFFFFF" filter="url(#fuy4k26rqd4z3)" height="29.1328" style="stroke:#A80036;stroke-width:1.0;" width="10" x="581" y="119.4297"/><rect fill="#FFFFFF" filter="url(#fuy4k26rqd4z3)" height="29.1328" style="stroke:#A80036;stroke-width:1.0;" width="10" x="581" y="177.6953"/><rect fill="#FFFFFF" filter="url(#fuy4k26rqd4z3)" height="29.1328" style="stroke:#A80036;stroke-width:1.0;" width="10" x="581" y="235.9609"/><rect fill="#FFFFFF" filter="url(#fuy4k26rqd4z3)" height="29.1328" style="stroke:#A80036;stroke-width:1.0;" width="10" x="581" y="294.2266"/><polygon fill="#A80036" points="569,115.4297,579,119.4297,569,123.4297,573,119.4297" style="stroke:#A80036;stroke-width:1.0;"/><line style="stroke:#A80036;stroke-width:1.0;" x1="63" x2="575" y1="119.4297" y2="119.4297"/><text fill="#000000" font-family="sans-serif" font-size="13" font-weight="bold" lengthAdjust="spacing" textLength="9" x="70" y="114.3638">1</text><text fill="#000000" font-family="sans-serif" font-size="13" lengthAdjust="spacing" textLength="253" x="83" y="114.3638">initiates the request of product restock.</text><polygon fill="#A80036" points="74,144.5625,64,148.5625,74,152.5625,70,148.5625" style="stroke:#A80036;stroke-width:1.0;"/><line style="stroke:#A80036;stroke-width:1.0;stroke-dasharray:2.0,2.0;" x1="68" x2="585" y1="148.5625" y2="148.5625"/><text fill="#000000" font-family="sans-serif" font-size="13" font-weight="bold" lengthAdjust="spacing" textLength="9" x="80" y="143.4966">2</text><text fill="#000000" font-family="sans-serif" font-size="13" lengthAdjust="spacing" textLength="160" x="93" y="143.4966">asks for the pharmacy id</text><polygon fill="#A80036" points="569,173.6953,579,177.6953,569,181.6953,573,177.6953" style="stroke:#A80036;stroke-width:1.0;"/><line style="stroke:#A80036;stroke-width:1.0;" x1="63" x2="575" y1="177.6953" y2="177.6953"/><text fill="#000000" font-family="sans-serif" font-size="13" font-weight="bold" lengthAdjust="spacing" textLength="8" x="70" y="172.6294">3</text><text fill="#000000" font-family="sans-serif" font-size="13" lengthAdjust="spacing" textLength="167" x="82" y="172.6294">writes the necessary data</text><polygon fill="#A80036" points="74,202.8281,64,206.8281,74,210.8281,70,206.8281" style="stroke:#A80036;stroke-width:1.0;"/><line style="stroke:#A80036;stroke-width:1.0;stroke-dasharray:2.0,2.0;" x1="68" x2="585" y1="206.8281" y2="206.8281"/><text fill="#000000" font-family="sans-serif" font-size="13" font-weight="bold" lengthAdjust="spacing" textLength="9" x="80" y="201.7622">4</text><text fill="#000000" font-family="sans-serif" font-size="13" lengthAdjust="spacing" textLength="408" x="93" y="201.7622">shows the restock list and asks for the id of the restock request</text><polygon fill="#A80036" points="569,231.9609,579,235.9609,569,239.9609,573,235.9609" style="stroke:#A80036;stroke-width:1.0;"/><line style="stroke:#A80036;stroke-width:1.0;" x1="63" x2="575" y1="235.9609" y2="235.9609"/><text fill="#000000" font-family="sans-serif" font-size="13" font-weight="bold" lengthAdjust="spacing" textLength="9" x="70" y="230.895">5</text><text fill="#000000" font-family="sans-serif" font-size="13" lengthAdjust="spacing" textLength="167" x="83" y="230.895">writes the necessary data</text><polygon fill="#A80036" points="74,261.0938,64,265.0938,74,269.0938,70,265.0938" style="stroke:#A80036;stroke-width:1.0;"/><line style="stroke:#A80036;stroke-width:1.0;stroke-dasharray:2.0,2.0;" x1="68" x2="585" y1="265.0938" y2="265.0938"/><text fill="#000000" font-family="sans-serif" font-size="13" font-weight="bold" lengthAdjust="spacing" textLength="9" x="80" y="260.0278">6</text><text fill="#000000" font-family="sans-serif" font-size="13" lengthAdjust="spacing" textLength="474" x="93" y="260.0278">the system asks the administrator to choose which energy path he wants</text><polygon fill="#A80036" points="569,290.2266,579,294.2266,569,298.2266,573,294.2266" style="stroke:#A80036;stroke-width:1.0;"/><line style="stroke:#A80036;stroke-width:1.0;" x1="63" x2="575" y1="294.2266" y2="294.2266"/><text fill="#000000" font-family="sans-serif" font-size="13" font-weight="bold" lengthAdjust="spacing" textLength="9" x="70" y="289.1606">7</text><text fill="#000000" font-family="sans-serif" font-size="13" lengthAdjust="spacing" textLength="176" x="83" y="289.1606">writes which path he wants</text><polygon fill="#A80036" points="69,319.3594,59,323.3594,69,327.3594,65,323.3594" style="stroke:#A80036;stroke-width:1.0;"/><line style="stroke:#A80036;stroke-width:1.0;stroke-dasharray:2.0,2.0;" x1="63" x2="585" y1="323.3594" y2="323.3594"/><text fill="#000000" font-family="sans-serif" font-size="13" font-weight="bold" lengthAdjust="spacing" textLength="9" x="75" y="318.2935">8</text><text fill="#000000" font-family="sans-serif" font-size="13" lengthAdjust="spacing" textLength="481" x="88" y="318.2935">the system makes the delivery based on the path the administrator choice</text><!--MD5=[1f65205eb5f97a4ead8e4434dadc002f]
@startuml
autonumber
actor "Administrator" as ADMIN
activate ADMIN
ADMIN-> ":System" : initiates the request of product restock.
activate ":System"
":System" - -> ADMIN : asks for the pharmacy id
deactivate ":System"

ADMIN -> ":System" : writes the necessary data
activate ":System"
":System" - -> ADMIN : shows the restock list and asks for the id of the restock request
deactivate ":System"

ADMIN -> ":System" : writes the necessary data
activate ":System"
":System" - -> ADMIN : the system asks the administrator to choose which energy path he wants
deactivate ":System"


ADMIN -> ":System" : writes which path he wants
activate ":System"
":System" - -> ADMIN : the system makes the delivery based on the path the administrator choice
deactivate ":System"

deactivate ADMIN
@enduml

PlantUML version 1.2021.01beta3(Unknown compile time)
(GPL source distribution)
Java Runtime: Java(TM) SE Runtime Environment
JVM: Java HotSpot(TM) 64-Bit Server VM
Default Encoding: UTF-8
Language: en
Country: US
--></g></svg>