<?xml version="1.0" encoding="UTF-8" standalone="no"?><svg xmlns="http://www.w3.org/2000/svg" xmlns:xlink="http://www.w3.org/1999/xlink" contentScriptType="application/ecmascript" contentStyleType="text/css" height="581px" preserveAspectRatio="none" style="width:654px;height:581px;" version="1.1" viewBox="0 0 654 581" width="654px" zoomAndPan="magnify"><defs><filter height="300%" id="f550gfqc7z13d" width="300%" x="-1" y="-1"><feGaussianBlur result="blurOut" stdDeviation="2.0"/><feColorMatrix in="blurOut" result="blurOut2" type="matrix" values="0 0 0 0 0 0 0 0 0 0 0 0 0 0 0 0 0 0 .4 0"/><feOffset dx="4.0" dy="4.0" in="blurOut2" result="blurOut3"/><feBlend in="SourceGraphic" in2="blurOut3" mode="normal"/></filter></defs><g><!--MD5=[fab1fe3817366609020ce246a39678c8]
class AddMedicineController--><rect codeLine="6" fill="#FEFECE" filter="url(#f550gfqc7z13d)" height="73.6094" id="AddMedicineController" style="stroke:#A80036;stroke-width:1.5;" width="353" x="287.5" y="116"/><ellipse cx="391.25" cy="132" fill="#ADD1B2" rx="11" ry="11" style="stroke:#A80036;stroke-width:1.0;"/><path d="M393.5938,127.6719 C392.6563,127.2344 392.0625,127.0938 391.1875,127.0938 C388.5625,127.0938 386.5625,129.1719 386.5625,131.8906 L386.5625,133.0156 C386.5625,135.5938 388.6719,137.4844 391.5625,137.4844 C392.7813,137.4844 393.9375,137.1875 394.6875,136.6406 C395.2656,136.2344 395.5938,135.7813 395.5938,135.3906 C395.5938,134.9375 395.2031,134.5469 394.7344,134.5469 C394.5156,134.5469 394.3125,134.625 394.125,134.8125 C393.6719,135.2969 393.6719,135.2969 393.4844,135.3906 C393.0625,135.6563 392.375,135.7813 391.6094,135.7813 C389.5625,135.7813 388.2656,134.6875 388.2656,132.9844 L388.2656,131.8906 C388.2656,130.1094 389.5156,128.7969 391.25,128.7969 C391.8281,128.7969 392.4375,128.9531 392.9063,129.2031 C393.3906,129.4844 393.5625,129.7031 393.6563,130.1094 C393.7188,130.5156 393.75,130.6406 393.8906,130.7656 C394.0313,130.9063 394.2656,131.0156 394.4844,131.0156 C394.75,131.0156 395.0156,130.875 395.1875,130.6563 C395.2969,130.5 395.3281,130.3125 395.3281,129.8906 L395.3281,128.4688 C395.3281,128.0313 395.3125,127.9063 395.2188,127.75 C395.0625,127.4844 394.7813,127.3438 394.4844,127.3438 C394.1875,127.3438 393.9844,127.4375 393.7656,127.75 L393.5938,127.6719 Z " fill="#000000"/><text fill="#000000" font-family="sans-serif" font-size="12" lengthAdjust="spacingAndGlyphs" textLength="137" x="411.75" y="136.1543">AddMedicineController</text><line style="stroke:#A80036;stroke-width:1.5;" x1="288.5" x2="639.5" y1="148" y2="148"/><line style="stroke:#A80036;stroke-width:1.5;" x1="288.5" x2="639.5" y1="156" y2="156"/><text fill="#000000" font-family="sans-serif" font-size="11" lengthAdjust="spacingAndGlyphs" textLength="341" x="293.5" y="170.2104">+setNewMedicineData (id, name, description, price, weight)</text><text fill="#000000" font-family="sans-serif" font-size="11" lengthAdjust="spacingAndGlyphs" textLength="112" x="293.5" y="183.0151">+registerMedicine()</text><!--MD5=[e7139adc9ceaf93b5c7f5db083e3bc83]
class AddMedicineUI--><rect codeLine="11" fill="#FEFECE" filter="url(#f550gfqc7z13d)" height="48" id="AddMedicineUI" style="stroke:#A80036;stroke-width:1.5;" width="122" x="403" y="7"/><ellipse cx="418" cy="23" fill="#ADD1B2" rx="11" ry="11" style="stroke:#A80036;stroke-width:1.0;"/><path d="M420.3438,18.6719 C419.4063,18.2344 418.8125,18.0938 417.9375,18.0938 C415.3125,18.0938 413.3125,20.1719 413.3125,22.8906 L413.3125,24.0156 C413.3125,26.5938 415.4219,28.4844 418.3125,28.4844 C419.5313,28.4844 420.6875,28.1875 421.4375,27.6406 C422.0156,27.2344 422.3438,26.7813 422.3438,26.3906 C422.3438,25.9375 421.9531,25.5469 421.4844,25.5469 C421.2656,25.5469 421.0625,25.625 420.875,25.8125 C420.4219,26.2969 420.4219,26.2969 420.2344,26.3906 C419.8125,26.6563 419.125,26.7813 418.3594,26.7813 C416.3125,26.7813 415.0156,25.6875 415.0156,23.9844 L415.0156,22.8906 C415.0156,21.1094 416.2656,19.7969 418,19.7969 C418.5781,19.7969 419.1875,19.9531 419.6563,20.2031 C420.1406,20.4844 420.3125,20.7031 420.4063,21.1094 C420.4688,21.5156 420.5,21.6406 420.6406,21.7656 C420.7813,21.9063 421.0156,22.0156 421.2344,22.0156 C421.5,22.0156 421.7656,21.875 421.9375,21.6563 C422.0469,21.5 422.0781,21.3125 422.0781,20.8906 L422.0781,19.4688 C422.0781,19.0313 422.0625,18.9063 421.9688,18.75 C421.8125,18.4844 421.5313,18.3438 421.2344,18.3438 C420.9375,18.3438 420.7344,18.4375 420.5156,18.75 L420.3438,18.6719 Z " fill="#000000"/><text fill="#000000" font-family="sans-serif" font-size="12" lengthAdjust="spacingAndGlyphs" textLength="90" x="432" y="27.1543">AddMedicineUI</text><line style="stroke:#A80036;stroke-width:1.5;" x1="404" x2="524" y1="39" y2="39"/><line style="stroke:#A80036;stroke-width:1.5;" x1="404" x2="524" y1="47" y2="47"/><!--MD5=[6abf378e3cb5ccaa74d2ccddc974f58a]
class MedicineHandler--><rect codeLine="14" fill="#FEFECE" filter="url(#f550gfqc7z13d)" height="86.4141" id="MedicineHandler" style="stroke:#A80036;stroke-width:1.5;" width="353" x="172.5" y="267"/><ellipse cx="294.25" cy="283" fill="#ADD1B2" rx="11" ry="11" style="stroke:#A80036;stroke-width:1.0;"/><path d="M296.5938,278.6719 C295.6563,278.2344 295.0625,278.0938 294.1875,278.0938 C291.5625,278.0938 289.5625,280.1719 289.5625,282.8906 L289.5625,284.0156 C289.5625,286.5938 291.6719,288.4844 294.5625,288.4844 C295.7813,288.4844 296.9375,288.1875 297.6875,287.6406 C298.2656,287.2344 298.5938,286.7813 298.5938,286.3906 C298.5938,285.9375 298.2031,285.5469 297.7344,285.5469 C297.5156,285.5469 297.3125,285.625 297.125,285.8125 C296.6719,286.2969 296.6719,286.2969 296.4844,286.3906 C296.0625,286.6563 295.375,286.7813 294.6094,286.7813 C292.5625,286.7813 291.2656,285.6875 291.2656,283.9844 L291.2656,282.8906 C291.2656,281.1094 292.5156,279.7969 294.25,279.7969 C294.8281,279.7969 295.4375,279.9531 295.9063,280.2031 C296.3906,280.4844 296.5625,280.7031 296.6563,281.1094 C296.7188,281.5156 296.75,281.6406 296.8906,281.7656 C297.0313,281.9063 297.2656,282.0156 297.4844,282.0156 C297.75,282.0156 298.0156,281.875 298.1875,281.6563 C298.2969,281.5 298.3281,281.3125 298.3281,280.8906 L298.3281,279.4688 C298.3281,279.0313 298.3125,278.9063 298.2188,278.75 C298.0625,278.4844 297.7813,278.3438 297.4844,278.3438 C297.1875,278.3438 296.9844,278.4375 296.7656,278.75 L296.5938,278.6719 Z " fill="#000000"/><text fill="#000000" font-family="sans-serif" font-size="12" lengthAdjust="spacingAndGlyphs" textLength="101" x="314.75" y="287.1543">MedicineHandler</text><line style="stroke:#A80036;stroke-width:1.5;" x1="173.5" x2="524.5" y1="299" y2="299"/><line style="stroke:#A80036;stroke-width:1.5;" x1="173.5" x2="524.5" y1="307" y2="307"/><text fill="#000000" font-family="sans-serif" font-size="11" lengthAdjust="spacingAndGlyphs" textLength="341" x="178.5" y="321.2104">+setNewMedicineData (id, name, description, price, weight)</text><text fill="#000000" font-family="sans-serif" font-size="11" lengthAdjust="spacingAndGlyphs" textLength="138" x="178.5" y="334.0151">+registerMedicine(med)</text><text fill="#000000" font-family="sans-serif" font-size="11" lengthAdjust="spacingAndGlyphs" textLength="140" x="178.5" y="346.8198">+validateMedicine(med)</text><!--MD5=[72136138052d025cffdce3c22fbd185f]
class Product--><rect codeLine="20" fill="#FEFECE" filter="url(#f550gfqc7z13d)" height="137.6328" id="Product" style="stroke:#A80036;stroke-width:1.5;" width="265" x="216.5" y="430"/><ellipse cx="322.25" cy="446" fill="#ADD1B2" rx="11" ry="11" style="stroke:#A80036;stroke-width:1.0;"/><path d="M324.5938,441.6719 C323.6563,441.2344 323.0625,441.0938 322.1875,441.0938 C319.5625,441.0938 317.5625,443.1719 317.5625,445.8906 L317.5625,447.0156 C317.5625,449.5938 319.6719,451.4844 322.5625,451.4844 C323.7813,451.4844 324.9375,451.1875 325.6875,450.6406 C326.2656,450.2344 326.5938,449.7813 326.5938,449.3906 C326.5938,448.9375 326.2031,448.5469 325.7344,448.5469 C325.5156,448.5469 325.3125,448.625 325.125,448.8125 C324.6719,449.2969 324.6719,449.2969 324.4844,449.3906 C324.0625,449.6563 323.375,449.7813 322.6094,449.7813 C320.5625,449.7813 319.2656,448.6875 319.2656,446.9844 L319.2656,445.8906 C319.2656,444.1094 320.5156,442.7969 322.25,442.7969 C322.8281,442.7969 323.4375,442.9531 323.9063,443.2031 C324.3906,443.4844 324.5625,443.7031 324.6563,444.1094 C324.7188,444.5156 324.75,444.6406 324.8906,444.7656 C325.0313,444.9063 325.2656,445.0156 325.4844,445.0156 C325.75,445.0156 326.0156,444.875 326.1875,444.6563 C326.2969,444.5 326.3281,444.3125 326.3281,443.8906 L326.3281,442.4688 C326.3281,442.0313 326.3125,441.9063 326.2188,441.75 C326.0625,441.4844 325.7813,441.3438 325.4844,441.3438 C325.1875,441.3438 324.9844,441.4375 324.7656,441.75 L324.5938,441.6719 Z " fill="#000000"/><text fill="#000000" font-family="sans-serif" font-size="12" lengthAdjust="spacingAndGlyphs" textLength="45" x="342.75" y="450.1543">Product</text><line style="stroke:#A80036;stroke-width:1.5;" x1="217.5" x2="480.5" y1="462" y2="462"/><text fill="#000000" font-family="sans-serif" font-size="11" lengthAdjust="spacingAndGlyphs" textLength="51" x="222.5" y="476.2104">-String id</text><text fill="#000000" font-family="sans-serif" font-size="11" lengthAdjust="spacingAndGlyphs" textLength="74" x="222.5" y="489.0151">-String name</text><text fill="#000000" font-family="sans-serif" font-size="11" lengthAdjust="spacingAndGlyphs" textLength="103" x="222.5" y="501.8198">-String description</text><text fill="#000000" font-family="sans-serif" font-size="11" lengthAdjust="spacingAndGlyphs" textLength="75" x="222.5" y="514.6245">-double price</text><text fill="#000000" font-family="sans-serif" font-size="11" lengthAdjust="spacingAndGlyphs" textLength="85" x="222.5" y="527.4292">-double weight</text><line style="stroke:#A80036;stroke-width:1.5;" x1="217.5" x2="480.5" y1="534.0234" y2="534.0234"/><text fill="#000000" font-family="sans-serif" font-size="11" lengthAdjust="spacingAndGlyphs" textLength="253" x="222.5" y="548.2339">+create(id, name, description, price, weight)</text><text fill="#000000" font-family="sans-serif" font-size="11" lengthAdjust="spacingAndGlyphs" textLength="140" x="222.5" y="561.0386">+validateMedicine(med)</text><!--MD5=[da547346deef918ea16944ba046651ef]
class Administrator--><rect codeLine="32" fill="#FEFECE" filter="url(#f550gfqc7z13d)" height="73.6094" id="Administrator" style="stroke:#A80036;stroke-width:1.5;" width="112" x="16" y="116"/><ellipse cx="31" cy="132" fill="#ADD1B2" rx="11" ry="11" style="stroke:#A80036;stroke-width:1.0;"/><path d="M33.3438,127.6719 C32.4063,127.2344 31.8125,127.0938 30.9375,127.0938 C28.3125,127.0938 26.3125,129.1719 26.3125,131.8906 L26.3125,133.0156 C26.3125,135.5938 28.4219,137.4844 31.3125,137.4844 C32.5313,137.4844 33.6875,137.1875 34.4375,136.6406 C35.0156,136.2344 35.3438,135.7813 35.3438,135.3906 C35.3438,134.9375 34.9531,134.5469 34.4844,134.5469 C34.2656,134.5469 34.0625,134.625 33.875,134.8125 C33.4219,135.2969 33.4219,135.2969 33.2344,135.3906 C32.8125,135.6563 32.125,135.7813 31.3594,135.7813 C29.3125,135.7813 28.0156,134.6875 28.0156,132.9844 L28.0156,131.8906 C28.0156,130.1094 29.2656,128.7969 31,128.7969 C31.5781,128.7969 32.1875,128.9531 32.6563,129.2031 C33.1406,129.4844 33.3125,129.7031 33.4063,130.1094 C33.4688,130.5156 33.5,130.6406 33.6406,130.7656 C33.7813,130.9063 34.0156,131.0156 34.2344,131.0156 C34.5,131.0156 34.7656,130.875 34.9375,130.6563 C35.0469,130.5 35.0781,130.3125 35.0781,129.8906 L35.0781,128.4688 C35.0781,128.0313 35.0625,127.9063 34.9688,127.75 C34.8125,127.4844 34.5313,127.3438 34.2344,127.3438 C33.9375,127.3438 33.7344,127.4375 33.5156,127.75 L33.3438,127.6719 Z " fill="#000000"/><text fill="#000000" font-family="sans-serif" font-size="12" lengthAdjust="spacingAndGlyphs" textLength="80" x="45" y="136.1543">Administrator</text><line style="stroke:#A80036;stroke-width:1.5;" x1="17" x2="127" y1="148" y2="148"/><text fill="#000000" font-family="sans-serif" font-size="11" lengthAdjust="spacingAndGlyphs" textLength="73" x="22" y="162.2104">-String email</text><text fill="#000000" font-family="sans-serif" font-size="11" lengthAdjust="spacingAndGlyphs" textLength="94" x="22" y="175.0151">-String password</text><line style="stroke:#A80036;stroke-width:1.5;" x1="17" x2="127" y1="181.6094" y2="181.6094"/><!--MD5=[7f2a9fafcebe4f099f71398fd3e2ed00]
class Pharmacy--><rect codeLine="37" fill="#FEFECE" filter="url(#f550gfqc7z13d)" height="86.4141" id="Pharmacy" style="stroke:#A80036;stroke-width:1.5;" width="130" x="7" y="267"/><ellipse cx="40.45" cy="283" fill="#ADD1B2" rx="11" ry="11" style="stroke:#A80036;stroke-width:1.0;"/><path d="M42.7938,278.6719 C41.8563,278.2344 41.2625,278.0938 40.3875,278.0938 C37.7625,278.0938 35.7625,280.1719 35.7625,282.8906 L35.7625,284.0156 C35.7625,286.5938 37.8719,288.4844 40.7625,288.4844 C41.9813,288.4844 43.1375,288.1875 43.8875,287.6406 C44.4656,287.2344 44.7938,286.7813 44.7938,286.3906 C44.7938,285.9375 44.4031,285.5469 43.9344,285.5469 C43.7156,285.5469 43.5125,285.625 43.325,285.8125 C42.8719,286.2969 42.8719,286.2969 42.6844,286.3906 C42.2625,286.6563 41.575,286.7813 40.8094,286.7813 C38.7625,286.7813 37.4656,285.6875 37.4656,283.9844 L37.4656,282.8906 C37.4656,281.1094 38.7156,279.7969 40.45,279.7969 C41.0281,279.7969 41.6375,279.9531 42.1063,280.2031 C42.5906,280.4844 42.7625,280.7031 42.8563,281.1094 C42.9188,281.5156 42.95,281.6406 43.0906,281.7656 C43.2313,281.9063 43.4656,282.0156 43.6844,282.0156 C43.95,282.0156 44.2156,281.875 44.3875,281.6563 C44.4969,281.5 44.5281,281.3125 44.5281,280.8906 L44.5281,279.4688 C44.5281,279.0313 44.5125,278.9063 44.4188,278.75 C44.2625,278.4844 43.9813,278.3438 43.6844,278.3438 C43.3875,278.3438 43.1844,278.4375 42.9656,278.75 L42.7938,278.6719 Z " fill="#000000"/><text fill="#000000" font-family="sans-serif" font-size="12" lengthAdjust="spacingAndGlyphs" textLength="57" x="58.55" y="287.1543">Pharmacy</text><line style="stroke:#A80036;stroke-width:1.5;" x1="8" x2="136" y1="299" y2="299"/><text fill="#000000" font-family="sans-serif" font-size="11" lengthAdjust="spacingAndGlyphs" textLength="51" x="13" y="313.2104">-String id</text><text fill="#000000" font-family="sans-serif" font-size="11" lengthAdjust="spacingAndGlyphs" textLength="74" x="13" y="326.0151">-String name</text><text fill="#000000" font-family="sans-serif" font-size="11" lengthAdjust="spacingAndGlyphs" textLength="118" x="13" y="338.8198">-int quantityScooters</text><line style="stroke:#A80036;stroke-width:1.5;" x1="8" x2="136" y1="345.4141" y2="345.4141"/><!--MD5=[0cab6733ccd681fa7ee0b476cec7cf90]
link AddMedicineUI to AddMedicineController--><path codeLine="44" d="M464,55.137 C464,70.825 464,92.003 464,110.555 " fill="none" id="AddMedicineUI-to-AddMedicineController" style="stroke:#A80036;stroke-width:1.0;stroke-dasharray:7.0,7.0;"/><polygon fill="#A80036" points="464,115.711,468,106.711,464,110.711,460,106.711,464,115.711" style="stroke:#A80036;stroke-width:1.0;"/><!--MD5=[91794f49f0a267390ee9f4e324e436b1]
link AddMedicineController to MedicineHandler--><path codeLine="45" d="M437.038,190.341 C421.038,211.905 400.595,239.459 383.436,262.586 " fill="none" id="AddMedicineController-to-MedicineHandler" style="stroke:#A80036;stroke-width:1.0;stroke-dasharray:7.0,7.0;"/><polygon fill="#A80036" points="380.272,266.85,388.8475,262.0063,383.2516,262.8348,382.4232,257.2389,380.272,266.85" style="stroke:#A80036;stroke-width:1.0;"/><!--MD5=[7f305b15808ca560940636f334defa77]
link AddMedicineController to Product--><path codeLine="46" d="M497.829,190.066 C514.967,210.85 534.013,238.46 543,267 C554.48,303.457 560.122,318.827 543,353 C528.562,381.816 505.379,406.375 479.981,426.643 " fill="none" id="AddMedicineController-to-Product" style="stroke:#A80036;stroke-width:1.0;stroke-dasharray:7.0,7.0;"/><polygon fill="#A80036" points="475.887,429.859,485.4353,427.4445,479.8188,426.7701,480.4931,421.1536,475.887,429.859" style="stroke:#A80036;stroke-width:1.0;"/><!--MD5=[cb8245591e5b44d858815f6e43268002]
link MedicineHandler to Product--><path codeLine="47" d="M349,353.433 C349,374.459 349,400.456 349,424.58 " fill="none" id="MedicineHandler-to-Product" style="stroke:#A80036;stroke-width:1.0;stroke-dasharray:7.0,7.0;"/><polygon fill="#A80036" points="349,429.697,353,420.697,349,424.697,345,420.697,349,429.697" style="stroke:#A80036;stroke-width:1.0;"/><!--MD5=[737ca6dd1a667cd849e932d7cf955580]
link Pharmacy to Product--><path codeLine="49" d="M134.51,353.2 C168.019,375.821 210.123,404.246 248.135,429.907 " fill="none" id="Pharmacy-Product" style="stroke:#A80036;stroke-width:1.0;"/><polygon fill="#000000" points="212.1441,394.364,206.2918,386.8673,203.003,391.7389,212.1441,394.364" style="stroke:#000000;stroke-width:1.0;"/><text fill="#000000" font-family="sans-serif" font-size="13" lengthAdjust="spacingAndGlyphs" textLength="24" x="217" y="396.0669">Has</text><text fill="#000000" font-family="sans-serif" font-size="13" lengthAdjust="spacingAndGlyphs" textLength="8" x="135.835" y="373.3248">1</text><text fill="#000000" font-family="sans-serif" font-size="13" lengthAdjust="spacingAndGlyphs" textLength="16" x="220.9083" y="419.101">1..</text><!--MD5=[8aaadde0a51a6974a75b41b6a40c57cb]
link Administrator to Pharmacy--><path codeLine="50" d="M72,190.341 C72,213.247 72,242.912 72,266.85 " fill="none" id="Administrator-Pharmacy" style="stroke:#A80036;stroke-width:1.0;"/><polygon fill="#000000" points="77,233.5664,79.9389,224.5213,74.0611,224.5213,77,233.5664" style="stroke:#000000;stroke-width:1.0;"/><text fill="#000000" font-family="sans-serif" font-size="13" lengthAdjust="spacingAndGlyphs" textLength="57" x="86" y="233.0669">Manages</text><text fill="#000000" font-family="sans-serif" font-size="13" lengthAdjust="spacingAndGlyphs" textLength="8" x="63.3625" y="209.5961">1</text><text fill="#000000" font-family="sans-serif" font-size="13" lengthAdjust="spacingAndGlyphs" textLength="16" x="54.725" y="255.8221">1..</text><!--MD5=[a4caedc145662eedddba21a9e9930912]
@startuml
skinparam classAttributeIconSize 0




class AddMedicineController {
  +setNewMedicineData (id, name, description, price, weight)
  +registerMedicine()
}

class AddMedicineUI {
}

class MedicineHandler{
    +setNewMedicineData (id, name, description, price, weight)
    +registerMedicine(med)
    +validateMedicine(med)
}

class Product {
  -String id
  -String name
  -String description
  -double price
  -double weight
  
  +create(id, name, description, price, weight)
  +validateMedicine(med)
}


class Administrator{
  -String email
  -String password 
}

class Pharmacy {
  -String id
  -String name
  -int quantityScooters
  }


AddMedicineUI ..> AddMedicineController
AddMedicineController ..> MedicineHandler
AddMedicineController ..> Product
MedicineHandler ..> Product

Pharmacy "1" - - "1.." Product: Has >
Administrator "1" - - "1.." Pharmacy: Manages >
@enduml

PlantUML version 1.2020.27beta5(Unknown compile time)
(GPL source distribution)
Java Runtime: Java(TM) SE Runtime Environment
JVM: Java HotSpot(TM) 64-Bit Server VM
Default Encoding: UTF-8
Language: en
Country: US
--></g></svg>