<?xml version="1.0" encoding="UTF-8" standalone="no"?><svg xmlns="http://www.w3.org/2000/svg" xmlns:xlink="http://www.w3.org/1999/xlink" contentScriptType="application/ecmascript" contentStyleType="text/css" height="716px" preserveAspectRatio="none" style="width:539px;height:716px;" version="1.1" viewBox="0 0 539 716" width="539px" zoomAndPan="magnify"><defs><filter height="300%" id="f1l84ge5ko53r5" width="300%" x="-1" y="-1"><feGaussianBlur result="blurOut" stdDeviation="2.0"/><feColorMatrix in="blurOut" result="blurOut2" type="matrix" values="0 0 0 0 0 0 0 0 0 0 0 0 0 0 0 0 0 0 .4 0"/><feOffset dx="4.0" dy="4.0" in="blurOut2" result="blurOut3"/><feBlend in="SourceGraphic" in2="blurOut3" mode="normal"/></filter></defs><g><!--MD5=[fab1fe3817366609020ce246a39678c8]
class AddMedicineController--><rect codeLine="3" fill="#FEFECE" filter="url(#f1l84ge5ko53r5)" height="60.8047" id="AddMedicineController" style="stroke:#A80036;stroke-width:1.5;" width="353" x="172.5" y="170.5"/><ellipse cx="276.25" cy="186.5" fill="#ADD1B2" rx="11" ry="11" style="stroke:#A80036;stroke-width:1.0;"/><path d="M278.5938,182.1719 C277.6563,181.7344 277.0625,181.5938 276.1875,181.5938 C273.5625,181.5938 271.5625,183.6719 271.5625,186.3906 L271.5625,187.5156 C271.5625,190.0938 273.6719,191.9844 276.5625,191.9844 C277.7813,191.9844 278.9375,191.6875 279.6875,191.1406 C280.2656,190.7344 280.5938,190.2813 280.5938,189.8906 C280.5938,189.4375 280.2031,189.0469 279.7344,189.0469 C279.5156,189.0469 279.3125,189.125 279.125,189.3125 C278.6719,189.7969 278.6719,189.7969 278.4844,189.8906 C278.0625,190.1563 277.375,190.2813 276.6094,190.2813 C274.5625,190.2813 273.2656,189.1875 273.2656,187.4844 L273.2656,186.3906 C273.2656,184.6094 274.5156,183.2969 276.25,183.2969 C276.8281,183.2969 277.4375,183.4531 277.9063,183.7031 C278.3906,183.9844 278.5625,184.2031 278.6563,184.6094 C278.7188,185.0156 278.75,185.1406 278.8906,185.2656 C279.0313,185.4063 279.2656,185.5156 279.4844,185.5156 C279.75,185.5156 280.0156,185.375 280.1875,185.1563 C280.2969,185 280.3281,184.8125 280.3281,184.3906 L280.3281,182.9688 C280.3281,182.5313 280.3125,182.4063 280.2188,182.25 C280.0625,181.9844 279.7813,181.8438 279.4844,181.8438 C279.1875,181.8438 278.9844,181.9375 278.7656,182.25 L278.5938,182.1719 Z " fill="#000000"/><text fill="#000000" font-family="sans-serif" font-size="12" lengthAdjust="spacing" textLength="137" x="296.75" y="190.6543">AddMedicineController</text><line style="stroke:#A80036;stroke-width:1.5;" x1="173.5" x2="524.5" y1="202.5" y2="202.5"/><line style="stroke:#A80036;stroke-width:1.5;" x1="173.5" x2="524.5" y1="210.5" y2="210.5"/><text fill="#000000" font-family="sans-serif" font-size="11" lengthAdjust="spacing" textLength="341" x="178.5" y="224.7104">+setNewMedicineData (id, name, description, price, weight)</text><!--MD5=[e7139adc9ceaf93b5c7f5db083e3bc83]
class AddMedicineUI--><rect codeLine="7" fill="#FEFECE" filter="url(#f1l84ge5ko53r5)" height="48" id="AddMedicineUI" style="stroke:#A80036;stroke-width:1.5;" width="122" x="288" y="20"/><ellipse cx="303" cy="36" fill="#ADD1B2" rx="11" ry="11" style="stroke:#A80036;stroke-width:1.0;"/><path d="M305.3438,31.6719 C304.4063,31.2344 303.8125,31.0938 302.9375,31.0938 C300.3125,31.0938 298.3125,33.1719 298.3125,35.8906 L298.3125,37.0156 C298.3125,39.5938 300.4219,41.4844 303.3125,41.4844 C304.5313,41.4844 305.6875,41.1875 306.4375,40.6406 C307.0156,40.2344 307.3438,39.7813 307.3438,39.3906 C307.3438,38.9375 306.9531,38.5469 306.4844,38.5469 C306.2656,38.5469 306.0625,38.625 305.875,38.8125 C305.4219,39.2969 305.4219,39.2969 305.2344,39.3906 C304.8125,39.6563 304.125,39.7813 303.3594,39.7813 C301.3125,39.7813 300.0156,38.6875 300.0156,36.9844 L300.0156,35.8906 C300.0156,34.1094 301.2656,32.7969 303,32.7969 C303.5781,32.7969 304.1875,32.9531 304.6563,33.2031 C305.1406,33.4844 305.3125,33.7031 305.4063,34.1094 C305.4688,34.5156 305.5,34.6406 305.6406,34.7656 C305.7813,34.9063 306.0156,35.0156 306.2344,35.0156 C306.5,35.0156 306.7656,34.875 306.9375,34.6563 C307.0469,34.5 307.0781,34.3125 307.0781,33.8906 L307.0781,32.4688 C307.0781,32.0313 307.0625,31.9063 306.9688,31.75 C306.8125,31.4844 306.5313,31.3438 306.2344,31.3438 C305.9375,31.3438 305.7344,31.4375 305.5156,31.75 L305.3438,31.6719 Z " fill="#000000"/><text fill="#000000" font-family="sans-serif" font-size="12" lengthAdjust="spacing" textLength="90" x="317" y="40.1543">AddMedicineUI</text><line style="stroke:#A80036;stroke-width:1.5;" x1="289" x2="409" y1="52" y2="52"/><line style="stroke:#A80036;stroke-width:1.5;" x1="289" x2="409" y1="60" y2="60"/><!--MD5=[6abf378e3cb5ccaa74d2ccddc974f58a]
class MedicineHandler--><rect codeLine="10" fill="#FEFECE" filter="url(#f1l84ge5ko53r5)" height="60.8047" id="MedicineHandler" style="stroke:#A80036;stroke-width:1.5;" width="133" x="170.5" y="520"/><ellipse cx="185.5" cy="536" fill="#ADD1B2" rx="11" ry="11" style="stroke:#A80036;stroke-width:1.0;"/><path d="M187.8438,531.6719 C186.9063,531.2344 186.3125,531.0938 185.4375,531.0938 C182.8125,531.0938 180.8125,533.1719 180.8125,535.8906 L180.8125,537.0156 C180.8125,539.5938 182.9219,541.4844 185.8125,541.4844 C187.0313,541.4844 188.1875,541.1875 188.9375,540.6406 C189.5156,540.2344 189.8438,539.7813 189.8438,539.3906 C189.8438,538.9375 189.4531,538.5469 188.9844,538.5469 C188.7656,538.5469 188.5625,538.625 188.375,538.8125 C187.9219,539.2969 187.9219,539.2969 187.7344,539.3906 C187.3125,539.6563 186.625,539.7813 185.8594,539.7813 C183.8125,539.7813 182.5156,538.6875 182.5156,536.9844 L182.5156,535.8906 C182.5156,534.1094 183.7656,532.7969 185.5,532.7969 C186.0781,532.7969 186.6875,532.9531 187.1563,533.2031 C187.6406,533.4844 187.8125,533.7031 187.9063,534.1094 C187.9688,534.5156 188,534.6406 188.1406,534.7656 C188.2813,534.9063 188.5156,535.0156 188.7344,535.0156 C189,535.0156 189.2656,534.875 189.4375,534.6563 C189.5469,534.5 189.5781,534.3125 189.5781,533.8906 L189.5781,532.4688 C189.5781,532.0313 189.5625,531.9063 189.4688,531.75 C189.3125,531.4844 189.0313,531.3438 188.7344,531.3438 C188.4375,531.3438 188.2344,531.4375 188.0156,531.75 L187.8438,531.6719 Z " fill="#000000"/><text fill="#000000" font-family="sans-serif" font-size="12" lengthAdjust="spacing" textLength="101" x="199.5" y="540.1543">MedicineHandler</text><line style="stroke:#A80036;stroke-width:1.5;" x1="171.5" x2="302.5" y1="552" y2="552"/><line style="stroke:#A80036;stroke-width:1.5;" x1="171.5" x2="302.5" y1="560" y2="560"/><text fill="#000000" font-family="sans-serif" font-size="11" lengthAdjust="spacing" textLength="115" x="176.5" y="574.2104">+addMedicine(med)</text><!--MD5=[837d3612090b426002fd1342fcbe6b88]
class DataBase--><rect codeLine="14" fill="#FEFECE" filter="url(#f1l84ge5ko53r5)" height="60.8047" id="DataBase" style="stroke:#A80036;stroke-width:1.5;" width="304" x="85" y="642"/><ellipse cx="204.25" cy="658" fill="#ADD1B2" rx="11" ry="11" style="stroke:#A80036;stroke-width:1.0;"/><path d="M206.5938,653.6719 C205.6563,653.2344 205.0625,653.0938 204.1875,653.0938 C201.5625,653.0938 199.5625,655.1719 199.5625,657.8906 L199.5625,659.0156 C199.5625,661.5938 201.6719,663.4844 204.5625,663.4844 C205.7813,663.4844 206.9375,663.1875 207.6875,662.6406 C208.2656,662.2344 208.5938,661.7813 208.5938,661.3906 C208.5938,660.9375 208.2031,660.5469 207.7344,660.5469 C207.5156,660.5469 207.3125,660.625 207.125,660.8125 C206.6719,661.2969 206.6719,661.2969 206.4844,661.3906 C206.0625,661.6563 205.375,661.7813 204.6094,661.7813 C202.5625,661.7813 201.2656,660.6875 201.2656,658.9844 L201.2656,657.8906 C201.2656,656.1094 202.5156,654.7969 204.25,654.7969 C204.8281,654.7969 205.4375,654.9531 205.9063,655.2031 C206.3906,655.4844 206.5625,655.7031 206.6563,656.1094 C206.7188,656.5156 206.75,656.6406 206.8906,656.7656 C207.0313,656.9063 207.2656,657.0156 207.4844,657.0156 C207.75,657.0156 208.0156,656.875 208.1875,656.6563 C208.2969,656.5 208.3281,656.3125 208.3281,655.8906 L208.3281,654.4688 C208.3281,654.0313 208.3125,653.9063 208.2188,653.75 C208.0625,653.4844 207.7813,653.3438 207.4844,653.3438 C207.1875,653.3438 206.9844,653.4375 206.7656,653.75 L206.5938,653.6719 Z " fill="#000000"/><text fill="#000000" font-family="sans-serif" font-size="12" lengthAdjust="spacing" textLength="57" x="224.75" y="662.1543">DataBase</text><line style="stroke:#A80036;stroke-width:1.5;" x1="86" x2="388" y1="674" y2="674"/><line style="stroke:#A80036;stroke-width:1.5;" x1="86" x2="388" y1="682" y2="682"/><text fill="#000000" font-family="sans-serif" font-size="11" lengthAdjust="spacing" textLength="292" x="91" y="696.2104">+addMedicine (id, name, description, price, weight)</text><!--MD5=[72136138052d025cffdce3c22fbd185f]
class Product--><rect codeLine="18" fill="#FEFECE" filter="url(#f1l84ge5ko53r5)" height="137.6328" id="Product" style="stroke:#A80036;stroke-width:1.5;" width="265" x="104.5" y="321"/><ellipse cx="210.25" cy="337" fill="#ADD1B2" rx="11" ry="11" style="stroke:#A80036;stroke-width:1.0;"/><path d="M212.5938,332.6719 C211.6563,332.2344 211.0625,332.0938 210.1875,332.0938 C207.5625,332.0938 205.5625,334.1719 205.5625,336.8906 L205.5625,338.0156 C205.5625,340.5938 207.6719,342.4844 210.5625,342.4844 C211.7813,342.4844 212.9375,342.1875 213.6875,341.6406 C214.2656,341.2344 214.5938,340.7813 214.5938,340.3906 C214.5938,339.9375 214.2031,339.5469 213.7344,339.5469 C213.5156,339.5469 213.3125,339.625 213.125,339.8125 C212.6719,340.2969 212.6719,340.2969 212.4844,340.3906 C212.0625,340.6563 211.375,340.7813 210.6094,340.7813 C208.5625,340.7813 207.2656,339.6875 207.2656,337.9844 L207.2656,336.8906 C207.2656,335.1094 208.5156,333.7969 210.25,333.7969 C210.8281,333.7969 211.4375,333.9531 211.9063,334.2031 C212.3906,334.4844 212.5625,334.7031 212.6563,335.1094 C212.7188,335.5156 212.75,335.6406 212.8906,335.7656 C213.0313,335.9063 213.2656,336.0156 213.4844,336.0156 C213.75,336.0156 214.0156,335.875 214.1875,335.6563 C214.2969,335.5 214.3281,335.3125 214.3281,334.8906 L214.3281,333.4688 C214.3281,333.0313 214.3125,332.9063 214.2188,332.75 C214.0625,332.4844 213.7813,332.3438 213.4844,332.3438 C213.1875,332.3438 212.9844,332.4375 212.7656,332.75 L212.5938,332.6719 Z " fill="#000000"/><text fill="#000000" font-family="sans-serif" font-size="12" lengthAdjust="spacing" textLength="45" x="230.75" y="341.1543">Product</text><line style="stroke:#A80036;stroke-width:1.5;" x1="105.5" x2="368.5" y1="353" y2="353"/><text fill="#000000" font-family="sans-serif" font-size="11" lengthAdjust="spacing" textLength="51" x="110.5" y="367.2104">-String id</text><text fill="#000000" font-family="sans-serif" font-size="11" lengthAdjust="spacing" textLength="74" x="110.5" y="380.0151">-String name</text><text fill="#000000" font-family="sans-serif" font-size="11" lengthAdjust="spacing" textLength="103" x="110.5" y="392.8198">-String description</text><text fill="#000000" font-family="sans-serif" font-size="11" lengthAdjust="spacing" textLength="75" x="110.5" y="405.6245">-double price</text><text fill="#000000" font-family="sans-serif" font-size="11" lengthAdjust="spacing" textLength="85" x="110.5" y="418.4292">-double weight</text><line style="stroke:#A80036;stroke-width:1.5;" x1="105.5" x2="368.5" y1="425.0234" y2="425.0234"/><text fill="#000000" font-family="sans-serif" font-size="11" lengthAdjust="spacing" textLength="253" x="110.5" y="439.2339">+create(id, name, description, price, weight)</text><text fill="#000000" font-family="sans-serif" font-size="11" lengthAdjust="spacing" textLength="122" x="110.5" y="452.0386">+saveMedicine(med)</text><!--MD5=[da547346deef918ea16944ba046651ef]
class Administrator--><rect codeLine="29" fill="#FEFECE" filter="url(#f1l84ge5ko53r5)" height="73.6094" id="Administrator" style="stroke:#A80036;stroke-width:1.5;" width="112" x="16" y="7"/><ellipse cx="31" cy="23" fill="#ADD1B2" rx="11" ry="11" style="stroke:#A80036;stroke-width:1.0;"/><path d="M33.3438,18.6719 C32.4063,18.2344 31.8125,18.0938 30.9375,18.0938 C28.3125,18.0938 26.3125,20.1719 26.3125,22.8906 L26.3125,24.0156 C26.3125,26.5938 28.4219,28.4844 31.3125,28.4844 C32.5313,28.4844 33.6875,28.1875 34.4375,27.6406 C35.0156,27.2344 35.3438,26.7813 35.3438,26.3906 C35.3438,25.9375 34.9531,25.5469 34.4844,25.5469 C34.2656,25.5469 34.0625,25.625 33.875,25.8125 C33.4219,26.2969 33.4219,26.2969 33.2344,26.3906 C32.8125,26.6563 32.125,26.7813 31.3594,26.7813 C29.3125,26.7813 28.0156,25.6875 28.0156,23.9844 L28.0156,22.8906 C28.0156,21.1094 29.2656,19.7969 31,19.7969 C31.5781,19.7969 32.1875,19.9531 32.6563,20.2031 C33.1406,20.4844 33.3125,20.7031 33.4063,21.1094 C33.4688,21.5156 33.5,21.6406 33.6406,21.7656 C33.7813,21.9063 34.0156,22.0156 34.2344,22.0156 C34.5,22.0156 34.7656,21.875 34.9375,21.6563 C35.0469,21.5 35.0781,21.3125 35.0781,20.8906 L35.0781,19.4688 C35.0781,19.0313 35.0625,18.9063 34.9688,18.75 C34.8125,18.4844 34.5313,18.3438 34.2344,18.3438 C33.9375,18.3438 33.7344,18.4375 33.5156,18.75 L33.3438,18.6719 Z " fill="#000000"/><text fill="#000000" font-family="sans-serif" font-size="12" lengthAdjust="spacing" textLength="80" x="45" y="27.1543">Administrator</text><line style="stroke:#A80036;stroke-width:1.5;" x1="17" x2="127" y1="39" y2="39"/><text fill="#000000" font-family="sans-serif" font-size="11" lengthAdjust="spacing" textLength="73" x="22" y="53.2104">-String email</text><text fill="#000000" font-family="sans-serif" font-size="11" lengthAdjust="spacing" textLength="94" x="22" y="66.0151">-String password</text><line style="stroke:#A80036;stroke-width:1.5;" x1="17" x2="127" y1="72.6094" y2="72.6094"/><!--MD5=[7f2a9fafcebe4f099f71398fd3e2ed00]
class Pharmacy--><rect codeLine="34" fill="#FEFECE" filter="url(#f1l84ge5ko53r5)" height="86.4141" id="Pharmacy" style="stroke:#A80036;stroke-width:1.5;" width="130" x="7" y="158"/><ellipse cx="40.45" cy="174" fill="#ADD1B2" rx="11" ry="11" style="stroke:#A80036;stroke-width:1.0;"/><path d="M42.7938,169.6719 C41.8563,169.2344 41.2625,169.0938 40.3875,169.0938 C37.7625,169.0938 35.7625,171.1719 35.7625,173.8906 L35.7625,175.0156 C35.7625,177.5938 37.8719,179.4844 40.7625,179.4844 C41.9813,179.4844 43.1375,179.1875 43.8875,178.6406 C44.4656,178.2344 44.7938,177.7813 44.7938,177.3906 C44.7938,176.9375 44.4031,176.5469 43.9344,176.5469 C43.7156,176.5469 43.5125,176.625 43.325,176.8125 C42.8719,177.2969 42.8719,177.2969 42.6844,177.3906 C42.2625,177.6563 41.575,177.7813 40.8094,177.7813 C38.7625,177.7813 37.4656,176.6875 37.4656,174.9844 L37.4656,173.8906 C37.4656,172.1094 38.7156,170.7969 40.45,170.7969 C41.0281,170.7969 41.6375,170.9531 42.1063,171.2031 C42.5906,171.4844 42.7625,171.7031 42.8563,172.1094 C42.9188,172.5156 42.95,172.6406 43.0906,172.7656 C43.2313,172.9063 43.4656,173.0156 43.6844,173.0156 C43.95,173.0156 44.2156,172.875 44.3875,172.6563 C44.4969,172.5 44.5281,172.3125 44.5281,171.8906 L44.5281,170.4688 C44.5281,170.0313 44.5125,169.9063 44.4188,169.75 C44.2625,169.4844 43.9813,169.3438 43.6844,169.3438 C43.3875,169.3438 43.1844,169.4375 42.9656,169.75 L42.7938,169.6719 Z " fill="#000000"/><text fill="#000000" font-family="sans-serif" font-size="12" lengthAdjust="spacing" textLength="57" x="58.55" y="178.1543">Pharmacy</text><line style="stroke:#A80036;stroke-width:1.5;" x1="8" x2="136" y1="190" y2="190"/><text fill="#000000" font-family="sans-serif" font-size="11" lengthAdjust="spacing" textLength="51" x="13" y="204.2104">-String id</text><text fill="#000000" font-family="sans-serif" font-size="11" lengthAdjust="spacing" textLength="74" x="13" y="217.0151">-String name</text><text fill="#000000" font-family="sans-serif" font-size="11" lengthAdjust="spacing" textLength="118" x="13" y="229.8198">-int quantityScooters</text><line style="stroke:#A80036;stroke-width:1.5;" x1="8" x2="136" y1="236.4141" y2="236.4141"/><!--MD5=[0cab6733ccd681fa7ee0b476cec7cf90]
link AddMedicineUI to AddMedicineController--><path codeLine="40" d="M349,68.205 C349,93.912 349,135.635 349,165.245 " fill="none" id="AddMedicineUI-to-AddMedicineController" style="stroke:#A80036;stroke-width:1.0;stroke-dasharray:7.0,7.0;"/><polygon fill="#A80036" points="349,170.256,353,161.256,349,165.256,345,161.256,349,170.256" style="stroke:#A80036;stroke-width:1.0;"/><!--MD5=[7f305b15808ca560940636f334defa77]
link AddMedicineController to Product--><path codeLine="41" d="M331.253,231.631 C317.614,254.404 298.175,286.859 280.491,316.386 " fill="none" id="AddMedicineController-to-Product" style="stroke:#A80036;stroke-width:1.0;stroke-dasharray:7.0,7.0;"/><polygon fill="#A80036" points="277.895,320.72,285.9502,315.053,280.4635,316.4301,279.0864,310.9435,277.895,320.72" style="stroke:#A80036;stroke-width:1.0;"/><!--MD5=[61c31fba9f29392e4e6bc5d3e068c45b]
link Product to MedicineHandler--><path codeLine="42" d="M237,459.138 C237,478.135 237,498 237,514.251 " fill="none" id="Product-to-MedicineHandler" style="stroke:#A80036;stroke-width:1.0;stroke-dasharray:7.0,7.0;"/><polygon fill="#A80036" points="237,519.618,241,510.618,237,514.618,233,510.618,237,519.618" style="stroke:#A80036;stroke-width:1.0;"/><!--MD5=[81304a25ac0cbb6579b8adfcec556f55]
link MedicineHandler to DataBase--><path codeLine="43" d="M237,581.163 C237,597.894 237,618.8957 237,636.4379 " fill="none" id="MedicineHandler-to-DataBase" style="stroke:#A80036;stroke-width:1.0;stroke-dasharray:7.0,7.0;"/><polygon fill="#A80036" points="237,641.7624,241,632.7624,237,636.7624,233,632.7624,237,641.7624" style="stroke:#A80036;stroke-width:1.0;"/><!--MD5=[737ca6dd1a667cd849e932d7cf955580]
link Pharmacy to Product--><path codeLine="45" d="M109.441,244.433 C129.313,266.955 154.217,295.179 176.733,320.697 " fill="none" id="Pharmacy-Product" style="stroke:#A80036;stroke-width:1.0;"/><polygon fill="#000000" points="158.3081,286.3156,154.5274,277.5888,150.12,281.4777,158.3081,286.3156" style="stroke:#000000;stroke-width:1.0;"/><text fill="#000000" font-family="sans-serif" font-size="13" lengthAdjust="spacing" textLength="24" x="164" y="287.0669">Has</text><text fill="#000000" font-family="sans-serif" font-size="13" lengthAdjust="spacing" textLength="8" x="106.7708" y="264.5949">1</text><text fill="#000000" font-family="sans-serif" font-size="13" lengthAdjust="spacing" textLength="16" x="153.693" y="309.8694">1..</text><!--MD5=[8aaadde0a51a6974a75b41b6a40c57cb]
link Administrator to Pharmacy--><path codeLine="46" d="M72,81.341 C72,104.247 72,133.912 72,157.85 " fill="none" id="Administrator-Pharmacy" style="stroke:#A80036;stroke-width:1.0;"/><polygon fill="#000000" points="77,124.5664,79.9389,115.5213,74.0611,115.5213,77,124.5664" style="stroke:#000000;stroke-width:1.0;"/><text fill="#000000" font-family="sans-serif" font-size="13" lengthAdjust="spacing" textLength="57" x="86" y="124.0669">Manages</text><text fill="#000000" font-family="sans-serif" font-size="13" lengthAdjust="spacing" textLength="8" x="63.3625" y="100.5961">1</text><text fill="#000000" font-family="sans-serif" font-size="13" lengthAdjust="spacing" textLength="16" x="54.725" y="146.8221">1..</text><!--MD5=[1964701f592a3b1b04bbc61f605b01a9]
@startuml
skinparam classAttributeIconSize 0

class AddMedicineController {
  +setNewMedicineData (id, name, description, price, weight)
}

class AddMedicineUI {
}

class MedicineHandler{
    +addMedicine(med)
}

class DataBase{
   +addMedicine (id, name, description, price, weight)
}

class Product {
  -String id
  -String name
  -String description
  -double price
  -double weight
  
  +create(id, name, description, price, weight)
  +saveMedicine(med)
}

class Administrator{
  -String email
  -String password 
}

class Pharmacy {
  -String id
  -String name
  -int quantityScooters
  }

AddMedicineUI ..> AddMedicineController
AddMedicineController ..> Product
Product ..> MedicineHandler
MedicineHandler ..> DataBase

Pharmacy "1" - - "1.." Product: Has >
Administrator "1" - - "1.." Pharmacy: Manages >
@enduml

PlantUML version 1.2020.27beta7(Unknown compile time)
(GPL source distribution)
Java Runtime: Java(TM) SE Runtime Environment
JVM: Java HotSpot(TM) 64-Bit Server VM
Default Encoding: UTF-8
Language: en
Country: US
--></g></svg>