<?xml version="1.0" encoding="UTF-8" standalone="no"?><svg xmlns="http://www.w3.org/2000/svg" xmlns:xlink="http://www.w3.org/1999/xlink" contentScriptType="application/ecmascript" contentStyleType="text/css" height="382px" preserveAspectRatio="none" style="width:479px;height:382px;" version="1.1" viewBox="0 0 479 382" width="479px" zoomAndPan="magnify"><defs><filter height="300%" id="f14d43vfo0q3tu" width="300%" x="-1" y="-1"><feGaussianBlur result="blurOut" stdDeviation="2.0"/><feColorMatrix in="blurOut" result="blurOut2" type="matrix" values="0 0 0 0 0 0 0 0 0 0 0 0 0 0 0 0 0 0 .4 0"/><feOffset dx="4.0" dy="4.0" in="blurOut2" result="blurOut3"/><feBlend in="SourceGraphic" in2="blurOut3" mode="normal"/></filter></defs><g><rect fill="#FFFFFF" filter="url(#f14d43vfo0q3tu)" height="190.9297" style="stroke:#A80036;stroke-width:1.0;" width="10" x="53" y="98.2969"/><rect fill="#FFFFFF" filter="url(#f14d43vfo0q3tu)" height="29.1328" style="stroke:#A80036;stroke-width:1.0;" width="10" x="426" y="192.8281"/><rect fill="#FFFFFF" filter="url(#f14d43vfo0q3tu)" height="29.1328" style="stroke:#A80036;stroke-width:1.0;" width="10" x="426" y="251.0938"/><line style="stroke:#A80036;stroke-width:1.0;stroke-dasharray:5.0,5.0;" x1="58" x2="58" y1="88.2969" y2="298.2266"/><line style="stroke:#A80036;stroke-width:1.0;stroke-dasharray:5.0,5.0;" x1="430.5" x2="430.5" y1="88.2969" y2="298.2266"/><text fill="#000000" font-family="sans-serif" font-size="14" lengthAdjust="spacingAndGlyphs" textLength="100" x="5" y="84.9951">Administrator</text><ellipse cx="58" cy="15" fill="#FEFECE" filter="url(#f14d43vfo0q3tu)" rx="8" ry="8" style="stroke:#A80036;stroke-width:2.0;"/><path d="M58,23 L58,50 M45,31 L71,31 M58,50 L45,65 M58,50 L71,65 " fill="none" filter="url(#f14d43vfo0q3tu)" style="stroke:#A80036;stroke-width:2.0;"/><text fill="#000000" font-family="sans-serif" font-size="14" lengthAdjust="spacingAndGlyphs" textLength="100" x="5" y="310.2217">Administrator</text><ellipse cx="58" cy="323.5234" fill="#FEFECE" filter="url(#f14d43vfo0q3tu)" rx="8" ry="8" style="stroke:#A80036;stroke-width:2.0;"/><path d="M58,331.5234 L58,358.5234 M45,339.5234 L71,339.5234 M58,358.5234 L45,373.5234 M58,358.5234 L71,373.5234 " fill="none" filter="url(#f14d43vfo0q3tu)" style="stroke:#A80036;stroke-width:2.0;"/><rect fill="#FEFECE" filter="url(#f14d43vfo0q3tu)" height="30.2969" style="stroke:#A80036;stroke-width:1.5;" width="73" x="392.5" y="53"/><text fill="#000000" font-family="sans-serif" font-size="14" lengthAdjust="spacingAndGlyphs" textLength="59" x="399.5" y="72.9951">:System</text><rect fill="#FEFECE" filter="url(#f14d43vfo0q3tu)" height="30.2969" style="stroke:#A80036;stroke-width:1.5;" width="73" x="392.5" y="297.2266"/><text fill="#000000" font-family="sans-serif" font-size="14" lengthAdjust="spacingAndGlyphs" textLength="59" x="399.5" y="317.2217">:System</text><rect fill="#FFFFFF" filter="url(#f14d43vfo0q3tu)" height="190.9297" style="stroke:#A80036;stroke-width:1.0;" width="10" x="53" y="98.2969"/><rect fill="#FFFFFF" filter="url(#f14d43vfo0q3tu)" height="29.1328" style="stroke:#A80036;stroke-width:1.0;" width="10" x="426" y="192.8281"/><rect fill="#FFFFFF" filter="url(#f14d43vfo0q3tu)" height="29.1328" style="stroke:#A80036;stroke-width:1.0;" width="10" x="426" y="251.0938"/><polygon fill="#A80036" points="419,115.4297,429,119.4297,419,123.4297,423,119.4297" style="stroke:#A80036;stroke-width:1.0;"/><line style="stroke:#A80036;stroke-width:1.0;" x1="63" x2="425" y1="119.4297" y2="119.4297"/><text fill="#000000" font-family="sans-serif" font-size="13" font-weight="bold" lengthAdjust="spacingAndGlyphs" textLength="9" x="70" y="114.3638">1</text><text fill="#000000" font-family="sans-serif" font-size="13" lengthAdjust="spacingAndGlyphs" textLength="213" x="83" y="114.3638">initiates the adding of a medicine</text><polygon fill="#A80036" points="74,159.6953,64,163.6953,74,167.6953,70,163.6953" style="stroke:#A80036;stroke-width:1.0;"/><line style="stroke:#A80036;stroke-width:1.0;stroke-dasharray:2.0,2.0;" x1="68" x2="430" y1="163.6953" y2="163.6953"/><text fill="#000000" font-family="sans-serif" font-size="13" font-weight="bold" lengthAdjust="spacingAndGlyphs" textLength="9" x="80" y="151.063">2</text><text fill="#000000" font-family="sans-serif" font-size="13" lengthAdjust="spacingAndGlyphs" textLength="184" x="93" y="143.4966">requests the necessary data</text><text fill="#000000" font-family="sans-serif" font-size="13" lengthAdjust="spacingAndGlyphs" textLength="234" x="93" y="158.6294">(id, name, description, price, weight)</text><polygon fill="#A80036" points="414,188.8281,424,192.8281,414,196.8281,418,192.8281" style="stroke:#A80036;stroke-width:1.0;"/><line style="stroke:#A80036;stroke-width:1.0;" x1="63" x2="420" y1="192.8281" y2="192.8281"/><text fill="#000000" font-family="sans-serif" font-size="13" font-weight="bold" lengthAdjust="spacingAndGlyphs" textLength="8" x="70" y="187.7622">3</text><text fill="#000000" font-family="sans-serif" font-size="13" lengthAdjust="spacingAndGlyphs" textLength="99" x="82" y="187.7622">enters the data</text><polygon fill="#A80036" points="74,217.9609,64,221.9609,74,225.9609,70,221.9609" style="stroke:#A80036;stroke-width:1.0;"/><line style="stroke:#A80036;stroke-width:1.0;stroke-dasharray:2.0,2.0;" x1="68" x2="430" y1="221.9609" y2="221.9609"/><text fill="#000000" font-family="sans-serif" font-size="13" font-weight="bold" lengthAdjust="spacingAndGlyphs" textLength="9" x="80" y="216.895">4</text><text fill="#000000" font-family="sans-serif" font-size="13" lengthAdjust="spacingAndGlyphs" textLength="282" x="93" y="216.895">presents the data and asks for confirmation</text><polygon fill="#A80036" points="414,247.0938,424,251.0938,414,255.0938,418,251.0938" style="stroke:#A80036;stroke-width:1.0;"/><line style="stroke:#A80036;stroke-width:1.0;" x1="63" x2="420" y1="251.0938" y2="251.0938"/><text fill="#000000" font-family="sans-serif" font-size="13" font-weight="bold" lengthAdjust="spacingAndGlyphs" textLength="9" x="70" y="246.0278">5</text><text fill="#000000" font-family="sans-serif" font-size="13" lengthAdjust="spacingAndGlyphs" textLength="114" x="83" y="246.0278">confirms the data</text><polygon fill="#A80036" points="74,276.2266,64,280.2266,74,284.2266,70,280.2266" style="stroke:#A80036;stroke-width:1.0;"/><line style="stroke:#A80036;stroke-width:1.0;stroke-dasharray:2.0,2.0;" x1="68" x2="430" y1="280.2266" y2="280.2266"/><text fill="#000000" font-family="sans-serif" font-size="13" font-weight="bold" lengthAdjust="spacingAndGlyphs" textLength="9" x="80" y="275.1606">6</text><text fill="#000000" font-family="sans-serif" font-size="13" lengthAdjust="spacingAndGlyphs" textLength="326" x="93" y="275.1606">informs that the medicine was added with success</text><!--MD5=[42e589368398856c982281f0f250f987]
@startuml
autonumber
actor "Administrator" as Admin

activate Admin
Admin -> ":System" : initiates the adding of a medicine
":System" - -> Admin : requests the necessary data \n(id, name, description, price, weight)
deactivate ":System"

Admin -> ":System" : enters the data
activate ":System"
":System" - -> Admin :  presents the data and asks for confirmation
deactivate ":System"

Admin -> ":System" : confirms the data
activate ":System"
":System" - -> Admin : informs that the medicine was added with success 
deactivate ":System"
@enduml

PlantUML version 1.2020.27beta5(Unknown compile time)
(GPL source distribution)
Java Runtime: Java(TM) SE Runtime Environment
JVM: Java HotSpot(TM) 64-Bit Server VM
Default Encoding: UTF-8
Language: en
Country: US
--></g></svg>