<?xml version="1.0" encoding="UTF-8" standalone="no"?><svg xmlns="http://www.w3.org/2000/svg" xmlns:xlink="http://www.w3.org/1999/xlink" contentScriptType="application/ecmascript" contentStyleType="text/css" height="639px" preserveAspectRatio="none" style="width:735px;height:639px;" version="1.1" viewBox="0 0 735 639" width="735px" zoomAndPan="magnify"><defs><filter height="300%" id="fr8jo55vs37gf" width="300%" x="-1" y="-1"><feGaussianBlur result="blurOut" stdDeviation="2.0"/><feColorMatrix in="blurOut" result="blurOut2" type="matrix" values="0 0 0 0 0 0 0 0 0 0 0 0 0 0 0 0 0 0 .4 0"/><feOffset dx="4.0" dy="4.0" in="blurOut2" result="blurOut3"/><feBlend in="SourceGraphic" in2="blurOut3" mode="normal"/></filter></defs><g><!--MD5=[04f26a29428078a1ed80c034ba7fd820]
class ClientUI--><rect codeLine="4" fill="#FEFECE" filter="url(#fr8jo55vs37gf)" height="48" id="ClientUI" style="stroke: #A80036; stroke-width: 1.5;" width="76" x="334.5" y="7"/><ellipse cx="349.5" cy="23" fill="#ADD1B2" rx="11" ry="11" style="stroke: #A80036; stroke-width: 1.0;"/><path d="M351.5,19.5 Q351.7031,19 351.9375,18.75 Q352.1719,18.5 352.4375,18.5 Q352.9063,18.5 353.2031,18.7813 Q353.5,19.0625 353.5,19.7188 L353.5,21.2813 Q353.5,21.9375 353.2188,22.2188 Q352.9375,22.5 352.5,22.5 Q352.1094,22.5 351.8594,22.3281 Q351.6094,22.1563 351.5,21.7031 Q351.4531,21.3906 351.2813,21.2188 Q350.9688,20.8906 350.4063,20.7031 Q349.8438,20.5 349.2813,20.5 Q348.5781,20.5 347.9844,20.7813 Q347.4063,21.0625 346.9531,21.6875 Q346.5,22.3125 346.5,23.1719 L346.5,24.0938 Q346.5,25.125 347.3438,25.8125 Q348.1875,26.5 349.6875,26.5 Q350.5781,26.5 351.2031,26.2969 Q351.5625,26.1875 351.9688,25.8281 Q352.2344,25.625 352.375,25.5625 Q352.5156,25.5 352.6875,25.5 Q353.0156,25.5 353.25,25.7656 Q353.5,26.0156 353.5,26.375 Q353.5,26.7188 353.1563,27.125 Q352.6563,27.7188 351.8594,28.0469 Q350.8125,28.5 349.5313,28.5 Q348.0313,28.5 346.8281,27.9063 Q345.8594,27.4375 345.1719,26.4219 Q344.5,25.4063 344.5,24.2031 L344.5,23.1094 Q344.5,21.8594 345.0938,20.7656 Q345.7031,19.6719 346.75,19.0938 Q347.8125,18.5 349,18.5 Q349.7188,18.5 350.3438,18.75 Q350.9688,19 351.5,19.5 Z "/><text fill="#000000" font-family="sans-serif" font-size="12" lengthAdjust="spacingAndGlyphs" textLength="44" x="363.5" y="27.9102">ClientUI</text><line style="stroke: #A80036; stroke-width: 1.5;" x1="335.5" x2="409.5" y1="39" y2="39"/><line style="stroke: #A80036; stroke-width: 1.5;" x1="335.5" x2="409.5" y1="47" y2="47"/><!--MD5=[7b71a135d616eff476eb453917390671]
class CheckoutController--><rect codeLine="7" fill="#FEFECE" filter="url(#fr8jo55vs37gf)" height="89.5078" id="CheckoutController" style="stroke: #A80036; stroke-width: 1.5;" width="138" x="303.5" y="115"/><ellipse cx="318.5" cy="131" fill="#ADD1B2" rx="11" ry="11" style="stroke: #A80036; stroke-width: 1.0;"/><path d="M320.5,127.5 Q320.7031,127 320.9375,126.75 Q321.1719,126.5 321.4375,126.5 Q321.9063,126.5 322.2031,126.7813 Q322.5,127.0625 322.5,127.7188 L322.5,129.2813 Q322.5,129.9375 322.2188,130.2188 Q321.9375,130.5 321.5,130.5 Q321.1094,130.5 320.8594,130.3281 Q320.6094,130.1563 320.5,129.7031 Q320.4531,129.3906 320.2813,129.2188 Q319.9688,128.8906 319.4063,128.7031 Q318.8438,128.5 318.2813,128.5 Q317.5781,128.5 316.9844,128.7813 Q316.4063,129.0625 315.9531,129.6875 Q315.5,130.3125 315.5,131.1719 L315.5,132.0938 Q315.5,133.125 316.3438,133.8125 Q317.1875,134.5 318.6875,134.5 Q319.5781,134.5 320.2031,134.2969 Q320.5625,134.1875 320.9688,133.8281 Q321.2344,133.625 321.375,133.5625 Q321.5156,133.5 321.6875,133.5 Q322.0156,133.5 322.25,133.7656 Q322.5,134.0156 322.5,134.375 Q322.5,134.7188 322.1563,135.125 Q321.6563,135.7188 320.8594,136.0469 Q319.8125,136.5 318.5313,136.5 Q317.0313,136.5 315.8281,135.9063 Q314.8594,135.4375 314.1719,134.4219 Q313.5,133.4063 313.5,132.2031 L313.5,131.1094 Q313.5,129.8594 314.0938,128.7656 Q314.7031,127.6719 315.75,127.0938 Q316.8125,126.5 318,126.5 Q318.7188,126.5 319.3438,126.75 Q319.9688,127 320.5,127.5 Z "/><text fill="#000000" font-family="sans-serif" font-size="12" lengthAdjust="spacingAndGlyphs" textLength="106" x="332.5" y="135.9102">CheckoutController</text><line style="stroke: #A80036; stroke-width: 1.5;" x1="304.5" x2="440.5" y1="147" y2="147"/><line style="stroke: #A80036; stroke-width: 1.5;" x1="304.5" x2="440.5" y1="155" y2="155"/><text fill="#000000" font-family="sans-serif" font-size="11" lengthAdjust="spacingAndGlyphs" textLength="117" x="309.5" y="170.4189">+checkoutProcess(cart)</text><text fill="#000000" font-family="sans-serif" font-size="11" lengthAdjust="spacingAndGlyphs" textLength="92" x="309.5" y="184.2549">+getCartPrice(cart)</text><text fill="#000000" font-family="sans-serif" font-size="11" lengthAdjust="spacingAndGlyphs" textLength="101" x="309.5" y="198.0908">+getCartWeight(cart)</text><!--MD5=[c5b08e60048ef1bcd788d24cf324082e]
class UserSession--><rect codeLine="13" fill="#FEFECE" filter="url(#fr8jo55vs37gf)" height="61.8359" id="UserSession" style="stroke: #A80036; stroke-width: 1.5;" width="105" x="7" y="285.5"/><ellipse cx="22" cy="301.5" fill="#ADD1B2" rx="11" ry="11" style="stroke: #A80036; stroke-width: 1.0;"/><path d="M24,298 Q24.2031,297.5 24.4375,297.25 Q24.6719,297 24.9375,297 Q25.4063,297 25.7031,297.2813 Q26,297.5625 26,298.2188 L26,299.7813 Q26,300.4375 25.7188,300.7188 Q25.4375,301 25,301 Q24.6094,301 24.3594,300.8281 Q24.1094,300.6563 24,300.2031 Q23.9531,299.8906 23.7813,299.7188 Q23.4688,299.3906 22.9063,299.2031 Q22.3438,299 21.7813,299 Q21.0781,299 20.4844,299.2813 Q19.9063,299.5625 19.4531,300.1875 Q19,300.8125 19,301.6719 L19,302.5938 Q19,303.625 19.8438,304.3125 Q20.6875,305 22.1875,305 Q23.0781,305 23.7031,304.7969 Q24.0625,304.6875 24.4688,304.3281 Q24.7344,304.125 24.875,304.0625 Q25.0156,304 25.1875,304 Q25.5156,304 25.75,304.2656 Q26,304.5156 26,304.875 Q26,305.2188 25.6563,305.625 Q25.1563,306.2188 24.3594,306.5469 Q23.3125,307 22.0313,307 Q20.5313,307 19.3281,306.4063 Q18.3594,305.9375 17.6719,304.9219 Q17,303.9063 17,302.7031 L17,301.6094 Q17,300.3594 17.5938,299.2656 Q18.2031,298.1719 19.25,297.5938 Q20.3125,297 21.5,297 Q22.2188,297 22.8438,297.25 Q23.4688,297.5 24,298 Z "/><text fill="#000000" font-family="sans-serif" font-size="12" lengthAdjust="spacingAndGlyphs" textLength="73" x="36" y="306.4102">UserSession</text><line style="stroke: #A80036; stroke-width: 1.5;" x1="8" x2="111" y1="317.5" y2="317.5"/><line style="stroke: #A80036; stroke-width: 1.5;" x1="8" x2="111" y1="325.5" y2="325.5"/><text fill="#000000" font-family="sans-serif" font-size="11" lengthAdjust="spacingAndGlyphs" textLength="91" x="13" y="340.9189">+getUserSession()</text><!--MD5=[c8233d1c22a4ca523851f2a343dbb35c]
class DoPayment--><rect codeLine="17" fill="#FEFECE" filter="url(#fr8jo55vs37gf)" height="61.8359" id="DoPayment" style="stroke: #A80036; stroke-width: 1.5;" width="143" x="147" y="285.5"/><ellipse cx="183.15" cy="301.5" fill="#ADD1B2" rx="11" ry="11" style="stroke: #A80036; stroke-width: 1.0;"/><path d="M185.15,298 Q185.3531,297.5 185.5875,297.25 Q185.8219,297 186.0875,297 Q186.5563,297 186.8531,297.2813 Q187.15,297.5625 187.15,298.2188 L187.15,299.7813 Q187.15,300.4375 186.8688,300.7188 Q186.5875,301 186.15,301 Q185.7594,301 185.5094,300.8281 Q185.2594,300.6563 185.15,300.2031 Q185.1031,299.8906 184.9313,299.7188 Q184.6188,299.3906 184.0563,299.2031 Q183.4938,299 182.9313,299 Q182.2281,299 181.6344,299.2813 Q181.0563,299.5625 180.6031,300.1875 Q180.15,300.8125 180.15,301.6719 L180.15,302.5938 Q180.15,303.625 180.9938,304.3125 Q181.8375,305 183.3375,305 Q184.2281,305 184.8531,304.7969 Q185.2125,304.6875 185.6188,304.3281 Q185.8844,304.125 186.025,304.0625 Q186.1656,304 186.3375,304 Q186.6656,304 186.9,304.2656 Q187.15,304.5156 187.15,304.875 Q187.15,305.2188 186.8063,305.625 Q186.3063,306.2188 185.5094,306.5469 Q184.4625,307 183.1813,307 Q181.6813,307 180.4781,306.4063 Q179.5094,305.9375 178.8219,304.9219 Q178.15,303.9063 178.15,302.7031 L178.15,301.6094 Q178.15,300.3594 178.7438,299.2656 Q179.3531,298.1719 180.4,297.5938 Q181.4625,297 182.65,297 Q183.3688,297 183.9938,297.25 Q184.6188,297.5 185.15,298 Z "/><text fill="#000000" font-family="sans-serif" font-size="12" lengthAdjust="spacingAndGlyphs" textLength="64" x="201.85" y="306.4102">DoPayment</text><line style="stroke: #A80036; stroke-width: 1.5;" x1="148" x2="289" y1="317.5" y2="317.5"/><line style="stroke: #A80036; stroke-width: 1.5;" x1="148" x2="289" y1="325.5" y2="325.5"/><text fill="#000000" font-family="sans-serif" font-size="11" lengthAdjust="spacingAndGlyphs" textLength="131" x="153" y="340.9189">+doesPayment(user, price)</text><!--MD5=[a92ce6ac3ddaafef72224c683c68c0d4]
class ClientOrder--><rect codeLine="21" fill="#FEFECE" filter="url(#fr8jo55vs37gf)" height="103.3438" id="ClientOrder" style="stroke: #A80036; stroke-width: 1.5;" width="95" x="325" y="265"/><ellipse cx="340" cy="281" fill="#ADD1B2" rx="11" ry="11" style="stroke: #A80036; stroke-width: 1.0;"/><path d="M342,277.5 Q342.2031,277 342.4375,276.75 Q342.6719,276.5 342.9375,276.5 Q343.4063,276.5 343.7031,276.7813 Q344,277.0625 344,277.7188 L344,279.2813 Q344,279.9375 343.7188,280.2188 Q343.4375,280.5 343,280.5 Q342.6094,280.5 342.3594,280.3281 Q342.1094,280.1563 342,279.7031 Q341.9531,279.3906 341.7813,279.2188 Q341.4688,278.8906 340.9063,278.7031 Q340.3438,278.5 339.7813,278.5 Q339.0781,278.5 338.4844,278.7813 Q337.9063,279.0625 337.4531,279.6875 Q337,280.3125 337,281.1719 L337,282.0938 Q337,283.125 337.8438,283.8125 Q338.6875,284.5 340.1875,284.5 Q341.0781,284.5 341.7031,284.2969 Q342.0625,284.1875 342.4688,283.8281 Q342.7344,283.625 342.875,283.5625 Q343.0156,283.5 343.1875,283.5 Q343.5156,283.5 343.75,283.7656 Q344,284.0156 344,284.375 Q344,284.7188 343.6563,285.125 Q343.1563,285.7188 342.3594,286.0469 Q341.3125,286.5 340.0313,286.5 Q338.5313,286.5 337.3281,285.9063 Q336.3594,285.4375 335.6719,284.4219 Q335,283.4063 335,282.2031 L335,281.1094 Q335,279.8594 335.5938,278.7656 Q336.2031,277.6719 337.25,277.0938 Q338.3125,276.5 339.5,276.5 Q340.2188,276.5 340.8438,276.75 Q341.4688,277 342,277.5 Z "/><text fill="#000000" font-family="sans-serif" font-size="12" lengthAdjust="spacingAndGlyphs" textLength="63" x="354" y="285.9102">ClientOrder</text><line style="stroke: #A80036; stroke-width: 1.5;" x1="326" x2="419" y1="297" y2="297"/><text fill="#000000" font-family="sans-serif" font-size="11" lengthAdjust="spacingAndGlyphs" textLength="24" x="331" y="312.4189">price</text><text fill="#000000" font-family="sans-serif" font-size="11" lengthAdjust="spacingAndGlyphs" textLength="33" x="331" y="326.2549">weight</text><text fill="#000000" font-family="sans-serif" font-size="11" lengthAdjust="spacingAndGlyphs" textLength="31" x="331" y="340.0908">UserId</text><line style="stroke: #A80036; stroke-width: 1.5;" x1="326" x2="419" y1="346.5078" y2="346.5078"/><text fill="#000000" font-family="sans-serif" font-size="11" lengthAdjust="spacingAndGlyphs" textLength="38" x="331" y="361.9268">+save()</text><!--MD5=[8806e557260fb3598decb516dc04693d]
class EmailAPI--><rect codeLine="28" fill="#FEFECE" filter="url(#fr8jo55vs37gf)" height="61.8359" id="EmailAPI" style="stroke: #A80036; stroke-width: 1.5;" width="161" x="455" y="285.5"/><ellipse cx="506.25" cy="301.5" fill="#ADD1B2" rx="11" ry="11" style="stroke: #A80036; stroke-width: 1.0;"/><path d="M508.25,298 Q508.4531,297.5 508.6875,297.25 Q508.9219,297 509.1875,297 Q509.6563,297 509.9531,297.2813 Q510.25,297.5625 510.25,298.2188 L510.25,299.7813 Q510.25,300.4375 509.9688,300.7188 Q509.6875,301 509.25,301 Q508.8594,301 508.6094,300.8281 Q508.3594,300.6563 508.25,300.2031 Q508.2031,299.8906 508.0313,299.7188 Q507.7188,299.3906 507.1563,299.2031 Q506.5938,299 506.0313,299 Q505.3281,299 504.7344,299.2813 Q504.1563,299.5625 503.7031,300.1875 Q503.25,300.8125 503.25,301.6719 L503.25,302.5938 Q503.25,303.625 504.0938,304.3125 Q504.9375,305 506.4375,305 Q507.3281,305 507.9531,304.7969 Q508.3125,304.6875 508.7188,304.3281 Q508.9844,304.125 509.125,304.0625 Q509.2656,304 509.4375,304 Q509.7656,304 510,304.2656 Q510.25,304.5156 510.25,304.875 Q510.25,305.2188 509.9063,305.625 Q509.4063,306.2188 508.6094,306.5469 Q507.5625,307 506.2813,307 Q504.7813,307 503.5781,306.4063 Q502.6094,305.9375 501.9219,304.9219 Q501.25,303.9063 501.25,302.7031 L501.25,301.6094 Q501.25,300.3594 501.8438,299.2656 Q502.4531,298.1719 503.5,297.5938 Q504.5625,297 505.75,297 Q506.4688,297 507.0938,297.25 Q507.7188,297.5 508.25,298 Z "/><text fill="#000000" font-family="sans-serif" font-size="12" lengthAdjust="spacingAndGlyphs" textLength="50" x="526.75" y="306.4102">EmailAPI</text><line style="stroke: #A80036; stroke-width: 1.5;" x1="456" x2="615" y1="317.5" y2="317.5"/><line style="stroke: #A80036; stroke-width: 1.5;" x1="456" x2="615" y1="325.5" y2="325.5"/><text fill="#000000" font-family="sans-serif" font-size="11" lengthAdjust="spacingAndGlyphs" textLength="149" x="461" y="340.9189">+sendEmailToClient(user.email)</text><!--MD5=[5c7a4d7abd76eeeb41f4b8e8bc158236]
class ClientOrderHandler--><rect codeLine="32" fill="#FEFECE" filter="url(#fr8jo55vs37gf)" height="61.8359" id="ClientOrderHandler" style="stroke: #A80036; stroke-width: 1.5;" width="139" x="341" y="428"/><ellipse cx="356" cy="444" fill="#ADD1B2" rx="11" ry="11" style="stroke: #A80036; stroke-width: 1.0;"/><path d="M358,440.5 Q358.2031,440 358.4375,439.75 Q358.6719,439.5 358.9375,439.5 Q359.4063,439.5 359.7031,439.7813 Q360,440.0625 360,440.7188 L360,442.2813 Q360,442.9375 359.7188,443.2188 Q359.4375,443.5 359,443.5 Q358.6094,443.5 358.3594,443.3281 Q358.1094,443.1563 358,442.7031 Q357.9531,442.3906 357.7813,442.2188 Q357.4688,441.8906 356.9063,441.7031 Q356.3438,441.5 355.7813,441.5 Q355.0781,441.5 354.4844,441.7813 Q353.9063,442.0625 353.4531,442.6875 Q353,443.3125 353,444.1719 L353,445.0938 Q353,446.125 353.8438,446.8125 Q354.6875,447.5 356.1875,447.5 Q357.0781,447.5 357.7031,447.2969 Q358.0625,447.1875 358.4688,446.8281 Q358.7344,446.625 358.875,446.5625 Q359.0156,446.5 359.1875,446.5 Q359.5156,446.5 359.75,446.7656 Q360,447.0156 360,447.375 Q360,447.7188 359.6563,448.125 Q359.1563,448.7188 358.3594,449.0469 Q357.3125,449.5 356.0313,449.5 Q354.5313,449.5 353.3281,448.9063 Q352.3594,448.4375 351.6719,447.4219 Q351,446.4063 351,445.2031 L351,444.1094 Q351,442.8594 351.5938,441.7656 Q352.2031,440.6719 353.25,440.0938 Q354.3125,439.5 355.5,439.5 Q356.2188,439.5 356.8438,439.75 Q357.4688,440 358,440.5 Z "/><text fill="#000000" font-family="sans-serif" font-size="12" lengthAdjust="spacingAndGlyphs" textLength="107" x="370" y="448.9102">ClientOrderHandler</text><line style="stroke: #A80036; stroke-width: 1.5;" x1="342" x2="479" y1="460" y2="460"/><line style="stroke: #A80036; stroke-width: 1.5;" x1="342" x2="479" y1="468" y2="468"/><text fill="#000000" font-family="sans-serif" font-size="11" lengthAdjust="spacingAndGlyphs" textLength="54" x="347" y="483.4189">+save(org)</text><!--MD5=[5e8522ee512bbfed5b6b5901719212de]
class InvoiceHandler--><rect codeLine="36" fill="#FEFECE" filter="url(#fr8jo55vs37gf)" height="61.8359" id="InvoiceHandler" style="stroke: #A80036; stroke-width: 1.5;" width="114" x="591.5" y="428"/><ellipse cx="606.5" cy="444" fill="#ADD1B2" rx="11" ry="11" style="stroke: #A80036; stroke-width: 1.0;"/><path d="M608.5,440.5 Q608.7031,440 608.9375,439.75 Q609.1719,439.5 609.4375,439.5 Q609.9063,439.5 610.2031,439.7813 Q610.5,440.0625 610.5,440.7188 L610.5,442.2813 Q610.5,442.9375 610.2188,443.2188 Q609.9375,443.5 609.5,443.5 Q609.1094,443.5 608.8594,443.3281 Q608.6094,443.1563 608.5,442.7031 Q608.4531,442.3906 608.2813,442.2188 Q607.9688,441.8906 607.4063,441.7031 Q606.8438,441.5 606.2813,441.5 Q605.5781,441.5 604.9844,441.7813 Q604.4063,442.0625 603.9531,442.6875 Q603.5,443.3125 603.5,444.1719 L603.5,445.0938 Q603.5,446.125 604.3438,446.8125 Q605.1875,447.5 606.6875,447.5 Q607.5781,447.5 608.2031,447.2969 Q608.5625,447.1875 608.9688,446.8281 Q609.2344,446.625 609.375,446.5625 Q609.5156,446.5 609.6875,446.5 Q610.0156,446.5 610.25,446.7656 Q610.5,447.0156 610.5,447.375 Q610.5,447.7188 610.1563,448.125 Q609.6563,448.7188 608.8594,449.0469 Q607.8125,449.5 606.5313,449.5 Q605.0313,449.5 603.8281,448.9063 Q602.8594,448.4375 602.1719,447.4219 Q601.5,446.4063 601.5,445.2031 L601.5,444.1094 Q601.5,442.8594 602.0938,441.7656 Q602.7031,440.6719 603.75,440.0938 Q604.8125,439.5 606,439.5 Q606.7188,439.5 607.3438,439.75 Q607.9688,440 608.5,440.5 Z "/><text fill="#000000" font-family="sans-serif" font-size="12" lengthAdjust="spacingAndGlyphs" textLength="82" x="620.5" y="448.9102">InvoiceHandler</text><line style="stroke: #A80036; stroke-width: 1.5;" x1="592.5" x2="704.5" y1="460" y2="460"/><line style="stroke: #A80036; stroke-width: 1.5;" x1="592.5" x2="704.5" y1="468" y2="468"/><text fill="#000000" font-family="sans-serif" font-size="11" lengthAdjust="spacingAndGlyphs" textLength="52" x="597.5" y="483.4189">+save(inv)</text><!--MD5=[837d3612090b426002fd1342fcbe6b88]
class DataBase--><rect codeLine="41" fill="#FEFECE" filter="url(#fr8jo55vs37gf)" height="75.6719" id="DataBase" style="stroke: #A80036; stroke-width: 1.5;" width="87" x="486" y="550"/><ellipse cx="501" cy="566" fill="#ADD1B2" rx="11" ry="11" style="stroke: #A80036; stroke-width: 1.0;"/><path d="M503,562.5 Q503.2031,562 503.4375,561.75 Q503.6719,561.5 503.9375,561.5 Q504.4063,561.5 504.7031,561.7813 Q505,562.0625 505,562.7188 L505,564.2813 Q505,564.9375 504.7188,565.2188 Q504.4375,565.5 504,565.5 Q503.6094,565.5 503.3594,565.3281 Q503.1094,565.1563 503,564.7031 Q502.9531,564.3906 502.7813,564.2188 Q502.4688,563.8906 501.9063,563.7031 Q501.3438,563.5 500.7813,563.5 Q500.0781,563.5 499.4844,563.7813 Q498.9063,564.0625 498.4531,564.6875 Q498,565.3125 498,566.1719 L498,567.0938 Q498,568.125 498.8438,568.8125 Q499.6875,569.5 501.1875,569.5 Q502.0781,569.5 502.7031,569.2969 Q503.0625,569.1875 503.4688,568.8281 Q503.7344,568.625 503.875,568.5625 Q504.0156,568.5 504.1875,568.5 Q504.5156,568.5 504.75,568.7656 Q505,569.0156 505,569.375 Q505,569.7188 504.6563,570.125 Q504.1563,570.7188 503.3594,571.0469 Q502.3125,571.5 501.0313,571.5 Q499.5313,571.5 498.3281,570.9063 Q497.3594,570.4375 496.6719,569.4219 Q496,568.4063 496,567.2031 L496,566.1094 Q496,564.8594 496.5938,563.7656 Q497.2031,562.6719 498.25,562.0938 Q499.3125,561.5 500.5,561.5 Q501.2188,561.5 501.8438,561.75 Q502.4688,562 503,562.5 Z "/><text fill="#000000" font-family="sans-serif" font-size="12" lengthAdjust="spacingAndGlyphs" textLength="55" x="515" y="570.9102">DataBase</text><line style="stroke: #A80036; stroke-width: 1.5;" x1="487" x2="572" y1="582" y2="582"/><line style="stroke: #A80036; stroke-width: 1.5;" x1="487" x2="572" y1="590" y2="590"/><text fill="#000000" font-family="sans-serif" font-size="11" lengthAdjust="spacingAndGlyphs" textLength="54" x="492" y="605.4189">+save(ord)</text><text fill="#000000" font-family="sans-serif" font-size="11" lengthAdjust="spacingAndGlyphs" textLength="52" x="492" y="619.2549">+save(inv)</text><!--MD5=[894442645724153f40a9f7a43026dbfc]
class Invoice--><rect codeLine="46" fill="#FEFECE" filter="url(#fr8jo55vs37gf)" height="75.6719" id="Invoice" style="stroke: #A80036; stroke-width: 1.5;" width="70" x="651.5" y="278.5"/><ellipse cx="666.5" cy="294.5" fill="#ADD1B2" rx="11" ry="11" style="stroke: #A80036; stroke-width: 1.0;"/><path d="M668.5,291 Q668.7031,290.5 668.9375,290.25 Q669.1719,290 669.4375,290 Q669.9063,290 670.2031,290.2813 Q670.5,290.5625 670.5,291.2188 L670.5,292.7813 Q670.5,293.4375 670.2188,293.7188 Q669.9375,294 669.5,294 Q669.1094,294 668.8594,293.8281 Q668.6094,293.6563 668.5,293.2031 Q668.4531,292.8906 668.2813,292.7188 Q667.9688,292.3906 667.4063,292.2031 Q666.8438,292 666.2813,292 Q665.5781,292 664.9844,292.2813 Q664.4063,292.5625 663.9531,293.1875 Q663.5,293.8125 663.5,294.6719 L663.5,295.5938 Q663.5,296.625 664.3438,297.3125 Q665.1875,298 666.6875,298 Q667.5781,298 668.2031,297.7969 Q668.5625,297.6875 668.9688,297.3281 Q669.2344,297.125 669.375,297.0625 Q669.5156,297 669.6875,297 Q670.0156,297 670.25,297.2656 Q670.5,297.5156 670.5,297.875 Q670.5,298.2188 670.1563,298.625 Q669.6563,299.2188 668.8594,299.5469 Q667.8125,300 666.5313,300 Q665.0313,300 663.8281,299.4063 Q662.8594,298.9375 662.1719,297.9219 Q661.5,296.9063 661.5,295.7031 L661.5,294.6094 Q661.5,293.3594 662.0938,292.2656 Q662.7031,291.1719 663.75,290.5938 Q664.8125,290 666,290 Q666.7188,290 667.3438,290.25 Q667.9688,290.5 668.5,291 Z "/><text fill="#000000" font-family="sans-serif" font-size="12" lengthAdjust="spacingAndGlyphs" textLength="38" x="680.5" y="299.4102">Invoice</text><line style="stroke: #A80036; stroke-width: 1.5;" x1="652.5" x2="720.5" y1="310.5" y2="310.5"/><text fill="#000000" font-family="sans-serif" font-size="11" lengthAdjust="spacingAndGlyphs" textLength="24" x="657.5" y="325.9189">price</text><line style="stroke: #A80036; stroke-width: 1.5;" x1="652.5" x2="720.5" y1="332.3359" y2="332.3359"/><text fill="#000000" font-family="sans-serif" font-size="11" lengthAdjust="spacingAndGlyphs" textLength="38" x="657.5" y="347.7549">+save()</text><!--MD5=[a33db0d80ced535b8a227b1bfa5f1363]
link ClientUI to CheckoutController--><path codeLine="51" d="M372.5,55.294 C372.5,70.479 372.5,90.876 372.5,109.563 " fill="none" id="ClientUI-to-CheckoutController" style="stroke: #A80036; stroke-width: 1.0; stroke-dasharray: 7.0,7.0;"/><polygon fill="#A80036" points="372.5,114.782,376.5,105.782,372.5,109.782,368.5,105.782,372.5,114.782" style="stroke: #A80036; stroke-width: 1.0;"/><!--MD5=[ac3fef0fa198ef2f9aa79cee28ffae50]
link CheckoutController to UserSession--><path codeLine="52" d="M303.278,185.924 C253.576,204.935 185.721,233.206 129.5,265 C120.42,270.135 111.103,276.211 102.3481,282.337 " fill="none" id="CheckoutController-to-UserSession" style="stroke: #A80036; stroke-width: 1.0; stroke-dasharray: 7.0,7.0;"/><polygon fill="#A80036" points="98.0991,285.344,107.7562,283.4098,102.1804,282.4555,103.1346,276.8798,98.0991,285.344" style="stroke: #A80036; stroke-width: 1.0;"/><!--MD5=[9777a72f1f38caac4cb740672a9bbed9]
link CheckoutController to ClientOrder--><path codeLine="53" d="M372.5,205.273 C372.5,222.308 372.5,241.977 372.5,259.942 " fill="none" id="CheckoutController-to-ClientOrder" style="stroke: #A80036; stroke-width: 1.0; stroke-dasharray: 7.0,7.0;"/><polygon fill="#A80036" points="372.5,264.96,376.5,255.96,372.5,259.96,368.5,255.96,372.5,264.96" style="stroke: #A80036; stroke-width: 1.0;"/><!--MD5=[979e0bc9b5b74cae1e34b7cd482b0927]
link CheckoutController to DoPayment--><path codeLine="54" d="M328.37,205.273 C304.172,229.55 274.643,259.175 252.294,281.596 " fill="none" id="CheckoutController-to-DoPayment" style="stroke: #A80036; stroke-width: 1.0; stroke-dasharray: 7.0,7.0;"/><polygon fill="#A80036" points="248.49,285.413,257.6767,281.8626,252.0198,281.8718,252.0107,276.2149,248.49,285.413" style="stroke: #A80036; stroke-width: 1.0;"/><!--MD5=[c4228ee369173e01a1fab6505b278081]
link CheckoutController to Invoice--><path codeLine="55" d="M441.609,180.544 C496.305,197.845 573.244,226.36 633.5,265 C638.169,267.994 642.786,271.435 647.234,275.083 " fill="none" id="CheckoutController-to-Invoice" style="stroke: #A80036; stroke-width: 1.0; stroke-dasharray: 7.0,7.0;"/><polygon fill="#A80036" points="651.267,278.485,646.9678,269.624,647.4455,275.2607,641.8089,275.7384,651.267,278.485" style="stroke: #A80036; stroke-width: 1.0;"/><!--MD5=[6a1c7daa4fda144eb68ad438293ba67e]
link CheckoutController to EmailAPI--><path codeLine="56" d="M419.209,205.273 C444.927,229.65 476.334,259.42 500.024,281.874 " fill="none" id="CheckoutController-to-EmailAPI" style="stroke: #A80036; stroke-width: 1.0; stroke-dasharray: 7.0,7.0;"/><polygon fill="#A80036" points="503.758,285.413,499.9786,276.3182,500.1294,281.973,494.4746,282.1239,503.758,285.413" style="stroke: #A80036; stroke-width: 1.0;"/><!--MD5=[ab3f6bad2cddb40e01cbe489ff74bd99]
link ClientOrder to ClientOrderHandler--><path codeLine="57" d="M386.219,368.224 C391.112,386.317 396.514,406.288 400.977,422.79 " fill="none" id="ClientOrder-to-ClientOrderHandler" style="stroke: #A80036; stroke-width: 1.0; stroke-dasharray: 7.0,7.0;"/><polygon fill="#A80036" points="402.331,427.795,403.8415,418.0627,401.0251,422.9686,396.1192,420.1521,402.331,427.795" style="stroke: #A80036; stroke-width: 1.0;"/><!--MD5=[28c738bf1c5f8a6b3de45657554824f1]
link ClientOrderHandler to DataBase--><path codeLine="58" d="M438.701,490.097 C454.292,506.736 473.892,527.6532 490.887,545.7909 " fill="none" id="ClientOrderHandler-to-DataBase" style="stroke: #A80036; stroke-width: 1.0; stroke-dasharray: 7.0,7.0;"/><polygon fill="#A80036" points="494.695,549.8555,491.46,540.5531,491.2762,546.207,485.6223,546.0232,494.695,549.8555" style="stroke: #A80036; stroke-width: 1.0;"/><!--MD5=[da280df1010a8f1f9d49fb2780b7d68b]
link Invoice to InvoiceHandler--><path codeLine="59" d="M676.416,354.783 C670.717,375.856 663.633,402.049 658.027,422.775 " fill="none" id="Invoice-to-InvoiceHandler" style="stroke: #A80036; stroke-width: 1.0; stroke-dasharray: 7.0,7.0;"/><polygon fill="#A80036" points="656.709,427.649,662.9202,420.0057,658.0146,422.8225,655.1978,417.9168,656.709,427.649" style="stroke: #A80036; stroke-width: 1.0;"/><!--MD5=[765e0f06380df0132f5ceee068302c47]
link InvoiceHandler to DataBase--><path codeLine="60" d="M620.299,490.097 C604.708,506.736 585.108,527.6532 568.113,545.7909 " fill="none" id="InvoiceHandler-to-DataBase" style="stroke: #A80036; stroke-width: 1.0; stroke-dasharray: 7.0,7.0;"/><polygon fill="#A80036" points="564.305,549.8555,573.3777,546.0232,567.7238,546.207,567.54,540.5531,564.305,549.8555" style="stroke: #A80036; stroke-width: 1.0;"/><!--MD5=[c2e05f820ef91c1b78ef7efcac7f0b80]
@startuml
skinparam classAttributeIconSize 0


class ClientUI {
}

class CheckoutController {
  +checkoutProcess(cart)
  +getCartPrice(cart)
  +getCartWeight(cart)
}

class UserSession {
    +getUserSession()
}

class DoPayment{
    +doesPayment(user, price)
}

class ClientOrder{
    price
    weight
    UserId
    +save()
}

class EmailAPI {
    +sendEmailToClient(user.email)
}

class ClientOrderHandler{
    +save(org)
}

class InvoiceHandler{
    +save(inv)
}


class DataBase{
    +save(ord)
    +save(inv)
}

class Invoice{
    price
    +save()
}

ClientUI ..> CheckoutController
CheckoutController ..> UserSession
CheckoutController ..> ClientOrder
CheckoutController ..> DoPayment
CheckoutController ..> Invoice
CheckoutController ..> EmailAPI
ClientOrder ..> ClientOrderHandler
ClientOrderHandler ..> DataBase
Invoice ..> InvoiceHandler
InvoiceHandler ..> DataBase




@enduml

PlantUML version 1.2020.19(Mon Oct 12 16:10:01 BST 2020)
(GPL source distribution)
Java Runtime: OpenJDK Runtime Environment
JVM: OpenJDK 64-Bit Server VM
Default Encoding: Cp1252
Language: pt
Country: PT
--></g></svg>