<?xml version="1.0" encoding="UTF-8" standalone="no"?><svg xmlns="http://www.w3.org/2000/svg" xmlns:xlink="http://www.w3.org/1999/xlink" contentScriptType="application/ecmascript" contentStyleType="text/css" height="569px" preserveAspectRatio="none" style="width:994px;height:569px;" version="1.1" viewBox="0 0 994 569" width="994px" zoomAndPan="magnify"><defs><filter height="300%" id="fl55wzshddo07" width="300%" x="-1" y="-1"><feGaussianBlur result="blurOut" stdDeviation="2.0"/><feColorMatrix in="blurOut" result="blurOut2" type="matrix" values="0 0 0 0 0 0 0 0 0 0 0 0 0 0 0 0 0 0 .4 0"/><feOffset dx="4.0" dy="4.0" in="blurOut2" result="blurOut3"/><feBlend in="SourceGraphic" in2="blurOut3" mode="normal"/></filter></defs><g><!--MD5=[ed6624c6556d5e7b1bd23032162d20b7]
class Client--><rect codeLine="7" fill="#FEFECE" filter="url(#fl55wzshddo07)" height="109.1797" id="Client" style="stroke: #A80036; stroke-width: 1.5;" width="97" x="7" y="316"/><ellipse cx="36.85" cy="332" fill="#ADD1B2" rx="11" ry="11" style="stroke: #A80036; stroke-width: 1.0;"/><path d="M38.85,328.5 Q39.0531,328 39.2875,327.75 Q39.5219,327.5 39.7875,327.5 Q40.2563,327.5 40.5531,327.7813 Q40.85,328.0625 40.85,328.7188 L40.85,330.2813 Q40.85,330.9375 40.5688,331.2188 Q40.2875,331.5 39.85,331.5 Q39.4594,331.5 39.2094,331.3281 Q38.9594,331.1563 38.85,330.7031 Q38.8031,330.3906 38.6313,330.2188 Q38.3188,329.8906 37.7563,329.7031 Q37.1938,329.5 36.6313,329.5 Q35.9281,329.5 35.3344,329.7813 Q34.7563,330.0625 34.3031,330.6875 Q33.85,331.3125 33.85,332.1719 L33.85,333.0938 Q33.85,334.125 34.6938,334.8125 Q35.5375,335.5 37.0375,335.5 Q37.9281,335.5 38.5531,335.2969 Q38.9125,335.1875 39.3188,334.8281 Q39.5844,334.625 39.725,334.5625 Q39.8656,334.5 40.0375,334.5 Q40.3656,334.5 40.6,334.7656 Q40.85,335.0156 40.85,335.375 Q40.85,335.7188 40.5063,336.125 Q40.0063,336.7188 39.2094,337.0469 Q38.1625,337.5 36.8813,337.5 Q35.3813,337.5 34.1781,336.9063 Q33.2094,336.4375 32.5219,335.4219 Q31.85,334.4063 31.85,333.2031 L31.85,332.1094 Q31.85,330.8594 32.4438,329.7656 Q33.0531,328.6719 34.1,328.0938 Q35.1625,327.5 36.35,327.5 Q37.0688,327.5 37.6938,327.75 Q38.3188,328 38.85,328.5 Z "/><text fill="#000000" font-family="sans-serif" font-size="12" lengthAdjust="spacingAndGlyphs" textLength="32" x="54.15" y="336.9102">Client</text><line style="stroke: #A80036; stroke-width: 1.5;" x1="8" x2="103" y1="348" y2="348"/><text fill="#000000" font-family="sans-serif" font-size="11" lengthAdjust="spacingAndGlyphs" textLength="61" x="13" y="363.4189">-String name</text><text fill="#000000" font-family="sans-serif" font-size="11" lengthAdjust="spacingAndGlyphs" textLength="59" x="13" y="377.2549">-String email</text><text fill="#000000" font-family="sans-serif" font-size="11" lengthAdjust="spacingAndGlyphs" textLength="30" x="13" y="391.0908">-int nif</text><text fill="#000000" font-family="sans-serif" font-size="11" lengthAdjust="spacingAndGlyphs" textLength="85" x="13" y="404.9268">-String password</text><text fill="#000000" font-family="sans-serif" font-size="11" lengthAdjust="spacingAndGlyphs" textLength="51" x="13" y="418.7627">-int credits</text><!--MD5=[a608780e30028417ceff2d6f0d878efa]
class Cart--><rect codeLine="18" fill="#FEFECE" filter="url(#fl55wzshddo07)" height="95.3438" id="Cart" style="stroke: #A80036; stroke-width: 1.5;" width="107" x="217" y="7"/><ellipse cx="255.4" cy="23" fill="#ADD1B2" rx="11" ry="11" style="stroke: #A80036; stroke-width: 1.0;"/><path d="M257.4,19.5 Q257.6031,19 257.8375,18.75 Q258.0719,18.5 258.3375,18.5 Q258.8063,18.5 259.1031,18.7813 Q259.4,19.0625 259.4,19.7188 L259.4,21.2813 Q259.4,21.9375 259.1188,22.2188 Q258.8375,22.5 258.4,22.5 Q258.0094,22.5 257.7594,22.3281 Q257.5094,22.1563 257.4,21.7031 Q257.3531,21.3906 257.1813,21.2188 Q256.8688,20.8906 256.3063,20.7031 Q255.7438,20.5 255.1813,20.5 Q254.4781,20.5 253.8844,20.7813 Q253.3063,21.0625 252.8531,21.6875 Q252.4,22.3125 252.4,23.1719 L252.4,24.0938 Q252.4,25.125 253.2438,25.8125 Q254.0875,26.5 255.5875,26.5 Q256.4781,26.5 257.1031,26.2969 Q257.4625,26.1875 257.8688,25.8281 Q258.1344,25.625 258.275,25.5625 Q258.4156,25.5 258.5875,25.5 Q258.9156,25.5 259.15,25.7656 Q259.4,26.0156 259.4,26.375 Q259.4,26.7188 259.0563,27.125 Q258.5563,27.7188 257.7594,28.0469 Q256.7125,28.5 255.4313,28.5 Q253.9313,28.5 252.7281,27.9063 Q251.7594,27.4375 251.0719,26.4219 Q250.4,25.4063 250.4,24.2031 L250.4,23.1094 Q250.4,21.8594 250.9938,20.7656 Q251.6031,19.6719 252.65,19.0938 Q253.7125,18.5 254.9,18.5 Q255.6188,18.5 256.2438,18.75 Q256.8688,19 257.4,19.5 Z "/><text fill="#000000" font-family="sans-serif" font-size="12" lengthAdjust="spacingAndGlyphs" textLength="23" x="274.6" y="27.9102">Cart</text><line style="stroke: #A80036; stroke-width: 1.5;" x1="218" x2="323" y1="39" y2="39"/><text fill="#000000" font-family="sans-serif" font-size="11" lengthAdjust="spacingAndGlyphs" textLength="43" x="223" y="54.4189">-String id</text><text fill="#000000" font-family="sans-serif" font-size="11" lengthAdjust="spacingAndGlyphs" textLength="95" x="223" y="68.2549">-int productQuantity</text><text fill="#000000" font-family="sans-serif" font-size="11" lengthAdjust="spacingAndGlyphs" textLength="83" x="223" y="82.0908">-double finalPrice</text><text fill="#000000" font-family="sans-serif" font-size="11" lengthAdjust="spacingAndGlyphs" textLength="92" x="223" y="95.9268">-double finalWeight</text><!--MD5=[cf4d6237fcae255cd2e1656cf84a30e2]
class Order--><rect codeLine="25" fill="#FEFECE" filter="url(#fl55wzshddo07)" height="81.5078" id="Order" style="stroke: #A80036; stroke-width: 1.5;" width="87" x="467" y="134.5"/><ellipse cx="492.8" cy="150.5" fill="#ADD1B2" rx="11" ry="11" style="stroke: #A80036; stroke-width: 1.0;"/><path d="M494.8,147 Q495.0031,146.5 495.2375,146.25 Q495.4719,146 495.7375,146 Q496.2063,146 496.5031,146.2813 Q496.8,146.5625 496.8,147.2188 L496.8,148.7813 Q496.8,149.4375 496.5188,149.7188 Q496.2375,150 495.8,150 Q495.4094,150 495.1594,149.8281 Q494.9094,149.6563 494.8,149.2031 Q494.7531,148.8906 494.5813,148.7188 Q494.2688,148.3906 493.7063,148.2031 Q493.1438,148 492.5813,148 Q491.8781,148 491.2844,148.2813 Q490.7063,148.5625 490.2531,149.1875 Q489.8,149.8125 489.8,150.6719 L489.8,151.5938 Q489.8,152.625 490.6438,153.3125 Q491.4875,154 492.9875,154 Q493.8781,154 494.5031,153.7969 Q494.8625,153.6875 495.2688,153.3281 Q495.5344,153.125 495.675,153.0625 Q495.8156,153 495.9875,153 Q496.3156,153 496.55,153.2656 Q496.8,153.5156 496.8,153.875 Q496.8,154.2188 496.4563,154.625 Q495.9563,155.2188 495.1594,155.5469 Q494.1125,156 492.8313,156 Q491.3313,156 490.1281,155.4063 Q489.1594,154.9375 488.4719,153.9219 Q487.8,152.9063 487.8,151.7031 L487.8,150.6094 Q487.8,149.3594 488.3938,148.2656 Q489.0031,147.1719 490.05,146.5938 Q491.1125,146 492.3,146 Q493.0188,146 493.6438,146.25 Q494.2688,146.5 494.8,147 Z "/><text fill="#000000" font-family="sans-serif" font-size="12" lengthAdjust="spacingAndGlyphs" textLength="31" x="509.2" y="155.4102">Order</text><line style="stroke: #A80036; stroke-width: 1.5;" x1="468" x2="553" y1="166.5" y2="166.5"/><text fill="#000000" font-family="sans-serif" font-size="11" lengthAdjust="spacingAndGlyphs" textLength="71" x="473" y="181.9189">-String number</text><text fill="#000000" font-family="sans-serif" font-size="11" lengthAdjust="spacingAndGlyphs" textLength="56" x="473" y="195.7549">-String date</text><text fill="#000000" font-family="sans-serif" font-size="11" lengthAdjust="spacingAndGlyphs" textLength="75" x="473" y="209.5908">-boolean status</text><!--MD5=[894442645724153f40a9f7a43026dbfc]
class Invoice--><rect codeLine="31" fill="#FEFECE" filter="url(#fl55wzshddo07)" height="81.5078" id="Invoice" style="stroke: #A80036; stroke-width: 1.5;" width="95" x="691.5" y="346.5"/><ellipse cx="717.75" cy="362.5" fill="#ADD1B2" rx="11" ry="11" style="stroke: #A80036; stroke-width: 1.0;"/><path d="M719.75,359 Q719.9531,358.5 720.1875,358.25 Q720.4219,358 720.6875,358 Q721.1563,358 721.4531,358.2813 Q721.75,358.5625 721.75,359.2188 L721.75,360.7813 Q721.75,361.4375 721.4688,361.7188 Q721.1875,362 720.75,362 Q720.3594,362 720.1094,361.8281 Q719.8594,361.6563 719.75,361.2031 Q719.7031,360.8906 719.5313,360.7188 Q719.2188,360.3906 718.6563,360.2031 Q718.0938,360 717.5313,360 Q716.8281,360 716.2344,360.2813 Q715.6563,360.5625 715.2031,361.1875 Q714.75,361.8125 714.75,362.6719 L714.75,363.5938 Q714.75,364.625 715.5938,365.3125 Q716.4375,366 717.9375,366 Q718.8281,366 719.4531,365.7969 Q719.8125,365.6875 720.2188,365.3281 Q720.4844,365.125 720.625,365.0625 Q720.7656,365 720.9375,365 Q721.2656,365 721.5,365.2656 Q721.75,365.5156 721.75,365.875 Q721.75,366.2188 721.4063,366.625 Q720.9063,367.2188 720.1094,367.5469 Q719.0625,368 717.7813,368 Q716.2813,368 715.0781,367.4063 Q714.1094,366.9375 713.4219,365.9219 Q712.75,364.9063 712.75,363.7031 L712.75,362.6094 Q712.75,361.3594 713.3438,360.2656 Q713.9531,359.1719 715,358.5938 Q716.0625,358 717.25,358 Q717.9688,358 718.5938,358.25 Q719.2188,358.5 719.75,359 Z "/><text fill="#000000" font-family="sans-serif" font-size="12" lengthAdjust="spacingAndGlyphs" textLength="38" x="734.25" y="367.4102">Invoice</text><line style="stroke: #A80036; stroke-width: 1.5;" x1="692.5" x2="785.5" y1="378.5" y2="378.5"/><text fill="#000000" font-family="sans-serif" font-size="11" lengthAdjust="spacingAndGlyphs" textLength="71" x="697.5" y="393.9189">-String number</text><text fill="#000000" font-family="sans-serif" font-size="11" lengthAdjust="spacingAndGlyphs" textLength="56" x="697.5" y="407.7549">-String date</text><text fill="#000000" font-family="sans-serif" font-size="11" lengthAdjust="spacingAndGlyphs" textLength="83" x="697.5" y="421.5908">-double finalPrice</text><!--MD5=[a4cb0f987c11031dc931233a0e7767af]
class Stock--><rect codeLine="37" fill="#FEFECE" filter="url(#fl55wzshddo07)" height="67.6719" id="Stock" style="stroke: #A80036; stroke-width: 1.5;" width="93" x="887" y="76.5"/><ellipse cx="915.95" cy="92.5" fill="#ADD1B2" rx="11" ry="11" style="stroke: #A80036; stroke-width: 1.0;"/><path d="M917.95,89 Q918.1531,88.5 918.3875,88.25 Q918.6219,88 918.8875,88 Q919.3563,88 919.6531,88.2813 Q919.95,88.5625 919.95,89.2188 L919.95,90.7813 Q919.95,91.4375 919.6688,91.7188 Q919.3875,92 918.95,92 Q918.5594,92 918.3094,91.8281 Q918.0594,91.6563 917.95,91.2031 Q917.9031,90.8906 917.7313,90.7188 Q917.4188,90.3906 916.8563,90.2031 Q916.2938,90 915.7313,90 Q915.0281,90 914.4344,90.2813 Q913.8563,90.5625 913.4031,91.1875 Q912.95,91.8125 912.95,92.6719 L912.95,93.5938 Q912.95,94.625 913.7938,95.3125 Q914.6375,96 916.1375,96 Q917.0281,96 917.6531,95.7969 Q918.0125,95.6875 918.4188,95.3281 Q918.6844,95.125 918.825,95.0625 Q918.9656,95 919.1375,95 Q919.4656,95 919.7,95.2656 Q919.95,95.5156 919.95,95.875 Q919.95,96.2188 919.6063,96.625 Q919.1063,97.2188 918.3094,97.5469 Q917.2625,98 915.9813,98 Q914.4813,98 913.2781,97.4063 Q912.3094,96.9375 911.6219,95.9219 Q910.95,94.9063 910.95,93.7031 L910.95,92.6094 Q910.95,91.3594 911.5438,90.2656 Q912.1531,89.1719 913.2,88.5938 Q914.2625,88 915.45,88 Q916.1688,88 916.7938,88.25 Q917.4188,88.5 917.95,89 Z "/><text fill="#000000" font-family="sans-serif" font-size="12" lengthAdjust="spacingAndGlyphs" textLength="30" x="933.05" y="97.4102">Stock</text><line style="stroke: #A80036; stroke-width: 1.5;" x1="888" x2="979" y1="108.5" y2="108.5"/><text fill="#000000" font-family="sans-serif" font-size="11" lengthAdjust="spacingAndGlyphs" textLength="81" x="893" y="123.9189">-String productID</text><text fill="#000000" font-family="sans-serif" font-size="11" lengthAdjust="spacingAndGlyphs" textLength="56" x="893" y="137.7549">-int quantity</text><!--MD5=[72136138052d025cffdce3c22fbd185f]
class Product--><rect codeLine="42" fill="#FEFECE" filter="url(#fl55wzshddo07)" height="109.1797" id="Product" style="stroke: #A80036; stroke-width: 1.5;" width="100" x="689" y="56"/><ellipse cx="715.7" cy="72" fill="#ADD1B2" rx="11" ry="11" style="stroke: #A80036; stroke-width: 1.0;"/><path d="M717.7,68.5 Q717.9031,68 718.1375,67.75 Q718.3719,67.5 718.6375,67.5 Q719.1063,67.5 719.4031,67.7813 Q719.7,68.0625 719.7,68.7188 L719.7,70.2813 Q719.7,70.9375 719.4188,71.2188 Q719.1375,71.5 718.7,71.5 Q718.3094,71.5 718.0594,71.3281 Q717.8094,71.1563 717.7,70.7031 Q717.6531,70.3906 717.4813,70.2188 Q717.1688,69.8906 716.6063,69.7031 Q716.0438,69.5 715.4813,69.5 Q714.7781,69.5 714.1844,69.7813 Q713.6063,70.0625 713.1531,70.6875 Q712.7,71.3125 712.7,72.1719 L712.7,73.0938 Q712.7,74.125 713.5438,74.8125 Q714.3875,75.5 715.8875,75.5 Q716.7781,75.5 717.4031,75.2969 Q717.7625,75.1875 718.1688,74.8281 Q718.4344,74.625 718.575,74.5625 Q718.7156,74.5 718.8875,74.5 Q719.2156,74.5 719.45,74.7656 Q719.7,75.0156 719.7,75.375 Q719.7,75.7188 719.3563,76.125 Q718.8563,76.7188 718.0594,77.0469 Q717.0125,77.5 715.7313,77.5 Q714.2313,77.5 713.0281,76.9063 Q712.0594,76.4375 711.3719,75.4219 Q710.7,74.4063 710.7,73.2031 L710.7,72.1094 Q710.7,70.8594 711.2938,69.7656 Q711.9031,68.6719 712.95,68.0938 Q714.0125,67.5 715.2,67.5 Q715.9188,67.5 716.5438,67.75 Q717.1688,68 717.7,68.5 Z "/><text fill="#000000" font-family="sans-serif" font-size="12" lengthAdjust="spacingAndGlyphs" textLength="42" x="732.3" y="76.9102">Product</text><line style="stroke: #A80036; stroke-width: 1.5;" x1="690" x2="788" y1="88" y2="88"/><text fill="#000000" font-family="sans-serif" font-size="11" lengthAdjust="spacingAndGlyphs" textLength="43" x="695" y="103.4189">-String id</text><text fill="#000000" font-family="sans-serif" font-size="11" lengthAdjust="spacingAndGlyphs" textLength="61" x="695" y="117.2549">-String name</text><text fill="#000000" font-family="sans-serif" font-size="11" lengthAdjust="spacingAndGlyphs" textLength="88" x="695" y="131.0908">-String description</text><text fill="#000000" font-family="sans-serif" font-size="11" lengthAdjust="spacingAndGlyphs" textLength="63" x="695" y="144.9268">-double price</text><text fill="#000000" font-family="sans-serif" font-size="11" lengthAdjust="spacingAndGlyphs" textLength="72" x="695" y="158.7627">-double weight</text><!--MD5=[0f39e4cb6f03951afbf6d14bd2505654]
class Address--><rect codeLine="50" fill="#FEFECE" filter="url(#fl55wzshddo07)" height="81.5078" id="Address" style="stroke: #A80036; stroke-width: 1.5;" width="94" x="223.5" y="267.5"/><ellipse cx="245.7" cy="283.5" fill="#ADD1B2" rx="11" ry="11" style="stroke: #A80036; stroke-width: 1.0;"/><path d="M247.7,280 Q247.9031,279.5 248.1375,279.25 Q248.3719,279 248.6375,279 Q249.1063,279 249.4031,279.2813 Q249.7,279.5625 249.7,280.2188 L249.7,281.7813 Q249.7,282.4375 249.4188,282.7188 Q249.1375,283 248.7,283 Q248.3094,283 248.0594,282.8281 Q247.8094,282.6563 247.7,282.2031 Q247.6531,281.8906 247.4813,281.7188 Q247.1688,281.3906 246.6063,281.2031 Q246.0438,281 245.4813,281 Q244.7781,281 244.1844,281.2813 Q243.6063,281.5625 243.1531,282.1875 Q242.7,282.8125 242.7,283.6719 L242.7,284.5938 Q242.7,285.625 243.5438,286.3125 Q244.3875,287 245.8875,287 Q246.7781,287 247.4031,286.7969 Q247.7625,286.6875 248.1688,286.3281 Q248.4344,286.125 248.575,286.0625 Q248.7156,286 248.8875,286 Q249.2156,286 249.45,286.2656 Q249.7,286.5156 249.7,286.875 Q249.7,287.2188 249.3563,287.625 Q248.8563,288.2188 248.0594,288.5469 Q247.0125,289 245.7313,289 Q244.2313,289 243.0281,288.4063 Q242.0594,287.9375 241.3719,286.9219 Q240.7,285.9063 240.7,284.7031 L240.7,283.6094 Q240.7,282.3594 241.2938,281.2656 Q241.9031,280.1719 242.95,279.5938 Q244.0125,279 245.2,279 Q245.9188,279 246.5438,279.25 Q247.1688,279.5 247.7,280 Z "/><text fill="#000000" font-family="sans-serif" font-size="12" lengthAdjust="spacingAndGlyphs" textLength="46" x="261.3" y="288.4102">Address</text><line style="stroke: #A80036; stroke-width: 1.5;" x1="224.5" x2="316.5" y1="299.5" y2="299.5"/><text fill="#000000" font-family="sans-serif" font-size="11" lengthAdjust="spacingAndGlyphs" textLength="73" x="229.5" y="314.9189">-double latitude</text><text fill="#000000" font-family="sans-serif" font-size="11" lengthAdjust="spacingAndGlyphs" textLength="82" x="229.5" y="328.7549">-double longitude</text><text fill="#000000" font-family="sans-serif" font-size="11" lengthAdjust="spacingAndGlyphs" textLength="63" x="229.5" y="342.5908">-String street</text><!--MD5=[91d4151b6d4c9a3d01b6d84b2458eece]
class CreditCard--><rect codeLine="56" fill="#FEFECE" filter="url(#fl55wzshddo07)" height="95.3438" id="CreditCard" style="stroke: #A80036; stroke-width: 1.5;" width="106" x="217.5" y="385"/><ellipse cx="238.8" cy="401" fill="#ADD1B2" rx="11" ry="11" style="stroke: #A80036; stroke-width: 1.0;"/><path d="M240.8,397.5 Q241.0031,397 241.2375,396.75 Q241.4719,396.5 241.7375,396.5 Q242.2063,396.5 242.5031,396.7813 Q242.8,397.0625 242.8,397.7188 L242.8,399.2813 Q242.8,399.9375 242.5188,400.2188 Q242.2375,400.5 241.8,400.5 Q241.4094,400.5 241.1594,400.3281 Q240.9094,400.1563 240.8,399.7031 Q240.7531,399.3906 240.5813,399.2188 Q240.2688,398.8906 239.7063,398.7031 Q239.1438,398.5 238.5813,398.5 Q237.8781,398.5 237.2844,398.7813 Q236.7063,399.0625 236.2531,399.6875 Q235.8,400.3125 235.8,401.1719 L235.8,402.0938 Q235.8,403.125 236.6438,403.8125 Q237.4875,404.5 238.9875,404.5 Q239.8781,404.5 240.5031,404.2969 Q240.8625,404.1875 241.2688,403.8281 Q241.5344,403.625 241.675,403.5625 Q241.8156,403.5 241.9875,403.5 Q242.3156,403.5 242.55,403.7656 Q242.8,404.0156 242.8,404.375 Q242.8,404.7188 242.4563,405.125 Q241.9563,405.7188 241.1594,406.0469 Q240.1125,406.5 238.8313,406.5 Q237.3313,406.5 236.1281,405.9063 Q235.1594,405.4375 234.4719,404.4219 Q233.8,403.4063 233.8,402.2031 L233.8,401.1094 Q233.8,399.8594 234.3938,398.7656 Q235.0031,397.6719 236.05,397.0938 Q237.1125,396.5 238.3,396.5 Q239.0188,396.5 239.6438,396.75 Q240.2688,397 240.8,397.5 Z "/><text fill="#000000" font-family="sans-serif" font-size="12" lengthAdjust="spacingAndGlyphs" textLength="60" x="254.2" y="405.9102">CreditCard</text><line style="stroke: #A80036; stroke-width: 1.5;" x1="218.5" x2="322.5" y1="417" y2="417"/><text fill="#000000" font-family="sans-serif" font-size="11" lengthAdjust="spacingAndGlyphs" textLength="54" x="223.5" y="432.4189">-int number</text><text fill="#000000" font-family="sans-serif" font-size="11" lengthAdjust="spacingAndGlyphs" textLength="94" x="223.5" y="446.2549">-int monthExpiration</text><text fill="#000000" font-family="sans-serif" font-size="11" lengthAdjust="spacingAndGlyphs" textLength="87" x="223.5" y="460.0908">-int yearExpiration</text><text fill="#000000" font-family="sans-serif" font-size="11" lengthAdjust="spacingAndGlyphs" textLength="36" x="223.5" y="473.9268">-int ccv</text><!--MD5=[fff5db4abcb6eec6574b9ea9c3ee0eae]
class Delivery--><rect codeLine="64" fill="#FEFECE" filter="url(#fl55wzshddo07)" height="95.3438" id="Delivery" style="stroke: #A80036; stroke-width: 1.5;" width="137" x="202" y="137"/><ellipse cx="244.9" cy="153" fill="#ADD1B2" rx="11" ry="11" style="stroke: #A80036; stroke-width: 1.0;"/><path d="M246.9,149.5 Q247.1031,149 247.3375,148.75 Q247.5719,148.5 247.8375,148.5 Q248.3063,148.5 248.6031,148.7813 Q248.9,149.0625 248.9,149.7188 L248.9,151.2813 Q248.9,151.9375 248.6188,152.2188 Q248.3375,152.5 247.9,152.5 Q247.5094,152.5 247.2594,152.3281 Q247.0094,152.1563 246.9,151.7031 Q246.8531,151.3906 246.6813,151.2188 Q246.3688,150.8906 245.8063,150.7031 Q245.2438,150.5 244.6813,150.5 Q243.9781,150.5 243.3844,150.7813 Q242.8063,151.0625 242.3531,151.6875 Q241.9,152.3125 241.9,153.1719 L241.9,154.0938 Q241.9,155.125 242.7438,155.8125 Q243.5875,156.5 245.0875,156.5 Q245.9781,156.5 246.6031,156.2969 Q246.9625,156.1875 247.3688,155.8281 Q247.6344,155.625 247.775,155.5625 Q247.9156,155.5 248.0875,155.5 Q248.4156,155.5 248.65,155.7656 Q248.9,156.0156 248.9,156.375 Q248.9,156.7188 248.5563,157.125 Q248.0563,157.7188 247.2594,158.0469 Q246.2125,158.5 244.9313,158.5 Q243.4313,158.5 242.2281,157.9063 Q241.2594,157.4375 240.5719,156.4219 Q239.9,155.4063 239.9,154.2031 L239.9,153.1094 Q239.9,151.8594 240.4938,150.7656 Q241.1031,149.6719 242.15,149.0938 Q243.2125,148.5 244.4,148.5 Q245.1188,148.5 245.7438,148.75 Q246.3688,149 246.9,149.5 Z "/><text fill="#000000" font-family="sans-serif" font-size="12" lengthAdjust="spacingAndGlyphs" textLength="43" x="265.1" y="157.9102">Delivery</text><line style="stroke: #A80036; stroke-width: 1.5;" x1="203" x2="338" y1="169" y2="169"/><text fill="#000000" font-family="sans-serif" font-size="11" lengthAdjust="spacingAndGlyphs" textLength="43" x="208" y="184.4189">-String id</text><text fill="#000000" font-family="sans-serif" font-size="11" lengthAdjust="spacingAndGlyphs" textLength="125" x="208" y="198.2549">-double necessaryEnergy</text><text fill="#000000" font-family="sans-serif" font-size="11" lengthAdjust="spacingAndGlyphs" textLength="80" x="208" y="212.0908">-double distance</text><text fill="#000000" font-family="sans-serif" font-size="11" lengthAdjust="spacingAndGlyphs" textLength="72" x="208" y="225.9268">-double weight</text><!--MD5=[bd708f2371c655af07b49ddbdb30848a]
link Client to Address--><path codeLine="72" d="M104.0362,356.664 C139.593,346.314 187.954,332.237 223.207,321.975 " fill="none" id="Client-Address" style="stroke: #A80036; stroke-width: 1.0;"/><polygon fill="#000000" points="143.8007,327.2783,134.2947,326.9845,135.9375,332.6281,143.8007,327.2783" style="stroke: #000000; stroke-width: 1.0;"/><text fill="#000000" font-family="sans-serif" font-size="13" lengthAdjust="spacingAndGlyphs" textLength="23" x="148" y="333.9951">Has</text><text fill="#000000" font-family="sans-serif" font-size="13" lengthAdjust="spacingAndGlyphs" textLength="7" x="112.0042" y="369.2786">1</text><text fill="#000000" font-family="sans-serif" font-size="13" lengthAdjust="spacingAndGlyphs" textLength="7" x="208.4293" y="338.8231">1</text><!--MD5=[0748050afd2139cbb3c9faec3f892ae9]
link Client to CreditCard--><path codeLine="73" d="M104.0362,384.337 C137.631,394.116 182.657,407.222 217.257,417.293 " fill="none" id="Client-CreditCard" style="stroke: #A80036; stroke-width: 1.0;"/><polygon fill="#000000" points="143.8008,386.0732,135.9375,380.7235,134.2947,386.3671,143.8008,386.0732" style="stroke: #000000; stroke-width: 1.0;"/><text fill="#000000" font-family="sans-serif" font-size="13" lengthAdjust="spacingAndGlyphs" textLength="23" x="148" y="389.9951">Has</text><text fill="#000000" font-family="sans-serif" font-size="13" lengthAdjust="spacingAndGlyphs" textLength="7" x="112.0042" y="401.1891">1</text><text fill="#000000" font-family="sans-serif" font-size="13" lengthAdjust="spacingAndGlyphs" textLength="7" x="202.6322" y="429.8202">1</text><!--MD5=[b25e04a5aed6ca08716b8f390ea19208]
link Client to Invoice--><path codeLine="74" d="M101.2937,425.0007 C127.432,452.4034 162.914,482.8416 202,497.5004 C375.888,562.7155 596.782,464.1733 691.477,413.954 " fill="none" id="Client-Invoice" style="stroke: #A80036; stroke-width: 1.0;"/><polygon fill="#000000" points="379.4991,498.5826,370.4006,495.8135,370.5106,501.6903,379.4991,498.5826" style="stroke: #000000; stroke-width: 1.0;"/><text fill="#000000" font-family="sans-serif" font-size="13" lengthAdjust="spacingAndGlyphs" textLength="52" x="383.5" y="503.9955">Receives</text><text fill="#000000" font-family="sans-serif" font-size="13" lengthAdjust="spacingAndGlyphs" textLength="7" x="99.7126" y="446.5147">1</text><text fill="#000000" font-family="sans-serif" font-size="13" lengthAdjust="spacingAndGlyphs" textLength="15" x="668.3955" y="432.5715">1..</text><!--MD5=[21ac1e674ffa00cb5fcd6cc073dbc52c]
link Client to Cart--><path codeLine="75" d="M82.5583,315.85 C108.988,263.066 152.905,182.135 202,119.5 C206.617,113.61 211.754,107.739 217.075,102.068 " fill="none" id="Client-Cart" style="stroke: #A80036; stroke-width: 1.0;"/><polygon fill="#000000" points="141.6628,151.4438,134.3582,157.5343,139.3332,160.6647,141.6628,151.4438" style="stroke: #000000; stroke-width: 1.0;"/><text fill="#000000" font-family="sans-serif" font-size="13" lengthAdjust="spacingAndGlyphs" textLength="23" x="148" y="160.9951">Has</text><text fill="#000000" font-family="sans-serif" font-size="13" lengthAdjust="spacingAndGlyphs" textLength="7" x="78.5767" y="305.3291">1</text><text fill="#000000" font-family="sans-serif" font-size="13" lengthAdjust="spacingAndGlyphs" textLength="15" x="193.8882" y="123.0306">1..</text><!--MD5=[3451170ed356d35d92157e8060a0a232]
link Cart to Product--><path codeLine="77" d="M324.107,60.815 C415.012,71.728 600.241,93.963 688.758,104.589 " fill="none" id="Cart-Product" style="stroke: #A80036; stroke-width: 1.0;"/><polygon fill="#000000" points="501.4644,71.2717,492.834,67.2757,492.1335,73.1116,501.4644,71.2717" style="stroke: #000000; stroke-width: 1.0;"/><text fill="#000000" font-family="sans-serif" font-size="13" lengthAdjust="spacingAndGlyphs" textLength="23" x="505.5" y="75.9951">Has</text><text fill="#000000" font-family="sans-serif" font-size="13" lengthAdjust="spacingAndGlyphs" textLength="7" x="332.1377" y="76.3237">1</text><text fill="#000000" font-family="sans-serif" font-size="13" lengthAdjust="spacingAndGlyphs" textLength="15" x="665.9989" y="118.3764">0..</text><!--MD5=[2a2204b5b23acaa6734af4f5692ff166]
link Cart to Order--><path codeLine="78" d="M324.025,81.204 C366.872,102.988 426.648,133.378 466.642,153.711 " fill="none" id="Cart-Order" style="stroke: #A80036; stroke-width: 1.0;"/><polygon fill="#000000" points="378.4571,97.9418,371.7261,91.2228,369.0623,96.4624,378.4571,97.9418" style="stroke: #000000; stroke-width: 1.0;"/><text fill="#000000" font-family="sans-serif" font-size="13" lengthAdjust="spacingAndGlyphs" textLength="53" x="383" y="100.9951">Generate</text><text fill="#000000" font-family="sans-serif" font-size="13" lengthAdjust="spacingAndGlyphs" textLength="7" x="332.0441" y="99.5799">1</text><text fill="#000000" font-family="sans-serif" font-size="13" lengthAdjust="spacingAndGlyphs" textLength="7" x="452.0943" y="165.0757">1</text><!--MD5=[5df16df72a49edaa4f00919f1e597f76]
link Order to Product--><path codeLine="80" d="M554.103,163.274 C592.419,152.279 648.699,136.128 688.894,124.593 " fill="none" id="Order-Product" style="stroke: #A80036; stroke-width: 1.0;"/><polygon fill="#000000" points="612.306,123.2966,602.8012,122.9667,604.4225,128.6165,612.306,123.2966" style="stroke: #000000; stroke-width: 1.0;"/><text fill="#000000" font-family="sans-serif" font-size="13" lengthAdjust="spacingAndGlyphs" textLength="23" x="616.5" y="129.9951">Has</text><text fill="#000000" font-family="sans-serif" font-size="13" lengthAdjust="spacingAndGlyphs" textLength="7" x="561.9044" y="176.1391">1</text><text fill="#000000" font-family="sans-serif" font-size="13" lengthAdjust="spacingAndGlyphs" textLength="15" x="666.1532" y="141.0684">1..</text><!--MD5=[e8689f9ac8b030dc23cc8d4cad888e90]
link Order to Invoice--><path codeLine="81" d="M554.103,215.376 C594.085,252.798 653.627,308.529 694.043,346.358 " fill="none" id="Order-Invoice" style="stroke: #A80036; stroke-width: 1.0;"/><polygon fill="#000000" points="592.6504,239.0925,588.0551,230.7659,584.0384,235.0572,592.6504,239.0925" style="stroke: #000000; stroke-width: 1.0;"/><text fill="#000000" font-family="sans-serif" font-size="13" lengthAdjust="spacingAndGlyphs" textLength="60" x="598" y="240.9951">Generates</text><text fill="#000000" font-family="sans-serif" font-size="13" lengthAdjust="spacingAndGlyphs" textLength="7" x="561.9044" y="236.8705">1</text><text fill="#000000" font-family="sans-serif" font-size="13" lengthAdjust="spacingAndGlyphs" textLength="7" x="679.0173" y="335.7838">1</text><!--MD5=[f03ebb71f36b9f67845ea5d0d1209a09]
link Product to Stock--><path codeLine="86" d="M789.074,110.5 C819.15,110.5 857.391,110.5 886.821,110.5 " fill="none" id="Product-Stock" style="stroke: #A80036; stroke-width: 1.0;"/><polygon fill="#000000" points="829,101.6758,819.9549,98.7369,819.9549,104.6147,829,101.6758" style="stroke: #000000; stroke-width: 1.0;"/><text fill="#000000" font-family="sans-serif" font-size="13" lengthAdjust="spacingAndGlyphs" textLength="23" x="833" y="106.9951">Has</text><text fill="#000000" font-family="sans-serif" font-size="13" lengthAdjust="spacingAndGlyphs" textLength="7" x="796.9427" y="125.1827">1</text><text fill="#000000" font-family="sans-serif" font-size="13" lengthAdjust="spacingAndGlyphs" textLength="7" x="872.1373" y="125.2722">1</text><!--MD5=[5d462235496920812faf21348f4080ac]
link Delivery to Order--><path codeLine="89" d="M339.065,181.945 C380.156,180.392 431.379,178.455 466.886,177.112 " fill="none" id="Delivery-Order" style="stroke: #A80036; stroke-width: 1.0;"/><polygon fill="#000000" points="393.9964,169.4869,384.8468,166.8918,385.0688,172.7654,393.9964,169.4869" style="stroke: #000000; stroke-width: 1.0;"/><text fill="#000000" font-family="sans-serif" font-size="13" lengthAdjust="spacingAndGlyphs" textLength="23" x="398" y="174.9951">Has</text><text fill="#000000" font-family="sans-serif" font-size="13" lengthAdjust="spacingAndGlyphs" textLength="7" x="346.9471" y="196.0361">1</text><text fill="#000000" font-family="sans-serif" font-size="13" lengthAdjust="spacingAndGlyphs" textLength="15" x="444.0592" y="192.1436">1..</text><!--MD5=[9d9a6a16ad8db07d99dc1e26245158ab]
@startuml
skinparam classAttributeIconSize 0
hide methods
left to right direction



class Client {
  -String name
  -String email
  -int nif
  -String password
  -int credits
}




class Cart {
  -String id
  -int productQuantity
  -double finalPrice
  -double finalWeight
}

class Order {
  -String number
  -String date
  -boolean status
  }

class Invoice {
  -String number
  -String date
  -double finalPrice
  }

class Stock {
  -String productID
  -int quantity
}

class Product {
  -String id
  -String name
  -String description
  -double price
  -double weight
}

class Address {
  -double latitude
  -double longitude
  -String street
}

class CreditCard {
  -int number
  -int monthExpiration
  -int yearExpiration
  -int ccv
}


class Delivery {
  -String id
  -double necessaryEnergy
  -double distance
  -double weight
}


Client "1" - - "1" Address: Has >
Client "1" - - "1" CreditCard: Has >
Client "1" - - "1.." Invoice: Receives >
Client "1" - - "1.." Cart: Has >

Cart "1" - - "0.." Product: Has >
Cart "1" - - "1" Order: Generate >

Order "1" - - "1.." Product: Has >
Order "1" - - "1" Invoice: Generates >




Product "1" - - "1" Stock: Has >


Delivery "1" - - "1.." Order: Has >



@enduml

PlantUML version 1.2020.19(Mon Oct 12 16:10:01 BST 2020)
(GPL source distribution)
Java Runtime: OpenJDK Runtime Environment
JVM: OpenJDK 64-Bit Server VM
Default Encoding: Cp1252
Language: pt
Country: PT
--></g></svg>