<?xml version="1.0" encoding="UTF-8" standalone="no"?><svg xmlns="http://www.w3.org/2000/svg" xmlns:xlink="http://www.w3.org/1999/xlink" contentScriptType="application/ecmascript" contentStyleType="text/css" height="125px" preserveAspectRatio="none" style="width:825px;height:125px;" version="1.1" viewBox="0 0 825 125" width="825px" zoomAndPan="magnify"><defs><filter height="300%" id="frxwohxq6hehk" width="300%" x="-1" y="-1"><feGaussianBlur result="blurOut" stdDeviation="2.0"/><feColorMatrix in="blurOut" result="blurOut2" type="matrix" values="0 0 0 0 0 0 0 0 0 0 0 0 0 0 0 0 0 0 .4 0"/><feOffset dx="4.0" dy="4.0" in="blurOut2" result="blurOut3"/><feBlend in="SourceGraphic" in2="blurOut3" mode="normal"/></filter></defs><g><!--MD5=[da547346deef918ea16944ba046651ef]
class Administrator--><rect codeLine="5" fill="#FEFECE" filter="url(#frxwohxq6hehk)" height="65.6094" id="Administrator" style="stroke:#A80036;stroke-width:1.5;" width="116" x="7" y="26"/><ellipse cx="22" cy="42" fill="#ADD1B2" rx="11" ry="11" style="stroke:#A80036;stroke-width:1.0;"/><path d="M24.9688,47.6406 Q24.3906,47.9375 23.75,48.0781 Q23.1094,48.2344 22.4063,48.2344 Q19.9063,48.2344 18.5781,46.5938 Q17.2656,44.9375 17.2656,41.8125 Q17.2656,38.6875 18.5781,37.0313 Q19.9063,35.375 22.4063,35.375 Q23.1094,35.375 23.75,35.5313 Q24.4063,35.6875 24.9688,35.9844 L24.9688,38.7031 Q24.3438,38.125 23.75,37.8594 Q23.1563,37.5781 22.5313,37.5781 Q21.1875,37.5781 20.5,38.6563 Q19.8125,39.7188 19.8125,41.8125 Q19.8125,43.9063 20.5,44.9844 Q21.1875,46.0469 22.5313,46.0469 Q23.1563,46.0469 23.75,45.7813 Q24.3438,45.5 24.9688,44.9219 L24.9688,47.6406 Z " fill="#000000"/><text fill="#000000" font-family="sans-serif" font-size="12" lengthAdjust="spacingAndGlyphs" textLength="84" x="36" y="46.1543">Administrator</text><line style="stroke:#A80036;stroke-width:1.5;" x1="8" x2="122" y1="58" y2="58"/><text fill="#000000" font-family="sans-serif" font-size="11" lengthAdjust="spacingAndGlyphs" textLength="73" x="13" y="72.2104">-String email</text><text fill="#000000" font-family="sans-serif" font-size="11" lengthAdjust="spacingAndGlyphs" textLength="98" x="13" y="85.0151">-String password</text><!--MD5=[7f2a9fafcebe4f099f71398fd3e2ed00]
class Pharmacy--><rect codeLine="10" fill="#FEFECE" filter="url(#frxwohxq6hehk)" height="78.4141" id="Pharmacy" style="stroke:#A80036;stroke-width:1.5;" width="130" x="256" y="20"/><ellipse cx="287.65" cy="36" fill="#ADD1B2" rx="11" ry="11" style="stroke:#A80036;stroke-width:1.0;"/><path d="M290.6188,41.6406 Q290.0406,41.9375 289.4,42.0781 Q288.7594,42.2344 288.0563,42.2344 Q285.5563,42.2344 284.2281,40.5938 Q282.9156,38.9375 282.9156,35.8125 Q282.9156,32.6875 284.2281,31.0313 Q285.5563,29.375 288.0563,29.375 Q288.7594,29.375 289.4,29.5313 Q290.0563,29.6875 290.6188,29.9844 L290.6188,32.7031 Q289.9938,32.125 289.4,31.8594 Q288.8063,31.5781 288.1813,31.5781 Q286.8375,31.5781 286.15,32.6563 Q285.4625,33.7188 285.4625,35.8125 Q285.4625,37.9063 286.15,38.9844 Q286.8375,40.0469 288.1813,40.0469 Q288.8063,40.0469 289.4,39.7813 Q289.9938,39.5 290.6188,38.9219 L290.6188,41.6406 Z " fill="#000000"/><text fill="#000000" font-family="sans-serif" font-size="12" lengthAdjust="spacingAndGlyphs" textLength="61" x="305.35" y="40.1543">Pharmacy</text><line style="stroke:#A80036;stroke-width:1.5;" x1="257" x2="385" y1="52" y2="52"/><text fill="#000000" font-family="sans-serif" font-size="11" lengthAdjust="spacingAndGlyphs" textLength="52" x="262" y="66.2104">-String id</text><text fill="#000000" font-family="sans-serif" font-size="11" lengthAdjust="spacingAndGlyphs" textLength="74" x="262" y="79.0151">-String name</text><text fill="#000000" font-family="sans-serif" font-size="11" lengthAdjust="spacingAndGlyphs" textLength="118" x="262" y="91.8198">-int quantityScooters</text><!--MD5=[a4cb0f987c11031dc931233a0e7767af]
class Stock--><rect codeLine="16" fill="#FEFECE" filter="url(#frxwohxq6hehk)" height="65.6094" id="Stock" style="stroke:#A80036;stroke-width:1.5;" width="108" x="703" y="26"/><ellipse cx="736.45" cy="42" fill="#ADD1B2" rx="11" ry="11" style="stroke:#A80036;stroke-width:1.0;"/><path d="M739.4188,47.6406 Q738.8406,47.9375 738.2,48.0781 Q737.5594,48.2344 736.8563,48.2344 Q734.3563,48.2344 733.0281,46.5938 Q731.7156,44.9375 731.7156,41.8125 Q731.7156,38.6875 733.0281,37.0313 Q734.3563,35.375 736.8563,35.375 Q737.5594,35.375 738.2,35.5313 Q738.8563,35.6875 739.4188,35.9844 L739.4188,38.7031 Q738.7938,38.125 738.2,37.8594 Q737.6063,37.5781 736.9813,37.5781 Q735.6375,37.5781 734.95,38.6563 Q734.2625,39.7188 734.2625,41.8125 Q734.2625,43.9063 734.95,44.9844 Q735.6375,46.0469 736.9813,46.0469 Q737.6063,46.0469 738.2,45.7813 Q738.7938,45.5 739.4188,44.9219 L739.4188,47.6406 Z " fill="#000000"/><text fill="#000000" font-family="sans-serif" font-size="12" lengthAdjust="spacingAndGlyphs" textLength="35" x="754.55" y="46.1543">Stock</text><line style="stroke:#A80036;stroke-width:1.5;" x1="704" x2="810" y1="58" y2="58"/><text fill="#000000" font-family="sans-serif" font-size="11" lengthAdjust="spacingAndGlyphs" textLength="96" x="709" y="72.2104">-String productID</text><text fill="#000000" font-family="sans-serif" font-size="11" lengthAdjust="spacingAndGlyphs" textLength="67" x="709" y="85.0151">-int quantity</text><!--MD5=[72136138052d025cffdce3c22fbd185f]
class Product--><rect codeLine="21" fill="#FEFECE" filter="url(#frxwohxq6hehk)" height="104.0234" id="Product" style="stroke:#A80036;stroke-width:1.5;" width="117" x="486" y="7"/><ellipse cx="517.2" cy="23" fill="#ADD1B2" rx="11" ry="11" style="stroke:#A80036;stroke-width:1.0;"/><path d="M520.1688,28.6406 Q519.5906,28.9375 518.95,29.0781 Q518.3094,29.2344 517.6063,29.2344 Q515.1063,29.2344 513.7781,27.5938 Q512.4656,25.9375 512.4656,22.8125 Q512.4656,19.6875 513.7781,18.0313 Q515.1063,16.375 517.6063,16.375 Q518.3094,16.375 518.95,16.5313 Q519.6063,16.6875 520.1688,16.9844 L520.1688,19.7031 Q519.5438,19.125 518.95,18.8594 Q518.3563,18.5781 517.7313,18.5781 Q516.3875,18.5781 515.7,19.6563 Q515.0125,20.7188 515.0125,22.8125 Q515.0125,24.9063 515.7,25.9844 Q516.3875,27.0469 517.7313,27.0469 Q518.3563,27.0469 518.95,26.7813 Q519.5438,26.5 520.1688,25.9219 L520.1688,28.6406 Z " fill="#000000"/><text fill="#000000" font-family="sans-serif" font-size="12" lengthAdjust="spacingAndGlyphs" textLength="49" x="534.8" y="27.1543">Product</text><line style="stroke:#A80036;stroke-width:1.5;" x1="487" x2="602" y1="39" y2="39"/><text fill="#000000" font-family="sans-serif" font-size="11" lengthAdjust="spacingAndGlyphs" textLength="52" x="492" y="53.2104">-String id</text><text fill="#000000" font-family="sans-serif" font-size="11" lengthAdjust="spacingAndGlyphs" textLength="74" x="492" y="66.0151">-String name</text><text fill="#000000" font-family="sans-serif" font-size="11" lengthAdjust="spacingAndGlyphs" textLength="105" x="492" y="78.8198">-String description</text><text fill="#000000" font-family="sans-serif" font-size="11" lengthAdjust="spacingAndGlyphs" textLength="74" x="492" y="91.6245">-double price</text><text fill="#000000" font-family="sans-serif" font-size="11" lengthAdjust="spacingAndGlyphs" textLength="83" x="492" y="104.4292">-double weight</text><!--MD5=[737ca6dd1a667cd849e932d7cf955580]
link Pharmacy to Product--><path codeLine="29" d="M386.2463,59 C417.6847,59 455.0996,59 485.6547,59 " fill="none" id="Pharmacy-Product" style="stroke:#A80036;stroke-width:1.0;"/><polygon fill="#000000" points="426,50.5664,416.9549,47.6275,416.9549,53.5053,426,50.5664" style="stroke:#000000;stroke-width:1.0;"/><text fill="#000000" font-family="sans-serif" font-size="13" lengthAdjust="spacingAndGlyphs" textLength="25" x="430" y="55.0669">Has</text><text fill="#000000" font-family="sans-serif" font-size="13" lengthAdjust="spacingAndGlyphs" textLength="8" x="393.8201" y="71.8718">1</text><text fill="#000000" font-family="sans-serif" font-size="13" lengthAdjust="spacingAndGlyphs" textLength="16" x="461.9257" y="71.9404">1..</text><!--MD5=[f03ebb71f36b9f67845ea5d0d1209a09]
link Product to Stock--><path codeLine="30" d="M603.1291,59 C634.3327,59 672.4455,59 702.9328,59 " fill="none" id="Product-Stock" style="stroke:#A80036;stroke-width:1.0;"/><polygon fill="#000000" points="643,50.5664,633.9549,47.6275,633.9549,53.5053,643,50.5664" style="stroke:#000000;stroke-width:1.0;"/><text fill="#000000" font-family="sans-serif" font-size="13" lengthAdjust="spacingAndGlyphs" textLength="25" x="647" y="55.0669">Has</text><text fill="#000000" font-family="sans-serif" font-size="13" lengthAdjust="spacingAndGlyphs" textLength="8" x="611.1535" y="72.0348">1</text><text fill="#000000" font-family="sans-serif" font-size="13" lengthAdjust="spacingAndGlyphs" textLength="8" x="687.13" y="72.1099">1</text><!--MD5=[8aaadde0a51a6974a75b41b6a40c57cb]
link Administrator to Pharmacy--><path codeLine="31" d="M123.0904,59 C162.626,59 214.9974,59 255.9349,59 " fill="none" id="Administrator-Pharmacy" style="stroke:#A80036;stroke-width:1.0;"/><polygon fill="#000000" points="163,50.5664,153.9549,47.6275,153.9549,53.5053,163,50.5664" style="stroke:#000000;stroke-width:1.0;"/><text fill="#000000" font-family="sans-serif" font-size="13" lengthAdjust="spacingAndGlyphs" textLength="58" x="167" y="55.0669">Manages</text><text fill="#000000" font-family="sans-serif" font-size="13" lengthAdjust="spacingAndGlyphs" textLength="8" x="131.0457" y="72.0614">1</text><text fill="#000000" font-family="sans-serif" font-size="13" lengthAdjust="spacingAndGlyphs" textLength="16" x="231.9434" y="71.8718">1..</text><!--MD5=[2a81bec366b6dc940065a80bb4275e37]
@startuml
skinparam classAttributeIconSize 0
hide methods
left to right direction

class Administrator {
  -String email
  -String password
}

class Pharmacy {
  -String id
  -String name
  -int quantityScooters
  }

class Stock {
  -String productID
  -int quantity
}

class Product {
  -String id
  -String name
  -String description
  -double price
  -double weight
}

Pharmacy "1" - - "1.." Product: Has >
Product "1" - - "1" Stock: Has > 
Administrator "1" - - "1.." Pharmacy: Manages >
@enduml

PlantUML version 1.2020.22(Sun Dec 06 09:36:27 UTC 2020)
(GPL source distribution)
Java Runtime: OpenJDK Runtime Environment
JVM: OpenJDK 64-Bit Server VM
Default Encoding: UTF-8
Language: en
Country: US
--></g></svg>