<?xml version="1.0" encoding="UTF-8" standalone="no"?><svg xmlns="http://www.w3.org/2000/svg" xmlns:xlink="http://www.w3.org/1999/xlink" contentScriptType="application/ecmascript" contentStyleType="text/css" height="493.89px" preserveAspectRatio="none" style="width:827px;height:493px;" version="1.1" viewBox="0 0 827 493" width="827.19px" zoomAndPan="magnify"><defs><filter height="300%" id="f1jbdbkior2wto" width="300%" x="-1" y="-1"><feGaussianBlur result="blurOut" stdDeviation="2.02"/><feColorMatrix in="blurOut" result="blurOut2" type="matrix" values="0 0 0 0 0 0 0 0 0 0 0 0 0 0 0 0 0 0 .4 0"/><feOffset dx="4.04" dy="4.04" in="blurOut2" result="blurOut3"/><feBlend in="SourceGraphic" in2="blurOut3" mode="normal"/></filter></defs><g><!--MD5=[86a624c1af23682ae2cb471ba698ee74]
class PickUpOrderUI--><rect codeLine="4" fill="#FEFECE" filter="url(#f1jbdbkior2wto)" height="48.48" id="PickUpOrderUI" style="stroke: #A80036; stroke-width: 1.5150000000000001;" width="115.14" x="338.35" y="7.07"/><ellipse cx="353.5" cy="23.23" fill="#ADD1B2" rx="11.11" ry="11.11" style="stroke: #A80036; stroke-width: 1.01;"/><path d="M355.52,19.695 Q355.7252,19.19 355.9619,18.9375 Q356.1986,18.685 356.4669,18.685 Q356.9403,18.685 357.2402,18.9691 Q357.54,19.2531 357.54,19.9159 L357.54,21.4941 Q357.54,22.1569 357.2559,22.4409 Q356.9719,22.725 356.53,22.725 Q356.1355,22.725 355.883,22.5514 Q355.6305,22.3778 355.52,21.9202 Q355.4727,21.6045 355.2991,21.4309 Q354.9834,21.0995 354.4153,20.9102 Q353.8472,20.705 353.2791,20.705 Q352.5689,20.705 351.9692,20.9891 Q351.3853,21.2731 350.9277,21.9044 Q350.47,22.5356 350.47,23.4036 L350.47,24.3347 Q350.47,25.3763 351.3222,26.0706 Q352.1744,26.765 353.6894,26.765 Q354.5889,26.765 355.2202,26.5598 Q355.5831,26.4494 355.9934,26.0864 Q356.2617,25.8813 356.4038,25.8181 Q356.5458,25.755 356.7194,25.755 Q357.0508,25.755 357.2875,26.0233 Q357.54,26.2758 357.54,26.6388 Q357.54,26.9859 357.1928,27.3963 Q356.6878,27.9959 355.883,28.3273 Q354.8256,28.785 353.5316,28.785 Q352.0166,28.785 350.8014,28.1853 Q349.823,27.7119 349.1286,26.6861 Q348.45,25.6603 348.45,24.4452 L348.45,23.3405 Q348.45,22.078 349.0497,20.9733 Q349.6652,19.8686 350.7225,19.2847 Q351.7956,18.685 352.995,18.685 Q353.7209,18.685 354.3522,18.9375 Q354.9834,19.19 355.52,19.695 Z "/><text fill="#000000" font-family="sans-serif" font-size="12.12" lengthAdjust="spacingAndGlyphs" textLength="82.82" x="367.64" y="28.1893">PickUpOrderUI</text><line style="stroke: #A80036; stroke-width: 1.5150000000000001;" x1="339.36" x2="452.48" y1="39.39" y2="39.39"/><line style="stroke: #A80036; stroke-width: 1.5150000000000001;" x1="339.36" x2="452.48" y1="47.47" y2="47.47"/><!--MD5=[c453aa623a675c43450bba9fa7dfae83]
class PickUpOrderController--><rect codeLine="7" fill="#FEFECE" filter="url(#f1jbdbkior2wto)" height="76.4286" id="PickUpOrderController" style="stroke: #A80036; stroke-width: 1.5150000000000001;" width="177.76" x="307.04" y="116.15"/><ellipse cx="331.28" cy="132.31" fill="#ADD1B2" rx="11.11" ry="11.11" style="stroke: #A80036; stroke-width: 1.01;"/><path d="M333.3,128.775 Q333.5052,128.27 333.7419,128.0175 Q333.9786,127.765 334.2469,127.765 Q334.7203,127.765 335.0202,128.0491 Q335.32,128.3331 335.32,128.9959 L335.32,130.5741 Q335.32,131.2369 335.0359,131.5209 Q334.7519,131.805 334.31,131.805 Q333.9155,131.805 333.663,131.6314 Q333.4105,131.4578 333.3,131.0002 Q333.2527,130.6845 333.0791,130.5109 Q332.7634,130.1795 332.1953,129.9902 Q331.6272,129.785 331.0591,129.785 Q330.3489,129.785 329.7492,130.0691 Q329.1653,130.3531 328.7077,130.9844 Q328.25,131.6156 328.25,132.4836 L328.25,133.4147 Q328.25,134.4563 329.1022,135.1506 Q329.9544,135.845 331.4694,135.845 Q332.3689,135.845 333.0002,135.6398 Q333.3631,135.5294 333.7734,135.1664 Q334.0417,134.9613 334.1838,134.8981 Q334.3258,134.835 334.4994,134.835 Q334.8308,134.835 335.0675,135.1033 Q335.32,135.3558 335.32,135.7188 Q335.32,136.0659 334.9728,136.4763 Q334.4678,137.0759 333.663,137.4073 Q332.6056,137.865 331.3116,137.865 Q329.7966,137.865 328.5814,137.2653 Q327.603,136.7919 326.9086,135.7661 Q326.23,134.7403 326.23,133.5252 L326.23,132.4205 Q326.23,131.158 326.8297,130.0533 Q327.4452,128.9486 328.5025,128.3647 Q329.5756,127.765 330.775,127.765 Q331.5009,127.765 332.1322,128.0175 Q332.7634,128.27 333.3,128.775 Z "/><text fill="#000000" font-family="sans-serif" font-size="12.12" lengthAdjust="spacingAndGlyphs" textLength="125.24" x="347.44" y="137.2693">PickUpOrderController</text><line style="stroke: #A80036; stroke-width: 1.5150000000000001;" x1="308.05" x2="483.79" y1="148.47" y2="148.47"/><line style="stroke: #A80036; stroke-width: 1.5150000000000001;" x1="308.05" x2="483.79" y1="156.55" y2="156.55"/><text fill="#000000" font-family="sans-serif" font-size="11.11" lengthAdjust="spacingAndGlyphs" textLength="165.64" x="313.1" y="172.1231">+newPayment(time, date, nrDays)</text><text fill="#000000" font-family="sans-serif" font-size="11.11" lengthAdjust="spacingAndGlyphs" textLength="98.98" x="313.1" y="186.0974">+registersPayment()</text><!--MD5=[8806e557260fb3598decb516dc04693d]
class EmailAPI--><rect codeLine="11" fill="#FEFECE" filter="url(#f1jbdbkior2wto)" height="48.48" id="EmailAPI" style="stroke: #A80036; stroke-width: 1.5150000000000001;" width="82.82" x="488.84" y="7.07"/><ellipse cx="503.99" cy="23.23" fill="#ADD1B2" rx="11.11" ry="11.11" style="stroke: #A80036; stroke-width: 1.01;"/><path d="M506.01,19.695 Q506.2152,19.19 506.4519,18.9375 Q506.6886,18.685 506.9569,18.685 Q507.4303,18.685 507.7302,18.9691 Q508.03,19.2531 508.03,19.9159 L508.03,21.4941 Q508.03,22.1569 507.7459,22.4409 Q507.4619,22.725 507.02,22.725 Q506.6255,22.725 506.373,22.5514 Q506.1205,22.3778 506.01,21.9202 Q505.9627,21.6045 505.7891,21.4309 Q505.4734,21.0995 504.9053,20.9102 Q504.3372,20.705 503.7691,20.705 Q503.0589,20.705 502.4592,20.9891 Q501.8753,21.2731 501.4177,21.9044 Q500.96,22.5356 500.96,23.4036 L500.96,24.3347 Q500.96,25.3763 501.8122,26.0706 Q502.6644,26.765 504.1794,26.765 Q505.0789,26.765 505.7102,26.5598 Q506.0731,26.4494 506.4834,26.0864 Q506.7517,25.8813 506.8938,25.8181 Q507.0358,25.755 507.2094,25.755 Q507.5408,25.755 507.7775,26.0233 Q508.03,26.2758 508.03,26.6388 Q508.03,26.9859 507.6828,27.3963 Q507.1778,27.9959 506.373,28.3273 Q505.3156,28.785 504.0216,28.785 Q502.5066,28.785 501.2914,28.1853 Q500.313,27.7119 499.6186,26.6861 Q498.94,25.6603 498.94,24.4452 L498.94,23.3405 Q498.94,22.078 499.5397,20.9733 Q500.1552,19.8686 501.2125,19.2847 Q502.2856,18.685 503.485,18.685 Q504.2109,18.685 504.8422,18.9375 Q505.4734,19.19 506.01,19.695 Z "/><text fill="#000000" font-family="sans-serif" font-size="12.12" lengthAdjust="spacingAndGlyphs" textLength="50.5" x="518.13" y="28.1893">EmailAPI</text><line style="stroke: #A80036; stroke-width: 1.5150000000000001;" x1="489.85" x2="570.65" y1="39.39" y2="39.39"/><line style="stroke: #A80036; stroke-width: 1.5150000000000001;" x1="489.85" x2="570.65" y1="47.47" y2="47.47"/><!--MD5=[3756a7a5051292a8ee44a35403948155]
class OrdersHandler--><rect codeLine="14" fill="#FEFECE" filter="url(#f1jbdbkior2wto)" height="62.4543" id="OrdersHandler" style="stroke: #A80036; stroke-width: 1.5150000000000001;" width="115.14" x="7.07" y="274.215"/><ellipse cx="22.22" cy="290.375" fill="#ADD1B2" rx="11.11" ry="11.11" style="stroke: #A80036; stroke-width: 1.01;"/><path d="M24.24,286.84 Q24.4452,286.335 24.6819,286.0825 Q24.9186,285.83 25.1869,285.83 Q25.6603,285.83 25.9602,286.1141 Q26.26,286.3981 26.26,287.0609 L26.26,288.6391 Q26.26,289.3019 25.9759,289.5859 Q25.6919,289.87 25.25,289.87 Q24.8555,289.87 24.603,289.6964 Q24.3505,289.5228 24.24,289.0652 Q24.1927,288.7495 24.0191,288.5759 Q23.7034,288.2445 23.1353,288.0552 Q22.5672,287.85 21.9991,287.85 Q21.2889,287.85 20.6892,288.1341 Q20.1053,288.4181 19.6477,289.0494 Q19.19,289.6806 19.19,290.5486 L19.19,291.4797 Q19.19,292.5213 20.0422,293.2156 Q20.8944,293.91 22.4094,293.91 Q23.3089,293.91 23.9402,293.7048 Q24.3031,293.5944 24.7134,293.2314 Q24.9817,293.0263 25.1238,292.9631 Q25.2658,292.9 25.4394,292.9 Q25.7708,292.9 26.0075,293.1683 Q26.26,293.4208 26.26,293.7838 Q26.26,294.1309 25.9128,294.5413 Q25.4078,295.1409 24.603,295.4723 Q23.5456,295.93 22.2516,295.93 Q20.7366,295.93 19.5214,295.3303 Q18.543,294.8569 17.8486,293.8311 Q17.17,292.8053 17.17,291.5902 L17.17,290.4855 Q17.17,289.223 17.7697,288.1183 Q18.3852,287.0136 19.4425,286.4297 Q20.5156,285.83 21.715,285.83 Q22.4409,285.83 23.0722,286.0825 Q23.7034,286.335 24.24,286.84 Z "/><text fill="#000000" font-family="sans-serif" font-size="12.12" lengthAdjust="spacingAndGlyphs" textLength="82.82" x="36.36" y="295.3343">OrdersHandler</text><line style="stroke: #A80036; stroke-width: 1.5150000000000001;" x1="8.08" x2="121.2" y1="306.535" y2="306.535"/><line style="stroke: #A80036; stroke-width: 1.5150000000000001;" x1="8.08" x2="121.2" y1="314.615" y2="314.615"/><text fill="#000000" font-family="sans-serif" font-size="11.11" lengthAdjust="spacingAndGlyphs" textLength="87.87" x="13.13" y="330.1881">+getOrderByID(id)</text><!--MD5=[706e73df52f3df32f52be1ce9adb217e]
class Graph--><rect codeLine="18" fill="#FEFECE" filter="url(#f1jbdbkior2wto)" height="76.4286" id="Graph" style="stroke: #A80036; stroke-width: 1.5150000000000001;" width="118.17" x="158.065" y="267.145"/><ellipse cx="196.3945" cy="283.305" fill="#ADD1B2" rx="11.11" ry="11.11" style="stroke: #A80036; stroke-width: 1.01;"/><path d="M198.4145,279.77 Q198.6197,279.265 198.8564,279.0125 Q199.0931,278.76 199.3614,278.76 Q199.8348,278.76 200.1347,279.0441 Q200.4345,279.3281 200.4345,279.9909 L200.4345,281.5691 Q200.4345,282.2319 200.1504,282.5159 Q199.8664,282.8 199.4245,282.8 Q199.03,282.8 198.7775,282.6264 Q198.525,282.4528 198.4145,281.9952 Q198.3672,281.6795 198.1936,281.5059 Q197.8779,281.1745 197.3098,280.9852 Q196.7417,280.78 196.1736,280.78 Q195.4634,280.78 194.8637,281.0641 Q194.2798,281.3481 193.8222,281.9794 Q193.3645,282.6106 193.3645,283.4786 L193.3645,284.4097 Q193.3645,285.4513 194.2167,286.1456 Q195.0689,286.84 196.5839,286.84 Q197.4834,286.84 198.1147,286.6348 Q198.4776,286.5244 198.8879,286.1614 Q199.1562,285.9563 199.2983,285.8931 Q199.4403,285.83 199.6139,285.83 Q199.9453,285.83 200.182,286.0983 Q200.4345,286.3508 200.4345,286.7138 Q200.4345,287.0609 200.0873,287.4713 Q199.5823,288.0709 198.7775,288.4023 Q197.7201,288.86 196.4261,288.86 Q194.9111,288.86 193.6959,288.2603 Q192.7175,287.7869 192.0231,286.7611 Q191.3445,285.7353 191.3445,284.5202 L191.3445,283.4155 Q191.3445,282.153 191.9442,281.0483 Q192.5597,279.9436 193.617,279.3597 Q194.6901,278.76 195.8895,278.76 Q196.6154,278.76 197.2467,279.0125 Q197.8779,279.265 198.4145,279.77 Z "/><text fill="#000000" font-family="sans-serif" font-size="12.12" lengthAdjust="spacingAndGlyphs" textLength="34.34" x="215.6855" y="288.2643">Graph</text><line style="stroke: #A80036; stroke-width: 1.5150000000000001;" x1="159.075" x2="275.225" y1="299.465" y2="299.465"/><line style="stroke: #A80036; stroke-width: 1.5150000000000001;" x1="159.075" x2="275.225" y1="307.545" y2="307.545"/><text fill="#000000" font-family="sans-serif" font-size="11.11" lengthAdjust="spacingAndGlyphs" textLength="102.01" x="164.125" y="323.1181">+shortestPath(order)</text><text fill="#000000" font-family="sans-serif" font-size="11.11" lengthAdjust="spacingAndGlyphs" textLength="106.05" x="164.125" y="337.0924">+getDistance(pathlist)</text><!--MD5=[b78e42fe1f33f5c4bf0e37a39b0075a9]
class Physics--><rect codeLine="23" fill="#FEFECE" filter="url(#f1jbdbkior2wto)" height="76.4286" id="Physics" style="stroke: #A80036; stroke-width: 1.5150000000000001;" width="167.66" x="312.09" y="267.145"/><ellipse cx="369.9125" cy="283.305" fill="#ADD1B2" rx="11.11" ry="11.11" style="stroke: #A80036; stroke-width: 1.01;"/><path d="M371.9325,279.77 Q372.1377,279.265 372.3744,279.0125 Q372.6111,278.76 372.8794,278.76 Q373.3528,278.76 373.6527,279.0441 Q373.9525,279.3281 373.9525,279.9909 L373.9525,281.5691 Q373.9525,282.2319 373.6684,282.5159 Q373.3844,282.8 372.9425,282.8 Q372.548,282.8 372.2955,282.6264 Q372.043,282.4528 371.9325,281.9952 Q371.8852,281.6795 371.7116,281.5059 Q371.3959,281.1745 370.8278,280.9852 Q370.2597,280.78 369.6916,280.78 Q368.9814,280.78 368.3817,281.0641 Q367.7978,281.3481 367.3402,281.9794 Q366.8825,282.6106 366.8825,283.4786 L366.8825,284.4097 Q366.8825,285.4513 367.7347,286.1456 Q368.5869,286.84 370.1019,286.84 Q371.0014,286.84 371.6327,286.6348 Q371.9956,286.5244 372.4059,286.1614 Q372.6742,285.9563 372.8163,285.8931 Q372.9583,285.83 373.1319,285.83 Q373.4633,285.83 373.7,286.0983 Q373.9525,286.3508 373.9525,286.7138 Q373.9525,287.0609 373.6053,287.4713 Q373.1003,288.0709 372.2955,288.4023 Q371.2381,288.86 369.9441,288.86 Q368.4291,288.86 367.2139,288.2603 Q366.2355,287.7869 365.5411,286.7611 Q364.8625,285.7353 364.8625,284.5202 L364.8625,283.4155 Q364.8625,282.153 365.4622,281.0483 Q366.0777,279.9436 367.135,279.3597 Q368.2081,278.76 369.4075,278.76 Q370.1334,278.76 370.7647,279.0125 Q371.3959,279.265 371.9325,279.77 Z "/><text fill="#000000" font-family="sans-serif" font-size="12.12" lengthAdjust="spacingAndGlyphs" textLength="43.43" x="390.6175" y="288.2643">Physics</text><line style="stroke: #A80036; stroke-width: 1.5150000000000001;" x1="313.1" x2="478.74" y1="299.465" y2="299.465"/><line style="stroke: #A80036; stroke-width: 1.5150000000000001;" x1="313.1" x2="478.74" y1="307.545" y2="307.545"/><text fill="#000000" font-family="sans-serif" font-size="11.11" lengthAdjust="spacingAndGlyphs" textLength="155.54" x="318.15" y="323.1181">+getNecessaryEnergy(pathList)</text><text fill="#000000" font-family="sans-serif" font-size="11.11" lengthAdjust="spacingAndGlyphs" textLength="123.22" x="318.15" y="337.0924">+getOrdersWeight(order)</text><!--MD5=[fff5db4abcb6eec6574b9ea9c3ee0eae]
class Delivery--><rect codeLine="28" fill="#FEFECE" filter="url(#f1jbdbkior2wto)" height="104.3772" id="Delivery" style="stroke: #A80036; stroke-width: 1.5150000000000001;" width="134.33" x="515.605" y="253.51"/><ellipse cx="557.116" cy="269.67" fill="#ADD1B2" rx="11.11" ry="11.11" style="stroke: #A80036; stroke-width: 1.01;"/><path d="M559.136,266.135 Q559.3412,265.63 559.5779,265.3775 Q559.8146,265.125 560.0829,265.125 Q560.5563,265.125 560.8562,265.4091 Q561.156,265.6931 561.156,266.3559 L561.156,267.9341 Q561.156,268.5969 560.8719,268.8809 Q560.5879,269.165 560.146,269.165 Q559.7515,269.165 559.499,268.9914 Q559.2465,268.8178 559.136,268.3602 Q559.0887,268.0445 558.9151,267.8709 Q558.5994,267.5395 558.0313,267.3502 Q557.4632,267.145 556.8951,267.145 Q556.1849,267.145 555.5852,267.4291 Q555.0013,267.7131 554.5437,268.3444 Q554.086,268.9756 554.086,269.8436 L554.086,270.7747 Q554.086,271.8163 554.9382,272.5106 Q555.7904,273.205 557.3054,273.205 Q558.2049,273.205 558.8362,272.9998 Q559.1991,272.8894 559.6094,272.5264 Q559.8777,272.3213 560.0198,272.2581 Q560.1618,272.195 560.3354,272.195 Q560.6668,272.195 560.9035,272.4633 Q561.156,272.7158 561.156,273.0788 Q561.156,273.4259 560.8088,273.8363 Q560.3038,274.4359 559.499,274.7673 Q558.4416,275.225 557.1476,275.225 Q555.6326,275.225 554.4174,274.6253 Q553.439,274.1519 552.7446,273.1261 Q552.066,272.1003 552.066,270.8852 L552.066,269.7805 Q552.066,268.518 552.6657,267.4133 Q553.2812,266.3086 554.3385,265.7247 Q555.4116,265.125 556.611,265.125 Q557.3369,265.125 557.9682,265.3775 Q558.5994,265.63 559.136,266.135 Z "/><text fill="#000000" font-family="sans-serif" font-size="12.12" lengthAdjust="spacingAndGlyphs" textLength="43.43" x="577.114" y="274.6293">Delivery</text><line style="stroke: #A80036; stroke-width: 1.5150000000000001;" x1="516.615" x2="648.925" y1="285.83" y2="285.83"/><text fill="#000000" font-family="sans-serif" font-size="11.11" lengthAdjust="spacingAndGlyphs" textLength="39.39" x="521.665" y="301.4031">String id</text><text fill="#000000" font-family="sans-serif" font-size="11.11" lengthAdjust="spacingAndGlyphs" textLength="122.21" x="521.665" y="315.3774">double necessaryEnergy</text><text fill="#000000" font-family="sans-serif" font-size="11.11" lengthAdjust="spacingAndGlyphs" textLength="76.76" x="521.665" y="329.3517">double distance</text><text fill="#000000" font-family="sans-serif" font-size="11.11" lengthAdjust="spacingAndGlyphs" textLength="68.68" x="521.665" y="343.326">double weight</text><line style="stroke: #A80036; stroke-width: 1.5150000000000001;" x1="516.615" x2="648.925" y1="349.8072" y2="349.8072"/><!--MD5=[89cc90c1048768c9c608df891e8c7b17]
class DeliverysHandler--><rect codeLine="35" fill="#FEFECE" filter="url(#f1jbdbkior2wto)" height="62.4543" id="DeliverysHandler" style="stroke: #A80036; stroke-width: 1.5150000000000001;" width="127.26" x="685.79" y="274.215"/><ellipse cx="700.94" cy="290.375" fill="#ADD1B2" rx="11.11" ry="11.11" style="stroke: #A80036; stroke-width: 1.01;"/><path d="M702.96,286.84 Q703.1652,286.335 703.4019,286.0825 Q703.6386,285.83 703.9069,285.83 Q704.3803,285.83 704.6802,286.1141 Q704.98,286.3981 704.98,287.0609 L704.98,288.6391 Q704.98,289.3019 704.6959,289.5859 Q704.4119,289.87 703.97,289.87 Q703.5755,289.87 703.323,289.6964 Q703.0705,289.5228 702.96,289.0652 Q702.9127,288.7495 702.7391,288.5759 Q702.4234,288.2445 701.8553,288.0552 Q701.2872,287.85 700.7191,287.85 Q700.0089,287.85 699.4092,288.1341 Q698.8253,288.4181 698.3677,289.0494 Q697.91,289.6806 697.91,290.5486 L697.91,291.4797 Q697.91,292.5213 698.7622,293.2156 Q699.6144,293.91 701.1294,293.91 Q702.0289,293.91 702.6602,293.7048 Q703.0231,293.5944 703.4334,293.2314 Q703.7017,293.0263 703.8438,292.9631 Q703.9858,292.9 704.1594,292.9 Q704.4908,292.9 704.7275,293.1683 Q704.98,293.4208 704.98,293.7838 Q704.98,294.1309 704.6328,294.5413 Q704.1278,295.1409 703.323,295.4723 Q702.2656,295.93 700.9716,295.93 Q699.4566,295.93 698.2414,295.3303 Q697.263,294.8569 696.5686,293.8311 Q695.89,292.8053 695.89,291.5902 L695.89,290.4855 Q695.89,289.223 696.4897,288.1183 Q697.1052,287.0136 698.1625,286.4297 Q699.2356,285.83 700.435,285.83 Q701.1609,285.83 701.7922,286.0825 Q702.4234,286.335 702.96,286.84 Z "/><text fill="#000000" font-family="sans-serif" font-size="12.12" lengthAdjust="spacingAndGlyphs" textLength="94.94" x="715.08" y="295.3343">DeliverysHandler</text><line style="stroke: #A80036; stroke-width: 1.5150000000000001;" x1="686.8" x2="812.04" y1="306.535" y2="306.535"/><line style="stroke: #A80036; stroke-width: 1.5150000000000001;" x1="686.8" x2="812.04" y1="314.615" y2="314.615"/><text fill="#000000" font-family="sans-serif" font-size="11.11" lengthAdjust="spacingAndGlyphs" textLength="91.91" x="691.85" y="330.1881">+saveDelivery(del)</text><!--MD5=[837d3612090b426002fd1342fcbe6b88]
class DataBase--><rect codeLine="39" fill="#FEFECE" filter="url(#f1jbdbkior2wto)" height="62.4543" id="DataBase" style="stroke: #A80036; stroke-width: 1.5150000000000001;" width="229.27" x="468.135" y="418.14"/><ellipse cx="550.7025" cy="434.3" fill="#ADD1B2" rx="11.11" ry="11.11" style="stroke: #A80036; stroke-width: 1.01;"/><path d="M552.7225,430.765 Q552.9277,430.26 553.1644,430.0075 Q553.4011,429.755 553.6694,429.755 Q554.1428,429.755 554.4427,430.0391 Q554.7425,430.3231 554.7425,430.9859 L554.7425,432.5641 Q554.7425,433.2269 554.4584,433.5109 Q554.1744,433.795 553.7325,433.795 Q553.338,433.795 553.0855,433.6214 Q552.833,433.4478 552.7225,432.9902 Q552.6752,432.6745 552.5016,432.5009 Q552.1859,432.1695 551.6178,431.9802 Q551.0497,431.775 550.4816,431.775 Q549.7714,431.775 549.1717,432.0591 Q548.5878,432.3431 548.1302,432.9744 Q547.6725,433.6056 547.6725,434.4736 L547.6725,435.4047 Q547.6725,436.4463 548.5247,437.1406 Q549.3769,437.835 550.8919,437.835 Q551.7914,437.835 552.4227,437.6298 Q552.7856,437.5194 553.1959,437.1564 Q553.4642,436.9513 553.6063,436.8881 Q553.7483,436.825 553.9219,436.825 Q554.2533,436.825 554.49,437.0933 Q554.7425,437.3458 554.7425,437.7088 Q554.7425,438.0559 554.3953,438.4663 Q553.8903,439.0659 553.0855,439.3973 Q552.0281,439.855 550.7341,439.855 Q549.2191,439.855 548.0039,439.2553 Q547.0255,438.7819 546.3311,437.7561 Q545.6525,436.7303 545.6525,435.5152 L545.6525,434.4105 Q545.6525,433.148 546.2522,432.0433 Q546.8677,430.9386 547.925,430.3547 Q548.9981,429.755 550.1975,429.755 Q550.9234,429.755 551.5547,430.0075 Q552.1859,430.26 552.7225,430.765 Z "/><text fill="#000000" font-family="sans-serif" font-size="12.12" lengthAdjust="spacingAndGlyphs" textLength="55.55" x="571.4075" y="439.2593">DataBase</text><line style="stroke: #A80036; stroke-width: 1.5150000000000001;" x1="469.145" x2="696.395" y1="450.46" y2="450.46"/><line style="stroke: #A80036; stroke-width: 1.5150000000000001;" x1="469.145" x2="696.395" y1="458.54" y2="458.54"/><text fill="#000000" font-family="sans-serif" font-size="11.11" lengthAdjust="spacingAndGlyphs" textLength="217.15" x="474.195" y="474.1131">+save(id,necessaryEnergy,distance,weight)</text><!--MD5=[6f8a9761215deb5e271c4fbfb586e9bf]
link PickUpOrderUI to PickUpOrderController--><path codeLine="43" d="M395.92,55.6884 C395.92,71.2818 395.92,92.2453 395.92,110.7657 " fill="none" id="PickUpOrderUI-to-PickUpOrderController" style="stroke: #A80036; stroke-width: 1.01; stroke-dasharray: 7.0,7.0;"/><polygon fill="#A80036" points="395.92,115.9187,399.96,106.8287,395.92,110.8687,391.88,106.8287,395.92,115.9187" style="stroke: #A80036; stroke-width: 1.01;"/><!--MD5=[6aa86b9010617d704bc6f1fd04b179bb]
link PickUpOrderController to OrdersHandler--><path codeLine="44" d="M306.8481,184.1058 C256.737,201.5435 193.718,225.7906 140.39,253.51 C130.387,258.7095 120.0961,264.9563 110.4496,271.2668 " fill="none" id="PickUpOrderController-to-OrdersHandler" style="stroke: #A80036; stroke-width: 1.01; stroke-dasharray: 7.0,7.0;"/><polygon fill="#A80036" points="106.066,274.1665,115.8762,272.5208,110.2778,271.3803,111.4182,265.7818,106.066,274.1665" style="stroke: #A80036; stroke-width: 1.01;"/><!--MD5=[88d235466b2cc1803ebdf023a9c58db4]
link PickUpOrderController to Graph--><path codeLine="45" d="M350.8083,193.1322 C325.0847,214.5695 292.8162,241.4597 266.4289,263.4494 " fill="none" id="PickUpOrderController-to-Graph" style="stroke: #A80036; stroke-width: 1.01; stroke-dasharray: 7.0,7.0;"/><polygon fill="#A80036" points="262.2465,266.9339,271.8159,264.2179,266.1259,263.7008,266.643,258.0109,262.2465,266.9339" style="stroke: #A80036; stroke-width: 1.01;"/><!--MD5=[8069b11d90c4f150fb759db2e7e010b3]
link PickUpOrderController to Physics--><path codeLine="46" d="M395.92,193.1322 C395.92,214.0402 395.92,240.1356 395.92,261.8112 " fill="none" id="PickUpOrderController-to-Physics" style="stroke: #A80036; stroke-width: 1.01; stroke-dasharray: 7.0,7.0;"/><polygon fill="#A80036" points="395.92,266.9339,399.96,257.8439,395.92,261.8839,391.88,257.8439,395.92,266.9339" style="stroke: #A80036; stroke-width: 1.01;"/><!--MD5=[6b370610caa11edff7b2fbf14d357686]
link PickUpOrderController to DeliverysHandler--><path codeLine="47" d="M485.0313,182.3929 C539.0229,199.9467 608.628,224.8886 667.61,253.51 C678.414,258.7529 689.5886,265.0634 700.0765,271.4314 " fill="none" id="PickUpOrderController-to-DeliverysHandler" style="stroke: #A80036; stroke-width: 1.01; stroke-dasharray: 7.0,7.0;"/><polygon fill="#A80036" points="704.5265,274.1615,698.8897,265.9654,700.2216,271.5214,694.6656,272.8533,704.5265,274.1615" style="stroke: #A80036; stroke-width: 1.01;"/><!--MD5=[bdb9e2f29063924d8491fae4c50e84ea]
link PickUpOrderController to Delivery--><path codeLine="48" d="M443.0698,193.1322 C464.7364,210.4072 490.8449,231.2233 514.598,250.1619 " fill="none" id="PickUpOrderController-to-Delivery" style="stroke: #A80036; stroke-width: 1.01; stroke-dasharray: 7.0,7.0;"/><polygon fill="#A80036" points="518.6956,253.4282,514.1063,244.6028,514.7469,250.2802,509.0695,250.9207,518.6956,253.4282" style="stroke: #A80036; stroke-width: 1.01;"/><!--MD5=[bd6cb258e7408951774011727072e212]
link Delivery to DataBase--><path codeLine="49" d="M582.77,357.7662 C582.77,376.0402 582.77,396.2105 582.77,412.8782 " fill="none" id="Delivery-to-DataBase" style="stroke: #A80036; stroke-width: 1.01; stroke-dasharray: 7.0,7.0;"/><polygon fill="#A80036" points="582.77,417.9324,586.81,408.8424,582.77,412.8824,578.73,408.8424,582.77,417.9324" style="stroke: #A80036; stroke-width: 1.01;"/><!--MD5=[9a571d66ca41cb12751e7498b0df650f]
@startuml
skinparam classAttributeIconSize 0


class PickUpOrderUI {
}

class PickUpOrderController {
  +newPayment(time, date, nrDays)
  +registersPayment()
}
class EmailAPI{
}

class OrdersHandler{
   +getOrderByID(id)
}

class Graph{
    +shortestPath(order)
    +getDistance(pathlist)
}

class Physics{
    +getNecessaryEnergy(pathList)
    +getOrdersWeight(order)
}

class Delivery{
    String id
    double necessaryEnergy
    double distance
    double weight
}

class DeliverysHandler{
    +saveDelivery(del)
}

class DataBase{
    +save(id,necessaryEnergy,distance,weight)
}

PickUpOrderUI ..> PickUpOrderController
PickUpOrderController ..> OrdersHandler
PickUpOrderController ..> Graph
PickUpOrderController ..> Physics
PickUpOrderController ..> DeliverysHandler
PickUpOrderController ..> Delivery
Delivery ..> DataBase



@enduml

PlantUML version 1.2020.19(Mon Oct 12 16:10:01 BST 2020)
(GPL source distribution)
Java Runtime: OpenJDK Runtime Environment
JVM: OpenJDK 64-Bit Server VM
Default Encoding: Cp1252
Language: pt
Country: PT
--></g></svg>