<?xml version="1.0" encoding="UTF-8" standalone="no"?><svg xmlns="http://www.w3.org/2000/svg" xmlns:xlink="http://www.w3.org/1999/xlink" contentScriptType="application/ecmascript" contentStyleType="text/css" height="310.07px" preserveAspectRatio="none" style="width:1076px;height:310px;" version="1.1" viewBox="0 0 1076 310" width="1076.66px" zoomAndPan="magnify"><defs><filter height="300%" id="fn0k02ma5zuvy" width="300%" x="-1" y="-1"><feGaussianBlur result="blurOut" stdDeviation="2.02"/><feColorMatrix in="blurOut" result="blurOut2" type="matrix" values="0 0 0 0 0 0 0 0 0 0 0 0 0 0 0 0 0 0 .4 0"/><feOffset dx="4.04" dy="4.04" in="blurOut2" result="blurOut3"/><feBlend in="SourceGraphic" in2="blurOut3" mode="normal"/></filter></defs><g><!--MD5=[c6a2171c11447acbe08a3dfeee0e1710]
class Courier--><rect codeLine="6" fill="#FEFECE" filter="url(#fn0k02ma5zuvy)" height="82.3229" id="Courier" style="stroke: #A80036; stroke-width: 1.5150000000000001;" width="147.46" x="219.17" y="87.365"/><ellipse cx="267.9025" cy="103.525" fill="#ADD1B2" rx="11.11" ry="11.11" style="stroke: #A80036; stroke-width: 1.01;"/><path d="M269.9225,99.99 Q270.1277,99.485 270.3644,99.2325 Q270.6011,98.98 270.8694,98.98 Q271.3428,98.98 271.6427,99.2641 Q271.9425,99.5481 271.9425,100.2109 L271.9425,101.7891 Q271.9425,102.4519 271.6584,102.7359 Q271.3744,103.02 270.9325,103.02 Q270.538,103.02 270.2855,102.8464 Q270.033,102.6728 269.9225,102.2152 Q269.8752,101.8995 269.7016,101.7259 Q269.3859,101.3945 268.8178,101.2052 Q268.2497,101 267.6816,101 Q266.9714,101 266.3717,101.2841 Q265.7878,101.5681 265.3302,102.1994 Q264.8725,102.8306 264.8725,103.6986 L264.8725,104.6297 Q264.8725,105.6713 265.7247,106.3656 Q266.5769,107.06 268.0919,107.06 Q268.9914,107.06 269.6227,106.8548 Q269.9856,106.7444 270.3959,106.3814 Q270.6642,106.1763 270.8063,106.1131 Q270.9483,106.05 271.1219,106.05 Q271.4533,106.05 271.69,106.3183 Q271.9425,106.5708 271.9425,106.9338 Q271.9425,107.2809 271.5953,107.6913 Q271.0903,108.2909 270.2855,108.6223 Q269.2281,109.08 267.9341,109.08 Q266.4191,109.08 265.2039,108.4803 Q264.2255,108.0069 263.5311,106.9811 Q262.8525,105.9553 262.8525,104.7402 L262.8525,103.6355 Q262.8525,102.373 263.4522,101.2683 Q264.0677,100.1636 265.125,99.5797 Q266.1981,98.98 267.3975,98.98 Q268.1234,98.98 268.7547,99.2325 Q269.3859,99.485 269.9225,99.99 Z "/><text fill="#000000" font-family="sans-serif" font-size="12.12" lengthAdjust="spacingAndGlyphs" textLength="41.41" x="288.6075" y="108.4843">Courier</text><line style="stroke: #A80036; stroke-width: 1.5150000000000001;" x1="220.18" x2="365.62" y1="119.685" y2="119.685"/><text fill="#000000" font-family="sans-serif" font-size="11.11" lengthAdjust="spacingAndGlyphs" textLength="61.61" x="225.23" y="135.2581">-String name</text><text fill="#000000" font-family="sans-serif" font-size="11.11" lengthAdjust="spacingAndGlyphs" textLength="59.59" x="225.23" y="149.2324">-String email</text><text fill="#000000" font-family="sans-serif" font-size="11.11" lengthAdjust="spacingAndGlyphs" textLength="135.34" x="225.23" y="163.2067">-double maxWeightCapacity</text><!--MD5=[7f2a9fafcebe4f099f71398fd3e2ed00]
class Pharmacy--><rect codeLine="12" fill="#FEFECE" filter="url(#fn0k02ma5zuvy)" height="82.3229" id="Pharmacy" style="stroke: #A80036; stroke-width: 1.5150000000000001;" width="113.12" x="7.07" y="184.325"/><ellipse cx="33.5825" cy="200.485" fill="#ADD1B2" rx="11.11" ry="11.11" style="stroke: #A80036; stroke-width: 1.01;"/><path d="M35.6025,196.95 Q35.8077,196.445 36.0444,196.1925 Q36.2811,195.94 36.5494,195.94 Q37.0228,195.94 37.3227,196.2241 Q37.6225,196.5081 37.6225,197.1709 L37.6225,198.7491 Q37.6225,199.4119 37.3384,199.6959 Q37.0544,199.98 36.6125,199.98 Q36.218,199.98 35.9655,199.8064 Q35.713,199.6328 35.6025,199.1752 Q35.5552,198.8595 35.3816,198.6859 Q35.0659,198.3545 34.4978,198.1652 Q33.9297,197.96 33.3616,197.96 Q32.6514,197.96 32.0517,198.2441 Q31.4678,198.5281 31.0102,199.1594 Q30.5525,199.7906 30.5525,200.6586 L30.5525,201.5897 Q30.5525,202.6313 31.4047,203.3256 Q32.2569,204.02 33.7719,204.02 Q34.6714,204.02 35.3027,203.8148 Q35.6656,203.7044 36.0759,203.3414 Q36.3442,203.1363 36.4863,203.0731 Q36.6283,203.01 36.8019,203.01 Q37.1333,203.01 37.37,203.2783 Q37.6225,203.5308 37.6225,203.8938 Q37.6225,204.2409 37.2753,204.6513 Q36.7703,205.2509 35.9655,205.5823 Q34.9081,206.04 33.6141,206.04 Q32.0991,206.04 30.8839,205.4403 Q29.9055,204.9669 29.2111,203.9411 Q28.5325,202.9153 28.5325,201.7002 L28.5325,200.5955 Q28.5325,199.333 29.1322,198.2283 Q29.7477,197.1236 30.805,196.5397 Q31.8781,195.94 33.0775,195.94 Q33.8034,195.94 34.4347,196.1925 Q35.0659,196.445 35.6025,196.95 Z "/><text fill="#000000" font-family="sans-serif" font-size="12.12" lengthAdjust="spacingAndGlyphs" textLength="55.55" x="50.2475" y="205.4443">Pharmacy</text><line style="stroke: #A80036; stroke-width: 1.5150000000000001;" x1="8.08" x2="119.18" y1="216.645" y2="216.645"/><text fill="#000000" font-family="sans-serif" font-size="11.11" lengthAdjust="spacingAndGlyphs" textLength="43.43" x="13.13" y="232.2181">-String id</text><text fill="#000000" font-family="sans-serif" font-size="11.11" lengthAdjust="spacingAndGlyphs" textLength="61.61" x="13.13" y="246.1924">-String name</text><text fill="#000000" font-family="sans-serif" font-size="11.11" lengthAdjust="spacingAndGlyphs" textLength="101" x="13.13" y="260.1667">-int quantityScooters</text><!--MD5=[29a4e6f18f75b5a8d2a8d0982fb2d008]
class ElectricScooter--><rect codeLine="18" fill="#FEFECE" filter="url(#fn0k02ma5zuvy)" height="82.3229" id="ElectricScooter" style="stroke: #A80036; stroke-width: 1.5150000000000001;" width="116.15" x="746.39" y="167.155"/><ellipse cx="761.9945" cy="183.315" fill="#ADD1B2" rx="11.11" ry="11.11" style="stroke: #A80036; stroke-width: 1.01;"/><path d="M764.0145,179.78 Q764.2197,179.275 764.4564,179.0225 Q764.6931,178.77 764.9614,178.77 Q765.4348,178.77 765.7347,179.0541 Q766.0345,179.3381 766.0345,180.0009 L766.0345,181.5791 Q766.0345,182.2419 765.7504,182.5259 Q765.4664,182.81 765.0245,182.81 Q764.63,182.81 764.3775,182.6364 Q764.125,182.4628 764.0145,182.0052 Q763.9672,181.6895 763.7936,181.5159 Q763.4779,181.1845 762.9098,180.9952 Q762.3417,180.79 761.7736,180.79 Q761.0634,180.79 760.4637,181.0741 Q759.8798,181.3581 759.4222,181.9894 Q758.9645,182.6206 758.9645,183.4886 L758.9645,184.4197 Q758.9645,185.4613 759.8167,186.1556 Q760.6689,186.85 762.1839,186.85 Q763.0834,186.85 763.7147,186.6448 Q764.0776,186.5344 764.4879,186.1714 Q764.7562,185.9663 764.8983,185.9031 Q765.0403,185.84 765.2139,185.84 Q765.5453,185.84 765.782,186.1083 Q766.0345,186.3608 766.0345,186.7238 Q766.0345,187.0709 765.6873,187.4813 Q765.1823,188.0809 764.3775,188.4123 Q763.3201,188.87 762.0261,188.87 Q760.5111,188.87 759.2959,188.2703 Q758.3175,187.7969 757.6231,186.7711 Q756.9445,185.7453 756.9445,184.5302 L756.9445,183.4255 Q756.9445,182.163 757.5442,181.0583 Q758.1597,179.9536 759.217,179.3697 Q760.2901,178.77 761.4895,178.77 Q762.2154,178.77 762.8467,179.0225 Q763.4779,179.275 764.0145,179.78 Z "/><text fill="#000000" font-family="sans-serif" font-size="12.12" lengthAdjust="spacingAndGlyphs" textLength="82.82" x="776.2355" y="188.2743">ElectricScooter</text><line style="stroke: #A80036; stroke-width: 1.5150000000000001;" x1="747.4" x2="861.53" y1="199.475" y2="199.475"/><text fill="#000000" font-family="sans-serif" font-size="11.11" lengthAdjust="spacingAndGlyphs" textLength="43.43" x="752.45" y="215.0481">-String id</text><text fill="#000000" font-family="sans-serif" font-size="11.11" lengthAdjust="spacingAndGlyphs" textLength="94.94" x="752.45" y="229.0224">-double maxBattery</text><text fill="#000000" font-family="sans-serif" font-size="11.11" lengthAdjust="spacingAndGlyphs" textLength="104.03" x="752.45" y="242.9967">-double actualBattery</text><!--MD5=[cf4d6237fcae255cd2e1656cf84a30e2]
class Order--><rect codeLine="24" fill="#FEFECE" filter="url(#fn0k02ma5zuvy)" height="124.2458" id="Order" style="stroke: #A80036; stroke-width: 1.5150000000000001;" width="111.1" x="748.915" y="7.07"/><ellipse cx="785.4265" cy="23.23" fill="#ADD1B2" rx="11.11" ry="11.11" style="stroke: #A80036; stroke-width: 1.01;"/><path d="M787.4465,19.695 Q787.6517,19.19 787.8884,18.9375 Q788.1251,18.685 788.3934,18.685 Q788.8668,18.685 789.1667,18.9691 Q789.4665,19.2531 789.4665,19.9159 L789.4665,21.4941 Q789.4665,22.1569 789.1824,22.4409 Q788.8984,22.725 788.4565,22.725 Q788.062,22.725 787.8095,22.5514 Q787.557,22.3778 787.4465,21.9202 Q787.3992,21.6045 787.2256,21.4309 Q786.9099,21.0995 786.3418,20.9102 Q785.7737,20.705 785.2056,20.705 Q784.4954,20.705 783.8957,20.9891 Q783.3118,21.2731 782.8542,21.9044 Q782.3965,22.5356 782.3965,23.4036 L782.3965,24.3347 Q782.3965,25.3763 783.2487,26.0706 Q784.1009,26.765 785.6159,26.765 Q786.5154,26.765 787.1467,26.5598 Q787.5096,26.4494 787.9199,26.0864 Q788.1882,25.8813 788.3303,25.8181 Q788.4723,25.755 788.6459,25.755 Q788.9773,25.755 789.214,26.0233 Q789.4665,26.2758 789.4665,26.6388 Q789.4665,26.9859 789.1193,27.3963 Q788.6143,27.9959 787.8095,28.3273 Q786.7521,28.785 785.4581,28.785 Q783.9431,28.785 782.7279,28.1853 Q781.7495,27.7119 781.0551,26.6861 Q780.3765,25.6603 780.3765,24.4452 L780.3765,23.3405 Q780.3765,22.078 780.9762,20.9733 Q781.5917,19.8686 782.649,19.2847 Q783.7221,18.685 784.9215,18.685 Q785.6474,18.685 786.2787,18.9375 Q786.9099,19.19 787.4465,19.695 Z "/><text fill="#000000" font-family="sans-serif" font-size="12.12" lengthAdjust="spacingAndGlyphs" textLength="31.31" x="804.3135" y="28.1893">Order</text><line style="stroke: #A80036; stroke-width: 1.5150000000000001;" x1="749.925" x2="859.005" y1="39.39" y2="39.39"/><text fill="#000000" font-family="sans-serif" font-size="11.11" lengthAdjust="spacingAndGlyphs" textLength="71.71" x="754.975" y="54.9631">-String number</text><text fill="#000000" font-family="sans-serif" font-size="11.11" lengthAdjust="spacingAndGlyphs" textLength="95.95" x="754.975" y="68.9374">-int productQuantity</text><text fill="#000000" font-family="sans-serif" font-size="11.11" lengthAdjust="spacingAndGlyphs" textLength="56.56" x="754.975" y="82.9117">-String date</text><text fill="#000000" font-family="sans-serif" font-size="11.11" lengthAdjust="spacingAndGlyphs" textLength="83.83" x="754.975" y="96.886">-double finalPrice</text><text fill="#000000" font-family="sans-serif" font-size="11.11" lengthAdjust="spacingAndGlyphs" textLength="98.98" x="754.975" y="110.8603">-double orderWeight</text><text fill="#000000" font-family="sans-serif" font-size="11.11" lengthAdjust="spacingAndGlyphs" textLength="75.75" x="754.975" y="124.8346">-boolean status</text><!--MD5=[72136138052d025cffdce3c22fbd185f]
class Product--><rect codeLine="35" fill="#FEFECE" filter="url(#fn0k02ma5zuvy)" height="110.2715" id="Product" style="stroke: #A80036; stroke-width: 1.5150000000000001;" width="101" x="961.52" y="175.74"/><ellipse cx="988.487" cy="191.9" fill="#ADD1B2" rx="11.11" ry="11.11" style="stroke: #A80036; stroke-width: 1.01;"/><path d="M990.507,188.365 Q990.7122,187.86 990.9489,187.6075 Q991.1856,187.355 991.4539,187.355 Q991.9273,187.355 992.2272,187.6391 Q992.527,187.9231 992.527,188.5859 L992.527,190.1641 Q992.527,190.8269 992.2429,191.1109 Q991.9589,191.395 991.517,191.395 Q991.1225,191.395 990.87,191.2214 Q990.6175,191.0478 990.507,190.5902 Q990.4597,190.2745 990.2861,190.1009 Q989.9704,189.7695 989.4023,189.5802 Q988.8342,189.375 988.2661,189.375 Q987.5559,189.375 986.9562,189.6591 Q986.3723,189.9431 985.9147,190.5744 Q985.457,191.2056 985.457,192.0736 L985.457,193.0047 Q985.457,194.0463 986.3092,194.7406 Q987.1614,195.435 988.6764,195.435 Q989.5759,195.435 990.2072,195.2298 Q990.5701,195.1194 990.9804,194.7564 Q991.2487,194.5513 991.3908,194.4881 Q991.5328,194.425 991.7064,194.425 Q992.0378,194.425 992.2745,194.6933 Q992.527,194.9458 992.527,195.3088 Q992.527,195.6559 992.1798,196.0663 Q991.6748,196.6659 990.87,196.9973 Q989.8126,197.455 988.5186,197.455 Q987.0036,197.455 985.7884,196.8553 Q984.81,196.3819 984.1156,195.3561 Q983.437,194.3303 983.437,193.1152 L983.437,192.0105 Q983.437,190.748 984.0367,189.6433 Q984.6522,188.5386 985.7095,187.9547 Q986.7826,187.355 987.982,187.355 Q988.7079,187.355 989.3392,187.6075 Q989.9704,187.86 990.507,188.365 Z "/><text fill="#000000" font-family="sans-serif" font-size="12.12" lengthAdjust="spacingAndGlyphs" textLength="42.42" x="1005.253" y="196.8593">Product</text><line style="stroke: #A80036; stroke-width: 1.5150000000000001;" x1="962.53" x2="1061.51" y1="208.06" y2="208.06"/><text fill="#000000" font-family="sans-serif" font-size="11.11" lengthAdjust="spacingAndGlyphs" textLength="43.43" x="967.58" y="223.6331">-String id</text><text fill="#000000" font-family="sans-serif" font-size="11.11" lengthAdjust="spacingAndGlyphs" textLength="61.61" x="967.58" y="237.6074">-String name</text><text fill="#000000" font-family="sans-serif" font-size="11.11" lengthAdjust="spacingAndGlyphs" textLength="88.88" x="967.58" y="251.5817">-String description</text><text fill="#000000" font-family="sans-serif" font-size="11.11" lengthAdjust="spacingAndGlyphs" textLength="63.63" x="967.58" y="265.556">-double price</text><text fill="#000000" font-family="sans-serif" font-size="11.11" lengthAdjust="spacingAndGlyphs" textLength="72.72" x="967.58" y="279.5303">-double weight</text><!--MD5=[fff5db4abcb6eec6574b9ea9c3ee0eae]
class Delivery--><rect codeLine="44" fill="#FEFECE" filter="url(#fn0k02ma5zuvy)" height="96.2972" id="Delivery" style="stroke: #A80036; stroke-width: 1.5150000000000001;" width="138.37" x="472.68" y="75.75"/><ellipse cx="516.009" cy="91.91" fill="#ADD1B2" rx="11.11" ry="11.11" style="stroke: #A80036; stroke-width: 1.01;"/><path d="M518.029,88.375 Q518.2342,87.87 518.4709,87.6175 Q518.7076,87.365 518.9759,87.365 Q519.4493,87.365 519.7492,87.6491 Q520.049,87.9331 520.049,88.5959 L520.049,90.1741 Q520.049,90.8369 519.7649,91.1209 Q519.4809,91.405 519.039,91.405 Q518.6445,91.405 518.392,91.2314 Q518.1395,91.0578 518.029,90.6002 Q517.9817,90.2845 517.8081,90.1109 Q517.4924,89.7795 516.9243,89.5902 Q516.3562,89.385 515.7881,89.385 Q515.0779,89.385 514.4782,89.6691 Q513.8943,89.9531 513.4367,90.5844 Q512.979,91.2156 512.979,92.0836 L512.979,93.0147 Q512.979,94.0563 513.8312,94.7506 Q514.6834,95.445 516.1984,95.445 Q517.0979,95.445 517.7292,95.2398 Q518.0921,95.1294 518.5024,94.7664 Q518.7707,94.5613 518.9128,94.4981 Q519.0548,94.435 519.2284,94.435 Q519.5598,94.435 519.7965,94.7033 Q520.049,94.9558 520.049,95.3188 Q520.049,95.6659 519.7018,96.0763 Q519.1968,96.6759 518.392,97.0073 Q517.3346,97.465 516.0406,97.465 Q514.5256,97.465 513.3104,96.8653 Q512.332,96.3919 511.6376,95.3661 Q510.959,94.3403 510.959,93.1252 L510.959,92.0205 Q510.959,90.758 511.5587,89.6533 Q512.1742,88.5486 513.2315,87.9647 Q514.3046,87.365 515.504,87.365 Q516.2299,87.365 516.8612,87.6175 Q517.4924,87.87 518.029,88.375 Z "/><text fill="#000000" font-family="sans-serif" font-size="12.12" lengthAdjust="spacingAndGlyphs" textLength="43.43" x="536.411" y="96.8693">Delivery</text><line style="stroke: #A80036; stroke-width: 1.5150000000000001;" x1="473.69" x2="610.04" y1="108.07" y2="108.07"/><text fill="#000000" font-family="sans-serif" font-size="11.11" lengthAdjust="spacingAndGlyphs" textLength="43.43" x="478.74" y="123.6431">-String id</text><text fill="#000000" font-family="sans-serif" font-size="11.11" lengthAdjust="spacingAndGlyphs" textLength="126.25" x="478.74" y="137.6174">-double necessaryEnergy</text><text fill="#000000" font-family="sans-serif" font-size="11.11" lengthAdjust="spacingAndGlyphs" textLength="80.8" x="478.74" y="151.5917">-double distance</text><text fill="#000000" font-family="sans-serif" font-size="11.11" lengthAdjust="spacingAndGlyphs" textLength="72.72" x="478.74" y="165.566">-double weight</text><!--MD5=[5df16df72a49edaa4f00919f1e597f76]
link Order to Product--><path codeLine="53" d="M860.2847,112.2787 C891.6795,136.9621 930.7716,167.6984 961.2766,191.6818 " fill="none" id="Order-Product" style="stroke: #A80036; stroke-width: 1.01;"/><polygon fill="#000000" points="901.8599,134.0938,896.5129,126.1139,892.8436,130.7808,901.8599,134.0938" style="stroke: #000000; stroke-width: 1.01;"/><text fill="#000000" font-family="sans-serif" font-size="13.13" lengthAdjust="spacingAndGlyphs" textLength="23.23" x="906.98" y="136.3451">Has</text><text fill="#000000" font-family="sans-serif" font-size="13.13" lengthAdjust="spacingAndGlyphs" textLength="7.07" x="868.2605" y="132.808">1</text><text fill="#000000" font-family="sans-serif" font-size="13.13" lengthAdjust="spacingAndGlyphs" textLength="15.15" x="938.2901" y="201.1548">1..</text><!--MD5=[737ca6dd1a667cd849e932d7cf955580]
link Pharmacy to Product--><path codeLine="57" d="M120.2728,256.2485 C165.2077,278.0362 230.8002,303.505 291.89,303.505 C291.89,303.505 291.89,303.505 805.475,303.505 C861.1159,303.505 920.6271,279.5272 961.217,259.1086 " fill="none" id="Pharmacy-Product" style="stroke: #A80036; stroke-width: 1.01;"/><polygon fill="#000000" points="532.775,294.6097,523.6496,291.6103,523.6294,297.5469,532.775,294.6097" style="stroke: #000000; stroke-width: 1.01;"/><text fill="#000000" font-family="sans-serif" font-size="13.13" lengthAdjust="spacingAndGlyphs" textLength="23.23" x="536.815" y="299.9651">Has</text><text fill="#000000" font-family="sans-serif" font-size="13.13" lengthAdjust="spacingAndGlyphs" textLength="7.07" x="128.3592" y="275.1218">1</text><text fill="#000000" font-family="sans-serif" font-size="13.13" lengthAdjust="spacingAndGlyphs" textLength="15.15" x="938.2225" y="277.6421">1..</text><!--MD5=[0643aaab1f96e564b90d0ad5c3af18e6]
link Pharmacy to Courier--><path codeLine="58" d="M120.2314,202.0162 C149.9284,189.3457 186.854,173.5907 218.8407,159.9426 " fill="none" id="Pharmacy-Courier" style="stroke: #A80036; stroke-width: 1.01;"/><polygon fill="#000000" points="160.1849,163.3307,150.6173,164.1857,152.9471,169.6461,160.1849,163.3307" style="stroke: #000000; stroke-width: 1.01;"/><text fill="#000000" font-family="sans-serif" font-size="13.13" lengthAdjust="spacingAndGlyphs" textLength="23.23" x="164.63" y="170.6851">Has</text><text fill="#000000" font-family="sans-serif" font-size="13.13" lengthAdjust="spacingAndGlyphs" textLength="7.07" x="128.3122" y="213.602">1</text><text fill="#000000" font-family="sans-serif" font-size="13.13" lengthAdjust="spacingAndGlyphs" textLength="15.15" x="195.91" y="177.3541">1..</text><!--MD5=[977da9dd56f40a245d04e6016286c5c9]
link Pharmacy to ElectricScooter--><path codeLine="60" d="M120.4738,224.4375 C257.2935,221.2578 608.1675,213.1034 746.3264,209.8926 " fill="none" id="Pharmacy-ElectricScooter" style="stroke: #A80036; stroke-width: 1.01;"/><polygon fill="#000000" points="410.5636,207.6152,401.3616,204.8599,401.4995,210.795,410.5636,207.6152" style="stroke: #000000; stroke-width: 1.01;"/><text fill="#000000" font-family="sans-serif" font-size="13.13" lengthAdjust="spacingAndGlyphs" textLength="23.23" x="414.605" y="213.1051">Has</text><text fill="#000000" font-family="sans-serif" font-size="13.13" lengthAdjust="spacingAndGlyphs" textLength="7.07" x="128.2098" y="238.9911">1</text><text fill="#000000" font-family="sans-serif" font-size="13.13" lengthAdjust="spacingAndGlyphs" textLength="15.15" x="723.1675" y="224.7212">1..</text><!--MD5=[5d462235496920812faf21348f4080ac]
link Delivery to Order--><path codeLine="64" d="M611.3389,109.3951 C654.1639,100.4324 708.5897,89.0406 748.5706,80.6727 " fill="none" id="Delivery-Order" style="stroke: #A80036; stroke-width: 1.01;"/><polygon fill="#000000" points="669.5229,78.428,659.973,77.3941,661.1892,83.2049,669.5229,78.428" style="stroke: #000000; stroke-width: 1.01;"/><text fill="#000000" font-family="sans-serif" font-size="13.13" lengthAdjust="spacingAndGlyphs" textLength="23.23" x="673.67" y="84.8351">Has</text><text fill="#000000" font-family="sans-serif" font-size="13.13" lengthAdjust="spacingAndGlyphs" textLength="7.07" x="619.3242" y="122.342">1</text><text fill="#000000" font-family="sans-serif" font-size="13.13" lengthAdjust="spacingAndGlyphs" textLength="15.15" x="725.6853" y="96.7083">1..</text><!--MD5=[8cb3ca92cec08d3cf0248fd29455b32d]
link Delivery to ElectricScooter--><path codeLine="65" d="M611.3389,146.0157 C653.2599,159.6638 706.295,176.9318 746.0173,189.8649 " fill="none" id="Delivery-ElectricScooter" style="stroke: #A80036; stroke-width: 1.01;"/><polygon fill="#000000" points="651.2019,148.696,643.4341,143.0452,641.5962,148.6902,651.2019,148.696" style="stroke: #000000; stroke-width: 1.01;"/><text fill="#000000" font-family="sans-serif" font-size="13.13" lengthAdjust="spacingAndGlyphs" textLength="59.59" x="655.49" y="152.5051">Made with</text><text fill="#000000" font-family="sans-serif" font-size="13.13" lengthAdjust="spacingAndGlyphs" textLength="7.07" x="619.3242" y="162.968">1</text><text fill="#000000" font-family="sans-serif" font-size="13.13" lengthAdjust="spacingAndGlyphs" textLength="7.07" x="731.3932" y="202.2525">1</text><!--MD5=[7471b15d97b16c1e8744ea00ac81bc31]
link Courier to Delivery--><path codeLine="67" d="M366.6664,127.2873 C400.0994,126.6035 439.5379,125.7965 472.4255,125.1249 " fill="none" id="Courier-Delivery" style="stroke: #A80036; stroke-width: 1.01;"/><polygon fill="#000000" points="407.0289,116.7293,397.8346,113.9484,397.956,119.8838,407.0289,116.7293" style="stroke: #000000; stroke-width: 1.01;"/><text fill="#000000" font-family="sans-serif" font-size="13.13" lengthAdjust="spacingAndGlyphs" textLength="30.3" x="411.07" y="122.2051">Does</text><text fill="#000000" font-family="sans-serif" font-size="13.13" lengthAdjust="spacingAndGlyphs" textLength="7.07" x="374.6381" y="141.6411">1</text><text fill="#000000" font-family="sans-serif" font-size="13.13" lengthAdjust="spacingAndGlyphs" textLength="7.07" x="457.3739" y="139.7922">1</text><!--MD5=[9a448d8836aad866cf64dfd62be8bf4b]
@startuml
skinparam classAttributeIconSize 0
hide methods
left to right direction


class Courier {
  -String name
  -String email
  -double maxWeightCapacity
}

class Pharmacy {
  -String id
  -String name
  -int quantityScooters
  }

class ElectricScooter {
  -String id
  -double maxBattery
  -double actualBattery
  }

class Order {
  -String number
  -int productQuantity
  -String date
  -double finalPrice
  -double orderWeight
  -boolean status
  }



class Product {
  -String id
  -String name
  -String description
  -double price
  -double weight
}


class Delivery {
  -String id
  -double necessaryEnergy
  -double distance
  -double weight
}



Order "1" - - "1.." Product: Has >



Pharmacy "1" - - "1.." Product: Has >
Pharmacy "1" - - "1.." Courier: Has >

Pharmacy "1" - - "1.." ElectricScooter: Has >



Delivery "1" - - "1.." Order: Has >
Delivery "1" - - "1" ElectricScooter: Made with >

Courier "1" - - "1" Delivery: Does >


@enduml

PlantUML version 1.2020.19(Mon Oct 12 16:10:01 BST 2020)
(GPL source distribution)
Java Runtime: OpenJDK Runtime Environment
JVM: OpenJDK 64-Bit Server VM
Default Encoding: Cp1252
Language: pt
Country: PT
--></g></svg>