<?xml version="1.0" encoding="UTF-8" standalone="no"?><svg xmlns="http://www.w3.org/2000/svg" xmlns:xlink="http://www.w3.org/1999/xlink" contentScriptType="application/ecmascript" contentStyleType="text/css" height="457px" preserveAspectRatio="none" style="width:215px;height:457px;" version="1.1" viewBox="0 0 215 457" width="215px" zoomAndPan="magnify"><defs><filter height="300%" id="f1ccm4vxo14uns" width="300%" x="-1" y="-1"><feGaussianBlur result="blurOut" stdDeviation="2.0"/><feColorMatrix in="blurOut" result="blurOut2" type="matrix" values="0 0 0 0 0 0 0 0 0 0 0 0 0 0 0 0 0 0 .4 0"/><feOffset dx="4.0" dy="4.0" in="blurOut2" result="blurOut3"/><feBlend in="SourceGraphic" in2="blurOut3" mode="normal"/></filter></defs><g><!--MD5=[bf12d96c92a5a224f813fdbdeb3dedac]
class RemoveMedicineController--><rect codeLine="3" fill="#FEFECE" filter="url(#f1ccm4vxo14uns)" height="73.6094" id="RemoveMedicineController" style="stroke:#A80036;stroke-width:1.5;" width="194" x="7" y="115"/><ellipse cx="22" cy="131" fill="#ADD1B2" rx="11" ry="11" style="stroke:#A80036;stroke-width:1.0;"/><path d="M24.3438,126.6719 C23.4063,126.2344 22.8125,126.0938 21.9375,126.0938 C19.3125,126.0938 17.3125,128.1719 17.3125,130.8906 L17.3125,132.0156 C17.3125,134.5938 19.4219,136.4844 22.3125,136.4844 C23.5313,136.4844 24.6875,136.1875 25.4375,135.6406 C26.0156,135.2344 26.3438,134.7813 26.3438,134.3906 C26.3438,133.9375 25.9531,133.5469 25.4844,133.5469 C25.2656,133.5469 25.0625,133.625 24.875,133.8125 C24.4219,134.2969 24.4219,134.2969 24.2344,134.3906 C23.8125,134.6563 23.125,134.7813 22.3594,134.7813 C20.3125,134.7813 19.0156,133.6875 19.0156,131.9844 L19.0156,130.8906 C19.0156,129.1094 20.2656,127.7969 22,127.7969 C22.5781,127.7969 23.1875,127.9531 23.6563,128.2031 C24.1406,128.4844 24.3125,128.7031 24.4063,129.1094 C24.4688,129.5156 24.5,129.6406 24.6406,129.7656 C24.7813,129.9063 25.0156,130.0156 25.2344,130.0156 C25.5,130.0156 25.7656,129.875 25.9375,129.6563 C26.0469,129.5 26.0781,129.3125 26.0781,128.8906 L26.0781,127.4688 C26.0781,127.0313 26.0625,126.9063 25.9688,126.75 C25.8125,126.4844 25.5313,126.3438 25.2344,126.3438 C24.9375,126.3438 24.7344,126.4375 24.5156,126.75 L24.3438,126.6719 Z " fill="#000000"/><text fill="#000000" font-family="sans-serif" font-size="12" lengthAdjust="spacing" textLength="162" x="36" y="135.1543">RemoveMedicineController</text><line style="stroke:#A80036;stroke-width:1.5;" x1="8" x2="200" y1="147" y2="147"/><line style="stroke:#A80036;stroke-width:1.5;" x1="8" x2="200" y1="155" y2="155"/><text fill="#000000" font-family="sans-serif" font-size="11" lengthAdjust="spacing" textLength="112" x="13" y="169.2104">+getMedicinesList()</text><text fill="#000000" font-family="sans-serif" font-size="11" lengthAdjust="spacing" textLength="123" x="13" y="182.0151">+removeMedicine(id)</text><!--MD5=[36acc448ce9c38275c9fb662066a5b5f]
class RemoveMedicineUI--><rect codeLine="8" fill="#FEFECE" filter="url(#f1ccm4vxo14uns)" height="48" id="RemoveMedicineUI" style="stroke:#A80036;stroke-width:1.5;" width="147" x="30.5" y="7"/><ellipse cx="45.5" cy="23" fill="#ADD1B2" rx="11" ry="11" style="stroke:#A80036;stroke-width:1.0;"/><path d="M47.8438,18.6719 C46.9063,18.2344 46.3125,18.0938 45.4375,18.0938 C42.8125,18.0938 40.8125,20.1719 40.8125,22.8906 L40.8125,24.0156 C40.8125,26.5938 42.9219,28.4844 45.8125,28.4844 C47.0313,28.4844 48.1875,28.1875 48.9375,27.6406 C49.5156,27.2344 49.8438,26.7813 49.8438,26.3906 C49.8438,25.9375 49.4531,25.5469 48.9844,25.5469 C48.7656,25.5469 48.5625,25.625 48.375,25.8125 C47.9219,26.2969 47.9219,26.2969 47.7344,26.3906 C47.3125,26.6563 46.625,26.7813 45.8594,26.7813 C43.8125,26.7813 42.5156,25.6875 42.5156,23.9844 L42.5156,22.8906 C42.5156,21.1094 43.7656,19.7969 45.5,19.7969 C46.0781,19.7969 46.6875,19.9531 47.1563,20.2031 C47.6406,20.4844 47.8125,20.7031 47.9063,21.1094 C47.9688,21.5156 48,21.6406 48.1406,21.7656 C48.2813,21.9063 48.5156,22.0156 48.7344,22.0156 C49,22.0156 49.2656,21.875 49.4375,21.6563 C49.5469,21.5 49.5781,21.3125 49.5781,20.8906 L49.5781,19.4688 C49.5781,19.0313 49.5625,18.9063 49.4688,18.75 C49.3125,18.4844 49.0313,18.3438 48.7344,18.3438 C48.4375,18.3438 48.2344,18.4375 48.0156,18.75 L47.8438,18.6719 Z " fill="#000000"/><text fill="#000000" font-family="sans-serif" font-size="12" lengthAdjust="spacing" textLength="115" x="59.5" y="27.1543">RemoveMedicineUI</text><line style="stroke:#A80036;stroke-width:1.5;" x1="31.5" x2="176.5" y1="39" y2="39"/><line style="stroke:#A80036;stroke-width:1.5;" x1="31.5" x2="176.5" y1="47" y2="47"/><!--MD5=[6abf378e3cb5ccaa74d2ccddc974f58a]
class MedicineHandler--><rect codeLine="11" fill="#FEFECE" filter="url(#f1ccm4vxo14uns)" height="73.6094" id="MedicineHandler" style="stroke:#A80036;stroke-width:1.5;" width="133" x="37.5" y="249"/><ellipse cx="52.5" cy="265" fill="#ADD1B2" rx="11" ry="11" style="stroke:#A80036;stroke-width:1.0;"/><path d="M54.8438,260.6719 C53.9063,260.2344 53.3125,260.0938 52.4375,260.0938 C49.8125,260.0938 47.8125,262.1719 47.8125,264.8906 L47.8125,266.0156 C47.8125,268.5938 49.9219,270.4844 52.8125,270.4844 C54.0313,270.4844 55.1875,270.1875 55.9375,269.6406 C56.5156,269.2344 56.8438,268.7813 56.8438,268.3906 C56.8438,267.9375 56.4531,267.5469 55.9844,267.5469 C55.7656,267.5469 55.5625,267.625 55.375,267.8125 C54.9219,268.2969 54.9219,268.2969 54.7344,268.3906 C54.3125,268.6563 53.625,268.7813 52.8594,268.7813 C50.8125,268.7813 49.5156,267.6875 49.5156,265.9844 L49.5156,264.8906 C49.5156,263.1094 50.7656,261.7969 52.5,261.7969 C53.0781,261.7969 53.6875,261.9531 54.1563,262.2031 C54.6406,262.4844 54.8125,262.7031 54.9063,263.1094 C54.9688,263.5156 55,263.6406 55.1406,263.7656 C55.2813,263.9063 55.5156,264.0156 55.7344,264.0156 C56,264.0156 56.2656,263.875 56.4375,263.6563 C56.5469,263.5 56.5781,263.3125 56.5781,262.8906 L56.5781,261.4688 C56.5781,261.0313 56.5625,260.9063 56.4688,260.75 C56.3125,260.4844 56.0313,260.3438 55.7344,260.3438 C55.4375,260.3438 55.2344,260.4375 55.0156,260.75 L54.8438,260.6719 Z " fill="#000000"/><text fill="#000000" font-family="sans-serif" font-size="12" lengthAdjust="spacing" textLength="101" x="66.5" y="269.1543">MedicineHandler</text><line style="stroke:#A80036;stroke-width:1.5;" x1="38.5" x2="169.5" y1="281" y2="281"/><line style="stroke:#A80036;stroke-width:1.5;" x1="38.5" x2="169.5" y1="289" y2="289"/><text fill="#000000" font-family="sans-serif" font-size="11" lengthAdjust="spacing" textLength="112" x="43.5" y="303.2104">+getMedicinesList()</text><text fill="#000000" font-family="sans-serif" font-size="11" lengthAdjust="spacing" textLength="116" x="43.5" y="316.0151">+checkExistence(id)</text><!--MD5=[837d3612090b426002fd1342fcbe6b88]
class DataBase--><rect codeLine="17" fill="#FEFECE" filter="url(#f1ccm4vxo14uns)" height="60.8047" id="DataBase" style="stroke:#A80036;stroke-width:1.5;" width="135" x="36.5" y="383"/><ellipse cx="72.2" cy="399" fill="#ADD1B2" rx="11" ry="11" style="stroke:#A80036;stroke-width:1.0;"/><path d="M74.5438,394.6719 C73.6063,394.2344 73.0125,394.0938 72.1375,394.0938 C69.5125,394.0938 67.5125,396.1719 67.5125,398.8906 L67.5125,400.0156 C67.5125,402.5938 69.6219,404.4844 72.5125,404.4844 C73.7313,404.4844 74.8875,404.1875 75.6375,403.6406 C76.2156,403.2344 76.5438,402.7813 76.5438,402.3906 C76.5438,401.9375 76.1531,401.5469 75.6844,401.5469 C75.4656,401.5469 75.2625,401.625 75.075,401.8125 C74.6219,402.2969 74.6219,402.2969 74.4344,402.3906 C74.0125,402.6563 73.325,402.7813 72.5594,402.7813 C70.5125,402.7813 69.2156,401.6875 69.2156,399.9844 L69.2156,398.8906 C69.2156,397.1094 70.4656,395.7969 72.2,395.7969 C72.7781,395.7969 73.3875,395.9531 73.8563,396.2031 C74.3406,396.4844 74.5125,396.7031 74.6063,397.1094 C74.6688,397.5156 74.7,397.6406 74.8406,397.7656 C74.9813,397.9063 75.2156,398.0156 75.4344,398.0156 C75.7,398.0156 75.9656,397.875 76.1375,397.6563 C76.2469,397.5 76.2781,397.3125 76.2781,396.8906 L76.2781,395.4688 C76.2781,395.0313 76.2625,394.9063 76.1688,394.75 C76.0125,394.4844 75.7313,394.3438 75.4344,394.3438 C75.1375,394.3438 74.9344,394.4375 74.7156,394.75 L74.5438,394.6719 Z " fill="#000000"/><text fill="#000000" font-family="sans-serif" font-size="12" lengthAdjust="spacing" textLength="57" x="90.8" y="403.1543">DataBase</text><line style="stroke:#A80036;stroke-width:1.5;" x1="37.5" x2="170.5" y1="415" y2="415"/><line style="stroke:#A80036;stroke-width:1.5;" x1="37.5" x2="170.5" y1="423" y2="423"/><text fill="#000000" font-family="sans-serif" font-size="11" lengthAdjust="spacing" textLength="123" x="42.5" y="437.2104">+removeMedicine(id)</text><!--MD5=[e5f5f81e6bf2327bb563c5eb6f6ac4a7]
link RemoveMedicineUI to RemoveMedicineController--><path codeLine="21" d="M104,55.227 C104,70.683 104,91.421 104,109.647 " fill="none" id="RemoveMedicineUI-to-RemoveMedicineController" style="stroke:#A80036;stroke-width:1.0;stroke-dasharray:7.0,7.0;"/><polygon fill="#A80036" points="104,114.714,108,105.714,104,109.714,100,105.714,104,114.714" style="stroke:#A80036;stroke-width:1.0;"/><!--MD5=[fdaa021cd558c2d5e35776d824cba1dd]
link RemoveMedicineController to MedicineHandler--><path codeLine="22" d="M104,189.07 C104,205.949 104,226.142 104,243.638 " fill="none" id="RemoveMedicineController-to-MedicineHandler" style="stroke:#A80036;stroke-width:1.0;stroke-dasharray:7.0,7.0;"/><polygon fill="#A80036" points="104,248.974,108,239.974,104,243.974,100,239.974,104,248.974" style="stroke:#A80036;stroke-width:1.0;"/><!--MD5=[81304a25ac0cbb6579b8adfcec556f55]
link MedicineHandler to DataBase--><path codeLine="23" d="M104,323.3 C104,340.357 104,360.6065 104,377.4971 " fill="none" id="MedicineHandler-to-DataBase" style="stroke:#A80036;stroke-width:1.0;stroke-dasharray:7.0,7.0;"/><polygon fill="#A80036" points="104,382.624,108,373.624,104,377.624,100,373.624,104,382.624" style="stroke:#A80036;stroke-width:1.0;"/><!--MD5=[f0b09dd597efdeae54c12e3c67b8ba14]
@startuml
skinparam classAttributeIconSize 0

class RemoveMedicineController {
  +getMedicinesList()
  +removeMedicine(id)
}

class RemoveMedicineUI {
}

class MedicineHandler{ 
  +getMedicinesList()
  +checkExistence(id)
}

  
class DataBase{
  +removeMedicine(id)
}

RemoveMedicineUI ..> RemoveMedicineController
RemoveMedicineController ..> MedicineHandler
MedicineHandler ..> DataBase
@enduml

PlantUML version 1.2020.27beta7(Unknown compile time)
(GPL source distribution)
Java Runtime: Java(TM) SE Runtime Environment
JVM: Java HotSpot(TM) 64-Bit Server VM
Default Encoding: UTF-8
Language: en
Country: US
--></g></svg>