<?xml version="1.0" encoding="UTF-8" standalone="no"?><svg xmlns="http://www.w3.org/2000/svg" xmlns:xlink="http://www.w3.org/1999/xlink" contentScriptType="application/ecmascript" contentStyleType="text/css" height="367px" preserveAspectRatio="none" style="width:674px;height:367px;" version="1.1" viewBox="0 0 674 367" width="674px" zoomAndPan="magnify"><defs><filter height="300%" id="f1dgjyti58856a" width="300%" x="-1" y="-1"><feGaussianBlur result="blurOut" stdDeviation="2.0"/><feColorMatrix in="blurOut" result="blurOut2" type="matrix" values="0 0 0 0 0 0 0 0 0 0 0 0 0 0 0 0 0 0 .4 0"/><feOffset dx="4.0" dy="4.0" in="blurOut2" result="blurOut3"/><feBlend in="SourceGraphic" in2="blurOut3" mode="normal"/></filter></defs><g><rect fill="#FFFFFF" filter="url(#f1dgjyti58856a)" height="166.7969" style="stroke:#A80036;stroke-width:1.0;" width="10" x="53" y="98.2969"/><rect fill="#FFFFFF" filter="url(#f1dgjyti58856a)" height="29.1328" style="stroke:#A80036;stroke-width:1.0;" width="10" x="621" y="119.4297"/><rect fill="#FFFFFF" filter="url(#f1dgjyti58856a)" height="29.1328" style="stroke:#A80036;stroke-width:1.0;" width="10" x="621" y="177.6953"/><rect fill="#FFFFFF" filter="url(#f1dgjyti58856a)" height="29.1328" style="stroke:#A80036;stroke-width:1.0;" width="10" x="621" y="235.9609"/><line style="stroke:#A80036;stroke-width:1.0;stroke-dasharray:5.0,5.0;" x1="58" x2="58" y1="88.2969" y2="283.0938"/><line style="stroke:#A80036;stroke-width:1.0;stroke-dasharray:5.0,5.0;" x1="625.5" x2="625.5" y1="88.2969" y2="283.0938"/><text fill="#000000" font-family="sans-serif" font-size="14" lengthAdjust="spacingAndGlyphs" textLength="100" x="5" y="84.9951">Administrator</text><ellipse cx="58" cy="15" fill="#FEFECE" filter="url(#f1dgjyti58856a)" rx="8" ry="8" style="stroke:#A80036;stroke-width:2.0;"/><path d="M58,23 L58,50 M45,31 L71,31 M58,50 L45,65 M58,50 L71,65 " fill="none" filter="url(#f1dgjyti58856a)" style="stroke:#A80036;stroke-width:2.0;"/><text fill="#000000" font-family="sans-serif" font-size="14" lengthAdjust="spacingAndGlyphs" textLength="100" x="5" y="295.0889">Administrator</text><ellipse cx="58" cy="308.3906" fill="#FEFECE" filter="url(#f1dgjyti58856a)" rx="8" ry="8" style="stroke:#A80036;stroke-width:2.0;"/><path d="M58,316.3906 L58,343.3906 M45,324.3906 L71,324.3906 M58,343.3906 L45,358.3906 M58,343.3906 L71,358.3906 " fill="none" filter="url(#f1dgjyti58856a)" style="stroke:#A80036;stroke-width:2.0;"/><rect fill="#FEFECE" filter="url(#f1dgjyti58856a)" height="30.2969" style="stroke:#A80036;stroke-width:1.5;" width="73" x="587.5" y="53"/><text fill="#000000" font-family="sans-serif" font-size="14" lengthAdjust="spacingAndGlyphs" textLength="59" x="594.5" y="72.9951">:System</text><rect fill="#FEFECE" filter="url(#f1dgjyti58856a)" height="30.2969" style="stroke:#A80036;stroke-width:1.5;" width="73" x="587.5" y="282.0938"/><text fill="#000000" font-family="sans-serif" font-size="14" lengthAdjust="spacingAndGlyphs" textLength="59" x="594.5" y="302.0889">:System</text><rect fill="#FFFFFF" filter="url(#f1dgjyti58856a)" height="166.7969" style="stroke:#A80036;stroke-width:1.0;" width="10" x="53" y="98.2969"/><rect fill="#FFFFFF" filter="url(#f1dgjyti58856a)" height="29.1328" style="stroke:#A80036;stroke-width:1.0;" width="10" x="621" y="119.4297"/><rect fill="#FFFFFF" filter="url(#f1dgjyti58856a)" height="29.1328" style="stroke:#A80036;stroke-width:1.0;" width="10" x="621" y="177.6953"/><rect fill="#FFFFFF" filter="url(#f1dgjyti58856a)" height="29.1328" style="stroke:#A80036;stroke-width:1.0;" width="10" x="621" y="235.9609"/><polygon fill="#A80036" points="609,115.4297,619,119.4297,609,123.4297,613,119.4297" style="stroke:#A80036;stroke-width:1.0;"/><line style="stroke:#A80036;stroke-width:1.0;" x1="63" x2="615" y1="119.4297" y2="119.4297"/><text fill="#000000" font-family="sans-serif" font-size="13" font-weight="bold" lengthAdjust="spacingAndGlyphs" textLength="9" x="70" y="114.3638">1</text><text fill="#000000" font-family="sans-serif" font-size="13" lengthAdjust="spacingAndGlyphs" textLength="297" x="83" y="114.3638">initiates the adding of a courier to the system.</text><polygon fill="#A80036" points="74,144.5625,64,148.5625,74,152.5625,70,148.5625" style="stroke:#A80036;stroke-width:1.0;"/><line style="stroke:#A80036;stroke-width:1.0;stroke-dasharray:2.0,2.0;" x1="68" x2="625" y1="148.5625" y2="148.5625"/><text fill="#000000" font-family="sans-serif" font-size="13" font-weight="bold" lengthAdjust="spacingAndGlyphs" textLength="9" x="80" y="143.4966">2</text><text fill="#000000" font-family="sans-serif" font-size="13" lengthAdjust="spacingAndGlyphs" textLength="521" x="93" y="143.4966">asks for the data (name, email, NIF, social security number, maxWeightCapacity)</text><polygon fill="#A80036" points="609,173.6953,619,177.6953,609,181.6953,613,177.6953" style="stroke:#A80036;stroke-width:1.0;"/><line style="stroke:#A80036;stroke-width:1.0;" x1="63" x2="615" y1="177.6953" y2="177.6953"/><text fill="#000000" font-family="sans-serif" font-size="13" font-weight="bold" lengthAdjust="spacingAndGlyphs" textLength="8" x="70" y="172.6294">3</text><text fill="#000000" font-family="sans-serif" font-size="13" lengthAdjust="spacingAndGlyphs" textLength="167" x="82" y="172.6294">writes the necessary data</text><polygon fill="#A80036" points="74,202.8281,64,206.8281,74,210.8281,70,206.8281" style="stroke:#A80036;stroke-width:1.0;"/><line style="stroke:#A80036;stroke-width:1.0;stroke-dasharray:2.0,2.0;" x1="68" x2="625" y1="206.8281" y2="206.8281"/><text fill="#000000" font-family="sans-serif" font-size="13" font-weight="bold" lengthAdjust="spacingAndGlyphs" textLength="9" x="80" y="201.7622">4</text><text fill="#000000" font-family="sans-serif" font-size="13" lengthAdjust="spacingAndGlyphs" textLength="267" x="93" y="201.7622">shows the data and asks for confirmation</text><polygon fill="#A80036" points="609,231.9609,619,235.9609,609,239.9609,613,235.9609" style="stroke:#A80036;stroke-width:1.0;"/><line style="stroke:#A80036;stroke-width:1.0;" x1="63" x2="615" y1="235.9609" y2="235.9609"/><text fill="#000000" font-family="sans-serif" font-size="13" font-weight="bold" lengthAdjust="spacingAndGlyphs" textLength="9" x="70" y="230.895">5</text><text fill="#000000" font-family="sans-serif" font-size="13" lengthAdjust="spacingAndGlyphs" textLength="114" x="83" y="230.895">confirms the data</text><polygon fill="#A80036" points="69,261.0938,59,265.0938,69,269.0938,65,265.0938" style="stroke:#A80036;stroke-width:1.0;"/><line style="stroke:#A80036;stroke-width:1.0;stroke-dasharray:2.0,2.0;" x1="63" x2="625" y1="265.0938" y2="265.0938"/><text fill="#000000" font-family="sans-serif" font-size="13" font-weight="bold" lengthAdjust="spacingAndGlyphs" textLength="9" x="75" y="260.0278">6</text><text fill="#000000" font-family="sans-serif" font-size="13" lengthAdjust="spacingAndGlyphs" textLength="277" x="88" y="260.0278">informs about the success of the operation</text><!--MD5=[2fd198d6db647aab2204018605c9b2b4]
@startuml
autonumber
actor "Administrator" as ADMIN
activate ADMIN
ADMIN-> ":System" : initiates the adding of a courier to the system.
activate ":System"
":System" - -> ADMIN : asks for the data (name, email, NIF, social security number, maxWeightCapacity)
deactivate ":System"

ADMIN -> ":System" : writes the necessary data
activate ":System"
":System" - -> ADMIN : shows the data and asks for confirmation
deactivate ":System"

ADMIN -> ":System" : confirms the data
activate ":System"
":System" - -> ADMIN : informs about the success of the operation
deactivate ":System"

deactivate ADMIN
@enduml

PlantUML version 1.2020.27beta5(Unknown compile time)
(GPL source distribution)
Java Runtime: Java(TM) SE Runtime Environment
JVM: Java HotSpot(TM) 64-Bit Server VM
Default Encoding: UTF-8
Language: en
Country: US
--></g></svg>