<?xml version="1.0" encoding="UTF-8" standalone="no"?><svg xmlns="http://www.w3.org/2000/svg" xmlns:xlink="http://www.w3.org/1999/xlink" contentScriptType="application/ecmascript" contentStyleType="text/css" height="581px" preserveAspectRatio="none" style="width:828px;height:581px;" version="1.1" viewBox="0 0 828 581" width="828px" zoomAndPan="magnify"><defs><filter height="300%" id="foid3352j2qck" width="300%" x="-1" y="-1"><feGaussianBlur result="blurOut" stdDeviation="2.0"/><feColorMatrix in="blurOut" result="blurOut2" type="matrix" values="0 0 0 0 0 0 0 0 0 0 0 0 0 0 0 0 0 0 .4 0"/><feOffset dx="4.0" dy="4.0" in="blurOut2" result="blurOut3"/><feBlend in="SourceGraphic" in2="blurOut3" mode="normal"/></filter></defs><g><!--MD5=[fb32215e21ebde27cad3e677f506e40e]
class AddCourierController--><rect codeLine="6" fill="#FEFECE" filter="url(#foid3352j2qck)" height="73.6094" id="AddCourierController" style="stroke:#A80036;stroke-width:1.5;" width="492" x="322" y="116"/><ellipse cx="500.25" cy="132" fill="#ADD1B2" rx="11" ry="11" style="stroke:#A80036;stroke-width:1.0;"/><path d="M502.5938,127.6719 C501.6563,127.2344 501.0625,127.0938 500.1875,127.0938 C497.5625,127.0938 495.5625,129.1719 495.5625,131.8906 L495.5625,133.0156 C495.5625,135.5938 497.6719,137.4844 500.5625,137.4844 C501.7813,137.4844 502.9375,137.1875 503.6875,136.6406 C504.2656,136.2344 504.5938,135.7813 504.5938,135.3906 C504.5938,134.9375 504.2031,134.5469 503.7344,134.5469 C503.5156,134.5469 503.3125,134.625 503.125,134.8125 C502.6719,135.2969 502.6719,135.2969 502.4844,135.3906 C502.0625,135.6563 501.375,135.7813 500.6094,135.7813 C498.5625,135.7813 497.2656,134.6875 497.2656,132.9844 L497.2656,131.8906 C497.2656,130.1094 498.5156,128.7969 500.25,128.7969 C500.8281,128.7969 501.4375,128.9531 501.9063,129.2031 C502.3906,129.4844 502.5625,129.7031 502.6563,130.1094 C502.7188,130.5156 502.75,130.6406 502.8906,130.7656 C503.0313,130.9063 503.2656,131.0156 503.4844,131.0156 C503.75,131.0156 504.0156,130.875 504.1875,130.6563 C504.2969,130.5 504.3281,130.3125 504.3281,129.8906 L504.3281,128.4688 C504.3281,128.0313 504.3125,127.9063 504.2188,127.75 C504.0625,127.4844 503.7813,127.3438 503.4844,127.3438 C503.1875,127.3438 502.9844,127.4375 502.7656,127.75 L502.5938,127.6719 Z " fill="#000000"/><text fill="#000000" font-family="sans-serif" font-size="12" lengthAdjust="spacingAndGlyphs" textLength="127" x="520.75" y="136.1543">AddCourierController</text><line style="stroke:#A80036;stroke-width:1.5;" x1="323" x2="813" y1="148" y2="148"/><line style="stroke:#A80036;stroke-width:1.5;" x1="323" x2="813" y1="156" y2="156"/><text fill="#000000" font-family="sans-serif" font-size="11" lengthAdjust="spacingAndGlyphs" textLength="480" x="328" y="170.2104">+setNewCourierData (name, email, NIF, socialSecurityNumber, maxWeightCapacity)</text><text fill="#000000" font-family="sans-serif" font-size="11" lengthAdjust="spacingAndGlyphs" textLength="102" x="328" y="183.0151">+registerCourier()</text><!--MD5=[4f65bef52e02aa8df63daaa8833df758]
class AddCourierUI--><rect codeLine="11" fill="#FEFECE" filter="url(#foid3352j2qck)" height="48" id="AddCourierUI" style="stroke:#A80036;stroke-width:1.5;" width="112" x="512" y="7"/><ellipse cx="527" cy="23" fill="#ADD1B2" rx="11" ry="11" style="stroke:#A80036;stroke-width:1.0;"/><path d="M529.3438,18.6719 C528.4063,18.2344 527.8125,18.0938 526.9375,18.0938 C524.3125,18.0938 522.3125,20.1719 522.3125,22.8906 L522.3125,24.0156 C522.3125,26.5938 524.4219,28.4844 527.3125,28.4844 C528.5313,28.4844 529.6875,28.1875 530.4375,27.6406 C531.0156,27.2344 531.3438,26.7813 531.3438,26.3906 C531.3438,25.9375 530.9531,25.5469 530.4844,25.5469 C530.2656,25.5469 530.0625,25.625 529.875,25.8125 C529.4219,26.2969 529.4219,26.2969 529.2344,26.3906 C528.8125,26.6563 528.125,26.7813 527.3594,26.7813 C525.3125,26.7813 524.0156,25.6875 524.0156,23.9844 L524.0156,22.8906 C524.0156,21.1094 525.2656,19.7969 527,19.7969 C527.5781,19.7969 528.1875,19.9531 528.6563,20.2031 C529.1406,20.4844 529.3125,20.7031 529.4063,21.1094 C529.4688,21.5156 529.5,21.6406 529.6406,21.7656 C529.7813,21.9063 530.0156,22.0156 530.2344,22.0156 C530.5,22.0156 530.7656,21.875 530.9375,21.6563 C531.0469,21.5 531.0781,21.3125 531.0781,20.8906 L531.0781,19.4688 C531.0781,19.0313 531.0625,18.9063 530.9688,18.75 C530.8125,18.4844 530.5313,18.3438 530.2344,18.3438 C529.9375,18.3438 529.7344,18.4375 529.5156,18.75 L529.3438,18.6719 Z " fill="#000000"/><text fill="#000000" font-family="sans-serif" font-size="12" lengthAdjust="spacingAndGlyphs" textLength="80" x="541" y="27.1543">AddCourierUI</text><line style="stroke:#A80036;stroke-width:1.5;" x1="513" x2="623" y1="39" y2="39"/><line style="stroke:#A80036;stroke-width:1.5;" x1="513" x2="623" y1="47" y2="47"/><!--MD5=[7f464dbca06b0b740a63dac6e7027635]
class CourierHandler--><rect codeLine="14" fill="#FEFECE" filter="url(#foid3352j2qck)" height="86.4141" id="CourierHandler" style="stroke:#A80036;stroke-width:1.5;" width="492" x="172" y="267"/><ellipse cx="368.25" cy="283" fill="#ADD1B2" rx="11" ry="11" style="stroke:#A80036;stroke-width:1.0;"/><path d="M370.5938,278.6719 C369.6563,278.2344 369.0625,278.0938 368.1875,278.0938 C365.5625,278.0938 363.5625,280.1719 363.5625,282.8906 L363.5625,284.0156 C363.5625,286.5938 365.6719,288.4844 368.5625,288.4844 C369.7813,288.4844 370.9375,288.1875 371.6875,287.6406 C372.2656,287.2344 372.5938,286.7813 372.5938,286.3906 C372.5938,285.9375 372.2031,285.5469 371.7344,285.5469 C371.5156,285.5469 371.3125,285.625 371.125,285.8125 C370.6719,286.2969 370.6719,286.2969 370.4844,286.3906 C370.0625,286.6563 369.375,286.7813 368.6094,286.7813 C366.5625,286.7813 365.2656,285.6875 365.2656,283.9844 L365.2656,282.8906 C365.2656,281.1094 366.5156,279.7969 368.25,279.7969 C368.8281,279.7969 369.4375,279.9531 369.9063,280.2031 C370.3906,280.4844 370.5625,280.7031 370.6563,281.1094 C370.7188,281.5156 370.75,281.6406 370.8906,281.7656 C371.0313,281.9063 371.2656,282.0156 371.4844,282.0156 C371.75,282.0156 372.0156,281.875 372.1875,281.6563 C372.2969,281.5 372.3281,281.3125 372.3281,280.8906 L372.3281,279.4688 C372.3281,279.0313 372.3125,278.9063 372.2188,278.75 C372.0625,278.4844 371.7813,278.3438 371.4844,278.3438 C371.1875,278.3438 370.9844,278.4375 370.7656,278.75 L370.5938,278.6719 Z " fill="#000000"/><text fill="#000000" font-family="sans-serif" font-size="12" lengthAdjust="spacingAndGlyphs" textLength="91" x="388.75" y="287.1543">CourierHandler</text><line style="stroke:#A80036;stroke-width:1.5;" x1="173" x2="663" y1="299" y2="299"/><line style="stroke:#A80036;stroke-width:1.5;" x1="173" x2="663" y1="307" y2="307"/><text fill="#000000" font-family="sans-serif" font-size="11" lengthAdjust="spacingAndGlyphs" textLength="480" x="178" y="321.2104">+setNewCourierData (name, email, NIF, socialSecurityNumber, maxWeightCapacity)</text><text fill="#000000" font-family="sans-serif" font-size="11" lengthAdjust="spacingAndGlyphs" textLength="126" x="178" y="334.0151">+registerCourier(cour)</text><text fill="#000000" font-family="sans-serif" font-size="11" lengthAdjust="spacingAndGlyphs" textLength="128" x="178" y="346.8198">+validateCourier(cour)</text><!--MD5=[c6a2171c11447acbe08a3dfeee0e1710]
class Courier--><rect codeLine="20" fill="#FEFECE" filter="url(#foid3352j2qck)" height="137.6328" id="Courier" style="stroke:#A80036;stroke-width:1.5;" width="410" x="213" y="430"/><ellipse cx="391.75" cy="446" fill="#ADD1B2" rx="11" ry="11" style="stroke:#A80036;stroke-width:1.0;"/><path d="M394.0938,441.6719 C393.1563,441.2344 392.5625,441.0938 391.6875,441.0938 C389.0625,441.0938 387.0625,443.1719 387.0625,445.8906 L387.0625,447.0156 C387.0625,449.5938 389.1719,451.4844 392.0625,451.4844 C393.2813,451.4844 394.4375,451.1875 395.1875,450.6406 C395.7656,450.2344 396.0938,449.7813 396.0938,449.3906 C396.0938,448.9375 395.7031,448.5469 395.2344,448.5469 C395.0156,448.5469 394.8125,448.625 394.625,448.8125 C394.1719,449.2969 394.1719,449.2969 393.9844,449.3906 C393.5625,449.6563 392.875,449.7813 392.1094,449.7813 C390.0625,449.7813 388.7656,448.6875 388.7656,446.9844 L388.7656,445.8906 C388.7656,444.1094 390.0156,442.7969 391.75,442.7969 C392.3281,442.7969 392.9375,442.9531 393.4063,443.2031 C393.8906,443.4844 394.0625,443.7031 394.1563,444.1094 C394.2188,444.5156 394.25,444.6406 394.3906,444.7656 C394.5313,444.9063 394.7656,445.0156 394.9844,445.0156 C395.25,445.0156 395.5156,444.875 395.6875,444.6563 C395.7969,444.5 395.8281,444.3125 395.8281,443.8906 L395.8281,442.4688 C395.8281,442.0313 395.8125,441.9063 395.7188,441.75 C395.5625,441.4844 395.2813,441.3438 394.9844,441.3438 C394.6875,441.3438 394.4844,441.4375 394.2656,441.75 L394.0938,441.6719 Z " fill="#000000"/><text fill="#000000" font-family="sans-serif" font-size="12" lengthAdjust="spacingAndGlyphs" textLength="44" x="412.25" y="450.1543">Courier</text><line style="stroke:#A80036;stroke-width:1.5;" x1="214" x2="622" y1="462" y2="462"/><text fill="#000000" font-family="sans-serif" font-size="11" lengthAdjust="spacingAndGlyphs" textLength="74" x="219" y="476.2104">-String name</text><text fill="#000000" font-family="sans-serif" font-size="11" lengthAdjust="spacingAndGlyphs" textLength="73" x="219" y="489.0151">-String email</text><text fill="#000000" font-family="sans-serif" font-size="11" lengthAdjust="spacingAndGlyphs" textLength="58" x="219" y="501.8198">-String NIF</text><text fill="#000000" font-family="sans-serif" font-size="11" lengthAdjust="spacingAndGlyphs" textLength="171" x="219" y="514.6245">-double socialSecurityNumber</text><text fill="#000000" font-family="sans-serif" font-size="11" lengthAdjust="spacingAndGlyphs" textLength="161" x="219" y="527.4292">-double maxWeightCapacity</text><line style="stroke:#A80036;stroke-width:1.5;" x1="214" x2="622" y1="534.0234" y2="534.0234"/><text fill="#000000" font-family="sans-serif" font-size="11" lengthAdjust="spacingAndGlyphs" textLength="398" x="219" y="548.2339">+create(name, email, NIF,socialSecurityNumber, maxWeightCapacity)</text><text fill="#000000" font-family="sans-serif" font-size="11" lengthAdjust="spacingAndGlyphs" textLength="128" x="219" y="561.0386">+validateCourier(cour)</text><!--MD5=[da547346deef918ea16944ba046651ef]
class Administrator--><rect codeLine="31" fill="#FEFECE" filter="url(#foid3352j2qck)" height="73.6094" id="Administrator" style="stroke:#A80036;stroke-width:1.5;" width="112" x="16" y="116"/><ellipse cx="31" cy="132" fill="#ADD1B2" rx="11" ry="11" style="stroke:#A80036;stroke-width:1.0;"/><path d="M33.3438,127.6719 C32.4063,127.2344 31.8125,127.0938 30.9375,127.0938 C28.3125,127.0938 26.3125,129.1719 26.3125,131.8906 L26.3125,133.0156 C26.3125,135.5938 28.4219,137.4844 31.3125,137.4844 C32.5313,137.4844 33.6875,137.1875 34.4375,136.6406 C35.0156,136.2344 35.3438,135.7813 35.3438,135.3906 C35.3438,134.9375 34.9531,134.5469 34.4844,134.5469 C34.2656,134.5469 34.0625,134.625 33.875,134.8125 C33.4219,135.2969 33.4219,135.2969 33.2344,135.3906 C32.8125,135.6563 32.125,135.7813 31.3594,135.7813 C29.3125,135.7813 28.0156,134.6875 28.0156,132.9844 L28.0156,131.8906 C28.0156,130.1094 29.2656,128.7969 31,128.7969 C31.5781,128.7969 32.1875,128.9531 32.6563,129.2031 C33.1406,129.4844 33.3125,129.7031 33.4063,130.1094 C33.4688,130.5156 33.5,130.6406 33.6406,130.7656 C33.7813,130.9063 34.0156,131.0156 34.2344,131.0156 C34.5,131.0156 34.7656,130.875 34.9375,130.6563 C35.0469,130.5 35.0781,130.3125 35.0781,129.8906 L35.0781,128.4688 C35.0781,128.0313 35.0625,127.9063 34.9688,127.75 C34.8125,127.4844 34.5313,127.3438 34.2344,127.3438 C33.9375,127.3438 33.7344,127.4375 33.5156,127.75 L33.3438,127.6719 Z " fill="#000000"/><text fill="#000000" font-family="sans-serif" font-size="12" lengthAdjust="spacingAndGlyphs" textLength="80" x="45" y="136.1543">Administrator</text><line style="stroke:#A80036;stroke-width:1.5;" x1="17" x2="127" y1="148" y2="148"/><text fill="#000000" font-family="sans-serif" font-size="11" lengthAdjust="spacingAndGlyphs" textLength="73" x="22" y="162.2104">-String email</text><text fill="#000000" font-family="sans-serif" font-size="11" lengthAdjust="spacingAndGlyphs" textLength="94" x="22" y="175.0151">-String password</text><line style="stroke:#A80036;stroke-width:1.5;" x1="17" x2="127" y1="181.6094" y2="181.6094"/><!--MD5=[7f2a9fafcebe4f099f71398fd3e2ed00]
class Pharmacy--><rect codeLine="36" fill="#FEFECE" filter="url(#foid3352j2qck)" height="86.4141" id="Pharmacy" style="stroke:#A80036;stroke-width:1.5;" width="130" x="7" y="267"/><ellipse cx="40.45" cy="283" fill="#ADD1B2" rx="11" ry="11" style="stroke:#A80036;stroke-width:1.0;"/><path d="M42.7938,278.6719 C41.8563,278.2344 41.2625,278.0938 40.3875,278.0938 C37.7625,278.0938 35.7625,280.1719 35.7625,282.8906 L35.7625,284.0156 C35.7625,286.5938 37.8719,288.4844 40.7625,288.4844 C41.9813,288.4844 43.1375,288.1875 43.8875,287.6406 C44.4656,287.2344 44.7938,286.7813 44.7938,286.3906 C44.7938,285.9375 44.4031,285.5469 43.9344,285.5469 C43.7156,285.5469 43.5125,285.625 43.325,285.8125 C42.8719,286.2969 42.8719,286.2969 42.6844,286.3906 C42.2625,286.6563 41.575,286.7813 40.8094,286.7813 C38.7625,286.7813 37.4656,285.6875 37.4656,283.9844 L37.4656,282.8906 C37.4656,281.1094 38.7156,279.7969 40.45,279.7969 C41.0281,279.7969 41.6375,279.9531 42.1063,280.2031 C42.5906,280.4844 42.7625,280.7031 42.8563,281.1094 C42.9188,281.5156 42.95,281.6406 43.0906,281.7656 C43.2313,281.9063 43.4656,282.0156 43.6844,282.0156 C43.95,282.0156 44.2156,281.875 44.3875,281.6563 C44.4969,281.5 44.5281,281.3125 44.5281,280.8906 L44.5281,279.4688 C44.5281,279.0313 44.5125,278.9063 44.4188,278.75 C44.2625,278.4844 43.9813,278.3438 43.6844,278.3438 C43.3875,278.3438 43.1844,278.4375 42.9656,278.75 L42.7938,278.6719 Z " fill="#000000"/><text fill="#000000" font-family="sans-serif" font-size="12" lengthAdjust="spacingAndGlyphs" textLength="57" x="58.55" y="287.1543">Pharmacy</text><line style="stroke:#A80036;stroke-width:1.5;" x1="8" x2="136" y1="299" y2="299"/><text fill="#000000" font-family="sans-serif" font-size="11" lengthAdjust="spacingAndGlyphs" textLength="51" x="13" y="313.2104">-String id</text><text fill="#000000" font-family="sans-serif" font-size="11" lengthAdjust="spacingAndGlyphs" textLength="74" x="13" y="326.0151">-String name</text><text fill="#000000" font-family="sans-serif" font-size="11" lengthAdjust="spacingAndGlyphs" textLength="118" x="13" y="338.8198">-int quantityScooters</text><line style="stroke:#A80036;stroke-width:1.5;" x1="8" x2="136" y1="345.4141" y2="345.4141"/><!--MD5=[4a07bf62404ebf7cce4b279ac0a963cd]
link AddCourierUI to AddCourierController--><path codeLine="43" d="M568,55.137 C568,70.825 568,92.003 568,110.555 " fill="none" id="AddCourierUI-to-AddCourierController" style="stroke:#A80036;stroke-width:1.0;stroke-dasharray:7.0,7.0;"/><polygon fill="#A80036" points="568,115.711,572,106.711,568,110.711,564,106.711,568,115.711" style="stroke:#A80036;stroke-width:1.0;"/><!--MD5=[cb5658775964e02aec48d015418f7b66]
link AddCourierController to CourierHandler--><path codeLine="44" d="M532.832,190.341 C511.79,212.084 484.855,239.917 462.361,263.161 " fill="none" id="AddCourierController-to-CourierHandler" style="stroke:#A80036;stroke-width:1.0;stroke-dasharray:7.0,7.0;"/><polygon fill="#A80036" points="458.79,266.85,467.9233,263.1645,462.2672,263.2571,462.1746,257.601,458.79,266.85" style="stroke:#A80036;stroke-width:1.0;"/><!--MD5=[8d7dd8dd6e4d8ddca3f54eb9aa1bc61b]
link AddCourierController to Courier--><path codeLine="45" d="M620.04,190.15 C643.712,209.821 669.242,236.39 682,267 C696.705,302.28 701.463,320.104 682,353 C664.108,383.241 637.419,407.596 607.786,427.073 " fill="none" id="AddCourierController-to-Courier" style="stroke:#A80036;stroke-width:1.0;stroke-dasharray:7.0,7.0;"/><polygon fill="#A80036" points="603.393,429.911,613.1234,428.3878,607.593,427.1981,608.7828,421.6678,603.393,429.911" style="stroke:#A80036;stroke-width:1.0;"/><!--MD5=[64af88b43d5e8df23bda954b3911015f]
link CourierHandler to Courier--><path codeLine="46" d="M418,353.433 C418,374.459 418,400.456 418,424.58 " fill="none" id="CourierHandler-to-Courier" style="stroke:#A80036;stroke-width:1.0;stroke-dasharray:7.0,7.0;"/><polygon fill="#A80036" points="418,429.697,422,420.697,418,424.697,414,420.697,418,429.697" style="stroke:#A80036;stroke-width:1.0;"/><!--MD5=[0643aaab1f96e564b90d0ad5c3af18e6]
link Pharmacy to Courier--><path codeLine="48" d="M137.08,346.173 C180.636,369.714 239.388,401.467 291.903,429.849 " fill="none" id="Pharmacy-Courier" style="stroke:#A80036;stroke-width:1.0;"/><polygon fill="#000000" points="243.3987,393.9437,236.8387,387.0576,234.044,392.2286,243.3987,393.9437" style="stroke:#000000;stroke-width:1.0;"/><text fill="#000000" font-family="sans-serif" font-size="13" lengthAdjust="spacingAndGlyphs" textLength="24" x="248" y="396.0669">Has</text><text fill="#000000" font-family="sans-serif" font-size="13" lengthAdjust="spacingAndGlyphs" textLength="8" x="145.0674" y="346.539">1</text><text fill="#000000" font-family="sans-serif" font-size="13" lengthAdjust="spacingAndGlyphs" textLength="16" x="262.0742" y="419.037">1..</text><!--MD5=[8aaadde0a51a6974a75b41b6a40c57cb]
link Administrator to Pharmacy--><path codeLine="49" d="M72,190.341 C72,213.247 72,242.912 72,266.85 " fill="none" id="Administrator-Pharmacy" style="stroke:#A80036;stroke-width:1.0;"/><polygon fill="#000000" points="77,233.5664,79.9389,224.5213,74.0611,224.5213,77,233.5664" style="stroke:#000000;stroke-width:1.0;"/><text fill="#000000" font-family="sans-serif" font-size="13" lengthAdjust="spacingAndGlyphs" textLength="57" x="86" y="233.0669">Manages</text><text fill="#000000" font-family="sans-serif" font-size="13" lengthAdjust="spacingAndGlyphs" textLength="8" x="63.3625" y="209.5961">1</text><text fill="#000000" font-family="sans-serif" font-size="13" lengthAdjust="spacingAndGlyphs" textLength="16" x="54.725" y="255.8221">1..</text><!--MD5=[7feac55adceaef80d886c3bc83303102]
@startuml
skinparam classAttributeIconSize 0




class AddCourierController {
  +setNewCourierData (name, email, NIF, socialSecurityNumber, maxWeightCapacity)
  +registerCourier()
}

class AddCourierUI {
}

class CourierHandler{
    +setNewCourierData (name, email, NIF, socialSecurityNumber, maxWeightCapacity)
    +registerCourier(cour)
    +validateCourier(cour)
}

class Courier {
  -String name
  -String email
  -String NIF
  -double socialSecurityNumber
  -double maxWeightCapacity
  
  +create(name, email, NIF,socialSecurityNumber, maxWeightCapacity)
  +validateCourier(cour)
}

class Administrator{
  -String email
  -String password 
}

class Pharmacy {
  -String id
  -String name
  -int quantityScooters
  }


AddCourierUI ..> AddCourierController
AddCourierController ..> CourierHandler
AddCourierController ..> Courier
CourierHandler ..> Courier

Pharmacy "1" - - "1.." Courier: Has >
Administrator "1" - - "1.." Pharmacy: Manages >
@enduml

PlantUML version 1.2020.27beta5(Unknown compile time)
(GPL source distribution)
Java Runtime: Java(TM) SE Runtime Environment
JVM: Java HotSpot(TM) 64-Bit Server VM
Default Encoding: UTF-8
Language: en
Country: US
--></g></svg>