<?xml version="1.0" encoding="UTF-8" standalone="no"?><svg xmlns="http://www.w3.org/2000/svg" xmlns:xlink="http://www.w3.org/1999/xlink" contentScriptType="application/ecmascript" contentStyleType="text/css" height="716px" preserveAspectRatio="none" style="width:678px;height:716px;" version="1.1" viewBox="0 0 678 716" width="678px" zoomAndPan="magnify"><defs><filter height="300%" id="f11dwww2udm4cn" width="300%" x="-1" y="-1"><feGaussianBlur result="blurOut" stdDeviation="2.0"/><feColorMatrix in="blurOut" result="blurOut2" type="matrix" values="0 0 0 0 0 0 0 0 0 0 0 0 0 0 0 0 0 0 .4 0"/><feOffset dx="4.0" dy="4.0" in="blurOut2" result="blurOut3"/><feBlend in="SourceGraphic" in2="blurOut3" mode="normal"/></filter></defs><g><!--MD5=[fb32215e21ebde27cad3e677f506e40e]
class AddCourierController--><rect codeLine="6" fill="#FEFECE" filter="url(#f11dwww2udm4cn)" height="60.8047" id="AddCourierController" style="stroke:#A80036;stroke-width:1.5;" width="492" x="172" y="170.5"/><ellipse cx="350.25" cy="186.5" fill="#ADD1B2" rx="11" ry="11" style="stroke:#A80036;stroke-width:1.0;"/><path d="M352.5938,182.1719 C351.6563,181.7344 351.0625,181.5938 350.1875,181.5938 C347.5625,181.5938 345.5625,183.6719 345.5625,186.3906 L345.5625,187.5156 C345.5625,190.0938 347.6719,191.9844 350.5625,191.9844 C351.7813,191.9844 352.9375,191.6875 353.6875,191.1406 C354.2656,190.7344 354.5938,190.2813 354.5938,189.8906 C354.5938,189.4375 354.2031,189.0469 353.7344,189.0469 C353.5156,189.0469 353.3125,189.125 353.125,189.3125 C352.6719,189.7969 352.6719,189.7969 352.4844,189.8906 C352.0625,190.1563 351.375,190.2813 350.6094,190.2813 C348.5625,190.2813 347.2656,189.1875 347.2656,187.4844 L347.2656,186.3906 C347.2656,184.6094 348.5156,183.2969 350.25,183.2969 C350.8281,183.2969 351.4375,183.4531 351.9063,183.7031 C352.3906,183.9844 352.5625,184.2031 352.6563,184.6094 C352.7188,185.0156 352.75,185.1406 352.8906,185.2656 C353.0313,185.4063 353.2656,185.5156 353.4844,185.5156 C353.75,185.5156 354.0156,185.375 354.1875,185.1563 C354.2969,185 354.3281,184.8125 354.3281,184.3906 L354.3281,182.9688 C354.3281,182.5313 354.3125,182.4063 354.2188,182.25 C354.0625,181.9844 353.7813,181.8438 353.4844,181.8438 C353.1875,181.8438 352.9844,181.9375 352.7656,182.25 L352.5938,182.1719 Z " fill="#000000"/><text fill="#000000" font-family="sans-serif" font-size="12" lengthAdjust="spacing" textLength="127" x="370.75" y="190.6543">AddCourierController</text><line style="stroke:#A80036;stroke-width:1.5;" x1="173" x2="663" y1="202.5" y2="202.5"/><line style="stroke:#A80036;stroke-width:1.5;" x1="173" x2="663" y1="210.5" y2="210.5"/><text fill="#000000" font-family="sans-serif" font-size="11" lengthAdjust="spacing" textLength="480" x="178" y="224.7104">+setNewCourierData (name, email, NIF, socialSecurityNumber, maxWeightCapacity)</text><!--MD5=[4f65bef52e02aa8df63daaa8833df758]
class AddCourierUI--><rect codeLine="10" fill="#FEFECE" filter="url(#f11dwww2udm4cn)" height="48" id="AddCourierUI" style="stroke:#A80036;stroke-width:1.5;" width="112" x="362" y="20"/><ellipse cx="377" cy="36" fill="#ADD1B2" rx="11" ry="11" style="stroke:#A80036;stroke-width:1.0;"/><path d="M379.3438,31.6719 C378.4063,31.2344 377.8125,31.0938 376.9375,31.0938 C374.3125,31.0938 372.3125,33.1719 372.3125,35.8906 L372.3125,37.0156 C372.3125,39.5938 374.4219,41.4844 377.3125,41.4844 C378.5313,41.4844 379.6875,41.1875 380.4375,40.6406 C381.0156,40.2344 381.3438,39.7813 381.3438,39.3906 C381.3438,38.9375 380.9531,38.5469 380.4844,38.5469 C380.2656,38.5469 380.0625,38.625 379.875,38.8125 C379.4219,39.2969 379.4219,39.2969 379.2344,39.3906 C378.8125,39.6563 378.125,39.7813 377.3594,39.7813 C375.3125,39.7813 374.0156,38.6875 374.0156,36.9844 L374.0156,35.8906 C374.0156,34.1094 375.2656,32.7969 377,32.7969 C377.5781,32.7969 378.1875,32.9531 378.6563,33.2031 C379.1406,33.4844 379.3125,33.7031 379.4063,34.1094 C379.4688,34.5156 379.5,34.6406 379.6406,34.7656 C379.7813,34.9063 380.0156,35.0156 380.2344,35.0156 C380.5,35.0156 380.7656,34.875 380.9375,34.6563 C381.0469,34.5 381.0781,34.3125 381.0781,33.8906 L381.0781,32.4688 C381.0781,32.0313 381.0625,31.9063 380.9688,31.75 C380.8125,31.4844 380.5313,31.3438 380.2344,31.3438 C379.9375,31.3438 379.7344,31.4375 379.5156,31.75 L379.3438,31.6719 Z " fill="#000000"/><text fill="#000000" font-family="sans-serif" font-size="12" lengthAdjust="spacing" textLength="80" x="391" y="40.1543">AddCourierUI</text><line style="stroke:#A80036;stroke-width:1.5;" x1="363" x2="473" y1="52" y2="52"/><line style="stroke:#A80036;stroke-width:1.5;" x1="363" x2="473" y1="60" y2="60"/><!--MD5=[7f464dbca06b0b740a63dac6e7027635]
class CourierHandler--><rect codeLine="13" fill="#FEFECE" filter="url(#f11dwww2udm4cn)" height="60.8047" id="CourierHandler" style="stroke:#A80036;stroke-width:1.5;" width="123" x="218.5" y="520"/><ellipse cx="233.5" cy="536" fill="#ADD1B2" rx="11" ry="11" style="stroke:#A80036;stroke-width:1.0;"/><path d="M235.8438,531.6719 C234.9063,531.2344 234.3125,531.0938 233.4375,531.0938 C230.8125,531.0938 228.8125,533.1719 228.8125,535.8906 L228.8125,537.0156 C228.8125,539.5938 230.9219,541.4844 233.8125,541.4844 C235.0313,541.4844 236.1875,541.1875 236.9375,540.6406 C237.5156,540.2344 237.8438,539.7813 237.8438,539.3906 C237.8438,538.9375 237.4531,538.5469 236.9844,538.5469 C236.7656,538.5469 236.5625,538.625 236.375,538.8125 C235.9219,539.2969 235.9219,539.2969 235.7344,539.3906 C235.3125,539.6563 234.625,539.7813 233.8594,539.7813 C231.8125,539.7813 230.5156,538.6875 230.5156,536.9844 L230.5156,535.8906 C230.5156,534.1094 231.7656,532.7969 233.5,532.7969 C234.0781,532.7969 234.6875,532.9531 235.1563,533.2031 C235.6406,533.4844 235.8125,533.7031 235.9063,534.1094 C235.9688,534.5156 236,534.6406 236.1406,534.7656 C236.2813,534.9063 236.5156,535.0156 236.7344,535.0156 C237,535.0156 237.2656,534.875 237.4375,534.6563 C237.5469,534.5 237.5781,534.3125 237.5781,533.8906 L237.5781,532.4688 C237.5781,532.0313 237.5625,531.9063 237.4688,531.75 C237.3125,531.4844 237.0313,531.3438 236.7344,531.3438 C236.4375,531.3438 236.2344,531.4375 236.0156,531.75 L235.8438,531.6719 Z " fill="#000000"/><text fill="#000000" font-family="sans-serif" font-size="12" lengthAdjust="spacing" textLength="91" x="247.5" y="540.1543">CourierHandler</text><line style="stroke:#A80036;stroke-width:1.5;" x1="219.5" x2="340.5" y1="552" y2="552"/><line style="stroke:#A80036;stroke-width:1.5;" x1="219.5" x2="340.5" y1="560" y2="560"/><text fill="#000000" font-family="sans-serif" font-size="11" lengthAdjust="spacing" textLength="103" x="224.5" y="574.2104">+addCourier(cour)</text><!--MD5=[837d3612090b426002fd1342fcbe6b88]
class DataBase--><rect codeLine="17" fill="#FEFECE" filter="url(#f11dwww2udm4cn)" height="60.8047" id="DataBase" style="stroke:#A80036;stroke-width:1.5;" width="443" x="58.5" y="642"/><ellipse cx="247.25" cy="658" fill="#ADD1B2" rx="11" ry="11" style="stroke:#A80036;stroke-width:1.0;"/><path d="M249.5938,653.6719 C248.6563,653.2344 248.0625,653.0938 247.1875,653.0938 C244.5625,653.0938 242.5625,655.1719 242.5625,657.8906 L242.5625,659.0156 C242.5625,661.5938 244.6719,663.4844 247.5625,663.4844 C248.7813,663.4844 249.9375,663.1875 250.6875,662.6406 C251.2656,662.2344 251.5938,661.7813 251.5938,661.3906 C251.5938,660.9375 251.2031,660.5469 250.7344,660.5469 C250.5156,660.5469 250.3125,660.625 250.125,660.8125 C249.6719,661.2969 249.6719,661.2969 249.4844,661.3906 C249.0625,661.6563 248.375,661.7813 247.6094,661.7813 C245.5625,661.7813 244.2656,660.6875 244.2656,658.9844 L244.2656,657.8906 C244.2656,656.1094 245.5156,654.7969 247.25,654.7969 C247.8281,654.7969 248.4375,654.9531 248.9063,655.2031 C249.3906,655.4844 249.5625,655.7031 249.6563,656.1094 C249.7188,656.5156 249.75,656.6406 249.8906,656.7656 C250.0313,656.9063 250.2656,657.0156 250.4844,657.0156 C250.75,657.0156 251.0156,656.875 251.1875,656.6563 C251.2969,656.5 251.3281,656.3125 251.3281,655.8906 L251.3281,654.4688 C251.3281,654.0313 251.3125,653.9063 251.2188,653.75 C251.0625,653.4844 250.7813,653.3438 250.4844,653.3438 C250.1875,653.3438 249.9844,653.4375 249.7656,653.75 L249.5938,653.6719 Z " fill="#000000"/><text fill="#000000" font-family="sans-serif" font-size="12" lengthAdjust="spacing" textLength="57" x="267.75" y="662.1543">DataBase</text><line style="stroke:#A80036;stroke-width:1.5;" x1="59.5" x2="500.5" y1="674" y2="674"/><line style="stroke:#A80036;stroke-width:1.5;" x1="59.5" x2="500.5" y1="682" y2="682"/><text fill="#000000" font-family="sans-serif" font-size="11" lengthAdjust="spacing" textLength="431" x="64.5" y="696.2104">+addCourier (name, email, NIF, socialSecurityNumber, maxWeightCapacity)</text><!--MD5=[c6a2171c11447acbe08a3dfeee0e1710]
class Courier--><rect codeLine="21" fill="#FEFECE" filter="url(#f11dwww2udm4cn)" height="137.6328" id="Courier" style="stroke:#A80036;stroke-width:1.5;" width="410" x="75" y="321"/><ellipse cx="253.75" cy="337" fill="#ADD1B2" rx="11" ry="11" style="stroke:#A80036;stroke-width:1.0;"/><path d="M256.0938,332.6719 C255.1563,332.2344 254.5625,332.0938 253.6875,332.0938 C251.0625,332.0938 249.0625,334.1719 249.0625,336.8906 L249.0625,338.0156 C249.0625,340.5938 251.1719,342.4844 254.0625,342.4844 C255.2813,342.4844 256.4375,342.1875 257.1875,341.6406 C257.7656,341.2344 258.0938,340.7813 258.0938,340.3906 C258.0938,339.9375 257.7031,339.5469 257.2344,339.5469 C257.0156,339.5469 256.8125,339.625 256.625,339.8125 C256.1719,340.2969 256.1719,340.2969 255.9844,340.3906 C255.5625,340.6563 254.875,340.7813 254.1094,340.7813 C252.0625,340.7813 250.7656,339.6875 250.7656,337.9844 L250.7656,336.8906 C250.7656,335.1094 252.0156,333.7969 253.75,333.7969 C254.3281,333.7969 254.9375,333.9531 255.4063,334.2031 C255.8906,334.4844 256.0625,334.7031 256.1563,335.1094 C256.2188,335.5156 256.25,335.6406 256.3906,335.7656 C256.5313,335.9063 256.7656,336.0156 256.9844,336.0156 C257.25,336.0156 257.5156,335.875 257.6875,335.6563 C257.7969,335.5 257.8281,335.3125 257.8281,334.8906 L257.8281,333.4688 C257.8281,333.0313 257.8125,332.9063 257.7188,332.75 C257.5625,332.4844 257.2813,332.3438 256.9844,332.3438 C256.6875,332.3438 256.4844,332.4375 256.2656,332.75 L256.0938,332.6719 Z " fill="#000000"/><text fill="#000000" font-family="sans-serif" font-size="12" lengthAdjust="spacing" textLength="44" x="274.25" y="341.1543">Courier</text><line style="stroke:#A80036;stroke-width:1.5;" x1="76" x2="484" y1="353" y2="353"/><text fill="#000000" font-family="sans-serif" font-size="11" lengthAdjust="spacing" textLength="74" x="81" y="367.2104">-String name</text><text fill="#000000" font-family="sans-serif" font-size="11" lengthAdjust="spacing" textLength="73" x="81" y="380.0151">-String email</text><text fill="#000000" font-family="sans-serif" font-size="11" lengthAdjust="spacing" textLength="58" x="81" y="392.8198">-String NIF</text><text fill="#000000" font-family="sans-serif" font-size="11" lengthAdjust="spacing" textLength="171" x="81" y="405.6245">-double socialSecurityNumber</text><text fill="#000000" font-family="sans-serif" font-size="11" lengthAdjust="spacing" textLength="161" x="81" y="418.4292">-double maxWeightCapacity</text><line style="stroke:#A80036;stroke-width:1.5;" x1="76" x2="484" y1="425.0234" y2="425.0234"/><text fill="#000000" font-family="sans-serif" font-size="11" lengthAdjust="spacing" textLength="398" x="81" y="439.2339">+create(name, email, NIF,socialSecurityNumber, maxWeightCapacity)</text><text fill="#000000" font-family="sans-serif" font-size="11" lengthAdjust="spacing" textLength="110" x="81" y="452.0386">+saveCourier(cour)</text><!--MD5=[da547346deef918ea16944ba046651ef]
class Administrator--><rect codeLine="32" fill="#FEFECE" filter="url(#f11dwww2udm4cn)" height="73.6094" id="Administrator" style="stroke:#A80036;stroke-width:1.5;" width="112" x="16" y="7"/><ellipse cx="31" cy="23" fill="#ADD1B2" rx="11" ry="11" style="stroke:#A80036;stroke-width:1.0;"/><path d="M33.3438,18.6719 C32.4063,18.2344 31.8125,18.0938 30.9375,18.0938 C28.3125,18.0938 26.3125,20.1719 26.3125,22.8906 L26.3125,24.0156 C26.3125,26.5938 28.4219,28.4844 31.3125,28.4844 C32.5313,28.4844 33.6875,28.1875 34.4375,27.6406 C35.0156,27.2344 35.3438,26.7813 35.3438,26.3906 C35.3438,25.9375 34.9531,25.5469 34.4844,25.5469 C34.2656,25.5469 34.0625,25.625 33.875,25.8125 C33.4219,26.2969 33.4219,26.2969 33.2344,26.3906 C32.8125,26.6563 32.125,26.7813 31.3594,26.7813 C29.3125,26.7813 28.0156,25.6875 28.0156,23.9844 L28.0156,22.8906 C28.0156,21.1094 29.2656,19.7969 31,19.7969 C31.5781,19.7969 32.1875,19.9531 32.6563,20.2031 C33.1406,20.4844 33.3125,20.7031 33.4063,21.1094 C33.4688,21.5156 33.5,21.6406 33.6406,21.7656 C33.7813,21.9063 34.0156,22.0156 34.2344,22.0156 C34.5,22.0156 34.7656,21.875 34.9375,21.6563 C35.0469,21.5 35.0781,21.3125 35.0781,20.8906 L35.0781,19.4688 C35.0781,19.0313 35.0625,18.9063 34.9688,18.75 C34.8125,18.4844 34.5313,18.3438 34.2344,18.3438 C33.9375,18.3438 33.7344,18.4375 33.5156,18.75 L33.3438,18.6719 Z " fill="#000000"/><text fill="#000000" font-family="sans-serif" font-size="12" lengthAdjust="spacing" textLength="80" x="45" y="27.1543">Administrator</text><line style="stroke:#A80036;stroke-width:1.5;" x1="17" x2="127" y1="39" y2="39"/><text fill="#000000" font-family="sans-serif" font-size="11" lengthAdjust="spacing" textLength="73" x="22" y="53.2104">-String email</text><text fill="#000000" font-family="sans-serif" font-size="11" lengthAdjust="spacing" textLength="94" x="22" y="66.0151">-String password</text><line style="stroke:#A80036;stroke-width:1.5;" x1="17" x2="127" y1="72.6094" y2="72.6094"/><!--MD5=[7f2a9fafcebe4f099f71398fd3e2ed00]
class Pharmacy--><rect codeLine="37" fill="#FEFECE" filter="url(#f11dwww2udm4cn)" height="86.4141" id="Pharmacy" style="stroke:#A80036;stroke-width:1.5;" width="130" x="7" y="158"/><ellipse cx="40.45" cy="174" fill="#ADD1B2" rx="11" ry="11" style="stroke:#A80036;stroke-width:1.0;"/><path d="M42.7938,169.6719 C41.8563,169.2344 41.2625,169.0938 40.3875,169.0938 C37.7625,169.0938 35.7625,171.1719 35.7625,173.8906 L35.7625,175.0156 C35.7625,177.5938 37.8719,179.4844 40.7625,179.4844 C41.9813,179.4844 43.1375,179.1875 43.8875,178.6406 C44.4656,178.2344 44.7938,177.7813 44.7938,177.3906 C44.7938,176.9375 44.4031,176.5469 43.9344,176.5469 C43.7156,176.5469 43.5125,176.625 43.325,176.8125 C42.8719,177.2969 42.8719,177.2969 42.6844,177.3906 C42.2625,177.6563 41.575,177.7813 40.8094,177.7813 C38.7625,177.7813 37.4656,176.6875 37.4656,174.9844 L37.4656,173.8906 C37.4656,172.1094 38.7156,170.7969 40.45,170.7969 C41.0281,170.7969 41.6375,170.9531 42.1063,171.2031 C42.5906,171.4844 42.7625,171.7031 42.8563,172.1094 C42.9188,172.5156 42.95,172.6406 43.0906,172.7656 C43.2313,172.9063 43.4656,173.0156 43.6844,173.0156 C43.95,173.0156 44.2156,172.875 44.3875,172.6563 C44.4969,172.5 44.5281,172.3125 44.5281,171.8906 L44.5281,170.4688 C44.5281,170.0313 44.5125,169.9063 44.4188,169.75 C44.2625,169.4844 43.9813,169.3438 43.6844,169.3438 C43.3875,169.3438 43.1844,169.4375 42.9656,169.75 L42.7938,169.6719 Z " fill="#000000"/><text fill="#000000" font-family="sans-serif" font-size="12" lengthAdjust="spacing" textLength="57" x="58.55" y="178.1543">Pharmacy</text><line style="stroke:#A80036;stroke-width:1.5;" x1="8" x2="136" y1="190" y2="190"/><text fill="#000000" font-family="sans-serif" font-size="11" lengthAdjust="spacing" textLength="51" x="13" y="204.2104">-String id</text><text fill="#000000" font-family="sans-serif" font-size="11" lengthAdjust="spacing" textLength="74" x="13" y="217.0151">-String name</text><text fill="#000000" font-family="sans-serif" font-size="11" lengthAdjust="spacing" textLength="118" x="13" y="229.8198">-int quantityScooters</text><line style="stroke:#A80036;stroke-width:1.5;" x1="8" x2="136" y1="236.4141" y2="236.4141"/><!--MD5=[4a07bf62404ebf7cce4b279ac0a963cd]
link AddCourierUI to AddCourierController--><path codeLine="44" d="M418,68.205 C418,93.912 418,135.635 418,165.245 " fill="none" id="AddCourierUI-to-AddCourierController" style="stroke:#A80036;stroke-width:1.0;stroke-dasharray:7.0,7.0;"/><polygon fill="#A80036" points="418,170.256,422,161.256,418,165.256,414,161.256,418,170.256" style="stroke:#A80036;stroke-width:1.0;"/><!--MD5=[8d7dd8dd6e4d8ddca3f54eb9aa1bc61b]
link AddCourierController to Courier--><path codeLine="45" d="M396.133,231.631 C379.328,254.404 355.377,286.859 333.587,316.386 " fill="none" id="AddCourierController-to-Courier" style="stroke:#A80036;stroke-width:1.0;stroke-dasharray:7.0,7.0;"/><polygon fill="#A80036" points="330.389,320.72,338.9517,315.8538,333.3581,316.697,332.5149,311.1033,330.389,320.72" style="stroke:#A80036;stroke-width:1.0;"/><!--MD5=[2eadba00f4ce6e8f55651c53957026b2]
link Courier to CourierHandler--><path codeLine="46" d="M280,459.138 C280,478.135 280,498 280,514.251 " fill="none" id="Courier-to-CourierHandler" style="stroke:#A80036;stroke-width:1.0;stroke-dasharray:7.0,7.0;"/><polygon fill="#A80036" points="280,519.618,284,510.618,280,514.618,276,510.618,280,519.618" style="stroke:#A80036;stroke-width:1.0;"/><!--MD5=[d2d3f3951ea94320f07c4b39a5c6adec]
link CourierHandler to DataBase--><path codeLine="47" d="M280,581.163 C280,597.894 280,618.8957 280,636.4379 " fill="none" id="CourierHandler-to-DataBase" style="stroke:#A80036;stroke-width:1.0;stroke-dasharray:7.0,7.0;"/><polygon fill="#A80036" points="280,641.7624,284,632.7624,280,636.7624,276,632.7624,280,641.7624" style="stroke:#A80036;stroke-width:1.0;"/><!--MD5=[0643aaab1f96e564b90d0ad5c3af18e6]
link Pharmacy to Courier--><path codeLine="49" d="M118.939,244.2 C144.101,266.821 175.717,295.246 204.26,320.907 " fill="none" id="Pharmacy-Courier" style="stroke:#A80036;stroke-width:1.0;"/><polygon fill="#000000" points="178.7182,285.9093,173.9568,277.6765,170.027,282.0475,178.7182,285.9093" style="stroke:#000000;stroke-width:1.0;"/><text fill="#000000" font-family="sans-serif" font-size="13" lengthAdjust="spacing" textLength="24" x="184" y="287.0669">Has</text><text fill="#000000" font-family="sans-serif" font-size="13" lengthAdjust="spacing" textLength="8" x="117.7824" y="264.3248">1</text><text fill="#000000" font-family="sans-serif" font-size="13" lengthAdjust="spacing" textLength="16" x="179.6243" y="310.101">1..</text><!--MD5=[8aaadde0a51a6974a75b41b6a40c57cb]
link Administrator to Pharmacy--><path codeLine="50" d="M72,81.341 C72,104.247 72,133.912 72,157.85 " fill="none" id="Administrator-Pharmacy" style="stroke:#A80036;stroke-width:1.0;"/><polygon fill="#000000" points="77,124.5664,79.9389,115.5213,74.0611,115.5213,77,124.5664" style="stroke:#000000;stroke-width:1.0;"/><text fill="#000000" font-family="sans-serif" font-size="13" lengthAdjust="spacing" textLength="57" x="86" y="124.0669">Manages</text><text fill="#000000" font-family="sans-serif" font-size="13" lengthAdjust="spacing" textLength="8" x="63.3625" y="100.5961">1</text><text fill="#000000" font-family="sans-serif" font-size="13" lengthAdjust="spacing" textLength="16" x="54.725" y="146.8221">1..</text><!--MD5=[322da96752def66ba228c480af7430f1]
@startuml
skinparam classAttributeIconSize 0




class AddCourierController {
  +setNewCourierData (name, email, NIF, socialSecurityNumber, maxWeightCapacity)
}

class AddCourierUI {
}

class CourierHandler{
    +addCourier(cour)
}

class DataBase{
    +addCourier (name, email, NIF, socialSecurityNumber, maxWeightCapacity)
}

class Courier {
  -String name
  -String email
  -String NIF
  -double socialSecurityNumber
  -double maxWeightCapacity
  
  +create(name, email, NIF,socialSecurityNumber, maxWeightCapacity)
  +saveCourier(cour)
}

class Administrator{
  -String email
  -String password 
}

class Pharmacy {
  -String id
  -String name
  -int quantityScooters
  }


AddCourierUI ..> AddCourierController
AddCourierController ..> Courier
Courier ..> CourierHandler
CourierHandler ..> DataBase

Pharmacy "1" - - "1.." Courier: Has >
Administrator "1" - - "1.." Pharmacy: Manages >
@enduml

PlantUML version 1.2020.27beta7(Unknown compile time)
(GPL source distribution)
Java Runtime: Java(TM) SE Runtime Environment
JVM: Java HotSpot(TM) 64-Bit Server VM
Default Encoding: UTF-8
Language: en
Country: US
--></g></svg>